G75*
%MOIN*%
%OFA0B0*%
%FSLAX25Y25*%
%IPPOS*%
%LPD*%
%AMOC8*
5,1,8,0,0,1.08239X$1,22.5*
%
%ADD10C,0.00000*%
%ADD11C,0.00512*%
%ADD12C,0.00600*%
%ADD13R,0.05118X0.05906*%
%ADD14R,0.05906X0.05118*%
%ADD15R,0.07087X0.04724*%
%ADD16R,0.04724X0.07087*%
%ADD17R,0.05512X0.03937*%
%ADD18C,0.06600*%
%ADD19R,0.02200X0.07800*%
%ADD20R,0.20000X0.09000*%
%ADD21R,0.15748X0.09843*%
%ADD22R,0.09843X0.15748*%
%ADD23C,0.07400*%
%ADD24R,0.07087X0.06299*%
%ADD25R,0.05906X0.07874*%
%ADD26R,0.14961X0.07874*%
%ADD27R,0.11024X0.14961*%
%ADD28C,0.30000*%
%ADD29C,0.05000*%
%ADD30C,0.03600*%
%ADD31C,0.04000*%
%ADD32C,0.02578*%
%ADD33C,0.02756*%
%ADD34C,0.02400*%
%ADD35C,0.10000*%
%ADD36C,0.01200*%
%ADD37C,0.03937*%
%ADD38C,0.01575*%
%ADD39C,0.01181*%
%ADD40C,0.02362*%
%ADD41C,0.01600*%
%ADD42C,0.05118*%
%ADD43C,0.05906*%
D10*
X0098342Y0038933D02*
X0098342Y0283894D01*
X0432043Y0283894D01*
X0432043Y0038933D01*
X0098342Y0038933D01*
X0105468Y0053933D02*
X0105470Y0054126D01*
X0105477Y0054319D01*
X0105489Y0054512D01*
X0105506Y0054705D01*
X0105527Y0054897D01*
X0105553Y0055088D01*
X0105584Y0055279D01*
X0105619Y0055469D01*
X0105659Y0055658D01*
X0105704Y0055846D01*
X0105753Y0056033D01*
X0105807Y0056219D01*
X0105865Y0056403D01*
X0105928Y0056586D01*
X0105996Y0056767D01*
X0106067Y0056946D01*
X0106144Y0057124D01*
X0106224Y0057300D01*
X0106309Y0057473D01*
X0106398Y0057645D01*
X0106491Y0057814D01*
X0106588Y0057981D01*
X0106690Y0058146D01*
X0106795Y0058308D01*
X0106904Y0058467D01*
X0107018Y0058624D01*
X0107135Y0058777D01*
X0107255Y0058928D01*
X0107380Y0059076D01*
X0107508Y0059221D01*
X0107639Y0059362D01*
X0107774Y0059501D01*
X0107913Y0059636D01*
X0108054Y0059767D01*
X0108199Y0059895D01*
X0108347Y0060020D01*
X0108498Y0060140D01*
X0108651Y0060257D01*
X0108808Y0060371D01*
X0108967Y0060480D01*
X0109129Y0060585D01*
X0109294Y0060687D01*
X0109461Y0060784D01*
X0109630Y0060877D01*
X0109802Y0060966D01*
X0109975Y0061051D01*
X0110151Y0061131D01*
X0110329Y0061208D01*
X0110508Y0061279D01*
X0110689Y0061347D01*
X0110872Y0061410D01*
X0111056Y0061468D01*
X0111242Y0061522D01*
X0111429Y0061571D01*
X0111617Y0061616D01*
X0111806Y0061656D01*
X0111996Y0061691D01*
X0112187Y0061722D01*
X0112378Y0061748D01*
X0112570Y0061769D01*
X0112763Y0061786D01*
X0112956Y0061798D01*
X0113149Y0061805D01*
X0113342Y0061807D01*
X0113535Y0061805D01*
X0113728Y0061798D01*
X0113921Y0061786D01*
X0114114Y0061769D01*
X0114306Y0061748D01*
X0114497Y0061722D01*
X0114688Y0061691D01*
X0114878Y0061656D01*
X0115067Y0061616D01*
X0115255Y0061571D01*
X0115442Y0061522D01*
X0115628Y0061468D01*
X0115812Y0061410D01*
X0115995Y0061347D01*
X0116176Y0061279D01*
X0116355Y0061208D01*
X0116533Y0061131D01*
X0116709Y0061051D01*
X0116882Y0060966D01*
X0117054Y0060877D01*
X0117223Y0060784D01*
X0117390Y0060687D01*
X0117555Y0060585D01*
X0117717Y0060480D01*
X0117876Y0060371D01*
X0118033Y0060257D01*
X0118186Y0060140D01*
X0118337Y0060020D01*
X0118485Y0059895D01*
X0118630Y0059767D01*
X0118771Y0059636D01*
X0118910Y0059501D01*
X0119045Y0059362D01*
X0119176Y0059221D01*
X0119304Y0059076D01*
X0119429Y0058928D01*
X0119549Y0058777D01*
X0119666Y0058624D01*
X0119780Y0058467D01*
X0119889Y0058308D01*
X0119994Y0058146D01*
X0120096Y0057981D01*
X0120193Y0057814D01*
X0120286Y0057645D01*
X0120375Y0057473D01*
X0120460Y0057300D01*
X0120540Y0057124D01*
X0120617Y0056946D01*
X0120688Y0056767D01*
X0120756Y0056586D01*
X0120819Y0056403D01*
X0120877Y0056219D01*
X0120931Y0056033D01*
X0120980Y0055846D01*
X0121025Y0055658D01*
X0121065Y0055469D01*
X0121100Y0055279D01*
X0121131Y0055088D01*
X0121157Y0054897D01*
X0121178Y0054705D01*
X0121195Y0054512D01*
X0121207Y0054319D01*
X0121214Y0054126D01*
X0121216Y0053933D01*
X0121214Y0053740D01*
X0121207Y0053547D01*
X0121195Y0053354D01*
X0121178Y0053161D01*
X0121157Y0052969D01*
X0121131Y0052778D01*
X0121100Y0052587D01*
X0121065Y0052397D01*
X0121025Y0052208D01*
X0120980Y0052020D01*
X0120931Y0051833D01*
X0120877Y0051647D01*
X0120819Y0051463D01*
X0120756Y0051280D01*
X0120688Y0051099D01*
X0120617Y0050920D01*
X0120540Y0050742D01*
X0120460Y0050566D01*
X0120375Y0050393D01*
X0120286Y0050221D01*
X0120193Y0050052D01*
X0120096Y0049885D01*
X0119994Y0049720D01*
X0119889Y0049558D01*
X0119780Y0049399D01*
X0119666Y0049242D01*
X0119549Y0049089D01*
X0119429Y0048938D01*
X0119304Y0048790D01*
X0119176Y0048645D01*
X0119045Y0048504D01*
X0118910Y0048365D01*
X0118771Y0048230D01*
X0118630Y0048099D01*
X0118485Y0047971D01*
X0118337Y0047846D01*
X0118186Y0047726D01*
X0118033Y0047609D01*
X0117876Y0047495D01*
X0117717Y0047386D01*
X0117555Y0047281D01*
X0117390Y0047179D01*
X0117223Y0047082D01*
X0117054Y0046989D01*
X0116882Y0046900D01*
X0116709Y0046815D01*
X0116533Y0046735D01*
X0116355Y0046658D01*
X0116176Y0046587D01*
X0115995Y0046519D01*
X0115812Y0046456D01*
X0115628Y0046398D01*
X0115442Y0046344D01*
X0115255Y0046295D01*
X0115067Y0046250D01*
X0114878Y0046210D01*
X0114688Y0046175D01*
X0114497Y0046144D01*
X0114306Y0046118D01*
X0114114Y0046097D01*
X0113921Y0046080D01*
X0113728Y0046068D01*
X0113535Y0046061D01*
X0113342Y0046059D01*
X0113149Y0046061D01*
X0112956Y0046068D01*
X0112763Y0046080D01*
X0112570Y0046097D01*
X0112378Y0046118D01*
X0112187Y0046144D01*
X0111996Y0046175D01*
X0111806Y0046210D01*
X0111617Y0046250D01*
X0111429Y0046295D01*
X0111242Y0046344D01*
X0111056Y0046398D01*
X0110872Y0046456D01*
X0110689Y0046519D01*
X0110508Y0046587D01*
X0110329Y0046658D01*
X0110151Y0046735D01*
X0109975Y0046815D01*
X0109802Y0046900D01*
X0109630Y0046989D01*
X0109461Y0047082D01*
X0109294Y0047179D01*
X0109129Y0047281D01*
X0108967Y0047386D01*
X0108808Y0047495D01*
X0108651Y0047609D01*
X0108498Y0047726D01*
X0108347Y0047846D01*
X0108199Y0047971D01*
X0108054Y0048099D01*
X0107913Y0048230D01*
X0107774Y0048365D01*
X0107639Y0048504D01*
X0107508Y0048645D01*
X0107380Y0048790D01*
X0107255Y0048938D01*
X0107135Y0049089D01*
X0107018Y0049242D01*
X0106904Y0049399D01*
X0106795Y0049558D01*
X0106690Y0049720D01*
X0106588Y0049885D01*
X0106491Y0050052D01*
X0106398Y0050221D01*
X0106309Y0050393D01*
X0106224Y0050566D01*
X0106144Y0050742D01*
X0106067Y0050920D01*
X0105996Y0051099D01*
X0105928Y0051280D01*
X0105865Y0051463D01*
X0105807Y0051647D01*
X0105753Y0051833D01*
X0105704Y0052020D01*
X0105659Y0052208D01*
X0105619Y0052397D01*
X0105584Y0052587D01*
X0105553Y0052778D01*
X0105527Y0052969D01*
X0105506Y0053161D01*
X0105489Y0053354D01*
X0105477Y0053547D01*
X0105470Y0053740D01*
X0105468Y0053933D01*
X0281842Y0208933D02*
X0281844Y0209094D01*
X0281850Y0209254D01*
X0281860Y0209415D01*
X0281874Y0209575D01*
X0281892Y0209735D01*
X0281913Y0209894D01*
X0281939Y0210053D01*
X0281969Y0210211D01*
X0282002Y0210368D01*
X0282040Y0210525D01*
X0282081Y0210680D01*
X0282126Y0210834D01*
X0282175Y0210987D01*
X0282228Y0211139D01*
X0282284Y0211290D01*
X0282345Y0211439D01*
X0282408Y0211587D01*
X0282476Y0211733D01*
X0282547Y0211877D01*
X0282621Y0212019D01*
X0282699Y0212160D01*
X0282781Y0212298D01*
X0282866Y0212435D01*
X0282954Y0212569D01*
X0283046Y0212701D01*
X0283141Y0212831D01*
X0283239Y0212959D01*
X0283340Y0213084D01*
X0283444Y0213206D01*
X0283551Y0213326D01*
X0283661Y0213443D01*
X0283774Y0213558D01*
X0283890Y0213669D01*
X0284009Y0213778D01*
X0284130Y0213883D01*
X0284254Y0213986D01*
X0284380Y0214086D01*
X0284508Y0214182D01*
X0284639Y0214275D01*
X0284773Y0214365D01*
X0284908Y0214452D01*
X0285046Y0214535D01*
X0285185Y0214615D01*
X0285327Y0214691D01*
X0285470Y0214764D01*
X0285615Y0214833D01*
X0285762Y0214899D01*
X0285910Y0214961D01*
X0286060Y0215019D01*
X0286211Y0215074D01*
X0286364Y0215125D01*
X0286518Y0215172D01*
X0286673Y0215215D01*
X0286829Y0215254D01*
X0286985Y0215290D01*
X0287143Y0215321D01*
X0287301Y0215349D01*
X0287460Y0215373D01*
X0287620Y0215393D01*
X0287780Y0215409D01*
X0287940Y0215421D01*
X0288101Y0215429D01*
X0288262Y0215433D01*
X0288422Y0215433D01*
X0288583Y0215429D01*
X0288744Y0215421D01*
X0288904Y0215409D01*
X0289064Y0215393D01*
X0289224Y0215373D01*
X0289383Y0215349D01*
X0289541Y0215321D01*
X0289699Y0215290D01*
X0289855Y0215254D01*
X0290011Y0215215D01*
X0290166Y0215172D01*
X0290320Y0215125D01*
X0290473Y0215074D01*
X0290624Y0215019D01*
X0290774Y0214961D01*
X0290922Y0214899D01*
X0291069Y0214833D01*
X0291214Y0214764D01*
X0291357Y0214691D01*
X0291499Y0214615D01*
X0291638Y0214535D01*
X0291776Y0214452D01*
X0291911Y0214365D01*
X0292045Y0214275D01*
X0292176Y0214182D01*
X0292304Y0214086D01*
X0292430Y0213986D01*
X0292554Y0213883D01*
X0292675Y0213778D01*
X0292794Y0213669D01*
X0292910Y0213558D01*
X0293023Y0213443D01*
X0293133Y0213326D01*
X0293240Y0213206D01*
X0293344Y0213084D01*
X0293445Y0212959D01*
X0293543Y0212831D01*
X0293638Y0212701D01*
X0293730Y0212569D01*
X0293818Y0212435D01*
X0293903Y0212298D01*
X0293985Y0212160D01*
X0294063Y0212019D01*
X0294137Y0211877D01*
X0294208Y0211733D01*
X0294276Y0211587D01*
X0294339Y0211439D01*
X0294400Y0211290D01*
X0294456Y0211139D01*
X0294509Y0210987D01*
X0294558Y0210834D01*
X0294603Y0210680D01*
X0294644Y0210525D01*
X0294682Y0210368D01*
X0294715Y0210211D01*
X0294745Y0210053D01*
X0294771Y0209894D01*
X0294792Y0209735D01*
X0294810Y0209575D01*
X0294824Y0209415D01*
X0294834Y0209254D01*
X0294840Y0209094D01*
X0294842Y0208933D01*
X0294840Y0208772D01*
X0294834Y0208612D01*
X0294824Y0208451D01*
X0294810Y0208291D01*
X0294792Y0208131D01*
X0294771Y0207972D01*
X0294745Y0207813D01*
X0294715Y0207655D01*
X0294682Y0207498D01*
X0294644Y0207341D01*
X0294603Y0207186D01*
X0294558Y0207032D01*
X0294509Y0206879D01*
X0294456Y0206727D01*
X0294400Y0206576D01*
X0294339Y0206427D01*
X0294276Y0206279D01*
X0294208Y0206133D01*
X0294137Y0205989D01*
X0294063Y0205847D01*
X0293985Y0205706D01*
X0293903Y0205568D01*
X0293818Y0205431D01*
X0293730Y0205297D01*
X0293638Y0205165D01*
X0293543Y0205035D01*
X0293445Y0204907D01*
X0293344Y0204782D01*
X0293240Y0204660D01*
X0293133Y0204540D01*
X0293023Y0204423D01*
X0292910Y0204308D01*
X0292794Y0204197D01*
X0292675Y0204088D01*
X0292554Y0203983D01*
X0292430Y0203880D01*
X0292304Y0203780D01*
X0292176Y0203684D01*
X0292045Y0203591D01*
X0291911Y0203501D01*
X0291776Y0203414D01*
X0291638Y0203331D01*
X0291499Y0203251D01*
X0291357Y0203175D01*
X0291214Y0203102D01*
X0291069Y0203033D01*
X0290922Y0202967D01*
X0290774Y0202905D01*
X0290624Y0202847D01*
X0290473Y0202792D01*
X0290320Y0202741D01*
X0290166Y0202694D01*
X0290011Y0202651D01*
X0289855Y0202612D01*
X0289699Y0202576D01*
X0289541Y0202545D01*
X0289383Y0202517D01*
X0289224Y0202493D01*
X0289064Y0202473D01*
X0288904Y0202457D01*
X0288744Y0202445D01*
X0288583Y0202437D01*
X0288422Y0202433D01*
X0288262Y0202433D01*
X0288101Y0202437D01*
X0287940Y0202445D01*
X0287780Y0202457D01*
X0287620Y0202473D01*
X0287460Y0202493D01*
X0287301Y0202517D01*
X0287143Y0202545D01*
X0286985Y0202576D01*
X0286829Y0202612D01*
X0286673Y0202651D01*
X0286518Y0202694D01*
X0286364Y0202741D01*
X0286211Y0202792D01*
X0286060Y0202847D01*
X0285910Y0202905D01*
X0285762Y0202967D01*
X0285615Y0203033D01*
X0285470Y0203102D01*
X0285327Y0203175D01*
X0285185Y0203251D01*
X0285046Y0203331D01*
X0284908Y0203414D01*
X0284773Y0203501D01*
X0284639Y0203591D01*
X0284508Y0203684D01*
X0284380Y0203780D01*
X0284254Y0203880D01*
X0284130Y0203983D01*
X0284009Y0204088D01*
X0283890Y0204197D01*
X0283774Y0204308D01*
X0283661Y0204423D01*
X0283551Y0204540D01*
X0283444Y0204660D01*
X0283340Y0204782D01*
X0283239Y0204907D01*
X0283141Y0205035D01*
X0283046Y0205165D01*
X0282954Y0205297D01*
X0282866Y0205431D01*
X0282781Y0205568D01*
X0282699Y0205706D01*
X0282621Y0205847D01*
X0282547Y0205989D01*
X0282476Y0206133D01*
X0282408Y0206279D01*
X0282345Y0206427D01*
X0282284Y0206576D01*
X0282228Y0206727D01*
X0282175Y0206879D01*
X0282126Y0207032D01*
X0282081Y0207186D01*
X0282040Y0207341D01*
X0282002Y0207498D01*
X0281969Y0207655D01*
X0281939Y0207813D01*
X0281913Y0207972D01*
X0281892Y0208131D01*
X0281874Y0208291D01*
X0281860Y0208451D01*
X0281850Y0208612D01*
X0281844Y0208772D01*
X0281842Y0208933D01*
X0281842Y0243933D02*
X0281844Y0244094D01*
X0281850Y0244254D01*
X0281860Y0244415D01*
X0281874Y0244575D01*
X0281892Y0244735D01*
X0281913Y0244894D01*
X0281939Y0245053D01*
X0281969Y0245211D01*
X0282002Y0245368D01*
X0282040Y0245525D01*
X0282081Y0245680D01*
X0282126Y0245834D01*
X0282175Y0245987D01*
X0282228Y0246139D01*
X0282284Y0246290D01*
X0282345Y0246439D01*
X0282408Y0246587D01*
X0282476Y0246733D01*
X0282547Y0246877D01*
X0282621Y0247019D01*
X0282699Y0247160D01*
X0282781Y0247298D01*
X0282866Y0247435D01*
X0282954Y0247569D01*
X0283046Y0247701D01*
X0283141Y0247831D01*
X0283239Y0247959D01*
X0283340Y0248084D01*
X0283444Y0248206D01*
X0283551Y0248326D01*
X0283661Y0248443D01*
X0283774Y0248558D01*
X0283890Y0248669D01*
X0284009Y0248778D01*
X0284130Y0248883D01*
X0284254Y0248986D01*
X0284380Y0249086D01*
X0284508Y0249182D01*
X0284639Y0249275D01*
X0284773Y0249365D01*
X0284908Y0249452D01*
X0285046Y0249535D01*
X0285185Y0249615D01*
X0285327Y0249691D01*
X0285470Y0249764D01*
X0285615Y0249833D01*
X0285762Y0249899D01*
X0285910Y0249961D01*
X0286060Y0250019D01*
X0286211Y0250074D01*
X0286364Y0250125D01*
X0286518Y0250172D01*
X0286673Y0250215D01*
X0286829Y0250254D01*
X0286985Y0250290D01*
X0287143Y0250321D01*
X0287301Y0250349D01*
X0287460Y0250373D01*
X0287620Y0250393D01*
X0287780Y0250409D01*
X0287940Y0250421D01*
X0288101Y0250429D01*
X0288262Y0250433D01*
X0288422Y0250433D01*
X0288583Y0250429D01*
X0288744Y0250421D01*
X0288904Y0250409D01*
X0289064Y0250393D01*
X0289224Y0250373D01*
X0289383Y0250349D01*
X0289541Y0250321D01*
X0289699Y0250290D01*
X0289855Y0250254D01*
X0290011Y0250215D01*
X0290166Y0250172D01*
X0290320Y0250125D01*
X0290473Y0250074D01*
X0290624Y0250019D01*
X0290774Y0249961D01*
X0290922Y0249899D01*
X0291069Y0249833D01*
X0291214Y0249764D01*
X0291357Y0249691D01*
X0291499Y0249615D01*
X0291638Y0249535D01*
X0291776Y0249452D01*
X0291911Y0249365D01*
X0292045Y0249275D01*
X0292176Y0249182D01*
X0292304Y0249086D01*
X0292430Y0248986D01*
X0292554Y0248883D01*
X0292675Y0248778D01*
X0292794Y0248669D01*
X0292910Y0248558D01*
X0293023Y0248443D01*
X0293133Y0248326D01*
X0293240Y0248206D01*
X0293344Y0248084D01*
X0293445Y0247959D01*
X0293543Y0247831D01*
X0293638Y0247701D01*
X0293730Y0247569D01*
X0293818Y0247435D01*
X0293903Y0247298D01*
X0293985Y0247160D01*
X0294063Y0247019D01*
X0294137Y0246877D01*
X0294208Y0246733D01*
X0294276Y0246587D01*
X0294339Y0246439D01*
X0294400Y0246290D01*
X0294456Y0246139D01*
X0294509Y0245987D01*
X0294558Y0245834D01*
X0294603Y0245680D01*
X0294644Y0245525D01*
X0294682Y0245368D01*
X0294715Y0245211D01*
X0294745Y0245053D01*
X0294771Y0244894D01*
X0294792Y0244735D01*
X0294810Y0244575D01*
X0294824Y0244415D01*
X0294834Y0244254D01*
X0294840Y0244094D01*
X0294842Y0243933D01*
X0294840Y0243772D01*
X0294834Y0243612D01*
X0294824Y0243451D01*
X0294810Y0243291D01*
X0294792Y0243131D01*
X0294771Y0242972D01*
X0294745Y0242813D01*
X0294715Y0242655D01*
X0294682Y0242498D01*
X0294644Y0242341D01*
X0294603Y0242186D01*
X0294558Y0242032D01*
X0294509Y0241879D01*
X0294456Y0241727D01*
X0294400Y0241576D01*
X0294339Y0241427D01*
X0294276Y0241279D01*
X0294208Y0241133D01*
X0294137Y0240989D01*
X0294063Y0240847D01*
X0293985Y0240706D01*
X0293903Y0240568D01*
X0293818Y0240431D01*
X0293730Y0240297D01*
X0293638Y0240165D01*
X0293543Y0240035D01*
X0293445Y0239907D01*
X0293344Y0239782D01*
X0293240Y0239660D01*
X0293133Y0239540D01*
X0293023Y0239423D01*
X0292910Y0239308D01*
X0292794Y0239197D01*
X0292675Y0239088D01*
X0292554Y0238983D01*
X0292430Y0238880D01*
X0292304Y0238780D01*
X0292176Y0238684D01*
X0292045Y0238591D01*
X0291911Y0238501D01*
X0291776Y0238414D01*
X0291638Y0238331D01*
X0291499Y0238251D01*
X0291357Y0238175D01*
X0291214Y0238102D01*
X0291069Y0238033D01*
X0290922Y0237967D01*
X0290774Y0237905D01*
X0290624Y0237847D01*
X0290473Y0237792D01*
X0290320Y0237741D01*
X0290166Y0237694D01*
X0290011Y0237651D01*
X0289855Y0237612D01*
X0289699Y0237576D01*
X0289541Y0237545D01*
X0289383Y0237517D01*
X0289224Y0237493D01*
X0289064Y0237473D01*
X0288904Y0237457D01*
X0288744Y0237445D01*
X0288583Y0237437D01*
X0288422Y0237433D01*
X0288262Y0237433D01*
X0288101Y0237437D01*
X0287940Y0237445D01*
X0287780Y0237457D01*
X0287620Y0237473D01*
X0287460Y0237493D01*
X0287301Y0237517D01*
X0287143Y0237545D01*
X0286985Y0237576D01*
X0286829Y0237612D01*
X0286673Y0237651D01*
X0286518Y0237694D01*
X0286364Y0237741D01*
X0286211Y0237792D01*
X0286060Y0237847D01*
X0285910Y0237905D01*
X0285762Y0237967D01*
X0285615Y0238033D01*
X0285470Y0238102D01*
X0285327Y0238175D01*
X0285185Y0238251D01*
X0285046Y0238331D01*
X0284908Y0238414D01*
X0284773Y0238501D01*
X0284639Y0238591D01*
X0284508Y0238684D01*
X0284380Y0238780D01*
X0284254Y0238880D01*
X0284130Y0238983D01*
X0284009Y0239088D01*
X0283890Y0239197D01*
X0283774Y0239308D01*
X0283661Y0239423D01*
X0283551Y0239540D01*
X0283444Y0239660D01*
X0283340Y0239782D01*
X0283239Y0239907D01*
X0283141Y0240035D01*
X0283046Y0240165D01*
X0282954Y0240297D01*
X0282866Y0240431D01*
X0282781Y0240568D01*
X0282699Y0240706D01*
X0282621Y0240847D01*
X0282547Y0240989D01*
X0282476Y0241133D01*
X0282408Y0241279D01*
X0282345Y0241427D01*
X0282284Y0241576D01*
X0282228Y0241727D01*
X0282175Y0241879D01*
X0282126Y0242032D01*
X0282081Y0242186D01*
X0282040Y0242341D01*
X0282002Y0242498D01*
X0281969Y0242655D01*
X0281939Y0242813D01*
X0281913Y0242972D01*
X0281892Y0243131D01*
X0281874Y0243291D01*
X0281860Y0243451D01*
X0281850Y0243612D01*
X0281844Y0243772D01*
X0281842Y0243933D01*
X0410468Y0268933D02*
X0410470Y0269126D01*
X0410477Y0269319D01*
X0410489Y0269512D01*
X0410506Y0269705D01*
X0410527Y0269897D01*
X0410553Y0270088D01*
X0410584Y0270279D01*
X0410619Y0270469D01*
X0410659Y0270658D01*
X0410704Y0270846D01*
X0410753Y0271033D01*
X0410807Y0271219D01*
X0410865Y0271403D01*
X0410928Y0271586D01*
X0410996Y0271767D01*
X0411067Y0271946D01*
X0411144Y0272124D01*
X0411224Y0272300D01*
X0411309Y0272473D01*
X0411398Y0272645D01*
X0411491Y0272814D01*
X0411588Y0272981D01*
X0411690Y0273146D01*
X0411795Y0273308D01*
X0411904Y0273467D01*
X0412018Y0273624D01*
X0412135Y0273777D01*
X0412255Y0273928D01*
X0412380Y0274076D01*
X0412508Y0274221D01*
X0412639Y0274362D01*
X0412774Y0274501D01*
X0412913Y0274636D01*
X0413054Y0274767D01*
X0413199Y0274895D01*
X0413347Y0275020D01*
X0413498Y0275140D01*
X0413651Y0275257D01*
X0413808Y0275371D01*
X0413967Y0275480D01*
X0414129Y0275585D01*
X0414294Y0275687D01*
X0414461Y0275784D01*
X0414630Y0275877D01*
X0414802Y0275966D01*
X0414975Y0276051D01*
X0415151Y0276131D01*
X0415329Y0276208D01*
X0415508Y0276279D01*
X0415689Y0276347D01*
X0415872Y0276410D01*
X0416056Y0276468D01*
X0416242Y0276522D01*
X0416429Y0276571D01*
X0416617Y0276616D01*
X0416806Y0276656D01*
X0416996Y0276691D01*
X0417187Y0276722D01*
X0417378Y0276748D01*
X0417570Y0276769D01*
X0417763Y0276786D01*
X0417956Y0276798D01*
X0418149Y0276805D01*
X0418342Y0276807D01*
X0418535Y0276805D01*
X0418728Y0276798D01*
X0418921Y0276786D01*
X0419114Y0276769D01*
X0419306Y0276748D01*
X0419497Y0276722D01*
X0419688Y0276691D01*
X0419878Y0276656D01*
X0420067Y0276616D01*
X0420255Y0276571D01*
X0420442Y0276522D01*
X0420628Y0276468D01*
X0420812Y0276410D01*
X0420995Y0276347D01*
X0421176Y0276279D01*
X0421355Y0276208D01*
X0421533Y0276131D01*
X0421709Y0276051D01*
X0421882Y0275966D01*
X0422054Y0275877D01*
X0422223Y0275784D01*
X0422390Y0275687D01*
X0422555Y0275585D01*
X0422717Y0275480D01*
X0422876Y0275371D01*
X0423033Y0275257D01*
X0423186Y0275140D01*
X0423337Y0275020D01*
X0423485Y0274895D01*
X0423630Y0274767D01*
X0423771Y0274636D01*
X0423910Y0274501D01*
X0424045Y0274362D01*
X0424176Y0274221D01*
X0424304Y0274076D01*
X0424429Y0273928D01*
X0424549Y0273777D01*
X0424666Y0273624D01*
X0424780Y0273467D01*
X0424889Y0273308D01*
X0424994Y0273146D01*
X0425096Y0272981D01*
X0425193Y0272814D01*
X0425286Y0272645D01*
X0425375Y0272473D01*
X0425460Y0272300D01*
X0425540Y0272124D01*
X0425617Y0271946D01*
X0425688Y0271767D01*
X0425756Y0271586D01*
X0425819Y0271403D01*
X0425877Y0271219D01*
X0425931Y0271033D01*
X0425980Y0270846D01*
X0426025Y0270658D01*
X0426065Y0270469D01*
X0426100Y0270279D01*
X0426131Y0270088D01*
X0426157Y0269897D01*
X0426178Y0269705D01*
X0426195Y0269512D01*
X0426207Y0269319D01*
X0426214Y0269126D01*
X0426216Y0268933D01*
X0426214Y0268740D01*
X0426207Y0268547D01*
X0426195Y0268354D01*
X0426178Y0268161D01*
X0426157Y0267969D01*
X0426131Y0267778D01*
X0426100Y0267587D01*
X0426065Y0267397D01*
X0426025Y0267208D01*
X0425980Y0267020D01*
X0425931Y0266833D01*
X0425877Y0266647D01*
X0425819Y0266463D01*
X0425756Y0266280D01*
X0425688Y0266099D01*
X0425617Y0265920D01*
X0425540Y0265742D01*
X0425460Y0265566D01*
X0425375Y0265393D01*
X0425286Y0265221D01*
X0425193Y0265052D01*
X0425096Y0264885D01*
X0424994Y0264720D01*
X0424889Y0264558D01*
X0424780Y0264399D01*
X0424666Y0264242D01*
X0424549Y0264089D01*
X0424429Y0263938D01*
X0424304Y0263790D01*
X0424176Y0263645D01*
X0424045Y0263504D01*
X0423910Y0263365D01*
X0423771Y0263230D01*
X0423630Y0263099D01*
X0423485Y0262971D01*
X0423337Y0262846D01*
X0423186Y0262726D01*
X0423033Y0262609D01*
X0422876Y0262495D01*
X0422717Y0262386D01*
X0422555Y0262281D01*
X0422390Y0262179D01*
X0422223Y0262082D01*
X0422054Y0261989D01*
X0421882Y0261900D01*
X0421709Y0261815D01*
X0421533Y0261735D01*
X0421355Y0261658D01*
X0421176Y0261587D01*
X0420995Y0261519D01*
X0420812Y0261456D01*
X0420628Y0261398D01*
X0420442Y0261344D01*
X0420255Y0261295D01*
X0420067Y0261250D01*
X0419878Y0261210D01*
X0419688Y0261175D01*
X0419497Y0261144D01*
X0419306Y0261118D01*
X0419114Y0261097D01*
X0418921Y0261080D01*
X0418728Y0261068D01*
X0418535Y0261061D01*
X0418342Y0261059D01*
X0418149Y0261061D01*
X0417956Y0261068D01*
X0417763Y0261080D01*
X0417570Y0261097D01*
X0417378Y0261118D01*
X0417187Y0261144D01*
X0416996Y0261175D01*
X0416806Y0261210D01*
X0416617Y0261250D01*
X0416429Y0261295D01*
X0416242Y0261344D01*
X0416056Y0261398D01*
X0415872Y0261456D01*
X0415689Y0261519D01*
X0415508Y0261587D01*
X0415329Y0261658D01*
X0415151Y0261735D01*
X0414975Y0261815D01*
X0414802Y0261900D01*
X0414630Y0261989D01*
X0414461Y0262082D01*
X0414294Y0262179D01*
X0414129Y0262281D01*
X0413967Y0262386D01*
X0413808Y0262495D01*
X0413651Y0262609D01*
X0413498Y0262726D01*
X0413347Y0262846D01*
X0413199Y0262971D01*
X0413054Y0263099D01*
X0412913Y0263230D01*
X0412774Y0263365D01*
X0412639Y0263504D01*
X0412508Y0263645D01*
X0412380Y0263790D01*
X0412255Y0263938D01*
X0412135Y0264089D01*
X0412018Y0264242D01*
X0411904Y0264399D01*
X0411795Y0264558D01*
X0411690Y0264720D01*
X0411588Y0264885D01*
X0411491Y0265052D01*
X0411398Y0265221D01*
X0411309Y0265393D01*
X0411224Y0265566D01*
X0411144Y0265742D01*
X0411067Y0265920D01*
X0410996Y0266099D01*
X0410928Y0266280D01*
X0410865Y0266463D01*
X0410807Y0266647D01*
X0410753Y0266833D01*
X0410704Y0267020D01*
X0410659Y0267208D01*
X0410619Y0267397D01*
X0410584Y0267587D01*
X0410553Y0267778D01*
X0410527Y0267969D01*
X0410506Y0268161D01*
X0410489Y0268354D01*
X0410477Y0268547D01*
X0410470Y0268740D01*
X0410468Y0268933D01*
X0105468Y0268933D02*
X0105470Y0269126D01*
X0105477Y0269319D01*
X0105489Y0269512D01*
X0105506Y0269705D01*
X0105527Y0269897D01*
X0105553Y0270088D01*
X0105584Y0270279D01*
X0105619Y0270469D01*
X0105659Y0270658D01*
X0105704Y0270846D01*
X0105753Y0271033D01*
X0105807Y0271219D01*
X0105865Y0271403D01*
X0105928Y0271586D01*
X0105996Y0271767D01*
X0106067Y0271946D01*
X0106144Y0272124D01*
X0106224Y0272300D01*
X0106309Y0272473D01*
X0106398Y0272645D01*
X0106491Y0272814D01*
X0106588Y0272981D01*
X0106690Y0273146D01*
X0106795Y0273308D01*
X0106904Y0273467D01*
X0107018Y0273624D01*
X0107135Y0273777D01*
X0107255Y0273928D01*
X0107380Y0274076D01*
X0107508Y0274221D01*
X0107639Y0274362D01*
X0107774Y0274501D01*
X0107913Y0274636D01*
X0108054Y0274767D01*
X0108199Y0274895D01*
X0108347Y0275020D01*
X0108498Y0275140D01*
X0108651Y0275257D01*
X0108808Y0275371D01*
X0108967Y0275480D01*
X0109129Y0275585D01*
X0109294Y0275687D01*
X0109461Y0275784D01*
X0109630Y0275877D01*
X0109802Y0275966D01*
X0109975Y0276051D01*
X0110151Y0276131D01*
X0110329Y0276208D01*
X0110508Y0276279D01*
X0110689Y0276347D01*
X0110872Y0276410D01*
X0111056Y0276468D01*
X0111242Y0276522D01*
X0111429Y0276571D01*
X0111617Y0276616D01*
X0111806Y0276656D01*
X0111996Y0276691D01*
X0112187Y0276722D01*
X0112378Y0276748D01*
X0112570Y0276769D01*
X0112763Y0276786D01*
X0112956Y0276798D01*
X0113149Y0276805D01*
X0113342Y0276807D01*
X0113535Y0276805D01*
X0113728Y0276798D01*
X0113921Y0276786D01*
X0114114Y0276769D01*
X0114306Y0276748D01*
X0114497Y0276722D01*
X0114688Y0276691D01*
X0114878Y0276656D01*
X0115067Y0276616D01*
X0115255Y0276571D01*
X0115442Y0276522D01*
X0115628Y0276468D01*
X0115812Y0276410D01*
X0115995Y0276347D01*
X0116176Y0276279D01*
X0116355Y0276208D01*
X0116533Y0276131D01*
X0116709Y0276051D01*
X0116882Y0275966D01*
X0117054Y0275877D01*
X0117223Y0275784D01*
X0117390Y0275687D01*
X0117555Y0275585D01*
X0117717Y0275480D01*
X0117876Y0275371D01*
X0118033Y0275257D01*
X0118186Y0275140D01*
X0118337Y0275020D01*
X0118485Y0274895D01*
X0118630Y0274767D01*
X0118771Y0274636D01*
X0118910Y0274501D01*
X0119045Y0274362D01*
X0119176Y0274221D01*
X0119304Y0274076D01*
X0119429Y0273928D01*
X0119549Y0273777D01*
X0119666Y0273624D01*
X0119780Y0273467D01*
X0119889Y0273308D01*
X0119994Y0273146D01*
X0120096Y0272981D01*
X0120193Y0272814D01*
X0120286Y0272645D01*
X0120375Y0272473D01*
X0120460Y0272300D01*
X0120540Y0272124D01*
X0120617Y0271946D01*
X0120688Y0271767D01*
X0120756Y0271586D01*
X0120819Y0271403D01*
X0120877Y0271219D01*
X0120931Y0271033D01*
X0120980Y0270846D01*
X0121025Y0270658D01*
X0121065Y0270469D01*
X0121100Y0270279D01*
X0121131Y0270088D01*
X0121157Y0269897D01*
X0121178Y0269705D01*
X0121195Y0269512D01*
X0121207Y0269319D01*
X0121214Y0269126D01*
X0121216Y0268933D01*
X0121214Y0268740D01*
X0121207Y0268547D01*
X0121195Y0268354D01*
X0121178Y0268161D01*
X0121157Y0267969D01*
X0121131Y0267778D01*
X0121100Y0267587D01*
X0121065Y0267397D01*
X0121025Y0267208D01*
X0120980Y0267020D01*
X0120931Y0266833D01*
X0120877Y0266647D01*
X0120819Y0266463D01*
X0120756Y0266280D01*
X0120688Y0266099D01*
X0120617Y0265920D01*
X0120540Y0265742D01*
X0120460Y0265566D01*
X0120375Y0265393D01*
X0120286Y0265221D01*
X0120193Y0265052D01*
X0120096Y0264885D01*
X0119994Y0264720D01*
X0119889Y0264558D01*
X0119780Y0264399D01*
X0119666Y0264242D01*
X0119549Y0264089D01*
X0119429Y0263938D01*
X0119304Y0263790D01*
X0119176Y0263645D01*
X0119045Y0263504D01*
X0118910Y0263365D01*
X0118771Y0263230D01*
X0118630Y0263099D01*
X0118485Y0262971D01*
X0118337Y0262846D01*
X0118186Y0262726D01*
X0118033Y0262609D01*
X0117876Y0262495D01*
X0117717Y0262386D01*
X0117555Y0262281D01*
X0117390Y0262179D01*
X0117223Y0262082D01*
X0117054Y0261989D01*
X0116882Y0261900D01*
X0116709Y0261815D01*
X0116533Y0261735D01*
X0116355Y0261658D01*
X0116176Y0261587D01*
X0115995Y0261519D01*
X0115812Y0261456D01*
X0115628Y0261398D01*
X0115442Y0261344D01*
X0115255Y0261295D01*
X0115067Y0261250D01*
X0114878Y0261210D01*
X0114688Y0261175D01*
X0114497Y0261144D01*
X0114306Y0261118D01*
X0114114Y0261097D01*
X0113921Y0261080D01*
X0113728Y0261068D01*
X0113535Y0261061D01*
X0113342Y0261059D01*
X0113149Y0261061D01*
X0112956Y0261068D01*
X0112763Y0261080D01*
X0112570Y0261097D01*
X0112378Y0261118D01*
X0112187Y0261144D01*
X0111996Y0261175D01*
X0111806Y0261210D01*
X0111617Y0261250D01*
X0111429Y0261295D01*
X0111242Y0261344D01*
X0111056Y0261398D01*
X0110872Y0261456D01*
X0110689Y0261519D01*
X0110508Y0261587D01*
X0110329Y0261658D01*
X0110151Y0261735D01*
X0109975Y0261815D01*
X0109802Y0261900D01*
X0109630Y0261989D01*
X0109461Y0262082D01*
X0109294Y0262179D01*
X0109129Y0262281D01*
X0108967Y0262386D01*
X0108808Y0262495D01*
X0108651Y0262609D01*
X0108498Y0262726D01*
X0108347Y0262846D01*
X0108199Y0262971D01*
X0108054Y0263099D01*
X0107913Y0263230D01*
X0107774Y0263365D01*
X0107639Y0263504D01*
X0107508Y0263645D01*
X0107380Y0263790D01*
X0107255Y0263938D01*
X0107135Y0264089D01*
X0107018Y0264242D01*
X0106904Y0264399D01*
X0106795Y0264558D01*
X0106690Y0264720D01*
X0106588Y0264885D01*
X0106491Y0265052D01*
X0106398Y0265221D01*
X0106309Y0265393D01*
X0106224Y0265566D01*
X0106144Y0265742D01*
X0106067Y0265920D01*
X0105996Y0266099D01*
X0105928Y0266280D01*
X0105865Y0266463D01*
X0105807Y0266647D01*
X0105753Y0266833D01*
X0105704Y0267020D01*
X0105659Y0267208D01*
X0105619Y0267397D01*
X0105584Y0267587D01*
X0105553Y0267778D01*
X0105527Y0267969D01*
X0105506Y0268161D01*
X0105489Y0268354D01*
X0105477Y0268547D01*
X0105470Y0268740D01*
X0105468Y0268933D01*
X0098342Y0255933D02*
X0098342Y0211933D01*
X0410468Y0053933D02*
X0410470Y0054126D01*
X0410477Y0054319D01*
X0410489Y0054512D01*
X0410506Y0054705D01*
X0410527Y0054897D01*
X0410553Y0055088D01*
X0410584Y0055279D01*
X0410619Y0055469D01*
X0410659Y0055658D01*
X0410704Y0055846D01*
X0410753Y0056033D01*
X0410807Y0056219D01*
X0410865Y0056403D01*
X0410928Y0056586D01*
X0410996Y0056767D01*
X0411067Y0056946D01*
X0411144Y0057124D01*
X0411224Y0057300D01*
X0411309Y0057473D01*
X0411398Y0057645D01*
X0411491Y0057814D01*
X0411588Y0057981D01*
X0411690Y0058146D01*
X0411795Y0058308D01*
X0411904Y0058467D01*
X0412018Y0058624D01*
X0412135Y0058777D01*
X0412255Y0058928D01*
X0412380Y0059076D01*
X0412508Y0059221D01*
X0412639Y0059362D01*
X0412774Y0059501D01*
X0412913Y0059636D01*
X0413054Y0059767D01*
X0413199Y0059895D01*
X0413347Y0060020D01*
X0413498Y0060140D01*
X0413651Y0060257D01*
X0413808Y0060371D01*
X0413967Y0060480D01*
X0414129Y0060585D01*
X0414294Y0060687D01*
X0414461Y0060784D01*
X0414630Y0060877D01*
X0414802Y0060966D01*
X0414975Y0061051D01*
X0415151Y0061131D01*
X0415329Y0061208D01*
X0415508Y0061279D01*
X0415689Y0061347D01*
X0415872Y0061410D01*
X0416056Y0061468D01*
X0416242Y0061522D01*
X0416429Y0061571D01*
X0416617Y0061616D01*
X0416806Y0061656D01*
X0416996Y0061691D01*
X0417187Y0061722D01*
X0417378Y0061748D01*
X0417570Y0061769D01*
X0417763Y0061786D01*
X0417956Y0061798D01*
X0418149Y0061805D01*
X0418342Y0061807D01*
X0418535Y0061805D01*
X0418728Y0061798D01*
X0418921Y0061786D01*
X0419114Y0061769D01*
X0419306Y0061748D01*
X0419497Y0061722D01*
X0419688Y0061691D01*
X0419878Y0061656D01*
X0420067Y0061616D01*
X0420255Y0061571D01*
X0420442Y0061522D01*
X0420628Y0061468D01*
X0420812Y0061410D01*
X0420995Y0061347D01*
X0421176Y0061279D01*
X0421355Y0061208D01*
X0421533Y0061131D01*
X0421709Y0061051D01*
X0421882Y0060966D01*
X0422054Y0060877D01*
X0422223Y0060784D01*
X0422390Y0060687D01*
X0422555Y0060585D01*
X0422717Y0060480D01*
X0422876Y0060371D01*
X0423033Y0060257D01*
X0423186Y0060140D01*
X0423337Y0060020D01*
X0423485Y0059895D01*
X0423630Y0059767D01*
X0423771Y0059636D01*
X0423910Y0059501D01*
X0424045Y0059362D01*
X0424176Y0059221D01*
X0424304Y0059076D01*
X0424429Y0058928D01*
X0424549Y0058777D01*
X0424666Y0058624D01*
X0424780Y0058467D01*
X0424889Y0058308D01*
X0424994Y0058146D01*
X0425096Y0057981D01*
X0425193Y0057814D01*
X0425286Y0057645D01*
X0425375Y0057473D01*
X0425460Y0057300D01*
X0425540Y0057124D01*
X0425617Y0056946D01*
X0425688Y0056767D01*
X0425756Y0056586D01*
X0425819Y0056403D01*
X0425877Y0056219D01*
X0425931Y0056033D01*
X0425980Y0055846D01*
X0426025Y0055658D01*
X0426065Y0055469D01*
X0426100Y0055279D01*
X0426131Y0055088D01*
X0426157Y0054897D01*
X0426178Y0054705D01*
X0426195Y0054512D01*
X0426207Y0054319D01*
X0426214Y0054126D01*
X0426216Y0053933D01*
X0426214Y0053740D01*
X0426207Y0053547D01*
X0426195Y0053354D01*
X0426178Y0053161D01*
X0426157Y0052969D01*
X0426131Y0052778D01*
X0426100Y0052587D01*
X0426065Y0052397D01*
X0426025Y0052208D01*
X0425980Y0052020D01*
X0425931Y0051833D01*
X0425877Y0051647D01*
X0425819Y0051463D01*
X0425756Y0051280D01*
X0425688Y0051099D01*
X0425617Y0050920D01*
X0425540Y0050742D01*
X0425460Y0050566D01*
X0425375Y0050393D01*
X0425286Y0050221D01*
X0425193Y0050052D01*
X0425096Y0049885D01*
X0424994Y0049720D01*
X0424889Y0049558D01*
X0424780Y0049399D01*
X0424666Y0049242D01*
X0424549Y0049089D01*
X0424429Y0048938D01*
X0424304Y0048790D01*
X0424176Y0048645D01*
X0424045Y0048504D01*
X0423910Y0048365D01*
X0423771Y0048230D01*
X0423630Y0048099D01*
X0423485Y0047971D01*
X0423337Y0047846D01*
X0423186Y0047726D01*
X0423033Y0047609D01*
X0422876Y0047495D01*
X0422717Y0047386D01*
X0422555Y0047281D01*
X0422390Y0047179D01*
X0422223Y0047082D01*
X0422054Y0046989D01*
X0421882Y0046900D01*
X0421709Y0046815D01*
X0421533Y0046735D01*
X0421355Y0046658D01*
X0421176Y0046587D01*
X0420995Y0046519D01*
X0420812Y0046456D01*
X0420628Y0046398D01*
X0420442Y0046344D01*
X0420255Y0046295D01*
X0420067Y0046250D01*
X0419878Y0046210D01*
X0419688Y0046175D01*
X0419497Y0046144D01*
X0419306Y0046118D01*
X0419114Y0046097D01*
X0418921Y0046080D01*
X0418728Y0046068D01*
X0418535Y0046061D01*
X0418342Y0046059D01*
X0418149Y0046061D01*
X0417956Y0046068D01*
X0417763Y0046080D01*
X0417570Y0046097D01*
X0417378Y0046118D01*
X0417187Y0046144D01*
X0416996Y0046175D01*
X0416806Y0046210D01*
X0416617Y0046250D01*
X0416429Y0046295D01*
X0416242Y0046344D01*
X0416056Y0046398D01*
X0415872Y0046456D01*
X0415689Y0046519D01*
X0415508Y0046587D01*
X0415329Y0046658D01*
X0415151Y0046735D01*
X0414975Y0046815D01*
X0414802Y0046900D01*
X0414630Y0046989D01*
X0414461Y0047082D01*
X0414294Y0047179D01*
X0414129Y0047281D01*
X0413967Y0047386D01*
X0413808Y0047495D01*
X0413651Y0047609D01*
X0413498Y0047726D01*
X0413347Y0047846D01*
X0413199Y0047971D01*
X0413054Y0048099D01*
X0412913Y0048230D01*
X0412774Y0048365D01*
X0412639Y0048504D01*
X0412508Y0048645D01*
X0412380Y0048790D01*
X0412255Y0048938D01*
X0412135Y0049089D01*
X0412018Y0049242D01*
X0411904Y0049399D01*
X0411795Y0049558D01*
X0411690Y0049720D01*
X0411588Y0049885D01*
X0411491Y0050052D01*
X0411398Y0050221D01*
X0411309Y0050393D01*
X0411224Y0050566D01*
X0411144Y0050742D01*
X0411067Y0050920D01*
X0410996Y0051099D01*
X0410928Y0051280D01*
X0410865Y0051463D01*
X0410807Y0051647D01*
X0410753Y0051833D01*
X0410704Y0052020D01*
X0410659Y0052208D01*
X0410619Y0052397D01*
X0410584Y0052587D01*
X0410553Y0052778D01*
X0410527Y0052969D01*
X0410506Y0053161D01*
X0410489Y0053354D01*
X0410477Y0053547D01*
X0410470Y0053740D01*
X0410468Y0053933D01*
D11*
X0098342Y0038933D02*
X0005665Y0038933D01*
X0013342Y0039189D02*
X0014365Y0049169D01*
X0014599Y0049169D02*
X0013342Y0039189D01*
X0012318Y0049169D01*
X0012085Y0049169D02*
X0014599Y0049169D01*
X0013854Y0049169D02*
X0013342Y0039189D01*
X0012830Y0049169D01*
X0012085Y0049169D02*
X0013342Y0039189D01*
X0013342Y0283677D01*
X0014365Y0273697D01*
X0014599Y0273697D02*
X0013342Y0283677D01*
X0012318Y0273697D01*
X0012085Y0273697D02*
X0014599Y0273697D01*
X0013854Y0273697D02*
X0013342Y0283677D01*
X0012830Y0273697D01*
X0012085Y0273697D02*
X0013342Y0283677D01*
X0005665Y0283933D02*
X0098342Y0283933D01*
X0098342Y0386610D01*
X0098598Y0378933D02*
X0108578Y0377909D01*
X0108578Y0377676D02*
X0098598Y0378933D01*
X0108578Y0379957D01*
X0108578Y0380190D02*
X0108578Y0377676D01*
X0108578Y0378421D02*
X0098598Y0378933D01*
X0108578Y0379445D01*
X0108578Y0380190D02*
X0098598Y0378933D01*
X0548086Y0378933D01*
X0538106Y0377909D01*
X0538106Y0377676D02*
X0548086Y0378933D01*
X0538106Y0379957D01*
X0538106Y0380190D02*
X0538106Y0377676D01*
X0538106Y0378421D02*
X0548086Y0378933D01*
X0538106Y0379445D01*
X0538106Y0380190D02*
X0548086Y0378933D01*
X0548342Y0386610D02*
X0548342Y0283933D01*
X0581019Y0283933D01*
X0573342Y0283677D02*
X0574365Y0273697D01*
X0574599Y0273697D02*
X0573342Y0283677D01*
X0572318Y0273697D01*
X0572085Y0273697D02*
X0574599Y0273697D01*
X0573854Y0273697D02*
X0573342Y0283677D01*
X0572830Y0273697D01*
X0572085Y0273697D02*
X0573342Y0283677D01*
X0573342Y0039189D01*
X0574365Y0049169D01*
X0574599Y0049169D02*
X0573342Y0039189D01*
X0572318Y0049169D01*
X0572085Y0049169D02*
X0574599Y0049169D01*
X0573854Y0049169D02*
X0573342Y0039189D01*
X0572830Y0049169D01*
X0572085Y0049169D02*
X0573342Y0039189D01*
X0581019Y0038933D02*
X0548342Y0038933D01*
X0548342Y0001256D01*
X0548086Y0008933D02*
X0538106Y0007909D01*
X0538106Y0007676D02*
X0538106Y0010190D01*
X0548086Y0008933D01*
X0538106Y0009957D01*
X0538106Y0009445D02*
X0548086Y0008933D01*
X0538106Y0008421D01*
X0538106Y0007676D02*
X0548086Y0008933D01*
X0098598Y0008933D01*
X0108578Y0007909D01*
X0108578Y0007676D02*
X0108578Y0010190D01*
X0098598Y0008933D01*
X0108578Y0009957D01*
X0108578Y0009445D02*
X0098598Y0008933D01*
X0108578Y0008421D01*
X0108578Y0007676D02*
X0098598Y0008933D01*
X0098342Y0001256D02*
X0098342Y0038933D01*
X0098342Y0033933D02*
X0098342Y0021256D01*
X0098598Y0028933D02*
X0108578Y0027909D01*
X0108578Y0027676D02*
X0098598Y0028933D01*
X0108578Y0029957D01*
X0108578Y0030190D02*
X0108578Y0027676D01*
X0108578Y0028421D02*
X0098598Y0028933D01*
X0108578Y0029445D01*
X0108578Y0030190D02*
X0098598Y0028933D01*
X0488086Y0028933D01*
X0478106Y0027909D01*
X0478106Y0027676D02*
X0488086Y0028933D01*
X0478106Y0029957D01*
X0478106Y0030190D02*
X0478106Y0027676D01*
X0478106Y0028421D02*
X0488086Y0028933D01*
X0478106Y0029445D01*
X0478106Y0030190D02*
X0488086Y0028933D01*
X0488342Y0023933D02*
X0488342Y0036610D01*
X0443578Y0025190D02*
X0443578Y0022676D01*
X0433598Y0023933D01*
X0443578Y0022909D01*
X0443578Y0023421D02*
X0433598Y0023933D01*
X0443578Y0024957D01*
X0443578Y0025190D02*
X0433598Y0023933D01*
X0443578Y0024445D01*
X0433598Y0023933D02*
X0548086Y0023933D01*
X0538106Y0022909D01*
X0538106Y0022676D02*
X0548086Y0023933D01*
X0538106Y0024957D01*
X0538106Y0025190D02*
X0538106Y0022676D01*
X0538106Y0023421D02*
X0548086Y0023933D01*
X0538106Y0024445D01*
X0538106Y0025190D02*
X0548086Y0023933D01*
X0548342Y0031610D02*
X0548342Y0013933D01*
X0433342Y0013933D02*
X0433342Y0031610D01*
X0098342Y0233933D02*
X0035665Y0233933D01*
X0043342Y0234189D02*
X0044365Y0244169D01*
X0044599Y0244169D02*
X0043342Y0234189D01*
X0042318Y0244169D01*
X0042085Y0244169D02*
X0044599Y0244169D01*
X0043854Y0244169D02*
X0043342Y0234189D01*
X0042830Y0244169D01*
X0042085Y0244169D02*
X0043342Y0234189D01*
X0043342Y0283638D01*
X0044365Y0273657D01*
X0044599Y0273657D02*
X0043342Y0283638D01*
X0042318Y0273657D01*
X0042085Y0273657D02*
X0044599Y0273657D01*
X0043854Y0273657D02*
X0043342Y0283638D01*
X0042830Y0273657D01*
X0042085Y0273657D02*
X0043342Y0283638D01*
X0035665Y0283894D02*
X0098342Y0283894D01*
X0098342Y0293933D02*
X0098342Y0316610D01*
X0098598Y0308933D02*
X0108578Y0307909D01*
X0108578Y0307676D02*
X0098598Y0308933D01*
X0108578Y0309957D01*
X0108578Y0310190D02*
X0108578Y0307676D01*
X0108578Y0308421D02*
X0098598Y0308933D01*
X0108578Y0309445D01*
X0108578Y0310190D02*
X0098598Y0308933D01*
X0488086Y0308933D01*
X0478106Y0307909D01*
X0478106Y0307676D02*
X0488086Y0308933D01*
X0478106Y0309957D01*
X0478106Y0310190D02*
X0478106Y0307676D01*
X0478106Y0308421D02*
X0488086Y0308933D01*
X0478106Y0309445D01*
X0478106Y0310190D02*
X0488086Y0308933D01*
X0488342Y0303933D02*
X0488342Y0316610D01*
D12*
X0336300Y0382384D02*
X0336240Y0382511D01*
X0336184Y0382640D01*
X0336131Y0382770D01*
X0336081Y0382902D01*
X0336035Y0383035D01*
X0335993Y0383169D01*
X0335954Y0383304D01*
X0335918Y0383441D01*
X0335887Y0383578D01*
X0335859Y0383716D01*
X0335834Y0383854D01*
X0335814Y0383993D01*
X0335797Y0384133D01*
X0335784Y0384273D01*
X0335775Y0384414D01*
X0335769Y0384554D01*
X0335767Y0384695D01*
X0339322Y0384695D02*
X0339320Y0384836D01*
X0339314Y0384976D01*
X0339305Y0385117D01*
X0339292Y0385257D01*
X0339275Y0385397D01*
X0339255Y0385536D01*
X0339230Y0385674D01*
X0339202Y0385812D01*
X0339171Y0385949D01*
X0339135Y0386086D01*
X0339096Y0386221D01*
X0339054Y0386355D01*
X0339008Y0386488D01*
X0338958Y0386620D01*
X0338905Y0386750D01*
X0338849Y0386879D01*
X0338789Y0387006D01*
X0338967Y0386473D02*
X0336122Y0382917D01*
X0337545Y0381494D02*
X0337616Y0381496D01*
X0337687Y0381502D01*
X0337757Y0381511D01*
X0337827Y0381525D01*
X0337896Y0381542D01*
X0337963Y0381562D01*
X0338030Y0381587D01*
X0338095Y0381615D01*
X0338159Y0381646D01*
X0338221Y0381681D01*
X0338281Y0381719D01*
X0338338Y0381760D01*
X0338394Y0381804D01*
X0338447Y0381852D01*
X0338497Y0381902D01*
X0338545Y0381954D01*
X0338590Y0382009D01*
X0338631Y0382067D01*
X0338670Y0382127D01*
X0338705Y0382188D01*
X0338737Y0382252D01*
X0338765Y0382317D01*
X0338790Y0382383D01*
X0337545Y0381494D02*
X0337474Y0381496D01*
X0337403Y0381502D01*
X0337333Y0381511D01*
X0337263Y0381525D01*
X0337194Y0381542D01*
X0337127Y0381562D01*
X0337060Y0381587D01*
X0336995Y0381615D01*
X0336931Y0381646D01*
X0336869Y0381681D01*
X0336809Y0381719D01*
X0336751Y0381760D01*
X0336696Y0381804D01*
X0336643Y0381852D01*
X0336593Y0381902D01*
X0336545Y0381954D01*
X0336500Y0382009D01*
X0336459Y0382067D01*
X0336420Y0382127D01*
X0336385Y0382188D01*
X0336353Y0382252D01*
X0336325Y0382317D01*
X0336300Y0382383D01*
X0338789Y0382384D02*
X0338849Y0382511D01*
X0338905Y0382640D01*
X0338958Y0382770D01*
X0339008Y0382902D01*
X0339054Y0383035D01*
X0339096Y0383169D01*
X0339135Y0383304D01*
X0339171Y0383441D01*
X0339202Y0383578D01*
X0339230Y0383716D01*
X0339255Y0383854D01*
X0339275Y0383993D01*
X0339292Y0384133D01*
X0339305Y0384273D01*
X0339314Y0384414D01*
X0339320Y0384554D01*
X0339322Y0384695D01*
X0335767Y0384695D02*
X0335769Y0384836D01*
X0335775Y0384976D01*
X0335784Y0385117D01*
X0335797Y0385257D01*
X0335814Y0385397D01*
X0335834Y0385536D01*
X0335859Y0385674D01*
X0335887Y0385812D01*
X0335918Y0385949D01*
X0335954Y0386086D01*
X0335993Y0386221D01*
X0336035Y0386355D01*
X0336081Y0386488D01*
X0336131Y0386620D01*
X0336184Y0386750D01*
X0336240Y0386879D01*
X0336300Y0387006D01*
X0337545Y0387895D02*
X0337616Y0387893D01*
X0337687Y0387887D01*
X0337757Y0387878D01*
X0337827Y0387864D01*
X0337896Y0387847D01*
X0337963Y0387827D01*
X0338030Y0387802D01*
X0338095Y0387774D01*
X0338159Y0387743D01*
X0338221Y0387708D01*
X0338281Y0387670D01*
X0338339Y0387629D01*
X0338394Y0387585D01*
X0338447Y0387537D01*
X0338497Y0387487D01*
X0338545Y0387435D01*
X0338590Y0387380D01*
X0338631Y0387322D01*
X0338670Y0387262D01*
X0338705Y0387201D01*
X0338737Y0387137D01*
X0338765Y0387072D01*
X0338790Y0387006D01*
X0337545Y0387895D02*
X0337474Y0387893D01*
X0337403Y0387887D01*
X0337333Y0387878D01*
X0337263Y0387864D01*
X0337194Y0387847D01*
X0337127Y0387827D01*
X0337060Y0387802D01*
X0336995Y0387774D01*
X0336931Y0387743D01*
X0336869Y0387708D01*
X0336809Y0387670D01*
X0336751Y0387629D01*
X0336696Y0387585D01*
X0336643Y0387537D01*
X0336593Y0387487D01*
X0336545Y0387435D01*
X0336500Y0387380D01*
X0336459Y0387322D01*
X0336420Y0387262D01*
X0336385Y0387201D01*
X0336353Y0387137D01*
X0336325Y0387072D01*
X0336300Y0387006D01*
X0331746Y0387895D02*
X0331820Y0387893D01*
X0331895Y0387887D01*
X0331968Y0387877D01*
X0332042Y0387864D01*
X0332114Y0387847D01*
X0332185Y0387825D01*
X0332256Y0387801D01*
X0332324Y0387772D01*
X0332392Y0387740D01*
X0332457Y0387704D01*
X0332520Y0387666D01*
X0332582Y0387623D01*
X0332641Y0387578D01*
X0332698Y0387530D01*
X0332752Y0387479D01*
X0332803Y0387425D01*
X0332851Y0387368D01*
X0332896Y0387309D01*
X0332939Y0387247D01*
X0332977Y0387184D01*
X0333013Y0387119D01*
X0333045Y0387051D01*
X0333074Y0386983D01*
X0333098Y0386912D01*
X0333120Y0386841D01*
X0333137Y0386769D01*
X0333150Y0386695D01*
X0333160Y0386622D01*
X0333166Y0386547D01*
X0333168Y0386473D01*
X0333166Y0386399D01*
X0333160Y0386324D01*
X0333150Y0386251D01*
X0333137Y0386177D01*
X0333120Y0386105D01*
X0333098Y0386034D01*
X0333074Y0385963D01*
X0333045Y0385895D01*
X0333013Y0385827D01*
X0332977Y0385762D01*
X0332939Y0385699D01*
X0332896Y0385637D01*
X0332851Y0385578D01*
X0332803Y0385521D01*
X0332752Y0385467D01*
X0332698Y0385416D01*
X0332641Y0385368D01*
X0332582Y0385323D01*
X0332520Y0385280D01*
X0332457Y0385242D01*
X0332392Y0385206D01*
X0332324Y0385174D01*
X0332256Y0385145D01*
X0332185Y0385121D01*
X0332114Y0385099D01*
X0332042Y0385082D01*
X0331968Y0385069D01*
X0331895Y0385059D01*
X0331820Y0385053D01*
X0331746Y0385051D01*
X0331746Y0385050D02*
X0330324Y0385050D01*
X0331391Y0385051D02*
X0331474Y0385049D01*
X0331557Y0385043D01*
X0331640Y0385033D01*
X0331723Y0385020D01*
X0331804Y0385002D01*
X0331885Y0384981D01*
X0331964Y0384956D01*
X0332042Y0384927D01*
X0332119Y0384895D01*
X0332194Y0384859D01*
X0332268Y0384820D01*
X0332339Y0384777D01*
X0332409Y0384731D01*
X0332476Y0384681D01*
X0332541Y0384629D01*
X0332603Y0384574D01*
X0332663Y0384515D01*
X0332720Y0384454D01*
X0332774Y0384391D01*
X0332825Y0384325D01*
X0332872Y0384256D01*
X0332917Y0384186D01*
X0332958Y0384113D01*
X0332995Y0384039D01*
X0333030Y0383963D01*
X0333060Y0383885D01*
X0333087Y0383807D01*
X0333110Y0383726D01*
X0333130Y0383645D01*
X0333145Y0383563D01*
X0333157Y0383481D01*
X0333165Y0383398D01*
X0333169Y0383315D01*
X0333169Y0383231D01*
X0333165Y0383148D01*
X0333157Y0383065D01*
X0333145Y0382983D01*
X0333130Y0382901D01*
X0333110Y0382820D01*
X0333087Y0382739D01*
X0333060Y0382661D01*
X0333030Y0382583D01*
X0332995Y0382507D01*
X0332958Y0382433D01*
X0332917Y0382360D01*
X0332872Y0382290D01*
X0332825Y0382221D01*
X0332774Y0382155D01*
X0332720Y0382092D01*
X0332663Y0382031D01*
X0332603Y0381972D01*
X0332541Y0381917D01*
X0332476Y0381865D01*
X0332409Y0381815D01*
X0332339Y0381769D01*
X0332268Y0381726D01*
X0332194Y0381687D01*
X0332119Y0381651D01*
X0332042Y0381619D01*
X0331964Y0381590D01*
X0331885Y0381565D01*
X0331804Y0381544D01*
X0331723Y0381526D01*
X0331640Y0381513D01*
X0331557Y0381503D01*
X0331474Y0381497D01*
X0331391Y0381495D01*
X0329613Y0381495D01*
X0327261Y0381495D02*
X0326905Y0381495D01*
X0326905Y0381850D01*
X0327261Y0381850D01*
X0327261Y0381495D01*
X0324553Y0382917D02*
X0320997Y0382917D01*
X0322419Y0387895D01*
X0323486Y0384339D02*
X0323486Y0381495D01*
X0318399Y0381495D02*
X0314843Y0381495D01*
X0316621Y0381495D02*
X0316621Y0387895D01*
X0314843Y0386473D01*
X0310467Y0387895D02*
X0310467Y0381495D01*
X0308689Y0381495D02*
X0312245Y0381495D01*
X0308689Y0386473D02*
X0310467Y0387895D01*
X0329613Y0387895D02*
X0331746Y0387895D01*
X0304882Y0317894D02*
X0304776Y0317892D01*
X0304669Y0317886D01*
X0304564Y0317876D01*
X0304458Y0317862D01*
X0304353Y0317844D01*
X0304249Y0317823D01*
X0304146Y0317797D01*
X0304044Y0317768D01*
X0303943Y0317734D01*
X0303843Y0317697D01*
X0303745Y0317657D01*
X0303648Y0317612D01*
X0303553Y0317564D01*
X0303460Y0317513D01*
X0303369Y0317458D01*
X0303280Y0317400D01*
X0303193Y0317338D01*
X0303109Y0317274D01*
X0303027Y0317206D01*
X0302948Y0317135D01*
X0302871Y0317061D01*
X0302797Y0316984D01*
X0302726Y0316905D01*
X0302658Y0316823D01*
X0302594Y0316739D01*
X0302532Y0316652D01*
X0302474Y0316563D01*
X0302419Y0316472D01*
X0302368Y0316379D01*
X0302320Y0316284D01*
X0302275Y0316187D01*
X0302235Y0316089D01*
X0302198Y0315989D01*
X0302164Y0315888D01*
X0302135Y0315786D01*
X0302109Y0315683D01*
X0302088Y0315579D01*
X0302070Y0315474D01*
X0302056Y0315368D01*
X0302046Y0315263D01*
X0302040Y0315156D01*
X0302038Y0315050D01*
X0302038Y0313273D01*
X0296417Y0312384D02*
X0296357Y0312511D01*
X0296301Y0312640D01*
X0296248Y0312770D01*
X0296198Y0312902D01*
X0296152Y0313035D01*
X0296110Y0313169D01*
X0296071Y0313304D01*
X0296035Y0313441D01*
X0296004Y0313578D01*
X0295976Y0313716D01*
X0295951Y0313854D01*
X0295931Y0313993D01*
X0295914Y0314133D01*
X0295901Y0314273D01*
X0295892Y0314414D01*
X0295886Y0314554D01*
X0295884Y0314695D01*
X0299439Y0314695D02*
X0299437Y0314836D01*
X0299431Y0314976D01*
X0299422Y0315117D01*
X0299409Y0315257D01*
X0299392Y0315397D01*
X0299372Y0315536D01*
X0299347Y0315674D01*
X0299319Y0315812D01*
X0299288Y0315949D01*
X0299252Y0316086D01*
X0299213Y0316221D01*
X0299171Y0316355D01*
X0299125Y0316488D01*
X0299075Y0316620D01*
X0299022Y0316750D01*
X0298966Y0316879D01*
X0298906Y0317006D01*
X0299084Y0316473D02*
X0296239Y0312917D01*
X0297661Y0311494D02*
X0297732Y0311496D01*
X0297803Y0311502D01*
X0297873Y0311511D01*
X0297943Y0311525D01*
X0298012Y0311542D01*
X0298079Y0311562D01*
X0298146Y0311587D01*
X0298211Y0311615D01*
X0298275Y0311646D01*
X0298337Y0311681D01*
X0298397Y0311719D01*
X0298454Y0311760D01*
X0298510Y0311804D01*
X0298563Y0311852D01*
X0298613Y0311902D01*
X0298661Y0311954D01*
X0298706Y0312009D01*
X0298747Y0312067D01*
X0298786Y0312127D01*
X0298821Y0312188D01*
X0298853Y0312252D01*
X0298881Y0312317D01*
X0298906Y0312383D01*
X0297661Y0311494D02*
X0297590Y0311496D01*
X0297519Y0311502D01*
X0297449Y0311511D01*
X0297379Y0311525D01*
X0297310Y0311542D01*
X0297243Y0311562D01*
X0297176Y0311587D01*
X0297111Y0311615D01*
X0297047Y0311646D01*
X0296985Y0311681D01*
X0296925Y0311719D01*
X0296867Y0311760D01*
X0296812Y0311804D01*
X0296759Y0311852D01*
X0296709Y0311902D01*
X0296661Y0311954D01*
X0296616Y0312009D01*
X0296575Y0312067D01*
X0296536Y0312127D01*
X0296501Y0312188D01*
X0296469Y0312252D01*
X0296441Y0312317D01*
X0296416Y0312383D01*
X0293531Y0311850D02*
X0293531Y0311495D01*
X0293176Y0311495D01*
X0293176Y0311850D01*
X0293531Y0311850D01*
X0298906Y0312384D02*
X0298966Y0312511D01*
X0299022Y0312640D01*
X0299075Y0312770D01*
X0299125Y0312902D01*
X0299171Y0313035D01*
X0299213Y0313169D01*
X0299252Y0313304D01*
X0299288Y0313441D01*
X0299319Y0313578D01*
X0299347Y0313716D01*
X0299372Y0313854D01*
X0299392Y0313993D01*
X0299409Y0314133D01*
X0299422Y0314273D01*
X0299431Y0314414D01*
X0299437Y0314554D01*
X0299439Y0314695D01*
X0295884Y0314695D02*
X0295886Y0314836D01*
X0295892Y0314976D01*
X0295901Y0315117D01*
X0295914Y0315257D01*
X0295931Y0315397D01*
X0295951Y0315536D01*
X0295976Y0315674D01*
X0296004Y0315812D01*
X0296035Y0315949D01*
X0296071Y0316086D01*
X0296110Y0316221D01*
X0296152Y0316355D01*
X0296198Y0316488D01*
X0296248Y0316620D01*
X0296301Y0316750D01*
X0296357Y0316879D01*
X0296417Y0317006D01*
X0297661Y0317895D02*
X0297732Y0317893D01*
X0297803Y0317887D01*
X0297873Y0317878D01*
X0297943Y0317864D01*
X0298012Y0317847D01*
X0298079Y0317827D01*
X0298146Y0317802D01*
X0298211Y0317774D01*
X0298275Y0317743D01*
X0298337Y0317708D01*
X0298397Y0317670D01*
X0298455Y0317629D01*
X0298510Y0317585D01*
X0298563Y0317537D01*
X0298613Y0317487D01*
X0298661Y0317435D01*
X0298706Y0317380D01*
X0298747Y0317322D01*
X0298786Y0317262D01*
X0298821Y0317201D01*
X0298853Y0317137D01*
X0298881Y0317072D01*
X0298906Y0317006D01*
X0297661Y0317895D02*
X0297590Y0317893D01*
X0297519Y0317887D01*
X0297449Y0317878D01*
X0297379Y0317864D01*
X0297310Y0317847D01*
X0297243Y0317827D01*
X0297176Y0317802D01*
X0297111Y0317774D01*
X0297047Y0317743D01*
X0296985Y0317708D01*
X0296925Y0317670D01*
X0296867Y0317629D01*
X0296812Y0317585D01*
X0296759Y0317537D01*
X0296709Y0317487D01*
X0296661Y0317435D01*
X0296616Y0317380D01*
X0296575Y0317322D01*
X0296536Y0317262D01*
X0296501Y0317201D01*
X0296469Y0317137D01*
X0296441Y0317072D01*
X0296416Y0317006D01*
X0290824Y0316117D02*
X0290824Y0314339D01*
X0288690Y0314339D01*
X0290823Y0314339D02*
X0290821Y0314235D01*
X0290815Y0314131D01*
X0290806Y0314028D01*
X0290793Y0313925D01*
X0290776Y0313822D01*
X0290755Y0313721D01*
X0290731Y0313620D01*
X0290702Y0313520D01*
X0290671Y0313421D01*
X0290635Y0313323D01*
X0290596Y0313227D01*
X0290554Y0313132D01*
X0290508Y0313039D01*
X0290459Y0312947D01*
X0290407Y0312857D01*
X0290351Y0312770D01*
X0290292Y0312684D01*
X0290230Y0312601D01*
X0290165Y0312520D01*
X0290097Y0312441D01*
X0290026Y0312365D01*
X0289953Y0312292D01*
X0289877Y0312221D01*
X0289798Y0312153D01*
X0289717Y0312088D01*
X0289634Y0312026D01*
X0289548Y0311967D01*
X0289461Y0311911D01*
X0289371Y0311859D01*
X0289279Y0311810D01*
X0289186Y0311764D01*
X0289091Y0311722D01*
X0288995Y0311683D01*
X0288897Y0311647D01*
X0288798Y0311616D01*
X0288698Y0311587D01*
X0288597Y0311563D01*
X0288496Y0311542D01*
X0288393Y0311525D01*
X0288290Y0311512D01*
X0288187Y0311503D01*
X0288083Y0311497D01*
X0287979Y0311495D01*
X0287268Y0315762D02*
X0287268Y0316117D01*
X0287268Y0315762D02*
X0287270Y0315688D01*
X0287276Y0315613D01*
X0287286Y0315540D01*
X0287299Y0315466D01*
X0287316Y0315394D01*
X0287338Y0315323D01*
X0287362Y0315252D01*
X0287391Y0315184D01*
X0287423Y0315116D01*
X0287459Y0315051D01*
X0287497Y0314988D01*
X0287540Y0314926D01*
X0287585Y0314867D01*
X0287633Y0314810D01*
X0287684Y0314756D01*
X0287738Y0314705D01*
X0287795Y0314657D01*
X0287854Y0314612D01*
X0287916Y0314569D01*
X0287979Y0314531D01*
X0288044Y0314495D01*
X0288112Y0314463D01*
X0288180Y0314434D01*
X0288251Y0314410D01*
X0288322Y0314388D01*
X0288394Y0314371D01*
X0288468Y0314358D01*
X0288541Y0314348D01*
X0288616Y0314342D01*
X0288690Y0314340D01*
X0287268Y0316117D02*
X0287270Y0316200D01*
X0287276Y0316283D01*
X0287286Y0316366D01*
X0287299Y0316449D01*
X0287317Y0316530D01*
X0287338Y0316611D01*
X0287363Y0316690D01*
X0287392Y0316768D01*
X0287424Y0316845D01*
X0287460Y0316920D01*
X0287499Y0316994D01*
X0287542Y0317065D01*
X0287588Y0317135D01*
X0287638Y0317202D01*
X0287690Y0317267D01*
X0287745Y0317329D01*
X0287804Y0317389D01*
X0287865Y0317446D01*
X0287928Y0317500D01*
X0287994Y0317551D01*
X0288063Y0317598D01*
X0288133Y0317643D01*
X0288206Y0317684D01*
X0288280Y0317721D01*
X0288356Y0317756D01*
X0288434Y0317786D01*
X0288512Y0317813D01*
X0288593Y0317836D01*
X0288674Y0317856D01*
X0288756Y0317871D01*
X0288838Y0317883D01*
X0288921Y0317891D01*
X0289004Y0317895D01*
X0289088Y0317895D01*
X0289171Y0317891D01*
X0289254Y0317883D01*
X0289336Y0317871D01*
X0289418Y0317856D01*
X0289499Y0317836D01*
X0289580Y0317813D01*
X0289658Y0317786D01*
X0289736Y0317756D01*
X0289812Y0317721D01*
X0289886Y0317684D01*
X0289959Y0317643D01*
X0290029Y0317598D01*
X0290098Y0317551D01*
X0290164Y0317500D01*
X0290227Y0317446D01*
X0290288Y0317389D01*
X0290347Y0317329D01*
X0290402Y0317267D01*
X0290454Y0317202D01*
X0290504Y0317135D01*
X0290550Y0317065D01*
X0290593Y0316994D01*
X0290632Y0316920D01*
X0290668Y0316845D01*
X0290700Y0316768D01*
X0290729Y0316690D01*
X0290754Y0316611D01*
X0290775Y0316530D01*
X0290793Y0316449D01*
X0290806Y0316366D01*
X0290816Y0316283D01*
X0290822Y0316200D01*
X0290824Y0316117D01*
X0284670Y0316117D02*
X0284670Y0314339D01*
X0282536Y0314339D01*
X0284669Y0314339D02*
X0284667Y0314235D01*
X0284661Y0314131D01*
X0284652Y0314028D01*
X0284639Y0313925D01*
X0284622Y0313822D01*
X0284601Y0313721D01*
X0284577Y0313620D01*
X0284548Y0313520D01*
X0284517Y0313421D01*
X0284481Y0313323D01*
X0284442Y0313227D01*
X0284400Y0313132D01*
X0284354Y0313039D01*
X0284305Y0312947D01*
X0284253Y0312857D01*
X0284197Y0312770D01*
X0284138Y0312684D01*
X0284076Y0312601D01*
X0284011Y0312520D01*
X0283943Y0312441D01*
X0283872Y0312365D01*
X0283799Y0312292D01*
X0283723Y0312221D01*
X0283644Y0312153D01*
X0283563Y0312088D01*
X0283480Y0312026D01*
X0283394Y0311967D01*
X0283307Y0311911D01*
X0283217Y0311859D01*
X0283125Y0311810D01*
X0283032Y0311764D01*
X0282937Y0311722D01*
X0282841Y0311683D01*
X0282743Y0311647D01*
X0282644Y0311616D01*
X0282544Y0311587D01*
X0282443Y0311563D01*
X0282342Y0311542D01*
X0282239Y0311525D01*
X0282136Y0311512D01*
X0282033Y0311503D01*
X0281929Y0311497D01*
X0281825Y0311495D01*
X0281114Y0315762D02*
X0281114Y0316117D01*
X0281114Y0315762D02*
X0281116Y0315688D01*
X0281122Y0315613D01*
X0281132Y0315540D01*
X0281145Y0315466D01*
X0281162Y0315394D01*
X0281184Y0315323D01*
X0281208Y0315252D01*
X0281237Y0315184D01*
X0281269Y0315116D01*
X0281305Y0315051D01*
X0281343Y0314988D01*
X0281386Y0314926D01*
X0281431Y0314867D01*
X0281479Y0314810D01*
X0281530Y0314756D01*
X0281584Y0314705D01*
X0281641Y0314657D01*
X0281700Y0314612D01*
X0281762Y0314569D01*
X0281825Y0314531D01*
X0281890Y0314495D01*
X0281958Y0314463D01*
X0282026Y0314434D01*
X0282097Y0314410D01*
X0282168Y0314388D01*
X0282240Y0314371D01*
X0282314Y0314358D01*
X0282387Y0314348D01*
X0282462Y0314342D01*
X0282536Y0314340D01*
X0281114Y0316117D02*
X0281116Y0316200D01*
X0281122Y0316283D01*
X0281132Y0316366D01*
X0281145Y0316449D01*
X0281163Y0316530D01*
X0281184Y0316611D01*
X0281209Y0316690D01*
X0281238Y0316768D01*
X0281270Y0316845D01*
X0281306Y0316920D01*
X0281345Y0316994D01*
X0281388Y0317065D01*
X0281434Y0317135D01*
X0281484Y0317202D01*
X0281536Y0317267D01*
X0281591Y0317329D01*
X0281650Y0317389D01*
X0281711Y0317446D01*
X0281774Y0317500D01*
X0281840Y0317551D01*
X0281909Y0317598D01*
X0281979Y0317643D01*
X0282052Y0317684D01*
X0282126Y0317721D01*
X0282202Y0317756D01*
X0282280Y0317786D01*
X0282358Y0317813D01*
X0282439Y0317836D01*
X0282520Y0317856D01*
X0282602Y0317871D01*
X0282684Y0317883D01*
X0282767Y0317891D01*
X0282850Y0317895D01*
X0282934Y0317895D01*
X0283017Y0317891D01*
X0283100Y0317883D01*
X0283182Y0317871D01*
X0283264Y0317856D01*
X0283345Y0317836D01*
X0283426Y0317813D01*
X0283504Y0317786D01*
X0283582Y0317756D01*
X0283658Y0317721D01*
X0283732Y0317684D01*
X0283805Y0317643D01*
X0283875Y0317598D01*
X0283944Y0317551D01*
X0284010Y0317500D01*
X0284073Y0317446D01*
X0284134Y0317389D01*
X0284193Y0317329D01*
X0284248Y0317267D01*
X0284300Y0317202D01*
X0284350Y0317135D01*
X0284396Y0317065D01*
X0284439Y0316994D01*
X0284478Y0316920D01*
X0284514Y0316845D01*
X0284546Y0316768D01*
X0284575Y0316690D01*
X0284600Y0316611D01*
X0284621Y0316530D01*
X0284639Y0316449D01*
X0284652Y0316366D01*
X0284662Y0316283D01*
X0284668Y0316200D01*
X0284670Y0316117D01*
X0302038Y0315050D02*
X0304171Y0315050D01*
X0304245Y0315048D01*
X0304320Y0315042D01*
X0304393Y0315032D01*
X0304467Y0315019D01*
X0304539Y0315002D01*
X0304610Y0314980D01*
X0304681Y0314956D01*
X0304749Y0314927D01*
X0304817Y0314895D01*
X0304882Y0314859D01*
X0304945Y0314821D01*
X0305007Y0314778D01*
X0305066Y0314733D01*
X0305123Y0314685D01*
X0305177Y0314634D01*
X0305228Y0314580D01*
X0305276Y0314523D01*
X0305321Y0314464D01*
X0305364Y0314402D01*
X0305402Y0314339D01*
X0305438Y0314274D01*
X0305470Y0314206D01*
X0305499Y0314138D01*
X0305523Y0314067D01*
X0305545Y0313996D01*
X0305562Y0313924D01*
X0305575Y0313850D01*
X0305585Y0313777D01*
X0305591Y0313702D01*
X0305593Y0313628D01*
X0305593Y0313273D01*
X0305591Y0313190D01*
X0305585Y0313107D01*
X0305575Y0313024D01*
X0305562Y0312941D01*
X0305544Y0312860D01*
X0305523Y0312779D01*
X0305498Y0312700D01*
X0305469Y0312622D01*
X0305437Y0312545D01*
X0305401Y0312470D01*
X0305362Y0312396D01*
X0305319Y0312325D01*
X0305273Y0312255D01*
X0305223Y0312188D01*
X0305171Y0312123D01*
X0305116Y0312061D01*
X0305057Y0312001D01*
X0304996Y0311944D01*
X0304933Y0311890D01*
X0304867Y0311839D01*
X0304798Y0311792D01*
X0304728Y0311747D01*
X0304655Y0311706D01*
X0304581Y0311669D01*
X0304505Y0311634D01*
X0304427Y0311604D01*
X0304349Y0311577D01*
X0304268Y0311554D01*
X0304187Y0311534D01*
X0304105Y0311519D01*
X0304023Y0311507D01*
X0303940Y0311499D01*
X0303857Y0311495D01*
X0303773Y0311495D01*
X0303690Y0311499D01*
X0303607Y0311507D01*
X0303525Y0311519D01*
X0303443Y0311534D01*
X0303362Y0311554D01*
X0303281Y0311577D01*
X0303203Y0311604D01*
X0303125Y0311634D01*
X0303049Y0311669D01*
X0302975Y0311706D01*
X0302902Y0311747D01*
X0302832Y0311792D01*
X0302763Y0311839D01*
X0302697Y0311890D01*
X0302634Y0311944D01*
X0302573Y0312001D01*
X0302514Y0312061D01*
X0302459Y0312123D01*
X0302407Y0312188D01*
X0302357Y0312255D01*
X0302311Y0312325D01*
X0302268Y0312396D01*
X0302229Y0312470D01*
X0302193Y0312545D01*
X0302161Y0312622D01*
X0302132Y0312700D01*
X0302107Y0312779D01*
X0302086Y0312860D01*
X0302068Y0312941D01*
X0302055Y0313024D01*
X0302045Y0313107D01*
X0302039Y0313190D01*
X0302037Y0313273D01*
X0040780Y0259103D02*
X0040780Y0258747D01*
X0040424Y0258747D01*
X0040424Y0259103D01*
X0040780Y0259103D01*
X0040780Y0256395D02*
X0040780Y0252840D01*
X0037224Y0255862D01*
X0034380Y0254795D02*
X0034382Y0254706D01*
X0034388Y0254617D01*
X0034397Y0254528D01*
X0034411Y0254440D01*
X0034428Y0254353D01*
X0034449Y0254266D01*
X0034474Y0254180D01*
X0034502Y0254096D01*
X0034535Y0254013D01*
X0034570Y0253931D01*
X0034610Y0253851D01*
X0034652Y0253773D01*
X0034698Y0253696D01*
X0034747Y0253622D01*
X0034800Y0253550D01*
X0034855Y0253480D01*
X0034914Y0253413D01*
X0034975Y0253348D01*
X0035039Y0253286D01*
X0035106Y0253227D01*
X0035175Y0253171D01*
X0035247Y0253118D01*
X0035321Y0253068D01*
X0035397Y0253021D01*
X0035474Y0252978D01*
X0035554Y0252938D01*
X0035635Y0252901D01*
X0035718Y0252868D01*
X0035803Y0252839D01*
X0037225Y0255863D02*
X0037167Y0255920D01*
X0037106Y0255976D01*
X0037043Y0256028D01*
X0036978Y0256077D01*
X0036910Y0256123D01*
X0036840Y0256165D01*
X0036768Y0256205D01*
X0036695Y0256240D01*
X0036619Y0256273D01*
X0036543Y0256301D01*
X0036465Y0256326D01*
X0036386Y0256347D01*
X0036306Y0256365D01*
X0036225Y0256378D01*
X0036144Y0256388D01*
X0036062Y0256394D01*
X0035980Y0256396D01*
X0035980Y0256395D02*
X0035901Y0256393D01*
X0035823Y0256387D01*
X0035745Y0256378D01*
X0035668Y0256364D01*
X0035591Y0256347D01*
X0035516Y0256326D01*
X0035441Y0256301D01*
X0035368Y0256273D01*
X0035296Y0256241D01*
X0035226Y0256206D01*
X0035157Y0256167D01*
X0035091Y0256125D01*
X0035027Y0256080D01*
X0034965Y0256032D01*
X0034906Y0255981D01*
X0034849Y0255926D01*
X0034794Y0255869D01*
X0034743Y0255810D01*
X0034695Y0255748D01*
X0034650Y0255684D01*
X0034608Y0255618D01*
X0034569Y0255549D01*
X0034534Y0255479D01*
X0034502Y0255407D01*
X0034474Y0255334D01*
X0034449Y0255259D01*
X0034428Y0255184D01*
X0034411Y0255107D01*
X0034397Y0255030D01*
X0034388Y0254952D01*
X0034382Y0254874D01*
X0034380Y0254795D01*
X0034380Y0248463D02*
X0040780Y0248463D01*
X0040780Y0246686D02*
X0040780Y0250241D01*
X0035802Y0246686D02*
X0034380Y0248463D01*
X0037224Y0261455D02*
X0039002Y0261455D01*
X0037224Y0261455D02*
X0037224Y0263589D01*
X0037224Y0261456D02*
X0037118Y0261458D01*
X0037011Y0261464D01*
X0036906Y0261474D01*
X0036800Y0261488D01*
X0036695Y0261506D01*
X0036591Y0261527D01*
X0036488Y0261553D01*
X0036386Y0261582D01*
X0036285Y0261616D01*
X0036185Y0261653D01*
X0036087Y0261693D01*
X0035990Y0261738D01*
X0035895Y0261786D01*
X0035802Y0261837D01*
X0035711Y0261892D01*
X0035622Y0261950D01*
X0035535Y0262012D01*
X0035451Y0262076D01*
X0035369Y0262144D01*
X0035290Y0262215D01*
X0035213Y0262289D01*
X0035139Y0262366D01*
X0035068Y0262445D01*
X0035000Y0262527D01*
X0034936Y0262611D01*
X0034874Y0262698D01*
X0034816Y0262787D01*
X0034761Y0262878D01*
X0034710Y0262971D01*
X0034662Y0263066D01*
X0034617Y0263163D01*
X0034577Y0263261D01*
X0034540Y0263361D01*
X0034506Y0263462D01*
X0034477Y0263564D01*
X0034451Y0263667D01*
X0034430Y0263771D01*
X0034412Y0263876D01*
X0034398Y0263982D01*
X0034388Y0264087D01*
X0034382Y0264194D01*
X0034380Y0264300D01*
X0036158Y0267609D02*
X0036513Y0267609D01*
X0036587Y0267611D01*
X0036662Y0267617D01*
X0036735Y0267627D01*
X0036809Y0267640D01*
X0036881Y0267657D01*
X0036952Y0267679D01*
X0037023Y0267703D01*
X0037091Y0267732D01*
X0037159Y0267764D01*
X0037224Y0267800D01*
X0037287Y0267838D01*
X0037349Y0267881D01*
X0037408Y0267926D01*
X0037465Y0267974D01*
X0037519Y0268025D01*
X0037570Y0268079D01*
X0037618Y0268136D01*
X0037663Y0268195D01*
X0037706Y0268257D01*
X0037744Y0268320D01*
X0037780Y0268385D01*
X0037812Y0268453D01*
X0037841Y0268521D01*
X0037865Y0268592D01*
X0037887Y0268663D01*
X0037904Y0268735D01*
X0037917Y0268809D01*
X0037927Y0268882D01*
X0037933Y0268957D01*
X0037935Y0269031D01*
X0037936Y0269031D02*
X0037936Y0271165D01*
X0036158Y0271165D01*
X0036075Y0271163D01*
X0035992Y0271157D01*
X0035909Y0271147D01*
X0035826Y0271134D01*
X0035745Y0271116D01*
X0035664Y0271095D01*
X0035585Y0271070D01*
X0035507Y0271041D01*
X0035430Y0271009D01*
X0035355Y0270973D01*
X0035281Y0270934D01*
X0035210Y0270891D01*
X0035140Y0270845D01*
X0035073Y0270795D01*
X0035008Y0270743D01*
X0034946Y0270688D01*
X0034886Y0270629D01*
X0034829Y0270568D01*
X0034775Y0270505D01*
X0034724Y0270439D01*
X0034677Y0270370D01*
X0034632Y0270300D01*
X0034591Y0270227D01*
X0034554Y0270153D01*
X0034519Y0270077D01*
X0034489Y0269999D01*
X0034462Y0269921D01*
X0034439Y0269840D01*
X0034419Y0269759D01*
X0034404Y0269677D01*
X0034392Y0269595D01*
X0034384Y0269512D01*
X0034380Y0269429D01*
X0034380Y0269345D01*
X0034384Y0269262D01*
X0034392Y0269179D01*
X0034404Y0269097D01*
X0034419Y0269015D01*
X0034439Y0268934D01*
X0034462Y0268853D01*
X0034489Y0268775D01*
X0034519Y0268697D01*
X0034554Y0268621D01*
X0034591Y0268547D01*
X0034632Y0268474D01*
X0034677Y0268404D01*
X0034724Y0268335D01*
X0034775Y0268269D01*
X0034829Y0268206D01*
X0034886Y0268145D01*
X0034946Y0268086D01*
X0035008Y0268031D01*
X0035073Y0267979D01*
X0035140Y0267929D01*
X0035210Y0267883D01*
X0035281Y0267840D01*
X0035355Y0267801D01*
X0035430Y0267765D01*
X0035507Y0267733D01*
X0035585Y0267704D01*
X0035664Y0267679D01*
X0035745Y0267658D01*
X0035826Y0267640D01*
X0035909Y0267627D01*
X0035992Y0267617D01*
X0036075Y0267611D01*
X0036158Y0267609D01*
X0037936Y0271164D02*
X0038040Y0271162D01*
X0038144Y0271156D01*
X0038247Y0271147D01*
X0038350Y0271134D01*
X0038453Y0271117D01*
X0038554Y0271096D01*
X0038655Y0271072D01*
X0038755Y0271043D01*
X0038854Y0271012D01*
X0038952Y0270976D01*
X0039048Y0270937D01*
X0039143Y0270895D01*
X0039236Y0270849D01*
X0039328Y0270800D01*
X0039418Y0270748D01*
X0039505Y0270692D01*
X0039591Y0270633D01*
X0039674Y0270571D01*
X0039755Y0270506D01*
X0039834Y0270438D01*
X0039910Y0270367D01*
X0039983Y0270294D01*
X0040054Y0270218D01*
X0040122Y0270139D01*
X0040187Y0270058D01*
X0040249Y0269975D01*
X0040308Y0269889D01*
X0040364Y0269802D01*
X0040416Y0269712D01*
X0040465Y0269620D01*
X0040511Y0269527D01*
X0040553Y0269432D01*
X0040592Y0269336D01*
X0040628Y0269238D01*
X0040659Y0269139D01*
X0040688Y0269039D01*
X0040712Y0268938D01*
X0040733Y0268837D01*
X0040750Y0268734D01*
X0040763Y0268631D01*
X0040772Y0268528D01*
X0040778Y0268424D01*
X0040780Y0268320D01*
X0039002Y0265011D02*
X0038647Y0265011D01*
X0038573Y0265009D01*
X0038498Y0265003D01*
X0038425Y0264993D01*
X0038351Y0264980D01*
X0038279Y0264963D01*
X0038208Y0264941D01*
X0038137Y0264917D01*
X0038069Y0264888D01*
X0038001Y0264856D01*
X0037936Y0264820D01*
X0037873Y0264782D01*
X0037811Y0264739D01*
X0037752Y0264694D01*
X0037695Y0264646D01*
X0037641Y0264595D01*
X0037590Y0264541D01*
X0037542Y0264484D01*
X0037497Y0264425D01*
X0037454Y0264363D01*
X0037416Y0264300D01*
X0037380Y0264235D01*
X0037348Y0264167D01*
X0037319Y0264099D01*
X0037295Y0264028D01*
X0037273Y0263957D01*
X0037256Y0263885D01*
X0037243Y0263811D01*
X0037233Y0263738D01*
X0037227Y0263663D01*
X0037225Y0263589D01*
X0039002Y0265011D02*
X0039085Y0265009D01*
X0039168Y0265003D01*
X0039251Y0264993D01*
X0039334Y0264980D01*
X0039415Y0264962D01*
X0039496Y0264941D01*
X0039575Y0264916D01*
X0039653Y0264887D01*
X0039730Y0264855D01*
X0039805Y0264819D01*
X0039879Y0264780D01*
X0039950Y0264737D01*
X0040020Y0264691D01*
X0040087Y0264641D01*
X0040152Y0264589D01*
X0040214Y0264534D01*
X0040274Y0264475D01*
X0040331Y0264414D01*
X0040385Y0264351D01*
X0040436Y0264285D01*
X0040483Y0264216D01*
X0040528Y0264146D01*
X0040569Y0264073D01*
X0040606Y0263999D01*
X0040641Y0263923D01*
X0040671Y0263845D01*
X0040698Y0263767D01*
X0040721Y0263686D01*
X0040741Y0263605D01*
X0040756Y0263523D01*
X0040768Y0263441D01*
X0040776Y0263358D01*
X0040780Y0263275D01*
X0040780Y0263191D01*
X0040776Y0263108D01*
X0040768Y0263025D01*
X0040756Y0262943D01*
X0040741Y0262861D01*
X0040721Y0262780D01*
X0040698Y0262699D01*
X0040671Y0262621D01*
X0040641Y0262543D01*
X0040606Y0262467D01*
X0040569Y0262393D01*
X0040528Y0262320D01*
X0040483Y0262250D01*
X0040436Y0262181D01*
X0040385Y0262115D01*
X0040331Y0262052D01*
X0040274Y0261991D01*
X0040214Y0261932D01*
X0040152Y0261877D01*
X0040087Y0261825D01*
X0040020Y0261775D01*
X0039950Y0261729D01*
X0039879Y0261686D01*
X0039805Y0261647D01*
X0039730Y0261611D01*
X0039653Y0261579D01*
X0039575Y0261550D01*
X0039496Y0261525D01*
X0039415Y0261504D01*
X0039334Y0261486D01*
X0039251Y0261473D01*
X0039168Y0261463D01*
X0039085Y0261457D01*
X0039002Y0261455D01*
X0010780Y0171907D02*
X0010780Y0170129D01*
X0010780Y0171907D02*
X0010778Y0171990D01*
X0010772Y0172073D01*
X0010762Y0172156D01*
X0010749Y0172239D01*
X0010731Y0172320D01*
X0010710Y0172401D01*
X0010685Y0172480D01*
X0010656Y0172558D01*
X0010624Y0172635D01*
X0010588Y0172710D01*
X0010549Y0172784D01*
X0010506Y0172855D01*
X0010460Y0172925D01*
X0010410Y0172992D01*
X0010358Y0173057D01*
X0010303Y0173119D01*
X0010244Y0173179D01*
X0010183Y0173236D01*
X0010120Y0173290D01*
X0010054Y0173341D01*
X0009985Y0173388D01*
X0009915Y0173433D01*
X0009842Y0173474D01*
X0009768Y0173511D01*
X0009692Y0173546D01*
X0009614Y0173576D01*
X0009536Y0173603D01*
X0009455Y0173626D01*
X0009374Y0173646D01*
X0009292Y0173661D01*
X0009210Y0173673D01*
X0009127Y0173681D01*
X0009044Y0173685D01*
X0008960Y0173685D01*
X0008877Y0173681D01*
X0008794Y0173673D01*
X0008712Y0173661D01*
X0008630Y0173646D01*
X0008549Y0173626D01*
X0008468Y0173603D01*
X0008390Y0173576D01*
X0008312Y0173546D01*
X0008236Y0173511D01*
X0008162Y0173474D01*
X0008089Y0173433D01*
X0008019Y0173388D01*
X0007950Y0173341D01*
X0007884Y0173290D01*
X0007821Y0173236D01*
X0007760Y0173179D01*
X0007701Y0173119D01*
X0007646Y0173057D01*
X0007594Y0172992D01*
X0007544Y0172925D01*
X0007498Y0172855D01*
X0007455Y0172784D01*
X0007416Y0172710D01*
X0007380Y0172635D01*
X0007348Y0172558D01*
X0007319Y0172480D01*
X0007294Y0172401D01*
X0007273Y0172320D01*
X0007255Y0172239D01*
X0007242Y0172156D01*
X0007232Y0172073D01*
X0007226Y0171990D01*
X0007224Y0171907D01*
X0007224Y0172262D02*
X0007224Y0170840D01*
X0007224Y0172262D02*
X0007222Y0172336D01*
X0007216Y0172411D01*
X0007206Y0172484D01*
X0007193Y0172558D01*
X0007176Y0172630D01*
X0007154Y0172701D01*
X0007130Y0172772D01*
X0007101Y0172840D01*
X0007069Y0172908D01*
X0007033Y0172973D01*
X0006995Y0173036D01*
X0006952Y0173098D01*
X0006907Y0173157D01*
X0006859Y0173214D01*
X0006808Y0173268D01*
X0006754Y0173319D01*
X0006697Y0173367D01*
X0006638Y0173412D01*
X0006576Y0173455D01*
X0006513Y0173493D01*
X0006448Y0173529D01*
X0006380Y0173561D01*
X0006312Y0173590D01*
X0006241Y0173614D01*
X0006170Y0173636D01*
X0006098Y0173653D01*
X0006024Y0173666D01*
X0005951Y0173676D01*
X0005876Y0173682D01*
X0005802Y0173684D01*
X0005728Y0173682D01*
X0005653Y0173676D01*
X0005580Y0173666D01*
X0005506Y0173653D01*
X0005434Y0173636D01*
X0005363Y0173614D01*
X0005292Y0173590D01*
X0005224Y0173561D01*
X0005156Y0173529D01*
X0005091Y0173493D01*
X0005028Y0173455D01*
X0004966Y0173412D01*
X0004907Y0173367D01*
X0004850Y0173319D01*
X0004796Y0173268D01*
X0004745Y0173214D01*
X0004697Y0173157D01*
X0004652Y0173098D01*
X0004609Y0173036D01*
X0004571Y0172973D01*
X0004535Y0172908D01*
X0004503Y0172840D01*
X0004474Y0172772D01*
X0004450Y0172701D01*
X0004428Y0172630D01*
X0004411Y0172558D01*
X0004398Y0172484D01*
X0004388Y0172411D01*
X0004382Y0172336D01*
X0004380Y0172262D01*
X0004380Y0170129D01*
X0007224Y0166997D02*
X0010780Y0163975D01*
X0010780Y0167530D01*
X0005803Y0163974D02*
X0005718Y0164003D01*
X0005635Y0164036D01*
X0005554Y0164073D01*
X0005474Y0164113D01*
X0005397Y0164156D01*
X0005321Y0164203D01*
X0005247Y0164253D01*
X0005175Y0164306D01*
X0005106Y0164362D01*
X0005039Y0164421D01*
X0004975Y0164483D01*
X0004914Y0164548D01*
X0004855Y0164615D01*
X0004800Y0164685D01*
X0004747Y0164757D01*
X0004698Y0164831D01*
X0004652Y0164908D01*
X0004610Y0164986D01*
X0004570Y0165066D01*
X0004535Y0165148D01*
X0004502Y0165231D01*
X0004474Y0165315D01*
X0004449Y0165401D01*
X0004428Y0165488D01*
X0004411Y0165575D01*
X0004397Y0165663D01*
X0004388Y0165752D01*
X0004382Y0165841D01*
X0004380Y0165930D01*
X0004382Y0166009D01*
X0004388Y0166087D01*
X0004397Y0166165D01*
X0004411Y0166242D01*
X0004428Y0166319D01*
X0004449Y0166394D01*
X0004474Y0166469D01*
X0004502Y0166542D01*
X0004534Y0166614D01*
X0004569Y0166684D01*
X0004608Y0166753D01*
X0004650Y0166819D01*
X0004695Y0166883D01*
X0004743Y0166945D01*
X0004794Y0167004D01*
X0004849Y0167061D01*
X0004906Y0167116D01*
X0004965Y0167167D01*
X0005027Y0167215D01*
X0005091Y0167260D01*
X0005157Y0167302D01*
X0005226Y0167341D01*
X0005296Y0167376D01*
X0005368Y0167408D01*
X0005441Y0167436D01*
X0005516Y0167461D01*
X0005591Y0167482D01*
X0005668Y0167499D01*
X0005745Y0167513D01*
X0005823Y0167522D01*
X0005901Y0167528D01*
X0005980Y0167530D01*
X0005980Y0167531D02*
X0006062Y0167529D01*
X0006144Y0167523D01*
X0006225Y0167513D01*
X0006306Y0167500D01*
X0006386Y0167482D01*
X0006465Y0167461D01*
X0006543Y0167436D01*
X0006619Y0167408D01*
X0006695Y0167375D01*
X0006768Y0167340D01*
X0006840Y0167300D01*
X0006910Y0167258D01*
X0006978Y0167212D01*
X0007043Y0167163D01*
X0007106Y0167111D01*
X0007167Y0167055D01*
X0007225Y0166998D01*
X0010424Y0161623D02*
X0010780Y0161623D01*
X0010780Y0161267D01*
X0010424Y0161267D01*
X0010424Y0161623D01*
X0010780Y0158915D02*
X0010780Y0155359D01*
X0007224Y0158381D01*
X0004380Y0157315D02*
X0004382Y0157226D01*
X0004388Y0157137D01*
X0004397Y0157048D01*
X0004411Y0156960D01*
X0004428Y0156873D01*
X0004449Y0156786D01*
X0004474Y0156700D01*
X0004502Y0156616D01*
X0004535Y0156533D01*
X0004570Y0156451D01*
X0004610Y0156371D01*
X0004652Y0156293D01*
X0004698Y0156216D01*
X0004747Y0156142D01*
X0004800Y0156070D01*
X0004855Y0156000D01*
X0004914Y0155933D01*
X0004975Y0155868D01*
X0005039Y0155806D01*
X0005106Y0155747D01*
X0005175Y0155691D01*
X0005247Y0155638D01*
X0005321Y0155588D01*
X0005397Y0155541D01*
X0005474Y0155498D01*
X0005554Y0155458D01*
X0005635Y0155421D01*
X0005718Y0155388D01*
X0005803Y0155359D01*
X0007225Y0158382D02*
X0007167Y0158439D01*
X0007106Y0158495D01*
X0007043Y0158547D01*
X0006978Y0158596D01*
X0006910Y0158642D01*
X0006840Y0158684D01*
X0006768Y0158724D01*
X0006695Y0158759D01*
X0006619Y0158792D01*
X0006543Y0158820D01*
X0006465Y0158845D01*
X0006386Y0158866D01*
X0006306Y0158884D01*
X0006225Y0158897D01*
X0006144Y0158907D01*
X0006062Y0158913D01*
X0005980Y0158915D01*
X0005901Y0158913D01*
X0005823Y0158907D01*
X0005745Y0158898D01*
X0005668Y0158884D01*
X0005591Y0158867D01*
X0005516Y0158846D01*
X0005441Y0158821D01*
X0005368Y0158793D01*
X0005296Y0158761D01*
X0005226Y0158726D01*
X0005157Y0158687D01*
X0005091Y0158645D01*
X0005027Y0158600D01*
X0004965Y0158552D01*
X0004906Y0158501D01*
X0004849Y0158446D01*
X0004794Y0158389D01*
X0004743Y0158330D01*
X0004695Y0158268D01*
X0004650Y0158204D01*
X0004608Y0158138D01*
X0004569Y0158069D01*
X0004534Y0157999D01*
X0004502Y0157927D01*
X0004474Y0157854D01*
X0004449Y0157779D01*
X0004428Y0157704D01*
X0004411Y0157627D01*
X0004397Y0157550D01*
X0004388Y0157472D01*
X0004382Y0157394D01*
X0004380Y0157315D01*
X0004380Y0152050D02*
X0004382Y0151944D01*
X0004388Y0151837D01*
X0004398Y0151732D01*
X0004412Y0151626D01*
X0004430Y0151521D01*
X0004451Y0151417D01*
X0004477Y0151314D01*
X0004506Y0151212D01*
X0004540Y0151111D01*
X0004577Y0151011D01*
X0004617Y0150913D01*
X0004662Y0150816D01*
X0004710Y0150721D01*
X0004761Y0150628D01*
X0004816Y0150537D01*
X0004874Y0150448D01*
X0004936Y0150361D01*
X0005000Y0150277D01*
X0005068Y0150195D01*
X0005139Y0150116D01*
X0005213Y0150039D01*
X0005290Y0149965D01*
X0005369Y0149894D01*
X0005451Y0149826D01*
X0005535Y0149762D01*
X0005622Y0149700D01*
X0005711Y0149642D01*
X0005802Y0149587D01*
X0005895Y0149536D01*
X0005990Y0149488D01*
X0006087Y0149443D01*
X0006185Y0149403D01*
X0006285Y0149366D01*
X0006386Y0149332D01*
X0006488Y0149303D01*
X0006591Y0149277D01*
X0006695Y0149256D01*
X0006800Y0149238D01*
X0006906Y0149224D01*
X0007011Y0149214D01*
X0007118Y0149208D01*
X0007224Y0149206D01*
X0007224Y0149205D02*
X0009002Y0149205D01*
X0007224Y0149205D02*
X0007224Y0151339D01*
X0007225Y0151339D02*
X0007227Y0151413D01*
X0007233Y0151488D01*
X0007243Y0151561D01*
X0007256Y0151635D01*
X0007273Y0151707D01*
X0007295Y0151778D01*
X0007319Y0151849D01*
X0007348Y0151917D01*
X0007380Y0151985D01*
X0007416Y0152050D01*
X0007454Y0152113D01*
X0007497Y0152175D01*
X0007542Y0152234D01*
X0007590Y0152291D01*
X0007641Y0152345D01*
X0007695Y0152396D01*
X0007752Y0152444D01*
X0007811Y0152489D01*
X0007873Y0152532D01*
X0007936Y0152570D01*
X0008001Y0152606D01*
X0008069Y0152638D01*
X0008137Y0152667D01*
X0008208Y0152691D01*
X0008279Y0152713D01*
X0008351Y0152730D01*
X0008425Y0152743D01*
X0008498Y0152753D01*
X0008573Y0152759D01*
X0008647Y0152761D01*
X0009002Y0152761D01*
X0009085Y0152759D01*
X0009168Y0152753D01*
X0009251Y0152743D01*
X0009334Y0152730D01*
X0009415Y0152712D01*
X0009496Y0152691D01*
X0009575Y0152666D01*
X0009653Y0152637D01*
X0009730Y0152605D01*
X0009805Y0152569D01*
X0009879Y0152530D01*
X0009950Y0152487D01*
X0010020Y0152441D01*
X0010087Y0152391D01*
X0010152Y0152339D01*
X0010214Y0152284D01*
X0010274Y0152225D01*
X0010331Y0152164D01*
X0010385Y0152101D01*
X0010436Y0152035D01*
X0010483Y0151966D01*
X0010528Y0151896D01*
X0010569Y0151823D01*
X0010606Y0151749D01*
X0010641Y0151673D01*
X0010671Y0151595D01*
X0010698Y0151517D01*
X0010721Y0151436D01*
X0010741Y0151355D01*
X0010756Y0151273D01*
X0010768Y0151191D01*
X0010776Y0151108D01*
X0010780Y0151025D01*
X0010780Y0150941D01*
X0010776Y0150858D01*
X0010768Y0150775D01*
X0010756Y0150693D01*
X0010741Y0150611D01*
X0010721Y0150530D01*
X0010698Y0150449D01*
X0010671Y0150371D01*
X0010641Y0150293D01*
X0010606Y0150217D01*
X0010569Y0150143D01*
X0010528Y0150070D01*
X0010483Y0150000D01*
X0010436Y0149931D01*
X0010385Y0149865D01*
X0010331Y0149802D01*
X0010274Y0149741D01*
X0010214Y0149682D01*
X0010152Y0149627D01*
X0010087Y0149575D01*
X0010020Y0149525D01*
X0009950Y0149479D01*
X0009879Y0149436D01*
X0009805Y0149397D01*
X0009730Y0149361D01*
X0009653Y0149329D01*
X0009575Y0149300D01*
X0009496Y0149275D01*
X0009415Y0149254D01*
X0009334Y0149236D01*
X0009251Y0149223D01*
X0009168Y0149213D01*
X0009085Y0149207D01*
X0009002Y0149205D01*
X0281114Y0036117D02*
X0281114Y0035762D01*
X0281116Y0035688D01*
X0281122Y0035613D01*
X0281132Y0035540D01*
X0281145Y0035466D01*
X0281162Y0035394D01*
X0281184Y0035323D01*
X0281208Y0035252D01*
X0281237Y0035184D01*
X0281269Y0035116D01*
X0281305Y0035051D01*
X0281343Y0034988D01*
X0281386Y0034926D01*
X0281431Y0034867D01*
X0281479Y0034810D01*
X0281530Y0034756D01*
X0281584Y0034705D01*
X0281641Y0034657D01*
X0281700Y0034612D01*
X0281762Y0034569D01*
X0281825Y0034531D01*
X0281890Y0034495D01*
X0281958Y0034463D01*
X0282026Y0034434D01*
X0282097Y0034410D01*
X0282168Y0034388D01*
X0282240Y0034371D01*
X0282314Y0034358D01*
X0282387Y0034348D01*
X0282462Y0034342D01*
X0282536Y0034340D01*
X0282536Y0034339D02*
X0284670Y0034339D01*
X0284670Y0036117D01*
X0284668Y0036200D01*
X0284662Y0036283D01*
X0284652Y0036366D01*
X0284639Y0036449D01*
X0284621Y0036530D01*
X0284600Y0036611D01*
X0284575Y0036690D01*
X0284546Y0036768D01*
X0284514Y0036845D01*
X0284478Y0036920D01*
X0284439Y0036994D01*
X0284396Y0037065D01*
X0284350Y0037135D01*
X0284300Y0037202D01*
X0284248Y0037267D01*
X0284193Y0037329D01*
X0284134Y0037389D01*
X0284073Y0037446D01*
X0284010Y0037500D01*
X0283944Y0037551D01*
X0283875Y0037598D01*
X0283805Y0037643D01*
X0283732Y0037684D01*
X0283658Y0037721D01*
X0283582Y0037756D01*
X0283504Y0037786D01*
X0283426Y0037813D01*
X0283345Y0037836D01*
X0283264Y0037856D01*
X0283182Y0037871D01*
X0283100Y0037883D01*
X0283017Y0037891D01*
X0282934Y0037895D01*
X0282850Y0037895D01*
X0282767Y0037891D01*
X0282684Y0037883D01*
X0282602Y0037871D01*
X0282520Y0037856D01*
X0282439Y0037836D01*
X0282358Y0037813D01*
X0282280Y0037786D01*
X0282202Y0037756D01*
X0282126Y0037721D01*
X0282052Y0037684D01*
X0281979Y0037643D01*
X0281909Y0037598D01*
X0281840Y0037551D01*
X0281774Y0037500D01*
X0281711Y0037446D01*
X0281650Y0037389D01*
X0281591Y0037329D01*
X0281536Y0037267D01*
X0281484Y0037202D01*
X0281434Y0037135D01*
X0281388Y0037065D01*
X0281345Y0036994D01*
X0281306Y0036920D01*
X0281270Y0036845D01*
X0281238Y0036768D01*
X0281209Y0036690D01*
X0281184Y0036611D01*
X0281163Y0036530D01*
X0281145Y0036449D01*
X0281132Y0036366D01*
X0281122Y0036283D01*
X0281116Y0036200D01*
X0281114Y0036117D01*
X0284669Y0034339D02*
X0284667Y0034235D01*
X0284661Y0034131D01*
X0284652Y0034028D01*
X0284639Y0033925D01*
X0284622Y0033822D01*
X0284601Y0033721D01*
X0284577Y0033620D01*
X0284548Y0033520D01*
X0284517Y0033421D01*
X0284481Y0033323D01*
X0284442Y0033227D01*
X0284400Y0033132D01*
X0284354Y0033039D01*
X0284305Y0032947D01*
X0284253Y0032857D01*
X0284197Y0032770D01*
X0284138Y0032684D01*
X0284076Y0032601D01*
X0284011Y0032520D01*
X0283943Y0032441D01*
X0283872Y0032365D01*
X0283799Y0032292D01*
X0283723Y0032221D01*
X0283644Y0032153D01*
X0283563Y0032088D01*
X0283480Y0032026D01*
X0283394Y0031967D01*
X0283307Y0031911D01*
X0283217Y0031859D01*
X0283125Y0031810D01*
X0283032Y0031764D01*
X0282937Y0031722D01*
X0282841Y0031683D01*
X0282743Y0031647D01*
X0282644Y0031616D01*
X0282544Y0031587D01*
X0282443Y0031563D01*
X0282342Y0031542D01*
X0282239Y0031525D01*
X0282136Y0031512D01*
X0282033Y0031503D01*
X0281929Y0031497D01*
X0281825Y0031495D01*
X0287979Y0031495D02*
X0288083Y0031497D01*
X0288187Y0031503D01*
X0288290Y0031512D01*
X0288393Y0031525D01*
X0288496Y0031542D01*
X0288597Y0031563D01*
X0288698Y0031587D01*
X0288798Y0031616D01*
X0288897Y0031647D01*
X0288995Y0031683D01*
X0289091Y0031722D01*
X0289186Y0031764D01*
X0289279Y0031810D01*
X0289371Y0031859D01*
X0289461Y0031911D01*
X0289548Y0031967D01*
X0289634Y0032026D01*
X0289717Y0032088D01*
X0289798Y0032153D01*
X0289877Y0032221D01*
X0289953Y0032292D01*
X0290026Y0032365D01*
X0290097Y0032441D01*
X0290165Y0032520D01*
X0290230Y0032601D01*
X0290292Y0032684D01*
X0290351Y0032770D01*
X0290407Y0032857D01*
X0290459Y0032947D01*
X0290508Y0033039D01*
X0290554Y0033132D01*
X0290596Y0033227D01*
X0290635Y0033323D01*
X0290671Y0033421D01*
X0290702Y0033520D01*
X0290731Y0033620D01*
X0290755Y0033721D01*
X0290776Y0033822D01*
X0290793Y0033925D01*
X0290806Y0034028D01*
X0290815Y0034131D01*
X0290821Y0034235D01*
X0290823Y0034339D01*
X0290824Y0034339D02*
X0290824Y0036117D01*
X0290824Y0034339D02*
X0288690Y0034339D01*
X0288690Y0034340D02*
X0288616Y0034342D01*
X0288541Y0034348D01*
X0288468Y0034358D01*
X0288394Y0034371D01*
X0288322Y0034388D01*
X0288251Y0034410D01*
X0288180Y0034434D01*
X0288112Y0034463D01*
X0288044Y0034495D01*
X0287979Y0034531D01*
X0287916Y0034569D01*
X0287854Y0034612D01*
X0287795Y0034657D01*
X0287738Y0034705D01*
X0287684Y0034756D01*
X0287633Y0034810D01*
X0287585Y0034867D01*
X0287540Y0034926D01*
X0287497Y0034988D01*
X0287459Y0035051D01*
X0287423Y0035116D01*
X0287391Y0035184D01*
X0287362Y0035252D01*
X0287338Y0035323D01*
X0287316Y0035394D01*
X0287299Y0035466D01*
X0287286Y0035540D01*
X0287276Y0035613D01*
X0287270Y0035688D01*
X0287268Y0035762D01*
X0287268Y0036117D01*
X0287270Y0036200D01*
X0287276Y0036283D01*
X0287286Y0036366D01*
X0287299Y0036449D01*
X0287317Y0036530D01*
X0287338Y0036611D01*
X0287363Y0036690D01*
X0287392Y0036768D01*
X0287424Y0036845D01*
X0287460Y0036920D01*
X0287499Y0036994D01*
X0287542Y0037065D01*
X0287588Y0037135D01*
X0287638Y0037202D01*
X0287690Y0037267D01*
X0287745Y0037329D01*
X0287804Y0037389D01*
X0287865Y0037446D01*
X0287928Y0037500D01*
X0287994Y0037551D01*
X0288063Y0037598D01*
X0288133Y0037643D01*
X0288206Y0037684D01*
X0288280Y0037721D01*
X0288356Y0037756D01*
X0288434Y0037786D01*
X0288512Y0037813D01*
X0288593Y0037836D01*
X0288674Y0037856D01*
X0288756Y0037871D01*
X0288838Y0037883D01*
X0288921Y0037891D01*
X0289004Y0037895D01*
X0289088Y0037895D01*
X0289171Y0037891D01*
X0289254Y0037883D01*
X0289336Y0037871D01*
X0289418Y0037856D01*
X0289499Y0037836D01*
X0289580Y0037813D01*
X0289658Y0037786D01*
X0289736Y0037756D01*
X0289812Y0037721D01*
X0289886Y0037684D01*
X0289959Y0037643D01*
X0290029Y0037598D01*
X0290098Y0037551D01*
X0290164Y0037500D01*
X0290227Y0037446D01*
X0290288Y0037389D01*
X0290347Y0037329D01*
X0290402Y0037267D01*
X0290454Y0037202D01*
X0290504Y0037135D01*
X0290550Y0037065D01*
X0290593Y0036994D01*
X0290632Y0036920D01*
X0290668Y0036845D01*
X0290700Y0036768D01*
X0290729Y0036690D01*
X0290754Y0036611D01*
X0290775Y0036530D01*
X0290793Y0036449D01*
X0290806Y0036366D01*
X0290816Y0036283D01*
X0290822Y0036200D01*
X0290824Y0036117D01*
X0299439Y0034695D02*
X0299437Y0034554D01*
X0299431Y0034414D01*
X0299422Y0034273D01*
X0299409Y0034133D01*
X0299392Y0033993D01*
X0299372Y0033854D01*
X0299347Y0033716D01*
X0299319Y0033578D01*
X0299288Y0033441D01*
X0299252Y0033304D01*
X0299213Y0033169D01*
X0299171Y0033035D01*
X0299125Y0032902D01*
X0299075Y0032770D01*
X0299022Y0032640D01*
X0298966Y0032511D01*
X0298906Y0032384D01*
X0297661Y0031494D02*
X0297590Y0031496D01*
X0297519Y0031502D01*
X0297449Y0031511D01*
X0297379Y0031525D01*
X0297310Y0031542D01*
X0297243Y0031562D01*
X0297176Y0031587D01*
X0297111Y0031615D01*
X0297047Y0031646D01*
X0296985Y0031681D01*
X0296925Y0031719D01*
X0296867Y0031760D01*
X0296812Y0031804D01*
X0296759Y0031852D01*
X0296709Y0031902D01*
X0296661Y0031954D01*
X0296616Y0032009D01*
X0296575Y0032067D01*
X0296536Y0032127D01*
X0296501Y0032188D01*
X0296469Y0032252D01*
X0296441Y0032317D01*
X0296416Y0032383D01*
X0296239Y0032917D02*
X0299084Y0036473D01*
X0298906Y0037006D02*
X0298881Y0037072D01*
X0298853Y0037137D01*
X0298821Y0037201D01*
X0298786Y0037262D01*
X0298747Y0037322D01*
X0298706Y0037380D01*
X0298661Y0037435D01*
X0298613Y0037487D01*
X0298563Y0037537D01*
X0298510Y0037585D01*
X0298455Y0037629D01*
X0298397Y0037670D01*
X0298337Y0037708D01*
X0298275Y0037743D01*
X0298211Y0037774D01*
X0298146Y0037802D01*
X0298079Y0037827D01*
X0298012Y0037847D01*
X0297943Y0037864D01*
X0297873Y0037878D01*
X0297803Y0037887D01*
X0297732Y0037893D01*
X0297661Y0037895D01*
X0297590Y0037893D01*
X0297519Y0037887D01*
X0297449Y0037878D01*
X0297379Y0037864D01*
X0297310Y0037847D01*
X0297243Y0037827D01*
X0297176Y0037802D01*
X0297111Y0037774D01*
X0297047Y0037743D01*
X0296985Y0037708D01*
X0296925Y0037670D01*
X0296867Y0037629D01*
X0296812Y0037585D01*
X0296759Y0037537D01*
X0296709Y0037487D01*
X0296661Y0037435D01*
X0296616Y0037380D01*
X0296575Y0037322D01*
X0296536Y0037262D01*
X0296501Y0037201D01*
X0296469Y0037137D01*
X0296441Y0037072D01*
X0296416Y0037006D01*
X0298906Y0037006D02*
X0298966Y0036879D01*
X0299022Y0036750D01*
X0299075Y0036620D01*
X0299125Y0036488D01*
X0299171Y0036355D01*
X0299213Y0036221D01*
X0299252Y0036086D01*
X0299288Y0035949D01*
X0299319Y0035812D01*
X0299347Y0035674D01*
X0299372Y0035536D01*
X0299392Y0035397D01*
X0299409Y0035257D01*
X0299422Y0035117D01*
X0299431Y0034976D01*
X0299437Y0034836D01*
X0299439Y0034695D01*
X0295884Y0034695D02*
X0295886Y0034836D01*
X0295892Y0034976D01*
X0295901Y0035117D01*
X0295914Y0035257D01*
X0295931Y0035397D01*
X0295951Y0035536D01*
X0295976Y0035674D01*
X0296004Y0035812D01*
X0296035Y0035949D01*
X0296071Y0036086D01*
X0296110Y0036221D01*
X0296152Y0036355D01*
X0296198Y0036488D01*
X0296248Y0036620D01*
X0296301Y0036750D01*
X0296357Y0036879D01*
X0296417Y0037006D01*
X0298906Y0032383D02*
X0298881Y0032317D01*
X0298853Y0032252D01*
X0298821Y0032188D01*
X0298786Y0032127D01*
X0298747Y0032067D01*
X0298706Y0032009D01*
X0298661Y0031954D01*
X0298613Y0031902D01*
X0298563Y0031852D01*
X0298510Y0031804D01*
X0298454Y0031760D01*
X0298397Y0031719D01*
X0298337Y0031681D01*
X0298275Y0031646D01*
X0298211Y0031615D01*
X0298146Y0031587D01*
X0298079Y0031562D01*
X0298012Y0031542D01*
X0297943Y0031525D01*
X0297873Y0031511D01*
X0297803Y0031502D01*
X0297732Y0031496D01*
X0297661Y0031494D01*
X0293531Y0031495D02*
X0293176Y0031495D01*
X0293176Y0031850D01*
X0293531Y0031850D01*
X0293531Y0031495D01*
X0296417Y0032384D02*
X0296357Y0032511D01*
X0296301Y0032640D01*
X0296248Y0032770D01*
X0296198Y0032902D01*
X0296152Y0033035D01*
X0296110Y0033169D01*
X0296071Y0033304D01*
X0296035Y0033441D01*
X0296004Y0033578D01*
X0295976Y0033716D01*
X0295951Y0033854D01*
X0295931Y0033993D01*
X0295914Y0034133D01*
X0295901Y0034273D01*
X0295892Y0034414D01*
X0295886Y0034554D01*
X0295884Y0034695D01*
X0302038Y0035050D02*
X0302038Y0033273D01*
X0302037Y0033273D02*
X0302039Y0033190D01*
X0302045Y0033107D01*
X0302055Y0033024D01*
X0302068Y0032941D01*
X0302086Y0032860D01*
X0302107Y0032779D01*
X0302132Y0032700D01*
X0302161Y0032622D01*
X0302193Y0032545D01*
X0302229Y0032470D01*
X0302268Y0032396D01*
X0302311Y0032325D01*
X0302357Y0032255D01*
X0302407Y0032188D01*
X0302459Y0032123D01*
X0302514Y0032061D01*
X0302573Y0032001D01*
X0302634Y0031944D01*
X0302697Y0031890D01*
X0302763Y0031839D01*
X0302832Y0031792D01*
X0302902Y0031747D01*
X0302975Y0031706D01*
X0303049Y0031669D01*
X0303125Y0031634D01*
X0303203Y0031604D01*
X0303281Y0031577D01*
X0303362Y0031554D01*
X0303443Y0031534D01*
X0303525Y0031519D01*
X0303607Y0031507D01*
X0303690Y0031499D01*
X0303773Y0031495D01*
X0303857Y0031495D01*
X0303940Y0031499D01*
X0304023Y0031507D01*
X0304105Y0031519D01*
X0304187Y0031534D01*
X0304268Y0031554D01*
X0304349Y0031577D01*
X0304427Y0031604D01*
X0304505Y0031634D01*
X0304581Y0031669D01*
X0304655Y0031706D01*
X0304728Y0031747D01*
X0304798Y0031792D01*
X0304867Y0031839D01*
X0304933Y0031890D01*
X0304996Y0031944D01*
X0305057Y0032001D01*
X0305116Y0032061D01*
X0305171Y0032123D01*
X0305223Y0032188D01*
X0305273Y0032255D01*
X0305319Y0032325D01*
X0305362Y0032396D01*
X0305401Y0032470D01*
X0305437Y0032545D01*
X0305469Y0032622D01*
X0305498Y0032700D01*
X0305523Y0032779D01*
X0305544Y0032860D01*
X0305562Y0032941D01*
X0305575Y0033024D01*
X0305585Y0033107D01*
X0305591Y0033190D01*
X0305593Y0033273D01*
X0305593Y0033628D01*
X0305591Y0033702D01*
X0305585Y0033777D01*
X0305575Y0033850D01*
X0305562Y0033924D01*
X0305545Y0033996D01*
X0305523Y0034067D01*
X0305499Y0034138D01*
X0305470Y0034206D01*
X0305438Y0034274D01*
X0305402Y0034339D01*
X0305364Y0034402D01*
X0305321Y0034464D01*
X0305276Y0034523D01*
X0305228Y0034580D01*
X0305177Y0034634D01*
X0305123Y0034685D01*
X0305066Y0034733D01*
X0305007Y0034778D01*
X0304945Y0034821D01*
X0304882Y0034859D01*
X0304817Y0034895D01*
X0304749Y0034927D01*
X0304681Y0034956D01*
X0304610Y0034980D01*
X0304539Y0035002D01*
X0304467Y0035019D01*
X0304393Y0035032D01*
X0304320Y0035042D01*
X0304245Y0035048D01*
X0304171Y0035050D01*
X0302038Y0035050D01*
X0302040Y0035156D01*
X0302046Y0035263D01*
X0302056Y0035368D01*
X0302070Y0035474D01*
X0302088Y0035579D01*
X0302109Y0035683D01*
X0302135Y0035786D01*
X0302164Y0035888D01*
X0302198Y0035989D01*
X0302235Y0036089D01*
X0302275Y0036187D01*
X0302320Y0036284D01*
X0302368Y0036379D01*
X0302419Y0036472D01*
X0302474Y0036563D01*
X0302532Y0036652D01*
X0302594Y0036739D01*
X0302658Y0036823D01*
X0302726Y0036905D01*
X0302797Y0036984D01*
X0302871Y0037061D01*
X0302948Y0037135D01*
X0303027Y0037206D01*
X0303109Y0037274D01*
X0303193Y0037338D01*
X0303280Y0037400D01*
X0303369Y0037458D01*
X0303460Y0037513D01*
X0303553Y0037564D01*
X0303648Y0037612D01*
X0303745Y0037657D01*
X0303843Y0037697D01*
X0303943Y0037734D01*
X0304044Y0037768D01*
X0304146Y0037797D01*
X0304249Y0037823D01*
X0304353Y0037844D01*
X0304458Y0037862D01*
X0304564Y0037876D01*
X0304669Y0037886D01*
X0304776Y0037892D01*
X0304882Y0037894D01*
X0310467Y0017895D02*
X0310467Y0011495D01*
X0308689Y0011495D02*
X0312245Y0011495D01*
X0314843Y0011495D02*
X0318399Y0011495D01*
X0316621Y0011495D02*
X0316621Y0017895D01*
X0314843Y0016473D01*
X0310467Y0017895D02*
X0308689Y0016473D01*
X0320997Y0012917D02*
X0324553Y0012917D01*
X0323486Y0014339D02*
X0323486Y0011495D01*
X0320997Y0012917D02*
X0322419Y0017895D01*
X0329613Y0017895D02*
X0331746Y0017895D01*
X0331820Y0017893D01*
X0331895Y0017887D01*
X0331968Y0017877D01*
X0332042Y0017864D01*
X0332114Y0017847D01*
X0332185Y0017825D01*
X0332256Y0017801D01*
X0332324Y0017772D01*
X0332392Y0017740D01*
X0332457Y0017704D01*
X0332520Y0017666D01*
X0332582Y0017623D01*
X0332641Y0017578D01*
X0332698Y0017530D01*
X0332752Y0017479D01*
X0332803Y0017425D01*
X0332851Y0017368D01*
X0332896Y0017309D01*
X0332939Y0017247D01*
X0332977Y0017184D01*
X0333013Y0017119D01*
X0333045Y0017051D01*
X0333074Y0016983D01*
X0333098Y0016912D01*
X0333120Y0016841D01*
X0333137Y0016769D01*
X0333150Y0016695D01*
X0333160Y0016622D01*
X0333166Y0016547D01*
X0333168Y0016473D01*
X0333166Y0016399D01*
X0333160Y0016324D01*
X0333150Y0016251D01*
X0333137Y0016177D01*
X0333120Y0016105D01*
X0333098Y0016034D01*
X0333074Y0015963D01*
X0333045Y0015895D01*
X0333013Y0015827D01*
X0332977Y0015762D01*
X0332939Y0015699D01*
X0332896Y0015637D01*
X0332851Y0015578D01*
X0332803Y0015521D01*
X0332752Y0015467D01*
X0332698Y0015416D01*
X0332641Y0015368D01*
X0332582Y0015323D01*
X0332520Y0015280D01*
X0332457Y0015242D01*
X0332392Y0015206D01*
X0332324Y0015174D01*
X0332256Y0015145D01*
X0332185Y0015121D01*
X0332114Y0015099D01*
X0332042Y0015082D01*
X0331968Y0015069D01*
X0331895Y0015059D01*
X0331820Y0015053D01*
X0331746Y0015051D01*
X0331746Y0015050D02*
X0330324Y0015050D01*
X0331391Y0015051D02*
X0331474Y0015049D01*
X0331557Y0015043D01*
X0331640Y0015033D01*
X0331723Y0015020D01*
X0331804Y0015002D01*
X0331885Y0014981D01*
X0331964Y0014956D01*
X0332042Y0014927D01*
X0332119Y0014895D01*
X0332194Y0014859D01*
X0332268Y0014820D01*
X0332339Y0014777D01*
X0332409Y0014731D01*
X0332476Y0014681D01*
X0332541Y0014629D01*
X0332603Y0014574D01*
X0332663Y0014515D01*
X0332720Y0014454D01*
X0332774Y0014391D01*
X0332825Y0014325D01*
X0332872Y0014256D01*
X0332917Y0014186D01*
X0332958Y0014113D01*
X0332995Y0014039D01*
X0333030Y0013963D01*
X0333060Y0013885D01*
X0333087Y0013807D01*
X0333110Y0013726D01*
X0333130Y0013645D01*
X0333145Y0013563D01*
X0333157Y0013481D01*
X0333165Y0013398D01*
X0333169Y0013315D01*
X0333169Y0013231D01*
X0333165Y0013148D01*
X0333157Y0013065D01*
X0333145Y0012983D01*
X0333130Y0012901D01*
X0333110Y0012820D01*
X0333087Y0012739D01*
X0333060Y0012661D01*
X0333030Y0012583D01*
X0332995Y0012507D01*
X0332958Y0012433D01*
X0332917Y0012360D01*
X0332872Y0012290D01*
X0332825Y0012221D01*
X0332774Y0012155D01*
X0332720Y0012092D01*
X0332663Y0012031D01*
X0332603Y0011972D01*
X0332541Y0011917D01*
X0332476Y0011865D01*
X0332409Y0011815D01*
X0332339Y0011769D01*
X0332268Y0011726D01*
X0332194Y0011687D01*
X0332119Y0011651D01*
X0332042Y0011619D01*
X0331964Y0011590D01*
X0331885Y0011565D01*
X0331804Y0011544D01*
X0331723Y0011526D01*
X0331640Y0011513D01*
X0331557Y0011503D01*
X0331474Y0011497D01*
X0331391Y0011495D01*
X0329613Y0011495D01*
X0327261Y0011495D02*
X0326905Y0011495D01*
X0326905Y0011850D01*
X0327261Y0011850D01*
X0327261Y0011495D01*
X0338789Y0012384D02*
X0338849Y0012511D01*
X0338905Y0012640D01*
X0338958Y0012770D01*
X0339008Y0012902D01*
X0339054Y0013035D01*
X0339096Y0013169D01*
X0339135Y0013304D01*
X0339171Y0013441D01*
X0339202Y0013578D01*
X0339230Y0013716D01*
X0339255Y0013854D01*
X0339275Y0013993D01*
X0339292Y0014133D01*
X0339305Y0014273D01*
X0339314Y0014414D01*
X0339320Y0014554D01*
X0339322Y0014695D01*
X0335767Y0014695D02*
X0335769Y0014836D01*
X0335775Y0014976D01*
X0335784Y0015117D01*
X0335797Y0015257D01*
X0335814Y0015397D01*
X0335834Y0015536D01*
X0335859Y0015674D01*
X0335887Y0015812D01*
X0335918Y0015949D01*
X0335954Y0016086D01*
X0335993Y0016221D01*
X0336035Y0016355D01*
X0336081Y0016488D01*
X0336131Y0016620D01*
X0336184Y0016750D01*
X0336240Y0016879D01*
X0336300Y0017006D01*
X0337545Y0017895D02*
X0337616Y0017893D01*
X0337687Y0017887D01*
X0337757Y0017878D01*
X0337827Y0017864D01*
X0337896Y0017847D01*
X0337963Y0017827D01*
X0338030Y0017802D01*
X0338095Y0017774D01*
X0338159Y0017743D01*
X0338221Y0017708D01*
X0338281Y0017670D01*
X0338339Y0017629D01*
X0338394Y0017585D01*
X0338447Y0017537D01*
X0338497Y0017487D01*
X0338545Y0017435D01*
X0338590Y0017380D01*
X0338631Y0017322D01*
X0338670Y0017262D01*
X0338705Y0017201D01*
X0338737Y0017137D01*
X0338765Y0017072D01*
X0338790Y0017006D01*
X0338967Y0016473D02*
X0336122Y0012917D01*
X0337545Y0011494D02*
X0337616Y0011496D01*
X0337687Y0011502D01*
X0337757Y0011511D01*
X0337827Y0011525D01*
X0337896Y0011542D01*
X0337963Y0011562D01*
X0338030Y0011587D01*
X0338095Y0011615D01*
X0338159Y0011646D01*
X0338221Y0011681D01*
X0338281Y0011719D01*
X0338338Y0011760D01*
X0338394Y0011804D01*
X0338447Y0011852D01*
X0338497Y0011902D01*
X0338545Y0011954D01*
X0338590Y0012009D01*
X0338631Y0012067D01*
X0338670Y0012127D01*
X0338705Y0012188D01*
X0338737Y0012252D01*
X0338765Y0012317D01*
X0338790Y0012383D01*
X0337545Y0011494D02*
X0337474Y0011496D01*
X0337403Y0011502D01*
X0337333Y0011511D01*
X0337263Y0011525D01*
X0337194Y0011542D01*
X0337127Y0011562D01*
X0337060Y0011587D01*
X0336995Y0011615D01*
X0336931Y0011646D01*
X0336869Y0011681D01*
X0336809Y0011719D01*
X0336751Y0011760D01*
X0336696Y0011804D01*
X0336643Y0011852D01*
X0336593Y0011902D01*
X0336545Y0011954D01*
X0336500Y0012009D01*
X0336459Y0012067D01*
X0336420Y0012127D01*
X0336385Y0012188D01*
X0336353Y0012252D01*
X0336325Y0012317D01*
X0336300Y0012383D01*
X0339322Y0014695D02*
X0339320Y0014836D01*
X0339314Y0014976D01*
X0339305Y0015117D01*
X0339292Y0015257D01*
X0339275Y0015397D01*
X0339255Y0015536D01*
X0339230Y0015674D01*
X0339202Y0015812D01*
X0339171Y0015949D01*
X0339135Y0016086D01*
X0339096Y0016221D01*
X0339054Y0016355D01*
X0339008Y0016488D01*
X0338958Y0016620D01*
X0338905Y0016750D01*
X0338849Y0016879D01*
X0338789Y0017006D01*
X0337545Y0017895D02*
X0337474Y0017893D01*
X0337403Y0017887D01*
X0337333Y0017878D01*
X0337263Y0017864D01*
X0337194Y0017847D01*
X0337127Y0017827D01*
X0337060Y0017802D01*
X0336995Y0017774D01*
X0336931Y0017743D01*
X0336869Y0017708D01*
X0336809Y0017670D01*
X0336751Y0017629D01*
X0336696Y0017585D01*
X0336643Y0017537D01*
X0336593Y0017487D01*
X0336545Y0017435D01*
X0336500Y0017380D01*
X0336459Y0017322D01*
X0336420Y0017262D01*
X0336385Y0017201D01*
X0336353Y0017137D01*
X0336325Y0017072D01*
X0336300Y0017006D01*
X0335767Y0014695D02*
X0335769Y0014554D01*
X0335775Y0014414D01*
X0335784Y0014273D01*
X0335797Y0014133D01*
X0335814Y0013993D01*
X0335834Y0013854D01*
X0335859Y0013716D01*
X0335887Y0013578D01*
X0335918Y0013441D01*
X0335954Y0013304D01*
X0335993Y0013169D01*
X0336035Y0013035D01*
X0336081Y0012902D01*
X0336131Y0012770D01*
X0336184Y0012640D01*
X0336240Y0012511D01*
X0336300Y0012384D01*
X0478614Y0026495D02*
X0482170Y0026495D01*
X0478614Y0026495D02*
X0481636Y0030050D01*
X0480570Y0032895D02*
X0480481Y0032893D01*
X0480392Y0032887D01*
X0480303Y0032878D01*
X0480215Y0032864D01*
X0480128Y0032847D01*
X0480041Y0032826D01*
X0479955Y0032801D01*
X0479871Y0032773D01*
X0479788Y0032740D01*
X0479706Y0032705D01*
X0479626Y0032665D01*
X0479548Y0032623D01*
X0479471Y0032577D01*
X0479397Y0032528D01*
X0479325Y0032475D01*
X0479255Y0032420D01*
X0479188Y0032361D01*
X0479123Y0032300D01*
X0479061Y0032236D01*
X0479002Y0032169D01*
X0478946Y0032100D01*
X0478893Y0032028D01*
X0478843Y0031954D01*
X0478796Y0031878D01*
X0478753Y0031801D01*
X0478713Y0031721D01*
X0478676Y0031640D01*
X0478643Y0031557D01*
X0478614Y0031472D01*
X0481637Y0030050D02*
X0481694Y0030108D01*
X0481750Y0030169D01*
X0481802Y0030232D01*
X0481851Y0030297D01*
X0481897Y0030365D01*
X0481939Y0030435D01*
X0481979Y0030507D01*
X0482014Y0030580D01*
X0482047Y0030656D01*
X0482075Y0030732D01*
X0482100Y0030810D01*
X0482121Y0030889D01*
X0482139Y0030969D01*
X0482152Y0031050D01*
X0482162Y0031131D01*
X0482168Y0031213D01*
X0482170Y0031295D01*
X0482168Y0031374D01*
X0482162Y0031452D01*
X0482153Y0031530D01*
X0482139Y0031607D01*
X0482122Y0031684D01*
X0482101Y0031759D01*
X0482076Y0031834D01*
X0482048Y0031907D01*
X0482016Y0031979D01*
X0481981Y0032049D01*
X0481942Y0032118D01*
X0481900Y0032184D01*
X0481855Y0032248D01*
X0481807Y0032310D01*
X0481756Y0032369D01*
X0481701Y0032426D01*
X0481644Y0032481D01*
X0481585Y0032532D01*
X0481523Y0032580D01*
X0481459Y0032625D01*
X0481393Y0032667D01*
X0481324Y0032706D01*
X0481254Y0032741D01*
X0481182Y0032773D01*
X0481109Y0032801D01*
X0481034Y0032826D01*
X0480959Y0032847D01*
X0480882Y0032864D01*
X0480805Y0032878D01*
X0480727Y0032887D01*
X0480649Y0032893D01*
X0480570Y0032895D01*
X0484768Y0031117D02*
X0484768Y0030762D01*
X0484770Y0030688D01*
X0484776Y0030613D01*
X0484786Y0030540D01*
X0484799Y0030466D01*
X0484816Y0030394D01*
X0484838Y0030323D01*
X0484862Y0030252D01*
X0484891Y0030184D01*
X0484923Y0030116D01*
X0484959Y0030051D01*
X0484997Y0029988D01*
X0485040Y0029926D01*
X0485085Y0029867D01*
X0485133Y0029810D01*
X0485184Y0029756D01*
X0485238Y0029705D01*
X0485295Y0029657D01*
X0485354Y0029612D01*
X0485416Y0029569D01*
X0485479Y0029531D01*
X0485544Y0029495D01*
X0485612Y0029463D01*
X0485680Y0029434D01*
X0485751Y0029410D01*
X0485822Y0029388D01*
X0485894Y0029371D01*
X0485968Y0029358D01*
X0486041Y0029348D01*
X0486116Y0029342D01*
X0486190Y0029340D01*
X0486190Y0029339D02*
X0488324Y0029339D01*
X0488324Y0031117D01*
X0488322Y0031200D01*
X0488316Y0031283D01*
X0488306Y0031366D01*
X0488293Y0031449D01*
X0488275Y0031530D01*
X0488254Y0031611D01*
X0488229Y0031690D01*
X0488200Y0031768D01*
X0488168Y0031845D01*
X0488132Y0031920D01*
X0488093Y0031994D01*
X0488050Y0032065D01*
X0488004Y0032135D01*
X0487954Y0032202D01*
X0487902Y0032267D01*
X0487847Y0032329D01*
X0487788Y0032389D01*
X0487727Y0032446D01*
X0487664Y0032500D01*
X0487598Y0032551D01*
X0487529Y0032598D01*
X0487459Y0032643D01*
X0487386Y0032684D01*
X0487312Y0032721D01*
X0487236Y0032756D01*
X0487158Y0032786D01*
X0487080Y0032813D01*
X0486999Y0032836D01*
X0486918Y0032856D01*
X0486836Y0032871D01*
X0486754Y0032883D01*
X0486671Y0032891D01*
X0486588Y0032895D01*
X0486504Y0032895D01*
X0486421Y0032891D01*
X0486338Y0032883D01*
X0486256Y0032871D01*
X0486174Y0032856D01*
X0486093Y0032836D01*
X0486012Y0032813D01*
X0485934Y0032786D01*
X0485856Y0032756D01*
X0485780Y0032721D01*
X0485706Y0032684D01*
X0485633Y0032643D01*
X0485563Y0032598D01*
X0485494Y0032551D01*
X0485428Y0032500D01*
X0485365Y0032446D01*
X0485304Y0032389D01*
X0485245Y0032329D01*
X0485190Y0032267D01*
X0485138Y0032202D01*
X0485088Y0032135D01*
X0485042Y0032065D01*
X0484999Y0031994D01*
X0484960Y0031920D01*
X0484924Y0031845D01*
X0484892Y0031768D01*
X0484863Y0031690D01*
X0484838Y0031611D01*
X0484817Y0031530D01*
X0484799Y0031449D01*
X0484786Y0031366D01*
X0484776Y0031283D01*
X0484770Y0031200D01*
X0484768Y0031117D01*
X0488323Y0029339D02*
X0488321Y0029235D01*
X0488315Y0029131D01*
X0488306Y0029028D01*
X0488293Y0028925D01*
X0488276Y0028822D01*
X0488255Y0028721D01*
X0488231Y0028620D01*
X0488202Y0028520D01*
X0488171Y0028421D01*
X0488135Y0028323D01*
X0488096Y0028227D01*
X0488054Y0028132D01*
X0488008Y0028039D01*
X0487959Y0027947D01*
X0487907Y0027857D01*
X0487851Y0027770D01*
X0487792Y0027684D01*
X0487730Y0027601D01*
X0487665Y0027520D01*
X0487597Y0027441D01*
X0487526Y0027365D01*
X0487453Y0027292D01*
X0487377Y0027221D01*
X0487298Y0027153D01*
X0487217Y0027088D01*
X0487134Y0027026D01*
X0487048Y0026967D01*
X0486961Y0026911D01*
X0486871Y0026859D01*
X0486779Y0026810D01*
X0486686Y0026764D01*
X0486591Y0026722D01*
X0486495Y0026683D01*
X0486397Y0026647D01*
X0486298Y0026616D01*
X0486198Y0026587D01*
X0486097Y0026563D01*
X0485996Y0026542D01*
X0485893Y0026525D01*
X0485790Y0026512D01*
X0485687Y0026503D01*
X0485583Y0026497D01*
X0485479Y0026495D01*
X0490676Y0026495D02*
X0491031Y0026495D01*
X0491031Y0026850D01*
X0490676Y0026850D01*
X0490676Y0026495D01*
X0493384Y0026495D02*
X0496939Y0026495D01*
X0499538Y0026495D02*
X0503093Y0026495D01*
X0501315Y0026495D02*
X0501315Y0032895D01*
X0499538Y0031473D01*
X0496406Y0030050D02*
X0493384Y0026495D01*
X0493383Y0031472D02*
X0493412Y0031557D01*
X0493445Y0031640D01*
X0493482Y0031721D01*
X0493522Y0031801D01*
X0493565Y0031878D01*
X0493612Y0031954D01*
X0493662Y0032028D01*
X0493715Y0032100D01*
X0493771Y0032169D01*
X0493830Y0032236D01*
X0493892Y0032300D01*
X0493957Y0032361D01*
X0494024Y0032420D01*
X0494094Y0032475D01*
X0494166Y0032528D01*
X0494240Y0032577D01*
X0494317Y0032623D01*
X0494395Y0032665D01*
X0494475Y0032705D01*
X0494557Y0032740D01*
X0494640Y0032773D01*
X0494724Y0032801D01*
X0494810Y0032826D01*
X0494897Y0032847D01*
X0494984Y0032864D01*
X0495072Y0032878D01*
X0495161Y0032887D01*
X0495250Y0032893D01*
X0495339Y0032895D01*
X0495418Y0032893D01*
X0495496Y0032887D01*
X0495574Y0032878D01*
X0495651Y0032864D01*
X0495728Y0032847D01*
X0495803Y0032826D01*
X0495878Y0032801D01*
X0495951Y0032773D01*
X0496023Y0032741D01*
X0496093Y0032706D01*
X0496162Y0032667D01*
X0496228Y0032625D01*
X0496292Y0032580D01*
X0496354Y0032532D01*
X0496413Y0032481D01*
X0496470Y0032426D01*
X0496525Y0032369D01*
X0496576Y0032310D01*
X0496624Y0032248D01*
X0496669Y0032184D01*
X0496711Y0032118D01*
X0496750Y0032049D01*
X0496785Y0031979D01*
X0496817Y0031907D01*
X0496845Y0031834D01*
X0496870Y0031759D01*
X0496891Y0031684D01*
X0496908Y0031607D01*
X0496922Y0031530D01*
X0496931Y0031452D01*
X0496937Y0031374D01*
X0496939Y0031295D01*
X0496940Y0031295D02*
X0496938Y0031213D01*
X0496932Y0031131D01*
X0496922Y0031050D01*
X0496909Y0030969D01*
X0496891Y0030889D01*
X0496870Y0030810D01*
X0496845Y0030732D01*
X0496817Y0030656D01*
X0496784Y0030580D01*
X0496749Y0030507D01*
X0496709Y0030435D01*
X0496667Y0030365D01*
X0496621Y0030297D01*
X0496572Y0030232D01*
X0496520Y0030169D01*
X0496464Y0030108D01*
X0496407Y0030050D01*
X0567224Y0149205D02*
X0569002Y0149205D01*
X0567224Y0149205D02*
X0567224Y0151339D01*
X0567224Y0149206D02*
X0567118Y0149208D01*
X0567011Y0149214D01*
X0566906Y0149224D01*
X0566800Y0149238D01*
X0566695Y0149256D01*
X0566591Y0149277D01*
X0566488Y0149303D01*
X0566386Y0149332D01*
X0566285Y0149366D01*
X0566185Y0149403D01*
X0566087Y0149443D01*
X0565990Y0149488D01*
X0565895Y0149536D01*
X0565802Y0149587D01*
X0565711Y0149642D01*
X0565622Y0149700D01*
X0565535Y0149762D01*
X0565451Y0149826D01*
X0565369Y0149894D01*
X0565290Y0149965D01*
X0565213Y0150039D01*
X0565139Y0150116D01*
X0565068Y0150195D01*
X0565000Y0150277D01*
X0564936Y0150361D01*
X0564874Y0150448D01*
X0564816Y0150537D01*
X0564761Y0150628D01*
X0564710Y0150721D01*
X0564662Y0150816D01*
X0564617Y0150913D01*
X0564577Y0151011D01*
X0564540Y0151111D01*
X0564506Y0151212D01*
X0564477Y0151314D01*
X0564451Y0151417D01*
X0564430Y0151521D01*
X0564412Y0151626D01*
X0564398Y0151732D01*
X0564388Y0151837D01*
X0564382Y0151944D01*
X0564380Y0152050D01*
X0568647Y0152761D02*
X0569002Y0152761D01*
X0568647Y0152761D02*
X0568573Y0152759D01*
X0568498Y0152753D01*
X0568425Y0152743D01*
X0568351Y0152730D01*
X0568279Y0152713D01*
X0568208Y0152691D01*
X0568137Y0152667D01*
X0568069Y0152638D01*
X0568001Y0152606D01*
X0567936Y0152570D01*
X0567873Y0152532D01*
X0567811Y0152489D01*
X0567752Y0152444D01*
X0567695Y0152396D01*
X0567641Y0152345D01*
X0567590Y0152291D01*
X0567542Y0152234D01*
X0567497Y0152175D01*
X0567454Y0152113D01*
X0567416Y0152050D01*
X0567380Y0151985D01*
X0567348Y0151917D01*
X0567319Y0151849D01*
X0567295Y0151778D01*
X0567273Y0151707D01*
X0567256Y0151635D01*
X0567243Y0151561D01*
X0567233Y0151488D01*
X0567227Y0151413D01*
X0567225Y0151339D01*
X0569002Y0152761D02*
X0569085Y0152759D01*
X0569168Y0152753D01*
X0569251Y0152743D01*
X0569334Y0152730D01*
X0569415Y0152712D01*
X0569496Y0152691D01*
X0569575Y0152666D01*
X0569653Y0152637D01*
X0569730Y0152605D01*
X0569805Y0152569D01*
X0569879Y0152530D01*
X0569950Y0152487D01*
X0570020Y0152441D01*
X0570087Y0152391D01*
X0570152Y0152339D01*
X0570214Y0152284D01*
X0570274Y0152225D01*
X0570331Y0152164D01*
X0570385Y0152101D01*
X0570436Y0152035D01*
X0570483Y0151966D01*
X0570528Y0151896D01*
X0570569Y0151823D01*
X0570606Y0151749D01*
X0570641Y0151673D01*
X0570671Y0151595D01*
X0570698Y0151517D01*
X0570721Y0151436D01*
X0570741Y0151355D01*
X0570756Y0151273D01*
X0570768Y0151191D01*
X0570776Y0151108D01*
X0570780Y0151025D01*
X0570780Y0150941D01*
X0570776Y0150858D01*
X0570768Y0150775D01*
X0570756Y0150693D01*
X0570741Y0150611D01*
X0570721Y0150530D01*
X0570698Y0150449D01*
X0570671Y0150371D01*
X0570641Y0150293D01*
X0570606Y0150217D01*
X0570569Y0150143D01*
X0570528Y0150070D01*
X0570483Y0150000D01*
X0570436Y0149931D01*
X0570385Y0149865D01*
X0570331Y0149802D01*
X0570274Y0149741D01*
X0570214Y0149682D01*
X0570152Y0149627D01*
X0570087Y0149575D01*
X0570020Y0149525D01*
X0569950Y0149479D01*
X0569879Y0149436D01*
X0569805Y0149397D01*
X0569730Y0149361D01*
X0569653Y0149329D01*
X0569575Y0149300D01*
X0569496Y0149275D01*
X0569415Y0149254D01*
X0569334Y0149236D01*
X0569251Y0149223D01*
X0569168Y0149213D01*
X0569085Y0149207D01*
X0569002Y0149205D01*
X0570780Y0155359D02*
X0570780Y0158915D01*
X0570780Y0161267D02*
X0570424Y0161267D01*
X0570424Y0161623D01*
X0570780Y0161623D01*
X0570780Y0161267D01*
X0570780Y0163975D02*
X0570780Y0167530D01*
X0570780Y0170129D02*
X0570780Y0171907D01*
X0570778Y0171990D01*
X0570772Y0172073D01*
X0570762Y0172156D01*
X0570749Y0172239D01*
X0570731Y0172320D01*
X0570710Y0172401D01*
X0570685Y0172480D01*
X0570656Y0172558D01*
X0570624Y0172635D01*
X0570588Y0172710D01*
X0570549Y0172784D01*
X0570506Y0172855D01*
X0570460Y0172925D01*
X0570410Y0172992D01*
X0570358Y0173057D01*
X0570303Y0173119D01*
X0570244Y0173179D01*
X0570183Y0173236D01*
X0570120Y0173290D01*
X0570054Y0173341D01*
X0569985Y0173388D01*
X0569915Y0173433D01*
X0569842Y0173474D01*
X0569768Y0173511D01*
X0569692Y0173546D01*
X0569614Y0173576D01*
X0569536Y0173603D01*
X0569455Y0173626D01*
X0569374Y0173646D01*
X0569292Y0173661D01*
X0569210Y0173673D01*
X0569127Y0173681D01*
X0569044Y0173685D01*
X0568960Y0173685D01*
X0568877Y0173681D01*
X0568794Y0173673D01*
X0568712Y0173661D01*
X0568630Y0173646D01*
X0568549Y0173626D01*
X0568468Y0173603D01*
X0568390Y0173576D01*
X0568312Y0173546D01*
X0568236Y0173511D01*
X0568162Y0173474D01*
X0568089Y0173433D01*
X0568019Y0173388D01*
X0567950Y0173341D01*
X0567884Y0173290D01*
X0567821Y0173236D01*
X0567760Y0173179D01*
X0567701Y0173119D01*
X0567646Y0173057D01*
X0567594Y0172992D01*
X0567544Y0172925D01*
X0567498Y0172855D01*
X0567455Y0172784D01*
X0567416Y0172710D01*
X0567380Y0172635D01*
X0567348Y0172558D01*
X0567319Y0172480D01*
X0567294Y0172401D01*
X0567273Y0172320D01*
X0567255Y0172239D01*
X0567242Y0172156D01*
X0567232Y0172073D01*
X0567226Y0171990D01*
X0567224Y0171907D01*
X0567224Y0172262D02*
X0567224Y0170840D01*
X0567224Y0172262D02*
X0567222Y0172336D01*
X0567216Y0172411D01*
X0567206Y0172484D01*
X0567193Y0172558D01*
X0567176Y0172630D01*
X0567154Y0172701D01*
X0567130Y0172772D01*
X0567101Y0172840D01*
X0567069Y0172908D01*
X0567033Y0172973D01*
X0566995Y0173036D01*
X0566952Y0173098D01*
X0566907Y0173157D01*
X0566859Y0173214D01*
X0566808Y0173268D01*
X0566754Y0173319D01*
X0566697Y0173367D01*
X0566638Y0173412D01*
X0566576Y0173455D01*
X0566513Y0173493D01*
X0566448Y0173529D01*
X0566380Y0173561D01*
X0566312Y0173590D01*
X0566241Y0173614D01*
X0566170Y0173636D01*
X0566098Y0173653D01*
X0566024Y0173666D01*
X0565951Y0173676D01*
X0565876Y0173682D01*
X0565802Y0173684D01*
X0565728Y0173682D01*
X0565653Y0173676D01*
X0565580Y0173666D01*
X0565506Y0173653D01*
X0565434Y0173636D01*
X0565363Y0173614D01*
X0565292Y0173590D01*
X0565224Y0173561D01*
X0565156Y0173529D01*
X0565091Y0173493D01*
X0565028Y0173455D01*
X0564966Y0173412D01*
X0564907Y0173367D01*
X0564850Y0173319D01*
X0564796Y0173268D01*
X0564745Y0173214D01*
X0564697Y0173157D01*
X0564652Y0173098D01*
X0564609Y0173036D01*
X0564571Y0172973D01*
X0564535Y0172908D01*
X0564503Y0172840D01*
X0564474Y0172772D01*
X0564450Y0172701D01*
X0564428Y0172630D01*
X0564411Y0172558D01*
X0564398Y0172484D01*
X0564388Y0172411D01*
X0564382Y0172336D01*
X0564380Y0172262D01*
X0564380Y0170129D01*
X0567224Y0166997D02*
X0570780Y0163975D01*
X0565803Y0163974D02*
X0565718Y0164003D01*
X0565635Y0164036D01*
X0565554Y0164073D01*
X0565474Y0164113D01*
X0565397Y0164156D01*
X0565321Y0164203D01*
X0565247Y0164253D01*
X0565175Y0164306D01*
X0565106Y0164362D01*
X0565039Y0164421D01*
X0564975Y0164483D01*
X0564914Y0164548D01*
X0564855Y0164615D01*
X0564800Y0164685D01*
X0564747Y0164757D01*
X0564698Y0164831D01*
X0564652Y0164908D01*
X0564610Y0164986D01*
X0564570Y0165066D01*
X0564535Y0165148D01*
X0564502Y0165231D01*
X0564474Y0165315D01*
X0564449Y0165401D01*
X0564428Y0165488D01*
X0564411Y0165575D01*
X0564397Y0165663D01*
X0564388Y0165752D01*
X0564382Y0165841D01*
X0564380Y0165930D01*
X0564382Y0166009D01*
X0564388Y0166087D01*
X0564397Y0166165D01*
X0564411Y0166242D01*
X0564428Y0166319D01*
X0564449Y0166394D01*
X0564474Y0166469D01*
X0564502Y0166542D01*
X0564534Y0166614D01*
X0564569Y0166684D01*
X0564608Y0166753D01*
X0564650Y0166819D01*
X0564695Y0166883D01*
X0564743Y0166945D01*
X0564794Y0167004D01*
X0564849Y0167061D01*
X0564906Y0167116D01*
X0564965Y0167167D01*
X0565027Y0167215D01*
X0565091Y0167260D01*
X0565157Y0167302D01*
X0565226Y0167341D01*
X0565296Y0167376D01*
X0565368Y0167408D01*
X0565441Y0167436D01*
X0565516Y0167461D01*
X0565591Y0167482D01*
X0565668Y0167499D01*
X0565745Y0167513D01*
X0565823Y0167522D01*
X0565901Y0167528D01*
X0565980Y0167530D01*
X0565980Y0167531D02*
X0566062Y0167529D01*
X0566144Y0167523D01*
X0566225Y0167513D01*
X0566306Y0167500D01*
X0566386Y0167482D01*
X0566465Y0167461D01*
X0566543Y0167436D01*
X0566619Y0167408D01*
X0566695Y0167375D01*
X0566768Y0167340D01*
X0566840Y0167300D01*
X0566910Y0167258D01*
X0566978Y0167212D01*
X0567043Y0167163D01*
X0567106Y0167111D01*
X0567167Y0167055D01*
X0567225Y0166998D01*
X0567224Y0158381D02*
X0570780Y0155359D01*
X0565803Y0155359D02*
X0565718Y0155388D01*
X0565635Y0155421D01*
X0565554Y0155458D01*
X0565474Y0155498D01*
X0565397Y0155541D01*
X0565321Y0155588D01*
X0565247Y0155638D01*
X0565175Y0155691D01*
X0565106Y0155747D01*
X0565039Y0155806D01*
X0564975Y0155868D01*
X0564914Y0155933D01*
X0564855Y0156000D01*
X0564800Y0156070D01*
X0564747Y0156142D01*
X0564698Y0156216D01*
X0564652Y0156293D01*
X0564610Y0156371D01*
X0564570Y0156451D01*
X0564535Y0156533D01*
X0564502Y0156616D01*
X0564474Y0156700D01*
X0564449Y0156786D01*
X0564428Y0156873D01*
X0564411Y0156960D01*
X0564397Y0157048D01*
X0564388Y0157137D01*
X0564382Y0157226D01*
X0564380Y0157315D01*
X0564382Y0157394D01*
X0564388Y0157472D01*
X0564397Y0157550D01*
X0564411Y0157627D01*
X0564428Y0157704D01*
X0564449Y0157779D01*
X0564474Y0157854D01*
X0564502Y0157927D01*
X0564534Y0157999D01*
X0564569Y0158069D01*
X0564608Y0158138D01*
X0564650Y0158204D01*
X0564695Y0158268D01*
X0564743Y0158330D01*
X0564794Y0158389D01*
X0564849Y0158446D01*
X0564906Y0158501D01*
X0564965Y0158552D01*
X0565027Y0158600D01*
X0565091Y0158645D01*
X0565157Y0158687D01*
X0565226Y0158726D01*
X0565296Y0158761D01*
X0565368Y0158793D01*
X0565441Y0158821D01*
X0565516Y0158846D01*
X0565591Y0158867D01*
X0565668Y0158884D01*
X0565745Y0158898D01*
X0565823Y0158907D01*
X0565901Y0158913D01*
X0565980Y0158915D01*
X0566062Y0158913D01*
X0566144Y0158907D01*
X0566225Y0158897D01*
X0566306Y0158884D01*
X0566386Y0158866D01*
X0566465Y0158845D01*
X0566543Y0158820D01*
X0566619Y0158792D01*
X0566695Y0158759D01*
X0566768Y0158724D01*
X0566840Y0158684D01*
X0566910Y0158642D01*
X0566978Y0158596D01*
X0567043Y0158547D01*
X0567106Y0158495D01*
X0567167Y0158439D01*
X0567225Y0158382D01*
D13*
X0387082Y0133933D03*
X0379602Y0133933D03*
X0297082Y0183933D03*
X0289602Y0183933D03*
X0212082Y0228933D03*
X0204602Y0228933D03*
X0187082Y0224933D03*
X0179602Y0224933D03*
X0179602Y0212933D03*
X0187082Y0212933D03*
X0168582Y0213933D03*
X0161102Y0213933D03*
X0179602Y0239433D03*
X0187082Y0239433D03*
X0279602Y0268933D03*
X0287082Y0268933D03*
X0167082Y0168933D03*
X0159602Y0168933D03*
X0147082Y0168933D03*
X0139602Y0168933D03*
X0139602Y0153933D03*
X0147082Y0153933D03*
X0147082Y0138933D03*
X0139602Y0138933D03*
D14*
X0148342Y0097673D03*
X0148342Y0090193D03*
X0228342Y0110193D03*
X0228342Y0117673D03*
X0258342Y0072673D03*
X0258342Y0065193D03*
X0408342Y0095193D03*
X0408342Y0102673D03*
X0191342Y0253693D03*
X0191342Y0261173D03*
X0148342Y0242673D03*
X0148342Y0235193D03*
X0148342Y0222673D03*
X0148342Y0215193D03*
D15*
X0202440Y0218933D03*
X0214243Y0218933D03*
X0214243Y0240933D03*
X0202440Y0240933D03*
X0242440Y0268933D03*
X0254243Y0268933D03*
X0297440Y0268933D03*
X0309243Y0268933D03*
X0322440Y0243933D03*
X0334243Y0243933D03*
X0334243Y0203933D03*
X0322440Y0203933D03*
X0319243Y0183933D03*
X0307440Y0183933D03*
X0279243Y0183933D03*
X0267440Y0183933D03*
X0254243Y0183933D03*
X0242440Y0183933D03*
X0169243Y0153933D03*
X0157440Y0153933D03*
X0162440Y0133933D03*
X0174243Y0133933D03*
X0134243Y0083933D03*
X0122440Y0083933D03*
X0237440Y0068933D03*
X0249243Y0068933D03*
X0382440Y0083933D03*
X0394243Y0083933D03*
D16*
X0368342Y0108031D03*
X0368342Y0119835D03*
X0228342Y0099835D03*
X0228342Y0088031D03*
X0163342Y0088031D03*
X0163342Y0099835D03*
X0163342Y0108031D03*
X0163342Y0119835D03*
X0129842Y0234031D03*
X0129842Y0245835D03*
X0166842Y0254031D03*
X0176342Y0254031D03*
X0176342Y0265835D03*
X0166842Y0265835D03*
X0338342Y0229835D03*
X0338342Y0218031D03*
D17*
X0232673Y0217673D03*
X0224011Y0213933D03*
X0232673Y0210193D03*
X0232673Y0202673D03*
X0224011Y0198933D03*
X0232673Y0195193D03*
X0232673Y0187673D03*
X0224011Y0183933D03*
X0232673Y0180193D03*
X0212673Y0195193D03*
X0204011Y0198933D03*
X0212673Y0202673D03*
X0232673Y0235193D03*
X0224011Y0238933D03*
X0232673Y0242673D03*
X0232673Y0250193D03*
X0224011Y0253933D03*
X0232673Y0257673D03*
X0232673Y0265693D03*
X0224011Y0269433D03*
X0232673Y0273173D03*
X0212673Y0262673D03*
X0212673Y0255193D03*
X0204011Y0258933D03*
X0152673Y0122673D03*
X0152673Y0115193D03*
X0144011Y0118933D03*
D18*
X0245042Y0199933D02*
X0251642Y0199933D01*
X0251642Y0208933D02*
X0245042Y0208933D01*
X0245042Y0217933D02*
X0251642Y0217933D01*
X0251642Y0234933D02*
X0245042Y0234933D01*
X0245042Y0243933D02*
X0251642Y0243933D01*
X0251642Y0252933D02*
X0245042Y0252933D01*
D19*
X0170842Y0243633D03*
X0165842Y0243633D03*
X0160842Y0243633D03*
X0155842Y0243633D03*
X0155842Y0224233D03*
X0160842Y0224233D03*
X0165842Y0224233D03*
X0170842Y0224233D03*
D20*
X0108442Y0216533D03*
X0108442Y0233933D03*
X0108442Y0251333D03*
D21*
X0322594Y0138933D03*
X0354090Y0138933D03*
D22*
X0338342Y0104681D03*
X0338342Y0073185D03*
X0288342Y0073185D03*
X0288342Y0104681D03*
X0198342Y0104681D03*
X0198342Y0073185D03*
D23*
X0122042Y0138933D02*
X0114642Y0138933D01*
X0114642Y0148933D02*
X0122042Y0148933D01*
X0122042Y0158933D02*
X0114642Y0158933D01*
X0114642Y0168933D02*
X0122042Y0168933D01*
X0409642Y0163933D02*
X0417042Y0163933D01*
X0417042Y0153933D02*
X0409642Y0153933D01*
X0409642Y0143933D02*
X0417042Y0143933D01*
X0417042Y0133933D02*
X0409642Y0133933D01*
X0409642Y0203933D02*
X0417042Y0203933D01*
X0417042Y0213933D02*
X0409642Y0213933D01*
X0409642Y0223933D02*
X0417042Y0223933D01*
X0417042Y0233933D02*
X0409642Y0233933D01*
D24*
X0368342Y0094957D03*
X0368342Y0083933D03*
X0228342Y0079445D03*
X0228342Y0068421D03*
D25*
X0239287Y0081531D03*
X0248342Y0081531D03*
X0257397Y0081531D03*
X0379287Y0096531D03*
X0388342Y0096531D03*
X0397397Y0096531D03*
D26*
X0388342Y0121335D03*
X0248342Y0106335D03*
D27*
X0353775Y0218933D03*
X0382909Y0218933D03*
X0382909Y0248933D03*
X0353775Y0248933D03*
D28*
X0123342Y0108933D03*
D29*
X0148342Y0090193D02*
X0148342Y0078933D01*
X0139243Y0078933D01*
X0134243Y0083933D01*
X0163342Y0088031D02*
X0163342Y0078933D01*
X0193342Y0068185D02*
X0193342Y0061933D01*
X0193342Y0068185D02*
X0198342Y0073185D01*
D30*
X0203342Y0061933D03*
X0193342Y0061933D03*
X0163342Y0078933D03*
X0148342Y0078933D03*
X0218342Y0098933D03*
X0218342Y0118933D03*
X0283342Y0115933D03*
X0293342Y0115933D03*
X0311842Y0133933D03*
X0311842Y0143933D03*
X0333342Y0115933D03*
X0343342Y0115933D03*
X0368342Y0128933D03*
X0408342Y0108933D03*
X0368342Y0073933D03*
X0253342Y0058933D03*
X0228342Y0058933D03*
D31*
X0228342Y0068421D01*
X0253342Y0060193D02*
X0253342Y0058933D01*
X0253342Y0060193D02*
X0258342Y0065193D01*
X0258342Y0072673D02*
X0287830Y0072673D01*
X0288342Y0073185D01*
X0288342Y0063933D01*
X0273342Y0048933D01*
X0193342Y0048933D01*
X0174243Y0068031D01*
X0174243Y0133933D01*
X0158342Y0143933D02*
X0158342Y0153031D01*
X0157440Y0153933D01*
X0158342Y0154835D01*
X0158342Y0158933D01*
X0161389Y0161980D01*
X0163818Y0161980D01*
X0167082Y0165245D01*
X0167082Y0168933D01*
X0159602Y0168933D02*
X0147082Y0168933D01*
X0147082Y0153933D01*
X0139602Y0153933D02*
X0139602Y0150102D01*
X0147082Y0142621D01*
X0147082Y0138933D01*
X0154342Y0139933D02*
X0154342Y0126448D01*
X0152673Y0124778D01*
X0152673Y0122673D01*
X0152673Y0115193D02*
X0159834Y0108031D01*
X0163342Y0108031D01*
X0163342Y0099835D01*
X0150503Y0099835D01*
X0148342Y0097673D01*
X0123342Y0108933D02*
X0122440Y0108031D01*
X0122440Y0083933D01*
X0123342Y0108933D02*
X0123342Y0122673D01*
X0139602Y0138933D01*
X0144011Y0127602D02*
X0144011Y0118933D01*
X0154342Y0139933D02*
X0158342Y0143933D01*
X0169243Y0153933D02*
X0173342Y0158031D01*
X0173342Y0158933D01*
X0213342Y0188933D02*
X0213342Y0194524D01*
X0212673Y0195193D01*
X0253243Y0182933D02*
X0253243Y0174031D01*
X0253342Y0173933D01*
X0253243Y0182933D02*
X0254243Y0183933D01*
X0311842Y0143933D02*
X0318342Y0143933D01*
X0323342Y0138933D01*
X0318342Y0133933D01*
X0311842Y0133933D01*
X0322594Y0138933D02*
X0323342Y0138933D01*
X0354090Y0138933D02*
X0364090Y0148933D01*
X0388342Y0148933D01*
X0403342Y0163933D01*
X0413342Y0163933D01*
X0388342Y0148933D02*
X0388342Y0135193D01*
X0387082Y0133933D01*
X0388342Y0132673D01*
X0388342Y0121335D01*
X0388342Y0096531D01*
X0379287Y0096531D02*
X0377712Y0094957D01*
X0368342Y0094957D01*
X0368342Y0108031D01*
X0368342Y0119835D02*
X0368342Y0128933D01*
X0373342Y0133933D01*
X0379602Y0133933D01*
X0413342Y0133933D02*
X0418342Y0128933D01*
X0418342Y0083933D01*
X0407393Y0083933D01*
X0370993Y0047533D01*
X0313994Y0047533D01*
X0288342Y0073185D01*
X0288342Y0104681D02*
X0283342Y0109681D01*
X0283342Y0115933D01*
X0293342Y0115933D02*
X0293342Y0109681D01*
X0288342Y0104681D01*
X0333342Y0109681D02*
X0333342Y0115933D01*
X0333342Y0109681D02*
X0338342Y0104681D01*
X0368342Y0083933D02*
X0368342Y0073933D01*
X0379287Y0087087D02*
X0382440Y0083933D01*
X0379287Y0087087D02*
X0379287Y0096531D01*
X0397397Y0096531D02*
X0397397Y0087087D01*
X0394243Y0083933D01*
X0394243Y0079835D01*
X0368342Y0053933D01*
X0348342Y0053933D01*
X0338342Y0063933D01*
X0338342Y0073185D01*
X0397397Y0094878D02*
X0398342Y0093933D01*
X0407082Y0093933D01*
X0408342Y0095193D01*
X0408342Y0102673D02*
X0408342Y0108933D01*
X0397397Y0096531D02*
X0397397Y0094878D01*
X0228342Y0099835D02*
X0227440Y0098933D01*
X0218342Y0098933D01*
X0219602Y0117673D02*
X0218342Y0118933D01*
X0219602Y0117673D02*
X0228342Y0117673D01*
X0198342Y0073185D02*
X0203342Y0068185D01*
X0203342Y0061933D01*
X0129842Y0245835D02*
X0124343Y0251333D01*
X0120742Y0251333D01*
D32*
X0123342Y0253933D03*
X0133342Y0253933D03*
X0143342Y0253933D03*
X0148342Y0248933D03*
X0153342Y0253933D03*
X0158342Y0253933D03*
X0163342Y0268933D03*
X0178342Y0268933D03*
X0193342Y0273933D03*
X0203342Y0273933D03*
X0213342Y0268933D03*
X0220342Y0263933D03*
X0228342Y0258933D03*
X0228342Y0248933D03*
X0238342Y0238933D03*
X0228342Y0233933D03*
X0223342Y0223933D03*
X0218342Y0228933D03*
X0193342Y0214433D03*
X0188342Y0218933D03*
X0208342Y0208933D03*
X0228342Y0203933D03*
X0238342Y0208933D03*
X0238342Y0193933D03*
X0228342Y0188933D03*
X0213342Y0188933D03*
X0198342Y0188933D03*
X0188342Y0183933D03*
X0198342Y0178933D03*
X0203342Y0168933D03*
X0213342Y0173933D03*
X0225842Y0171933D03*
X0235842Y0171933D03*
X0253342Y0173933D03*
X0268342Y0173933D03*
X0280842Y0161933D03*
X0290842Y0161933D03*
X0293342Y0173933D03*
X0298342Y0173933D03*
X0307842Y0173433D03*
X0308342Y0198933D03*
X0315842Y0203933D03*
X0318342Y0218933D03*
X0328342Y0218933D03*
X0328342Y0228933D03*
X0318342Y0228933D03*
X0316342Y0243933D03*
X0338342Y0263933D03*
X0348342Y0263933D03*
X0353342Y0268933D03*
X0363342Y0268933D03*
X0373342Y0268933D03*
X0383342Y0268933D03*
X0393342Y0263933D03*
X0398342Y0253933D03*
X0408342Y0248933D03*
X0418342Y0248933D03*
X0398342Y0223933D03*
X0398342Y0213933D03*
X0393342Y0203933D03*
X0393342Y0193933D03*
X0408342Y0188933D03*
X0418342Y0188933D03*
X0398342Y0178933D03*
X0383342Y0178933D03*
X0368342Y0178933D03*
X0353342Y0178933D03*
X0338342Y0183933D03*
X0363342Y0198933D03*
X0353342Y0208933D03*
X0348342Y0203933D03*
X0268342Y0158933D03*
X0233342Y0153933D03*
X0218342Y0158933D03*
X0173342Y0158933D03*
X0173342Y0188933D03*
X0183342Y0193933D03*
X0168342Y0203933D03*
X0163342Y0198933D03*
X0153342Y0193933D03*
X0153342Y0203933D03*
X0148342Y0210433D03*
X0140842Y0212933D03*
X0138342Y0198433D03*
X0123342Y0193933D03*
X0118342Y0203933D03*
X0108342Y0203933D03*
X0138342Y0233933D03*
X0168842Y0231933D03*
X0178842Y0231933D03*
X0188842Y0231933D03*
X0213342Y0248933D03*
X0258342Y0218933D03*
X0263342Y0268933D03*
X0338342Y0273933D03*
D33*
X0382909Y0248933D02*
X0382909Y0233933D01*
X0382909Y0218933D01*
X0393342Y0208500D01*
X0393342Y0203933D01*
X0393342Y0193933D02*
X0388342Y0188933D01*
X0352342Y0188933D01*
X0346440Y0194835D01*
X0353342Y0208933D02*
X0353775Y0209366D01*
X0353775Y0218933D01*
X0268342Y0183031D02*
X0268342Y0173933D01*
X0268342Y0183031D02*
X0267440Y0183933D01*
X0267342Y0159933D02*
X0223842Y0159933D01*
X0223842Y0149433D01*
X0198342Y0123933D01*
X0198342Y0104681D01*
X0199090Y0103933D01*
X0213342Y0103933D01*
X0219602Y0110193D01*
X0228342Y0110193D01*
X0237082Y0110193D01*
X0240940Y0106335D01*
X0248342Y0106335D01*
X0248342Y0081531D01*
X0249243Y0080630D01*
X0249243Y0068933D01*
X0268342Y0158933D02*
X0267342Y0159933D01*
X0223842Y0159933D02*
X0223842Y0163933D01*
X0223342Y0163933D01*
X0213342Y0173933D01*
X0218342Y0158933D02*
X0201842Y0158933D01*
X0173342Y0187433D01*
X0173342Y0188933D01*
X0183342Y0203933D02*
X0197877Y0203933D01*
X0197877Y0208469D01*
X0202342Y0212933D01*
X0202342Y0218835D01*
X0202440Y0218933D01*
X0202440Y0222433D01*
X0204602Y0224594D01*
X0204602Y0228933D01*
X0204602Y0234173D01*
X0202440Y0236335D01*
X0202440Y0240933D01*
X0212673Y0249602D02*
X0213342Y0248933D01*
X0212673Y0249602D02*
X0212673Y0255193D01*
X0212082Y0228933D02*
X0218342Y0228933D01*
X0188342Y0223673D02*
X0188342Y0218933D01*
X0188342Y0214193D01*
X0187082Y0212933D01*
X0179602Y0212933D02*
X0179602Y0207673D01*
X0183342Y0203933D01*
X0197877Y0203933D02*
X0197877Y0189398D01*
X0198342Y0188933D01*
X0179602Y0212933D02*
X0179602Y0224933D01*
X0187082Y0224933D02*
X0188342Y0223673D01*
X0153342Y0203933D02*
X0150642Y0203933D01*
X0150480Y0203771D01*
X0146204Y0203771D01*
X0146041Y0203933D01*
X0130342Y0203933D01*
X0129842Y0203433D01*
X0138342Y0198433D02*
X0148842Y0198433D01*
X0153342Y0193933D01*
D34*
X0148342Y0210433D02*
X0148342Y0215193D01*
X0140842Y0212933D02*
X0140842Y0223933D01*
X0155542Y0223933D01*
X0155842Y0224233D01*
X0149902Y0224233D01*
X0148342Y0222673D01*
X0148342Y0235193D01*
X0148342Y0242673D02*
X0148342Y0248933D01*
X0158342Y0253933D02*
X0160842Y0251433D01*
X0160842Y0243633D01*
X0166842Y0265835D02*
X0163743Y0268933D01*
X0163342Y0268933D01*
X0176342Y0266933D02*
X0176342Y0265835D01*
X0176342Y0266933D02*
X0178342Y0268933D01*
X0129842Y0234031D02*
X0129842Y0203433D01*
X0129842Y0234031D02*
X0108540Y0234031D01*
X0108442Y0233933D01*
X0233342Y0153933D02*
X0298342Y0153933D01*
X0298342Y0128933D01*
X0318342Y0108933D01*
X0318342Y0093933D01*
X0338342Y0073933D01*
X0338342Y0073185D01*
X0258342Y0072673D02*
X0257397Y0073618D01*
X0257397Y0081531D01*
X0239287Y0081531D02*
X0239287Y0070780D01*
X0237440Y0068933D01*
X0237200Y0079445D02*
X0228342Y0079445D01*
X0228342Y0088031D01*
X0237200Y0079445D02*
X0239287Y0081531D01*
X0298342Y0153933D02*
X0298342Y0158933D01*
X0307842Y0168433D01*
X0307842Y0173433D01*
X0319243Y0183933D02*
X0328342Y0183933D01*
X0334243Y0189835D01*
X0334243Y0193933D01*
X0335145Y0194835D01*
X0346440Y0194835D01*
X0334243Y0193933D02*
X0334243Y0203933D01*
X0338342Y0208031D01*
X0338342Y0218031D01*
X0353775Y0218933D02*
X0353775Y0248933D01*
X0339243Y0248933D01*
X0334243Y0243933D01*
X0334243Y0253031D01*
X0318342Y0268933D01*
X0309243Y0268933D01*
X0297440Y0268933D02*
X0287082Y0268933D01*
X0263342Y0268933D02*
X0254243Y0268933D01*
X0254342Y0252933D02*
X0248342Y0252933D01*
X0254342Y0252933D02*
X0258342Y0248933D01*
X0258342Y0231433D01*
X0263342Y0226433D01*
X0263842Y0225933D01*
X0263842Y0213433D01*
X0257342Y0213433D01*
X0252842Y0217933D01*
X0248342Y0217933D01*
X0263342Y0226433D02*
X0308342Y0226433D01*
X0308342Y0198933D01*
X0315842Y0203933D02*
X0322440Y0203933D01*
X0338342Y0229835D02*
X0338342Y0239835D01*
X0334243Y0243933D01*
X0322440Y0243933D02*
X0316342Y0243933D01*
X0382909Y0233933D02*
X0413342Y0233933D01*
X0413342Y0203933D02*
X0408342Y0198933D01*
X0363342Y0198933D01*
D35*
X0123342Y0253933D02*
X0120742Y0251333D01*
X0108442Y0251333D01*
X0108442Y0216533D02*
X0108442Y0204033D01*
X0108342Y0203933D01*
D36*
X0100942Y0204328D02*
X0125907Y0204328D01*
X0125864Y0204224D02*
X0125864Y0202642D01*
X0126469Y0201180D01*
X0127588Y0200061D01*
X0129051Y0199455D01*
X0130633Y0199455D01*
X0131840Y0199955D01*
X0134667Y0199955D01*
X0134364Y0199224D01*
X0134364Y0197642D01*
X0134969Y0196180D01*
X0136088Y0195061D01*
X0137551Y0194455D01*
X0147194Y0194455D01*
X0151088Y0190561D01*
X0152551Y0189955D01*
X0154133Y0189955D01*
X0155595Y0190561D01*
X0156714Y0191680D01*
X0157320Y0193142D01*
X0157320Y0194724D01*
X0156714Y0196186D01*
X0152945Y0199955D01*
X0154133Y0199955D01*
X0155595Y0200561D01*
X0156714Y0201680D01*
X0157320Y0203142D01*
X0157320Y0204724D01*
X0156714Y0206186D01*
X0155595Y0207305D01*
X0154133Y0207911D01*
X0149851Y0207911D01*
X0149459Y0207749D01*
X0147224Y0207749D01*
X0146833Y0207911D01*
X0133642Y0207911D01*
X0133642Y0228270D01*
X0133677Y0228284D01*
X0134408Y0229015D01*
X0134804Y0229971D01*
X0134804Y0238092D01*
X0134408Y0239048D01*
X0133677Y0239779D01*
X0132721Y0240175D01*
X0126962Y0240175D01*
X0126007Y0239779D01*
X0125275Y0239048D01*
X0124880Y0238092D01*
X0124880Y0237831D01*
X0121042Y0237831D01*
X0121042Y0238950D01*
X0120646Y0239906D01*
X0119915Y0240637D01*
X0118959Y0241033D01*
X0100942Y0241033D01*
X0100942Y0245233D01*
X0107842Y0245233D01*
X0107842Y0250733D01*
X0109042Y0250733D01*
X0109042Y0251933D01*
X0120042Y0251933D01*
X0120042Y0256044D01*
X0119933Y0256451D01*
X0119722Y0256815D01*
X0119424Y0257113D01*
X0119059Y0257324D01*
X0118652Y0257433D01*
X0109042Y0257433D01*
X0109042Y0251933D01*
X0107842Y0251933D01*
X0107842Y0257433D01*
X0100942Y0257433D01*
X0100942Y0281294D01*
X0428342Y0281294D01*
X0428342Y0272081D01*
X0428102Y0272976D01*
X0426723Y0275364D01*
X0424773Y0277314D01*
X0422385Y0278693D01*
X0419721Y0279407D01*
X0416963Y0279407D01*
X0414299Y0278693D01*
X0411911Y0277314D01*
X0409961Y0275364D01*
X0408582Y0272976D01*
X0407868Y0270312D01*
X0407868Y0267554D01*
X0408582Y0264890D01*
X0409961Y0262502D01*
X0411911Y0260552D01*
X0414299Y0259173D01*
X0416963Y0258459D01*
X0419721Y0258459D01*
X0422385Y0259173D01*
X0424773Y0260552D01*
X0426723Y0262502D01*
X0428102Y0264890D01*
X0428342Y0265785D01*
X0428342Y0173933D01*
X0333342Y0173933D01*
X0308342Y0148933D01*
X0302142Y0148933D01*
X0302142Y0157359D01*
X0311063Y0166281D01*
X0311642Y0167677D01*
X0311642Y0172445D01*
X0311731Y0172659D01*
X0311731Y0174207D01*
X0311139Y0175636D01*
X0310045Y0176730D01*
X0308615Y0177322D01*
X0307068Y0177322D01*
X0305639Y0176730D01*
X0304545Y0175636D01*
X0303953Y0174207D01*
X0303953Y0172659D01*
X0304042Y0172445D01*
X0304042Y0170007D01*
X0296189Y0162155D01*
X0295120Y0161086D01*
X0294542Y0159689D01*
X0294542Y0157733D01*
X0272150Y0157733D01*
X0272320Y0158142D01*
X0272320Y0159724D01*
X0271714Y0161186D01*
X0270714Y0162186D01*
X0269595Y0163305D01*
X0268133Y0163911D01*
X0227820Y0163911D01*
X0227820Y0164724D01*
X0227214Y0166186D01*
X0226095Y0167305D01*
X0225242Y0167659D01*
X0215595Y0177305D01*
X0214133Y0177911D01*
X0212551Y0177911D01*
X0211088Y0177305D01*
X0209969Y0176186D01*
X0209364Y0174724D01*
X0209364Y0173142D01*
X0209969Y0171680D01*
X0218738Y0162911D01*
X0203490Y0162911D01*
X0177320Y0189081D01*
X0177320Y0189724D01*
X0176714Y0191186D01*
X0175595Y0192305D01*
X0174133Y0192911D01*
X0172551Y0192911D01*
X0171088Y0192305D01*
X0169969Y0191186D01*
X0169364Y0189724D01*
X0169364Y0186642D01*
X0169969Y0185180D01*
X0171088Y0184061D01*
X0171088Y0184061D01*
X0171216Y0183933D01*
X0100942Y0183933D01*
X0100942Y0210433D01*
X0107842Y0210433D01*
X0107842Y0215933D01*
X0109042Y0215933D01*
X0109042Y0217133D01*
X0120042Y0217133D01*
X0120042Y0221244D01*
X0119933Y0221651D01*
X0119722Y0222015D01*
X0119424Y0222313D01*
X0119059Y0222524D01*
X0118652Y0222633D01*
X0109042Y0222633D01*
X0109042Y0217133D01*
X0107842Y0217133D01*
X0107842Y0222633D01*
X0100942Y0222633D01*
X0100942Y0226833D01*
X0118959Y0226833D01*
X0119915Y0227229D01*
X0120646Y0227960D01*
X0121042Y0228916D01*
X0121042Y0230231D01*
X0124880Y0230231D01*
X0124880Y0229971D01*
X0125275Y0229015D01*
X0126007Y0228284D01*
X0126042Y0228270D01*
X0126042Y0204654D01*
X0125864Y0204224D01*
X0125864Y0203129D02*
X0100942Y0203129D01*
X0100942Y0201931D02*
X0126158Y0201931D01*
X0126917Y0200732D02*
X0100942Y0200732D01*
X0100942Y0199534D02*
X0128861Y0199534D01*
X0130823Y0199534D02*
X0134492Y0199534D01*
X0134364Y0198335D02*
X0100942Y0198335D01*
X0100942Y0197137D02*
X0134573Y0197137D01*
X0135211Y0195938D02*
X0100942Y0195938D01*
X0100942Y0194740D02*
X0136864Y0194740D01*
X0148108Y0193541D02*
X0100942Y0193541D01*
X0100942Y0192343D02*
X0149307Y0192343D01*
X0150505Y0191144D02*
X0100942Y0191144D01*
X0100942Y0189945D02*
X0169455Y0189945D01*
X0169364Y0188747D02*
X0100942Y0188747D01*
X0100942Y0187548D02*
X0169364Y0187548D01*
X0169485Y0186350D02*
X0100942Y0186350D01*
X0100942Y0185151D02*
X0169998Y0185151D01*
X0171196Y0183953D02*
X0100942Y0183953D01*
X0100942Y0205526D02*
X0126042Y0205526D01*
X0126042Y0206725D02*
X0100942Y0206725D01*
X0100942Y0207923D02*
X0126042Y0207923D01*
X0126042Y0209122D02*
X0100942Y0209122D01*
X0100942Y0210320D02*
X0126042Y0210320D01*
X0126042Y0211519D02*
X0119960Y0211519D01*
X0119933Y0211415D02*
X0120042Y0211822D01*
X0120042Y0215933D01*
X0109042Y0215933D01*
X0109042Y0210433D01*
X0118652Y0210433D01*
X0119059Y0210542D01*
X0119424Y0210753D01*
X0119722Y0211051D01*
X0119933Y0211415D01*
X0120042Y0212717D02*
X0126042Y0212717D01*
X0126042Y0213916D02*
X0120042Y0213916D01*
X0120042Y0215114D02*
X0126042Y0215114D01*
X0126042Y0216313D02*
X0109042Y0216313D01*
X0109042Y0217511D02*
X0107842Y0217511D01*
X0107842Y0218710D02*
X0109042Y0218710D01*
X0109042Y0219908D02*
X0107842Y0219908D01*
X0107842Y0221107D02*
X0109042Y0221107D01*
X0109042Y0222305D02*
X0107842Y0222305D01*
X0100942Y0223504D02*
X0126042Y0223504D01*
X0126042Y0224702D02*
X0100942Y0224702D01*
X0100942Y0225901D02*
X0126042Y0225901D01*
X0126042Y0227099D02*
X0119602Y0227099D01*
X0120786Y0228298D02*
X0125993Y0228298D01*
X0125076Y0229496D02*
X0121042Y0229496D01*
X0119432Y0222305D02*
X0126042Y0222305D01*
X0126042Y0221107D02*
X0120042Y0221107D01*
X0120042Y0219908D02*
X0126042Y0219908D01*
X0126042Y0218710D02*
X0120042Y0218710D01*
X0120042Y0217511D02*
X0126042Y0217511D01*
X0133642Y0217511D02*
X0137042Y0217511D01*
X0137042Y0216313D02*
X0133642Y0216313D01*
X0133642Y0215114D02*
X0137042Y0215114D01*
X0137042Y0213921D02*
X0136953Y0213707D01*
X0136953Y0212159D01*
X0137545Y0210730D01*
X0138639Y0209636D01*
X0140068Y0209044D01*
X0141615Y0209044D01*
X0143045Y0209636D01*
X0144139Y0210730D01*
X0144400Y0211360D01*
X0144407Y0211354D01*
X0144771Y0211143D01*
X0145178Y0211034D01*
X0147742Y0211034D01*
X0147742Y0214593D01*
X0148942Y0214593D01*
X0148942Y0215793D01*
X0152895Y0215793D01*
X0152895Y0217963D01*
X0152879Y0218021D01*
X0153128Y0218270D01*
X0153269Y0218129D01*
X0154225Y0217733D01*
X0156079Y0217733D01*
X0155943Y0217403D01*
X0155943Y0210463D01*
X0156338Y0209508D01*
X0157070Y0208776D01*
X0158025Y0208380D01*
X0159104Y0208380D01*
X0164543Y0202941D01*
X0165045Y0201730D01*
X0166139Y0200636D01*
X0167568Y0200044D01*
X0169115Y0200044D01*
X0170545Y0200636D01*
X0171639Y0201730D01*
X0172231Y0203159D01*
X0172231Y0204707D01*
X0171639Y0206136D01*
X0170545Y0207230D01*
X0169334Y0207732D01*
X0168685Y0208380D01*
X0171658Y0208380D01*
X0172614Y0208776D01*
X0173345Y0209508D01*
X0173741Y0210463D01*
X0173741Y0217403D01*
X0173433Y0218147D01*
X0174146Y0218860D01*
X0174542Y0219816D01*
X0174542Y0221152D01*
X0174571Y0221152D01*
X0174838Y0220508D01*
X0175570Y0219776D01*
X0175624Y0219754D01*
X0175624Y0218112D01*
X0175570Y0218090D01*
X0174838Y0217359D01*
X0174443Y0216403D01*
X0174443Y0209463D01*
X0174838Y0208508D01*
X0175570Y0207776D01*
X0175624Y0207754D01*
X0175624Y0206882D01*
X0176229Y0205420D01*
X0179969Y0201680D01*
X0181088Y0200561D01*
X0182551Y0199955D01*
X0193899Y0199955D01*
X0193899Y0188606D01*
X0194505Y0187144D01*
X0196088Y0185561D01*
X0197551Y0184955D01*
X0199133Y0184955D01*
X0200595Y0185561D01*
X0201714Y0186680D01*
X0202320Y0188142D01*
X0202320Y0189724D01*
X0201855Y0190846D01*
X0201855Y0194365D01*
X0207284Y0194365D01*
X0208240Y0194760D01*
X0208971Y0195492D01*
X0209007Y0195577D01*
X0212288Y0195577D01*
X0212288Y0194809D01*
X0208317Y0194809D01*
X0208317Y0193014D01*
X0208426Y0192607D01*
X0208636Y0192242D01*
X0208934Y0191944D01*
X0209299Y0191733D01*
X0209706Y0191624D01*
X0212288Y0191624D01*
X0212288Y0194809D01*
X0213057Y0194809D01*
X0213057Y0195577D01*
X0217028Y0195577D01*
X0217028Y0197372D01*
X0216919Y0197779D01*
X0216709Y0198144D01*
X0216513Y0198340D01*
X0216901Y0198501D01*
X0217633Y0199232D01*
X0217733Y0199473D01*
X0218655Y0199473D01*
X0218655Y0196447D01*
X0219051Y0195492D01*
X0219782Y0194760D01*
X0220738Y0194365D01*
X0220811Y0194365D01*
X0220811Y0188502D01*
X0220738Y0188502D01*
X0219782Y0188106D01*
X0219051Y0187374D01*
X0218655Y0186419D01*
X0218655Y0181447D01*
X0219051Y0180492D01*
X0219782Y0179760D01*
X0220738Y0179365D01*
X0227284Y0179365D01*
X0227317Y0179378D01*
X0227317Y0177707D01*
X0227712Y0176752D01*
X0228444Y0176020D01*
X0229399Y0175624D01*
X0235946Y0175624D01*
X0236901Y0176020D01*
X0237633Y0176752D01*
X0237655Y0176806D01*
X0239374Y0176806D01*
X0239954Y0177046D01*
X0239954Y0173259D01*
X0240470Y0172014D01*
X0245470Y0167014D01*
X0246423Y0166061D01*
X0247668Y0165546D01*
X0280275Y0165546D01*
X0281520Y0166061D01*
X0282473Y0167014D01*
X0291520Y0176061D01*
X0292473Y0177014D01*
X0292989Y0178259D01*
X0292989Y0178509D01*
X0293342Y0178655D01*
X0294006Y0178380D01*
X0300158Y0178380D01*
X0301114Y0178776D01*
X0301845Y0179508D01*
X0301973Y0179817D01*
X0302424Y0179367D01*
X0303380Y0178971D01*
X0311501Y0178971D01*
X0312456Y0179367D01*
X0313188Y0180098D01*
X0313342Y0180470D01*
X0313496Y0180098D01*
X0314227Y0179367D01*
X0315183Y0178971D01*
X0323304Y0178971D01*
X0324259Y0179367D01*
X0324991Y0180098D01*
X0325005Y0180133D01*
X0329098Y0180133D01*
X0330494Y0180712D01*
X0336396Y0186613D01*
X0337465Y0187682D01*
X0338043Y0189079D01*
X0338043Y0191035D01*
X0344615Y0191035D01*
X0348969Y0186680D01*
X0350088Y0185561D01*
X0351551Y0184955D01*
X0389133Y0184955D01*
X0390595Y0185561D01*
X0391714Y0186680D01*
X0396714Y0191680D01*
X0397320Y0193142D01*
X0397320Y0194724D01*
X0397150Y0195133D01*
X0409098Y0195133D01*
X0410494Y0195712D01*
X0412416Y0197633D01*
X0418295Y0197633D01*
X0420610Y0198592D01*
X0422383Y0200364D01*
X0423342Y0202680D01*
X0423342Y0205186D01*
X0422383Y0207502D01*
X0420610Y0209274D01*
X0419996Y0209528D01*
X0420495Y0209890D01*
X0421084Y0210480D01*
X0421575Y0211155D01*
X0421953Y0211899D01*
X0422211Y0212692D01*
X0422329Y0213433D01*
X0413842Y0213433D01*
X0413842Y0214433D01*
X0422329Y0214433D01*
X0422211Y0215174D01*
X0421953Y0215968D01*
X0421575Y0216711D01*
X0421084Y0217386D01*
X0420495Y0217976D01*
X0419820Y0218466D01*
X0419076Y0218845D01*
X0418805Y0218933D01*
X0419076Y0219021D01*
X0419820Y0219400D01*
X0420495Y0219890D01*
X0421084Y0220480D01*
X0421575Y0221155D01*
X0421953Y0221899D01*
X0422211Y0222692D01*
X0422329Y0223433D01*
X0413842Y0223433D01*
X0413842Y0224433D01*
X0422329Y0224433D01*
X0422211Y0225174D01*
X0421953Y0225968D01*
X0421575Y0226711D01*
X0421084Y0227386D01*
X0420495Y0227976D01*
X0419996Y0228338D01*
X0420610Y0228592D01*
X0422383Y0230364D01*
X0423342Y0232680D01*
X0423342Y0235186D01*
X0422383Y0237502D01*
X0420610Y0239274D01*
X0418295Y0240233D01*
X0408389Y0240233D01*
X0406073Y0239274D01*
X0404532Y0237733D01*
X0386887Y0237733D01*
X0386887Y0238853D01*
X0388938Y0238853D01*
X0389893Y0239249D01*
X0390625Y0239980D01*
X0391021Y0240936D01*
X0391021Y0256931D01*
X0390625Y0257886D01*
X0389893Y0258618D01*
X0388938Y0259013D01*
X0376880Y0259013D01*
X0375924Y0258618D01*
X0375193Y0257886D01*
X0374797Y0256931D01*
X0374797Y0240936D01*
X0375193Y0239980D01*
X0375924Y0239249D01*
X0376880Y0238853D01*
X0378931Y0238853D01*
X0378931Y0229013D01*
X0376880Y0229013D01*
X0375924Y0228618D01*
X0375193Y0227886D01*
X0374797Y0226931D01*
X0374797Y0210936D01*
X0375193Y0209980D01*
X0375924Y0209249D01*
X0376880Y0208853D01*
X0387363Y0208853D01*
X0389364Y0206852D01*
X0389364Y0203142D01*
X0389533Y0202733D01*
X0364330Y0202733D01*
X0364115Y0202822D01*
X0362568Y0202822D01*
X0361139Y0202230D01*
X0360045Y0201136D01*
X0359453Y0199707D01*
X0359453Y0198159D01*
X0360045Y0196730D01*
X0361139Y0195636D01*
X0362568Y0195044D01*
X0364115Y0195044D01*
X0364330Y0195133D01*
X0388916Y0195133D01*
X0386694Y0192911D01*
X0353990Y0192911D01*
X0348694Y0198207D01*
X0347231Y0198813D01*
X0345649Y0198813D01*
X0345219Y0198635D01*
X0338043Y0198635D01*
X0338043Y0198971D01*
X0338304Y0198971D01*
X0339259Y0199367D01*
X0339991Y0200098D01*
X0340387Y0201054D01*
X0340387Y0204702D01*
X0341563Y0205879D01*
X0342142Y0207276D01*
X0342142Y0212270D01*
X0342177Y0212284D01*
X0342908Y0213015D01*
X0343304Y0213971D01*
X0343304Y0222092D01*
X0342908Y0223048D01*
X0342177Y0223779D01*
X0341805Y0223933D01*
X0342177Y0224087D01*
X0342908Y0224819D01*
X0343304Y0225774D01*
X0343304Y0233895D01*
X0342908Y0234851D01*
X0342177Y0235582D01*
X0342142Y0235597D01*
X0342142Y0240591D01*
X0341563Y0241987D01*
X0340494Y0243056D01*
X0340387Y0243164D01*
X0340387Y0244702D01*
X0340817Y0245133D01*
X0345663Y0245133D01*
X0345663Y0240936D01*
X0346059Y0239980D01*
X0346790Y0239249D01*
X0347746Y0238853D01*
X0349975Y0238853D01*
X0349975Y0229013D01*
X0347746Y0229013D01*
X0346790Y0228618D01*
X0346059Y0227886D01*
X0345663Y0226931D01*
X0345663Y0210936D01*
X0346059Y0209980D01*
X0346790Y0209249D01*
X0347746Y0208853D01*
X0349364Y0208853D01*
X0349364Y0208142D01*
X0349969Y0206680D01*
X0351088Y0205561D01*
X0352551Y0204955D01*
X0354133Y0204955D01*
X0355595Y0205561D01*
X0357147Y0207113D01*
X0357753Y0208575D01*
X0357753Y0208853D01*
X0359804Y0208853D01*
X0360759Y0209249D01*
X0361491Y0209980D01*
X0361887Y0210936D01*
X0361887Y0226931D01*
X0361491Y0227886D01*
X0360759Y0228618D01*
X0359804Y0229013D01*
X0357575Y0229013D01*
X0357575Y0238853D01*
X0359804Y0238853D01*
X0360759Y0239249D01*
X0361491Y0239980D01*
X0361887Y0240936D01*
X0361887Y0256931D01*
X0361491Y0257886D01*
X0360759Y0258618D01*
X0359804Y0259013D01*
X0347746Y0259013D01*
X0346790Y0258618D01*
X0346059Y0257886D01*
X0345663Y0256931D01*
X0345663Y0252733D01*
X0338488Y0252733D01*
X0338043Y0252549D01*
X0338043Y0253787D01*
X0337465Y0255184D01*
X0320494Y0272155D01*
X0319098Y0272733D01*
X0315005Y0272733D01*
X0314991Y0272768D01*
X0314259Y0273499D01*
X0313304Y0273895D01*
X0305183Y0273895D01*
X0304227Y0273499D01*
X0303496Y0272768D01*
X0303342Y0272396D01*
X0303188Y0272768D01*
X0302456Y0273499D01*
X0301501Y0273895D01*
X0293380Y0273895D01*
X0292424Y0273499D01*
X0291973Y0273049D01*
X0291845Y0273359D01*
X0291114Y0274090D01*
X0290158Y0274486D01*
X0284006Y0274486D01*
X0283342Y0274211D01*
X0282678Y0274486D01*
X0276525Y0274486D01*
X0275570Y0274090D01*
X0274838Y0273359D01*
X0274443Y0272403D01*
X0274443Y0272358D01*
X0270154Y0276646D01*
X0268978Y0277133D01*
X0267705Y0277133D01*
X0246804Y0277133D01*
X0245628Y0276646D01*
X0244727Y0275746D01*
X0242877Y0273895D01*
X0238380Y0273895D01*
X0238028Y0273750D01*
X0238028Y0275659D01*
X0237633Y0276615D01*
X0236901Y0277346D01*
X0235946Y0277742D01*
X0229399Y0277742D01*
X0228444Y0277346D01*
X0228281Y0277183D01*
X0217766Y0277183D01*
X0216594Y0276697D01*
X0212719Y0272822D01*
X0212568Y0272822D01*
X0211139Y0272230D01*
X0210045Y0271136D01*
X0209453Y0269707D01*
X0209453Y0268159D01*
X0209833Y0267242D01*
X0209399Y0267242D01*
X0208444Y0266846D01*
X0207712Y0266115D01*
X0207317Y0265159D01*
X0207317Y0263488D01*
X0207284Y0263502D01*
X0204233Y0263502D01*
X0203690Y0264045D01*
X0202445Y0264561D01*
X0196766Y0264561D01*
X0196499Y0265205D01*
X0195767Y0265936D01*
X0194812Y0266332D01*
X0187872Y0266332D01*
X0186916Y0265936D01*
X0186185Y0265205D01*
X0185789Y0264249D01*
X0185789Y0258097D01*
X0186064Y0257433D01*
X0186058Y0257419D01*
X0181304Y0257419D01*
X0181304Y0258092D01*
X0180908Y0259048D01*
X0180177Y0259779D01*
X0179221Y0260175D01*
X0173462Y0260175D01*
X0172507Y0259779D01*
X0171775Y0259048D01*
X0171592Y0258604D01*
X0171408Y0259048D01*
X0170677Y0259779D01*
X0169721Y0260175D01*
X0163962Y0260175D01*
X0163007Y0259779D01*
X0162275Y0259048D01*
X0161880Y0258092D01*
X0161880Y0249971D01*
X0162236Y0249111D01*
X0162152Y0249133D01*
X0160842Y0249133D01*
X0160842Y0243633D01*
X0160842Y0238133D01*
X0162152Y0238133D01*
X0162471Y0238219D01*
X0162970Y0237014D01*
X0164970Y0235014D01*
X0165923Y0234061D01*
X0167168Y0233546D01*
X0177775Y0233546D01*
X0178583Y0233880D01*
X0182678Y0233880D01*
X0183342Y0234155D01*
X0184006Y0233880D01*
X0190142Y0233880D01*
X0190142Y0229408D01*
X0189852Y0229486D01*
X0187682Y0229486D01*
X0187682Y0225533D01*
X0186482Y0225533D01*
X0186482Y0229486D01*
X0184312Y0229486D01*
X0184253Y0229470D01*
X0183633Y0230090D01*
X0182678Y0230486D01*
X0176525Y0230486D01*
X0175570Y0230090D01*
X0174838Y0229359D01*
X0174571Y0228714D01*
X0174515Y0228714D01*
X0174146Y0229606D01*
X0173415Y0230337D01*
X0172459Y0230733D01*
X0169225Y0230733D01*
X0168342Y0230367D01*
X0167605Y0230673D01*
X0160144Y0238133D01*
X0160842Y0238133D01*
X0160842Y0243633D01*
X0160842Y0243633D01*
X0160842Y0243633D01*
X0160842Y0249133D01*
X0159531Y0249133D01*
X0159127Y0249025D01*
X0158415Y0249737D01*
X0157459Y0250133D01*
X0154225Y0250133D01*
X0153269Y0249737D01*
X0152538Y0249006D01*
X0152142Y0248050D01*
X0152142Y0246591D01*
X0151912Y0246723D01*
X0151505Y0246832D01*
X0148942Y0246832D01*
X0148942Y0243273D01*
X0147742Y0243273D01*
X0147742Y0242073D01*
X0143789Y0242073D01*
X0143789Y0239904D01*
X0143805Y0239845D01*
X0143185Y0239225D01*
X0142789Y0238269D01*
X0142789Y0232117D01*
X0143185Y0231161D01*
X0143916Y0230430D01*
X0144542Y0230171D01*
X0144542Y0227733D01*
X0140086Y0227733D01*
X0138689Y0227155D01*
X0137620Y0226086D01*
X0137042Y0224689D01*
X0137042Y0213921D01*
X0137039Y0213916D02*
X0133642Y0213916D01*
X0133642Y0212717D02*
X0136953Y0212717D01*
X0137218Y0211519D02*
X0133642Y0211519D01*
X0133642Y0210320D02*
X0137955Y0210320D01*
X0139881Y0209122D02*
X0133642Y0209122D01*
X0133642Y0207923D02*
X0159561Y0207923D01*
X0160760Y0206725D02*
X0156176Y0206725D01*
X0156988Y0205526D02*
X0161958Y0205526D01*
X0163157Y0204328D02*
X0157320Y0204328D01*
X0157314Y0203129D02*
X0164355Y0203129D01*
X0164962Y0201931D02*
X0156818Y0201931D01*
X0155766Y0200732D02*
X0166043Y0200732D01*
X0170641Y0200732D02*
X0180917Y0200732D01*
X0179719Y0201931D02*
X0171722Y0201931D01*
X0172218Y0203129D02*
X0178520Y0203129D01*
X0177322Y0204328D02*
X0172231Y0204328D01*
X0171891Y0205526D02*
X0176185Y0205526D01*
X0175689Y0206725D02*
X0171050Y0206725D01*
X0169142Y0207923D02*
X0175423Y0207923D01*
X0174584Y0209122D02*
X0172959Y0209122D01*
X0173682Y0210320D02*
X0174443Y0210320D01*
X0174443Y0211519D02*
X0173741Y0211519D01*
X0173741Y0212717D02*
X0174443Y0212717D01*
X0174443Y0213916D02*
X0173741Y0213916D01*
X0173741Y0215114D02*
X0174443Y0215114D01*
X0174443Y0216313D02*
X0173741Y0216313D01*
X0173696Y0217511D02*
X0174991Y0217511D01*
X0175624Y0218710D02*
X0173995Y0218710D01*
X0174542Y0219908D02*
X0175438Y0219908D01*
X0174590Y0221107D02*
X0174542Y0221107D01*
X0165842Y0224233D02*
X0165842Y0227910D01*
X0155842Y0237910D01*
X0155842Y0238933D01*
X0160391Y0237886D02*
X0162609Y0237886D01*
X0163297Y0236687D02*
X0161590Y0236687D01*
X0162788Y0235489D02*
X0164495Y0235489D01*
X0163987Y0234290D02*
X0165694Y0234290D01*
X0165185Y0233092D02*
X0190142Y0233092D01*
X0190142Y0231893D02*
X0166384Y0231893D01*
X0167582Y0230695D02*
X0169132Y0230695D01*
X0172551Y0230695D02*
X0190142Y0230695D01*
X0190142Y0229496D02*
X0184227Y0229496D01*
X0186482Y0228298D02*
X0187682Y0228298D01*
X0187682Y0227099D02*
X0186482Y0227099D01*
X0186482Y0225901D02*
X0187682Y0225901D01*
X0187682Y0224333D02*
X0187682Y0220380D01*
X0189852Y0220380D01*
X0190142Y0220458D01*
X0190142Y0217408D01*
X0189852Y0217486D01*
X0187682Y0217486D01*
X0187682Y0213533D01*
X0186482Y0213533D01*
X0186482Y0217486D01*
X0184312Y0217486D01*
X0184253Y0217470D01*
X0183633Y0218090D01*
X0183580Y0218112D01*
X0183580Y0219754D01*
X0183633Y0219776D01*
X0184253Y0220396D01*
X0184312Y0220380D01*
X0186482Y0220380D01*
X0186482Y0224333D01*
X0187682Y0224333D01*
X0187682Y0223504D02*
X0186482Y0223504D01*
X0186482Y0222305D02*
X0187682Y0222305D01*
X0187682Y0221107D02*
X0186482Y0221107D01*
X0183766Y0219908D02*
X0190142Y0219908D01*
X0190142Y0218710D02*
X0183580Y0218710D01*
X0184212Y0217511D02*
X0190142Y0217511D01*
X0187682Y0216313D02*
X0186482Y0216313D01*
X0186482Y0215114D02*
X0187682Y0215114D01*
X0187682Y0213916D02*
X0186482Y0213916D01*
X0186482Y0212333D02*
X0187682Y0212333D01*
X0187682Y0208380D01*
X0189852Y0208380D01*
X0190259Y0208489D01*
X0190623Y0208700D01*
X0190921Y0208998D01*
X0191132Y0209363D01*
X0191241Y0209770D01*
X0191241Y0211094D01*
X0192568Y0210544D01*
X0194115Y0210544D01*
X0194497Y0210702D01*
X0193899Y0209260D01*
X0193899Y0207911D01*
X0184990Y0207911D01*
X0184520Y0208380D01*
X0186482Y0208380D01*
X0186482Y0212333D01*
X0186482Y0211519D02*
X0187682Y0211519D01*
X0187682Y0210320D02*
X0186482Y0210320D01*
X0186482Y0209122D02*
X0187682Y0209122D01*
X0184977Y0207923D02*
X0193899Y0207923D01*
X0193899Y0209122D02*
X0190993Y0209122D01*
X0191241Y0210320D02*
X0194339Y0210320D01*
X0193342Y0214433D02*
X0193342Y0238173D01*
X0192082Y0239433D01*
X0187082Y0239433D01*
X0174976Y0229496D02*
X0174191Y0229496D01*
X0160842Y0239084D02*
X0160842Y0239084D01*
X0160842Y0240283D02*
X0160842Y0240283D01*
X0160842Y0241481D02*
X0160842Y0241481D01*
X0160842Y0242680D02*
X0160842Y0242680D01*
X0160842Y0243879D02*
X0160842Y0243879D01*
X0160842Y0245077D02*
X0160842Y0245077D01*
X0160842Y0246276D02*
X0160842Y0246276D01*
X0160842Y0247474D02*
X0160842Y0247474D01*
X0160842Y0248673D02*
X0160842Y0248673D01*
X0161921Y0249871D02*
X0158091Y0249871D01*
X0161880Y0251070D02*
X0109042Y0251070D01*
X0109042Y0250733D02*
X0120042Y0250733D01*
X0120042Y0246622D01*
X0119933Y0246215D01*
X0119722Y0245851D01*
X0119424Y0245553D01*
X0119059Y0245342D01*
X0118652Y0245233D01*
X0109042Y0245233D01*
X0109042Y0250733D01*
X0109042Y0249871D02*
X0107842Y0249871D01*
X0107842Y0248673D02*
X0109042Y0248673D01*
X0109042Y0247474D02*
X0107842Y0247474D01*
X0107842Y0246276D02*
X0109042Y0246276D01*
X0100942Y0245077D02*
X0125880Y0245077D01*
X0125880Y0245254D02*
X0125880Y0242081D01*
X0125989Y0241674D01*
X0126199Y0241309D01*
X0126497Y0241011D01*
X0126862Y0240800D01*
X0127269Y0240691D01*
X0129261Y0240691D01*
X0129261Y0245253D01*
X0130423Y0245253D01*
X0130423Y0240691D01*
X0132415Y0240691D01*
X0132822Y0240800D01*
X0133186Y0241011D01*
X0133484Y0241309D01*
X0133695Y0241674D01*
X0133804Y0242081D01*
X0133804Y0245254D01*
X0130423Y0245254D01*
X0130423Y0246416D01*
X0129261Y0246416D01*
X0129261Y0250978D01*
X0127269Y0250978D01*
X0126862Y0250869D01*
X0126497Y0250658D01*
X0126199Y0250360D01*
X0125989Y0249996D01*
X0125880Y0249589D01*
X0125880Y0246416D01*
X0129261Y0246416D01*
X0129261Y0245254D01*
X0125880Y0245254D01*
X0125880Y0243879D02*
X0100942Y0243879D01*
X0100942Y0242680D02*
X0125880Y0242680D01*
X0126100Y0241481D02*
X0100942Y0241481D01*
X0107842Y0252268D02*
X0109042Y0252268D01*
X0109042Y0253467D02*
X0107842Y0253467D01*
X0107842Y0254665D02*
X0109042Y0254665D01*
X0109042Y0255864D02*
X0107842Y0255864D01*
X0107842Y0257062D02*
X0109042Y0257062D01*
X0109299Y0259173D02*
X0111963Y0258459D01*
X0114721Y0258459D01*
X0117385Y0259173D01*
X0119773Y0260552D01*
X0121723Y0262502D01*
X0123102Y0264890D01*
X0123816Y0267554D01*
X0123816Y0270312D01*
X0123102Y0272976D01*
X0121723Y0275364D01*
X0119773Y0277314D01*
X0117385Y0278693D01*
X0114721Y0279407D01*
X0111963Y0279407D01*
X0109299Y0278693D01*
X0106911Y0277314D01*
X0104961Y0275364D01*
X0103582Y0272976D01*
X0102868Y0270312D01*
X0102868Y0267554D01*
X0103582Y0264890D01*
X0104961Y0262502D01*
X0106911Y0260552D01*
X0109299Y0259173D01*
X0108803Y0259459D02*
X0100942Y0259459D01*
X0100942Y0258261D02*
X0161949Y0258261D01*
X0161880Y0257062D02*
X0119475Y0257062D01*
X0120042Y0255864D02*
X0161880Y0255864D01*
X0161880Y0254665D02*
X0120042Y0254665D01*
X0120042Y0253467D02*
X0161880Y0253467D01*
X0161880Y0252268D02*
X0120042Y0252268D01*
X0120042Y0249871D02*
X0125955Y0249871D01*
X0125880Y0248673D02*
X0120042Y0248673D01*
X0120042Y0247474D02*
X0125880Y0247474D01*
X0129261Y0247474D02*
X0130423Y0247474D01*
X0130423Y0246416D02*
X0130423Y0250978D01*
X0132415Y0250978D01*
X0132822Y0250869D01*
X0133186Y0250658D01*
X0133484Y0250360D01*
X0133695Y0249996D01*
X0133804Y0249589D01*
X0133804Y0246416D01*
X0130423Y0246416D01*
X0130423Y0246276D02*
X0144170Y0246276D01*
X0144109Y0246215D02*
X0143898Y0245850D01*
X0143789Y0245443D01*
X0143789Y0243273D01*
X0147742Y0243273D01*
X0147742Y0246832D01*
X0145178Y0246832D01*
X0144771Y0246723D01*
X0144407Y0246513D01*
X0144109Y0246215D01*
X0143789Y0245077D02*
X0133804Y0245077D01*
X0133804Y0243879D02*
X0143789Y0243879D01*
X0143789Y0241481D02*
X0133584Y0241481D01*
X0133804Y0242680D02*
X0147742Y0242680D01*
X0147742Y0243879D02*
X0148942Y0243879D01*
X0148942Y0245077D02*
X0147742Y0245077D01*
X0147742Y0246276D02*
X0148942Y0246276D01*
X0152142Y0247474D02*
X0133804Y0247474D01*
X0133804Y0248673D02*
X0152400Y0248673D01*
X0153592Y0249871D02*
X0133728Y0249871D01*
X0130423Y0249871D02*
X0129261Y0249871D01*
X0129261Y0248673D02*
X0130423Y0248673D01*
X0129261Y0246276D02*
X0119949Y0246276D01*
X0120269Y0240283D02*
X0143789Y0240283D01*
X0143127Y0239084D02*
X0134371Y0239084D01*
X0134804Y0237886D02*
X0142789Y0237886D01*
X0142789Y0236687D02*
X0134804Y0236687D01*
X0134804Y0235489D02*
X0142789Y0235489D01*
X0142789Y0234290D02*
X0134804Y0234290D01*
X0134804Y0233092D02*
X0142789Y0233092D01*
X0142882Y0231893D02*
X0134804Y0231893D01*
X0134804Y0230695D02*
X0143651Y0230695D01*
X0144542Y0229496D02*
X0134607Y0229496D01*
X0133691Y0228298D02*
X0144542Y0228298D01*
X0138634Y0227099D02*
X0133642Y0227099D01*
X0133642Y0225901D02*
X0137544Y0225901D01*
X0137047Y0224702D02*
X0133642Y0224702D01*
X0133642Y0223504D02*
X0137042Y0223504D01*
X0137042Y0222305D02*
X0133642Y0222305D01*
X0133642Y0221107D02*
X0137042Y0221107D01*
X0137042Y0219908D02*
X0133642Y0219908D01*
X0133642Y0218710D02*
X0137042Y0218710D01*
X0141803Y0209122D02*
X0156724Y0209122D01*
X0156002Y0210320D02*
X0143729Y0210320D01*
X0147742Y0211519D02*
X0148942Y0211519D01*
X0148942Y0211034D02*
X0151505Y0211034D01*
X0151912Y0211143D01*
X0152277Y0211354D01*
X0152575Y0211651D01*
X0152786Y0212016D01*
X0152895Y0212423D01*
X0152895Y0214593D01*
X0148942Y0214593D01*
X0148942Y0211034D01*
X0148942Y0212717D02*
X0147742Y0212717D01*
X0147742Y0213916D02*
X0148942Y0213916D01*
X0148942Y0215114D02*
X0155943Y0215114D01*
X0155943Y0213916D02*
X0152895Y0213916D01*
X0152895Y0212717D02*
X0155943Y0212717D01*
X0155943Y0211519D02*
X0152442Y0211519D01*
X0152895Y0216313D02*
X0155943Y0216313D01*
X0155987Y0217511D02*
X0152895Y0217511D01*
X0153367Y0199534D02*
X0193899Y0199534D01*
X0193899Y0198335D02*
X0154565Y0198335D01*
X0155764Y0197137D02*
X0193899Y0197137D01*
X0193899Y0195938D02*
X0156817Y0195938D01*
X0157313Y0194740D02*
X0193899Y0194740D01*
X0193899Y0193541D02*
X0157320Y0193541D01*
X0156989Y0192343D02*
X0171178Y0192343D01*
X0169952Y0191144D02*
X0156178Y0191144D01*
X0175506Y0192343D02*
X0193899Y0192343D01*
X0193899Y0191144D02*
X0176732Y0191144D01*
X0177228Y0189945D02*
X0193899Y0189945D01*
X0193899Y0188747D02*
X0177654Y0188747D01*
X0178852Y0187548D02*
X0194337Y0187548D01*
X0195299Y0186350D02*
X0180051Y0186350D01*
X0181249Y0185151D02*
X0197077Y0185151D01*
X0199607Y0185151D02*
X0218655Y0185151D01*
X0218655Y0183953D02*
X0182448Y0183953D01*
X0183646Y0182754D02*
X0218655Y0182754D01*
X0218655Y0181556D02*
X0184845Y0181556D01*
X0186043Y0180357D02*
X0219185Y0180357D01*
X0216139Y0176762D02*
X0227708Y0176762D01*
X0227317Y0177960D02*
X0188440Y0177960D01*
X0189639Y0176762D02*
X0210545Y0176762D01*
X0209711Y0175563D02*
X0190837Y0175563D01*
X0192036Y0174365D02*
X0209364Y0174365D01*
X0209364Y0173166D02*
X0193234Y0173166D01*
X0194433Y0171968D02*
X0209850Y0171968D01*
X0210880Y0170769D02*
X0195631Y0170769D01*
X0196830Y0169571D02*
X0212078Y0169571D01*
X0213277Y0168372D02*
X0198028Y0168372D01*
X0199227Y0167174D02*
X0214475Y0167174D01*
X0215674Y0165975D02*
X0200425Y0165975D01*
X0201624Y0164777D02*
X0216872Y0164777D01*
X0218071Y0163578D02*
X0202822Y0163578D01*
X0217337Y0175563D02*
X0239954Y0175563D01*
X0239954Y0174365D02*
X0218536Y0174365D01*
X0219734Y0173166D02*
X0239993Y0173166D01*
X0240517Y0171968D02*
X0220933Y0171968D01*
X0222131Y0170769D02*
X0241715Y0170769D01*
X0242914Y0169571D02*
X0223330Y0169571D01*
X0224528Y0168372D02*
X0244112Y0168372D01*
X0245311Y0167174D02*
X0226227Y0167174D01*
X0227302Y0165975D02*
X0246631Y0165975D01*
X0249745Y0172320D02*
X0246729Y0175336D01*
X0246729Y0179066D01*
X0247456Y0179367D01*
X0248188Y0180098D01*
X0248584Y0181054D01*
X0248584Y0186812D01*
X0248188Y0187768D01*
X0247456Y0188499D01*
X0246501Y0188895D01*
X0245828Y0188895D01*
X0245828Y0190508D01*
X0245312Y0191753D01*
X0242441Y0194624D01*
X0243868Y0194033D01*
X0249451Y0194033D01*
X0255589Y0187895D01*
X0254824Y0187895D01*
X0254824Y0184514D01*
X0253662Y0184514D01*
X0253662Y0183352D01*
X0249100Y0183352D01*
X0249100Y0181360D01*
X0249209Y0180953D01*
X0249420Y0180588D01*
X0249718Y0180291D01*
X0250082Y0180080D01*
X0250489Y0179971D01*
X0253662Y0179971D01*
X0253662Y0183352D01*
X0254824Y0183352D01*
X0254824Y0179971D01*
X0257997Y0179971D01*
X0258404Y0180080D01*
X0258769Y0180291D01*
X0259067Y0180588D01*
X0259278Y0180953D01*
X0259387Y0181360D01*
X0259387Y0183352D01*
X0254825Y0183352D01*
X0254825Y0184514D01*
X0259387Y0184514D01*
X0259387Y0186506D01*
X0259279Y0186908D01*
X0261336Y0186908D01*
X0261297Y0186812D01*
X0261297Y0181054D01*
X0261693Y0180098D01*
X0262424Y0179367D01*
X0263380Y0178971D01*
X0264364Y0178971D01*
X0264364Y0173142D01*
X0264704Y0172320D01*
X0249745Y0172320D01*
X0248899Y0173166D02*
X0264364Y0173166D01*
X0264364Y0174365D02*
X0247701Y0174365D01*
X0246729Y0175563D02*
X0264364Y0175563D01*
X0264364Y0176762D02*
X0246729Y0176762D01*
X0246729Y0177960D02*
X0264364Y0177960D01*
X0262926Y0179159D02*
X0246955Y0179159D01*
X0248295Y0180357D02*
X0249651Y0180357D01*
X0249100Y0181556D02*
X0248584Y0181556D01*
X0248584Y0182754D02*
X0249100Y0182754D01*
X0248584Y0183953D02*
X0253662Y0183953D01*
X0253662Y0184514D02*
X0249100Y0184514D01*
X0249100Y0186506D01*
X0249209Y0186913D01*
X0249420Y0187278D01*
X0249718Y0187576D01*
X0250082Y0187786D01*
X0250489Y0187895D01*
X0253662Y0187895D01*
X0253662Y0184514D01*
X0253662Y0185151D02*
X0254824Y0185151D01*
X0254825Y0183953D02*
X0261297Y0183953D01*
X0261297Y0185151D02*
X0259387Y0185151D01*
X0259387Y0186350D02*
X0261297Y0186350D01*
X0261297Y0182754D02*
X0259387Y0182754D01*
X0259387Y0181556D02*
X0261297Y0181556D01*
X0261585Y0180357D02*
X0258836Y0180357D01*
X0254824Y0180357D02*
X0253662Y0180357D01*
X0253662Y0181556D02*
X0254824Y0181556D01*
X0254824Y0182754D02*
X0253662Y0182754D01*
X0253662Y0186350D02*
X0254824Y0186350D01*
X0254824Y0187548D02*
X0253662Y0187548D01*
X0254737Y0188747D02*
X0246859Y0188747D01*
X0245828Y0189945D02*
X0253539Y0189945D01*
X0252340Y0191144D02*
X0245564Y0191144D01*
X0244723Y0192343D02*
X0251142Y0192343D01*
X0249943Y0193541D02*
X0243524Y0193541D01*
X0248279Y0187548D02*
X0249691Y0187548D01*
X0249100Y0186350D02*
X0248584Y0186350D01*
X0248584Y0185151D02*
X0249100Y0185151D01*
X0239954Y0176762D02*
X0237637Y0176762D01*
X0227317Y0179159D02*
X0187242Y0179159D01*
X0201384Y0186350D02*
X0218655Y0186350D01*
X0219225Y0187548D02*
X0202074Y0187548D01*
X0202320Y0188747D02*
X0220811Y0188747D01*
X0220811Y0189945D02*
X0202228Y0189945D01*
X0201855Y0191144D02*
X0220811Y0191144D01*
X0220811Y0192343D02*
X0216767Y0192343D01*
X0216709Y0192242D02*
X0216919Y0192607D01*
X0217028Y0193014D01*
X0217028Y0194809D01*
X0213057Y0194809D01*
X0213057Y0191624D01*
X0215639Y0191624D01*
X0216046Y0191733D01*
X0216411Y0191944D01*
X0216709Y0192242D01*
X0217028Y0193541D02*
X0220811Y0193541D01*
X0219833Y0194740D02*
X0217028Y0194740D01*
X0217028Y0195938D02*
X0218866Y0195938D01*
X0218655Y0197137D02*
X0217028Y0197137D01*
X0216517Y0198335D02*
X0218655Y0198335D01*
X0220271Y0202673D02*
X0212673Y0202673D01*
X0220271Y0202673D02*
X0224011Y0198933D01*
X0224011Y0213933D01*
X0220738Y0218502D02*
X0220387Y0218356D01*
X0220387Y0221812D01*
X0219991Y0222768D01*
X0219259Y0223499D01*
X0218304Y0223895D01*
X0210183Y0223895D01*
X0209227Y0223499D01*
X0208496Y0222768D01*
X0208342Y0222396D01*
X0208188Y0222768D01*
X0208162Y0222794D01*
X0208555Y0223744D01*
X0208633Y0223776D01*
X0209253Y0224396D01*
X0209312Y0224380D01*
X0211482Y0224380D01*
X0211482Y0228333D01*
X0212682Y0228333D01*
X0212682Y0224380D01*
X0214852Y0224380D01*
X0215259Y0224489D01*
X0215623Y0224700D01*
X0215921Y0224998D01*
X0216132Y0225363D01*
X0216241Y0225770D01*
X0216241Y0228333D01*
X0212682Y0228333D01*
X0212682Y0229533D01*
X0216241Y0229533D01*
X0216241Y0232096D01*
X0216132Y0232503D01*
X0215921Y0232868D01*
X0215623Y0233166D01*
X0215259Y0233377D01*
X0214852Y0233486D01*
X0212682Y0233486D01*
X0212682Y0229533D01*
X0211482Y0229533D01*
X0211482Y0233486D01*
X0209312Y0233486D01*
X0209253Y0233470D01*
X0208633Y0234090D01*
X0208580Y0234112D01*
X0208580Y0234964D01*
X0207974Y0236427D01*
X0207745Y0236655D01*
X0208188Y0237098D01*
X0208342Y0237470D01*
X0208496Y0237098D01*
X0209227Y0236367D01*
X0210183Y0235971D01*
X0218304Y0235971D01*
X0218772Y0236165D01*
X0219051Y0235492D01*
X0219782Y0234760D01*
X0220738Y0234365D01*
X0224453Y0234365D01*
X0224453Y0233159D01*
X0225045Y0231730D01*
X0226139Y0230636D01*
X0227568Y0230044D01*
X0229115Y0230044D01*
X0230516Y0230624D01*
X0232521Y0230624D01*
X0230953Y0229057D01*
X0230056Y0228159D01*
X0229570Y0226987D01*
X0229570Y0222242D01*
X0229399Y0222242D01*
X0228444Y0221846D01*
X0227712Y0221115D01*
X0227317Y0220159D01*
X0227317Y0218488D01*
X0227284Y0218502D01*
X0220738Y0218502D01*
X0220387Y0218710D02*
X0227317Y0218710D01*
X0227317Y0219908D02*
X0220387Y0219908D01*
X0220387Y0221107D02*
X0227709Y0221107D01*
X0229570Y0222305D02*
X0220183Y0222305D01*
X0219249Y0223504D02*
X0229570Y0223504D01*
X0229570Y0224702D02*
X0215626Y0224702D01*
X0216241Y0225901D02*
X0229570Y0225901D01*
X0229617Y0227099D02*
X0216241Y0227099D01*
X0216241Y0228298D02*
X0230194Y0228298D01*
X0231393Y0229496D02*
X0212682Y0229496D01*
X0212682Y0228298D02*
X0211482Y0228298D01*
X0211482Y0227099D02*
X0212682Y0227099D01*
X0212682Y0225901D02*
X0211482Y0225901D01*
X0211482Y0224702D02*
X0212682Y0224702D01*
X0209238Y0223504D02*
X0208456Y0223504D01*
X0214243Y0218933D02*
X0214243Y0214835D01*
X0208342Y0208933D01*
X0204011Y0204602D01*
X0204011Y0198933D01*
X0201855Y0193541D02*
X0208317Y0193541D01*
X0208317Y0194740D02*
X0208189Y0194740D01*
X0208578Y0192343D02*
X0201855Y0192343D01*
X0212288Y0192343D02*
X0213057Y0192343D01*
X0213057Y0193541D02*
X0212288Y0193541D01*
X0212288Y0194740D02*
X0213057Y0194740D01*
X0224011Y0198933D02*
X0224011Y0183933D01*
X0231413Y0188933D02*
X0232673Y0187673D01*
X0231413Y0188933D02*
X0228342Y0188933D01*
X0229602Y0202673D02*
X0228342Y0203933D01*
X0229602Y0202673D02*
X0232673Y0202673D01*
X0233932Y0203933D01*
X0240698Y0203933D01*
X0243342Y0206577D01*
X0243342Y0208933D01*
X0248342Y0208933D01*
X0243985Y0208933D01*
X0235157Y0217761D01*
X0232761Y0217761D01*
X0232673Y0217673D01*
X0226080Y0230695D02*
X0216241Y0230695D01*
X0216241Y0231893D02*
X0224977Y0231893D01*
X0224481Y0233092D02*
X0215698Y0233092D01*
X0212682Y0233092D02*
X0211482Y0233092D01*
X0211482Y0231893D02*
X0212682Y0231893D01*
X0212682Y0230695D02*
X0211482Y0230695D01*
X0208580Y0234290D02*
X0224453Y0234290D01*
X0219054Y0235489D02*
X0208362Y0235489D01*
X0208907Y0236687D02*
X0207777Y0236687D01*
X0213793Y0245895D02*
X0207202Y0252487D01*
X0207202Y0254365D01*
X0207284Y0254365D01*
X0208240Y0254760D01*
X0208971Y0255492D01*
X0209007Y0255577D01*
X0212288Y0255577D01*
X0212288Y0254809D01*
X0208317Y0254809D01*
X0208317Y0253014D01*
X0208426Y0252607D01*
X0208636Y0252242D01*
X0208934Y0251944D01*
X0209299Y0251733D01*
X0209706Y0251624D01*
X0212288Y0251624D01*
X0212288Y0254809D01*
X0213057Y0254809D01*
X0213057Y0255577D01*
X0216355Y0255577D01*
X0218655Y0253277D01*
X0218655Y0251447D01*
X0219051Y0250492D01*
X0219782Y0249760D01*
X0220738Y0249365D01*
X0220821Y0249365D01*
X0220821Y0243502D01*
X0220738Y0243502D01*
X0220387Y0243356D01*
X0220387Y0243812D01*
X0219991Y0244768D01*
X0219259Y0245499D01*
X0218304Y0245895D01*
X0213793Y0245895D01*
X0213413Y0246276D02*
X0220821Y0246276D01*
X0220821Y0247474D02*
X0212215Y0247474D01*
X0211016Y0248673D02*
X0220821Y0248673D01*
X0219672Y0249871D02*
X0209817Y0249871D01*
X0208619Y0251070D02*
X0218812Y0251070D01*
X0218655Y0252268D02*
X0216724Y0252268D01*
X0216709Y0252242D02*
X0216919Y0252607D01*
X0217028Y0253014D01*
X0217028Y0254809D01*
X0213057Y0254809D01*
X0213057Y0251624D01*
X0215639Y0251624D01*
X0216046Y0251733D01*
X0216411Y0251944D01*
X0216709Y0252242D01*
X0217028Y0253467D02*
X0218465Y0253467D01*
X0217267Y0254665D02*
X0217028Y0254665D01*
X0213057Y0254665D02*
X0212288Y0254665D01*
X0212288Y0253467D02*
X0213057Y0253467D01*
X0213057Y0252268D02*
X0212288Y0252268D01*
X0208621Y0252268D02*
X0207420Y0252268D01*
X0207202Y0253467D02*
X0208317Y0253467D01*
X0208317Y0254665D02*
X0208010Y0254665D01*
X0219682Y0245077D02*
X0220821Y0245077D01*
X0220821Y0243879D02*
X0220359Y0243879D01*
X0232673Y0242673D02*
X0238342Y0242673D01*
X0241966Y0258045D02*
X0245145Y0261224D01*
X0245631Y0262397D01*
X0245631Y0263971D01*
X0246501Y0263971D01*
X0247456Y0264367D01*
X0248188Y0265098D01*
X0248584Y0266054D01*
X0248584Y0270551D01*
X0248766Y0270733D01*
X0249100Y0270733D01*
X0249100Y0269514D01*
X0253662Y0269514D01*
X0253662Y0268352D01*
X0249100Y0268352D01*
X0249100Y0266360D01*
X0249209Y0265953D01*
X0249420Y0265588D01*
X0249718Y0265291D01*
X0250082Y0265080D01*
X0250489Y0264971D01*
X0253662Y0264971D01*
X0253662Y0268352D01*
X0254824Y0268352D01*
X0254824Y0264971D01*
X0257997Y0264971D01*
X0258404Y0265080D01*
X0258769Y0265291D01*
X0259067Y0265588D01*
X0259278Y0265953D01*
X0259387Y0266360D01*
X0259387Y0268352D01*
X0254825Y0268352D01*
X0254825Y0269514D01*
X0259387Y0269514D01*
X0259387Y0270733D01*
X0267016Y0270733D01*
X0270629Y0267120D01*
X0271529Y0266220D01*
X0272705Y0265733D01*
X0274443Y0265733D01*
X0274443Y0265463D01*
X0274838Y0264508D01*
X0275570Y0263776D01*
X0276525Y0263380D01*
X0282678Y0263380D01*
X0283342Y0263655D01*
X0284006Y0263380D01*
X0290158Y0263380D01*
X0291114Y0263776D01*
X0291845Y0264508D01*
X0291973Y0264817D01*
X0292424Y0264367D01*
X0293380Y0263971D01*
X0301501Y0263971D01*
X0302456Y0264367D01*
X0303188Y0265098D01*
X0303342Y0265470D01*
X0303496Y0265098D01*
X0304227Y0264367D01*
X0305183Y0263971D01*
X0313304Y0263971D01*
X0314259Y0264367D01*
X0314991Y0265098D01*
X0315005Y0265133D01*
X0316768Y0265133D01*
X0330443Y0251457D01*
X0330443Y0248895D01*
X0330183Y0248895D01*
X0329227Y0248499D01*
X0328496Y0247768D01*
X0328100Y0246812D01*
X0328100Y0241054D01*
X0328496Y0240098D01*
X0329227Y0239367D01*
X0330183Y0238971D01*
X0333832Y0238971D01*
X0334542Y0238261D01*
X0334542Y0235597D01*
X0334507Y0235582D01*
X0333775Y0234851D01*
X0333380Y0233895D01*
X0333380Y0225774D01*
X0333775Y0224819D01*
X0334507Y0224087D01*
X0334879Y0223933D01*
X0334507Y0223779D01*
X0333775Y0223048D01*
X0333380Y0222092D01*
X0333380Y0213971D01*
X0333775Y0213015D01*
X0334507Y0212284D01*
X0334542Y0212270D01*
X0334542Y0209605D01*
X0333832Y0208895D01*
X0330183Y0208895D01*
X0329227Y0208499D01*
X0328496Y0207768D01*
X0328100Y0206812D01*
X0328100Y0201054D01*
X0328496Y0200098D01*
X0329227Y0199367D01*
X0330183Y0198971D01*
X0330443Y0198971D01*
X0330443Y0191409D01*
X0326768Y0187733D01*
X0325005Y0187733D01*
X0324991Y0187768D01*
X0324259Y0188499D01*
X0323304Y0188895D01*
X0315183Y0188895D01*
X0314227Y0188499D01*
X0313496Y0187768D01*
X0313342Y0187396D01*
X0313188Y0187768D01*
X0312456Y0188499D01*
X0311501Y0188895D01*
X0303380Y0188895D01*
X0302424Y0188499D01*
X0301973Y0188049D01*
X0301845Y0188359D01*
X0301114Y0189090D01*
X0300158Y0189486D01*
X0294006Y0189486D01*
X0293342Y0189211D01*
X0292678Y0189486D01*
X0286525Y0189486D01*
X0285570Y0189090D01*
X0284838Y0188359D01*
X0284710Y0188049D01*
X0284259Y0188499D01*
X0283304Y0188895D01*
X0280831Y0188895D01*
X0276559Y0193167D01*
X0275314Y0193683D01*
X0259383Y0193683D01*
X0256559Y0196506D01*
X0256644Y0196591D01*
X0257542Y0198759D01*
X0257542Y0201107D01*
X0256644Y0203275D01*
X0255486Y0204433D01*
X0256644Y0205591D01*
X0257542Y0207759D01*
X0257542Y0209633D01*
X0264598Y0209633D01*
X0265994Y0210212D01*
X0267063Y0211281D01*
X0267642Y0212677D01*
X0267642Y0222633D01*
X0304542Y0222633D01*
X0304542Y0199921D01*
X0304453Y0199707D01*
X0304453Y0198159D01*
X0305045Y0196730D01*
X0306139Y0195636D01*
X0307568Y0195044D01*
X0309115Y0195044D01*
X0310545Y0195636D01*
X0311639Y0196730D01*
X0312231Y0198159D01*
X0312231Y0199707D01*
X0312142Y0199921D01*
X0312142Y0227189D01*
X0311563Y0228586D01*
X0310494Y0229655D01*
X0309098Y0230233D01*
X0264916Y0230233D01*
X0262142Y0233007D01*
X0262142Y0249689D01*
X0261563Y0251086D01*
X0260494Y0252155D01*
X0256834Y0255814D01*
X0256644Y0256275D01*
X0254984Y0257935D01*
X0252815Y0258833D01*
X0243868Y0258833D01*
X0241966Y0258045D01*
X0242181Y0258261D02*
X0242486Y0258261D01*
X0243380Y0259459D02*
X0322442Y0259459D01*
X0323640Y0258261D02*
X0254197Y0258261D01*
X0255857Y0257062D02*
X0324839Y0257062D01*
X0326037Y0255864D02*
X0256814Y0255864D01*
X0257984Y0254665D02*
X0327236Y0254665D01*
X0328434Y0253467D02*
X0259182Y0253467D01*
X0260381Y0252268D02*
X0284685Y0252268D01*
X0283187Y0251648D02*
X0280627Y0249088D01*
X0279242Y0245743D01*
X0279242Y0242123D01*
X0280627Y0238778D01*
X0283187Y0236218D01*
X0286532Y0234833D01*
X0290152Y0234833D01*
X0293497Y0236218D01*
X0296056Y0238778D01*
X0297442Y0242123D01*
X0297442Y0245743D01*
X0296056Y0249088D01*
X0293497Y0251648D01*
X0290152Y0253033D01*
X0286532Y0253033D01*
X0283187Y0251648D01*
X0282609Y0251070D02*
X0261570Y0251070D01*
X0262066Y0249871D02*
X0281410Y0249871D01*
X0280455Y0248673D02*
X0262142Y0248673D01*
X0262142Y0247474D02*
X0279959Y0247474D01*
X0279462Y0246276D02*
X0262142Y0246276D01*
X0262142Y0245077D02*
X0279242Y0245077D01*
X0279242Y0243879D02*
X0262142Y0243879D01*
X0262142Y0242680D02*
X0279242Y0242680D01*
X0279508Y0241481D02*
X0262142Y0241481D01*
X0262142Y0240283D02*
X0280004Y0240283D01*
X0280500Y0239084D02*
X0262142Y0239084D01*
X0262142Y0237886D02*
X0281520Y0237886D01*
X0282718Y0236687D02*
X0262142Y0236687D01*
X0262142Y0235489D02*
X0284948Y0235489D01*
X0291735Y0235489D02*
X0334414Y0235489D01*
X0334542Y0236687D02*
X0293966Y0236687D01*
X0295164Y0237886D02*
X0334542Y0237886D01*
X0333543Y0234290D02*
X0262142Y0234290D01*
X0262142Y0233092D02*
X0333380Y0233092D01*
X0333380Y0231893D02*
X0263255Y0231893D01*
X0264454Y0230695D02*
X0333380Y0230695D01*
X0333380Y0229496D02*
X0310652Y0229496D01*
X0311682Y0228298D02*
X0333380Y0228298D01*
X0333380Y0227099D02*
X0312142Y0227099D01*
X0312142Y0225901D02*
X0333380Y0225901D01*
X0333892Y0224702D02*
X0312142Y0224702D01*
X0312142Y0223504D02*
X0334232Y0223504D01*
X0333468Y0222305D02*
X0312142Y0222305D01*
X0312142Y0221107D02*
X0333380Y0221107D01*
X0333380Y0219908D02*
X0312142Y0219908D01*
X0312142Y0218710D02*
X0333380Y0218710D01*
X0333380Y0217511D02*
X0312142Y0217511D01*
X0312142Y0216313D02*
X0333380Y0216313D01*
X0333380Y0215114D02*
X0312142Y0215114D01*
X0312142Y0213916D02*
X0333402Y0213916D01*
X0334074Y0212717D02*
X0312142Y0212717D01*
X0312142Y0211519D02*
X0334542Y0211519D01*
X0334542Y0210320D02*
X0312142Y0210320D01*
X0312142Y0209122D02*
X0334058Y0209122D01*
X0328651Y0207923D02*
X0312142Y0207923D01*
X0312142Y0206725D02*
X0317356Y0206725D01*
X0317406Y0206913D02*
X0317297Y0206506D01*
X0317297Y0204514D01*
X0321859Y0204514D01*
X0321859Y0203352D01*
X0317297Y0203352D01*
X0317297Y0201360D01*
X0317406Y0200953D01*
X0317617Y0200588D01*
X0317914Y0200291D01*
X0318279Y0200080D01*
X0318686Y0199971D01*
X0321859Y0199971D01*
X0321859Y0203352D01*
X0323021Y0203352D01*
X0323021Y0199971D01*
X0326194Y0199971D01*
X0326601Y0200080D01*
X0326966Y0200291D01*
X0327264Y0200588D01*
X0327474Y0200953D01*
X0327584Y0201360D01*
X0327584Y0203352D01*
X0323021Y0203352D01*
X0323021Y0204514D01*
X0321859Y0204514D01*
X0321859Y0207895D01*
X0318686Y0207895D01*
X0318279Y0207786D01*
X0317914Y0207576D01*
X0317617Y0207278D01*
X0317406Y0206913D01*
X0317297Y0205526D02*
X0312142Y0205526D01*
X0312142Y0204328D02*
X0321859Y0204328D01*
X0323021Y0204328D02*
X0328100Y0204328D01*
X0327584Y0204514D02*
X0327584Y0206506D01*
X0327474Y0206913D01*
X0327264Y0207278D01*
X0326966Y0207576D01*
X0326601Y0207786D01*
X0326194Y0207895D01*
X0323021Y0207895D01*
X0323021Y0204514D01*
X0327584Y0204514D01*
X0327584Y0205526D02*
X0328100Y0205526D01*
X0328100Y0206725D02*
X0327525Y0206725D01*
X0327584Y0203129D02*
X0328100Y0203129D01*
X0328100Y0201931D02*
X0327584Y0201931D01*
X0327347Y0200732D02*
X0328233Y0200732D01*
X0329060Y0199534D02*
X0312231Y0199534D01*
X0312231Y0198335D02*
X0330443Y0198335D01*
X0330443Y0197137D02*
X0311807Y0197137D01*
X0310847Y0195938D02*
X0330443Y0195938D01*
X0330443Y0194740D02*
X0258326Y0194740D01*
X0257127Y0195938D02*
X0305837Y0195938D01*
X0304877Y0197137D02*
X0256870Y0197137D01*
X0257366Y0198335D02*
X0304453Y0198335D01*
X0304453Y0199534D02*
X0257542Y0199534D01*
X0257542Y0200732D02*
X0284361Y0200732D01*
X0283187Y0201218D02*
X0286532Y0199833D01*
X0290152Y0199833D01*
X0293497Y0201218D01*
X0296056Y0203778D01*
X0297442Y0207123D01*
X0297442Y0210743D01*
X0296056Y0214088D01*
X0293497Y0216648D01*
X0290152Y0218033D01*
X0286532Y0218033D01*
X0283187Y0216648D01*
X0280627Y0214088D01*
X0279242Y0210743D01*
X0279242Y0207123D01*
X0280627Y0203778D01*
X0283187Y0201218D01*
X0282475Y0201931D02*
X0257201Y0201931D01*
X0256704Y0203129D02*
X0281276Y0203129D01*
X0280400Y0204328D02*
X0255591Y0204328D01*
X0256579Y0205526D02*
X0279903Y0205526D01*
X0279407Y0206725D02*
X0257113Y0206725D01*
X0257542Y0207923D02*
X0279242Y0207923D01*
X0279242Y0209122D02*
X0257542Y0209122D01*
X0266103Y0210320D02*
X0279242Y0210320D01*
X0279563Y0211519D02*
X0267162Y0211519D01*
X0267642Y0212717D02*
X0280059Y0212717D01*
X0280556Y0213916D02*
X0267642Y0213916D01*
X0267642Y0215114D02*
X0281654Y0215114D01*
X0282852Y0216313D02*
X0267642Y0216313D01*
X0267642Y0217511D02*
X0285272Y0217511D01*
X0291412Y0217511D02*
X0304542Y0217511D01*
X0304542Y0216313D02*
X0293831Y0216313D01*
X0295030Y0215114D02*
X0304542Y0215114D01*
X0304542Y0213916D02*
X0296128Y0213916D01*
X0296624Y0212717D02*
X0304542Y0212717D01*
X0304542Y0211519D02*
X0297121Y0211519D01*
X0297442Y0210320D02*
X0304542Y0210320D01*
X0304542Y0209122D02*
X0297442Y0209122D01*
X0297442Y0207923D02*
X0304542Y0207923D01*
X0304542Y0206725D02*
X0297277Y0206725D01*
X0296780Y0205526D02*
X0304542Y0205526D01*
X0304542Y0204328D02*
X0296284Y0204328D01*
X0295407Y0203129D02*
X0304542Y0203129D01*
X0304542Y0201931D02*
X0294209Y0201931D01*
X0292322Y0200732D02*
X0304542Y0200732D01*
X0312142Y0200732D02*
X0317534Y0200732D01*
X0317297Y0201931D02*
X0312142Y0201931D01*
X0312142Y0203129D02*
X0317297Y0203129D01*
X0321859Y0203129D02*
X0323021Y0203129D01*
X0323021Y0201931D02*
X0321859Y0201931D01*
X0321859Y0200732D02*
X0323021Y0200732D01*
X0323021Y0205526D02*
X0321859Y0205526D01*
X0321859Y0206725D02*
X0323021Y0206725D01*
X0330443Y0193541D02*
X0275656Y0193541D01*
X0277384Y0192343D02*
X0330443Y0192343D01*
X0330179Y0191144D02*
X0278582Y0191144D01*
X0279781Y0189945D02*
X0328980Y0189945D01*
X0327782Y0188747D02*
X0323662Y0188747D01*
X0314825Y0188747D02*
X0311859Y0188747D01*
X0313279Y0187548D02*
X0313405Y0187548D01*
X0303022Y0188747D02*
X0301457Y0188747D01*
X0301497Y0179159D02*
X0302926Y0179159D01*
X0305716Y0176762D02*
X0292221Y0176762D01*
X0291520Y0176061D02*
X0291520Y0176061D01*
X0291022Y0175563D02*
X0304515Y0175563D01*
X0304018Y0174365D02*
X0289824Y0174365D01*
X0288625Y0173166D02*
X0303953Y0173166D01*
X0304042Y0171968D02*
X0287427Y0171968D01*
X0286228Y0170769D02*
X0304042Y0170769D01*
X0303606Y0169571D02*
X0285030Y0169571D01*
X0283831Y0168372D02*
X0302407Y0168372D01*
X0301209Y0167174D02*
X0282633Y0167174D01*
X0282473Y0167014D02*
X0282473Y0167014D01*
X0281313Y0165975D02*
X0300010Y0165975D01*
X0298811Y0164777D02*
X0227798Y0164777D01*
X0268936Y0163578D02*
X0297613Y0163578D01*
X0296414Y0162380D02*
X0270521Y0162380D01*
X0271716Y0161181D02*
X0295216Y0161181D01*
X0294663Y0159983D02*
X0272213Y0159983D01*
X0272320Y0158784D02*
X0294542Y0158784D01*
X0302368Y0157586D02*
X0316994Y0157586D01*
X0315796Y0156387D02*
X0302142Y0156387D01*
X0302142Y0155189D02*
X0314597Y0155189D01*
X0313399Y0153990D02*
X0302142Y0153990D01*
X0302142Y0152792D02*
X0312200Y0152792D01*
X0311002Y0151593D02*
X0302142Y0151593D01*
X0302142Y0150395D02*
X0309803Y0150395D01*
X0308605Y0149196D02*
X0302142Y0149196D01*
X0303567Y0158784D02*
X0318193Y0158784D01*
X0319391Y0159983D02*
X0304765Y0159983D01*
X0305964Y0161181D02*
X0320590Y0161181D01*
X0321788Y0162380D02*
X0307162Y0162380D01*
X0308361Y0163578D02*
X0322987Y0163578D01*
X0324185Y0164777D02*
X0309559Y0164777D01*
X0310758Y0165975D02*
X0325384Y0165975D01*
X0326583Y0167174D02*
X0311433Y0167174D01*
X0311642Y0168372D02*
X0327781Y0168372D01*
X0328980Y0169571D02*
X0311642Y0169571D01*
X0311642Y0170769D02*
X0330178Y0170769D01*
X0331377Y0171968D02*
X0311642Y0171968D01*
X0311731Y0173166D02*
X0332575Y0173166D01*
X0329639Y0180357D02*
X0428342Y0180357D01*
X0428342Y0179159D02*
X0323758Y0179159D01*
X0331339Y0181556D02*
X0428342Y0181556D01*
X0428342Y0182754D02*
X0332537Y0182754D01*
X0333736Y0183953D02*
X0428342Y0183953D01*
X0428342Y0185151D02*
X0389607Y0185151D01*
X0391384Y0186350D02*
X0428342Y0186350D01*
X0428342Y0187548D02*
X0392583Y0187548D01*
X0393781Y0188747D02*
X0428342Y0188747D01*
X0428342Y0189945D02*
X0394980Y0189945D01*
X0396178Y0191144D02*
X0428342Y0191144D01*
X0428342Y0192343D02*
X0396989Y0192343D01*
X0397320Y0193541D02*
X0428342Y0193541D01*
X0428342Y0194740D02*
X0397313Y0194740D01*
X0397150Y0202733D02*
X0397320Y0203142D01*
X0397320Y0209291D01*
X0396714Y0210753D01*
X0395595Y0211872D01*
X0391021Y0216447D01*
X0391021Y0226931D01*
X0390625Y0227886D01*
X0389893Y0228618D01*
X0388938Y0229013D01*
X0386887Y0229013D01*
X0386887Y0230133D01*
X0404532Y0230133D01*
X0406073Y0228592D01*
X0406687Y0228338D01*
X0406189Y0227976D01*
X0405599Y0227386D01*
X0405109Y0226711D01*
X0404730Y0225968D01*
X0404472Y0225174D01*
X0404355Y0224433D01*
X0412842Y0224433D01*
X0412842Y0223433D01*
X0413842Y0223433D01*
X0413842Y0218633D01*
X0413842Y0214433D01*
X0412842Y0214433D01*
X0412842Y0223433D01*
X0404355Y0223433D01*
X0404472Y0222692D01*
X0404730Y0221899D01*
X0405109Y0221155D01*
X0405599Y0220480D01*
X0406189Y0219890D01*
X0406864Y0219400D01*
X0407607Y0219021D01*
X0407879Y0218933D01*
X0407607Y0218845D01*
X0406864Y0218466D01*
X0406189Y0217976D01*
X0405599Y0217386D01*
X0405109Y0216711D01*
X0404730Y0215968D01*
X0404472Y0215174D01*
X0404355Y0214433D01*
X0412842Y0214433D01*
X0412842Y0213433D01*
X0404355Y0213433D01*
X0404472Y0212692D01*
X0404730Y0211899D01*
X0405109Y0211155D01*
X0405599Y0210480D01*
X0406189Y0209890D01*
X0406687Y0209528D01*
X0406073Y0209274D01*
X0404301Y0207502D01*
X0403342Y0205186D01*
X0403342Y0202733D01*
X0397150Y0202733D01*
X0397314Y0203129D02*
X0403342Y0203129D01*
X0403342Y0204328D02*
X0397320Y0204328D01*
X0397320Y0205526D02*
X0403483Y0205526D01*
X0403979Y0206725D02*
X0397320Y0206725D01*
X0397320Y0207923D02*
X0404722Y0207923D01*
X0405921Y0209122D02*
X0397320Y0209122D01*
X0396894Y0210320D02*
X0405759Y0210320D01*
X0404924Y0211519D02*
X0395949Y0211519D01*
X0394750Y0212717D02*
X0404468Y0212717D01*
X0404463Y0215114D02*
X0392353Y0215114D01*
X0393552Y0213916D02*
X0412842Y0213916D01*
X0413842Y0213916D02*
X0428342Y0213916D01*
X0428342Y0215114D02*
X0422221Y0215114D01*
X0421778Y0216313D02*
X0428342Y0216313D01*
X0428342Y0217511D02*
X0420959Y0217511D01*
X0419341Y0218710D02*
X0428342Y0218710D01*
X0428342Y0219908D02*
X0420512Y0219908D01*
X0421540Y0221107D02*
X0428342Y0221107D01*
X0428342Y0222305D02*
X0422086Y0222305D01*
X0422286Y0224702D02*
X0428342Y0224702D01*
X0428342Y0223504D02*
X0413842Y0223504D01*
X0412842Y0223504D02*
X0391021Y0223504D01*
X0391021Y0224702D02*
X0404398Y0224702D01*
X0404708Y0225901D02*
X0391021Y0225901D01*
X0390951Y0227099D02*
X0405391Y0227099D01*
X0406633Y0228298D02*
X0390213Y0228298D01*
X0386887Y0229496D02*
X0405169Y0229496D01*
X0404598Y0222305D02*
X0391021Y0222305D01*
X0391021Y0221107D02*
X0405144Y0221107D01*
X0406171Y0219908D02*
X0391021Y0219908D01*
X0391021Y0218710D02*
X0407342Y0218710D01*
X0405725Y0217511D02*
X0391021Y0217511D01*
X0391155Y0216313D02*
X0404906Y0216313D01*
X0412842Y0216313D02*
X0413842Y0216313D01*
X0413842Y0217511D02*
X0412842Y0217511D01*
X0412842Y0218710D02*
X0413842Y0218710D01*
X0413842Y0219908D02*
X0412842Y0219908D01*
X0412842Y0221107D02*
X0413842Y0221107D01*
X0413842Y0222305D02*
X0412842Y0222305D01*
X0412842Y0215114D02*
X0413842Y0215114D01*
X0420924Y0210320D02*
X0428342Y0210320D01*
X0428342Y0209122D02*
X0420763Y0209122D01*
X0421961Y0207923D02*
X0428342Y0207923D01*
X0428342Y0206725D02*
X0422705Y0206725D01*
X0423201Y0205526D02*
X0428342Y0205526D01*
X0428342Y0204328D02*
X0423342Y0204328D01*
X0423342Y0203129D02*
X0428342Y0203129D01*
X0428342Y0201931D02*
X0423031Y0201931D01*
X0422535Y0200732D02*
X0428342Y0200732D01*
X0428342Y0199534D02*
X0421552Y0199534D01*
X0419990Y0198335D02*
X0428342Y0198335D01*
X0428342Y0197137D02*
X0411919Y0197137D01*
X0410721Y0195938D02*
X0428342Y0195938D01*
X0428342Y0211519D02*
X0421760Y0211519D01*
X0422215Y0212717D02*
X0428342Y0212717D01*
X0428342Y0225901D02*
X0421975Y0225901D01*
X0421293Y0227099D02*
X0428342Y0227099D01*
X0428342Y0228298D02*
X0420051Y0228298D01*
X0421515Y0229496D02*
X0428342Y0229496D01*
X0428342Y0230695D02*
X0422520Y0230695D01*
X0423016Y0231893D02*
X0428342Y0231893D01*
X0428342Y0233092D02*
X0423342Y0233092D01*
X0423342Y0234290D02*
X0428342Y0234290D01*
X0428342Y0235489D02*
X0423216Y0235489D01*
X0422720Y0236687D02*
X0428342Y0236687D01*
X0428342Y0237886D02*
X0421998Y0237886D01*
X0420800Y0239084D02*
X0428342Y0239084D01*
X0428342Y0240283D02*
X0390750Y0240283D01*
X0391021Y0241481D02*
X0428342Y0241481D01*
X0428342Y0242680D02*
X0391021Y0242680D01*
X0391021Y0243879D02*
X0428342Y0243879D01*
X0428342Y0245077D02*
X0391021Y0245077D01*
X0391021Y0246276D02*
X0428342Y0246276D01*
X0428342Y0247474D02*
X0391021Y0247474D01*
X0391021Y0248673D02*
X0428342Y0248673D01*
X0428342Y0249871D02*
X0391021Y0249871D01*
X0391021Y0251070D02*
X0428342Y0251070D01*
X0428342Y0252268D02*
X0391021Y0252268D01*
X0391021Y0253467D02*
X0428342Y0253467D01*
X0428342Y0254665D02*
X0391021Y0254665D01*
X0391021Y0255864D02*
X0428342Y0255864D01*
X0428342Y0257062D02*
X0390966Y0257062D01*
X0390250Y0258261D02*
X0428342Y0258261D01*
X0428342Y0259459D02*
X0422881Y0259459D01*
X0424879Y0260658D02*
X0428342Y0260658D01*
X0428342Y0261856D02*
X0426077Y0261856D01*
X0427042Y0263055D02*
X0428342Y0263055D01*
X0428342Y0264253D02*
X0427734Y0264253D01*
X0428252Y0265452D02*
X0428342Y0265452D01*
X0428342Y0272643D02*
X0428191Y0272643D01*
X0428342Y0273841D02*
X0427602Y0273841D01*
X0426910Y0275040D02*
X0428342Y0275040D01*
X0428342Y0276238D02*
X0425849Y0276238D01*
X0424561Y0277437D02*
X0428342Y0277437D01*
X0428342Y0278635D02*
X0422485Y0278635D01*
X0428342Y0279834D02*
X0100942Y0279834D01*
X0100942Y0281032D02*
X0428342Y0281032D01*
X0414199Y0278635D02*
X0117485Y0278635D01*
X0119561Y0277437D02*
X0228663Y0277437D01*
X0236682Y0277437D02*
X0412123Y0277437D01*
X0410835Y0276238D02*
X0270562Y0276238D01*
X0271761Y0275040D02*
X0409773Y0275040D01*
X0409081Y0273841D02*
X0313434Y0273841D01*
X0319316Y0272643D02*
X0408492Y0272643D01*
X0408171Y0271444D02*
X0321205Y0271444D01*
X0322403Y0270246D02*
X0407868Y0270246D01*
X0407868Y0269047D02*
X0323602Y0269047D01*
X0324800Y0267849D02*
X0407868Y0267849D01*
X0408110Y0266650D02*
X0325999Y0266650D01*
X0327197Y0265452D02*
X0408431Y0265452D01*
X0408949Y0264253D02*
X0328396Y0264253D01*
X0329594Y0263055D02*
X0409641Y0263055D01*
X0410606Y0261856D02*
X0330793Y0261856D01*
X0331991Y0260658D02*
X0411805Y0260658D01*
X0413803Y0259459D02*
X0333190Y0259459D01*
X0334388Y0258261D02*
X0346433Y0258261D01*
X0345718Y0257062D02*
X0335587Y0257062D01*
X0336785Y0255864D02*
X0345663Y0255864D01*
X0345663Y0254665D02*
X0337680Y0254665D01*
X0338043Y0253467D02*
X0345663Y0253467D01*
X0345663Y0245077D02*
X0340761Y0245077D01*
X0340387Y0243879D02*
X0345663Y0243879D01*
X0345663Y0242680D02*
X0340870Y0242680D01*
X0341773Y0241481D02*
X0345663Y0241481D01*
X0345933Y0240283D02*
X0342142Y0240283D01*
X0342142Y0239084D02*
X0347186Y0239084D01*
X0349975Y0237886D02*
X0342142Y0237886D01*
X0342142Y0236687D02*
X0349975Y0236687D01*
X0349975Y0235489D02*
X0342270Y0235489D01*
X0343140Y0234290D02*
X0349975Y0234290D01*
X0349975Y0233092D02*
X0343304Y0233092D01*
X0343304Y0231893D02*
X0349975Y0231893D01*
X0349975Y0230695D02*
X0343304Y0230695D01*
X0343304Y0229496D02*
X0349975Y0229496D01*
X0346471Y0228298D02*
X0343304Y0228298D01*
X0343304Y0227099D02*
X0345733Y0227099D01*
X0345663Y0225901D02*
X0343304Y0225901D01*
X0342792Y0224702D02*
X0345663Y0224702D01*
X0345663Y0223504D02*
X0342452Y0223504D01*
X0343216Y0222305D02*
X0345663Y0222305D01*
X0345663Y0221107D02*
X0343304Y0221107D01*
X0343304Y0219908D02*
X0345663Y0219908D01*
X0345663Y0218710D02*
X0343304Y0218710D01*
X0343304Y0217511D02*
X0345663Y0217511D01*
X0345663Y0216313D02*
X0343304Y0216313D01*
X0343304Y0215114D02*
X0345663Y0215114D01*
X0345663Y0213916D02*
X0343281Y0213916D01*
X0342610Y0212717D02*
X0345663Y0212717D01*
X0345663Y0211519D02*
X0342142Y0211519D01*
X0342142Y0210320D02*
X0345918Y0210320D01*
X0347097Y0209122D02*
X0342142Y0209122D01*
X0342142Y0207923D02*
X0349454Y0207923D01*
X0349951Y0206725D02*
X0341914Y0206725D01*
X0341210Y0205526D02*
X0351172Y0205526D01*
X0355512Y0205526D02*
X0389364Y0205526D01*
X0389364Y0204328D02*
X0340387Y0204328D01*
X0340387Y0203129D02*
X0389369Y0203129D01*
X0389364Y0206725D02*
X0356759Y0206725D01*
X0357483Y0207923D02*
X0388293Y0207923D01*
X0376231Y0209122D02*
X0360453Y0209122D01*
X0361632Y0210320D02*
X0375052Y0210320D01*
X0374797Y0211519D02*
X0361887Y0211519D01*
X0361887Y0212717D02*
X0374797Y0212717D01*
X0374797Y0213916D02*
X0361887Y0213916D01*
X0361887Y0215114D02*
X0374797Y0215114D01*
X0374797Y0216313D02*
X0361887Y0216313D01*
X0361887Y0217511D02*
X0374797Y0217511D01*
X0374797Y0218710D02*
X0361887Y0218710D01*
X0361887Y0219908D02*
X0374797Y0219908D01*
X0374797Y0221107D02*
X0361887Y0221107D01*
X0361887Y0222305D02*
X0374797Y0222305D01*
X0374797Y0223504D02*
X0361887Y0223504D01*
X0361887Y0224702D02*
X0374797Y0224702D01*
X0374797Y0225901D02*
X0361887Y0225901D01*
X0361817Y0227099D02*
X0374867Y0227099D01*
X0375604Y0228298D02*
X0361079Y0228298D01*
X0357575Y0229496D02*
X0378931Y0229496D01*
X0378931Y0230695D02*
X0357575Y0230695D01*
X0357575Y0231893D02*
X0378931Y0231893D01*
X0378931Y0233092D02*
X0357575Y0233092D01*
X0357575Y0234290D02*
X0378931Y0234290D01*
X0378931Y0235489D02*
X0357575Y0235489D01*
X0357575Y0236687D02*
X0378931Y0236687D01*
X0378931Y0237886D02*
X0357575Y0237886D01*
X0360363Y0239084D02*
X0376320Y0239084D01*
X0375067Y0240283D02*
X0361616Y0240283D01*
X0361887Y0241481D02*
X0374797Y0241481D01*
X0374797Y0242680D02*
X0361887Y0242680D01*
X0361887Y0243879D02*
X0374797Y0243879D01*
X0374797Y0245077D02*
X0361887Y0245077D01*
X0361887Y0246276D02*
X0374797Y0246276D01*
X0374797Y0247474D02*
X0361887Y0247474D01*
X0361887Y0248673D02*
X0374797Y0248673D01*
X0374797Y0249871D02*
X0361887Y0249871D01*
X0361887Y0251070D02*
X0374797Y0251070D01*
X0374797Y0252268D02*
X0361887Y0252268D01*
X0361887Y0253467D02*
X0374797Y0253467D01*
X0374797Y0254665D02*
X0361887Y0254665D01*
X0361887Y0255864D02*
X0374797Y0255864D01*
X0374851Y0257062D02*
X0361832Y0257062D01*
X0361116Y0258261D02*
X0375567Y0258261D01*
X0386887Y0237886D02*
X0404685Y0237886D01*
X0405884Y0239084D02*
X0389497Y0239084D01*
X0360840Y0201931D02*
X0340387Y0201931D01*
X0340253Y0200732D02*
X0359878Y0200732D01*
X0359453Y0199534D02*
X0339426Y0199534D01*
X0348384Y0198335D02*
X0359453Y0198335D01*
X0359877Y0197137D02*
X0349764Y0197137D01*
X0350962Y0195938D02*
X0360837Y0195938D01*
X0353359Y0193541D02*
X0387324Y0193541D01*
X0388523Y0194740D02*
X0352161Y0194740D01*
X0346902Y0188747D02*
X0337906Y0188747D01*
X0338043Y0189945D02*
X0345704Y0189945D01*
X0348101Y0187548D02*
X0337331Y0187548D01*
X0336133Y0186350D02*
X0349299Y0186350D01*
X0351077Y0185151D02*
X0334934Y0185151D01*
X0314729Y0179159D02*
X0311955Y0179159D01*
X0313295Y0180357D02*
X0313388Y0180357D01*
X0309968Y0176762D02*
X0428342Y0176762D01*
X0428342Y0177960D02*
X0292865Y0177960D01*
X0285227Y0188747D02*
X0283662Y0188747D01*
X0311169Y0175563D02*
X0428342Y0175563D01*
X0428342Y0174365D02*
X0311665Y0174365D01*
X0304542Y0218710D02*
X0267642Y0218710D01*
X0267642Y0219908D02*
X0304542Y0219908D01*
X0304542Y0221107D02*
X0267642Y0221107D01*
X0267642Y0222305D02*
X0304542Y0222305D01*
X0296183Y0239084D02*
X0329909Y0239084D01*
X0328419Y0240283D02*
X0326953Y0240283D01*
X0326966Y0240291D02*
X0327264Y0240588D01*
X0327474Y0240953D01*
X0327584Y0241360D01*
X0327584Y0243352D01*
X0323021Y0243352D01*
X0323021Y0239971D01*
X0326194Y0239971D01*
X0326601Y0240080D01*
X0326966Y0240291D01*
X0327584Y0241481D02*
X0328100Y0241481D01*
X0328100Y0242680D02*
X0327584Y0242680D01*
X0328100Y0243879D02*
X0323021Y0243879D01*
X0323021Y0243352D02*
X0323021Y0244514D01*
X0321859Y0244514D01*
X0321859Y0243352D01*
X0317297Y0243352D01*
X0317297Y0241360D01*
X0317406Y0240953D01*
X0317617Y0240588D01*
X0317914Y0240291D01*
X0318279Y0240080D01*
X0318686Y0239971D01*
X0321859Y0239971D01*
X0321859Y0243352D01*
X0323021Y0243352D01*
X0323021Y0242680D02*
X0321859Y0242680D01*
X0321859Y0241481D02*
X0323021Y0241481D01*
X0323021Y0240283D02*
X0321859Y0240283D01*
X0321859Y0243879D02*
X0297442Y0243879D01*
X0297442Y0245077D02*
X0317297Y0245077D01*
X0317297Y0244514D02*
X0321859Y0244514D01*
X0321859Y0247895D01*
X0318686Y0247895D01*
X0318279Y0247786D01*
X0317914Y0247576D01*
X0317617Y0247278D01*
X0317406Y0246913D01*
X0317297Y0246506D01*
X0317297Y0244514D01*
X0317297Y0246276D02*
X0297221Y0246276D01*
X0296725Y0247474D02*
X0317813Y0247474D01*
X0321859Y0247474D02*
X0323021Y0247474D01*
X0323021Y0247895D02*
X0323021Y0244514D01*
X0327584Y0244514D01*
X0327584Y0246506D01*
X0327474Y0246913D01*
X0327264Y0247278D01*
X0326966Y0247576D01*
X0326601Y0247786D01*
X0326194Y0247895D01*
X0323021Y0247895D01*
X0323021Y0246276D02*
X0321859Y0246276D01*
X0321859Y0245077D02*
X0323021Y0245077D01*
X0327584Y0245077D02*
X0328100Y0245077D01*
X0328100Y0246276D02*
X0327584Y0246276D01*
X0327067Y0247474D02*
X0328374Y0247474D01*
X0329645Y0248673D02*
X0296228Y0248673D01*
X0295273Y0249871D02*
X0330443Y0249871D01*
X0330443Y0251070D02*
X0294075Y0251070D01*
X0291999Y0252268D02*
X0329633Y0252268D01*
X0321243Y0260658D02*
X0244579Y0260658D01*
X0245407Y0261856D02*
X0320045Y0261856D01*
X0318846Y0263055D02*
X0245631Y0263055D01*
X0247182Y0264253D02*
X0275093Y0264253D01*
X0274447Y0265452D02*
X0258930Y0265452D01*
X0259387Y0266650D02*
X0271099Y0266650D01*
X0269901Y0267849D02*
X0259387Y0267849D01*
X0259387Y0270246D02*
X0267504Y0270246D01*
X0268702Y0269047D02*
X0254825Y0269047D01*
X0253662Y0269047D02*
X0248584Y0269047D01*
X0248584Y0267849D02*
X0249100Y0267849D01*
X0249100Y0266650D02*
X0248584Y0266650D01*
X0248334Y0265452D02*
X0249556Y0265452D01*
X0253662Y0265452D02*
X0254824Y0265452D01*
X0254824Y0266650D02*
X0253662Y0266650D01*
X0253662Y0267849D02*
X0254824Y0267849D01*
X0249100Y0270246D02*
X0248584Y0270246D01*
X0247440Y0273933D02*
X0268342Y0273933D01*
X0273342Y0268933D01*
X0279602Y0268933D01*
X0274542Y0272643D02*
X0274158Y0272643D01*
X0275321Y0273841D02*
X0272959Y0273841D01*
X0291362Y0273841D02*
X0293249Y0273841D01*
X0301631Y0273841D02*
X0305053Y0273841D01*
X0303444Y0272643D02*
X0303240Y0272643D01*
X0303334Y0265452D02*
X0303349Y0265452D01*
X0304501Y0264253D02*
X0302182Y0264253D01*
X0292698Y0264253D02*
X0291591Y0264253D01*
X0313985Y0264253D02*
X0317648Y0264253D01*
X0317297Y0242680D02*
X0297442Y0242680D01*
X0297176Y0241481D02*
X0317297Y0241481D01*
X0317928Y0240283D02*
X0296680Y0240283D01*
X0260494Y0252155D02*
X0260494Y0252155D01*
X0242440Y0268933D02*
X0247440Y0273933D01*
X0245220Y0276238D02*
X0237788Y0276238D01*
X0238028Y0275040D02*
X0244021Y0275040D01*
X0238249Y0273841D02*
X0238028Y0273841D01*
X0216135Y0276238D02*
X0120849Y0276238D01*
X0121910Y0275040D02*
X0214936Y0275040D01*
X0213738Y0273841D02*
X0122602Y0273841D01*
X0123191Y0272643D02*
X0212135Y0272643D01*
X0210353Y0271444D02*
X0123512Y0271444D01*
X0123816Y0270246D02*
X0163133Y0270246D01*
X0163199Y0270360D02*
X0162989Y0269996D01*
X0162880Y0269589D01*
X0162880Y0266416D01*
X0166261Y0266416D01*
X0166261Y0270978D01*
X0164269Y0270978D01*
X0163862Y0270869D01*
X0163497Y0270658D01*
X0163199Y0270360D01*
X0162880Y0269047D02*
X0123816Y0269047D01*
X0123816Y0267849D02*
X0162880Y0267849D01*
X0162880Y0266650D02*
X0123574Y0266650D01*
X0123252Y0265452D02*
X0166261Y0265452D01*
X0166261Y0265254D02*
X0162880Y0265254D01*
X0162880Y0262081D01*
X0162989Y0261674D01*
X0163199Y0261309D01*
X0163497Y0261011D01*
X0163862Y0260800D01*
X0164269Y0260691D01*
X0166261Y0260691D01*
X0166261Y0265253D01*
X0167423Y0265253D01*
X0167423Y0260691D01*
X0169415Y0260691D01*
X0169822Y0260800D01*
X0170186Y0261011D01*
X0170484Y0261309D01*
X0170695Y0261674D01*
X0170804Y0262081D01*
X0170804Y0265254D01*
X0167423Y0265254D01*
X0167423Y0266416D01*
X0166261Y0266416D01*
X0166261Y0265254D01*
X0166261Y0264253D02*
X0167423Y0264253D01*
X0167423Y0263055D02*
X0166261Y0263055D01*
X0166261Y0261856D02*
X0167423Y0261856D01*
X0170744Y0261856D02*
X0172440Y0261856D01*
X0172489Y0261674D02*
X0172699Y0261309D01*
X0172997Y0261011D01*
X0173362Y0260800D01*
X0173769Y0260691D01*
X0175761Y0260691D01*
X0175761Y0265253D01*
X0176923Y0265253D01*
X0176923Y0260691D01*
X0178915Y0260691D01*
X0179322Y0260800D01*
X0179686Y0261011D01*
X0179984Y0261309D01*
X0180195Y0261674D01*
X0180304Y0262081D01*
X0180304Y0265254D01*
X0176923Y0265254D01*
X0176923Y0266416D01*
X0175761Y0266416D01*
X0175761Y0270978D01*
X0173769Y0270978D01*
X0173362Y0270869D01*
X0172997Y0270658D01*
X0172699Y0270360D01*
X0172489Y0269996D01*
X0172380Y0269589D01*
X0172380Y0266416D01*
X0175761Y0266416D01*
X0175761Y0265254D01*
X0172380Y0265254D01*
X0172380Y0262081D01*
X0172489Y0261674D01*
X0172380Y0263055D02*
X0170804Y0263055D01*
X0170804Y0264253D02*
X0172380Y0264253D01*
X0172380Y0266650D02*
X0170804Y0266650D01*
X0170804Y0266416D02*
X0170804Y0269589D01*
X0170695Y0269996D01*
X0170484Y0270360D01*
X0170186Y0270658D01*
X0169822Y0270869D01*
X0169415Y0270978D01*
X0167423Y0270978D01*
X0167423Y0266416D01*
X0170804Y0266416D01*
X0170804Y0267849D02*
X0172380Y0267849D01*
X0172380Y0269047D02*
X0170804Y0269047D01*
X0170550Y0270246D02*
X0172633Y0270246D01*
X0175761Y0270246D02*
X0176923Y0270246D01*
X0176923Y0270978D02*
X0176923Y0266416D01*
X0180304Y0266416D01*
X0180304Y0269589D01*
X0180195Y0269996D01*
X0179984Y0270360D01*
X0179686Y0270658D01*
X0179322Y0270869D01*
X0178915Y0270978D01*
X0176923Y0270978D01*
X0176923Y0269047D02*
X0175761Y0269047D01*
X0175761Y0267849D02*
X0176923Y0267849D01*
X0176923Y0266650D02*
X0175761Y0266650D01*
X0175761Y0265452D02*
X0167423Y0265452D01*
X0167423Y0266650D02*
X0166261Y0266650D01*
X0166261Y0267849D02*
X0167423Y0267849D01*
X0167423Y0269047D02*
X0166261Y0269047D01*
X0166261Y0270246D02*
X0167423Y0270246D01*
X0162880Y0264253D02*
X0122734Y0264253D01*
X0122042Y0263055D02*
X0162880Y0263055D01*
X0162940Y0261856D02*
X0121077Y0261856D01*
X0119879Y0260658D02*
X0185789Y0260658D01*
X0185789Y0261856D02*
X0180244Y0261856D01*
X0180304Y0263055D02*
X0185789Y0263055D01*
X0185791Y0264253D02*
X0180304Y0264253D01*
X0180304Y0266650D02*
X0208248Y0266650D01*
X0207438Y0265452D02*
X0196252Y0265452D01*
X0203187Y0264253D02*
X0207317Y0264253D01*
X0209582Y0267849D02*
X0180304Y0267849D01*
X0180304Y0269047D02*
X0209453Y0269047D01*
X0209676Y0270246D02*
X0180050Y0270246D01*
X0176923Y0265452D02*
X0186432Y0265452D01*
X0185789Y0259459D02*
X0180497Y0259459D01*
X0181234Y0258261D02*
X0185789Y0258261D01*
X0176923Y0261856D02*
X0175761Y0261856D01*
X0175761Y0263055D02*
X0176923Y0263055D01*
X0176923Y0264253D02*
X0175761Y0264253D01*
X0172187Y0259459D02*
X0170997Y0259459D01*
X0166842Y0254031D02*
X0165842Y0253031D01*
X0165842Y0243633D01*
X0162687Y0259459D02*
X0117881Y0259459D01*
X0106805Y0260658D02*
X0100942Y0260658D01*
X0100942Y0261856D02*
X0105606Y0261856D01*
X0104641Y0263055D02*
X0100942Y0263055D01*
X0100942Y0264253D02*
X0103949Y0264253D01*
X0103431Y0265452D02*
X0100942Y0265452D01*
X0100942Y0266650D02*
X0103110Y0266650D01*
X0102868Y0267849D02*
X0100942Y0267849D01*
X0100942Y0269047D02*
X0102868Y0269047D01*
X0102868Y0270246D02*
X0100942Y0270246D01*
X0100942Y0271444D02*
X0103171Y0271444D01*
X0103492Y0272643D02*
X0100942Y0272643D01*
X0100942Y0273841D02*
X0104081Y0273841D01*
X0104773Y0275040D02*
X0100942Y0275040D01*
X0100942Y0276238D02*
X0105835Y0276238D01*
X0107123Y0277437D02*
X0100942Y0277437D01*
X0100942Y0278635D02*
X0109199Y0278635D01*
X0129261Y0245077D02*
X0130423Y0245077D01*
X0130423Y0243879D02*
X0129261Y0243879D01*
X0129261Y0242680D02*
X0130423Y0242680D01*
X0130423Y0241481D02*
X0129261Y0241481D01*
X0125312Y0239084D02*
X0120986Y0239084D01*
X0121042Y0237886D02*
X0124880Y0237886D01*
X0109042Y0215114D02*
X0107842Y0215114D01*
X0107842Y0213916D02*
X0109042Y0213916D01*
X0109042Y0212717D02*
X0107842Y0212717D01*
X0107842Y0211519D02*
X0109042Y0211519D01*
D37*
X0143342Y0178933D02*
X0139602Y0175193D01*
X0139602Y0168933D01*
X0143342Y0178933D02*
X0172842Y0178933D01*
X0180842Y0170933D01*
X0180842Y0151933D01*
X0172842Y0143933D01*
X0168342Y0143933D01*
X0163342Y0138933D01*
X0163342Y0134835D01*
X0162440Y0133933D01*
X0162440Y0120736D01*
X0163342Y0119835D01*
X0147082Y0130673D02*
X0144011Y0127602D01*
X0147082Y0130673D02*
X0147082Y0138933D01*
X0338342Y0104681D02*
X0343342Y0109681D01*
X0343342Y0115933D01*
D38*
X0289602Y0178933D02*
X0279602Y0168933D01*
X0248342Y0168933D01*
X0243342Y0173933D01*
X0243342Y0183031D01*
X0242440Y0183933D01*
X0242440Y0189835D01*
X0238342Y0193933D01*
X0236794Y0193933D01*
X0235534Y0195193D01*
X0232673Y0195193D01*
X0242440Y0183933D02*
X0238700Y0180193D01*
X0232673Y0180193D01*
X0248342Y0199933D02*
X0257980Y0190295D01*
X0274640Y0190295D01*
X0279243Y0185692D01*
X0279243Y0183933D01*
X0289602Y0183933D02*
X0289602Y0178933D01*
X0238342Y0208933D02*
X0237082Y0210193D01*
X0232673Y0210193D01*
X0258342Y0218933D02*
X0258342Y0223559D01*
X0248342Y0233559D01*
X0248342Y0234933D01*
X0248342Y0243933D01*
X0224011Y0269433D02*
X0219432Y0269433D01*
X0204011Y0258933D02*
X0201771Y0261173D01*
X0191342Y0261173D01*
X0191003Y0254031D02*
X0176342Y0254031D01*
X0176342Y0249133D01*
X0170842Y0243633D01*
X0165842Y0243633D02*
X0165842Y0238933D01*
X0167842Y0236933D01*
X0177102Y0236933D01*
X0179602Y0239433D01*
X0191342Y0253693D02*
X0191003Y0254031D01*
X0161102Y0213933D02*
X0161102Y0211173D01*
X0168342Y0203933D01*
D39*
X0168582Y0213933D02*
X0168582Y0216693D01*
X0165842Y0219433D01*
X0165842Y0224233D01*
X0155842Y0238933D02*
X0155842Y0243633D01*
X0204011Y0251165D02*
X0204011Y0258933D01*
X0212673Y0262673D02*
X0214951Y0264952D01*
X0214991Y0264952D01*
X0217323Y0267284D01*
X0217323Y0267324D01*
X0219432Y0269433D01*
X0218401Y0273992D02*
X0213342Y0268933D01*
X0218401Y0273992D02*
X0230840Y0273992D01*
X0231659Y0273173D01*
X0232673Y0273173D01*
X0238342Y0268933D02*
X0242440Y0268933D01*
X0242440Y0263031D01*
X0238342Y0258933D01*
X0238342Y0253933D01*
X0234602Y0250193D01*
X0232673Y0250193D01*
X0231413Y0248933D01*
X0228342Y0248933D01*
X0224011Y0253933D02*
X0222511Y0253933D01*
X0213771Y0262673D01*
X0212673Y0262673D01*
X0220342Y0263933D02*
X0225342Y0258933D01*
X0228342Y0258933D01*
X0231413Y0258933D01*
X0232673Y0257673D01*
X0224011Y0253933D02*
X0224011Y0238933D01*
X0228342Y0233933D02*
X0229602Y0235193D01*
X0232673Y0235193D01*
X0238342Y0231933D02*
X0238342Y0238933D01*
X0238342Y0242673D01*
X0238342Y0231933D02*
X0232761Y0226352D01*
X0232761Y0217761D01*
X0214243Y0240933D02*
X0204011Y0251165D01*
X0232673Y0265693D02*
X0235102Y0265693D01*
X0238342Y0268933D01*
D40*
X0179602Y0224933D02*
X0171542Y0224933D01*
X0170842Y0224233D01*
D41*
X0297082Y0183933D02*
X0307440Y0183933D01*
D42*
X0139602Y0168933D02*
X0118342Y0168933D01*
X0134602Y0148933D02*
X0139602Y0153933D01*
D43*
X0134602Y0148933D02*
X0118342Y0148933D01*
M02*
