%
M48
M72
T01C0.01378
T02C0.02400
T03C0.04400
T04C0.13000
T05C0.15748
%
T01
X173342Y158933
X203342Y168933
X213342Y173933
X225842Y171933
X235842Y171933
X253342Y173933
X268342Y173933
X280842Y161933
X290842Y161933
X293342Y173933
X298342Y173933
X307842Y173433
X308342Y198933
X315842Y203933
X318342Y218933
X328342Y218933
X328342Y228933
X318342Y228933
X316342Y243933
X338342Y263933
X348342Y263933
X353342Y268933
X363342Y268933
X373342Y268933
X383342Y268933
X393342Y263933
X398342Y253933
X408342Y248933
X418342Y248933
X398342Y223933
X398342Y213933
X393342Y203933
X393342Y193933
X408342Y188933
X418342Y188933
X398342Y178933
X383342Y178933
X368342Y178933
X353342Y178933
X338342Y183933
X363342Y198933
X353342Y208933
X348342Y203933
X268342Y158933
X233342Y153933
X218342Y158933
X198342Y178933
X188342Y183933
X198342Y188933
X213342Y188933
X228342Y188933
X238342Y193933
X228342Y203933
X238342Y208933
X223342Y223933
X218342Y228933
X228342Y233933
X238342Y238933
X228342Y248933
X228342Y258933
X220342Y263933
X213342Y268933
X203342Y273933
X193342Y273933
X178342Y268933
X163342Y268933
X158342Y253933
X153342Y253933
X148342Y248933
X143342Y253933
X133342Y253933
X123342Y253933
X138342Y233933
X140842Y212933
X148342Y210433
X153342Y203933
X153342Y193933
X163342Y198933
X168342Y203933
X173342Y188933
X183342Y193933
X208342Y208933
X193342Y214433
X188342Y218933
X188842Y231933
X178842Y231933
X168842Y231933
X213342Y248933
X258342Y218933
X263342Y268933
X338342Y273933
X138342Y198433
X123342Y193933
X118342Y203933
X108342Y203933
T02
X218342Y118933
X218342Y98933
X163342Y78933
X148342Y78933
X193342Y61933
X203342Y61933
X228342Y58933
X253342Y58933
X283342Y115933
X293342Y115933
X311842Y133933
X311842Y143933
X333342Y115933
X343342Y115933
X368342Y128933
X408342Y108933
X368342Y73933
T03
X413342Y133933
X413342Y143933
X413342Y153933
X413342Y163933
X413342Y203933
X413342Y213933
X413342Y223933
X413342Y233933
X248342Y234933
X248342Y243933
X248342Y252933
X248342Y217933
X248342Y208933
X248342Y199933
X118342Y168933
X118342Y158933
X118342Y148933
X118342Y138933
T04
X288342Y208933
X288342Y243933
T05
X113342Y53933
X418342Y53933
X418342Y268933
X113342Y268933
M30
