G75*
%MOIN*%
%OFA0B0*%
%FSLAX25Y25*%
%IPPOS*%
%LPD*%
%AMOC8*
5,1,8,0,0,1.08239X$1,22.5*
%
%ADD10C,0.00000*%
%ADD11R,0.20000X0.09000*%
D10*
X0098342Y0038933D02*
X0098342Y0283894D01*
X0432043Y0283894D01*
X0432043Y0038933D01*
X0098342Y0038933D01*
X0105468Y0053933D02*
X0105470Y0054126D01*
X0105477Y0054319D01*
X0105489Y0054512D01*
X0105506Y0054705D01*
X0105527Y0054897D01*
X0105553Y0055088D01*
X0105584Y0055279D01*
X0105619Y0055469D01*
X0105659Y0055658D01*
X0105704Y0055846D01*
X0105753Y0056033D01*
X0105807Y0056219D01*
X0105865Y0056403D01*
X0105928Y0056586D01*
X0105996Y0056767D01*
X0106067Y0056946D01*
X0106144Y0057124D01*
X0106224Y0057300D01*
X0106309Y0057473D01*
X0106398Y0057645D01*
X0106491Y0057814D01*
X0106588Y0057981D01*
X0106690Y0058146D01*
X0106795Y0058308D01*
X0106904Y0058467D01*
X0107018Y0058624D01*
X0107135Y0058777D01*
X0107255Y0058928D01*
X0107380Y0059076D01*
X0107508Y0059221D01*
X0107639Y0059362D01*
X0107774Y0059501D01*
X0107913Y0059636D01*
X0108054Y0059767D01*
X0108199Y0059895D01*
X0108347Y0060020D01*
X0108498Y0060140D01*
X0108651Y0060257D01*
X0108808Y0060371D01*
X0108967Y0060480D01*
X0109129Y0060585D01*
X0109294Y0060687D01*
X0109461Y0060784D01*
X0109630Y0060877D01*
X0109802Y0060966D01*
X0109975Y0061051D01*
X0110151Y0061131D01*
X0110329Y0061208D01*
X0110508Y0061279D01*
X0110689Y0061347D01*
X0110872Y0061410D01*
X0111056Y0061468D01*
X0111242Y0061522D01*
X0111429Y0061571D01*
X0111617Y0061616D01*
X0111806Y0061656D01*
X0111996Y0061691D01*
X0112187Y0061722D01*
X0112378Y0061748D01*
X0112570Y0061769D01*
X0112763Y0061786D01*
X0112956Y0061798D01*
X0113149Y0061805D01*
X0113342Y0061807D01*
X0113535Y0061805D01*
X0113728Y0061798D01*
X0113921Y0061786D01*
X0114114Y0061769D01*
X0114306Y0061748D01*
X0114497Y0061722D01*
X0114688Y0061691D01*
X0114878Y0061656D01*
X0115067Y0061616D01*
X0115255Y0061571D01*
X0115442Y0061522D01*
X0115628Y0061468D01*
X0115812Y0061410D01*
X0115995Y0061347D01*
X0116176Y0061279D01*
X0116355Y0061208D01*
X0116533Y0061131D01*
X0116709Y0061051D01*
X0116882Y0060966D01*
X0117054Y0060877D01*
X0117223Y0060784D01*
X0117390Y0060687D01*
X0117555Y0060585D01*
X0117717Y0060480D01*
X0117876Y0060371D01*
X0118033Y0060257D01*
X0118186Y0060140D01*
X0118337Y0060020D01*
X0118485Y0059895D01*
X0118630Y0059767D01*
X0118771Y0059636D01*
X0118910Y0059501D01*
X0119045Y0059362D01*
X0119176Y0059221D01*
X0119304Y0059076D01*
X0119429Y0058928D01*
X0119549Y0058777D01*
X0119666Y0058624D01*
X0119780Y0058467D01*
X0119889Y0058308D01*
X0119994Y0058146D01*
X0120096Y0057981D01*
X0120193Y0057814D01*
X0120286Y0057645D01*
X0120375Y0057473D01*
X0120460Y0057300D01*
X0120540Y0057124D01*
X0120617Y0056946D01*
X0120688Y0056767D01*
X0120756Y0056586D01*
X0120819Y0056403D01*
X0120877Y0056219D01*
X0120931Y0056033D01*
X0120980Y0055846D01*
X0121025Y0055658D01*
X0121065Y0055469D01*
X0121100Y0055279D01*
X0121131Y0055088D01*
X0121157Y0054897D01*
X0121178Y0054705D01*
X0121195Y0054512D01*
X0121207Y0054319D01*
X0121214Y0054126D01*
X0121216Y0053933D01*
X0121214Y0053740D01*
X0121207Y0053547D01*
X0121195Y0053354D01*
X0121178Y0053161D01*
X0121157Y0052969D01*
X0121131Y0052778D01*
X0121100Y0052587D01*
X0121065Y0052397D01*
X0121025Y0052208D01*
X0120980Y0052020D01*
X0120931Y0051833D01*
X0120877Y0051647D01*
X0120819Y0051463D01*
X0120756Y0051280D01*
X0120688Y0051099D01*
X0120617Y0050920D01*
X0120540Y0050742D01*
X0120460Y0050566D01*
X0120375Y0050393D01*
X0120286Y0050221D01*
X0120193Y0050052D01*
X0120096Y0049885D01*
X0119994Y0049720D01*
X0119889Y0049558D01*
X0119780Y0049399D01*
X0119666Y0049242D01*
X0119549Y0049089D01*
X0119429Y0048938D01*
X0119304Y0048790D01*
X0119176Y0048645D01*
X0119045Y0048504D01*
X0118910Y0048365D01*
X0118771Y0048230D01*
X0118630Y0048099D01*
X0118485Y0047971D01*
X0118337Y0047846D01*
X0118186Y0047726D01*
X0118033Y0047609D01*
X0117876Y0047495D01*
X0117717Y0047386D01*
X0117555Y0047281D01*
X0117390Y0047179D01*
X0117223Y0047082D01*
X0117054Y0046989D01*
X0116882Y0046900D01*
X0116709Y0046815D01*
X0116533Y0046735D01*
X0116355Y0046658D01*
X0116176Y0046587D01*
X0115995Y0046519D01*
X0115812Y0046456D01*
X0115628Y0046398D01*
X0115442Y0046344D01*
X0115255Y0046295D01*
X0115067Y0046250D01*
X0114878Y0046210D01*
X0114688Y0046175D01*
X0114497Y0046144D01*
X0114306Y0046118D01*
X0114114Y0046097D01*
X0113921Y0046080D01*
X0113728Y0046068D01*
X0113535Y0046061D01*
X0113342Y0046059D01*
X0113149Y0046061D01*
X0112956Y0046068D01*
X0112763Y0046080D01*
X0112570Y0046097D01*
X0112378Y0046118D01*
X0112187Y0046144D01*
X0111996Y0046175D01*
X0111806Y0046210D01*
X0111617Y0046250D01*
X0111429Y0046295D01*
X0111242Y0046344D01*
X0111056Y0046398D01*
X0110872Y0046456D01*
X0110689Y0046519D01*
X0110508Y0046587D01*
X0110329Y0046658D01*
X0110151Y0046735D01*
X0109975Y0046815D01*
X0109802Y0046900D01*
X0109630Y0046989D01*
X0109461Y0047082D01*
X0109294Y0047179D01*
X0109129Y0047281D01*
X0108967Y0047386D01*
X0108808Y0047495D01*
X0108651Y0047609D01*
X0108498Y0047726D01*
X0108347Y0047846D01*
X0108199Y0047971D01*
X0108054Y0048099D01*
X0107913Y0048230D01*
X0107774Y0048365D01*
X0107639Y0048504D01*
X0107508Y0048645D01*
X0107380Y0048790D01*
X0107255Y0048938D01*
X0107135Y0049089D01*
X0107018Y0049242D01*
X0106904Y0049399D01*
X0106795Y0049558D01*
X0106690Y0049720D01*
X0106588Y0049885D01*
X0106491Y0050052D01*
X0106398Y0050221D01*
X0106309Y0050393D01*
X0106224Y0050566D01*
X0106144Y0050742D01*
X0106067Y0050920D01*
X0105996Y0051099D01*
X0105928Y0051280D01*
X0105865Y0051463D01*
X0105807Y0051647D01*
X0105753Y0051833D01*
X0105704Y0052020D01*
X0105659Y0052208D01*
X0105619Y0052397D01*
X0105584Y0052587D01*
X0105553Y0052778D01*
X0105527Y0052969D01*
X0105506Y0053161D01*
X0105489Y0053354D01*
X0105477Y0053547D01*
X0105470Y0053740D01*
X0105468Y0053933D01*
X0281842Y0208933D02*
X0281844Y0209094D01*
X0281850Y0209254D01*
X0281860Y0209415D01*
X0281874Y0209575D01*
X0281892Y0209735D01*
X0281913Y0209894D01*
X0281939Y0210053D01*
X0281969Y0210211D01*
X0282002Y0210368D01*
X0282040Y0210525D01*
X0282081Y0210680D01*
X0282126Y0210834D01*
X0282175Y0210987D01*
X0282228Y0211139D01*
X0282284Y0211290D01*
X0282345Y0211439D01*
X0282408Y0211587D01*
X0282476Y0211733D01*
X0282547Y0211877D01*
X0282621Y0212019D01*
X0282699Y0212160D01*
X0282781Y0212298D01*
X0282866Y0212435D01*
X0282954Y0212569D01*
X0283046Y0212701D01*
X0283141Y0212831D01*
X0283239Y0212959D01*
X0283340Y0213084D01*
X0283444Y0213206D01*
X0283551Y0213326D01*
X0283661Y0213443D01*
X0283774Y0213558D01*
X0283890Y0213669D01*
X0284009Y0213778D01*
X0284130Y0213883D01*
X0284254Y0213986D01*
X0284380Y0214086D01*
X0284508Y0214182D01*
X0284639Y0214275D01*
X0284773Y0214365D01*
X0284908Y0214452D01*
X0285046Y0214535D01*
X0285185Y0214615D01*
X0285327Y0214691D01*
X0285470Y0214764D01*
X0285615Y0214833D01*
X0285762Y0214899D01*
X0285910Y0214961D01*
X0286060Y0215019D01*
X0286211Y0215074D01*
X0286364Y0215125D01*
X0286518Y0215172D01*
X0286673Y0215215D01*
X0286829Y0215254D01*
X0286985Y0215290D01*
X0287143Y0215321D01*
X0287301Y0215349D01*
X0287460Y0215373D01*
X0287620Y0215393D01*
X0287780Y0215409D01*
X0287940Y0215421D01*
X0288101Y0215429D01*
X0288262Y0215433D01*
X0288422Y0215433D01*
X0288583Y0215429D01*
X0288744Y0215421D01*
X0288904Y0215409D01*
X0289064Y0215393D01*
X0289224Y0215373D01*
X0289383Y0215349D01*
X0289541Y0215321D01*
X0289699Y0215290D01*
X0289855Y0215254D01*
X0290011Y0215215D01*
X0290166Y0215172D01*
X0290320Y0215125D01*
X0290473Y0215074D01*
X0290624Y0215019D01*
X0290774Y0214961D01*
X0290922Y0214899D01*
X0291069Y0214833D01*
X0291214Y0214764D01*
X0291357Y0214691D01*
X0291499Y0214615D01*
X0291638Y0214535D01*
X0291776Y0214452D01*
X0291911Y0214365D01*
X0292045Y0214275D01*
X0292176Y0214182D01*
X0292304Y0214086D01*
X0292430Y0213986D01*
X0292554Y0213883D01*
X0292675Y0213778D01*
X0292794Y0213669D01*
X0292910Y0213558D01*
X0293023Y0213443D01*
X0293133Y0213326D01*
X0293240Y0213206D01*
X0293344Y0213084D01*
X0293445Y0212959D01*
X0293543Y0212831D01*
X0293638Y0212701D01*
X0293730Y0212569D01*
X0293818Y0212435D01*
X0293903Y0212298D01*
X0293985Y0212160D01*
X0294063Y0212019D01*
X0294137Y0211877D01*
X0294208Y0211733D01*
X0294276Y0211587D01*
X0294339Y0211439D01*
X0294400Y0211290D01*
X0294456Y0211139D01*
X0294509Y0210987D01*
X0294558Y0210834D01*
X0294603Y0210680D01*
X0294644Y0210525D01*
X0294682Y0210368D01*
X0294715Y0210211D01*
X0294745Y0210053D01*
X0294771Y0209894D01*
X0294792Y0209735D01*
X0294810Y0209575D01*
X0294824Y0209415D01*
X0294834Y0209254D01*
X0294840Y0209094D01*
X0294842Y0208933D01*
X0294840Y0208772D01*
X0294834Y0208612D01*
X0294824Y0208451D01*
X0294810Y0208291D01*
X0294792Y0208131D01*
X0294771Y0207972D01*
X0294745Y0207813D01*
X0294715Y0207655D01*
X0294682Y0207498D01*
X0294644Y0207341D01*
X0294603Y0207186D01*
X0294558Y0207032D01*
X0294509Y0206879D01*
X0294456Y0206727D01*
X0294400Y0206576D01*
X0294339Y0206427D01*
X0294276Y0206279D01*
X0294208Y0206133D01*
X0294137Y0205989D01*
X0294063Y0205847D01*
X0293985Y0205706D01*
X0293903Y0205568D01*
X0293818Y0205431D01*
X0293730Y0205297D01*
X0293638Y0205165D01*
X0293543Y0205035D01*
X0293445Y0204907D01*
X0293344Y0204782D01*
X0293240Y0204660D01*
X0293133Y0204540D01*
X0293023Y0204423D01*
X0292910Y0204308D01*
X0292794Y0204197D01*
X0292675Y0204088D01*
X0292554Y0203983D01*
X0292430Y0203880D01*
X0292304Y0203780D01*
X0292176Y0203684D01*
X0292045Y0203591D01*
X0291911Y0203501D01*
X0291776Y0203414D01*
X0291638Y0203331D01*
X0291499Y0203251D01*
X0291357Y0203175D01*
X0291214Y0203102D01*
X0291069Y0203033D01*
X0290922Y0202967D01*
X0290774Y0202905D01*
X0290624Y0202847D01*
X0290473Y0202792D01*
X0290320Y0202741D01*
X0290166Y0202694D01*
X0290011Y0202651D01*
X0289855Y0202612D01*
X0289699Y0202576D01*
X0289541Y0202545D01*
X0289383Y0202517D01*
X0289224Y0202493D01*
X0289064Y0202473D01*
X0288904Y0202457D01*
X0288744Y0202445D01*
X0288583Y0202437D01*
X0288422Y0202433D01*
X0288262Y0202433D01*
X0288101Y0202437D01*
X0287940Y0202445D01*
X0287780Y0202457D01*
X0287620Y0202473D01*
X0287460Y0202493D01*
X0287301Y0202517D01*
X0287143Y0202545D01*
X0286985Y0202576D01*
X0286829Y0202612D01*
X0286673Y0202651D01*
X0286518Y0202694D01*
X0286364Y0202741D01*
X0286211Y0202792D01*
X0286060Y0202847D01*
X0285910Y0202905D01*
X0285762Y0202967D01*
X0285615Y0203033D01*
X0285470Y0203102D01*
X0285327Y0203175D01*
X0285185Y0203251D01*
X0285046Y0203331D01*
X0284908Y0203414D01*
X0284773Y0203501D01*
X0284639Y0203591D01*
X0284508Y0203684D01*
X0284380Y0203780D01*
X0284254Y0203880D01*
X0284130Y0203983D01*
X0284009Y0204088D01*
X0283890Y0204197D01*
X0283774Y0204308D01*
X0283661Y0204423D01*
X0283551Y0204540D01*
X0283444Y0204660D01*
X0283340Y0204782D01*
X0283239Y0204907D01*
X0283141Y0205035D01*
X0283046Y0205165D01*
X0282954Y0205297D01*
X0282866Y0205431D01*
X0282781Y0205568D01*
X0282699Y0205706D01*
X0282621Y0205847D01*
X0282547Y0205989D01*
X0282476Y0206133D01*
X0282408Y0206279D01*
X0282345Y0206427D01*
X0282284Y0206576D01*
X0282228Y0206727D01*
X0282175Y0206879D01*
X0282126Y0207032D01*
X0282081Y0207186D01*
X0282040Y0207341D01*
X0282002Y0207498D01*
X0281969Y0207655D01*
X0281939Y0207813D01*
X0281913Y0207972D01*
X0281892Y0208131D01*
X0281874Y0208291D01*
X0281860Y0208451D01*
X0281850Y0208612D01*
X0281844Y0208772D01*
X0281842Y0208933D01*
X0281842Y0243933D02*
X0281844Y0244094D01*
X0281850Y0244254D01*
X0281860Y0244415D01*
X0281874Y0244575D01*
X0281892Y0244735D01*
X0281913Y0244894D01*
X0281939Y0245053D01*
X0281969Y0245211D01*
X0282002Y0245368D01*
X0282040Y0245525D01*
X0282081Y0245680D01*
X0282126Y0245834D01*
X0282175Y0245987D01*
X0282228Y0246139D01*
X0282284Y0246290D01*
X0282345Y0246439D01*
X0282408Y0246587D01*
X0282476Y0246733D01*
X0282547Y0246877D01*
X0282621Y0247019D01*
X0282699Y0247160D01*
X0282781Y0247298D01*
X0282866Y0247435D01*
X0282954Y0247569D01*
X0283046Y0247701D01*
X0283141Y0247831D01*
X0283239Y0247959D01*
X0283340Y0248084D01*
X0283444Y0248206D01*
X0283551Y0248326D01*
X0283661Y0248443D01*
X0283774Y0248558D01*
X0283890Y0248669D01*
X0284009Y0248778D01*
X0284130Y0248883D01*
X0284254Y0248986D01*
X0284380Y0249086D01*
X0284508Y0249182D01*
X0284639Y0249275D01*
X0284773Y0249365D01*
X0284908Y0249452D01*
X0285046Y0249535D01*
X0285185Y0249615D01*
X0285327Y0249691D01*
X0285470Y0249764D01*
X0285615Y0249833D01*
X0285762Y0249899D01*
X0285910Y0249961D01*
X0286060Y0250019D01*
X0286211Y0250074D01*
X0286364Y0250125D01*
X0286518Y0250172D01*
X0286673Y0250215D01*
X0286829Y0250254D01*
X0286985Y0250290D01*
X0287143Y0250321D01*
X0287301Y0250349D01*
X0287460Y0250373D01*
X0287620Y0250393D01*
X0287780Y0250409D01*
X0287940Y0250421D01*
X0288101Y0250429D01*
X0288262Y0250433D01*
X0288422Y0250433D01*
X0288583Y0250429D01*
X0288744Y0250421D01*
X0288904Y0250409D01*
X0289064Y0250393D01*
X0289224Y0250373D01*
X0289383Y0250349D01*
X0289541Y0250321D01*
X0289699Y0250290D01*
X0289855Y0250254D01*
X0290011Y0250215D01*
X0290166Y0250172D01*
X0290320Y0250125D01*
X0290473Y0250074D01*
X0290624Y0250019D01*
X0290774Y0249961D01*
X0290922Y0249899D01*
X0291069Y0249833D01*
X0291214Y0249764D01*
X0291357Y0249691D01*
X0291499Y0249615D01*
X0291638Y0249535D01*
X0291776Y0249452D01*
X0291911Y0249365D01*
X0292045Y0249275D01*
X0292176Y0249182D01*
X0292304Y0249086D01*
X0292430Y0248986D01*
X0292554Y0248883D01*
X0292675Y0248778D01*
X0292794Y0248669D01*
X0292910Y0248558D01*
X0293023Y0248443D01*
X0293133Y0248326D01*
X0293240Y0248206D01*
X0293344Y0248084D01*
X0293445Y0247959D01*
X0293543Y0247831D01*
X0293638Y0247701D01*
X0293730Y0247569D01*
X0293818Y0247435D01*
X0293903Y0247298D01*
X0293985Y0247160D01*
X0294063Y0247019D01*
X0294137Y0246877D01*
X0294208Y0246733D01*
X0294276Y0246587D01*
X0294339Y0246439D01*
X0294400Y0246290D01*
X0294456Y0246139D01*
X0294509Y0245987D01*
X0294558Y0245834D01*
X0294603Y0245680D01*
X0294644Y0245525D01*
X0294682Y0245368D01*
X0294715Y0245211D01*
X0294745Y0245053D01*
X0294771Y0244894D01*
X0294792Y0244735D01*
X0294810Y0244575D01*
X0294824Y0244415D01*
X0294834Y0244254D01*
X0294840Y0244094D01*
X0294842Y0243933D01*
X0294840Y0243772D01*
X0294834Y0243612D01*
X0294824Y0243451D01*
X0294810Y0243291D01*
X0294792Y0243131D01*
X0294771Y0242972D01*
X0294745Y0242813D01*
X0294715Y0242655D01*
X0294682Y0242498D01*
X0294644Y0242341D01*
X0294603Y0242186D01*
X0294558Y0242032D01*
X0294509Y0241879D01*
X0294456Y0241727D01*
X0294400Y0241576D01*
X0294339Y0241427D01*
X0294276Y0241279D01*
X0294208Y0241133D01*
X0294137Y0240989D01*
X0294063Y0240847D01*
X0293985Y0240706D01*
X0293903Y0240568D01*
X0293818Y0240431D01*
X0293730Y0240297D01*
X0293638Y0240165D01*
X0293543Y0240035D01*
X0293445Y0239907D01*
X0293344Y0239782D01*
X0293240Y0239660D01*
X0293133Y0239540D01*
X0293023Y0239423D01*
X0292910Y0239308D01*
X0292794Y0239197D01*
X0292675Y0239088D01*
X0292554Y0238983D01*
X0292430Y0238880D01*
X0292304Y0238780D01*
X0292176Y0238684D01*
X0292045Y0238591D01*
X0291911Y0238501D01*
X0291776Y0238414D01*
X0291638Y0238331D01*
X0291499Y0238251D01*
X0291357Y0238175D01*
X0291214Y0238102D01*
X0291069Y0238033D01*
X0290922Y0237967D01*
X0290774Y0237905D01*
X0290624Y0237847D01*
X0290473Y0237792D01*
X0290320Y0237741D01*
X0290166Y0237694D01*
X0290011Y0237651D01*
X0289855Y0237612D01*
X0289699Y0237576D01*
X0289541Y0237545D01*
X0289383Y0237517D01*
X0289224Y0237493D01*
X0289064Y0237473D01*
X0288904Y0237457D01*
X0288744Y0237445D01*
X0288583Y0237437D01*
X0288422Y0237433D01*
X0288262Y0237433D01*
X0288101Y0237437D01*
X0287940Y0237445D01*
X0287780Y0237457D01*
X0287620Y0237473D01*
X0287460Y0237493D01*
X0287301Y0237517D01*
X0287143Y0237545D01*
X0286985Y0237576D01*
X0286829Y0237612D01*
X0286673Y0237651D01*
X0286518Y0237694D01*
X0286364Y0237741D01*
X0286211Y0237792D01*
X0286060Y0237847D01*
X0285910Y0237905D01*
X0285762Y0237967D01*
X0285615Y0238033D01*
X0285470Y0238102D01*
X0285327Y0238175D01*
X0285185Y0238251D01*
X0285046Y0238331D01*
X0284908Y0238414D01*
X0284773Y0238501D01*
X0284639Y0238591D01*
X0284508Y0238684D01*
X0284380Y0238780D01*
X0284254Y0238880D01*
X0284130Y0238983D01*
X0284009Y0239088D01*
X0283890Y0239197D01*
X0283774Y0239308D01*
X0283661Y0239423D01*
X0283551Y0239540D01*
X0283444Y0239660D01*
X0283340Y0239782D01*
X0283239Y0239907D01*
X0283141Y0240035D01*
X0283046Y0240165D01*
X0282954Y0240297D01*
X0282866Y0240431D01*
X0282781Y0240568D01*
X0282699Y0240706D01*
X0282621Y0240847D01*
X0282547Y0240989D01*
X0282476Y0241133D01*
X0282408Y0241279D01*
X0282345Y0241427D01*
X0282284Y0241576D01*
X0282228Y0241727D01*
X0282175Y0241879D01*
X0282126Y0242032D01*
X0282081Y0242186D01*
X0282040Y0242341D01*
X0282002Y0242498D01*
X0281969Y0242655D01*
X0281939Y0242813D01*
X0281913Y0242972D01*
X0281892Y0243131D01*
X0281874Y0243291D01*
X0281860Y0243451D01*
X0281850Y0243612D01*
X0281844Y0243772D01*
X0281842Y0243933D01*
X0410468Y0268933D02*
X0410470Y0269126D01*
X0410477Y0269319D01*
X0410489Y0269512D01*
X0410506Y0269705D01*
X0410527Y0269897D01*
X0410553Y0270088D01*
X0410584Y0270279D01*
X0410619Y0270469D01*
X0410659Y0270658D01*
X0410704Y0270846D01*
X0410753Y0271033D01*
X0410807Y0271219D01*
X0410865Y0271403D01*
X0410928Y0271586D01*
X0410996Y0271767D01*
X0411067Y0271946D01*
X0411144Y0272124D01*
X0411224Y0272300D01*
X0411309Y0272473D01*
X0411398Y0272645D01*
X0411491Y0272814D01*
X0411588Y0272981D01*
X0411690Y0273146D01*
X0411795Y0273308D01*
X0411904Y0273467D01*
X0412018Y0273624D01*
X0412135Y0273777D01*
X0412255Y0273928D01*
X0412380Y0274076D01*
X0412508Y0274221D01*
X0412639Y0274362D01*
X0412774Y0274501D01*
X0412913Y0274636D01*
X0413054Y0274767D01*
X0413199Y0274895D01*
X0413347Y0275020D01*
X0413498Y0275140D01*
X0413651Y0275257D01*
X0413808Y0275371D01*
X0413967Y0275480D01*
X0414129Y0275585D01*
X0414294Y0275687D01*
X0414461Y0275784D01*
X0414630Y0275877D01*
X0414802Y0275966D01*
X0414975Y0276051D01*
X0415151Y0276131D01*
X0415329Y0276208D01*
X0415508Y0276279D01*
X0415689Y0276347D01*
X0415872Y0276410D01*
X0416056Y0276468D01*
X0416242Y0276522D01*
X0416429Y0276571D01*
X0416617Y0276616D01*
X0416806Y0276656D01*
X0416996Y0276691D01*
X0417187Y0276722D01*
X0417378Y0276748D01*
X0417570Y0276769D01*
X0417763Y0276786D01*
X0417956Y0276798D01*
X0418149Y0276805D01*
X0418342Y0276807D01*
X0418535Y0276805D01*
X0418728Y0276798D01*
X0418921Y0276786D01*
X0419114Y0276769D01*
X0419306Y0276748D01*
X0419497Y0276722D01*
X0419688Y0276691D01*
X0419878Y0276656D01*
X0420067Y0276616D01*
X0420255Y0276571D01*
X0420442Y0276522D01*
X0420628Y0276468D01*
X0420812Y0276410D01*
X0420995Y0276347D01*
X0421176Y0276279D01*
X0421355Y0276208D01*
X0421533Y0276131D01*
X0421709Y0276051D01*
X0421882Y0275966D01*
X0422054Y0275877D01*
X0422223Y0275784D01*
X0422390Y0275687D01*
X0422555Y0275585D01*
X0422717Y0275480D01*
X0422876Y0275371D01*
X0423033Y0275257D01*
X0423186Y0275140D01*
X0423337Y0275020D01*
X0423485Y0274895D01*
X0423630Y0274767D01*
X0423771Y0274636D01*
X0423910Y0274501D01*
X0424045Y0274362D01*
X0424176Y0274221D01*
X0424304Y0274076D01*
X0424429Y0273928D01*
X0424549Y0273777D01*
X0424666Y0273624D01*
X0424780Y0273467D01*
X0424889Y0273308D01*
X0424994Y0273146D01*
X0425096Y0272981D01*
X0425193Y0272814D01*
X0425286Y0272645D01*
X0425375Y0272473D01*
X0425460Y0272300D01*
X0425540Y0272124D01*
X0425617Y0271946D01*
X0425688Y0271767D01*
X0425756Y0271586D01*
X0425819Y0271403D01*
X0425877Y0271219D01*
X0425931Y0271033D01*
X0425980Y0270846D01*
X0426025Y0270658D01*
X0426065Y0270469D01*
X0426100Y0270279D01*
X0426131Y0270088D01*
X0426157Y0269897D01*
X0426178Y0269705D01*
X0426195Y0269512D01*
X0426207Y0269319D01*
X0426214Y0269126D01*
X0426216Y0268933D01*
X0426214Y0268740D01*
X0426207Y0268547D01*
X0426195Y0268354D01*
X0426178Y0268161D01*
X0426157Y0267969D01*
X0426131Y0267778D01*
X0426100Y0267587D01*
X0426065Y0267397D01*
X0426025Y0267208D01*
X0425980Y0267020D01*
X0425931Y0266833D01*
X0425877Y0266647D01*
X0425819Y0266463D01*
X0425756Y0266280D01*
X0425688Y0266099D01*
X0425617Y0265920D01*
X0425540Y0265742D01*
X0425460Y0265566D01*
X0425375Y0265393D01*
X0425286Y0265221D01*
X0425193Y0265052D01*
X0425096Y0264885D01*
X0424994Y0264720D01*
X0424889Y0264558D01*
X0424780Y0264399D01*
X0424666Y0264242D01*
X0424549Y0264089D01*
X0424429Y0263938D01*
X0424304Y0263790D01*
X0424176Y0263645D01*
X0424045Y0263504D01*
X0423910Y0263365D01*
X0423771Y0263230D01*
X0423630Y0263099D01*
X0423485Y0262971D01*
X0423337Y0262846D01*
X0423186Y0262726D01*
X0423033Y0262609D01*
X0422876Y0262495D01*
X0422717Y0262386D01*
X0422555Y0262281D01*
X0422390Y0262179D01*
X0422223Y0262082D01*
X0422054Y0261989D01*
X0421882Y0261900D01*
X0421709Y0261815D01*
X0421533Y0261735D01*
X0421355Y0261658D01*
X0421176Y0261587D01*
X0420995Y0261519D01*
X0420812Y0261456D01*
X0420628Y0261398D01*
X0420442Y0261344D01*
X0420255Y0261295D01*
X0420067Y0261250D01*
X0419878Y0261210D01*
X0419688Y0261175D01*
X0419497Y0261144D01*
X0419306Y0261118D01*
X0419114Y0261097D01*
X0418921Y0261080D01*
X0418728Y0261068D01*
X0418535Y0261061D01*
X0418342Y0261059D01*
X0418149Y0261061D01*
X0417956Y0261068D01*
X0417763Y0261080D01*
X0417570Y0261097D01*
X0417378Y0261118D01*
X0417187Y0261144D01*
X0416996Y0261175D01*
X0416806Y0261210D01*
X0416617Y0261250D01*
X0416429Y0261295D01*
X0416242Y0261344D01*
X0416056Y0261398D01*
X0415872Y0261456D01*
X0415689Y0261519D01*
X0415508Y0261587D01*
X0415329Y0261658D01*
X0415151Y0261735D01*
X0414975Y0261815D01*
X0414802Y0261900D01*
X0414630Y0261989D01*
X0414461Y0262082D01*
X0414294Y0262179D01*
X0414129Y0262281D01*
X0413967Y0262386D01*
X0413808Y0262495D01*
X0413651Y0262609D01*
X0413498Y0262726D01*
X0413347Y0262846D01*
X0413199Y0262971D01*
X0413054Y0263099D01*
X0412913Y0263230D01*
X0412774Y0263365D01*
X0412639Y0263504D01*
X0412508Y0263645D01*
X0412380Y0263790D01*
X0412255Y0263938D01*
X0412135Y0264089D01*
X0412018Y0264242D01*
X0411904Y0264399D01*
X0411795Y0264558D01*
X0411690Y0264720D01*
X0411588Y0264885D01*
X0411491Y0265052D01*
X0411398Y0265221D01*
X0411309Y0265393D01*
X0411224Y0265566D01*
X0411144Y0265742D01*
X0411067Y0265920D01*
X0410996Y0266099D01*
X0410928Y0266280D01*
X0410865Y0266463D01*
X0410807Y0266647D01*
X0410753Y0266833D01*
X0410704Y0267020D01*
X0410659Y0267208D01*
X0410619Y0267397D01*
X0410584Y0267587D01*
X0410553Y0267778D01*
X0410527Y0267969D01*
X0410506Y0268161D01*
X0410489Y0268354D01*
X0410477Y0268547D01*
X0410470Y0268740D01*
X0410468Y0268933D01*
X0105468Y0268933D02*
X0105470Y0269126D01*
X0105477Y0269319D01*
X0105489Y0269512D01*
X0105506Y0269705D01*
X0105527Y0269897D01*
X0105553Y0270088D01*
X0105584Y0270279D01*
X0105619Y0270469D01*
X0105659Y0270658D01*
X0105704Y0270846D01*
X0105753Y0271033D01*
X0105807Y0271219D01*
X0105865Y0271403D01*
X0105928Y0271586D01*
X0105996Y0271767D01*
X0106067Y0271946D01*
X0106144Y0272124D01*
X0106224Y0272300D01*
X0106309Y0272473D01*
X0106398Y0272645D01*
X0106491Y0272814D01*
X0106588Y0272981D01*
X0106690Y0273146D01*
X0106795Y0273308D01*
X0106904Y0273467D01*
X0107018Y0273624D01*
X0107135Y0273777D01*
X0107255Y0273928D01*
X0107380Y0274076D01*
X0107508Y0274221D01*
X0107639Y0274362D01*
X0107774Y0274501D01*
X0107913Y0274636D01*
X0108054Y0274767D01*
X0108199Y0274895D01*
X0108347Y0275020D01*
X0108498Y0275140D01*
X0108651Y0275257D01*
X0108808Y0275371D01*
X0108967Y0275480D01*
X0109129Y0275585D01*
X0109294Y0275687D01*
X0109461Y0275784D01*
X0109630Y0275877D01*
X0109802Y0275966D01*
X0109975Y0276051D01*
X0110151Y0276131D01*
X0110329Y0276208D01*
X0110508Y0276279D01*
X0110689Y0276347D01*
X0110872Y0276410D01*
X0111056Y0276468D01*
X0111242Y0276522D01*
X0111429Y0276571D01*
X0111617Y0276616D01*
X0111806Y0276656D01*
X0111996Y0276691D01*
X0112187Y0276722D01*
X0112378Y0276748D01*
X0112570Y0276769D01*
X0112763Y0276786D01*
X0112956Y0276798D01*
X0113149Y0276805D01*
X0113342Y0276807D01*
X0113535Y0276805D01*
X0113728Y0276798D01*
X0113921Y0276786D01*
X0114114Y0276769D01*
X0114306Y0276748D01*
X0114497Y0276722D01*
X0114688Y0276691D01*
X0114878Y0276656D01*
X0115067Y0276616D01*
X0115255Y0276571D01*
X0115442Y0276522D01*
X0115628Y0276468D01*
X0115812Y0276410D01*
X0115995Y0276347D01*
X0116176Y0276279D01*
X0116355Y0276208D01*
X0116533Y0276131D01*
X0116709Y0276051D01*
X0116882Y0275966D01*
X0117054Y0275877D01*
X0117223Y0275784D01*
X0117390Y0275687D01*
X0117555Y0275585D01*
X0117717Y0275480D01*
X0117876Y0275371D01*
X0118033Y0275257D01*
X0118186Y0275140D01*
X0118337Y0275020D01*
X0118485Y0274895D01*
X0118630Y0274767D01*
X0118771Y0274636D01*
X0118910Y0274501D01*
X0119045Y0274362D01*
X0119176Y0274221D01*
X0119304Y0274076D01*
X0119429Y0273928D01*
X0119549Y0273777D01*
X0119666Y0273624D01*
X0119780Y0273467D01*
X0119889Y0273308D01*
X0119994Y0273146D01*
X0120096Y0272981D01*
X0120193Y0272814D01*
X0120286Y0272645D01*
X0120375Y0272473D01*
X0120460Y0272300D01*
X0120540Y0272124D01*
X0120617Y0271946D01*
X0120688Y0271767D01*
X0120756Y0271586D01*
X0120819Y0271403D01*
X0120877Y0271219D01*
X0120931Y0271033D01*
X0120980Y0270846D01*
X0121025Y0270658D01*
X0121065Y0270469D01*
X0121100Y0270279D01*
X0121131Y0270088D01*
X0121157Y0269897D01*
X0121178Y0269705D01*
X0121195Y0269512D01*
X0121207Y0269319D01*
X0121214Y0269126D01*
X0121216Y0268933D01*
X0121214Y0268740D01*
X0121207Y0268547D01*
X0121195Y0268354D01*
X0121178Y0268161D01*
X0121157Y0267969D01*
X0121131Y0267778D01*
X0121100Y0267587D01*
X0121065Y0267397D01*
X0121025Y0267208D01*
X0120980Y0267020D01*
X0120931Y0266833D01*
X0120877Y0266647D01*
X0120819Y0266463D01*
X0120756Y0266280D01*
X0120688Y0266099D01*
X0120617Y0265920D01*
X0120540Y0265742D01*
X0120460Y0265566D01*
X0120375Y0265393D01*
X0120286Y0265221D01*
X0120193Y0265052D01*
X0120096Y0264885D01*
X0119994Y0264720D01*
X0119889Y0264558D01*
X0119780Y0264399D01*
X0119666Y0264242D01*
X0119549Y0264089D01*
X0119429Y0263938D01*
X0119304Y0263790D01*
X0119176Y0263645D01*
X0119045Y0263504D01*
X0118910Y0263365D01*
X0118771Y0263230D01*
X0118630Y0263099D01*
X0118485Y0262971D01*
X0118337Y0262846D01*
X0118186Y0262726D01*
X0118033Y0262609D01*
X0117876Y0262495D01*
X0117717Y0262386D01*
X0117555Y0262281D01*
X0117390Y0262179D01*
X0117223Y0262082D01*
X0117054Y0261989D01*
X0116882Y0261900D01*
X0116709Y0261815D01*
X0116533Y0261735D01*
X0116355Y0261658D01*
X0116176Y0261587D01*
X0115995Y0261519D01*
X0115812Y0261456D01*
X0115628Y0261398D01*
X0115442Y0261344D01*
X0115255Y0261295D01*
X0115067Y0261250D01*
X0114878Y0261210D01*
X0114688Y0261175D01*
X0114497Y0261144D01*
X0114306Y0261118D01*
X0114114Y0261097D01*
X0113921Y0261080D01*
X0113728Y0261068D01*
X0113535Y0261061D01*
X0113342Y0261059D01*
X0113149Y0261061D01*
X0112956Y0261068D01*
X0112763Y0261080D01*
X0112570Y0261097D01*
X0112378Y0261118D01*
X0112187Y0261144D01*
X0111996Y0261175D01*
X0111806Y0261210D01*
X0111617Y0261250D01*
X0111429Y0261295D01*
X0111242Y0261344D01*
X0111056Y0261398D01*
X0110872Y0261456D01*
X0110689Y0261519D01*
X0110508Y0261587D01*
X0110329Y0261658D01*
X0110151Y0261735D01*
X0109975Y0261815D01*
X0109802Y0261900D01*
X0109630Y0261989D01*
X0109461Y0262082D01*
X0109294Y0262179D01*
X0109129Y0262281D01*
X0108967Y0262386D01*
X0108808Y0262495D01*
X0108651Y0262609D01*
X0108498Y0262726D01*
X0108347Y0262846D01*
X0108199Y0262971D01*
X0108054Y0263099D01*
X0107913Y0263230D01*
X0107774Y0263365D01*
X0107639Y0263504D01*
X0107508Y0263645D01*
X0107380Y0263790D01*
X0107255Y0263938D01*
X0107135Y0264089D01*
X0107018Y0264242D01*
X0106904Y0264399D01*
X0106795Y0264558D01*
X0106690Y0264720D01*
X0106588Y0264885D01*
X0106491Y0265052D01*
X0106398Y0265221D01*
X0106309Y0265393D01*
X0106224Y0265566D01*
X0106144Y0265742D01*
X0106067Y0265920D01*
X0105996Y0266099D01*
X0105928Y0266280D01*
X0105865Y0266463D01*
X0105807Y0266647D01*
X0105753Y0266833D01*
X0105704Y0267020D01*
X0105659Y0267208D01*
X0105619Y0267397D01*
X0105584Y0267587D01*
X0105553Y0267778D01*
X0105527Y0267969D01*
X0105506Y0268161D01*
X0105489Y0268354D01*
X0105477Y0268547D01*
X0105470Y0268740D01*
X0105468Y0268933D01*
X0098342Y0255933D02*
X0098342Y0211933D01*
X0410468Y0053933D02*
X0410470Y0054126D01*
X0410477Y0054319D01*
X0410489Y0054512D01*
X0410506Y0054705D01*
X0410527Y0054897D01*
X0410553Y0055088D01*
X0410584Y0055279D01*
X0410619Y0055469D01*
X0410659Y0055658D01*
X0410704Y0055846D01*
X0410753Y0056033D01*
X0410807Y0056219D01*
X0410865Y0056403D01*
X0410928Y0056586D01*
X0410996Y0056767D01*
X0411067Y0056946D01*
X0411144Y0057124D01*
X0411224Y0057300D01*
X0411309Y0057473D01*
X0411398Y0057645D01*
X0411491Y0057814D01*
X0411588Y0057981D01*
X0411690Y0058146D01*
X0411795Y0058308D01*
X0411904Y0058467D01*
X0412018Y0058624D01*
X0412135Y0058777D01*
X0412255Y0058928D01*
X0412380Y0059076D01*
X0412508Y0059221D01*
X0412639Y0059362D01*
X0412774Y0059501D01*
X0412913Y0059636D01*
X0413054Y0059767D01*
X0413199Y0059895D01*
X0413347Y0060020D01*
X0413498Y0060140D01*
X0413651Y0060257D01*
X0413808Y0060371D01*
X0413967Y0060480D01*
X0414129Y0060585D01*
X0414294Y0060687D01*
X0414461Y0060784D01*
X0414630Y0060877D01*
X0414802Y0060966D01*
X0414975Y0061051D01*
X0415151Y0061131D01*
X0415329Y0061208D01*
X0415508Y0061279D01*
X0415689Y0061347D01*
X0415872Y0061410D01*
X0416056Y0061468D01*
X0416242Y0061522D01*
X0416429Y0061571D01*
X0416617Y0061616D01*
X0416806Y0061656D01*
X0416996Y0061691D01*
X0417187Y0061722D01*
X0417378Y0061748D01*
X0417570Y0061769D01*
X0417763Y0061786D01*
X0417956Y0061798D01*
X0418149Y0061805D01*
X0418342Y0061807D01*
X0418535Y0061805D01*
X0418728Y0061798D01*
X0418921Y0061786D01*
X0419114Y0061769D01*
X0419306Y0061748D01*
X0419497Y0061722D01*
X0419688Y0061691D01*
X0419878Y0061656D01*
X0420067Y0061616D01*
X0420255Y0061571D01*
X0420442Y0061522D01*
X0420628Y0061468D01*
X0420812Y0061410D01*
X0420995Y0061347D01*
X0421176Y0061279D01*
X0421355Y0061208D01*
X0421533Y0061131D01*
X0421709Y0061051D01*
X0421882Y0060966D01*
X0422054Y0060877D01*
X0422223Y0060784D01*
X0422390Y0060687D01*
X0422555Y0060585D01*
X0422717Y0060480D01*
X0422876Y0060371D01*
X0423033Y0060257D01*
X0423186Y0060140D01*
X0423337Y0060020D01*
X0423485Y0059895D01*
X0423630Y0059767D01*
X0423771Y0059636D01*
X0423910Y0059501D01*
X0424045Y0059362D01*
X0424176Y0059221D01*
X0424304Y0059076D01*
X0424429Y0058928D01*
X0424549Y0058777D01*
X0424666Y0058624D01*
X0424780Y0058467D01*
X0424889Y0058308D01*
X0424994Y0058146D01*
X0425096Y0057981D01*
X0425193Y0057814D01*
X0425286Y0057645D01*
X0425375Y0057473D01*
X0425460Y0057300D01*
X0425540Y0057124D01*
X0425617Y0056946D01*
X0425688Y0056767D01*
X0425756Y0056586D01*
X0425819Y0056403D01*
X0425877Y0056219D01*
X0425931Y0056033D01*
X0425980Y0055846D01*
X0426025Y0055658D01*
X0426065Y0055469D01*
X0426100Y0055279D01*
X0426131Y0055088D01*
X0426157Y0054897D01*
X0426178Y0054705D01*
X0426195Y0054512D01*
X0426207Y0054319D01*
X0426214Y0054126D01*
X0426216Y0053933D01*
X0426214Y0053740D01*
X0426207Y0053547D01*
X0426195Y0053354D01*
X0426178Y0053161D01*
X0426157Y0052969D01*
X0426131Y0052778D01*
X0426100Y0052587D01*
X0426065Y0052397D01*
X0426025Y0052208D01*
X0425980Y0052020D01*
X0425931Y0051833D01*
X0425877Y0051647D01*
X0425819Y0051463D01*
X0425756Y0051280D01*
X0425688Y0051099D01*
X0425617Y0050920D01*
X0425540Y0050742D01*
X0425460Y0050566D01*
X0425375Y0050393D01*
X0425286Y0050221D01*
X0425193Y0050052D01*
X0425096Y0049885D01*
X0424994Y0049720D01*
X0424889Y0049558D01*
X0424780Y0049399D01*
X0424666Y0049242D01*
X0424549Y0049089D01*
X0424429Y0048938D01*
X0424304Y0048790D01*
X0424176Y0048645D01*
X0424045Y0048504D01*
X0423910Y0048365D01*
X0423771Y0048230D01*
X0423630Y0048099D01*
X0423485Y0047971D01*
X0423337Y0047846D01*
X0423186Y0047726D01*
X0423033Y0047609D01*
X0422876Y0047495D01*
X0422717Y0047386D01*
X0422555Y0047281D01*
X0422390Y0047179D01*
X0422223Y0047082D01*
X0422054Y0046989D01*
X0421882Y0046900D01*
X0421709Y0046815D01*
X0421533Y0046735D01*
X0421355Y0046658D01*
X0421176Y0046587D01*
X0420995Y0046519D01*
X0420812Y0046456D01*
X0420628Y0046398D01*
X0420442Y0046344D01*
X0420255Y0046295D01*
X0420067Y0046250D01*
X0419878Y0046210D01*
X0419688Y0046175D01*
X0419497Y0046144D01*
X0419306Y0046118D01*
X0419114Y0046097D01*
X0418921Y0046080D01*
X0418728Y0046068D01*
X0418535Y0046061D01*
X0418342Y0046059D01*
X0418149Y0046061D01*
X0417956Y0046068D01*
X0417763Y0046080D01*
X0417570Y0046097D01*
X0417378Y0046118D01*
X0417187Y0046144D01*
X0416996Y0046175D01*
X0416806Y0046210D01*
X0416617Y0046250D01*
X0416429Y0046295D01*
X0416242Y0046344D01*
X0416056Y0046398D01*
X0415872Y0046456D01*
X0415689Y0046519D01*
X0415508Y0046587D01*
X0415329Y0046658D01*
X0415151Y0046735D01*
X0414975Y0046815D01*
X0414802Y0046900D01*
X0414630Y0046989D01*
X0414461Y0047082D01*
X0414294Y0047179D01*
X0414129Y0047281D01*
X0413967Y0047386D01*
X0413808Y0047495D01*
X0413651Y0047609D01*
X0413498Y0047726D01*
X0413347Y0047846D01*
X0413199Y0047971D01*
X0413054Y0048099D01*
X0412913Y0048230D01*
X0412774Y0048365D01*
X0412639Y0048504D01*
X0412508Y0048645D01*
X0412380Y0048790D01*
X0412255Y0048938D01*
X0412135Y0049089D01*
X0412018Y0049242D01*
X0411904Y0049399D01*
X0411795Y0049558D01*
X0411690Y0049720D01*
X0411588Y0049885D01*
X0411491Y0050052D01*
X0411398Y0050221D01*
X0411309Y0050393D01*
X0411224Y0050566D01*
X0411144Y0050742D01*
X0411067Y0050920D01*
X0410996Y0051099D01*
X0410928Y0051280D01*
X0410865Y0051463D01*
X0410807Y0051647D01*
X0410753Y0051833D01*
X0410704Y0052020D01*
X0410659Y0052208D01*
X0410619Y0052397D01*
X0410584Y0052587D01*
X0410553Y0052778D01*
X0410527Y0052969D01*
X0410506Y0053161D01*
X0410489Y0053354D01*
X0410477Y0053547D01*
X0410470Y0053740D01*
X0410468Y0053933D01*
D11*
X0108442Y0216533D03*
X0108442Y0251333D03*
M02*
