G75*
%MOIN*%
%OFA0B0*%
%FSLAX25Y25*%
%IPPOS*%
%LPD*%
%AMOC8*
5,1,8,0,0,1.08239X$1,22.5*
%
%ADD10C,0.00600*%
%ADD11C,0.00400*%
%ADD12C,0.00700*%
%ADD13C,0.00800*%
%ADD14C,0.01000*%
%ADD15C,0.00500*%
%ADD16R,0.06200X0.02400*%
D10*
X0046306Y0107284D02*
X0050577Y0113690D01*
X0052752Y0113690D02*
X0057022Y0113690D01*
X0057022Y0112622D01*
X0052752Y0108352D01*
X0052752Y0107284D01*
X0050577Y0107284D02*
X0046306Y0113690D01*
X0054874Y0137284D02*
X0057009Y0137284D01*
X0058077Y0138352D01*
X0058077Y0140487D01*
X0055941Y0140487D01*
X0053806Y0142622D02*
X0053806Y0138352D01*
X0054874Y0137284D01*
X0060252Y0137284D02*
X0060252Y0143690D01*
X0064522Y0137284D01*
X0064522Y0143690D01*
X0066697Y0143690D02*
X0069900Y0143690D01*
X0070968Y0142622D01*
X0070968Y0138352D01*
X0069900Y0137284D01*
X0066697Y0137284D01*
X0066697Y0143690D01*
X0058077Y0142622D02*
X0057009Y0143690D01*
X0054874Y0143690D01*
X0053806Y0142622D01*
X0042620Y0156969D02*
X0038093Y0156969D01*
X0038093Y0160118D01*
X0038880Y0160118D01*
X0038880Y0161693D01*
X0038093Y0161693D01*
X0038093Y0164843D01*
X0042620Y0164843D01*
X0109470Y0171487D02*
X0113740Y0171487D01*
X0115915Y0171487D02*
X0118050Y0172555D01*
X0119118Y0172555D01*
X0120186Y0171487D01*
X0120186Y0169352D01*
X0119118Y0168284D01*
X0116983Y0168284D01*
X0115915Y0169352D01*
X0115915Y0171487D02*
X0115915Y0174690D01*
X0120186Y0174690D01*
X0122361Y0174690D02*
X0122361Y0170419D01*
X0124496Y0168284D01*
X0126631Y0170419D01*
X0126631Y0174690D01*
X0111605Y0173622D02*
X0111605Y0169352D01*
X0189254Y0203516D02*
X0189254Y0226516D01*
X0209254Y0226516D01*
X0209254Y0219016D01*
X0209128Y0219014D01*
X0209003Y0219008D01*
X0208878Y0218998D01*
X0208753Y0218984D01*
X0208628Y0218967D01*
X0208504Y0218945D01*
X0208381Y0218920D01*
X0208259Y0218890D01*
X0208138Y0218857D01*
X0208018Y0218820D01*
X0207899Y0218780D01*
X0207782Y0218735D01*
X0207665Y0218687D01*
X0207551Y0218635D01*
X0207438Y0218580D01*
X0207327Y0218521D01*
X0207218Y0218459D01*
X0207111Y0218393D01*
X0207006Y0218324D01*
X0206903Y0218252D01*
X0206802Y0218177D01*
X0206704Y0218098D01*
X0206609Y0218016D01*
X0206516Y0217932D01*
X0206426Y0217844D01*
X0206338Y0217754D01*
X0206254Y0217661D01*
X0206172Y0217566D01*
X0206093Y0217468D01*
X0206018Y0217367D01*
X0205946Y0217264D01*
X0205877Y0217159D01*
X0205811Y0217052D01*
X0205749Y0216943D01*
X0205690Y0216832D01*
X0205635Y0216719D01*
X0205583Y0216605D01*
X0205535Y0216488D01*
X0205490Y0216371D01*
X0205450Y0216252D01*
X0205413Y0216132D01*
X0205380Y0216011D01*
X0205350Y0215889D01*
X0205325Y0215766D01*
X0205303Y0215642D01*
X0205286Y0215517D01*
X0205272Y0215392D01*
X0205262Y0215267D01*
X0205256Y0215142D01*
X0205254Y0215016D01*
X0205256Y0214890D01*
X0205262Y0214765D01*
X0205272Y0214640D01*
X0205286Y0214515D01*
X0205303Y0214390D01*
X0205325Y0214266D01*
X0205350Y0214143D01*
X0205380Y0214021D01*
X0205413Y0213900D01*
X0205450Y0213780D01*
X0205490Y0213661D01*
X0205535Y0213544D01*
X0205583Y0213427D01*
X0205635Y0213313D01*
X0205690Y0213200D01*
X0205749Y0213089D01*
X0205811Y0212980D01*
X0205877Y0212873D01*
X0205946Y0212768D01*
X0206018Y0212665D01*
X0206093Y0212564D01*
X0206172Y0212466D01*
X0206254Y0212371D01*
X0206338Y0212278D01*
X0206426Y0212188D01*
X0206516Y0212100D01*
X0206609Y0212016D01*
X0206704Y0211934D01*
X0206802Y0211855D01*
X0206903Y0211780D01*
X0207006Y0211708D01*
X0207111Y0211639D01*
X0207218Y0211573D01*
X0207327Y0211511D01*
X0207438Y0211452D01*
X0207551Y0211397D01*
X0207665Y0211345D01*
X0207782Y0211297D01*
X0207899Y0211252D01*
X0208018Y0211212D01*
X0208138Y0211175D01*
X0208259Y0211142D01*
X0208381Y0211112D01*
X0208504Y0211087D01*
X0208628Y0211065D01*
X0208753Y0211048D01*
X0208878Y0211034D01*
X0209003Y0211024D01*
X0209128Y0211018D01*
X0209254Y0211016D01*
X0209254Y0203516D01*
X0189254Y0203516D01*
X0232306Y0168690D02*
X0232306Y0164419D01*
X0234441Y0162284D01*
X0236577Y0164419D01*
X0236577Y0168690D01*
X0238752Y0168690D02*
X0241955Y0168690D01*
X0243022Y0167622D01*
X0243022Y0165487D01*
X0241955Y0164419D01*
X0238752Y0164419D01*
X0238752Y0162284D02*
X0238752Y0168690D01*
X0240887Y0164419D02*
X0243022Y0162284D01*
X0245197Y0162284D02*
X0249468Y0162284D01*
X0251643Y0162284D02*
X0251643Y0168690D01*
X0255913Y0168690D01*
X0253778Y0165487D02*
X0251643Y0165487D01*
X0249468Y0168690D02*
X0245197Y0168690D01*
X0245197Y0162284D01*
X0245197Y0165487D02*
X0247332Y0165487D01*
X0243468Y0157690D02*
X0243468Y0151284D01*
X0239197Y0157690D01*
X0239197Y0151284D01*
X0237022Y0152352D02*
X0237022Y0154487D01*
X0234887Y0154487D01*
X0237022Y0156622D02*
X0235955Y0157690D01*
X0233819Y0157690D01*
X0232752Y0156622D01*
X0232752Y0152352D01*
X0233819Y0151284D01*
X0235955Y0151284D01*
X0237022Y0152352D01*
X0230577Y0153419D02*
X0230577Y0157690D01*
X0230577Y0153419D02*
X0228441Y0151284D01*
X0226306Y0153419D01*
X0226306Y0157690D01*
X0263806Y0175487D02*
X0268077Y0175487D01*
X0270252Y0175487D02*
X0272387Y0176555D01*
X0273455Y0176555D01*
X0274522Y0175487D01*
X0274522Y0173352D01*
X0273455Y0172284D01*
X0271319Y0172284D01*
X0270252Y0173352D01*
X0270252Y0175487D02*
X0270252Y0178690D01*
X0274522Y0178690D01*
X0276697Y0178690D02*
X0276697Y0174419D01*
X0278832Y0172284D01*
X0280968Y0174419D01*
X0280968Y0178690D01*
X0318806Y0167622D02*
X0318806Y0163352D01*
X0319874Y0162284D01*
X0322009Y0162284D01*
X0323077Y0163352D01*
X0323077Y0165487D01*
X0320941Y0165487D01*
X0318806Y0167622D02*
X0319874Y0168690D01*
X0322009Y0168690D01*
X0323077Y0167622D01*
X0325252Y0168690D02*
X0329522Y0162284D01*
X0329522Y0168690D01*
X0331697Y0168690D02*
X0334900Y0168690D01*
X0335968Y0167622D01*
X0335968Y0163352D01*
X0334900Y0162284D01*
X0331697Y0162284D01*
X0331697Y0168690D01*
X0325252Y0168690D02*
X0325252Y0162284D01*
X0345415Y0111690D02*
X0349686Y0105284D01*
X0351861Y0105284D02*
X0356131Y0105284D01*
X0353996Y0105284D02*
X0353996Y0111690D01*
X0351861Y0109555D01*
X0349686Y0111690D02*
X0345415Y0105284D01*
X0305346Y0047190D02*
X0303210Y0047190D01*
X0302143Y0046122D01*
X0299968Y0047190D02*
X0295697Y0047190D01*
X0297832Y0047190D02*
X0297832Y0040784D01*
X0302143Y0040784D02*
X0306413Y0045055D01*
X0306413Y0046122D01*
X0305346Y0047190D01*
X0306413Y0040784D02*
X0302143Y0040784D01*
X0293522Y0041852D02*
X0293522Y0047190D01*
X0289252Y0047190D02*
X0289252Y0041852D01*
X0290319Y0040784D01*
X0292455Y0040784D01*
X0293522Y0041852D01*
X0287077Y0041852D02*
X0287077Y0046122D01*
X0286009Y0047190D01*
X0283874Y0047190D01*
X0282806Y0046122D01*
X0282806Y0041852D01*
X0283874Y0040784D01*
X0286009Y0040784D01*
X0287077Y0041852D01*
X0236413Y0027784D02*
X0232143Y0027784D01*
X0234278Y0027784D02*
X0234278Y0034190D01*
X0232143Y0032055D01*
X0229968Y0034190D02*
X0225697Y0034190D01*
X0227832Y0034190D02*
X0227832Y0027784D01*
X0223522Y0028852D02*
X0223522Y0034190D01*
X0219252Y0034190D02*
X0219252Y0028852D01*
X0220319Y0027784D01*
X0222455Y0027784D01*
X0223522Y0028852D01*
X0217077Y0028852D02*
X0216009Y0027784D01*
X0213874Y0027784D01*
X0212806Y0028852D01*
X0212806Y0033122D01*
X0213874Y0034190D01*
X0216009Y0034190D01*
X0217077Y0033122D01*
X0217077Y0028852D01*
X0214707Y0046783D02*
X0182306Y0046783D01*
X0148131Y0100784D02*
X0148131Y0107190D01*
X0143861Y0107190D02*
X0148131Y0100784D01*
X0143861Y0100784D02*
X0143861Y0107190D01*
X0141699Y0107190D02*
X0139564Y0107190D01*
X0140631Y0107190D02*
X0140631Y0100784D01*
X0139564Y0100784D02*
X0141699Y0100784D01*
X0182306Y0107283D02*
X0214707Y0107283D01*
X0183906Y0103284D02*
X0183908Y0103376D01*
X0183914Y0103467D01*
X0183924Y0103558D01*
X0183938Y0103649D01*
X0183956Y0103739D01*
X0183978Y0103828D01*
X0184003Y0103915D01*
X0184033Y0104002D01*
X0184066Y0104088D01*
X0184103Y0104171D01*
X0184143Y0104254D01*
X0184187Y0104334D01*
X0184235Y0104412D01*
X0184286Y0104489D01*
X0184340Y0104562D01*
X0184397Y0104634D01*
X0184458Y0104703D01*
X0184521Y0104769D01*
X0184587Y0104832D01*
X0184656Y0104893D01*
X0184728Y0104950D01*
X0184801Y0105004D01*
X0184878Y0105055D01*
X0184956Y0105103D01*
X0185036Y0105147D01*
X0185119Y0105187D01*
X0185202Y0105224D01*
X0185288Y0105257D01*
X0185375Y0105287D01*
X0185462Y0105312D01*
X0185551Y0105334D01*
X0185641Y0105352D01*
X0185732Y0105366D01*
X0185823Y0105376D01*
X0185914Y0105382D01*
X0186006Y0105384D01*
X0186098Y0105382D01*
X0186189Y0105376D01*
X0186280Y0105366D01*
X0186371Y0105352D01*
X0186461Y0105334D01*
X0186550Y0105312D01*
X0186637Y0105287D01*
X0186724Y0105257D01*
X0186810Y0105224D01*
X0186893Y0105187D01*
X0186976Y0105147D01*
X0187056Y0105103D01*
X0187134Y0105055D01*
X0187211Y0105004D01*
X0187284Y0104950D01*
X0187356Y0104893D01*
X0187425Y0104832D01*
X0187491Y0104769D01*
X0187554Y0104703D01*
X0187615Y0104634D01*
X0187672Y0104562D01*
X0187726Y0104489D01*
X0187777Y0104412D01*
X0187825Y0104334D01*
X0187869Y0104254D01*
X0187909Y0104171D01*
X0187946Y0104088D01*
X0187979Y0104002D01*
X0188009Y0103915D01*
X0188034Y0103828D01*
X0188056Y0103739D01*
X0188074Y0103649D01*
X0188088Y0103558D01*
X0188098Y0103467D01*
X0188104Y0103376D01*
X0188106Y0103284D01*
X0188104Y0103192D01*
X0188098Y0103101D01*
X0188088Y0103010D01*
X0188074Y0102919D01*
X0188056Y0102829D01*
X0188034Y0102740D01*
X0188009Y0102653D01*
X0187979Y0102566D01*
X0187946Y0102480D01*
X0187909Y0102397D01*
X0187869Y0102314D01*
X0187825Y0102234D01*
X0187777Y0102156D01*
X0187726Y0102079D01*
X0187672Y0102006D01*
X0187615Y0101934D01*
X0187554Y0101865D01*
X0187491Y0101799D01*
X0187425Y0101736D01*
X0187356Y0101675D01*
X0187284Y0101618D01*
X0187211Y0101564D01*
X0187134Y0101513D01*
X0187056Y0101465D01*
X0186976Y0101421D01*
X0186893Y0101381D01*
X0186810Y0101344D01*
X0186724Y0101311D01*
X0186637Y0101281D01*
X0186550Y0101256D01*
X0186461Y0101234D01*
X0186371Y0101216D01*
X0186280Y0101202D01*
X0186189Y0101192D01*
X0186098Y0101186D01*
X0186006Y0101184D01*
X0185914Y0101186D01*
X0185823Y0101192D01*
X0185732Y0101202D01*
X0185641Y0101216D01*
X0185551Y0101234D01*
X0185462Y0101256D01*
X0185375Y0101281D01*
X0185288Y0101311D01*
X0185202Y0101344D01*
X0185119Y0101381D01*
X0185036Y0101421D01*
X0184956Y0101465D01*
X0184878Y0101513D01*
X0184801Y0101564D01*
X0184728Y0101618D01*
X0184656Y0101675D01*
X0184587Y0101736D01*
X0184521Y0101799D01*
X0184458Y0101865D01*
X0184397Y0101934D01*
X0184340Y0102006D01*
X0184286Y0102079D01*
X0184235Y0102156D01*
X0184187Y0102234D01*
X0184143Y0102314D01*
X0184103Y0102397D01*
X0184066Y0102480D01*
X0184033Y0102566D01*
X0184003Y0102653D01*
X0183978Y0102740D01*
X0183956Y0102829D01*
X0183938Y0102919D01*
X0183924Y0103010D01*
X0183914Y0103101D01*
X0183908Y0103192D01*
X0183906Y0103284D01*
X0187506Y0277984D02*
X0179506Y0277984D01*
X0179506Y0278484D01*
X0177506Y0278484D01*
X0177506Y0277984D01*
X0169506Y0277984D01*
X0169506Y0278484D01*
X0167506Y0278484D01*
X0167506Y0277984D01*
X0159506Y0277984D01*
X0159506Y0279984D01*
X0159506Y0280984D01*
X0161006Y0280984D01*
X0161006Y0281984D01*
X0166006Y0281984D01*
X0166006Y0280984D01*
X0167506Y0280984D01*
X0167506Y0293484D01*
X0168506Y0292484D01*
X0169506Y0293484D01*
X0169506Y0280984D01*
X0171006Y0280984D01*
X0171006Y0281984D01*
X0176006Y0281984D01*
X0176006Y0280984D01*
X0177506Y0280984D01*
X0177506Y0293984D01*
X0179506Y0293984D01*
X0187506Y0293984D01*
X0189506Y0293984D01*
X0197506Y0293984D01*
X0199506Y0293984D01*
X0207506Y0293984D01*
X0209506Y0293984D01*
X0217506Y0293984D01*
X0219506Y0293984D01*
X0227006Y0293984D01*
X0227506Y0293484D01*
X0227506Y0280984D01*
X0229506Y0280984D01*
X0229506Y0293484D01*
X0230006Y0293984D01*
X0237506Y0293984D01*
X0237506Y0280984D01*
X0237506Y0279984D01*
X0236006Y0279984D01*
X0236006Y0280984D01*
X0236006Y0281984D01*
X0231006Y0281984D01*
X0231006Y0280984D01*
X0229506Y0280984D01*
X0231006Y0280984D02*
X0231006Y0279984D01*
X0226006Y0279984D01*
X0226006Y0280984D01*
X0227506Y0280984D01*
X0226006Y0280984D02*
X0226006Y0281984D01*
X0221006Y0281984D01*
X0221006Y0280984D01*
X0219506Y0280984D01*
X0219506Y0293984D01*
X0217506Y0293984D02*
X0217506Y0280984D01*
X0219506Y0280984D01*
X0221006Y0280984D02*
X0221006Y0279984D01*
X0216006Y0279984D01*
X0216006Y0280984D01*
X0217506Y0280984D01*
X0216006Y0280984D02*
X0216006Y0281984D01*
X0211006Y0281984D01*
X0211006Y0280984D01*
X0209506Y0280984D01*
X0209506Y0293984D01*
X0207506Y0293984D02*
X0207506Y0280984D01*
X0209506Y0280984D01*
X0211006Y0280984D02*
X0211006Y0279984D01*
X0206006Y0279984D01*
X0206006Y0280984D01*
X0207506Y0280984D01*
X0206006Y0280984D02*
X0206006Y0281984D01*
X0201006Y0281984D01*
X0201006Y0280984D01*
X0199506Y0280984D01*
X0199506Y0293984D01*
X0197506Y0293984D02*
X0197506Y0280984D01*
X0199506Y0280984D01*
X0201006Y0280984D02*
X0201006Y0279984D01*
X0196006Y0279984D01*
X0196006Y0280984D01*
X0197506Y0280984D01*
X0196006Y0280984D02*
X0196006Y0281984D01*
X0191006Y0281984D01*
X0191006Y0280984D01*
X0189506Y0280984D01*
X0187506Y0280984D01*
X0186006Y0280984D01*
X0186006Y0281984D01*
X0181006Y0281984D01*
X0181006Y0280984D01*
X0179506Y0280984D01*
X0179506Y0293984D01*
X0177506Y0293984D02*
X0170006Y0293984D01*
X0169506Y0293484D01*
X0167506Y0293484D02*
X0167006Y0293984D01*
X0159506Y0293984D01*
X0159506Y0280984D01*
X0159506Y0279984D02*
X0161006Y0279984D01*
X0161006Y0280984D01*
X0166006Y0280984D02*
X0166006Y0279984D01*
X0171006Y0279984D01*
X0171006Y0280984D01*
X0169506Y0280984D02*
X0167506Y0280984D01*
X0176006Y0280984D02*
X0176006Y0279984D01*
X0181006Y0279984D01*
X0181006Y0280984D01*
X0179506Y0280984D02*
X0177506Y0280984D01*
X0186006Y0280984D02*
X0186006Y0279984D01*
X0191006Y0279984D01*
X0191006Y0280984D01*
X0189506Y0280984D02*
X0189506Y0293984D01*
X0187506Y0293984D02*
X0187506Y0280984D01*
X0187506Y0278484D02*
X0189506Y0278484D01*
X0189506Y0277984D01*
X0197506Y0277984D01*
X0197506Y0278484D01*
X0199506Y0278484D01*
X0199506Y0277984D01*
X0207506Y0277984D01*
X0207506Y0278484D01*
X0209506Y0278484D01*
X0209506Y0277984D01*
X0217506Y0277984D01*
X0217506Y0278484D01*
X0219506Y0278484D01*
X0219506Y0277984D01*
X0227506Y0277984D01*
X0227506Y0278484D01*
X0229506Y0278484D01*
X0229506Y0277984D01*
X0237506Y0277984D01*
X0237506Y0279984D01*
X0237506Y0280984D02*
X0236006Y0280984D01*
X0228506Y0292484D02*
X0227506Y0293484D01*
X0228506Y0292484D02*
X0229506Y0293484D01*
X0229506Y0296484D02*
X0227506Y0296484D01*
X0227506Y0296984D01*
X0224506Y0296984D01*
X0224506Y0297484D01*
X0222506Y0297484D01*
X0222506Y0296984D01*
X0219506Y0296984D01*
X0219506Y0296484D01*
X0217506Y0296484D01*
X0217506Y0296984D01*
X0214506Y0296984D01*
X0214506Y0297484D01*
X0212506Y0297484D01*
X0212506Y0296984D01*
X0209506Y0296984D01*
X0209506Y0296484D01*
X0207506Y0296484D01*
X0207506Y0296984D01*
X0204506Y0296984D01*
X0204506Y0297484D01*
X0202506Y0297484D01*
X0202506Y0296984D01*
X0199506Y0296984D01*
X0199506Y0296484D01*
X0197506Y0296484D01*
X0197506Y0296984D01*
X0194506Y0296984D01*
X0194506Y0297484D01*
X0192506Y0297484D01*
X0192506Y0296984D01*
X0189506Y0296984D01*
X0189506Y0296484D01*
X0187506Y0296484D01*
X0187506Y0296984D01*
X0184506Y0296984D01*
X0184506Y0297484D01*
X0182506Y0297484D01*
X0182506Y0296984D01*
X0179506Y0296984D01*
X0179506Y0296484D01*
X0177506Y0296484D01*
X0177506Y0296984D01*
X0174506Y0296984D01*
X0174506Y0297484D01*
X0172506Y0297484D01*
X0172506Y0296984D01*
X0169506Y0296984D01*
X0169506Y0296484D01*
X0167506Y0296484D01*
X0167506Y0296984D01*
X0164506Y0296984D01*
X0164506Y0297484D01*
X0162506Y0297484D01*
X0162506Y0296984D01*
X0159506Y0296984D01*
X0159506Y0293984D01*
X0158626Y0303784D02*
X0158626Y0309122D01*
X0159693Y0310190D01*
X0159693Y0306987D02*
X0157558Y0306987D01*
X0155383Y0306987D02*
X0154316Y0308055D01*
X0152180Y0308055D01*
X0151113Y0306987D01*
X0151113Y0304852D01*
X0152180Y0303784D01*
X0154316Y0303784D01*
X0155383Y0304852D01*
X0155383Y0306987D01*
X0148938Y0306987D02*
X0148938Y0304852D01*
X0147870Y0303784D01*
X0145735Y0303784D01*
X0144667Y0304852D01*
X0144667Y0306987D01*
X0145735Y0308055D01*
X0147870Y0308055D01*
X0148938Y0306987D01*
X0142499Y0308055D02*
X0141431Y0308055D01*
X0139296Y0305919D01*
X0139296Y0303784D02*
X0139296Y0308055D01*
X0137121Y0306987D02*
X0137121Y0304852D01*
X0136053Y0303784D01*
X0132851Y0303784D01*
X0132851Y0301649D02*
X0132851Y0308055D01*
X0136053Y0308055D01*
X0137121Y0306987D01*
X0130675Y0310190D02*
X0126405Y0303784D01*
X0127479Y0297555D02*
X0128547Y0297555D01*
X0129614Y0296487D01*
X0130682Y0297555D01*
X0131750Y0296487D01*
X0131750Y0293284D01*
X0129614Y0293284D02*
X0129614Y0296487D01*
X0127479Y0297555D02*
X0127479Y0293284D01*
X0125304Y0293284D02*
X0122101Y0293284D01*
X0121034Y0294352D01*
X0122101Y0295419D01*
X0125304Y0295419D01*
X0125304Y0296487D02*
X0125304Y0293284D01*
X0125304Y0296487D02*
X0124237Y0297555D01*
X0122101Y0297555D01*
X0119960Y0303784D02*
X0124230Y0310190D01*
X0117804Y0308055D02*
X0117804Y0306987D01*
X0116737Y0306987D01*
X0116737Y0308055D01*
X0117804Y0308055D01*
X0117804Y0304852D02*
X0116737Y0304852D01*
X0116737Y0303784D01*
X0117804Y0303784D01*
X0117804Y0304852D01*
X0114562Y0304852D02*
X0113494Y0305919D01*
X0111359Y0305919D01*
X0110291Y0306987D01*
X0111359Y0308055D01*
X0114562Y0308055D01*
X0114562Y0304852D02*
X0113494Y0303784D01*
X0110291Y0303784D01*
X0108116Y0304852D02*
X0108116Y0306987D01*
X0107049Y0308055D01*
X0103846Y0308055D01*
X0103846Y0301649D01*
X0103832Y0299690D02*
X0105968Y0297555D01*
X0105968Y0293284D01*
X0105968Y0296487D02*
X0101697Y0296487D01*
X0101697Y0297555D02*
X0101697Y0293284D01*
X0099522Y0293284D02*
X0099522Y0299690D01*
X0097387Y0297555D01*
X0095252Y0299690D01*
X0095252Y0293284D01*
X0093077Y0293284D02*
X0088806Y0293284D01*
X0088806Y0299690D01*
X0093077Y0299690D01*
X0090941Y0296487D02*
X0088806Y0296487D01*
X0088806Y0289190D02*
X0088806Y0282784D01*
X0093077Y0282784D01*
X0097387Y0282784D02*
X0095252Y0287055D01*
X0099522Y0287055D02*
X0097387Y0282784D01*
X0101697Y0282784D02*
X0103832Y0282784D01*
X0102765Y0282784D02*
X0102765Y0287055D01*
X0101697Y0287055D01*
X0102765Y0289190D02*
X0102765Y0290257D01*
X0105994Y0287055D02*
X0108129Y0282784D01*
X0110265Y0287055D01*
X0110278Y0293284D02*
X0110278Y0299690D01*
X0108143Y0299690D02*
X0112413Y0299690D01*
X0108116Y0304852D02*
X0107049Y0303784D01*
X0103846Y0303784D01*
X0101684Y0303784D02*
X0100616Y0304852D01*
X0100616Y0309122D01*
X0099549Y0308055D02*
X0101684Y0308055D01*
X0097387Y0308055D02*
X0095252Y0308055D01*
X0096319Y0309122D02*
X0096319Y0304852D01*
X0097387Y0303784D01*
X0093077Y0303784D02*
X0093077Y0306987D01*
X0092009Y0308055D01*
X0089874Y0308055D01*
X0088806Y0306987D01*
X0088806Y0310190D02*
X0088806Y0303784D01*
X0101697Y0297555D02*
X0103832Y0299690D01*
X0118885Y0288122D02*
X0119953Y0289190D01*
X0122088Y0289190D01*
X0123156Y0288122D01*
X0123156Y0287055D01*
X0118885Y0282784D01*
X0123156Y0282784D01*
X0125331Y0283852D02*
X0129601Y0288122D01*
X0129601Y0283852D01*
X0128534Y0282784D01*
X0126398Y0282784D01*
X0125331Y0283852D01*
X0125331Y0288122D01*
X0126398Y0289190D01*
X0128534Y0289190D01*
X0129601Y0288122D01*
X0131776Y0287055D02*
X0133911Y0289190D01*
X0133911Y0282784D01*
X0131776Y0282784D02*
X0136047Y0282784D01*
X0138222Y0283852D02*
X0139289Y0282784D01*
X0141425Y0282784D01*
X0142492Y0283852D01*
X0142492Y0288122D01*
X0141425Y0289190D01*
X0139289Y0289190D01*
X0138222Y0288122D01*
X0138222Y0287055D01*
X0139289Y0285987D01*
X0142492Y0285987D01*
X0141438Y0293284D02*
X0140370Y0293284D01*
X0140370Y0294352D01*
X0141438Y0294352D01*
X0141438Y0293284D01*
X0138195Y0294352D02*
X0137128Y0293284D01*
X0133925Y0293284D01*
X0133925Y0291149D02*
X0133925Y0297555D01*
X0137128Y0297555D01*
X0138195Y0296487D01*
X0138195Y0294352D01*
X0161855Y0304852D02*
X0161855Y0306987D01*
X0162923Y0308055D01*
X0165058Y0308055D01*
X0166126Y0306987D01*
X0166126Y0305919D01*
X0161855Y0305919D01*
X0161855Y0304852D02*
X0162923Y0303784D01*
X0165058Y0303784D01*
X0168301Y0303784D02*
X0168301Y0308055D01*
X0169368Y0308055D01*
X0170436Y0306987D01*
X0171503Y0308055D01*
X0172571Y0306987D01*
X0172571Y0303784D01*
X0170436Y0303784D02*
X0170436Y0306987D01*
X0174746Y0304852D02*
X0175814Y0305919D01*
X0179017Y0305919D01*
X0179017Y0306987D02*
X0179017Y0303784D01*
X0175814Y0303784D01*
X0174746Y0304852D01*
X0175814Y0308055D02*
X0177949Y0308055D01*
X0179017Y0306987D01*
X0181192Y0308055D02*
X0183327Y0308055D01*
X0182259Y0309122D02*
X0182259Y0304852D01*
X0183327Y0303784D01*
X0185489Y0303784D02*
X0186556Y0303784D01*
X0186556Y0304852D01*
X0185489Y0304852D01*
X0185489Y0303784D01*
X0188712Y0303784D02*
X0191914Y0303784D01*
X0192982Y0304852D01*
X0192982Y0306987D01*
X0191914Y0308055D01*
X0188712Y0308055D01*
X0188712Y0310190D02*
X0188712Y0303784D01*
X0195157Y0303784D02*
X0197292Y0303784D01*
X0196225Y0303784D02*
X0196225Y0310190D01*
X0195157Y0310190D01*
X0199454Y0306987D02*
X0199454Y0304852D01*
X0200522Y0303784D01*
X0202657Y0303784D01*
X0203724Y0304852D01*
X0203724Y0306987D01*
X0202657Y0308055D01*
X0200522Y0308055D01*
X0199454Y0306987D01*
X0205899Y0306987D02*
X0205899Y0304852D01*
X0206967Y0303784D01*
X0210170Y0303784D01*
X0210170Y0302717D02*
X0209102Y0301649D01*
X0208035Y0301649D01*
X0210170Y0302717D02*
X0210170Y0308055D01*
X0206967Y0308055D01*
X0205899Y0306987D01*
X0212345Y0306987D02*
X0213413Y0305919D01*
X0215548Y0305919D01*
X0216615Y0304852D01*
X0215548Y0303784D01*
X0212345Y0303784D01*
X0212345Y0306987D02*
X0213413Y0308055D01*
X0216615Y0308055D01*
X0218790Y0308055D02*
X0221993Y0308055D01*
X0223061Y0306987D01*
X0223061Y0304852D01*
X0221993Y0303784D01*
X0218790Y0303784D01*
X0218790Y0301649D02*
X0218790Y0308055D01*
X0225236Y0306987D02*
X0225236Y0304852D01*
X0226304Y0303784D01*
X0228439Y0303784D01*
X0229506Y0304852D01*
X0229506Y0306987D01*
X0228439Y0308055D01*
X0226304Y0308055D01*
X0225236Y0306987D01*
X0231681Y0308055D02*
X0233817Y0308055D01*
X0232749Y0309122D02*
X0232749Y0304852D01*
X0233817Y0303784D01*
X0235978Y0303784D02*
X0237046Y0303784D01*
X0237046Y0304852D01*
X0235978Y0304852D01*
X0235978Y0303784D01*
X0239201Y0304852D02*
X0239201Y0306987D01*
X0240269Y0308055D01*
X0243472Y0308055D01*
X0245647Y0306987D02*
X0245647Y0304852D01*
X0246714Y0303784D01*
X0248849Y0303784D01*
X0249917Y0304852D01*
X0249917Y0306987D01*
X0248849Y0308055D01*
X0246714Y0308055D01*
X0245647Y0306987D01*
X0243472Y0303784D02*
X0240269Y0303784D01*
X0239201Y0304852D01*
X0237506Y0296984D02*
X0234506Y0296984D01*
X0234506Y0297484D01*
X0232506Y0297484D01*
X0232506Y0296984D01*
X0229506Y0296984D01*
X0229506Y0296484D01*
X0237506Y0296984D02*
X0237506Y0293984D01*
X0252092Y0303784D02*
X0252092Y0308055D01*
X0253160Y0308055D01*
X0254227Y0306987D01*
X0255295Y0308055D01*
X0256363Y0306987D01*
X0256363Y0303784D01*
X0254227Y0303784D02*
X0254227Y0306987D01*
X0258538Y0303784D02*
X0262808Y0310190D01*
X0187506Y0278484D02*
X0187506Y0277984D01*
D11*
X0200647Y0271875D02*
X0202949Y0271875D01*
X0203717Y0271107D01*
X0203717Y0269573D01*
X0202949Y0268805D01*
X0200647Y0268805D01*
X0200647Y0267271D02*
X0200647Y0271875D01*
X0202182Y0268805D02*
X0203717Y0267271D01*
X0205251Y0267271D02*
X0208320Y0267271D01*
X0206786Y0267271D02*
X0206786Y0271875D01*
X0205251Y0270340D01*
X0209855Y0271107D02*
X0210622Y0271875D01*
X0212157Y0271875D01*
X0212924Y0271107D01*
X0209855Y0268038D01*
X0210622Y0267271D01*
X0212157Y0267271D01*
X0212924Y0268038D01*
X0212924Y0271107D01*
X0209855Y0271107D02*
X0209855Y0268038D01*
X0227517Y0266407D02*
X0227517Y0263337D01*
X0228285Y0262570D01*
X0229819Y0262570D01*
X0230587Y0263337D01*
X0232121Y0262570D02*
X0235191Y0265639D01*
X0235191Y0266407D01*
X0234423Y0267174D01*
X0232889Y0267174D01*
X0232121Y0266407D01*
X0230587Y0266407D02*
X0229819Y0267174D01*
X0228285Y0267174D01*
X0227517Y0266407D01*
X0232121Y0262570D02*
X0235191Y0262570D01*
X0236725Y0262570D02*
X0236725Y0263337D01*
X0239794Y0266407D01*
X0239794Y0267174D01*
X0236725Y0267174D01*
X0255006Y0267552D02*
X0255774Y0266784D01*
X0257308Y0266784D01*
X0258076Y0267552D01*
X0258076Y0271388D01*
X0259610Y0270621D02*
X0260378Y0271388D01*
X0261912Y0271388D01*
X0262680Y0270621D01*
X0262680Y0269854D01*
X0259610Y0266784D01*
X0262680Y0266784D01*
X0255006Y0267552D02*
X0255006Y0271388D01*
X0295980Y0272793D02*
X0295980Y0269723D01*
X0296747Y0268956D01*
X0298281Y0268956D01*
X0299049Y0269723D01*
X0300583Y0268956D02*
X0303653Y0272025D01*
X0303653Y0272793D01*
X0302885Y0273560D01*
X0301351Y0273560D01*
X0300583Y0272793D01*
X0299049Y0272793D02*
X0298281Y0273560D01*
X0296747Y0273560D01*
X0295980Y0272793D01*
X0300583Y0268956D02*
X0303653Y0268956D01*
X0305187Y0268956D02*
X0308257Y0272025D01*
X0308257Y0272793D01*
X0307489Y0273560D01*
X0305955Y0273560D01*
X0305187Y0272793D01*
X0305187Y0268956D02*
X0308257Y0268956D01*
X0273992Y0227657D02*
X0274759Y0226890D01*
X0274759Y0225355D01*
X0273992Y0224588D01*
X0273224Y0224588D01*
X0272457Y0225355D01*
X0272457Y0226890D01*
X0273224Y0227657D01*
X0273992Y0227657D01*
X0272457Y0226890D02*
X0271690Y0227657D01*
X0270922Y0227657D01*
X0270155Y0226890D01*
X0270155Y0225355D01*
X0270922Y0224588D01*
X0271690Y0224588D01*
X0272457Y0225355D01*
X0271690Y0223054D02*
X0270922Y0223054D01*
X0270155Y0222286D01*
X0270155Y0220752D01*
X0270922Y0219984D01*
X0270922Y0218450D02*
X0270155Y0217682D01*
X0270155Y0216148D01*
X0270922Y0215380D01*
X0273992Y0215380D01*
X0274759Y0216148D01*
X0274759Y0217682D01*
X0273992Y0218450D01*
X0274759Y0219984D02*
X0271690Y0223054D01*
X0274759Y0223054D02*
X0274759Y0219984D01*
X0274759Y0213709D02*
X0274759Y0210639D01*
X0274759Y0209105D02*
X0274759Y0206035D01*
X0274759Y0204501D02*
X0273224Y0202966D01*
X0273224Y0203733D02*
X0273224Y0201432D01*
X0274759Y0201432D02*
X0270155Y0201432D01*
X0270155Y0203733D01*
X0270922Y0204501D01*
X0272457Y0204501D01*
X0273224Y0203733D01*
X0271690Y0206035D02*
X0270155Y0207570D01*
X0274759Y0207570D01*
X0271690Y0210639D02*
X0270155Y0212174D01*
X0274759Y0212174D01*
X0245983Y0199788D02*
X0242914Y0199788D01*
X0242914Y0197486D01*
X0244449Y0198254D01*
X0245216Y0198254D01*
X0245983Y0197486D01*
X0245983Y0195952D01*
X0245216Y0195184D01*
X0243681Y0195184D01*
X0242914Y0195952D01*
X0241380Y0195184D02*
X0238310Y0195184D01*
X0236776Y0195184D02*
X0235241Y0196719D01*
X0236008Y0196719D02*
X0233706Y0196719D01*
X0233706Y0195184D02*
X0233706Y0199788D01*
X0236008Y0199788D01*
X0236776Y0199021D01*
X0236776Y0197486D01*
X0236008Y0196719D01*
X0238310Y0198254D02*
X0239845Y0199788D01*
X0239845Y0195184D01*
X0251706Y0181787D02*
X0253258Y0181787D01*
X0253775Y0181270D01*
X0253775Y0179201D01*
X0253258Y0178684D01*
X0251706Y0178684D01*
X0251706Y0181787D01*
X0254929Y0181270D02*
X0255446Y0181787D01*
X0256480Y0181787D01*
X0256997Y0181270D01*
X0256997Y0180753D01*
X0256480Y0180236D01*
X0256997Y0179718D01*
X0256997Y0179201D01*
X0256480Y0178684D01*
X0255446Y0178684D01*
X0254929Y0179201D01*
X0255963Y0180236D02*
X0256480Y0180236D01*
X0219692Y0201711D02*
X0218925Y0200943D01*
X0215856Y0200943D01*
X0215088Y0201711D01*
X0215088Y0203245D01*
X0215856Y0204013D01*
X0215856Y0205547D02*
X0215088Y0206315D01*
X0215088Y0207849D01*
X0215856Y0208617D01*
X0216623Y0208617D01*
X0219692Y0205547D01*
X0219692Y0208617D01*
X0218925Y0210151D02*
X0219692Y0210918D01*
X0219692Y0212453D01*
X0218925Y0213220D01*
X0218157Y0213220D01*
X0217390Y0212453D01*
X0217390Y0210151D01*
X0218925Y0210151D01*
X0217390Y0210151D02*
X0215856Y0211686D01*
X0215088Y0213220D01*
X0218925Y0204013D02*
X0219692Y0203245D01*
X0219692Y0201711D01*
X0220435Y0230731D02*
X0223505Y0230731D01*
X0225039Y0230731D02*
X0228109Y0233801D01*
X0228109Y0234568D01*
X0227341Y0235335D01*
X0225807Y0235335D01*
X0225039Y0234568D01*
X0221970Y0235335D02*
X0221970Y0230731D01*
X0218901Y0230731D02*
X0217366Y0232266D01*
X0218133Y0232266D02*
X0215832Y0232266D01*
X0215832Y0230731D02*
X0215832Y0235335D01*
X0218133Y0235335D01*
X0218901Y0234568D01*
X0218901Y0233033D01*
X0218133Y0232266D01*
X0220435Y0233801D02*
X0221970Y0235335D01*
X0225039Y0230731D02*
X0228109Y0230731D01*
X0296280Y0177793D02*
X0296280Y0174723D01*
X0297047Y0173956D01*
X0298581Y0173956D01*
X0299349Y0174723D01*
X0300883Y0173956D02*
X0303953Y0177025D01*
X0303953Y0177793D01*
X0303185Y0178560D01*
X0301651Y0178560D01*
X0300883Y0177793D01*
X0299349Y0177793D02*
X0298581Y0178560D01*
X0297047Y0178560D01*
X0296280Y0177793D01*
X0300883Y0173956D02*
X0303953Y0173956D01*
X0305487Y0174723D02*
X0306255Y0173956D01*
X0307789Y0173956D01*
X0308557Y0174723D01*
X0308557Y0176258D01*
X0307789Y0177025D01*
X0307022Y0177025D01*
X0305487Y0176258D01*
X0305487Y0178560D01*
X0308557Y0178560D01*
X0302320Y0112186D02*
X0302320Y0111418D01*
X0299251Y0108349D01*
X0299251Y0107582D01*
X0297717Y0107582D02*
X0296182Y0109117D01*
X0296949Y0109117D02*
X0294647Y0109117D01*
X0294647Y0107582D02*
X0294647Y0112186D01*
X0296949Y0112186D01*
X0297717Y0111418D01*
X0297717Y0109884D01*
X0296949Y0109117D01*
X0299251Y0112186D02*
X0302320Y0112186D01*
X0301731Y0099831D02*
X0300196Y0099064D01*
X0298661Y0097530D01*
X0300963Y0097530D01*
X0301731Y0096762D01*
X0301731Y0095995D01*
X0300963Y0095228D01*
X0299429Y0095228D01*
X0298661Y0095995D01*
X0298661Y0097530D01*
X0297127Y0097530D02*
X0296359Y0096762D01*
X0294057Y0096762D01*
X0294057Y0095228D02*
X0294057Y0099831D01*
X0296359Y0099831D01*
X0297127Y0099064D01*
X0297127Y0097530D01*
X0295592Y0096762D02*
X0297127Y0095228D01*
X0287820Y0096526D02*
X0287053Y0095759D01*
X0285518Y0095759D01*
X0284751Y0096526D01*
X0283217Y0095759D02*
X0281682Y0097294D01*
X0282449Y0097294D02*
X0280147Y0097294D01*
X0280147Y0095759D02*
X0280147Y0100363D01*
X0282449Y0100363D01*
X0283217Y0099596D01*
X0283217Y0098061D01*
X0282449Y0097294D01*
X0284751Y0099596D02*
X0285518Y0100363D01*
X0287053Y0100363D01*
X0287820Y0099596D01*
X0287820Y0098828D01*
X0287053Y0098061D01*
X0287820Y0097294D01*
X0287820Y0096526D01*
X0287053Y0098061D02*
X0286286Y0098061D01*
X0285963Y0107169D02*
X0285963Y0111772D01*
X0283661Y0109470D01*
X0286731Y0109470D01*
X0282127Y0109470D02*
X0281359Y0108703D01*
X0279057Y0108703D01*
X0279057Y0107169D02*
X0279057Y0111772D01*
X0281359Y0111772D01*
X0282127Y0111005D01*
X0282127Y0109470D01*
X0280592Y0108703D02*
X0282127Y0107169D01*
X0249183Y0086808D02*
X0249183Y0086041D01*
X0248416Y0085274D01*
X0249183Y0084506D01*
X0249183Y0083739D01*
X0248416Y0082972D01*
X0246881Y0082972D01*
X0246114Y0083739D01*
X0244580Y0082972D02*
X0241510Y0082972D01*
X0241510Y0087576D01*
X0246114Y0086808D02*
X0246881Y0087576D01*
X0248416Y0087576D01*
X0249183Y0086808D01*
X0248416Y0085274D02*
X0247649Y0085274D01*
X0248196Y0079595D02*
X0248196Y0074991D01*
X0246661Y0074991D02*
X0249731Y0074991D01*
X0246661Y0078061D02*
X0248196Y0079595D01*
X0245127Y0074991D02*
X0242057Y0074991D01*
X0242057Y0079595D01*
X0241370Y0053288D02*
X0240602Y0052521D01*
X0240602Y0051754D01*
X0241370Y0050986D01*
X0243672Y0050986D01*
X0243672Y0049452D02*
X0243672Y0052521D01*
X0242904Y0053288D01*
X0241370Y0053288D01*
X0237533Y0053288D02*
X0237533Y0048684D01*
X0235998Y0048684D02*
X0239068Y0048684D01*
X0240602Y0049452D02*
X0241370Y0048684D01*
X0242904Y0048684D01*
X0243672Y0049452D01*
X0237533Y0053288D02*
X0235998Y0051754D01*
X0234464Y0052521D02*
X0233696Y0053288D01*
X0232162Y0053288D01*
X0231395Y0052521D01*
X0231395Y0049452D01*
X0232162Y0048684D01*
X0233696Y0048684D01*
X0234464Y0049452D01*
X0247206Y0036521D02*
X0247206Y0033452D01*
X0247974Y0032684D01*
X0249508Y0032684D01*
X0250276Y0033452D01*
X0251810Y0032684D02*
X0254880Y0035754D01*
X0254880Y0036521D01*
X0254112Y0037288D01*
X0252578Y0037288D01*
X0251810Y0036521D01*
X0250276Y0036521D02*
X0249508Y0037288D01*
X0247974Y0037288D01*
X0247206Y0036521D01*
X0251810Y0032684D02*
X0254880Y0032684D01*
X0256414Y0033452D02*
X0259483Y0036521D01*
X0259483Y0033452D01*
X0258716Y0032684D01*
X0257181Y0032684D01*
X0256414Y0033452D01*
X0256414Y0036521D01*
X0257181Y0037288D01*
X0258716Y0037288D01*
X0259483Y0036521D01*
X0261998Y0033788D02*
X0264300Y0033788D01*
X0265068Y0033021D01*
X0265068Y0031486D01*
X0264300Y0030719D01*
X0261998Y0030719D01*
X0261998Y0029184D02*
X0261998Y0033788D01*
X0263533Y0030719D02*
X0265068Y0029184D01*
X0266602Y0029952D02*
X0267370Y0029184D01*
X0268904Y0029184D01*
X0269672Y0029952D01*
X0269672Y0031486D01*
X0268904Y0032254D01*
X0268137Y0032254D01*
X0266602Y0031486D01*
X0266602Y0033788D01*
X0269672Y0033788D01*
X0201380Y0040684D02*
X0198310Y0040684D01*
X0199845Y0040684D02*
X0199845Y0045288D01*
X0198310Y0043754D01*
X0196776Y0044521D02*
X0196008Y0045288D01*
X0194474Y0045288D01*
X0193706Y0044521D01*
X0193706Y0041452D01*
X0194474Y0040684D01*
X0196008Y0040684D01*
X0196776Y0041452D01*
X0188306Y0041848D02*
X0187539Y0041080D01*
X0188306Y0041848D02*
X0188306Y0043382D01*
X0187539Y0044150D01*
X0184470Y0044150D01*
X0183702Y0043382D01*
X0183702Y0041848D01*
X0184470Y0041080D01*
X0185237Y0041080D01*
X0186004Y0041848D01*
X0186004Y0044150D01*
X0184470Y0039546D02*
X0183702Y0038778D01*
X0183702Y0037244D01*
X0184470Y0036476D01*
X0187539Y0036476D01*
X0188306Y0037244D01*
X0188306Y0038778D01*
X0187539Y0039546D01*
X0161983Y0050035D02*
X0161983Y0052337D01*
X0161216Y0053105D01*
X0158147Y0053105D01*
X0157380Y0052337D01*
X0157380Y0050035D01*
X0161983Y0050035D01*
X0161983Y0054639D02*
X0161983Y0057709D01*
X0161983Y0056174D02*
X0157380Y0056174D01*
X0158914Y0054639D01*
X0159702Y0071976D02*
X0159702Y0074278D01*
X0160470Y0075046D01*
X0162004Y0075046D01*
X0162772Y0074278D01*
X0162772Y0071976D01*
X0164306Y0071976D02*
X0159702Y0071976D01*
X0162772Y0073511D02*
X0164306Y0075046D01*
X0163539Y0076580D02*
X0164306Y0077348D01*
X0164306Y0078882D01*
X0163539Y0079650D01*
X0160470Y0079650D01*
X0159702Y0078882D01*
X0159702Y0077348D01*
X0160470Y0076580D01*
X0161237Y0076580D01*
X0162004Y0077348D01*
X0162004Y0079650D01*
X0157539Y0093684D02*
X0158306Y0094452D01*
X0158306Y0095986D01*
X0157539Y0096754D01*
X0157539Y0098288D02*
X0156772Y0098288D01*
X0156004Y0099055D01*
X0156004Y0100590D01*
X0156772Y0101357D01*
X0157539Y0101357D01*
X0158306Y0100590D01*
X0158306Y0099055D01*
X0157539Y0098288D01*
X0156004Y0099055D02*
X0155237Y0098288D01*
X0154470Y0098288D01*
X0153702Y0099055D01*
X0153702Y0100590D01*
X0154470Y0101357D01*
X0155237Y0101357D01*
X0156004Y0100590D01*
X0154470Y0096754D02*
X0153702Y0095986D01*
X0153702Y0094452D01*
X0154470Y0093684D01*
X0157539Y0093684D01*
X0143672Y0088986D02*
X0140602Y0088986D01*
X0142904Y0091288D01*
X0142904Y0086684D01*
X0139068Y0086684D02*
X0135998Y0086684D01*
X0135998Y0091288D01*
X0126880Y0091219D02*
X0126112Y0091986D01*
X0123810Y0091986D01*
X0123810Y0090452D01*
X0124578Y0089684D01*
X0126112Y0089684D01*
X0126880Y0090452D01*
X0126880Y0091219D01*
X0125345Y0093521D02*
X0123810Y0091986D01*
X0122276Y0090452D02*
X0121508Y0089684D01*
X0119974Y0089684D01*
X0119206Y0090452D01*
X0119206Y0093521D01*
X0119974Y0094288D01*
X0121508Y0094288D01*
X0122276Y0093521D01*
X0125345Y0093521D02*
X0126880Y0094288D01*
X0113380Y0094021D02*
X0112612Y0094788D01*
X0111078Y0094788D01*
X0110310Y0094021D01*
X0108776Y0094021D02*
X0108008Y0094788D01*
X0106474Y0094788D01*
X0105706Y0094021D01*
X0105706Y0090952D01*
X0106474Y0090184D01*
X0108008Y0090184D01*
X0108776Y0090952D01*
X0110310Y0090184D02*
X0113380Y0093254D01*
X0113380Y0094021D01*
X0113380Y0090184D02*
X0110310Y0090184D01*
X0112647Y0063828D02*
X0112647Y0059224D01*
X0115717Y0059224D01*
X0117251Y0059224D02*
X0120320Y0062293D01*
X0120320Y0063060D01*
X0119553Y0063828D01*
X0118018Y0063828D01*
X0117251Y0063060D01*
X0117251Y0059224D02*
X0120320Y0059224D01*
X0127147Y0055031D02*
X0127147Y0053496D01*
X0127915Y0052729D01*
X0127915Y0051194D02*
X0127147Y0050427D01*
X0127147Y0048125D01*
X0131751Y0048125D01*
X0131751Y0050427D01*
X0130984Y0051194D01*
X0127915Y0051194D01*
X0127147Y0055031D02*
X0127915Y0055798D01*
X0128682Y0055798D01*
X0131751Y0052729D01*
X0131751Y0055798D01*
X0196162Y0122184D02*
X0197696Y0122184D01*
X0198464Y0122952D01*
X0199998Y0122184D02*
X0203068Y0125254D01*
X0203068Y0126021D01*
X0202300Y0126788D01*
X0200766Y0126788D01*
X0199998Y0126021D01*
X0198464Y0126021D02*
X0197696Y0126788D01*
X0196162Y0126788D01*
X0195395Y0126021D01*
X0195395Y0122952D01*
X0196162Y0122184D01*
X0199998Y0122184D02*
X0203068Y0122184D01*
X0204602Y0122184D02*
X0207672Y0122184D01*
X0206137Y0122184D02*
X0206137Y0126788D01*
X0204602Y0125254D01*
X0210702Y0124486D02*
X0210702Y0122184D01*
X0215306Y0122184D01*
X0213772Y0122184D02*
X0213772Y0124486D01*
X0213004Y0125254D01*
X0211470Y0125254D01*
X0210702Y0124486D01*
X0212237Y0126788D02*
X0210702Y0128323D01*
X0215306Y0128323D01*
X0215306Y0129857D02*
X0215306Y0126788D01*
X0215306Y0125254D02*
X0213772Y0123719D01*
X0174983Y0126452D02*
X0174216Y0125684D01*
X0172681Y0125684D01*
X0171914Y0126452D01*
X0174983Y0129521D01*
X0174983Y0126452D01*
X0171914Y0126452D02*
X0171914Y0129521D01*
X0172681Y0130288D01*
X0174216Y0130288D01*
X0174983Y0129521D01*
X0170380Y0125684D02*
X0167310Y0125684D01*
X0168845Y0125684D02*
X0168845Y0130288D01*
X0167310Y0128754D01*
X0165776Y0129521D02*
X0165008Y0130288D01*
X0163474Y0130288D01*
X0162706Y0129521D01*
X0162706Y0126452D01*
X0163474Y0125684D01*
X0165008Y0125684D01*
X0165776Y0126452D01*
X0153231Y0170413D02*
X0153231Y0175017D01*
X0150929Y0172715D01*
X0153998Y0172715D01*
X0149394Y0173482D02*
X0146325Y0170413D01*
X0149394Y0170413D01*
X0149394Y0173482D02*
X0149394Y0174249D01*
X0148627Y0175017D01*
X0147093Y0175017D01*
X0146325Y0174249D01*
X0144791Y0174249D02*
X0144023Y0175017D01*
X0142489Y0175017D01*
X0141721Y0174249D01*
X0141721Y0171180D01*
X0142489Y0170413D01*
X0144023Y0170413D01*
X0144791Y0171180D01*
X0105052Y0177701D02*
X0105052Y0179770D01*
X0104535Y0180287D01*
X0103501Y0180287D01*
X0102984Y0179770D01*
X0102984Y0179253D01*
X0103501Y0178736D01*
X0105052Y0178736D01*
X0105052Y0177701D02*
X0104535Y0177184D01*
X0103501Y0177184D01*
X0102984Y0177701D01*
X0101829Y0177701D02*
X0101829Y0179770D01*
X0101312Y0180287D01*
X0099761Y0180287D01*
X0099761Y0177184D01*
X0101312Y0177184D01*
X0101829Y0177701D01*
X0090955Y0164520D02*
X0091722Y0163753D01*
X0091722Y0162986D01*
X0090955Y0162218D01*
X0089420Y0162218D01*
X0088653Y0162986D01*
X0088653Y0163753D01*
X0089420Y0164520D01*
X0090955Y0164520D01*
X0090955Y0162218D02*
X0091722Y0161451D01*
X0091722Y0160684D01*
X0090955Y0159917D01*
X0089420Y0159917D01*
X0088653Y0160684D01*
X0088653Y0161451D01*
X0089420Y0162218D01*
X0087118Y0162218D02*
X0087118Y0163753D01*
X0086351Y0164520D01*
X0084049Y0164520D01*
X0084049Y0159917D01*
X0084049Y0161451D02*
X0086351Y0161451D01*
X0087118Y0162218D01*
X0085583Y0161451D02*
X0087118Y0159917D01*
X0065320Y0181523D02*
X0062251Y0181523D01*
X0065320Y0184592D01*
X0065320Y0185359D01*
X0064553Y0186127D01*
X0063018Y0186127D01*
X0062251Y0185359D01*
X0060717Y0185359D02*
X0060717Y0183825D01*
X0059949Y0183057D01*
X0057647Y0183057D01*
X0057647Y0181523D02*
X0057647Y0186127D01*
X0059949Y0186127D01*
X0060717Y0185359D01*
X0059182Y0183057D02*
X0060717Y0181523D01*
X0070025Y0205570D02*
X0071559Y0205570D01*
X0072327Y0206337D01*
X0073861Y0205570D02*
X0076931Y0208639D01*
X0076931Y0209407D01*
X0076163Y0210174D01*
X0074629Y0210174D01*
X0073861Y0209407D01*
X0072327Y0209407D02*
X0071559Y0210174D01*
X0070025Y0210174D01*
X0069257Y0209407D01*
X0069257Y0206337D01*
X0070025Y0205570D01*
X0073861Y0205570D02*
X0076931Y0205570D01*
X0078465Y0206337D02*
X0079233Y0205570D01*
X0080767Y0205570D01*
X0081535Y0206337D01*
X0081535Y0209407D01*
X0080767Y0210174D01*
X0079233Y0210174D01*
X0078465Y0209407D01*
X0078465Y0208639D01*
X0079233Y0207872D01*
X0081535Y0207872D01*
X0091895Y0206719D02*
X0094196Y0206719D01*
X0094964Y0207486D01*
X0094964Y0209021D01*
X0094196Y0209788D01*
X0091895Y0209788D01*
X0091895Y0205184D01*
X0093429Y0206719D02*
X0094964Y0205184D01*
X0096498Y0205184D02*
X0099568Y0208254D01*
X0099568Y0209021D01*
X0098800Y0209788D01*
X0097266Y0209788D01*
X0096498Y0209021D01*
X0096498Y0205184D02*
X0099568Y0205184D01*
X0101102Y0205952D02*
X0101102Y0207486D01*
X0103404Y0207486D01*
X0104172Y0206719D01*
X0104172Y0205952D01*
X0103404Y0205184D01*
X0101870Y0205184D01*
X0101102Y0205952D01*
X0101102Y0207486D02*
X0102637Y0209021D01*
X0104172Y0209788D01*
X0104267Y0220798D02*
X0104267Y0225402D01*
X0102732Y0223868D01*
X0101198Y0223868D02*
X0100430Y0223100D01*
X0101198Y0222333D01*
X0101198Y0221566D01*
X0100430Y0220798D01*
X0098896Y0220798D01*
X0098128Y0221566D01*
X0096594Y0221566D02*
X0095826Y0220798D01*
X0094292Y0220798D01*
X0093524Y0221566D01*
X0093524Y0224635D01*
X0094292Y0225402D01*
X0095826Y0225402D01*
X0096594Y0224635D01*
X0098128Y0224635D02*
X0098896Y0225402D01*
X0100430Y0225402D01*
X0101198Y0224635D01*
X0101198Y0223868D01*
X0100430Y0223100D02*
X0099663Y0223100D01*
X0102732Y0220798D02*
X0105802Y0220798D01*
X0074168Y0220904D02*
X0073401Y0220137D01*
X0071866Y0220137D01*
X0071099Y0220904D01*
X0069565Y0220137D02*
X0066495Y0220137D01*
X0064961Y0220137D02*
X0063426Y0221672D01*
X0064193Y0221672D02*
X0061891Y0221672D01*
X0061891Y0220137D02*
X0061891Y0224741D01*
X0064193Y0224741D01*
X0064961Y0223974D01*
X0064961Y0222439D01*
X0064193Y0221672D01*
X0066495Y0223206D02*
X0068030Y0224741D01*
X0068030Y0220137D01*
X0071099Y0223974D02*
X0071866Y0224741D01*
X0073401Y0224741D01*
X0074168Y0223974D01*
X0074168Y0223206D01*
X0073401Y0222439D01*
X0074168Y0221672D01*
X0074168Y0220904D01*
X0073401Y0222439D02*
X0072634Y0222439D01*
X0072097Y0233731D02*
X0072097Y0238335D01*
X0069795Y0236033D01*
X0072865Y0236033D01*
X0068261Y0233731D02*
X0065191Y0233731D01*
X0063657Y0233731D02*
X0062122Y0235266D01*
X0062889Y0235266D02*
X0060587Y0235266D01*
X0060587Y0233731D02*
X0060587Y0238335D01*
X0062889Y0238335D01*
X0063657Y0237568D01*
X0063657Y0236033D01*
X0062889Y0235266D01*
X0065191Y0236801D02*
X0066726Y0238335D01*
X0066726Y0233731D01*
X0080151Y0264137D02*
X0081685Y0264137D01*
X0082453Y0264904D01*
X0083987Y0264904D02*
X0084755Y0264137D01*
X0086289Y0264137D01*
X0087057Y0264904D01*
X0087057Y0265672D01*
X0086289Y0266439D01*
X0085522Y0266439D01*
X0086289Y0266439D02*
X0087057Y0267206D01*
X0087057Y0267974D01*
X0086289Y0268741D01*
X0084755Y0268741D01*
X0083987Y0267974D01*
X0082453Y0267974D02*
X0081685Y0268741D01*
X0080151Y0268741D01*
X0079383Y0267974D01*
X0079383Y0264904D01*
X0080151Y0264137D01*
X0088591Y0264904D02*
X0088591Y0267974D01*
X0089359Y0268741D01*
X0090893Y0268741D01*
X0091661Y0267974D01*
X0088591Y0264904D01*
X0089359Y0264137D01*
X0090893Y0264137D01*
X0091661Y0264904D01*
X0091661Y0267974D01*
X0100406Y0267552D02*
X0101174Y0266784D01*
X0102708Y0266784D01*
X0103476Y0267552D01*
X0103476Y0271388D01*
X0105010Y0269854D02*
X0106545Y0271388D01*
X0106545Y0266784D01*
X0105010Y0266784D02*
X0108080Y0266784D01*
X0100406Y0267552D02*
X0100406Y0271388D01*
X0140721Y0271180D02*
X0141489Y0270413D01*
X0143023Y0270413D01*
X0143791Y0271180D01*
X0145325Y0270413D02*
X0148394Y0273482D01*
X0148394Y0274249D01*
X0147627Y0275017D01*
X0146093Y0275017D01*
X0145325Y0274249D01*
X0143791Y0274249D02*
X0143023Y0275017D01*
X0141489Y0275017D01*
X0140721Y0274249D01*
X0140721Y0271180D01*
X0145325Y0270413D02*
X0148394Y0270413D01*
X0149929Y0271180D02*
X0150696Y0270413D01*
X0152231Y0270413D01*
X0152998Y0271180D01*
X0152998Y0271947D01*
X0152231Y0272715D01*
X0151464Y0272715D01*
X0152231Y0272715D02*
X0152998Y0273482D01*
X0152998Y0274249D01*
X0152231Y0275017D01*
X0150696Y0275017D01*
X0149929Y0274249D01*
D12*
X0177168Y0121840D02*
X0179270Y0121840D01*
X0178219Y0121840D02*
X0178219Y0115534D01*
X0177168Y0115534D02*
X0179270Y0115534D01*
X0181465Y0116585D02*
X0182516Y0115534D01*
X0184618Y0115534D01*
X0185669Y0116585D01*
X0187911Y0116585D02*
X0188962Y0115534D01*
X0191063Y0115534D01*
X0192114Y0116585D01*
X0192114Y0117636D01*
X0191063Y0118687D01*
X0190013Y0118687D01*
X0191063Y0118687D02*
X0192114Y0119738D01*
X0192114Y0120789D01*
X0191063Y0121840D01*
X0188962Y0121840D01*
X0187911Y0120789D01*
X0185669Y0120789D02*
X0184618Y0121840D01*
X0182516Y0121840D01*
X0181465Y0120789D01*
X0181465Y0116585D01*
D13*
X0038113Y0053677D02*
X0032404Y0053677D01*
X0032404Y0064110D01*
X0023939Y0064110D01*
X0020987Y0061157D01*
X0006026Y0061157D01*
X0006026Y0064504D01*
X0001400Y0064504D01*
X0001400Y0079465D01*
X0006026Y0079465D01*
X0006026Y0082811D01*
X0020987Y0082811D01*
X0023939Y0079858D01*
X0032404Y0079858D01*
X0032404Y0090291D01*
X0038113Y0090291D01*
X0038113Y0087142D02*
X0038113Y0056827D01*
X0136483Y0052394D02*
X0140420Y0052394D01*
X0138451Y0048457D01*
X0136483Y0052394D01*
X0148215Y0048575D02*
X0152152Y0048575D01*
X0150183Y0052512D01*
X0148215Y0048575D01*
X0131577Y0181512D02*
X0128034Y0185055D01*
X0128034Y0196079D01*
X0128034Y0207890D02*
X0128034Y0218913D01*
X0131577Y0222457D01*
X0168979Y0222457D01*
X0168979Y0207890D01*
X0168979Y0196079D02*
X0168979Y0181512D01*
X0131577Y0181512D01*
X0130199Y0208086D02*
X0130354Y0208533D01*
X0130520Y0208975D01*
X0130697Y0209414D01*
X0130884Y0209848D01*
X0131082Y0210277D01*
X0131290Y0210701D01*
X0131509Y0211120D01*
X0131737Y0211533D01*
X0131976Y0211941D01*
X0132225Y0212343D01*
X0132484Y0212739D01*
X0132752Y0213128D01*
X0133030Y0213510D01*
X0133316Y0213886D01*
X0133612Y0214254D01*
X0133917Y0214615D01*
X0134231Y0214969D01*
X0134553Y0215314D01*
X0134884Y0215652D01*
X0135223Y0215981D01*
X0135570Y0216303D01*
X0135924Y0216615D01*
X0136286Y0216919D01*
X0136655Y0217214D01*
X0137032Y0217499D01*
X0137415Y0217776D01*
X0137805Y0218042D01*
X0138202Y0218300D01*
X0138605Y0218547D01*
X0139013Y0218785D01*
X0139427Y0219012D01*
X0139847Y0219229D01*
X0140272Y0219436D01*
X0140702Y0219632D01*
X0141136Y0219818D01*
X0141575Y0219993D01*
X0142018Y0220158D01*
X0142465Y0220311D01*
X0142916Y0220454D01*
X0143370Y0220585D01*
X0143827Y0220705D01*
X0144287Y0220814D01*
X0144749Y0220912D01*
X0145214Y0220998D01*
X0145681Y0221073D01*
X0146149Y0221136D01*
X0146619Y0221188D01*
X0147089Y0221229D01*
X0147561Y0221258D01*
X0148033Y0221275D01*
X0148506Y0221281D01*
X0148979Y0221275D01*
X0149451Y0221258D01*
X0149923Y0221229D01*
X0150393Y0221188D01*
X0150863Y0221136D01*
X0151331Y0221073D01*
X0151798Y0220998D01*
X0152263Y0220912D01*
X0152725Y0220814D01*
X0153185Y0220705D01*
X0153642Y0220585D01*
X0154096Y0220454D01*
X0154547Y0220311D01*
X0154994Y0220158D01*
X0155437Y0219993D01*
X0155876Y0219818D01*
X0156310Y0219632D01*
X0156740Y0219436D01*
X0157165Y0219229D01*
X0157585Y0219012D01*
X0157999Y0218785D01*
X0158407Y0218547D01*
X0158810Y0218300D01*
X0159207Y0218042D01*
X0159597Y0217776D01*
X0159980Y0217499D01*
X0160357Y0217214D01*
X0160726Y0216919D01*
X0161088Y0216615D01*
X0161442Y0216303D01*
X0161789Y0215981D01*
X0162128Y0215652D01*
X0162459Y0215314D01*
X0162781Y0214969D01*
X0163095Y0214615D01*
X0163400Y0214254D01*
X0163696Y0213886D01*
X0163982Y0213510D01*
X0164260Y0213128D01*
X0164528Y0212739D01*
X0164787Y0212343D01*
X0165036Y0211941D01*
X0165275Y0211533D01*
X0165503Y0211120D01*
X0165722Y0210701D01*
X0165930Y0210277D01*
X0166128Y0209848D01*
X0166315Y0209414D01*
X0166492Y0208975D01*
X0166658Y0208533D01*
X0166813Y0208086D01*
X0166813Y0195882D02*
X0166658Y0195435D01*
X0166492Y0194993D01*
X0166315Y0194554D01*
X0166128Y0194120D01*
X0165930Y0193691D01*
X0165722Y0193267D01*
X0165503Y0192848D01*
X0165275Y0192435D01*
X0165036Y0192027D01*
X0164787Y0191625D01*
X0164528Y0191229D01*
X0164260Y0190840D01*
X0163982Y0190458D01*
X0163696Y0190082D01*
X0163400Y0189714D01*
X0163095Y0189353D01*
X0162781Y0188999D01*
X0162459Y0188654D01*
X0162128Y0188316D01*
X0161789Y0187987D01*
X0161442Y0187665D01*
X0161088Y0187353D01*
X0160726Y0187049D01*
X0160357Y0186754D01*
X0159980Y0186469D01*
X0159597Y0186192D01*
X0159207Y0185926D01*
X0158810Y0185668D01*
X0158407Y0185421D01*
X0157999Y0185183D01*
X0157585Y0184956D01*
X0157165Y0184739D01*
X0156740Y0184532D01*
X0156310Y0184336D01*
X0155876Y0184150D01*
X0155437Y0183975D01*
X0154994Y0183810D01*
X0154547Y0183657D01*
X0154096Y0183514D01*
X0153642Y0183383D01*
X0153185Y0183263D01*
X0152725Y0183154D01*
X0152263Y0183056D01*
X0151798Y0182970D01*
X0151331Y0182895D01*
X0150863Y0182832D01*
X0150393Y0182780D01*
X0149923Y0182739D01*
X0149451Y0182710D01*
X0148979Y0182693D01*
X0148506Y0182687D01*
X0148033Y0182693D01*
X0147561Y0182710D01*
X0147089Y0182739D01*
X0146619Y0182780D01*
X0146149Y0182832D01*
X0145681Y0182895D01*
X0145214Y0182970D01*
X0144749Y0183056D01*
X0144287Y0183154D01*
X0143827Y0183263D01*
X0143370Y0183383D01*
X0142916Y0183514D01*
X0142465Y0183657D01*
X0142018Y0183810D01*
X0141575Y0183975D01*
X0141136Y0184150D01*
X0140702Y0184336D01*
X0140272Y0184532D01*
X0139847Y0184739D01*
X0139427Y0184956D01*
X0139013Y0185183D01*
X0138605Y0185421D01*
X0138202Y0185668D01*
X0137805Y0185926D01*
X0137415Y0186192D01*
X0137032Y0186469D01*
X0136655Y0186754D01*
X0136286Y0187049D01*
X0135924Y0187353D01*
X0135570Y0187665D01*
X0135223Y0187987D01*
X0134884Y0188316D01*
X0134553Y0188654D01*
X0134231Y0188999D01*
X0133917Y0189353D01*
X0133612Y0189714D01*
X0133316Y0190082D01*
X0133030Y0190458D01*
X0132752Y0190840D01*
X0132484Y0191229D01*
X0132225Y0191625D01*
X0131976Y0192027D01*
X0131737Y0192435D01*
X0131509Y0192848D01*
X0131290Y0193267D01*
X0131082Y0193691D01*
X0130884Y0194120D01*
X0130697Y0194554D01*
X0130520Y0194993D01*
X0130354Y0195435D01*
X0130199Y0195882D01*
X0131577Y0226512D02*
X0128034Y0230055D01*
X0128034Y0241079D01*
X0115108Y0239384D02*
X0089305Y0239384D01*
X0089305Y0253384D01*
X0115108Y0253384D01*
X0115108Y0239384D01*
X0128034Y0252890D02*
X0128034Y0263913D01*
X0131577Y0267457D01*
X0168979Y0267457D01*
X0168979Y0252890D01*
X0168979Y0241079D02*
X0168979Y0226512D01*
X0131577Y0226512D01*
X0130199Y0253086D02*
X0130354Y0253533D01*
X0130520Y0253975D01*
X0130697Y0254414D01*
X0130884Y0254848D01*
X0131082Y0255277D01*
X0131290Y0255701D01*
X0131509Y0256120D01*
X0131737Y0256533D01*
X0131976Y0256941D01*
X0132225Y0257343D01*
X0132484Y0257739D01*
X0132752Y0258128D01*
X0133030Y0258510D01*
X0133316Y0258886D01*
X0133612Y0259254D01*
X0133917Y0259615D01*
X0134231Y0259969D01*
X0134553Y0260314D01*
X0134884Y0260652D01*
X0135223Y0260981D01*
X0135570Y0261303D01*
X0135924Y0261615D01*
X0136286Y0261919D01*
X0136655Y0262214D01*
X0137032Y0262499D01*
X0137415Y0262776D01*
X0137805Y0263042D01*
X0138202Y0263300D01*
X0138605Y0263547D01*
X0139013Y0263785D01*
X0139427Y0264012D01*
X0139847Y0264229D01*
X0140272Y0264436D01*
X0140702Y0264632D01*
X0141136Y0264818D01*
X0141575Y0264993D01*
X0142018Y0265158D01*
X0142465Y0265311D01*
X0142916Y0265454D01*
X0143370Y0265585D01*
X0143827Y0265705D01*
X0144287Y0265814D01*
X0144749Y0265912D01*
X0145214Y0265998D01*
X0145681Y0266073D01*
X0146149Y0266136D01*
X0146619Y0266188D01*
X0147089Y0266229D01*
X0147561Y0266258D01*
X0148033Y0266275D01*
X0148506Y0266281D01*
X0148979Y0266275D01*
X0149451Y0266258D01*
X0149923Y0266229D01*
X0150393Y0266188D01*
X0150863Y0266136D01*
X0151331Y0266073D01*
X0151798Y0265998D01*
X0152263Y0265912D01*
X0152725Y0265814D01*
X0153185Y0265705D01*
X0153642Y0265585D01*
X0154096Y0265454D01*
X0154547Y0265311D01*
X0154994Y0265158D01*
X0155437Y0264993D01*
X0155876Y0264818D01*
X0156310Y0264632D01*
X0156740Y0264436D01*
X0157165Y0264229D01*
X0157585Y0264012D01*
X0157999Y0263785D01*
X0158407Y0263547D01*
X0158810Y0263300D01*
X0159207Y0263042D01*
X0159597Y0262776D01*
X0159980Y0262499D01*
X0160357Y0262214D01*
X0160726Y0261919D01*
X0161088Y0261615D01*
X0161442Y0261303D01*
X0161789Y0260981D01*
X0162128Y0260652D01*
X0162459Y0260314D01*
X0162781Y0259969D01*
X0163095Y0259615D01*
X0163400Y0259254D01*
X0163696Y0258886D01*
X0163982Y0258510D01*
X0164260Y0258128D01*
X0164528Y0257739D01*
X0164787Y0257343D01*
X0165036Y0256941D01*
X0165275Y0256533D01*
X0165503Y0256120D01*
X0165722Y0255701D01*
X0165930Y0255277D01*
X0166128Y0254848D01*
X0166315Y0254414D01*
X0166492Y0253975D01*
X0166658Y0253533D01*
X0166813Y0253086D01*
X0166813Y0240882D02*
X0166658Y0240435D01*
X0166492Y0239993D01*
X0166315Y0239554D01*
X0166128Y0239120D01*
X0165930Y0238691D01*
X0165722Y0238267D01*
X0165503Y0237848D01*
X0165275Y0237435D01*
X0165036Y0237027D01*
X0164787Y0236625D01*
X0164528Y0236229D01*
X0164260Y0235840D01*
X0163982Y0235458D01*
X0163696Y0235082D01*
X0163400Y0234714D01*
X0163095Y0234353D01*
X0162781Y0233999D01*
X0162459Y0233654D01*
X0162128Y0233316D01*
X0161789Y0232987D01*
X0161442Y0232665D01*
X0161088Y0232353D01*
X0160726Y0232049D01*
X0160357Y0231754D01*
X0159980Y0231469D01*
X0159597Y0231192D01*
X0159207Y0230926D01*
X0158810Y0230668D01*
X0158407Y0230421D01*
X0157999Y0230183D01*
X0157585Y0229956D01*
X0157165Y0229739D01*
X0156740Y0229532D01*
X0156310Y0229336D01*
X0155876Y0229150D01*
X0155437Y0228975D01*
X0154994Y0228810D01*
X0154547Y0228657D01*
X0154096Y0228514D01*
X0153642Y0228383D01*
X0153185Y0228263D01*
X0152725Y0228154D01*
X0152263Y0228056D01*
X0151798Y0227970D01*
X0151331Y0227895D01*
X0150863Y0227832D01*
X0150393Y0227780D01*
X0149923Y0227739D01*
X0149451Y0227710D01*
X0148979Y0227693D01*
X0148506Y0227687D01*
X0148033Y0227693D01*
X0147561Y0227710D01*
X0147089Y0227739D01*
X0146619Y0227780D01*
X0146149Y0227832D01*
X0145681Y0227895D01*
X0145214Y0227970D01*
X0144749Y0228056D01*
X0144287Y0228154D01*
X0143827Y0228263D01*
X0143370Y0228383D01*
X0142916Y0228514D01*
X0142465Y0228657D01*
X0142018Y0228810D01*
X0141575Y0228975D01*
X0141136Y0229150D01*
X0140702Y0229336D01*
X0140272Y0229532D01*
X0139847Y0229739D01*
X0139427Y0229956D01*
X0139013Y0230183D01*
X0138605Y0230421D01*
X0138202Y0230668D01*
X0137805Y0230926D01*
X0137415Y0231192D01*
X0137032Y0231469D01*
X0136655Y0231754D01*
X0136286Y0232049D01*
X0135924Y0232353D01*
X0135570Y0232665D01*
X0135223Y0232987D01*
X0134884Y0233316D01*
X0134553Y0233654D01*
X0134231Y0233999D01*
X0133917Y0234353D01*
X0133612Y0234714D01*
X0133316Y0235082D01*
X0133030Y0235458D01*
X0132752Y0235840D01*
X0132484Y0236229D01*
X0132225Y0236625D01*
X0131976Y0237027D01*
X0131737Y0237435D01*
X0131509Y0237848D01*
X0131290Y0238267D01*
X0131082Y0238691D01*
X0130884Y0239120D01*
X0130697Y0239554D01*
X0130520Y0239993D01*
X0130354Y0240435D01*
X0130199Y0240882D01*
X0241905Y0239384D02*
X0241905Y0253384D01*
X0267708Y0253384D01*
X0267708Y0239384D01*
X0241905Y0239384D01*
X0281134Y0241079D02*
X0281134Y0226512D01*
X0318535Y0226512D01*
X0322079Y0230055D01*
X0322079Y0241079D01*
X0322079Y0252890D02*
X0322079Y0263913D01*
X0318535Y0267457D01*
X0281134Y0267457D01*
X0281134Y0252890D01*
X0283299Y0253086D02*
X0283454Y0253533D01*
X0283620Y0253975D01*
X0283797Y0254414D01*
X0283984Y0254848D01*
X0284182Y0255277D01*
X0284390Y0255701D01*
X0284609Y0256120D01*
X0284837Y0256533D01*
X0285076Y0256941D01*
X0285325Y0257343D01*
X0285584Y0257739D01*
X0285852Y0258128D01*
X0286130Y0258510D01*
X0286416Y0258886D01*
X0286712Y0259254D01*
X0287017Y0259615D01*
X0287331Y0259969D01*
X0287653Y0260314D01*
X0287984Y0260652D01*
X0288323Y0260981D01*
X0288670Y0261303D01*
X0289024Y0261615D01*
X0289386Y0261919D01*
X0289755Y0262214D01*
X0290132Y0262499D01*
X0290515Y0262776D01*
X0290905Y0263042D01*
X0291302Y0263300D01*
X0291705Y0263547D01*
X0292113Y0263785D01*
X0292527Y0264012D01*
X0292947Y0264229D01*
X0293372Y0264436D01*
X0293802Y0264632D01*
X0294236Y0264818D01*
X0294675Y0264993D01*
X0295118Y0265158D01*
X0295565Y0265311D01*
X0296016Y0265454D01*
X0296470Y0265585D01*
X0296927Y0265705D01*
X0297387Y0265814D01*
X0297849Y0265912D01*
X0298314Y0265998D01*
X0298781Y0266073D01*
X0299249Y0266136D01*
X0299719Y0266188D01*
X0300189Y0266229D01*
X0300661Y0266258D01*
X0301133Y0266275D01*
X0301606Y0266281D01*
X0302079Y0266275D01*
X0302551Y0266258D01*
X0303023Y0266229D01*
X0303493Y0266188D01*
X0303963Y0266136D01*
X0304431Y0266073D01*
X0304898Y0265998D01*
X0305363Y0265912D01*
X0305825Y0265814D01*
X0306285Y0265705D01*
X0306742Y0265585D01*
X0307196Y0265454D01*
X0307647Y0265311D01*
X0308094Y0265158D01*
X0308537Y0264993D01*
X0308976Y0264818D01*
X0309410Y0264632D01*
X0309840Y0264436D01*
X0310265Y0264229D01*
X0310685Y0264012D01*
X0311099Y0263785D01*
X0311507Y0263547D01*
X0311910Y0263300D01*
X0312307Y0263042D01*
X0312697Y0262776D01*
X0313080Y0262499D01*
X0313457Y0262214D01*
X0313826Y0261919D01*
X0314188Y0261615D01*
X0314542Y0261303D01*
X0314889Y0260981D01*
X0315228Y0260652D01*
X0315559Y0260314D01*
X0315881Y0259969D01*
X0316195Y0259615D01*
X0316500Y0259254D01*
X0316796Y0258886D01*
X0317082Y0258510D01*
X0317360Y0258128D01*
X0317628Y0257739D01*
X0317887Y0257343D01*
X0318136Y0256941D01*
X0318375Y0256533D01*
X0318603Y0256120D01*
X0318822Y0255701D01*
X0319030Y0255277D01*
X0319228Y0254848D01*
X0319415Y0254414D01*
X0319592Y0253975D01*
X0319758Y0253533D01*
X0319913Y0253086D01*
X0319913Y0240882D02*
X0319758Y0240435D01*
X0319592Y0239993D01*
X0319415Y0239554D01*
X0319228Y0239120D01*
X0319030Y0238691D01*
X0318822Y0238267D01*
X0318603Y0237848D01*
X0318375Y0237435D01*
X0318136Y0237027D01*
X0317887Y0236625D01*
X0317628Y0236229D01*
X0317360Y0235840D01*
X0317082Y0235458D01*
X0316796Y0235082D01*
X0316500Y0234714D01*
X0316195Y0234353D01*
X0315881Y0233999D01*
X0315559Y0233654D01*
X0315228Y0233316D01*
X0314889Y0232987D01*
X0314542Y0232665D01*
X0314188Y0232353D01*
X0313826Y0232049D01*
X0313457Y0231754D01*
X0313080Y0231469D01*
X0312697Y0231192D01*
X0312307Y0230926D01*
X0311910Y0230668D01*
X0311507Y0230421D01*
X0311099Y0230183D01*
X0310685Y0229956D01*
X0310265Y0229739D01*
X0309840Y0229532D01*
X0309410Y0229336D01*
X0308976Y0229150D01*
X0308537Y0228975D01*
X0308094Y0228810D01*
X0307647Y0228657D01*
X0307196Y0228514D01*
X0306742Y0228383D01*
X0306285Y0228263D01*
X0305825Y0228154D01*
X0305363Y0228056D01*
X0304898Y0227970D01*
X0304431Y0227895D01*
X0303963Y0227832D01*
X0303493Y0227780D01*
X0303023Y0227739D01*
X0302551Y0227710D01*
X0302079Y0227693D01*
X0301606Y0227687D01*
X0301133Y0227693D01*
X0300661Y0227710D01*
X0300189Y0227739D01*
X0299719Y0227780D01*
X0299249Y0227832D01*
X0298781Y0227895D01*
X0298314Y0227970D01*
X0297849Y0228056D01*
X0297387Y0228154D01*
X0296927Y0228263D01*
X0296470Y0228383D01*
X0296016Y0228514D01*
X0295565Y0228657D01*
X0295118Y0228810D01*
X0294675Y0228975D01*
X0294236Y0229150D01*
X0293802Y0229336D01*
X0293372Y0229532D01*
X0292947Y0229739D01*
X0292527Y0229956D01*
X0292113Y0230183D01*
X0291705Y0230421D01*
X0291302Y0230668D01*
X0290905Y0230926D01*
X0290515Y0231192D01*
X0290132Y0231469D01*
X0289755Y0231754D01*
X0289386Y0232049D01*
X0289024Y0232353D01*
X0288670Y0232665D01*
X0288323Y0232987D01*
X0287984Y0233316D01*
X0287653Y0233654D01*
X0287331Y0233999D01*
X0287017Y0234353D01*
X0286712Y0234714D01*
X0286416Y0235082D01*
X0286130Y0235458D01*
X0285852Y0235840D01*
X0285584Y0236229D01*
X0285325Y0236625D01*
X0285076Y0237027D01*
X0284837Y0237435D01*
X0284609Y0237848D01*
X0284390Y0238267D01*
X0284182Y0238691D01*
X0283984Y0239120D01*
X0283797Y0239554D01*
X0283620Y0239993D01*
X0283454Y0240435D01*
X0283299Y0240882D01*
X0281434Y0222457D02*
X0318835Y0222457D01*
X0322379Y0218913D01*
X0322379Y0207890D01*
X0322379Y0196079D02*
X0322379Y0185055D01*
X0318835Y0181512D01*
X0281434Y0181512D01*
X0281434Y0196079D01*
X0281434Y0207890D02*
X0281434Y0222457D01*
X0283599Y0195882D02*
X0283754Y0195435D01*
X0283920Y0194993D01*
X0284097Y0194554D01*
X0284284Y0194120D01*
X0284482Y0193691D01*
X0284690Y0193267D01*
X0284909Y0192848D01*
X0285137Y0192435D01*
X0285376Y0192027D01*
X0285625Y0191625D01*
X0285884Y0191229D01*
X0286152Y0190840D01*
X0286430Y0190458D01*
X0286716Y0190082D01*
X0287012Y0189714D01*
X0287317Y0189353D01*
X0287631Y0188999D01*
X0287953Y0188654D01*
X0288284Y0188316D01*
X0288623Y0187987D01*
X0288970Y0187665D01*
X0289324Y0187353D01*
X0289686Y0187049D01*
X0290055Y0186754D01*
X0290432Y0186469D01*
X0290815Y0186192D01*
X0291205Y0185926D01*
X0291602Y0185668D01*
X0292005Y0185421D01*
X0292413Y0185183D01*
X0292827Y0184956D01*
X0293247Y0184739D01*
X0293672Y0184532D01*
X0294102Y0184336D01*
X0294536Y0184150D01*
X0294975Y0183975D01*
X0295418Y0183810D01*
X0295865Y0183657D01*
X0296316Y0183514D01*
X0296770Y0183383D01*
X0297227Y0183263D01*
X0297687Y0183154D01*
X0298149Y0183056D01*
X0298614Y0182970D01*
X0299081Y0182895D01*
X0299549Y0182832D01*
X0300019Y0182780D01*
X0300489Y0182739D01*
X0300961Y0182710D01*
X0301433Y0182693D01*
X0301906Y0182687D01*
X0302379Y0182693D01*
X0302851Y0182710D01*
X0303323Y0182739D01*
X0303793Y0182780D01*
X0304263Y0182832D01*
X0304731Y0182895D01*
X0305198Y0182970D01*
X0305663Y0183056D01*
X0306125Y0183154D01*
X0306585Y0183263D01*
X0307042Y0183383D01*
X0307496Y0183514D01*
X0307947Y0183657D01*
X0308394Y0183810D01*
X0308837Y0183975D01*
X0309276Y0184150D01*
X0309710Y0184336D01*
X0310140Y0184532D01*
X0310565Y0184739D01*
X0310985Y0184956D01*
X0311399Y0185183D01*
X0311807Y0185421D01*
X0312210Y0185668D01*
X0312607Y0185926D01*
X0312997Y0186192D01*
X0313380Y0186469D01*
X0313757Y0186754D01*
X0314126Y0187049D01*
X0314488Y0187353D01*
X0314842Y0187665D01*
X0315189Y0187987D01*
X0315528Y0188316D01*
X0315859Y0188654D01*
X0316181Y0188999D01*
X0316495Y0189353D01*
X0316800Y0189714D01*
X0317096Y0190082D01*
X0317382Y0190458D01*
X0317660Y0190840D01*
X0317928Y0191229D01*
X0318187Y0191625D01*
X0318436Y0192027D01*
X0318675Y0192435D01*
X0318903Y0192848D01*
X0319122Y0193267D01*
X0319330Y0193691D01*
X0319528Y0194120D01*
X0319715Y0194554D01*
X0319892Y0194993D01*
X0320058Y0195435D01*
X0320213Y0195882D01*
X0320213Y0208086D02*
X0320058Y0208533D01*
X0319892Y0208975D01*
X0319715Y0209414D01*
X0319528Y0209848D01*
X0319330Y0210277D01*
X0319122Y0210701D01*
X0318903Y0211120D01*
X0318675Y0211533D01*
X0318436Y0211941D01*
X0318187Y0212343D01*
X0317928Y0212739D01*
X0317660Y0213128D01*
X0317382Y0213510D01*
X0317096Y0213886D01*
X0316800Y0214254D01*
X0316495Y0214615D01*
X0316181Y0214969D01*
X0315859Y0215314D01*
X0315528Y0215652D01*
X0315189Y0215981D01*
X0314842Y0216303D01*
X0314488Y0216615D01*
X0314126Y0216919D01*
X0313757Y0217214D01*
X0313380Y0217499D01*
X0312997Y0217776D01*
X0312607Y0218042D01*
X0312210Y0218300D01*
X0311807Y0218547D01*
X0311399Y0218785D01*
X0310985Y0219012D01*
X0310565Y0219229D01*
X0310140Y0219436D01*
X0309710Y0219632D01*
X0309276Y0219818D01*
X0308837Y0219993D01*
X0308394Y0220158D01*
X0307947Y0220311D01*
X0307496Y0220454D01*
X0307042Y0220585D01*
X0306585Y0220705D01*
X0306125Y0220814D01*
X0305663Y0220912D01*
X0305198Y0220998D01*
X0304731Y0221073D01*
X0304263Y0221136D01*
X0303793Y0221188D01*
X0303323Y0221229D01*
X0302851Y0221258D01*
X0302379Y0221275D01*
X0301906Y0221281D01*
X0301433Y0221275D01*
X0300961Y0221258D01*
X0300489Y0221229D01*
X0300019Y0221188D01*
X0299549Y0221136D01*
X0299081Y0221073D01*
X0298614Y0220998D01*
X0298149Y0220912D01*
X0297687Y0220814D01*
X0297227Y0220705D01*
X0296770Y0220585D01*
X0296316Y0220454D01*
X0295865Y0220311D01*
X0295418Y0220158D01*
X0294975Y0219993D01*
X0294536Y0219818D01*
X0294102Y0219632D01*
X0293672Y0219436D01*
X0293247Y0219229D01*
X0292827Y0219012D01*
X0292413Y0218785D01*
X0292005Y0218547D01*
X0291602Y0218300D01*
X0291205Y0218042D01*
X0290815Y0217776D01*
X0290432Y0217499D01*
X0290055Y0217214D01*
X0289686Y0216919D01*
X0289324Y0216615D01*
X0288970Y0216303D01*
X0288623Y0215981D01*
X0288284Y0215652D01*
X0287953Y0215314D01*
X0287631Y0214969D01*
X0287317Y0214615D01*
X0287012Y0214254D01*
X0286716Y0213886D01*
X0286430Y0213510D01*
X0286152Y0213128D01*
X0285884Y0212739D01*
X0285625Y0212343D01*
X0285376Y0211941D01*
X0285137Y0211533D01*
X0284909Y0211120D01*
X0284690Y0210701D01*
X0284482Y0210277D01*
X0284284Y0209848D01*
X0284097Y0209414D01*
X0283920Y0208975D01*
X0283754Y0208533D01*
X0283599Y0208086D01*
X0365900Y0090291D02*
X0371609Y0090291D01*
X0371609Y0079858D01*
X0380073Y0079858D01*
X0383026Y0082811D01*
X0397987Y0082811D01*
X0397987Y0079465D01*
X0402613Y0079465D01*
X0402613Y0064504D01*
X0397987Y0064504D01*
X0397987Y0061157D01*
X0383026Y0061157D01*
X0380073Y0064110D01*
X0371609Y0064110D01*
X0371609Y0053677D01*
X0365900Y0053677D01*
X0365900Y0056827D02*
X0365900Y0087142D01*
D14*
X0080613Y0155984D02*
X0080613Y0174488D01*
X0043211Y0174488D01*
X0043211Y0155984D01*
X0080613Y0155984D01*
D15*
X0096256Y0182484D02*
X0108756Y0182484D01*
X0108756Y0189484D01*
X0096256Y0189484D01*
X0096256Y0182484D01*
X0101756Y0185984D02*
X0103256Y0183984D01*
X0102006Y0186234D01*
X0103256Y0184984D01*
X0102256Y0186484D01*
X0103256Y0185984D01*
X0102506Y0186984D01*
X0103256Y0186984D01*
X0103256Y0187984D01*
X0102506Y0186984D01*
X0101756Y0185984D01*
X0103256Y0185984D02*
X0103256Y0186984D01*
X0103256Y0185984D02*
X0103256Y0184984D01*
X0103256Y0183984D01*
X0182000Y0214705D02*
X0182751Y0213954D01*
X0185754Y0213954D01*
X0186504Y0214705D01*
X0186504Y0216206D01*
X0185754Y0216957D01*
X0182751Y0216957D01*
X0182000Y0216206D01*
X0182000Y0214705D01*
X0182000Y0218558D02*
X0186504Y0218558D01*
X0185003Y0218558D02*
X0182000Y0221560D01*
X0183502Y0223162D02*
X0182000Y0224663D01*
X0186504Y0224663D01*
X0186504Y0223162D02*
X0186504Y0226164D01*
X0186504Y0221560D02*
X0184252Y0219309D01*
X0247256Y0190484D02*
X0247256Y0183484D01*
X0259756Y0183484D01*
X0259756Y0190484D01*
X0247256Y0190484D01*
X0252756Y0188984D02*
X0254006Y0186734D01*
X0252756Y0187984D01*
X0253756Y0186484D01*
X0252756Y0186984D01*
X0253506Y0185984D01*
X0252756Y0185984D01*
X0252756Y0184984D01*
X0253506Y0185984D01*
X0254256Y0186984D01*
X0252756Y0188984D01*
X0252756Y0187984D01*
X0252756Y0186984D01*
X0252756Y0185984D01*
X0252863Y0285834D02*
X0249860Y0285834D01*
X0249860Y0290338D01*
X0248259Y0289587D02*
X0247508Y0290338D01*
X0246007Y0290338D01*
X0245256Y0289587D01*
X0245256Y0288837D01*
X0246007Y0288086D01*
X0247508Y0288086D01*
X0248259Y0287336D01*
X0248259Y0286585D01*
X0247508Y0285834D01*
X0246007Y0285834D01*
X0245256Y0286585D01*
X0254464Y0285834D02*
X0257467Y0285834D01*
X0255965Y0285834D02*
X0255965Y0290338D01*
X0254464Y0288837D01*
X0165256Y0290934D02*
X0165256Y0293203D01*
X0165256Y0292069D02*
X0161853Y0292069D01*
X0162988Y0290934D01*
D16*
X0150183Y0052743D03*
X0138451Y0048225D03*
M02*
