G75*
%MOIN*%
%OFA0B0*%
%FSLAX25Y25*%
%IPPOS*%
%LPD*%
%AMOC8*
5,1,8,0,0,1.08239X$1,22.5*
%
%ADD10R,0.05118X0.05906*%
%ADD11R,0.16500X0.10500*%
%ADD12C,0.04400*%
%ADD13C,0.05200*%
%ADD14OC8,0.08500*%
%ADD15C,0.05600*%
%ADD16OC8,0.12400*%
%ADD17C,0.02781*%
%ADD18C,0.01969*%
%ADD19C,0.02362*%
%ADD20C,0.03569*%
%ADD21C,0.03150*%
%ADD22C,0.27559*%
%ADD23C,0.05906*%
%ADD24C,0.03937*%
D10*
X0211766Y0072984D03*
X0219246Y0072984D03*
X0219306Y0081350D03*
X0211825Y0081350D03*
X0231325Y0084232D03*
X0238806Y0084232D03*
X0238731Y0069382D03*
X0231250Y0069382D03*
D11*
X0357178Y0058226D03*
X0357178Y0085743D03*
X0046835Y0085743D03*
X0046835Y0058226D03*
D12*
X0061912Y0160236D03*
X0071912Y0170236D03*
X0051912Y0170236D03*
D13*
X0194254Y0194816D02*
X0194254Y0200016D01*
X0204254Y0200016D02*
X0204254Y0194816D01*
X0204254Y0230016D02*
X0204254Y0235216D01*
X0194254Y0235216D02*
X0194254Y0230016D01*
D14*
X0118506Y0186984D03*
X0273506Y0186984D03*
D15*
X0233506Y0284184D02*
X0233506Y0289784D01*
X0223506Y0289784D02*
X0223506Y0284184D01*
X0213506Y0284184D02*
X0213506Y0289784D01*
X0203506Y0289784D02*
X0203506Y0284184D01*
X0193506Y0284184D02*
X0193506Y0289784D01*
X0183506Y0289784D02*
X0183506Y0284184D01*
X0173506Y0284184D02*
X0173506Y0289784D01*
X0163506Y0289784D02*
X0163506Y0284184D01*
D16*
X0348506Y0166984D03*
X0058506Y0126984D03*
D17*
X0186506Y0104484D03*
X0186506Y0099484D03*
X0191506Y0104484D03*
X0198506Y0099484D03*
X0198506Y0094484D03*
X0201006Y0089484D03*
X0206006Y0089484D03*
X0211006Y0089484D03*
X0200506Y0084484D03*
X0206006Y0077984D03*
X0206006Y0072984D03*
X0206506Y0067984D03*
X0211006Y0064484D03*
X0209006Y0059984D03*
X0206006Y0063484D03*
X0200506Y0067984D03*
X0191506Y0064484D03*
X0197506Y0056984D03*
X0186506Y0079484D03*
X0186506Y0084484D03*
X0186506Y0089484D03*
X0186506Y0094484D03*
X0225506Y0084484D03*
X0225506Y0079484D03*
X0225506Y0074484D03*
X0225506Y0069484D03*
D18*
X0043491Y0050992D02*
X0043491Y0006968D01*
X0363223Y0006968D01*
X0363223Y0045535D01*
X0362683Y0045759D01*
X0361281Y0047161D01*
X0360522Y0048993D01*
X0360522Y0050992D01*
X0358162Y0050992D01*
X0358162Y0057242D01*
X0356194Y0057242D01*
X0356194Y0050992D01*
X0348667Y0050992D01*
X0348162Y0051127D01*
X0347710Y0051388D01*
X0347340Y0051758D01*
X0347079Y0052210D01*
X0346944Y0052715D01*
X0346944Y0057242D01*
X0356194Y0057242D01*
X0356194Y0059210D01*
X0356194Y0065460D01*
X0348667Y0065460D01*
X0348162Y0065325D01*
X0347710Y0065064D01*
X0347340Y0064694D01*
X0347079Y0064242D01*
X0346944Y0063737D01*
X0346944Y0059210D01*
X0356194Y0059210D01*
X0358162Y0059210D01*
X0358162Y0065460D01*
X0360522Y0065460D01*
X0360522Y0078508D01*
X0358162Y0078508D01*
X0358162Y0084758D01*
X0356194Y0084758D01*
X0356194Y0078508D01*
X0348667Y0078508D01*
X0348162Y0078643D01*
X0347710Y0078905D01*
X0347340Y0079274D01*
X0347079Y0079727D01*
X0346944Y0080231D01*
X0346944Y0084758D01*
X0356194Y0084758D01*
X0356194Y0086727D01*
X0356194Y0092977D01*
X0348667Y0092977D01*
X0348162Y0092842D01*
X0347710Y0092580D01*
X0347340Y0092211D01*
X0347079Y0091758D01*
X0346944Y0091254D01*
X0346944Y0086727D01*
X0356194Y0086727D01*
X0358162Y0086727D01*
X0358162Y0092977D01*
X0360522Y0092977D01*
X0360522Y0094976D01*
X0361281Y0096808D01*
X0362683Y0098210D01*
X0363223Y0098433D01*
X0363223Y0311961D01*
X0043491Y0311961D01*
X0043491Y0092977D01*
X0045850Y0092977D01*
X0045850Y0086727D01*
X0047819Y0086727D01*
X0047819Y0092977D01*
X0055346Y0092977D01*
X0055851Y0092842D01*
X0056303Y0092580D01*
X0056672Y0092211D01*
X0056934Y0091758D01*
X0057069Y0091254D01*
X0057069Y0086727D01*
X0047819Y0086727D01*
X0047819Y0084758D01*
X0047819Y0078508D01*
X0055346Y0078508D01*
X0055851Y0078643D01*
X0056303Y0078905D01*
X0056672Y0079274D01*
X0056934Y0079727D01*
X0057069Y0080231D01*
X0057069Y0084758D01*
X0047819Y0084758D01*
X0045850Y0084758D01*
X0045850Y0078508D01*
X0043491Y0078508D01*
X0043491Y0065460D01*
X0045850Y0065460D01*
X0045850Y0059210D01*
X0047819Y0059210D01*
X0057069Y0059210D01*
X0057069Y0063737D01*
X0056934Y0064242D01*
X0056672Y0064694D01*
X0056303Y0065064D01*
X0055851Y0065325D01*
X0055346Y0065460D01*
X0047819Y0065460D01*
X0047819Y0059210D01*
X0047819Y0057242D01*
X0057069Y0057242D01*
X0057069Y0052715D01*
X0056934Y0052210D01*
X0056672Y0051758D01*
X0056303Y0051388D01*
X0055851Y0051127D01*
X0055346Y0050992D01*
X0047819Y0050992D01*
X0047819Y0057242D01*
X0045850Y0057242D01*
X0045850Y0050992D01*
X0043491Y0050992D01*
X0043491Y0049193D02*
X0360522Y0049193D01*
X0361254Y0047226D02*
X0043491Y0047226D01*
X0043491Y0045259D02*
X0363223Y0045259D01*
X0363223Y0043292D02*
X0043491Y0043292D01*
X0043491Y0041325D02*
X0363223Y0041325D01*
X0363223Y0039358D02*
X0043491Y0039358D01*
X0043491Y0037391D02*
X0363223Y0037391D01*
X0363223Y0035424D02*
X0043491Y0035424D01*
X0043491Y0033456D02*
X0363223Y0033456D01*
X0363223Y0031489D02*
X0043491Y0031489D01*
X0043491Y0029522D02*
X0363223Y0029522D01*
X0363223Y0027555D02*
X0043491Y0027555D01*
X0043491Y0025588D02*
X0363223Y0025588D01*
X0363223Y0023621D02*
X0043491Y0023621D01*
X0043491Y0021654D02*
X0363223Y0021654D01*
X0363223Y0019687D02*
X0043491Y0019687D01*
X0043491Y0017720D02*
X0363223Y0017720D01*
X0363223Y0015753D02*
X0043491Y0015753D01*
X0043491Y0013786D02*
X0363223Y0013786D01*
X0363223Y0011819D02*
X0043491Y0011819D01*
X0043491Y0009852D02*
X0363223Y0009852D01*
X0363223Y0007885D02*
X0043491Y0007885D01*
X0045850Y0051160D02*
X0047819Y0051160D01*
X0047819Y0053127D02*
X0045850Y0053127D01*
X0045850Y0055094D02*
X0047819Y0055094D01*
X0047819Y0057061D02*
X0045850Y0057061D01*
X0047819Y0059028D02*
X0192069Y0059028D01*
X0192069Y0060109D02*
X0192069Y0057663D01*
X0192673Y0056205D01*
X0193391Y0055487D01*
X0193798Y0054506D01*
X0195028Y0053275D01*
X0196636Y0052609D01*
X0198377Y0052609D01*
X0199984Y0053275D01*
X0201215Y0054506D01*
X0201881Y0056114D01*
X0201881Y0057854D01*
X0201215Y0059462D01*
X0200006Y0060671D01*
X0200006Y0063609D01*
X0201377Y0063609D01*
X0202984Y0064275D01*
X0204215Y0065506D01*
X0204881Y0067114D01*
X0204881Y0068854D01*
X0204475Y0069835D01*
X0204475Y0082633D01*
X0204881Y0083614D01*
X0204881Y0085354D01*
X0204215Y0086962D01*
X0202984Y0088193D01*
X0201377Y0088859D01*
X0200006Y0088859D01*
X0200006Y0090370D01*
X0200984Y0090775D01*
X0202215Y0092006D01*
X0202881Y0093614D01*
X0202881Y0095354D01*
X0202215Y0096962D01*
X0202193Y0096984D01*
X0202215Y0097006D01*
X0202881Y0098614D01*
X0202881Y0100354D01*
X0202215Y0101962D01*
X0200984Y0103193D01*
X0199377Y0103859D01*
X0197636Y0103859D01*
X0196655Y0103453D01*
X0196530Y0103453D01*
X0195071Y0102849D01*
X0193955Y0101732D01*
X0189821Y0097598D01*
X0188705Y0096482D01*
X0188101Y0095024D01*
X0188101Y0067266D01*
X0187798Y0066962D01*
X0187131Y0065354D01*
X0187131Y0063614D01*
X0187798Y0062006D01*
X0189028Y0060775D01*
X0190636Y0060109D01*
X0192069Y0060109D01*
X0192319Y0057061D02*
X0057069Y0057061D01*
X0057069Y0055094D02*
X0193554Y0055094D01*
X0195387Y0053127D02*
X0057069Y0053127D01*
X0055907Y0051160D02*
X0348105Y0051160D01*
X0346944Y0053127D02*
X0199625Y0053127D01*
X0201458Y0055094D02*
X0346944Y0055094D01*
X0346944Y0057061D02*
X0201881Y0057061D01*
X0201395Y0059028D02*
X0356194Y0059028D01*
X0356194Y0060995D02*
X0358162Y0060995D01*
X0358162Y0062962D02*
X0356194Y0062962D01*
X0356194Y0064929D02*
X0358162Y0064929D01*
X0360522Y0066896D02*
X0243274Y0066896D01*
X0243274Y0066168D02*
X0243274Y0069087D01*
X0239026Y0069087D01*
X0239026Y0069677D01*
X0243274Y0069677D01*
X0243274Y0072596D01*
X0243139Y0073101D01*
X0242878Y0073553D01*
X0242508Y0073922D01*
X0242056Y0074184D01*
X0241551Y0074319D01*
X0239026Y0074319D01*
X0239026Y0069677D01*
X0238435Y0069677D01*
X0238435Y0074319D01*
X0236278Y0074319D01*
X0236278Y0079295D01*
X0238510Y0079295D01*
X0238510Y0083937D01*
X0239101Y0083937D01*
X0239101Y0084528D01*
X0238510Y0084528D01*
X0238510Y0089169D01*
X0236120Y0089169D01*
X0235575Y0089715D01*
X0234478Y0090169D01*
X0228173Y0090169D01*
X0227076Y0089715D01*
X0226236Y0088875D01*
X0226229Y0088859D01*
X0224636Y0088859D01*
X0223028Y0088193D01*
X0222123Y0087287D01*
X0216153Y0087287D01*
X0215056Y0086833D01*
X0214510Y0086287D01*
X0212120Y0086287D01*
X0212120Y0081646D01*
X0211530Y0081646D01*
X0211530Y0086287D01*
X0209005Y0086287D01*
X0208500Y0086152D01*
X0208048Y0085891D01*
X0207678Y0085522D01*
X0207417Y0085069D01*
X0207282Y0084564D01*
X0207282Y0081646D01*
X0211530Y0081646D01*
X0211530Y0081055D01*
X0212120Y0081055D01*
X0212120Y0077921D01*
X0212061Y0077921D01*
X0212061Y0073280D01*
X0211471Y0073280D01*
X0211471Y0076413D01*
X0211530Y0076413D01*
X0211530Y0081055D01*
X0207282Y0081055D01*
X0207282Y0078136D01*
X0207417Y0077632D01*
X0207665Y0077202D01*
X0207619Y0077155D01*
X0207358Y0076703D01*
X0207223Y0076198D01*
X0207223Y0073280D01*
X0211471Y0073280D01*
X0211471Y0072689D01*
X0212061Y0072689D01*
X0212061Y0068047D01*
X0214451Y0068047D01*
X0214997Y0067502D01*
X0216094Y0067047D01*
X0221780Y0067047D01*
X0221798Y0067006D01*
X0223028Y0065775D01*
X0224636Y0065109D01*
X0226008Y0065109D01*
X0226161Y0064739D01*
X0227001Y0063899D01*
X0228098Y0063445D01*
X0234403Y0063445D01*
X0235500Y0063899D01*
X0236046Y0064445D01*
X0238435Y0064445D01*
X0238435Y0069087D01*
X0239026Y0069087D01*
X0239026Y0064445D01*
X0241551Y0064445D01*
X0242056Y0064580D01*
X0242508Y0064841D01*
X0242878Y0065211D01*
X0243139Y0065663D01*
X0243274Y0066168D01*
X0242596Y0064929D02*
X0347575Y0064929D01*
X0346944Y0062962D02*
X0200006Y0062962D01*
X0200006Y0060995D02*
X0346944Y0060995D01*
X0356194Y0057061D02*
X0358162Y0057061D01*
X0358162Y0055094D02*
X0356194Y0055094D01*
X0356194Y0053127D02*
X0358162Y0053127D01*
X0358162Y0051160D02*
X0356194Y0051160D01*
X0360522Y0068863D02*
X0243274Y0068863D01*
X0243274Y0070830D02*
X0360522Y0070830D01*
X0360522Y0072797D02*
X0280858Y0072797D01*
X0281207Y0072942D02*
X0282549Y0074283D01*
X0283275Y0076036D01*
X0283275Y0077933D01*
X0282549Y0079685D01*
X0282018Y0080216D01*
X0282455Y0080216D01*
X0284207Y0080942D01*
X0285549Y0082283D01*
X0286275Y0084036D01*
X0286275Y0085933D01*
X0285549Y0087685D01*
X0284207Y0089027D01*
X0282455Y0089753D01*
X0280558Y0089753D01*
X0280052Y0089543D01*
X0254960Y0089543D01*
X0254455Y0089753D01*
X0252558Y0089753D01*
X0250805Y0089027D01*
X0249464Y0087685D01*
X0248738Y0085933D01*
X0248738Y0084036D01*
X0249464Y0082283D01*
X0250763Y0080984D01*
X0249464Y0079685D01*
X0248738Y0077933D01*
X0248738Y0076036D01*
X0249464Y0074283D01*
X0250805Y0072942D01*
X0252558Y0072216D01*
X0254455Y0072216D01*
X0254960Y0072425D01*
X0277052Y0072425D01*
X0277558Y0072216D01*
X0279455Y0072216D01*
X0281207Y0072942D01*
X0282748Y0074764D02*
X0360522Y0074764D01*
X0360522Y0076731D02*
X0283275Y0076731D01*
X0282958Y0078698D02*
X0348068Y0078698D01*
X0346944Y0080665D02*
X0283539Y0080665D01*
X0285693Y0082632D02*
X0346944Y0082632D01*
X0346944Y0084599D02*
X0286275Y0084599D01*
X0286013Y0086566D02*
X0356194Y0086566D01*
X0356194Y0088533D02*
X0358162Y0088533D01*
X0358162Y0090500D02*
X0356194Y0090500D01*
X0356194Y0092467D02*
X0358162Y0092467D01*
X0360522Y0094434D02*
X0202881Y0094434D01*
X0202448Y0096401D02*
X0361112Y0096401D01*
X0363065Y0098368D02*
X0202779Y0098368D01*
X0202881Y0100335D02*
X0363223Y0100335D01*
X0363223Y0102302D02*
X0201875Y0102302D01*
X0198506Y0099484D02*
X0197319Y0099484D01*
X0192069Y0094234D01*
X0192069Y0065047D01*
X0191506Y0064484D01*
X0187402Y0062962D02*
X0057069Y0062962D01*
X0057069Y0060995D02*
X0188809Y0060995D01*
X0187131Y0064929D02*
X0056438Y0064929D01*
X0047819Y0064929D02*
X0045850Y0064929D01*
X0045850Y0062962D02*
X0047819Y0062962D01*
X0047819Y0060995D02*
X0045850Y0060995D01*
X0043491Y0066896D02*
X0187770Y0066896D01*
X0188101Y0068863D02*
X0043491Y0068863D01*
X0043491Y0070830D02*
X0188101Y0070830D01*
X0188101Y0072797D02*
X0043491Y0072797D01*
X0043491Y0074764D02*
X0188101Y0074764D01*
X0188101Y0076731D02*
X0043491Y0076731D01*
X0045850Y0078698D02*
X0047819Y0078698D01*
X0047819Y0080665D02*
X0045850Y0080665D01*
X0045850Y0082632D02*
X0047819Y0082632D01*
X0047819Y0084599D02*
X0045850Y0084599D01*
X0047819Y0086566D02*
X0188101Y0086566D01*
X0188101Y0088533D02*
X0057069Y0088533D01*
X0057069Y0090500D02*
X0188101Y0090500D01*
X0188101Y0092467D02*
X0056416Y0092467D01*
X0057069Y0084599D02*
X0188101Y0084599D01*
X0188101Y0082632D02*
X0057069Y0082632D01*
X0057069Y0080665D02*
X0188101Y0080665D01*
X0188101Y0078698D02*
X0055945Y0078698D01*
X0047819Y0088533D02*
X0045850Y0088533D01*
X0045850Y0090500D02*
X0047819Y0090500D01*
X0047819Y0092467D02*
X0045850Y0092467D01*
X0043491Y0094434D02*
X0188101Y0094434D01*
X0188671Y0096401D02*
X0043491Y0096401D01*
X0043491Y0098368D02*
X0190591Y0098368D01*
X0192558Y0100335D02*
X0043491Y0100335D01*
X0043491Y0102302D02*
X0194525Y0102302D01*
X0193955Y0101732D02*
X0193955Y0101732D01*
X0198506Y0094484D02*
X0196038Y0092016D01*
X0196038Y0058453D01*
X0197506Y0056984D01*
X0203638Y0064929D02*
X0226083Y0064929D01*
X0221908Y0066896D02*
X0204791Y0066896D01*
X0204878Y0068863D02*
X0207591Y0068863D01*
X0207619Y0068813D02*
X0207989Y0068444D01*
X0208441Y0068182D01*
X0208946Y0068047D01*
X0211471Y0068047D01*
X0211471Y0072689D01*
X0207223Y0072689D01*
X0207223Y0069770D01*
X0207358Y0069266D01*
X0207619Y0068813D01*
X0207223Y0070830D02*
X0204475Y0070830D01*
X0204475Y0072797D02*
X0211471Y0072797D01*
X0211471Y0074764D02*
X0212061Y0074764D01*
X0212061Y0076731D02*
X0211530Y0076731D01*
X0211530Y0078698D02*
X0212120Y0078698D01*
X0212120Y0080665D02*
X0211530Y0080665D01*
X0211530Y0082632D02*
X0212120Y0082632D01*
X0212120Y0084599D02*
X0211530Y0084599D01*
X0214789Y0086566D02*
X0204379Y0086566D01*
X0204881Y0084599D02*
X0207291Y0084599D01*
X0207282Y0082632D02*
X0204475Y0082632D01*
X0204475Y0080665D02*
X0207282Y0080665D01*
X0207282Y0078698D02*
X0204475Y0078698D01*
X0204475Y0076731D02*
X0207374Y0076731D01*
X0207223Y0074764D02*
X0204475Y0074764D01*
X0200506Y0067984D02*
X0200506Y0084484D01*
X0202164Y0088533D02*
X0223849Y0088533D01*
X0236278Y0078698D02*
X0249055Y0078698D01*
X0248738Y0076731D02*
X0236278Y0076731D01*
X0236278Y0074764D02*
X0249265Y0074764D01*
X0251155Y0072797D02*
X0243220Y0072797D01*
X0239026Y0072797D02*
X0238435Y0072797D01*
X0238435Y0070830D02*
X0239026Y0070830D01*
X0239026Y0068863D02*
X0238435Y0068863D01*
X0238435Y0066896D02*
X0239026Y0066896D01*
X0239026Y0064929D02*
X0238435Y0064929D01*
X0239101Y0079295D02*
X0241626Y0079295D01*
X0242130Y0079430D01*
X0242583Y0079692D01*
X0242952Y0080061D01*
X0243214Y0080514D01*
X0243349Y0081018D01*
X0243349Y0083937D01*
X0239101Y0083937D01*
X0239101Y0079295D01*
X0239101Y0080665D02*
X0238510Y0080665D01*
X0238510Y0082632D02*
X0239101Y0082632D01*
X0239101Y0084528D02*
X0243349Y0084528D01*
X0243349Y0087446D01*
X0243214Y0087951D01*
X0242952Y0088403D01*
X0242583Y0088773D01*
X0242130Y0089034D01*
X0241626Y0089169D01*
X0239101Y0089169D01*
X0239101Y0084528D01*
X0239101Y0084599D02*
X0238510Y0084599D01*
X0238510Y0086566D02*
X0239101Y0086566D01*
X0239101Y0088533D02*
X0238510Y0088533D01*
X0242823Y0088533D02*
X0250311Y0088533D01*
X0249000Y0086566D02*
X0243349Y0086566D01*
X0243349Y0084599D02*
X0248738Y0084599D01*
X0249319Y0082632D02*
X0243349Y0082632D01*
X0243254Y0080665D02*
X0250443Y0080665D01*
X0219306Y0073043D02*
X0219246Y0072984D01*
X0212061Y0070830D02*
X0211471Y0070830D01*
X0211471Y0068863D02*
X0212061Y0068863D01*
X0200319Y0090500D02*
X0346944Y0090500D01*
X0346944Y0088533D02*
X0284701Y0088533D01*
X0271207Y0122942D02*
X0269455Y0122216D01*
X0267558Y0122216D01*
X0267052Y0122425D01*
X0239960Y0122425D01*
X0239455Y0122216D01*
X0237558Y0122216D01*
X0235805Y0122942D01*
X0234464Y0124283D01*
X0233738Y0126036D01*
X0233738Y0127933D01*
X0234464Y0129685D01*
X0235805Y0131027D01*
X0237558Y0131753D01*
X0239455Y0131753D01*
X0239960Y0131543D01*
X0267052Y0131543D01*
X0267558Y0131753D01*
X0269455Y0131753D01*
X0271207Y0131027D01*
X0272549Y0129685D01*
X0273275Y0127933D01*
X0273275Y0126036D01*
X0272549Y0124283D01*
X0271207Y0122942D01*
X0272205Y0123939D02*
X0363223Y0123939D01*
X0363223Y0121972D02*
X0065069Y0121972D01*
X0066691Y0123594D02*
X0066691Y0126000D01*
X0059491Y0126000D01*
X0059491Y0127968D01*
X0066691Y0127968D01*
X0066691Y0130374D01*
X0061896Y0135168D01*
X0059491Y0135168D01*
X0059491Y0127969D01*
X0057522Y0127969D01*
X0057522Y0135168D01*
X0055116Y0135168D01*
X0050322Y0130374D01*
X0050322Y0127968D01*
X0057522Y0127968D01*
X0057522Y0126000D01*
X0050322Y0126000D01*
X0050322Y0123594D01*
X0055116Y0118800D01*
X0057522Y0118800D01*
X0057522Y0126000D01*
X0059491Y0126000D01*
X0059491Y0118800D01*
X0061896Y0118800D01*
X0066691Y0123594D01*
X0066691Y0123939D02*
X0234808Y0123939D01*
X0233791Y0125906D02*
X0066691Y0125906D01*
X0066691Y0129840D02*
X0184233Y0129840D01*
X0184464Y0129283D02*
X0185805Y0127942D01*
X0187558Y0127216D01*
X0189455Y0127216D01*
X0191207Y0127942D01*
X0192549Y0129283D01*
X0193275Y0131036D01*
X0193275Y0132933D01*
X0193065Y0133438D01*
X0193065Y0150530D01*
X0193275Y0151036D01*
X0193275Y0152933D01*
X0192549Y0154685D01*
X0191207Y0156027D01*
X0189455Y0156753D01*
X0187558Y0156753D01*
X0185805Y0156027D01*
X0184464Y0154685D01*
X0183738Y0152933D01*
X0183738Y0151036D01*
X0183947Y0150530D01*
X0183947Y0133438D01*
X0183738Y0132933D01*
X0183738Y0131036D01*
X0184464Y0129283D01*
X0185970Y0127873D02*
X0059491Y0127873D01*
X0059491Y0125906D02*
X0057522Y0125906D01*
X0057522Y0123939D02*
X0059491Y0123939D01*
X0059491Y0121972D02*
X0057522Y0121972D01*
X0057522Y0120005D02*
X0059491Y0120005D01*
X0063101Y0120005D02*
X0363223Y0120005D01*
X0363223Y0118038D02*
X0043491Y0118038D01*
X0043491Y0116071D02*
X0363223Y0116071D01*
X0363223Y0114104D02*
X0043491Y0114104D01*
X0043491Y0112137D02*
X0363223Y0112137D01*
X0363223Y0110170D02*
X0043491Y0110170D01*
X0043491Y0108203D02*
X0363223Y0108203D01*
X0363223Y0106236D02*
X0043491Y0106236D01*
X0043491Y0104269D02*
X0363223Y0104269D01*
X0347596Y0092467D02*
X0202406Y0092467D01*
X0207558Y0127216D02*
X0209455Y0127216D01*
X0211207Y0127942D01*
X0212549Y0129283D01*
X0213275Y0131036D01*
X0213275Y0132933D01*
X0213065Y0133438D01*
X0213065Y0150530D01*
X0213275Y0151036D01*
X0213275Y0152933D01*
X0212549Y0154685D01*
X0211207Y0156027D01*
X0209455Y0156753D01*
X0207558Y0156753D01*
X0205805Y0156027D01*
X0204464Y0154685D01*
X0203738Y0152933D01*
X0203738Y0151036D01*
X0203947Y0150530D01*
X0203947Y0133438D01*
X0203738Y0132933D01*
X0203738Y0131036D01*
X0204464Y0129283D01*
X0205805Y0127942D01*
X0207558Y0127216D01*
X0205970Y0127873D02*
X0191042Y0127873D01*
X0192780Y0129840D02*
X0204233Y0129840D01*
X0203738Y0131807D02*
X0193275Y0131807D01*
X0193065Y0133774D02*
X0203947Y0133774D01*
X0203947Y0135741D02*
X0193065Y0135741D01*
X0193065Y0137708D02*
X0203947Y0137708D01*
X0203947Y0139675D02*
X0193065Y0139675D01*
X0193065Y0141642D02*
X0203947Y0141642D01*
X0203947Y0143609D02*
X0193065Y0143609D01*
X0193065Y0145576D02*
X0203947Y0145576D01*
X0203947Y0147543D02*
X0193065Y0147543D01*
X0193065Y0149510D02*
X0203947Y0149510D01*
X0203738Y0151477D02*
X0193275Y0151477D01*
X0193063Y0153444D02*
X0203950Y0153444D01*
X0205190Y0155411D02*
X0191823Y0155411D01*
X0185190Y0155411D02*
X0072824Y0155411D01*
X0071771Y0154359D02*
X0075443Y0158030D01*
X0076077Y0159561D01*
X0076077Y0167070D01*
X0076307Y0167300D01*
X0077096Y0169205D01*
X0077096Y0171267D01*
X0076307Y0173173D01*
X0074848Y0174631D01*
X0072943Y0175420D01*
X0070881Y0175420D01*
X0068975Y0174631D01*
X0067517Y0173173D01*
X0066728Y0171267D01*
X0066728Y0169205D01*
X0067517Y0167300D01*
X0067746Y0167070D01*
X0067746Y0162115D01*
X0067686Y0162055D01*
X0066770Y0162055D01*
X0066307Y0163173D01*
X0064848Y0164631D01*
X0062943Y0165420D01*
X0060881Y0165420D01*
X0058975Y0164631D01*
X0057517Y0163173D01*
X0056728Y0161267D01*
X0056728Y0159205D01*
X0057517Y0157300D01*
X0058975Y0155841D01*
X0060881Y0155052D01*
X0061205Y0155052D01*
X0061899Y0154359D01*
X0063430Y0153724D01*
X0070240Y0153724D01*
X0071771Y0154359D01*
X0074791Y0157378D02*
X0363223Y0157378D01*
X0363223Y0155411D02*
X0291823Y0155411D01*
X0291207Y0156027D02*
X0289455Y0156753D01*
X0287558Y0156753D01*
X0285805Y0156027D01*
X0284464Y0154685D01*
X0283738Y0152933D01*
X0283738Y0151036D01*
X0283947Y0150530D01*
X0283947Y0133438D01*
X0283738Y0132933D01*
X0283738Y0131036D01*
X0284464Y0129283D01*
X0285805Y0127942D01*
X0287558Y0127216D01*
X0289455Y0127216D01*
X0291207Y0127942D01*
X0292549Y0129283D01*
X0293275Y0131036D01*
X0293275Y0132933D01*
X0293065Y0133438D01*
X0293065Y0150530D01*
X0293275Y0151036D01*
X0293275Y0152933D01*
X0292549Y0154685D01*
X0291207Y0156027D01*
X0293063Y0153444D02*
X0363223Y0153444D01*
X0363223Y0151477D02*
X0293275Y0151477D01*
X0293065Y0149510D02*
X0363223Y0149510D01*
X0363223Y0147543D02*
X0293065Y0147543D01*
X0293065Y0145576D02*
X0363223Y0145576D01*
X0363223Y0143609D02*
X0293065Y0143609D01*
X0293065Y0141642D02*
X0363223Y0141642D01*
X0363223Y0139675D02*
X0293065Y0139675D01*
X0293065Y0137708D02*
X0363223Y0137708D01*
X0363223Y0135741D02*
X0293065Y0135741D01*
X0293065Y0133774D02*
X0363223Y0133774D01*
X0363223Y0131807D02*
X0293275Y0131807D01*
X0292780Y0129840D02*
X0363223Y0129840D01*
X0363223Y0127873D02*
X0291042Y0127873D01*
X0285970Y0127873D02*
X0273275Y0127873D01*
X0273221Y0125906D02*
X0363223Y0125906D01*
X0363223Y0159345D02*
X0352442Y0159345D01*
X0351896Y0158800D02*
X0356691Y0163594D01*
X0356691Y0166000D01*
X0349491Y0166000D01*
X0349491Y0167968D01*
X0356691Y0167968D01*
X0356691Y0170374D01*
X0351896Y0175168D01*
X0349491Y0175168D01*
X0349491Y0167969D01*
X0347522Y0167969D01*
X0347522Y0175168D01*
X0345116Y0175168D01*
X0340322Y0170374D01*
X0340322Y0167968D01*
X0347522Y0167968D01*
X0347522Y0166000D01*
X0340322Y0166000D01*
X0340322Y0163594D01*
X0345116Y0158800D01*
X0347522Y0158800D01*
X0347522Y0166000D01*
X0349491Y0166000D01*
X0349491Y0158800D01*
X0351896Y0158800D01*
X0349491Y0159345D02*
X0347522Y0159345D01*
X0347522Y0161312D02*
X0349491Y0161312D01*
X0349491Y0163280D02*
X0347522Y0163280D01*
X0347522Y0165247D02*
X0349491Y0165247D01*
X0349491Y0167214D02*
X0363223Y0167214D01*
X0363223Y0169181D02*
X0356691Y0169181D01*
X0355917Y0171148D02*
X0363223Y0171148D01*
X0363223Y0173115D02*
X0353950Y0173115D01*
X0351983Y0175082D02*
X0363223Y0175082D01*
X0363223Y0177049D02*
X0198275Y0177049D01*
X0198275Y0177933D02*
X0197549Y0179685D01*
X0196207Y0181027D01*
X0194455Y0181753D01*
X0192558Y0181753D01*
X0190805Y0181027D01*
X0189464Y0179685D01*
X0189254Y0179180D01*
X0181311Y0171236D01*
X0180805Y0171027D01*
X0179464Y0169685D01*
X0178738Y0167933D01*
X0178738Y0166036D01*
X0179464Y0164283D01*
X0180805Y0162942D01*
X0182558Y0162216D01*
X0184455Y0162216D01*
X0186207Y0162942D01*
X0187549Y0164283D01*
X0187758Y0164789D01*
X0195702Y0172732D01*
X0196207Y0172942D01*
X0197549Y0174283D01*
X0198275Y0176036D01*
X0198275Y0177933D01*
X0197826Y0179016D02*
X0363223Y0179016D01*
X0363223Y0180983D02*
X0277735Y0180983D01*
X0276503Y0179750D02*
X0280741Y0183988D01*
X0280741Y0189981D01*
X0276503Y0194218D01*
X0270510Y0194218D01*
X0266272Y0189981D01*
X0266272Y0183988D01*
X0270510Y0179750D01*
X0276503Y0179750D01*
X0279702Y0182950D02*
X0363223Y0182950D01*
X0363223Y0184917D02*
X0280741Y0184917D01*
X0280741Y0186884D02*
X0363223Y0186884D01*
X0363223Y0188851D02*
X0280741Y0188851D01*
X0279904Y0190818D02*
X0363223Y0190818D01*
X0363223Y0192785D02*
X0277937Y0192785D01*
X0269076Y0192785D02*
X0209457Y0192785D01*
X0209839Y0193705D02*
X0209839Y0201127D01*
X0208988Y0203179D01*
X0207418Y0204750D01*
X0205365Y0205600D01*
X0203144Y0205600D01*
X0201091Y0204750D01*
X0199520Y0203179D01*
X0198694Y0201185D01*
X0198503Y0201775D01*
X0198175Y0202418D01*
X0197751Y0203002D01*
X0197241Y0203512D01*
X0196657Y0203937D01*
X0196014Y0204264D01*
X0195328Y0204487D01*
X0194615Y0204600D01*
X0194254Y0204600D01*
X0193894Y0204600D01*
X0193181Y0204487D01*
X0192495Y0204264D01*
X0191852Y0203937D01*
X0191268Y0203512D01*
X0190758Y0203002D01*
X0190334Y0202418D01*
X0190006Y0201775D01*
X0189783Y0201089D01*
X0189670Y0200377D01*
X0189670Y0200016D01*
X0194254Y0200016D01*
X0194254Y0200016D01*
X0194254Y0204600D01*
X0194254Y0200016D01*
X0194254Y0200016D01*
X0189670Y0200016D01*
X0189670Y0194455D01*
X0189783Y0193742D01*
X0190006Y0193056D01*
X0190334Y0192413D01*
X0190758Y0191829D01*
X0191268Y0191319D01*
X0191852Y0190895D01*
X0192495Y0190567D01*
X0193181Y0190344D01*
X0193894Y0190231D01*
X0194254Y0190231D01*
X0194254Y0200016D01*
X0194254Y0200016D01*
X0194254Y0190231D01*
X0194615Y0190231D01*
X0195328Y0190344D01*
X0196014Y0190567D01*
X0196657Y0190895D01*
X0197241Y0191319D01*
X0197751Y0191829D01*
X0198175Y0192413D01*
X0198503Y0193056D01*
X0198694Y0193646D01*
X0199520Y0191653D01*
X0201091Y0190082D01*
X0203144Y0189231D01*
X0205365Y0189231D01*
X0207418Y0190082D01*
X0208988Y0191653D01*
X0209839Y0193705D01*
X0209839Y0194752D02*
X0363223Y0194752D01*
X0363223Y0196719D02*
X0209839Y0196719D01*
X0209839Y0198686D02*
X0363223Y0198686D01*
X0363223Y0200653D02*
X0209839Y0200653D01*
X0209220Y0202620D02*
X0363223Y0202620D01*
X0363223Y0204587D02*
X0207581Y0204587D01*
X0200928Y0204587D02*
X0194698Y0204587D01*
X0194254Y0204587D02*
X0194254Y0204587D01*
X0193810Y0204587D02*
X0043491Y0204587D01*
X0043491Y0206554D02*
X0363223Y0206554D01*
X0363223Y0208521D02*
X0043491Y0208521D01*
X0043491Y0210488D02*
X0363223Y0210488D01*
X0363223Y0212455D02*
X0043491Y0212455D01*
X0043491Y0214422D02*
X0363223Y0214422D01*
X0363223Y0216389D02*
X0043491Y0216389D01*
X0043491Y0218356D02*
X0363223Y0218356D01*
X0363223Y0220323D02*
X0043491Y0220323D01*
X0043491Y0222290D02*
X0363223Y0222290D01*
X0363223Y0224257D02*
X0043491Y0224257D01*
X0043491Y0226224D02*
X0190149Y0226224D01*
X0189520Y0226853D02*
X0191091Y0225282D01*
X0193144Y0224431D01*
X0195365Y0224431D01*
X0197418Y0225282D01*
X0198988Y0226853D01*
X0199254Y0227494D01*
X0199520Y0226853D01*
X0201091Y0225282D01*
X0203144Y0224431D01*
X0205365Y0224431D01*
X0207418Y0225282D01*
X0208988Y0226853D01*
X0209839Y0228905D01*
X0209839Y0236327D01*
X0208988Y0238379D01*
X0207418Y0239950D01*
X0205365Y0240800D01*
X0203144Y0240800D01*
X0201091Y0239950D01*
X0199520Y0238379D01*
X0199254Y0237737D01*
X0198988Y0238379D01*
X0197418Y0239950D01*
X0195365Y0240800D01*
X0193144Y0240800D01*
X0191091Y0239950D01*
X0189520Y0238379D01*
X0188670Y0236327D01*
X0188670Y0228905D01*
X0189520Y0226853D01*
X0188966Y0228191D02*
X0043491Y0228191D01*
X0043491Y0230158D02*
X0188670Y0230158D01*
X0188670Y0232125D02*
X0043491Y0232125D01*
X0043491Y0234092D02*
X0188670Y0234092D01*
X0188670Y0236059D02*
X0043491Y0236059D01*
X0043491Y0238026D02*
X0189374Y0238026D01*
X0191196Y0239993D02*
X0043491Y0239993D01*
X0043491Y0241960D02*
X0363223Y0241960D01*
X0363223Y0239993D02*
X0207313Y0239993D01*
X0209135Y0238026D02*
X0363223Y0238026D01*
X0363223Y0236059D02*
X0276130Y0236059D01*
X0276207Y0236027D02*
X0274455Y0236753D01*
X0272558Y0236753D01*
X0272052Y0236543D01*
X0234960Y0236543D01*
X0234455Y0236753D01*
X0232558Y0236753D01*
X0230805Y0236027D01*
X0229464Y0234685D01*
X0228738Y0232933D01*
X0228738Y0231036D01*
X0229464Y0229283D01*
X0230805Y0227942D01*
X0232558Y0227216D01*
X0234455Y0227216D01*
X0234960Y0227425D01*
X0272052Y0227425D01*
X0272558Y0227216D01*
X0274455Y0227216D01*
X0276207Y0227942D01*
X0277549Y0229283D01*
X0278275Y0231036D01*
X0278275Y0232933D01*
X0277549Y0234685D01*
X0276207Y0236027D01*
X0277795Y0234092D02*
X0363223Y0234092D01*
X0363223Y0232125D02*
X0278275Y0232125D01*
X0277911Y0230158D02*
X0363223Y0230158D01*
X0363223Y0228191D02*
X0276457Y0228191D01*
X0230556Y0228191D02*
X0209543Y0228191D01*
X0209839Y0230158D02*
X0229101Y0230158D01*
X0228738Y0232125D02*
X0209839Y0232125D01*
X0209839Y0234092D02*
X0229218Y0234092D01*
X0230883Y0236059D02*
X0209839Y0236059D01*
X0201196Y0239993D02*
X0197313Y0239993D01*
X0199135Y0238026D02*
X0199374Y0238026D01*
X0200149Y0226224D02*
X0198360Y0226224D01*
X0208360Y0226224D02*
X0363223Y0226224D01*
X0363223Y0243927D02*
X0043491Y0243927D01*
X0043491Y0245894D02*
X0363223Y0245894D01*
X0363223Y0247861D02*
X0043491Y0247861D01*
X0043491Y0249828D02*
X0363223Y0249828D01*
X0363223Y0251795D02*
X0043491Y0251795D01*
X0043491Y0253762D02*
X0363223Y0253762D01*
X0363223Y0255729D02*
X0043491Y0255729D01*
X0043491Y0257696D02*
X0363223Y0257696D01*
X0363223Y0259663D02*
X0043491Y0259663D01*
X0043491Y0261630D02*
X0363223Y0261630D01*
X0363223Y0263597D02*
X0043491Y0263597D01*
X0043491Y0265564D02*
X0363223Y0265564D01*
X0363223Y0267531D02*
X0171717Y0267531D01*
X0170955Y0267216D02*
X0172707Y0267942D01*
X0174049Y0269283D01*
X0174775Y0271036D01*
X0174775Y0272933D01*
X0174049Y0274685D01*
X0172707Y0276027D01*
X0170955Y0276753D01*
X0169058Y0276753D01*
X0168552Y0276543D01*
X0159460Y0276543D01*
X0158955Y0276753D01*
X0157058Y0276753D01*
X0155305Y0276027D01*
X0153964Y0274685D01*
X0153238Y0272933D01*
X0153238Y0271036D01*
X0153964Y0269283D01*
X0155305Y0267942D01*
X0157058Y0267216D01*
X0158955Y0267216D01*
X0159460Y0267425D01*
X0168552Y0267425D01*
X0169058Y0267216D01*
X0170955Y0267216D01*
X0174138Y0269498D02*
X0363223Y0269498D01*
X0363223Y0271465D02*
X0174775Y0271465D01*
X0174568Y0273432D02*
X0363223Y0273432D01*
X0363223Y0275399D02*
X0173335Y0275399D01*
X0173506Y0279400D02*
X0173506Y0286984D01*
X0173506Y0286984D01*
X0173506Y0279400D01*
X0173130Y0279400D01*
X0172386Y0279518D01*
X0171670Y0279751D01*
X0170999Y0280092D01*
X0170390Y0280535D01*
X0169857Y0281068D01*
X0169414Y0281677D01*
X0169073Y0282348D01*
X0169043Y0282437D01*
X0168410Y0280908D01*
X0166783Y0279281D01*
X0164657Y0278400D01*
X0162356Y0278400D01*
X0160230Y0279281D01*
X0158603Y0280908D01*
X0157722Y0283034D01*
X0157722Y0290935D01*
X0158603Y0293061D01*
X0160230Y0294688D01*
X0162356Y0295568D01*
X0164657Y0295568D01*
X0166783Y0294688D01*
X0168410Y0293061D01*
X0169043Y0291531D01*
X0169073Y0291621D01*
X0169414Y0292292D01*
X0169857Y0292901D01*
X0170390Y0293433D01*
X0170999Y0293876D01*
X0171670Y0294218D01*
X0172386Y0294451D01*
X0173130Y0294568D01*
X0173506Y0294568D01*
X0173506Y0286984D01*
X0173506Y0286984D01*
X0173506Y0294568D01*
X0173883Y0294568D01*
X0174627Y0294451D01*
X0175343Y0294218D01*
X0176014Y0293876D01*
X0176623Y0293433D01*
X0177156Y0292901D01*
X0177598Y0292292D01*
X0177940Y0291621D01*
X0177969Y0291531D01*
X0178603Y0293061D01*
X0180230Y0294688D01*
X0182356Y0295568D01*
X0184657Y0295568D01*
X0186783Y0294688D01*
X0188410Y0293061D01*
X0188506Y0292828D01*
X0188603Y0293061D01*
X0190230Y0294688D01*
X0192356Y0295568D01*
X0194657Y0295568D01*
X0196783Y0294688D01*
X0198410Y0293061D01*
X0198506Y0292828D01*
X0198603Y0293061D01*
X0200230Y0294688D01*
X0202356Y0295568D01*
X0204657Y0295568D01*
X0206783Y0294688D01*
X0208410Y0293061D01*
X0208506Y0292828D01*
X0208603Y0293061D01*
X0210230Y0294688D01*
X0212356Y0295568D01*
X0214657Y0295568D01*
X0216783Y0294688D01*
X0218410Y0293061D01*
X0219043Y0291531D01*
X0219073Y0291621D01*
X0219414Y0292292D01*
X0219857Y0292901D01*
X0220390Y0293433D01*
X0220999Y0293876D01*
X0221670Y0294218D01*
X0222386Y0294451D01*
X0223130Y0294568D01*
X0223506Y0294568D01*
X0223506Y0286984D01*
X0223506Y0286984D01*
X0223506Y0279400D01*
X0223130Y0279400D01*
X0222386Y0279518D01*
X0221670Y0279751D01*
X0220999Y0280092D01*
X0220390Y0280535D01*
X0219857Y0281068D01*
X0219414Y0281677D01*
X0219073Y0282348D01*
X0219043Y0282437D01*
X0218410Y0280908D01*
X0216783Y0279281D01*
X0214657Y0278400D01*
X0212356Y0278400D01*
X0210230Y0279281D01*
X0208603Y0280908D01*
X0208506Y0281140D01*
X0208410Y0280908D01*
X0206783Y0279281D01*
X0204657Y0278400D01*
X0202356Y0278400D01*
X0200230Y0279281D01*
X0198603Y0280908D01*
X0198506Y0281140D01*
X0198410Y0280908D01*
X0196783Y0279281D01*
X0194657Y0278400D01*
X0192356Y0278400D01*
X0190230Y0279281D01*
X0188603Y0280908D01*
X0188506Y0281140D01*
X0188410Y0280908D01*
X0186783Y0279281D01*
X0184657Y0278400D01*
X0182356Y0278400D01*
X0180230Y0279281D01*
X0178603Y0280908D01*
X0177969Y0282437D01*
X0177940Y0282348D01*
X0177598Y0281677D01*
X0177156Y0281068D01*
X0176623Y0280535D01*
X0176014Y0280092D01*
X0175343Y0279751D01*
X0174627Y0279518D01*
X0173883Y0279400D01*
X0173506Y0279400D01*
X0173506Y0281300D02*
X0173506Y0281300D01*
X0173506Y0283267D02*
X0173506Y0283267D01*
X0173506Y0285234D02*
X0173506Y0285234D01*
X0173506Y0287201D02*
X0173506Y0287201D01*
X0173506Y0289168D02*
X0173506Y0289168D01*
X0173506Y0291135D02*
X0173506Y0291135D01*
X0173506Y0293103D02*
X0173506Y0293103D01*
X0170059Y0293103D02*
X0168368Y0293103D01*
X0165861Y0295070D02*
X0181151Y0295070D01*
X0178644Y0293103D02*
X0176954Y0293103D01*
X0185861Y0295070D02*
X0191151Y0295070D01*
X0188644Y0293103D02*
X0188368Y0293103D01*
X0195861Y0295070D02*
X0201151Y0295070D01*
X0198644Y0293103D02*
X0198368Y0293103D01*
X0205861Y0295070D02*
X0211151Y0295070D01*
X0208644Y0293103D02*
X0208368Y0293103D01*
X0215861Y0295070D02*
X0231151Y0295070D01*
X0230230Y0294688D02*
X0232356Y0295568D01*
X0234657Y0295568D01*
X0236783Y0294688D01*
X0238410Y0293061D01*
X0239291Y0290935D01*
X0239291Y0283034D01*
X0238410Y0280908D01*
X0236783Y0279281D01*
X0234657Y0278400D01*
X0232356Y0278400D01*
X0230230Y0279281D01*
X0228603Y0280908D01*
X0227969Y0282437D01*
X0227940Y0282348D01*
X0227598Y0281677D01*
X0227156Y0281068D01*
X0226623Y0280535D01*
X0226014Y0280092D01*
X0225343Y0279751D01*
X0224627Y0279518D01*
X0223883Y0279400D01*
X0223506Y0279400D01*
X0223506Y0286984D01*
X0223506Y0286984D01*
X0223506Y0294568D01*
X0223883Y0294568D01*
X0224627Y0294451D01*
X0225343Y0294218D01*
X0226014Y0293876D01*
X0226623Y0293433D01*
X0227156Y0292901D01*
X0227598Y0292292D01*
X0227940Y0291621D01*
X0227969Y0291531D01*
X0228603Y0293061D01*
X0230230Y0294688D01*
X0228644Y0293103D02*
X0226954Y0293103D01*
X0223506Y0293103D02*
X0223506Y0293103D01*
X0223506Y0291135D02*
X0223506Y0291135D01*
X0223506Y0289168D02*
X0223506Y0289168D01*
X0223506Y0287201D02*
X0223506Y0287201D01*
X0223506Y0285234D02*
X0223506Y0285234D01*
X0223506Y0283267D02*
X0223506Y0283267D01*
X0223506Y0281300D02*
X0223506Y0281300D01*
X0219688Y0281300D02*
X0218573Y0281300D01*
X0216836Y0279333D02*
X0230177Y0279333D01*
X0228440Y0281300D02*
X0227325Y0281300D01*
X0236836Y0279333D02*
X0363223Y0279333D01*
X0363223Y0277366D02*
X0043491Y0277366D01*
X0043491Y0275399D02*
X0154678Y0275399D01*
X0153445Y0273432D02*
X0043491Y0273432D01*
X0043491Y0271465D02*
X0153238Y0271465D01*
X0153875Y0269498D02*
X0043491Y0269498D01*
X0043491Y0267531D02*
X0156296Y0267531D01*
X0160177Y0279333D02*
X0043491Y0279333D01*
X0043491Y0281300D02*
X0158440Y0281300D01*
X0157722Y0283267D02*
X0043491Y0283267D01*
X0043491Y0285234D02*
X0157722Y0285234D01*
X0157722Y0287201D02*
X0043491Y0287201D01*
X0043491Y0289168D02*
X0157722Y0289168D01*
X0157805Y0291135D02*
X0043491Y0291135D01*
X0043491Y0293103D02*
X0158644Y0293103D01*
X0161151Y0295070D02*
X0043491Y0295070D01*
X0043491Y0297037D02*
X0363223Y0297037D01*
X0363223Y0299004D02*
X0043491Y0299004D01*
X0043491Y0300971D02*
X0363223Y0300971D01*
X0363223Y0302938D02*
X0043491Y0302938D01*
X0043491Y0304905D02*
X0363223Y0304905D01*
X0363223Y0306872D02*
X0043491Y0306872D01*
X0043491Y0308839D02*
X0363223Y0308839D01*
X0363223Y0310806D02*
X0043491Y0310806D01*
X0166836Y0279333D02*
X0180177Y0279333D01*
X0178440Y0281300D02*
X0177325Y0281300D01*
X0169688Y0281300D02*
X0168573Y0281300D01*
X0186836Y0279333D02*
X0190177Y0279333D01*
X0196836Y0279333D02*
X0200177Y0279333D01*
X0206836Y0279333D02*
X0210177Y0279333D01*
X0218368Y0293103D02*
X0220059Y0293103D01*
X0235861Y0295070D02*
X0363223Y0295070D01*
X0363223Y0293103D02*
X0238368Y0293103D01*
X0239207Y0291135D02*
X0363223Y0291135D01*
X0363223Y0289168D02*
X0239291Y0289168D01*
X0239291Y0287201D02*
X0363223Y0287201D01*
X0363223Y0285234D02*
X0239291Y0285234D01*
X0239291Y0283267D02*
X0363223Y0283267D01*
X0363223Y0281300D02*
X0238573Y0281300D01*
X0199289Y0202620D02*
X0198029Y0202620D01*
X0194254Y0202620D02*
X0194254Y0202620D01*
X0194254Y0200653D02*
X0194254Y0200653D01*
X0194254Y0198686D02*
X0194254Y0198686D01*
X0194254Y0196719D02*
X0194254Y0196719D01*
X0194254Y0194752D02*
X0194254Y0194752D01*
X0194254Y0192785D02*
X0194254Y0192785D01*
X0194254Y0190818D02*
X0194254Y0190818D01*
X0192003Y0190818D02*
X0124904Y0190818D01*
X0125741Y0189981D02*
X0121503Y0194218D01*
X0115510Y0194218D01*
X0111272Y0189981D01*
X0111272Y0183988D01*
X0115510Y0179750D01*
X0121503Y0179750D01*
X0125741Y0183988D01*
X0125741Y0189981D01*
X0125741Y0188851D02*
X0266272Y0188851D01*
X0266272Y0186884D02*
X0125741Y0186884D01*
X0125741Y0184917D02*
X0266272Y0184917D01*
X0267310Y0182950D02*
X0124702Y0182950D01*
X0122735Y0180983D02*
X0190761Y0180983D01*
X0189090Y0179016D02*
X0043491Y0179016D01*
X0043491Y0180983D02*
X0114277Y0180983D01*
X0112310Y0182950D02*
X0043491Y0182950D01*
X0043491Y0184917D02*
X0111272Y0184917D01*
X0111272Y0186884D02*
X0043491Y0186884D01*
X0043491Y0188851D02*
X0111272Y0188851D01*
X0112109Y0190818D02*
X0043491Y0190818D01*
X0043491Y0192785D02*
X0114076Y0192785D01*
X0122937Y0192785D02*
X0190144Y0192785D01*
X0189670Y0194752D02*
X0043491Y0194752D01*
X0043491Y0196719D02*
X0189670Y0196719D01*
X0189670Y0198686D02*
X0043491Y0198686D01*
X0043491Y0200653D02*
X0189714Y0200653D01*
X0190480Y0202620D02*
X0043491Y0202620D01*
X0043491Y0177049D02*
X0187123Y0177049D01*
X0185156Y0175082D02*
X0073761Y0175082D01*
X0076331Y0173115D02*
X0183189Y0173115D01*
X0181097Y0171148D02*
X0077096Y0171148D01*
X0077086Y0169181D02*
X0179255Y0169181D01*
X0178738Y0167214D02*
X0076221Y0167214D01*
X0076077Y0165247D02*
X0179065Y0165247D01*
X0180467Y0163280D02*
X0076077Y0163280D01*
X0076077Y0161312D02*
X0342604Y0161312D01*
X0344571Y0159345D02*
X0075988Y0159345D01*
X0067746Y0163280D02*
X0066200Y0163280D01*
X0067746Y0165247D02*
X0063363Y0165247D01*
X0060461Y0165247D02*
X0053413Y0165247D01*
X0052943Y0165052D02*
X0054848Y0165841D01*
X0056307Y0167300D01*
X0057096Y0169205D01*
X0057096Y0171267D01*
X0056307Y0173173D01*
X0054848Y0174631D01*
X0052943Y0175420D01*
X0050881Y0175420D01*
X0048975Y0174631D01*
X0047517Y0173173D01*
X0046728Y0171267D01*
X0046728Y0169205D01*
X0047517Y0167300D01*
X0048975Y0165841D01*
X0050881Y0165052D01*
X0052943Y0165052D01*
X0050411Y0165247D02*
X0043491Y0165247D01*
X0043491Y0167214D02*
X0047603Y0167214D01*
X0046738Y0169181D02*
X0043491Y0169181D01*
X0043491Y0171148D02*
X0046728Y0171148D01*
X0047493Y0173115D02*
X0043491Y0173115D01*
X0043491Y0175082D02*
X0050062Y0175082D01*
X0053761Y0175082D02*
X0070063Y0175082D01*
X0067493Y0173115D02*
X0056331Y0173115D01*
X0057096Y0171148D02*
X0066728Y0171148D01*
X0066738Y0169181D02*
X0057086Y0169181D01*
X0056221Y0167214D02*
X0067603Y0167214D01*
X0057623Y0163280D02*
X0043491Y0163280D01*
X0043491Y0161312D02*
X0056746Y0161312D01*
X0056728Y0159345D02*
X0043491Y0159345D01*
X0043491Y0157378D02*
X0057484Y0157378D01*
X0060013Y0155411D02*
X0043491Y0155411D01*
X0043491Y0153444D02*
X0183950Y0153444D01*
X0183738Y0151477D02*
X0043491Y0151477D01*
X0043491Y0149510D02*
X0183947Y0149510D01*
X0183947Y0147543D02*
X0043491Y0147543D01*
X0043491Y0145576D02*
X0183947Y0145576D01*
X0183947Y0143609D02*
X0043491Y0143609D01*
X0043491Y0141642D02*
X0183947Y0141642D01*
X0183947Y0139675D02*
X0043491Y0139675D01*
X0043491Y0137708D02*
X0183947Y0137708D01*
X0183947Y0135741D02*
X0043491Y0135741D01*
X0043491Y0133774D02*
X0053722Y0133774D01*
X0051755Y0131807D02*
X0043491Y0131807D01*
X0043491Y0129840D02*
X0050322Y0129840D01*
X0050322Y0125906D02*
X0043491Y0125906D01*
X0043491Y0123939D02*
X0050322Y0123939D01*
X0051944Y0121972D02*
X0043491Y0121972D01*
X0043491Y0120005D02*
X0053911Y0120005D01*
X0057522Y0127873D02*
X0043491Y0127873D01*
X0057522Y0129840D02*
X0059491Y0129840D01*
X0059491Y0131807D02*
X0057522Y0131807D01*
X0057522Y0133774D02*
X0059491Y0133774D01*
X0063291Y0133774D02*
X0183947Y0133774D01*
X0183738Y0131807D02*
X0065258Y0131807D01*
X0186545Y0163280D02*
X0340637Y0163280D01*
X0340322Y0165247D02*
X0188216Y0165247D01*
X0190183Y0167214D02*
X0347522Y0167214D01*
X0347522Y0169181D02*
X0349491Y0169181D01*
X0349491Y0171148D02*
X0347522Y0171148D01*
X0347522Y0173115D02*
X0349491Y0173115D01*
X0349491Y0175082D02*
X0347522Y0175082D01*
X0345029Y0175082D02*
X0197880Y0175082D01*
X0196380Y0173115D02*
X0343062Y0173115D01*
X0341095Y0171148D02*
X0194117Y0171148D01*
X0192150Y0169181D02*
X0340322Y0169181D01*
X0354409Y0161312D02*
X0363223Y0161312D01*
X0363223Y0163280D02*
X0356376Y0163280D01*
X0356691Y0165247D02*
X0363223Y0165247D01*
X0285190Y0155411D02*
X0211823Y0155411D01*
X0213063Y0153444D02*
X0283950Y0153444D01*
X0283738Y0151477D02*
X0213275Y0151477D01*
X0213065Y0149510D02*
X0283947Y0149510D01*
X0283947Y0147543D02*
X0213065Y0147543D01*
X0213065Y0145576D02*
X0283947Y0145576D01*
X0283947Y0143609D02*
X0213065Y0143609D01*
X0213065Y0141642D02*
X0283947Y0141642D01*
X0283947Y0139675D02*
X0213065Y0139675D01*
X0213065Y0137708D02*
X0283947Y0137708D01*
X0283947Y0135741D02*
X0213065Y0135741D01*
X0213065Y0133774D02*
X0283947Y0133774D01*
X0283738Y0131807D02*
X0213275Y0131807D01*
X0212780Y0129840D02*
X0234619Y0129840D01*
X0233738Y0127873D02*
X0211042Y0127873D01*
X0272394Y0129840D02*
X0284233Y0129840D01*
X0269277Y0180983D02*
X0196252Y0180983D01*
X0196505Y0190818D02*
X0200355Y0190818D01*
X0199051Y0192785D02*
X0198364Y0192785D01*
X0208154Y0190818D02*
X0267109Y0190818D01*
X0356194Y0084599D02*
X0358162Y0084599D01*
X0358162Y0082632D02*
X0356194Y0082632D01*
X0356194Y0080665D02*
X0358162Y0080665D01*
X0358162Y0078698D02*
X0356194Y0078698D01*
D19*
X0231325Y0084232D02*
X0225758Y0084232D01*
X0225506Y0084484D01*
X0221172Y0079484D02*
X0219306Y0081350D01*
X0221172Y0079484D02*
X0225506Y0079484D01*
X0225506Y0074484D02*
X0220746Y0074484D01*
X0219246Y0072984D01*
X0225506Y0069484D02*
X0231148Y0069484D01*
X0231250Y0069382D01*
X0071912Y0160390D02*
X0069412Y0157890D01*
X0064258Y0157890D01*
X0061912Y0160236D01*
X0071912Y0160390D02*
X0071912Y0170236D01*
D20*
X0093506Y0185984D03*
X0062006Y0200484D03*
X0052006Y0201984D03*
X0061006Y0214984D03*
X0105006Y0215984D03*
X0074006Y0259484D03*
X0158006Y0271984D03*
X0170006Y0271984D03*
X0175506Y0251984D03*
X0175506Y0241984D03*
X0175506Y0206984D03*
X0175506Y0196984D03*
X0193506Y0176984D03*
X0183506Y0166984D03*
X0188506Y0151984D03*
X0208506Y0151984D03*
X0208506Y0131984D03*
X0188506Y0131984D03*
X0173506Y0120484D03*
X0163506Y0120484D03*
X0153506Y0115484D03*
X0153506Y0105484D03*
X0143506Y0095484D03*
X0133506Y0085484D03*
X0123506Y0085484D03*
X0113506Y0085484D03*
X0103506Y0085484D03*
X0093506Y0080484D03*
X0093506Y0065984D03*
X0103506Y0060984D03*
X0103506Y0050984D03*
X0113506Y0045984D03*
X0123506Y0045984D03*
X0133506Y0035984D03*
X0143506Y0035984D03*
X0153506Y0035984D03*
X0158506Y0045984D03*
X0168506Y0045484D03*
X0168506Y0035484D03*
X0168506Y0025484D03*
X0178506Y0025484D03*
X0188506Y0025484D03*
X0198506Y0025484D03*
X0208506Y0025484D03*
X0218506Y0040484D03*
X0228506Y0045484D03*
X0238506Y0045484D03*
X0248506Y0040484D03*
X0258506Y0040484D03*
X0268506Y0037984D03*
X0278506Y0045484D03*
X0288506Y0050484D03*
X0298506Y0060484D03*
X0308506Y0065484D03*
X0308506Y0077984D03*
X0298506Y0077984D03*
X0288506Y0072984D03*
X0278506Y0076984D03*
X0281506Y0084984D03*
X0268506Y0091484D03*
X0258506Y0091484D03*
X0253506Y0084984D03*
X0253506Y0076984D03*
X0248506Y0067984D03*
X0258506Y0067984D03*
X0268506Y0067984D03*
X0278506Y0067984D03*
X0248506Y0091484D03*
X0238506Y0091484D03*
X0227506Y0091984D03*
X0213506Y0110484D03*
X0203506Y0109984D03*
X0193506Y0110484D03*
X0183506Y0110484D03*
X0168506Y0075484D03*
X0168506Y0065484D03*
X0158506Y0065484D03*
X0148506Y0065484D03*
X0132006Y0064984D03*
X0168506Y0055484D03*
X0242006Y0119484D03*
X0238506Y0126984D03*
X0252006Y0119484D03*
X0262006Y0119484D03*
X0268506Y0126984D03*
X0288506Y0131984D03*
X0288506Y0151984D03*
X0328506Y0196984D03*
X0328506Y0206984D03*
X0328506Y0241984D03*
X0328506Y0251984D03*
X0273506Y0231984D03*
X0250506Y0221984D03*
X0233506Y0231984D03*
X0225006Y0226984D03*
X0233506Y0243484D03*
X0226006Y0201984D03*
X0268506Y0197984D03*
X0348506Y0097984D03*
X0343506Y0092984D03*
X0343506Y0082984D03*
X0338506Y0077984D03*
X0328506Y0077984D03*
X0328506Y0065484D03*
X0338506Y0065484D03*
X0343506Y0060484D03*
X0343506Y0050484D03*
X0348506Y0045484D03*
X0358506Y0045484D03*
X0358506Y0097984D03*
X0073506Y0077984D03*
X0063506Y0077984D03*
X0063506Y0087984D03*
X0058506Y0097984D03*
X0048506Y0097984D03*
X0063506Y0065984D03*
X0063506Y0055984D03*
X0058506Y0045984D03*
X0048506Y0045984D03*
X0073506Y0065984D03*
D21*
X0188506Y0131984D02*
X0188506Y0151984D01*
X0183506Y0166984D02*
X0193506Y0176984D01*
X0208506Y0151984D02*
X0208506Y0131984D01*
X0238506Y0126984D02*
X0268506Y0126984D01*
X0288506Y0131984D02*
X0288506Y0151984D01*
X0281506Y0084984D02*
X0253506Y0084984D01*
X0253506Y0076984D02*
X0278506Y0076984D01*
X0219306Y0073043D02*
X0219306Y0081350D01*
X0233506Y0231984D02*
X0273506Y0231984D01*
X0170006Y0271984D02*
X0158006Y0271984D01*
D22*
X0058506Y0296984D03*
X0343506Y0296984D03*
X0343506Y0021984D03*
X0058506Y0021984D03*
D23*
X0083506Y0011984D03*
X0103506Y0011984D03*
X0123506Y0011984D03*
X0143506Y0011984D03*
X0163506Y0011984D03*
X0183506Y0011984D03*
X0201006Y0011984D03*
X0218506Y0011984D03*
X0238506Y0011984D03*
X0258506Y0011984D03*
X0278506Y0011984D03*
X0298506Y0011984D03*
X0318506Y0011984D03*
X0318506Y0031984D03*
X0318506Y0051984D03*
X0318506Y0081984D03*
X0318506Y0101984D03*
X0318506Y0121984D03*
X0318506Y0141984D03*
X0298506Y0141984D03*
X0278506Y0141984D03*
X0258506Y0141984D03*
X0238506Y0141984D03*
X0218506Y0141984D03*
X0198506Y0141984D03*
X0181006Y0141984D03*
X0163506Y0141984D03*
X0143506Y0141984D03*
X0123506Y0141984D03*
X0103506Y0141984D03*
X0083506Y0141984D03*
X0083506Y0121984D03*
X0083506Y0101984D03*
X0083506Y0081984D03*
X0083506Y0051984D03*
X0083506Y0031984D03*
D24*
X0231250Y0069382D02*
X0231325Y0069457D01*
X0231325Y0084232D01*
M02*
