%
M48
M72
T01C0.01181
T02C0.01969
T03C0.02400
T04C0.03200
T05C0.03600
T06C0.03937
T07C0.05200
T08C0.07900
T09C0.15748
%
T01
X186506Y79484
X186506Y84484
X186506Y89484
X186506Y94484
X186506Y99484
X186506Y104484
X191506Y104484
X198506Y99484
X198506Y94484
X201006Y89484
X206006Y89484
X211006Y89484
X200506Y84484
X206006Y77984
X206006Y72984
X206506Y67984
X211006Y64484
X209006Y59984
X206006Y63484
X200506Y67984
X191506Y64484
X197506Y56984
X225506Y69484
X225506Y74484
X225506Y79484
X225506Y84484
T02
X227506Y91984
X238506Y91484
X248506Y91484
X253506Y84984
X253506Y76984
X248506Y67984
X258506Y67984
X268506Y67984
X278506Y67984
X278506Y76984
X281506Y84984
X268506Y91484
X258506Y91484
X288506Y72984
X298506Y77984
X308506Y77984
X308506Y65484
X298506Y60484
X288506Y50484
X278506Y45484
X268506Y37984
X258506Y40484
X248506Y40484
X238506Y45484
X228506Y45484
X218506Y40484
X208506Y25484
X198506Y25484
X188506Y25484
X178506Y25484
X168506Y25484
X168506Y35484
X168506Y45484
X158506Y45984
X153506Y35984
X143506Y35984
X133506Y35984
X123506Y45984
X113506Y45984
X103506Y50984
X103506Y60984
X93506Y65984
X93506Y80484
X103506Y85484
X113506Y85484
X123506Y85484
X133506Y85484
X143506Y95484
X153506Y105484
X153506Y115484
X163506Y120484
X173506Y120484
X183506Y110484
X193506Y110484
X203506Y109984
X213506Y110484
X208506Y131984
X188506Y131984
X188506Y151984
X183506Y166984
X193506Y176984
X175506Y196984
X175506Y206984
X175506Y241984
X175506Y251984
X170006Y271984
X158006Y271984
X225006Y226984
X233506Y231984
X233506Y243484
X250506Y221984
X273506Y231984
X268506Y197984
X226006Y201984
X208506Y151984
X238506Y126984
X242006Y119484
X252006Y119484
X262006Y119484
X268506Y126984
X288506Y131984
X288506Y151984
X328506Y196984
X328506Y206984
X328506Y241984
X328506Y251984
X348506Y97984
X343506Y92984
X343506Y82984
X338506Y77984
X328506Y77984
X328506Y65484
X338506Y65484
X343506Y60484
X343506Y50484
X348506Y45484
X358506Y45484
X358506Y97984
X168506Y75484
X168506Y65484
X158506Y65484
X148506Y65484
X132006Y64984
X168506Y55484
X73506Y65984
X63506Y65984
X63506Y55984
X58506Y45984
X48506Y45984
X63506Y77984
X63506Y87984
X58506Y97984
X48506Y97984
X73506Y77984
X93506Y185984
X62006Y200484
X52006Y201984
X61006Y214984
X105006Y215984
X74006Y259484
T03
X71912Y170236
X61912Y160236
X51912Y170236
T04
X194254Y200016
X204254Y200016
X204254Y230016
X194254Y230016
T05
X193506Y286984
X183506Y286984
X173506Y286984
X163506Y286984
X203506Y286984
X213506Y286984
X223506Y286984
X233506Y286984
T06
X238506Y141984
X258506Y141984
X278506Y141984
X298506Y141984
X318506Y141984
X318506Y121984
X318506Y101984
X318506Y81984
X318506Y51984
X318506Y31984
X318506Y11984
X298506Y11984
X278506Y11984
X258506Y11984
X238506Y11984
X218506Y11984
X201006Y11984
X183506Y11984
X163506Y11984
X143506Y11984
X123506Y11984
X103506Y11984
X83506Y11984
X83506Y31984
X83506Y51984
X83506Y81984
X83506Y101984
X83506Y121984
X83506Y141984
X103506Y141984
X123506Y141984
X143506Y141984
X163506Y141984
X181006Y141984
X198506Y141984
X218506Y141984
T07
X273506Y186984
X118506Y186984
T08
X58506Y126984
X348506Y166984
T09
X58506Y21984
X343506Y21984
X343506Y296984
X58506Y296984
M30
