G75*
%MOIN*%
%OFA0B0*%
%FSLAX25Y25*%
%IPPOS*%
%LPD*%
%AMOC8*
5,1,8,0,0,1.08239X$1,22.5*
%
%ADD10C,0.00600*%
%ADD11R,0.05918X0.06706*%
%ADD12R,0.06706X0.05918*%
%ADD13R,0.09500X0.03200*%
%ADD14R,0.07898X0.07099*%
%ADD15R,0.17300X0.07800*%
%ADD16R,0.17300X0.11300*%
%ADD17R,0.04737X0.04737*%
%ADD18R,0.07099X0.07898*%
%ADD19C,0.05200*%
%ADD20C,0.06000*%
%ADD21R,0.06706X0.04737*%
%ADD22R,0.04737X0.06706*%
%ADD23R,0.07887X0.06312*%
%ADD24R,0.16548X0.10643*%
%ADD25R,0.07887X0.05524*%
%ADD26R,0.07099X0.07887*%
%ADD27R,0.06706X0.08674*%
%ADD28R,0.15761X0.08674*%
%ADD29R,0.05524X0.07887*%
%ADD30OC8,0.09300*%
%ADD31C,0.07099*%
%ADD32C,0.01677*%
%ADD33C,0.06400*%
%ADD34OC8,0.13200*%
%ADD35C,0.03581*%
%ADD36C,0.04369*%
%ADD37C,0.28359*%
%ADD38C,0.06706*%
D10*
X0078506Y0006984D02*
X0088506Y0006984D01*
X0088506Y0066984D01*
X0078506Y0066984D01*
X0078506Y0006984D01*
X0078506Y0016984D01*
X0313506Y0016984D01*
X0313506Y0066984D01*
X0323506Y0066984D01*
X0323506Y0006984D01*
X0078506Y0006984D01*
X0078506Y0007371D02*
X0088506Y0007371D01*
X0088506Y0007969D02*
X0078506Y0007969D01*
X0323506Y0007969D01*
X0323506Y0007371D02*
X0078506Y0007371D01*
X0078506Y0008568D02*
X0088506Y0008568D01*
X0088506Y0009166D02*
X0078506Y0009166D01*
X0323506Y0009166D01*
X0323506Y0008568D02*
X0078506Y0008568D01*
X0078506Y0009765D02*
X0088506Y0009765D01*
X0088506Y0010363D02*
X0078506Y0010363D01*
X0323506Y0010363D01*
X0323506Y0009765D02*
X0078506Y0009765D01*
X0078506Y0010962D02*
X0088506Y0010962D01*
X0088506Y0011560D02*
X0078506Y0011560D01*
X0323506Y0011560D01*
X0323506Y0010962D02*
X0078506Y0010962D01*
X0078506Y0012159D02*
X0088506Y0012159D01*
X0088506Y0012757D02*
X0078506Y0012757D01*
X0323506Y0012757D01*
X0323506Y0012159D02*
X0078506Y0012159D01*
X0078506Y0013356D02*
X0088506Y0013356D01*
X0088506Y0013954D02*
X0078506Y0013954D01*
X0323506Y0013954D01*
X0323506Y0013356D02*
X0078506Y0013356D01*
X0078506Y0014553D02*
X0088506Y0014553D01*
X0088506Y0015152D02*
X0078506Y0015152D01*
X0323506Y0015152D01*
X0323506Y0015750D02*
X0078506Y0015750D01*
X0088506Y0015750D01*
X0088506Y0016349D02*
X0078506Y0016349D01*
X0323506Y0016349D01*
X0323506Y0016947D02*
X0078506Y0016947D01*
X0088506Y0016947D01*
X0088506Y0017546D02*
X0078506Y0017546D01*
X0078506Y0018144D02*
X0088506Y0018144D01*
X0088506Y0018743D02*
X0078506Y0018743D01*
X0078506Y0019341D02*
X0088506Y0019341D01*
X0088506Y0019940D02*
X0078506Y0019940D01*
X0078506Y0020538D02*
X0088506Y0020538D01*
X0088506Y0021137D02*
X0078506Y0021137D01*
X0078506Y0021735D02*
X0088506Y0021735D01*
X0088506Y0022334D02*
X0078506Y0022334D01*
X0078506Y0022932D02*
X0088506Y0022932D01*
X0088506Y0023531D02*
X0078506Y0023531D01*
X0078506Y0024129D02*
X0088506Y0024129D01*
X0088506Y0024728D02*
X0078506Y0024728D01*
X0078506Y0025326D02*
X0088506Y0025326D01*
X0088506Y0025925D02*
X0078506Y0025925D01*
X0078506Y0026523D02*
X0088506Y0026523D01*
X0088506Y0027122D02*
X0078506Y0027122D01*
X0078506Y0027720D02*
X0088506Y0027720D01*
X0088506Y0028319D02*
X0078506Y0028319D01*
X0078506Y0028917D02*
X0088506Y0028917D01*
X0088506Y0029516D02*
X0078506Y0029516D01*
X0078506Y0030114D02*
X0088506Y0030114D01*
X0088506Y0030713D02*
X0078506Y0030713D01*
X0078506Y0031311D02*
X0088506Y0031311D01*
X0088506Y0031910D02*
X0078506Y0031910D01*
X0078506Y0032508D02*
X0088506Y0032508D01*
X0088506Y0033107D02*
X0078506Y0033107D01*
X0078506Y0033705D02*
X0088506Y0033705D01*
X0088506Y0034304D02*
X0078506Y0034304D01*
X0078506Y0034902D02*
X0088506Y0034902D01*
X0088506Y0035501D02*
X0078506Y0035501D01*
X0078506Y0036099D02*
X0088506Y0036099D01*
X0088506Y0036698D02*
X0078506Y0036698D01*
X0078506Y0037296D02*
X0088506Y0037296D01*
X0088506Y0037895D02*
X0078506Y0037895D01*
X0078506Y0038493D02*
X0088506Y0038493D01*
X0088506Y0039092D02*
X0078506Y0039092D01*
X0078506Y0039690D02*
X0088506Y0039690D01*
X0088506Y0040289D02*
X0078506Y0040289D01*
X0078506Y0040887D02*
X0088506Y0040887D01*
X0088506Y0041486D02*
X0078506Y0041486D01*
X0078506Y0042085D02*
X0088506Y0042085D01*
X0088506Y0042683D02*
X0078506Y0042683D01*
X0078506Y0043282D02*
X0088506Y0043282D01*
X0088506Y0043880D02*
X0078506Y0043880D01*
X0078506Y0044479D02*
X0088506Y0044479D01*
X0088506Y0045077D02*
X0078506Y0045077D01*
X0078506Y0045676D02*
X0088506Y0045676D01*
X0088506Y0046274D02*
X0078506Y0046274D01*
X0078506Y0046873D02*
X0088506Y0046873D01*
X0088506Y0047471D02*
X0078506Y0047471D01*
X0078506Y0048070D02*
X0088506Y0048070D01*
X0088506Y0048668D02*
X0078506Y0048668D01*
X0078506Y0049267D02*
X0088506Y0049267D01*
X0088506Y0049865D02*
X0078506Y0049865D01*
X0078506Y0050464D02*
X0088506Y0050464D01*
X0088506Y0051062D02*
X0078506Y0051062D01*
X0078506Y0051661D02*
X0088506Y0051661D01*
X0088506Y0052259D02*
X0078506Y0052259D01*
X0078506Y0052858D02*
X0088506Y0052858D01*
X0088506Y0053456D02*
X0078506Y0053456D01*
X0078506Y0054055D02*
X0088506Y0054055D01*
X0088506Y0054653D02*
X0078506Y0054653D01*
X0078506Y0055252D02*
X0088506Y0055252D01*
X0088506Y0055850D02*
X0078506Y0055850D01*
X0078506Y0056449D02*
X0088506Y0056449D01*
X0088506Y0057047D02*
X0078506Y0057047D01*
X0078506Y0057646D02*
X0088506Y0057646D01*
X0088506Y0058244D02*
X0078506Y0058244D01*
X0078506Y0058843D02*
X0088506Y0058843D01*
X0088506Y0059441D02*
X0078506Y0059441D01*
X0078506Y0060040D02*
X0088506Y0060040D01*
X0088506Y0060638D02*
X0078506Y0060638D01*
X0078506Y0061237D02*
X0088506Y0061237D01*
X0088506Y0061835D02*
X0078506Y0061835D01*
X0078506Y0062434D02*
X0088506Y0062434D01*
X0088506Y0063032D02*
X0078506Y0063032D01*
X0078506Y0063631D02*
X0088506Y0063631D01*
X0088506Y0064229D02*
X0078506Y0064229D01*
X0078506Y0064828D02*
X0088506Y0064828D01*
X0088506Y0065426D02*
X0078506Y0065426D01*
X0078506Y0066025D02*
X0088506Y0066025D01*
X0088506Y0066623D02*
X0078506Y0066623D01*
X0078506Y0076984D02*
X0088506Y0076984D01*
X0088506Y0136984D01*
X0323506Y0136984D01*
X0323506Y0146984D01*
X0323506Y0076984D01*
X0313506Y0076984D01*
X0313506Y0146984D01*
X0323506Y0146984D01*
X0078506Y0146984D01*
X0078506Y0076984D01*
X0078506Y0077397D02*
X0088506Y0077397D01*
X0088506Y0077995D02*
X0078506Y0077995D01*
X0078506Y0078594D02*
X0088506Y0078594D01*
X0088506Y0079192D02*
X0078506Y0079192D01*
X0078506Y0079791D02*
X0088506Y0079791D01*
X0088506Y0080389D02*
X0078506Y0080389D01*
X0078506Y0080988D02*
X0088506Y0080988D01*
X0088506Y0081586D02*
X0078506Y0081586D01*
X0078506Y0082185D02*
X0088506Y0082185D01*
X0088506Y0082783D02*
X0078506Y0082783D01*
X0078506Y0083382D02*
X0088506Y0083382D01*
X0088506Y0083980D02*
X0078506Y0083980D01*
X0078506Y0084579D02*
X0088506Y0084579D01*
X0088506Y0085177D02*
X0078506Y0085177D01*
X0078506Y0085776D02*
X0088506Y0085776D01*
X0088506Y0086374D02*
X0078506Y0086374D01*
X0078506Y0086973D02*
X0088506Y0086973D01*
X0088506Y0087571D02*
X0078506Y0087571D01*
X0078506Y0088170D02*
X0088506Y0088170D01*
X0088506Y0088768D02*
X0078506Y0088768D01*
X0078506Y0089367D02*
X0088506Y0089367D01*
X0088506Y0089965D02*
X0078506Y0089965D01*
X0078506Y0090564D02*
X0088506Y0090564D01*
X0088506Y0091162D02*
X0078506Y0091162D01*
X0078506Y0091761D02*
X0088506Y0091761D01*
X0088506Y0092359D02*
X0078506Y0092359D01*
X0078506Y0092958D02*
X0088506Y0092958D01*
X0088506Y0093556D02*
X0078506Y0093556D01*
X0078506Y0094155D02*
X0088506Y0094155D01*
X0088506Y0094754D02*
X0078506Y0094754D01*
X0078506Y0095352D02*
X0088506Y0095352D01*
X0088506Y0095951D02*
X0078506Y0095951D01*
X0078506Y0096549D02*
X0088506Y0096549D01*
X0088506Y0097148D02*
X0078506Y0097148D01*
X0078506Y0097746D02*
X0088506Y0097746D01*
X0088506Y0098345D02*
X0078506Y0098345D01*
X0078506Y0098943D02*
X0088506Y0098943D01*
X0088506Y0099542D02*
X0078506Y0099542D01*
X0078506Y0100140D02*
X0088506Y0100140D01*
X0088506Y0100739D02*
X0078506Y0100739D01*
X0078506Y0101337D02*
X0088506Y0101337D01*
X0088506Y0101936D02*
X0078506Y0101936D01*
X0078506Y0102534D02*
X0088506Y0102534D01*
X0088506Y0103133D02*
X0078506Y0103133D01*
X0078506Y0103731D02*
X0088506Y0103731D01*
X0088506Y0104330D02*
X0078506Y0104330D01*
X0078506Y0104928D02*
X0088506Y0104928D01*
X0088506Y0105527D02*
X0078506Y0105527D01*
X0078506Y0106125D02*
X0088506Y0106125D01*
X0088506Y0106724D02*
X0078506Y0106724D01*
X0078506Y0107322D02*
X0088506Y0107322D01*
X0088506Y0107921D02*
X0078506Y0107921D01*
X0078506Y0108519D02*
X0088506Y0108519D01*
X0088506Y0109118D02*
X0078506Y0109118D01*
X0078506Y0109716D02*
X0088506Y0109716D01*
X0088506Y0110315D02*
X0078506Y0110315D01*
X0078506Y0110913D02*
X0088506Y0110913D01*
X0088506Y0111512D02*
X0078506Y0111512D01*
X0078506Y0112110D02*
X0088506Y0112110D01*
X0088506Y0112709D02*
X0078506Y0112709D01*
X0078506Y0113307D02*
X0088506Y0113307D01*
X0088506Y0113906D02*
X0078506Y0113906D01*
X0078506Y0114504D02*
X0088506Y0114504D01*
X0088506Y0115103D02*
X0078506Y0115103D01*
X0078506Y0115701D02*
X0088506Y0115701D01*
X0088506Y0116300D02*
X0078506Y0116300D01*
X0078506Y0116898D02*
X0088506Y0116898D01*
X0088506Y0117497D02*
X0078506Y0117497D01*
X0078506Y0118095D02*
X0088506Y0118095D01*
X0088506Y0118694D02*
X0078506Y0118694D01*
X0078506Y0119292D02*
X0088506Y0119292D01*
X0088506Y0119891D02*
X0078506Y0119891D01*
X0078506Y0120489D02*
X0088506Y0120489D01*
X0088506Y0121088D02*
X0078506Y0121088D01*
X0078506Y0121687D02*
X0088506Y0121687D01*
X0088506Y0122285D02*
X0078506Y0122285D01*
X0078506Y0122884D02*
X0088506Y0122884D01*
X0088506Y0123482D02*
X0078506Y0123482D01*
X0078506Y0124081D02*
X0088506Y0124081D01*
X0088506Y0124679D02*
X0078506Y0124679D01*
X0078506Y0125278D02*
X0088506Y0125278D01*
X0088506Y0125876D02*
X0078506Y0125876D01*
X0078506Y0126475D02*
X0088506Y0126475D01*
X0088506Y0127073D02*
X0078506Y0127073D01*
X0078506Y0127672D02*
X0088506Y0127672D01*
X0088506Y0128270D02*
X0078506Y0128270D01*
X0078506Y0128869D02*
X0088506Y0128869D01*
X0088506Y0129467D02*
X0078506Y0129467D01*
X0078506Y0130066D02*
X0088506Y0130066D01*
X0088506Y0130664D02*
X0078506Y0130664D01*
X0078506Y0131263D02*
X0088506Y0131263D01*
X0088506Y0131861D02*
X0078506Y0131861D01*
X0078506Y0132460D02*
X0088506Y0132460D01*
X0088506Y0133058D02*
X0078506Y0133058D01*
X0078506Y0133657D02*
X0088506Y0133657D01*
X0088506Y0134255D02*
X0078506Y0134255D01*
X0078506Y0134854D02*
X0088506Y0134854D01*
X0088506Y0135452D02*
X0078506Y0135452D01*
X0078506Y0136051D02*
X0088506Y0136051D01*
X0088506Y0136649D02*
X0078506Y0136649D01*
X0078506Y0137248D02*
X0323506Y0137248D01*
X0313506Y0137248D01*
X0313506Y0137846D02*
X0323506Y0137846D01*
X0078506Y0137846D01*
X0078506Y0138445D02*
X0323506Y0138445D01*
X0313506Y0138445D01*
X0313506Y0139043D02*
X0323506Y0139043D01*
X0078506Y0139043D01*
X0078506Y0139642D02*
X0323506Y0139642D01*
X0313506Y0139642D01*
X0313506Y0140240D02*
X0323506Y0140240D01*
X0078506Y0140240D01*
X0078506Y0140839D02*
X0323506Y0140839D01*
X0313506Y0140839D01*
X0313506Y0141437D02*
X0323506Y0141437D01*
X0078506Y0141437D01*
X0078506Y0142036D02*
X0323506Y0142036D01*
X0313506Y0142036D01*
X0313506Y0142634D02*
X0323506Y0142634D01*
X0078506Y0142634D01*
X0078506Y0143233D02*
X0323506Y0143233D01*
X0313506Y0143233D01*
X0313506Y0143831D02*
X0323506Y0143831D01*
X0078506Y0143831D01*
X0078506Y0144430D02*
X0323506Y0144430D01*
X0313506Y0144430D01*
X0313506Y0145028D02*
X0323506Y0145028D01*
X0078506Y0145028D01*
X0078506Y0145627D02*
X0323506Y0145627D01*
X0313506Y0145627D01*
X0313506Y0146225D02*
X0323506Y0146225D01*
X0078506Y0146225D01*
X0078506Y0146824D02*
X0323506Y0146824D01*
X0313506Y0146824D01*
X0313506Y0136649D02*
X0323506Y0136649D01*
X0323506Y0136051D02*
X0313506Y0136051D01*
X0313506Y0135452D02*
X0323506Y0135452D01*
X0323506Y0134854D02*
X0313506Y0134854D01*
X0313506Y0134255D02*
X0323506Y0134255D01*
X0323506Y0133657D02*
X0313506Y0133657D01*
X0313506Y0133058D02*
X0323506Y0133058D01*
X0323506Y0132460D02*
X0313506Y0132460D01*
X0313506Y0131861D02*
X0323506Y0131861D01*
X0323506Y0131263D02*
X0313506Y0131263D01*
X0313506Y0130664D02*
X0323506Y0130664D01*
X0323506Y0130066D02*
X0313506Y0130066D01*
X0313506Y0129467D02*
X0323506Y0129467D01*
X0323506Y0128869D02*
X0313506Y0128869D01*
X0313506Y0128270D02*
X0323506Y0128270D01*
X0323506Y0127672D02*
X0313506Y0127672D01*
X0313506Y0127073D02*
X0323506Y0127073D01*
X0323506Y0126475D02*
X0313506Y0126475D01*
X0313506Y0125876D02*
X0323506Y0125876D01*
X0323506Y0125278D02*
X0313506Y0125278D01*
X0313506Y0124679D02*
X0323506Y0124679D01*
X0323506Y0124081D02*
X0313506Y0124081D01*
X0313506Y0123482D02*
X0323506Y0123482D01*
X0323506Y0122884D02*
X0313506Y0122884D01*
X0313506Y0122285D02*
X0323506Y0122285D01*
X0323506Y0121687D02*
X0313506Y0121687D01*
X0313506Y0121088D02*
X0323506Y0121088D01*
X0323506Y0120489D02*
X0313506Y0120489D01*
X0313506Y0119891D02*
X0323506Y0119891D01*
X0323506Y0119292D02*
X0313506Y0119292D01*
X0313506Y0118694D02*
X0323506Y0118694D01*
X0323506Y0118095D02*
X0313506Y0118095D01*
X0313506Y0117497D02*
X0323506Y0117497D01*
X0323506Y0116898D02*
X0313506Y0116898D01*
X0313506Y0116300D02*
X0323506Y0116300D01*
X0323506Y0115701D02*
X0313506Y0115701D01*
X0313506Y0115103D02*
X0323506Y0115103D01*
X0323506Y0114504D02*
X0313506Y0114504D01*
X0313506Y0113906D02*
X0323506Y0113906D01*
X0323506Y0113307D02*
X0313506Y0113307D01*
X0313506Y0112709D02*
X0323506Y0112709D01*
X0323506Y0112110D02*
X0313506Y0112110D01*
X0313506Y0111512D02*
X0323506Y0111512D01*
X0323506Y0110913D02*
X0313506Y0110913D01*
X0313506Y0110315D02*
X0323506Y0110315D01*
X0323506Y0109716D02*
X0313506Y0109716D01*
X0313506Y0109118D02*
X0323506Y0109118D01*
X0323506Y0108519D02*
X0313506Y0108519D01*
X0313506Y0107921D02*
X0323506Y0107921D01*
X0323506Y0107322D02*
X0313506Y0107322D01*
X0313506Y0106724D02*
X0323506Y0106724D01*
X0323506Y0106125D02*
X0313506Y0106125D01*
X0313506Y0105527D02*
X0323506Y0105527D01*
X0323506Y0104928D02*
X0313506Y0104928D01*
X0313506Y0104330D02*
X0323506Y0104330D01*
X0323506Y0103731D02*
X0313506Y0103731D01*
X0313506Y0103133D02*
X0323506Y0103133D01*
X0323506Y0102534D02*
X0313506Y0102534D01*
X0313506Y0101936D02*
X0323506Y0101936D01*
X0323506Y0101337D02*
X0313506Y0101337D01*
X0313506Y0100739D02*
X0323506Y0100739D01*
X0323506Y0100140D02*
X0313506Y0100140D01*
X0313506Y0099542D02*
X0323506Y0099542D01*
X0323506Y0098943D02*
X0313506Y0098943D01*
X0313506Y0098345D02*
X0323506Y0098345D01*
X0323506Y0097746D02*
X0313506Y0097746D01*
X0313506Y0097148D02*
X0323506Y0097148D01*
X0323506Y0096549D02*
X0313506Y0096549D01*
X0313506Y0095951D02*
X0323506Y0095951D01*
X0323506Y0095352D02*
X0313506Y0095352D01*
X0313506Y0094754D02*
X0323506Y0094754D01*
X0323506Y0094155D02*
X0313506Y0094155D01*
X0313506Y0093556D02*
X0323506Y0093556D01*
X0323506Y0092958D02*
X0313506Y0092958D01*
X0313506Y0092359D02*
X0323506Y0092359D01*
X0323506Y0091761D02*
X0313506Y0091761D01*
X0313506Y0091162D02*
X0323506Y0091162D01*
X0323506Y0090564D02*
X0313506Y0090564D01*
X0313506Y0089965D02*
X0323506Y0089965D01*
X0323506Y0089367D02*
X0313506Y0089367D01*
X0313506Y0088768D02*
X0323506Y0088768D01*
X0323506Y0088170D02*
X0313506Y0088170D01*
X0313506Y0087571D02*
X0323506Y0087571D01*
X0323506Y0086973D02*
X0313506Y0086973D01*
X0313506Y0086374D02*
X0323506Y0086374D01*
X0323506Y0085776D02*
X0313506Y0085776D01*
X0313506Y0085177D02*
X0323506Y0085177D01*
X0323506Y0084579D02*
X0313506Y0084579D01*
X0313506Y0083980D02*
X0323506Y0083980D01*
X0323506Y0083382D02*
X0313506Y0083382D01*
X0313506Y0082783D02*
X0323506Y0082783D01*
X0323506Y0082185D02*
X0313506Y0082185D01*
X0313506Y0081586D02*
X0323506Y0081586D01*
X0323506Y0080988D02*
X0313506Y0080988D01*
X0313506Y0080389D02*
X0323506Y0080389D01*
X0323506Y0079791D02*
X0313506Y0079791D01*
X0313506Y0079192D02*
X0323506Y0079192D01*
X0323506Y0078594D02*
X0313506Y0078594D01*
X0313506Y0077995D02*
X0323506Y0077995D01*
X0323506Y0077397D02*
X0313506Y0077397D01*
X0313506Y0066623D02*
X0323506Y0066623D01*
X0323506Y0066025D02*
X0313506Y0066025D01*
X0313506Y0065426D02*
X0323506Y0065426D01*
X0323506Y0064828D02*
X0313506Y0064828D01*
X0313506Y0064229D02*
X0323506Y0064229D01*
X0323506Y0063631D02*
X0313506Y0063631D01*
X0313506Y0063032D02*
X0323506Y0063032D01*
X0323506Y0062434D02*
X0313506Y0062434D01*
X0313506Y0061835D02*
X0323506Y0061835D01*
X0323506Y0061237D02*
X0313506Y0061237D01*
X0313506Y0060638D02*
X0323506Y0060638D01*
X0323506Y0060040D02*
X0313506Y0060040D01*
X0313506Y0059441D02*
X0323506Y0059441D01*
X0323506Y0058843D02*
X0313506Y0058843D01*
X0313506Y0058244D02*
X0323506Y0058244D01*
X0323506Y0057646D02*
X0313506Y0057646D01*
X0313506Y0057047D02*
X0323506Y0057047D01*
X0323506Y0056449D02*
X0313506Y0056449D01*
X0313506Y0055850D02*
X0323506Y0055850D01*
X0323506Y0055252D02*
X0313506Y0055252D01*
X0313506Y0054653D02*
X0323506Y0054653D01*
X0323506Y0054055D02*
X0313506Y0054055D01*
X0313506Y0053456D02*
X0323506Y0053456D01*
X0323506Y0052858D02*
X0313506Y0052858D01*
X0313506Y0052259D02*
X0323506Y0052259D01*
X0323506Y0051661D02*
X0313506Y0051661D01*
X0313506Y0051062D02*
X0323506Y0051062D01*
X0323506Y0050464D02*
X0313506Y0050464D01*
X0313506Y0049865D02*
X0323506Y0049865D01*
X0323506Y0049267D02*
X0313506Y0049267D01*
X0313506Y0048668D02*
X0323506Y0048668D01*
X0323506Y0048070D02*
X0313506Y0048070D01*
X0313506Y0047471D02*
X0323506Y0047471D01*
X0323506Y0046873D02*
X0313506Y0046873D01*
X0313506Y0046274D02*
X0323506Y0046274D01*
X0323506Y0045676D02*
X0313506Y0045676D01*
X0313506Y0045077D02*
X0323506Y0045077D01*
X0323506Y0044479D02*
X0313506Y0044479D01*
X0313506Y0043880D02*
X0323506Y0043880D01*
X0323506Y0043282D02*
X0313506Y0043282D01*
X0313506Y0042683D02*
X0323506Y0042683D01*
X0323506Y0042085D02*
X0313506Y0042085D01*
X0313506Y0041486D02*
X0323506Y0041486D01*
X0323506Y0040887D02*
X0313506Y0040887D01*
X0313506Y0040289D02*
X0323506Y0040289D01*
X0323506Y0039690D02*
X0313506Y0039690D01*
X0313506Y0039092D02*
X0323506Y0039092D01*
X0323506Y0038493D02*
X0313506Y0038493D01*
X0313506Y0037895D02*
X0323506Y0037895D01*
X0323506Y0037296D02*
X0313506Y0037296D01*
X0313506Y0036698D02*
X0323506Y0036698D01*
X0323506Y0036099D02*
X0313506Y0036099D01*
X0313506Y0035501D02*
X0323506Y0035501D01*
X0323506Y0034902D02*
X0313506Y0034902D01*
X0313506Y0034304D02*
X0323506Y0034304D01*
X0323506Y0033705D02*
X0313506Y0033705D01*
X0313506Y0033107D02*
X0323506Y0033107D01*
X0323506Y0032508D02*
X0313506Y0032508D01*
X0313506Y0031910D02*
X0323506Y0031910D01*
X0323506Y0031311D02*
X0313506Y0031311D01*
X0313506Y0030713D02*
X0323506Y0030713D01*
X0323506Y0030114D02*
X0313506Y0030114D01*
X0313506Y0029516D02*
X0323506Y0029516D01*
X0323506Y0028917D02*
X0313506Y0028917D01*
X0313506Y0028319D02*
X0323506Y0028319D01*
X0323506Y0027720D02*
X0313506Y0027720D01*
X0313506Y0027122D02*
X0323506Y0027122D01*
X0323506Y0026523D02*
X0313506Y0026523D01*
X0313506Y0025925D02*
X0323506Y0025925D01*
X0323506Y0025326D02*
X0313506Y0025326D01*
X0313506Y0024728D02*
X0323506Y0024728D01*
X0323506Y0024129D02*
X0313506Y0024129D01*
X0313506Y0023531D02*
X0323506Y0023531D01*
X0323506Y0022932D02*
X0313506Y0022932D01*
X0313506Y0022334D02*
X0323506Y0022334D01*
X0323506Y0021735D02*
X0313506Y0021735D01*
X0313506Y0021137D02*
X0323506Y0021137D01*
X0323506Y0020538D02*
X0313506Y0020538D01*
X0313506Y0019940D02*
X0323506Y0019940D01*
X0323506Y0019341D02*
X0313506Y0019341D01*
X0313506Y0018743D02*
X0323506Y0018743D01*
X0323506Y0018144D02*
X0313506Y0018144D01*
X0313506Y0017546D02*
X0323506Y0017546D01*
X0323506Y0014553D02*
X0078506Y0014553D01*
D11*
X0192766Y0035984D03*
X0200246Y0035984D03*
X0234766Y0056984D03*
X0242246Y0056984D03*
X0172246Y0111984D03*
X0164766Y0111984D03*
X0199766Y0116984D03*
X0207246Y0116984D03*
X0256774Y0222031D03*
X0264254Y0222031D03*
X0087924Y0258937D03*
X0080443Y0258937D03*
D12*
X0111620Y0223594D03*
X0111620Y0216114D03*
X0233392Y0248933D03*
X0233392Y0256413D03*
X0164506Y0099724D03*
X0164506Y0092244D03*
X0154506Y0080724D03*
X0154506Y0073244D03*
X0122506Y0070244D03*
X0122506Y0077724D03*
X0109506Y0077724D03*
X0109506Y0070244D03*
X0179006Y0041724D03*
X0179006Y0034244D03*
X0255006Y0049744D03*
X0255006Y0057224D03*
D13*
X0218306Y0059484D03*
X0218306Y0054484D03*
X0218306Y0049484D03*
X0218306Y0064484D03*
X0218306Y0069484D03*
X0218306Y0074484D03*
X0218306Y0079484D03*
X0218306Y0084484D03*
X0218306Y0089484D03*
X0218306Y0094484D03*
X0218306Y0099484D03*
X0218306Y0104484D03*
X0178706Y0104484D03*
X0178706Y0099484D03*
X0178706Y0094484D03*
X0178706Y0089484D03*
X0178706Y0084484D03*
X0178706Y0079484D03*
X0178706Y0074484D03*
X0178706Y0069484D03*
X0178706Y0064484D03*
X0178706Y0059484D03*
X0178706Y0054484D03*
X0178706Y0049484D03*
D14*
X0221006Y0116386D03*
X0221006Y0127583D03*
X0267006Y0057083D03*
X0267006Y0045886D03*
X0051845Y0183945D03*
X0051845Y0195142D03*
D15*
X0046835Y0071984D03*
X0357178Y0071984D03*
D16*
X0357178Y0058226D03*
X0357178Y0085743D03*
X0046835Y0085743D03*
X0046835Y0058226D03*
D17*
X0231128Y0076791D03*
X0239002Y0076791D03*
X0238955Y0084772D03*
X0231081Y0084772D03*
D18*
X0235349Y0099559D03*
X0235467Y0109469D03*
X0246664Y0109469D03*
X0257349Y0109382D03*
X0257467Y0099528D03*
X0246546Y0099559D03*
X0268664Y0099528D03*
X0268546Y0109382D03*
X0262605Y0197984D03*
X0251408Y0197984D03*
X0106105Y0198984D03*
X0094908Y0198984D03*
D19*
X0071912Y0170236D03*
X0061912Y0160236D03*
X0051912Y0170236D03*
D20*
X0194254Y0194816D02*
X0194254Y0200016D01*
X0204254Y0200016D02*
X0204254Y0194816D01*
X0204254Y0230016D02*
X0204254Y0235216D01*
X0194254Y0235216D02*
X0194254Y0230016D01*
D21*
X0120091Y0055024D03*
X0111804Y0055024D03*
D22*
X0138506Y0071841D03*
X0138506Y0080128D03*
D23*
X0138451Y0057118D03*
X0150183Y0057236D03*
X0150183Y0043850D03*
X0138451Y0043732D03*
D24*
X0132758Y0201984D03*
X0164254Y0201984D03*
X0164254Y0246984D03*
X0132758Y0246984D03*
X0285858Y0246984D03*
X0317354Y0246984D03*
X0317654Y0201984D03*
X0286158Y0201984D03*
D25*
X0264967Y0210531D03*
X0253164Y0210531D03*
X0236845Y0221531D03*
X0225042Y0221531D03*
X0079093Y0214937D03*
X0067290Y0214937D03*
D26*
X0068546Y0200370D03*
X0079569Y0200370D03*
X0226065Y0208598D03*
X0237089Y0208598D03*
D27*
X0245751Y0233983D03*
X0254806Y0233983D03*
X0263861Y0233983D03*
X0111261Y0233983D03*
X0102206Y0233983D03*
X0093151Y0233983D03*
D28*
X0102206Y0258786D03*
X0254806Y0258786D03*
D29*
X0205593Y0260445D03*
X0205593Y0248642D03*
X0079554Y0238193D03*
X0079554Y0226390D03*
D30*
X0118506Y0186984D03*
X0273506Y0186984D03*
D31*
X0232506Y0117984D03*
X0226006Y0108484D03*
X0154506Y0088484D03*
X0209506Y0035984D03*
X0280006Y0056984D03*
D32*
X0258318Y0184922D02*
X0255694Y0184922D01*
X0255694Y0189046D01*
X0258318Y0189046D01*
X0258318Y0184922D01*
X0258318Y0186515D02*
X0255694Y0186515D01*
X0255694Y0188108D02*
X0258318Y0188108D01*
X0251318Y0184922D02*
X0248694Y0184922D01*
X0248694Y0189046D01*
X0251318Y0189046D01*
X0251318Y0184922D01*
X0251318Y0186515D02*
X0248694Y0186515D01*
X0248694Y0188108D02*
X0251318Y0188108D01*
X0107318Y0188046D02*
X0104694Y0188046D01*
X0107318Y0188046D02*
X0107318Y0183922D01*
X0104694Y0183922D01*
X0104694Y0188046D01*
X0104694Y0185515D02*
X0107318Y0185515D01*
X0107318Y0187108D02*
X0104694Y0187108D01*
X0100318Y0188046D02*
X0097694Y0188046D01*
X0100318Y0188046D02*
X0100318Y0183922D01*
X0097694Y0183922D01*
X0097694Y0188046D01*
X0097694Y0185515D02*
X0100318Y0185515D01*
X0100318Y0187108D02*
X0097694Y0187108D01*
D33*
X0163506Y0284184D02*
X0163506Y0289784D01*
X0173506Y0289784D02*
X0173506Y0284184D01*
X0183506Y0284184D02*
X0183506Y0289784D01*
X0193506Y0289784D02*
X0193506Y0284184D01*
X0203506Y0284184D02*
X0203506Y0289784D01*
X0213506Y0289784D02*
X0213506Y0284184D01*
X0223506Y0284184D02*
X0223506Y0289784D01*
X0233506Y0289784D02*
X0233506Y0284184D01*
D34*
X0348506Y0166984D03*
X0058506Y0126984D03*
D35*
X0186506Y0104484D03*
X0186506Y0099484D03*
X0191506Y0104484D03*
X0198506Y0099484D03*
X0198506Y0094484D03*
X0201006Y0089484D03*
X0206006Y0089484D03*
X0211006Y0089484D03*
X0200506Y0084484D03*
X0206006Y0077984D03*
X0206006Y0072984D03*
X0206506Y0067984D03*
X0211006Y0064484D03*
X0209006Y0059984D03*
X0206006Y0063484D03*
X0200506Y0067984D03*
X0191506Y0064484D03*
X0197506Y0056984D03*
X0186506Y0079484D03*
X0186506Y0084484D03*
X0186506Y0089484D03*
X0186506Y0094484D03*
X0225506Y0084484D03*
X0225506Y0079484D03*
X0225506Y0074484D03*
X0225506Y0069484D03*
D36*
X0248506Y0067984D03*
X0258506Y0067984D03*
X0268506Y0067984D03*
X0278506Y0067984D03*
X0278506Y0076984D03*
X0281506Y0084984D03*
X0268506Y0091484D03*
X0258506Y0091484D03*
X0253506Y0084984D03*
X0253506Y0076984D03*
X0248506Y0091484D03*
X0238506Y0091484D03*
X0227506Y0091984D03*
X0213506Y0110484D03*
X0203506Y0109984D03*
X0193506Y0110484D03*
X0183506Y0110484D03*
X0173506Y0120484D03*
X0163506Y0120484D03*
X0153506Y0115484D03*
X0153506Y0105484D03*
X0143506Y0095484D03*
X0133506Y0085484D03*
X0123506Y0085484D03*
X0113506Y0085484D03*
X0103506Y0085484D03*
X0093506Y0080484D03*
X0093506Y0065984D03*
X0103506Y0060984D03*
X0103506Y0050984D03*
X0113506Y0045984D03*
X0123506Y0045984D03*
X0133506Y0035984D03*
X0143506Y0035984D03*
X0153506Y0035984D03*
X0158506Y0045984D03*
X0168506Y0045484D03*
X0168506Y0035484D03*
X0168506Y0025484D03*
X0178506Y0025484D03*
X0188506Y0025484D03*
X0198506Y0025484D03*
X0208506Y0025484D03*
X0218506Y0040484D03*
X0228506Y0045484D03*
X0238506Y0045484D03*
X0248506Y0040484D03*
X0258506Y0040484D03*
X0268506Y0037984D03*
X0278506Y0045484D03*
X0288506Y0050484D03*
X0298506Y0060484D03*
X0308506Y0065484D03*
X0308506Y0077984D03*
X0298506Y0077984D03*
X0288506Y0072984D03*
X0328506Y0077984D03*
X0338506Y0077984D03*
X0343506Y0082984D03*
X0343506Y0092984D03*
X0348506Y0097984D03*
X0358506Y0097984D03*
X0338506Y0065484D03*
X0343506Y0060484D03*
X0343506Y0050484D03*
X0348506Y0045484D03*
X0358506Y0045484D03*
X0328506Y0065484D03*
X0262006Y0119484D03*
X0268506Y0126984D03*
X0252006Y0119484D03*
X0242006Y0119484D03*
X0238506Y0126984D03*
X0208506Y0131984D03*
X0188506Y0131984D03*
X0188506Y0151984D03*
X0183506Y0166984D03*
X0193506Y0176984D03*
X0175506Y0196984D03*
X0175506Y0206984D03*
X0175506Y0241984D03*
X0175506Y0251984D03*
X0170006Y0271984D03*
X0158006Y0271984D03*
X0225006Y0226984D03*
X0233506Y0231984D03*
X0233506Y0243484D03*
X0250506Y0221984D03*
X0273506Y0231984D03*
X0268506Y0197984D03*
X0226006Y0201984D03*
X0208506Y0151984D03*
X0288506Y0151984D03*
X0288506Y0131984D03*
X0328506Y0196984D03*
X0328506Y0206984D03*
X0328506Y0241984D03*
X0328506Y0251984D03*
X0168506Y0075484D03*
X0168506Y0065484D03*
X0158506Y0065484D03*
X0148506Y0065484D03*
X0132006Y0064984D03*
X0168506Y0055484D03*
X0073506Y0065984D03*
X0063506Y0065984D03*
X0063506Y0055984D03*
X0058506Y0045984D03*
X0048506Y0045984D03*
X0063506Y0077984D03*
X0063506Y0087984D03*
X0058506Y0097984D03*
X0048506Y0097984D03*
X0073506Y0077984D03*
X0093506Y0185984D03*
X0062006Y0200484D03*
X0052006Y0201984D03*
X0061006Y0214984D03*
X0105006Y0215984D03*
X0074006Y0259484D03*
D37*
X0058506Y0021984D03*
X0343506Y0021984D03*
X0343506Y0296984D03*
X0058506Y0296984D03*
D38*
X0083506Y0141984D03*
X0103506Y0141984D03*
X0123506Y0141984D03*
X0143506Y0141984D03*
X0163506Y0141984D03*
X0181006Y0141984D03*
X0198506Y0141984D03*
X0218506Y0141984D03*
X0238506Y0141984D03*
X0258506Y0141984D03*
X0278506Y0141984D03*
X0298506Y0141984D03*
X0318506Y0141984D03*
X0318506Y0121984D03*
X0318506Y0101984D03*
X0318506Y0081984D03*
X0318506Y0051984D03*
X0318506Y0031984D03*
X0318506Y0011984D03*
X0298506Y0011984D03*
X0278506Y0011984D03*
X0258506Y0011984D03*
X0238506Y0011984D03*
X0218506Y0011984D03*
X0201006Y0011984D03*
X0183506Y0011984D03*
X0163506Y0011984D03*
X0143506Y0011984D03*
X0123506Y0011984D03*
X0103506Y0011984D03*
X0083506Y0011984D03*
X0083506Y0031984D03*
X0083506Y0051984D03*
X0083506Y0081984D03*
X0083506Y0101984D03*
X0083506Y0121984D03*
M02*
