%
M48
M72
T01C0.01969
T02C0.02500
T03C0.02756
T04C0.03200
T05C0.03600
T06C0.03937
T07C0.04000
T08C0.05900
T09C0.11811
T10C0.15748
%
T01
X59325Y178000
X64325Y203000
X104325Y183000
X104325Y228000
X120575Y228000
T02
X69825Y57500
T03
X36825Y94407
X36825Y114093
T04
X99325Y145500
X99325Y155500
X99325Y165500
X99325Y175500
X129325Y175500
X129325Y165500
X129325Y155500
X129325Y145500
X86825Y235500
X76825Y235500
X76825Y265500
X86825Y265500
X181825Y278000
X181825Y288000
X211825Y288000
X211825Y278000
T05
X355575Y128000
X355575Y98000
T06
X169325Y98000
X166825Y63000
X156825Y63000
X146825Y63000
X136825Y63000
X106825Y41750
X59325Y68000
X28075Y63000
X28075Y53000
X76825Y131750
X71825Y155500
X118075Y140500
X133075Y194250
X129325Y208000
X153075Y200500
X74325Y203000
X59325Y238000
X69325Y290500
X79325Y290500
T07
X131825Y255500
X131825Y235500
X184325Y163000
X149325Y123000
X149325Y113000
X149325Y103000
X184325Y113000
X106825Y88000
X76825Y88000
X45575Y144250
X25575Y144250
X24325Y203000
X24325Y228000
X64825Y20500
X123825Y20500
X320575Y75500
X345575Y75500
X380575Y86000
X345575Y143000
X318075Y143000
X380575Y175000
X375575Y203000
X395575Y203000
X395575Y230500
X383075Y230500
X355575Y230500
T08
X355575Y203000
X294325Y260500
X294325Y285500
X234325Y285500
X234325Y260500
X355575Y143000
T09
X354325Y43000
X389325Y43000
X389325Y263000
X354325Y263000
T10
X29325Y18000
X389325Y18000
X389325Y288000
X29325Y288000
M30
