G75*
%MOIN*%
%OFA0B0*%
%FSLAX25Y25*%
%IPPOS*%
%LPD*%
%AMOC8*
5,1,8,0,0,1.08239X$1,22.5*
%
%ADD10C,0.00000*%
%ADD11R,0.07098X0.06299*%
%ADD12R,0.05118X0.05906*%
%ADD13R,0.06299X0.07098*%
%ADD14R,0.05512X0.05512*%
%ADD15R,0.05512X0.07087*%
%ADD16R,0.03543X0.03150*%
%ADD17R,0.05906X0.05118*%
%ADD18C,0.00875*%
D10*
X0014325Y0003000D02*
X0014325Y0302961D01*
X0408026Y0302961D01*
X0408026Y0003000D01*
X0014325Y0003000D01*
X0021451Y0018000D02*
X0021453Y0018193D01*
X0021460Y0018386D01*
X0021472Y0018579D01*
X0021489Y0018772D01*
X0021510Y0018964D01*
X0021536Y0019155D01*
X0021567Y0019346D01*
X0021602Y0019536D01*
X0021642Y0019725D01*
X0021687Y0019913D01*
X0021736Y0020100D01*
X0021790Y0020286D01*
X0021848Y0020470D01*
X0021911Y0020653D01*
X0021979Y0020834D01*
X0022050Y0021013D01*
X0022127Y0021191D01*
X0022207Y0021367D01*
X0022292Y0021540D01*
X0022381Y0021712D01*
X0022474Y0021881D01*
X0022571Y0022048D01*
X0022673Y0022213D01*
X0022778Y0022375D01*
X0022887Y0022534D01*
X0023001Y0022691D01*
X0023118Y0022844D01*
X0023238Y0022995D01*
X0023363Y0023143D01*
X0023491Y0023288D01*
X0023622Y0023429D01*
X0023757Y0023568D01*
X0023896Y0023703D01*
X0024037Y0023834D01*
X0024182Y0023962D01*
X0024330Y0024087D01*
X0024481Y0024207D01*
X0024634Y0024324D01*
X0024791Y0024438D01*
X0024950Y0024547D01*
X0025112Y0024652D01*
X0025277Y0024754D01*
X0025444Y0024851D01*
X0025613Y0024944D01*
X0025785Y0025033D01*
X0025958Y0025118D01*
X0026134Y0025198D01*
X0026312Y0025275D01*
X0026491Y0025346D01*
X0026672Y0025414D01*
X0026855Y0025477D01*
X0027039Y0025535D01*
X0027225Y0025589D01*
X0027412Y0025638D01*
X0027600Y0025683D01*
X0027789Y0025723D01*
X0027979Y0025758D01*
X0028170Y0025789D01*
X0028361Y0025815D01*
X0028553Y0025836D01*
X0028746Y0025853D01*
X0028939Y0025865D01*
X0029132Y0025872D01*
X0029325Y0025874D01*
X0029518Y0025872D01*
X0029711Y0025865D01*
X0029904Y0025853D01*
X0030097Y0025836D01*
X0030289Y0025815D01*
X0030480Y0025789D01*
X0030671Y0025758D01*
X0030861Y0025723D01*
X0031050Y0025683D01*
X0031238Y0025638D01*
X0031425Y0025589D01*
X0031611Y0025535D01*
X0031795Y0025477D01*
X0031978Y0025414D01*
X0032159Y0025346D01*
X0032338Y0025275D01*
X0032516Y0025198D01*
X0032692Y0025118D01*
X0032865Y0025033D01*
X0033037Y0024944D01*
X0033206Y0024851D01*
X0033373Y0024754D01*
X0033538Y0024652D01*
X0033700Y0024547D01*
X0033859Y0024438D01*
X0034016Y0024324D01*
X0034169Y0024207D01*
X0034320Y0024087D01*
X0034468Y0023962D01*
X0034613Y0023834D01*
X0034754Y0023703D01*
X0034893Y0023568D01*
X0035028Y0023429D01*
X0035159Y0023288D01*
X0035287Y0023143D01*
X0035412Y0022995D01*
X0035532Y0022844D01*
X0035649Y0022691D01*
X0035763Y0022534D01*
X0035872Y0022375D01*
X0035977Y0022213D01*
X0036079Y0022048D01*
X0036176Y0021881D01*
X0036269Y0021712D01*
X0036358Y0021540D01*
X0036443Y0021367D01*
X0036523Y0021191D01*
X0036600Y0021013D01*
X0036671Y0020834D01*
X0036739Y0020653D01*
X0036802Y0020470D01*
X0036860Y0020286D01*
X0036914Y0020100D01*
X0036963Y0019913D01*
X0037008Y0019725D01*
X0037048Y0019536D01*
X0037083Y0019346D01*
X0037114Y0019155D01*
X0037140Y0018964D01*
X0037161Y0018772D01*
X0037178Y0018579D01*
X0037190Y0018386D01*
X0037197Y0018193D01*
X0037199Y0018000D01*
X0037197Y0017807D01*
X0037190Y0017614D01*
X0037178Y0017421D01*
X0037161Y0017228D01*
X0037140Y0017036D01*
X0037114Y0016845D01*
X0037083Y0016654D01*
X0037048Y0016464D01*
X0037008Y0016275D01*
X0036963Y0016087D01*
X0036914Y0015900D01*
X0036860Y0015714D01*
X0036802Y0015530D01*
X0036739Y0015347D01*
X0036671Y0015166D01*
X0036600Y0014987D01*
X0036523Y0014809D01*
X0036443Y0014633D01*
X0036358Y0014460D01*
X0036269Y0014288D01*
X0036176Y0014119D01*
X0036079Y0013952D01*
X0035977Y0013787D01*
X0035872Y0013625D01*
X0035763Y0013466D01*
X0035649Y0013309D01*
X0035532Y0013156D01*
X0035412Y0013005D01*
X0035287Y0012857D01*
X0035159Y0012712D01*
X0035028Y0012571D01*
X0034893Y0012432D01*
X0034754Y0012297D01*
X0034613Y0012166D01*
X0034468Y0012038D01*
X0034320Y0011913D01*
X0034169Y0011793D01*
X0034016Y0011676D01*
X0033859Y0011562D01*
X0033700Y0011453D01*
X0033538Y0011348D01*
X0033373Y0011246D01*
X0033206Y0011149D01*
X0033037Y0011056D01*
X0032865Y0010967D01*
X0032692Y0010882D01*
X0032516Y0010802D01*
X0032338Y0010725D01*
X0032159Y0010654D01*
X0031978Y0010586D01*
X0031795Y0010523D01*
X0031611Y0010465D01*
X0031425Y0010411D01*
X0031238Y0010362D01*
X0031050Y0010317D01*
X0030861Y0010277D01*
X0030671Y0010242D01*
X0030480Y0010211D01*
X0030289Y0010185D01*
X0030097Y0010164D01*
X0029904Y0010147D01*
X0029711Y0010135D01*
X0029518Y0010128D01*
X0029325Y0010126D01*
X0029132Y0010128D01*
X0028939Y0010135D01*
X0028746Y0010147D01*
X0028553Y0010164D01*
X0028361Y0010185D01*
X0028170Y0010211D01*
X0027979Y0010242D01*
X0027789Y0010277D01*
X0027600Y0010317D01*
X0027412Y0010362D01*
X0027225Y0010411D01*
X0027039Y0010465D01*
X0026855Y0010523D01*
X0026672Y0010586D01*
X0026491Y0010654D01*
X0026312Y0010725D01*
X0026134Y0010802D01*
X0025958Y0010882D01*
X0025785Y0010967D01*
X0025613Y0011056D01*
X0025444Y0011149D01*
X0025277Y0011246D01*
X0025112Y0011348D01*
X0024950Y0011453D01*
X0024791Y0011562D01*
X0024634Y0011676D01*
X0024481Y0011793D01*
X0024330Y0011913D01*
X0024182Y0012038D01*
X0024037Y0012166D01*
X0023896Y0012297D01*
X0023757Y0012432D01*
X0023622Y0012571D01*
X0023491Y0012712D01*
X0023363Y0012857D01*
X0023238Y0013005D01*
X0023118Y0013156D01*
X0023001Y0013309D01*
X0022887Y0013466D01*
X0022778Y0013625D01*
X0022673Y0013787D01*
X0022571Y0013952D01*
X0022474Y0014119D01*
X0022381Y0014288D01*
X0022292Y0014460D01*
X0022207Y0014633D01*
X0022127Y0014809D01*
X0022050Y0014987D01*
X0021979Y0015166D01*
X0021911Y0015347D01*
X0021848Y0015530D01*
X0021790Y0015714D01*
X0021736Y0015900D01*
X0021687Y0016087D01*
X0021642Y0016275D01*
X0021602Y0016464D01*
X0021567Y0016654D01*
X0021536Y0016845D01*
X0021510Y0017036D01*
X0021489Y0017228D01*
X0021472Y0017421D01*
X0021460Y0017614D01*
X0021453Y0017807D01*
X0021451Y0018000D01*
X0348419Y0043000D02*
X0348421Y0043153D01*
X0348427Y0043307D01*
X0348437Y0043460D01*
X0348451Y0043612D01*
X0348469Y0043765D01*
X0348491Y0043916D01*
X0348516Y0044067D01*
X0348546Y0044218D01*
X0348580Y0044368D01*
X0348617Y0044516D01*
X0348658Y0044664D01*
X0348703Y0044810D01*
X0348752Y0044956D01*
X0348805Y0045100D01*
X0348861Y0045242D01*
X0348921Y0045383D01*
X0348985Y0045523D01*
X0349052Y0045661D01*
X0349123Y0045797D01*
X0349198Y0045931D01*
X0349275Y0046063D01*
X0349357Y0046193D01*
X0349441Y0046321D01*
X0349529Y0046447D01*
X0349620Y0046570D01*
X0349714Y0046691D01*
X0349812Y0046809D01*
X0349912Y0046925D01*
X0350016Y0047038D01*
X0350122Y0047149D01*
X0350231Y0047257D01*
X0350343Y0047362D01*
X0350457Y0047463D01*
X0350575Y0047562D01*
X0350694Y0047658D01*
X0350816Y0047751D01*
X0350941Y0047840D01*
X0351068Y0047927D01*
X0351197Y0048009D01*
X0351328Y0048089D01*
X0351461Y0048165D01*
X0351596Y0048238D01*
X0351733Y0048307D01*
X0351872Y0048372D01*
X0352012Y0048434D01*
X0352154Y0048492D01*
X0352297Y0048547D01*
X0352442Y0048598D01*
X0352588Y0048645D01*
X0352735Y0048688D01*
X0352883Y0048727D01*
X0353032Y0048763D01*
X0353182Y0048794D01*
X0353333Y0048822D01*
X0353484Y0048846D01*
X0353637Y0048866D01*
X0353789Y0048882D01*
X0353942Y0048894D01*
X0354095Y0048902D01*
X0354248Y0048906D01*
X0354402Y0048906D01*
X0354555Y0048902D01*
X0354708Y0048894D01*
X0354861Y0048882D01*
X0355013Y0048866D01*
X0355166Y0048846D01*
X0355317Y0048822D01*
X0355468Y0048794D01*
X0355618Y0048763D01*
X0355767Y0048727D01*
X0355915Y0048688D01*
X0356062Y0048645D01*
X0356208Y0048598D01*
X0356353Y0048547D01*
X0356496Y0048492D01*
X0356638Y0048434D01*
X0356778Y0048372D01*
X0356917Y0048307D01*
X0357054Y0048238D01*
X0357189Y0048165D01*
X0357322Y0048089D01*
X0357453Y0048009D01*
X0357582Y0047927D01*
X0357709Y0047840D01*
X0357834Y0047751D01*
X0357956Y0047658D01*
X0358075Y0047562D01*
X0358193Y0047463D01*
X0358307Y0047362D01*
X0358419Y0047257D01*
X0358528Y0047149D01*
X0358634Y0047038D01*
X0358738Y0046925D01*
X0358838Y0046809D01*
X0358936Y0046691D01*
X0359030Y0046570D01*
X0359121Y0046447D01*
X0359209Y0046321D01*
X0359293Y0046193D01*
X0359375Y0046063D01*
X0359452Y0045931D01*
X0359527Y0045797D01*
X0359598Y0045661D01*
X0359665Y0045523D01*
X0359729Y0045383D01*
X0359789Y0045242D01*
X0359845Y0045100D01*
X0359898Y0044956D01*
X0359947Y0044810D01*
X0359992Y0044664D01*
X0360033Y0044516D01*
X0360070Y0044368D01*
X0360104Y0044218D01*
X0360134Y0044067D01*
X0360159Y0043916D01*
X0360181Y0043765D01*
X0360199Y0043612D01*
X0360213Y0043460D01*
X0360223Y0043307D01*
X0360229Y0043153D01*
X0360231Y0043000D01*
X0360229Y0042847D01*
X0360223Y0042693D01*
X0360213Y0042540D01*
X0360199Y0042388D01*
X0360181Y0042235D01*
X0360159Y0042084D01*
X0360134Y0041933D01*
X0360104Y0041782D01*
X0360070Y0041632D01*
X0360033Y0041484D01*
X0359992Y0041336D01*
X0359947Y0041190D01*
X0359898Y0041044D01*
X0359845Y0040900D01*
X0359789Y0040758D01*
X0359729Y0040617D01*
X0359665Y0040477D01*
X0359598Y0040339D01*
X0359527Y0040203D01*
X0359452Y0040069D01*
X0359375Y0039937D01*
X0359293Y0039807D01*
X0359209Y0039679D01*
X0359121Y0039553D01*
X0359030Y0039430D01*
X0358936Y0039309D01*
X0358838Y0039191D01*
X0358738Y0039075D01*
X0358634Y0038962D01*
X0358528Y0038851D01*
X0358419Y0038743D01*
X0358307Y0038638D01*
X0358193Y0038537D01*
X0358075Y0038438D01*
X0357956Y0038342D01*
X0357834Y0038249D01*
X0357709Y0038160D01*
X0357582Y0038073D01*
X0357453Y0037991D01*
X0357322Y0037911D01*
X0357189Y0037835D01*
X0357054Y0037762D01*
X0356917Y0037693D01*
X0356778Y0037628D01*
X0356638Y0037566D01*
X0356496Y0037508D01*
X0356353Y0037453D01*
X0356208Y0037402D01*
X0356062Y0037355D01*
X0355915Y0037312D01*
X0355767Y0037273D01*
X0355618Y0037237D01*
X0355468Y0037206D01*
X0355317Y0037178D01*
X0355166Y0037154D01*
X0355013Y0037134D01*
X0354861Y0037118D01*
X0354708Y0037106D01*
X0354555Y0037098D01*
X0354402Y0037094D01*
X0354248Y0037094D01*
X0354095Y0037098D01*
X0353942Y0037106D01*
X0353789Y0037118D01*
X0353637Y0037134D01*
X0353484Y0037154D01*
X0353333Y0037178D01*
X0353182Y0037206D01*
X0353032Y0037237D01*
X0352883Y0037273D01*
X0352735Y0037312D01*
X0352588Y0037355D01*
X0352442Y0037402D01*
X0352297Y0037453D01*
X0352154Y0037508D01*
X0352012Y0037566D01*
X0351872Y0037628D01*
X0351733Y0037693D01*
X0351596Y0037762D01*
X0351461Y0037835D01*
X0351328Y0037911D01*
X0351197Y0037991D01*
X0351068Y0038073D01*
X0350941Y0038160D01*
X0350816Y0038249D01*
X0350694Y0038342D01*
X0350575Y0038438D01*
X0350457Y0038537D01*
X0350343Y0038638D01*
X0350231Y0038743D01*
X0350122Y0038851D01*
X0350016Y0038962D01*
X0349912Y0039075D01*
X0349812Y0039191D01*
X0349714Y0039309D01*
X0349620Y0039430D01*
X0349529Y0039553D01*
X0349441Y0039679D01*
X0349357Y0039807D01*
X0349275Y0039937D01*
X0349198Y0040069D01*
X0349123Y0040203D01*
X0349052Y0040339D01*
X0348985Y0040477D01*
X0348921Y0040617D01*
X0348861Y0040758D01*
X0348805Y0040900D01*
X0348752Y0041044D01*
X0348703Y0041190D01*
X0348658Y0041336D01*
X0348617Y0041484D01*
X0348580Y0041632D01*
X0348546Y0041782D01*
X0348516Y0041933D01*
X0348491Y0042084D01*
X0348469Y0042235D01*
X0348451Y0042388D01*
X0348437Y0042540D01*
X0348427Y0042693D01*
X0348421Y0042847D01*
X0348419Y0043000D01*
X0383419Y0043000D02*
X0383421Y0043153D01*
X0383427Y0043307D01*
X0383437Y0043460D01*
X0383451Y0043612D01*
X0383469Y0043765D01*
X0383491Y0043916D01*
X0383516Y0044067D01*
X0383546Y0044218D01*
X0383580Y0044368D01*
X0383617Y0044516D01*
X0383658Y0044664D01*
X0383703Y0044810D01*
X0383752Y0044956D01*
X0383805Y0045100D01*
X0383861Y0045242D01*
X0383921Y0045383D01*
X0383985Y0045523D01*
X0384052Y0045661D01*
X0384123Y0045797D01*
X0384198Y0045931D01*
X0384275Y0046063D01*
X0384357Y0046193D01*
X0384441Y0046321D01*
X0384529Y0046447D01*
X0384620Y0046570D01*
X0384714Y0046691D01*
X0384812Y0046809D01*
X0384912Y0046925D01*
X0385016Y0047038D01*
X0385122Y0047149D01*
X0385231Y0047257D01*
X0385343Y0047362D01*
X0385457Y0047463D01*
X0385575Y0047562D01*
X0385694Y0047658D01*
X0385816Y0047751D01*
X0385941Y0047840D01*
X0386068Y0047927D01*
X0386197Y0048009D01*
X0386328Y0048089D01*
X0386461Y0048165D01*
X0386596Y0048238D01*
X0386733Y0048307D01*
X0386872Y0048372D01*
X0387012Y0048434D01*
X0387154Y0048492D01*
X0387297Y0048547D01*
X0387442Y0048598D01*
X0387588Y0048645D01*
X0387735Y0048688D01*
X0387883Y0048727D01*
X0388032Y0048763D01*
X0388182Y0048794D01*
X0388333Y0048822D01*
X0388484Y0048846D01*
X0388637Y0048866D01*
X0388789Y0048882D01*
X0388942Y0048894D01*
X0389095Y0048902D01*
X0389248Y0048906D01*
X0389402Y0048906D01*
X0389555Y0048902D01*
X0389708Y0048894D01*
X0389861Y0048882D01*
X0390013Y0048866D01*
X0390166Y0048846D01*
X0390317Y0048822D01*
X0390468Y0048794D01*
X0390618Y0048763D01*
X0390767Y0048727D01*
X0390915Y0048688D01*
X0391062Y0048645D01*
X0391208Y0048598D01*
X0391353Y0048547D01*
X0391496Y0048492D01*
X0391638Y0048434D01*
X0391778Y0048372D01*
X0391917Y0048307D01*
X0392054Y0048238D01*
X0392189Y0048165D01*
X0392322Y0048089D01*
X0392453Y0048009D01*
X0392582Y0047927D01*
X0392709Y0047840D01*
X0392834Y0047751D01*
X0392956Y0047658D01*
X0393075Y0047562D01*
X0393193Y0047463D01*
X0393307Y0047362D01*
X0393419Y0047257D01*
X0393528Y0047149D01*
X0393634Y0047038D01*
X0393738Y0046925D01*
X0393838Y0046809D01*
X0393936Y0046691D01*
X0394030Y0046570D01*
X0394121Y0046447D01*
X0394209Y0046321D01*
X0394293Y0046193D01*
X0394375Y0046063D01*
X0394452Y0045931D01*
X0394527Y0045797D01*
X0394598Y0045661D01*
X0394665Y0045523D01*
X0394729Y0045383D01*
X0394789Y0045242D01*
X0394845Y0045100D01*
X0394898Y0044956D01*
X0394947Y0044810D01*
X0394992Y0044664D01*
X0395033Y0044516D01*
X0395070Y0044368D01*
X0395104Y0044218D01*
X0395134Y0044067D01*
X0395159Y0043916D01*
X0395181Y0043765D01*
X0395199Y0043612D01*
X0395213Y0043460D01*
X0395223Y0043307D01*
X0395229Y0043153D01*
X0395231Y0043000D01*
X0395229Y0042847D01*
X0395223Y0042693D01*
X0395213Y0042540D01*
X0395199Y0042388D01*
X0395181Y0042235D01*
X0395159Y0042084D01*
X0395134Y0041933D01*
X0395104Y0041782D01*
X0395070Y0041632D01*
X0395033Y0041484D01*
X0394992Y0041336D01*
X0394947Y0041190D01*
X0394898Y0041044D01*
X0394845Y0040900D01*
X0394789Y0040758D01*
X0394729Y0040617D01*
X0394665Y0040477D01*
X0394598Y0040339D01*
X0394527Y0040203D01*
X0394452Y0040069D01*
X0394375Y0039937D01*
X0394293Y0039807D01*
X0394209Y0039679D01*
X0394121Y0039553D01*
X0394030Y0039430D01*
X0393936Y0039309D01*
X0393838Y0039191D01*
X0393738Y0039075D01*
X0393634Y0038962D01*
X0393528Y0038851D01*
X0393419Y0038743D01*
X0393307Y0038638D01*
X0393193Y0038537D01*
X0393075Y0038438D01*
X0392956Y0038342D01*
X0392834Y0038249D01*
X0392709Y0038160D01*
X0392582Y0038073D01*
X0392453Y0037991D01*
X0392322Y0037911D01*
X0392189Y0037835D01*
X0392054Y0037762D01*
X0391917Y0037693D01*
X0391778Y0037628D01*
X0391638Y0037566D01*
X0391496Y0037508D01*
X0391353Y0037453D01*
X0391208Y0037402D01*
X0391062Y0037355D01*
X0390915Y0037312D01*
X0390767Y0037273D01*
X0390618Y0037237D01*
X0390468Y0037206D01*
X0390317Y0037178D01*
X0390166Y0037154D01*
X0390013Y0037134D01*
X0389861Y0037118D01*
X0389708Y0037106D01*
X0389555Y0037098D01*
X0389402Y0037094D01*
X0389248Y0037094D01*
X0389095Y0037098D01*
X0388942Y0037106D01*
X0388789Y0037118D01*
X0388637Y0037134D01*
X0388484Y0037154D01*
X0388333Y0037178D01*
X0388182Y0037206D01*
X0388032Y0037237D01*
X0387883Y0037273D01*
X0387735Y0037312D01*
X0387588Y0037355D01*
X0387442Y0037402D01*
X0387297Y0037453D01*
X0387154Y0037508D01*
X0387012Y0037566D01*
X0386872Y0037628D01*
X0386733Y0037693D01*
X0386596Y0037762D01*
X0386461Y0037835D01*
X0386328Y0037911D01*
X0386197Y0037991D01*
X0386068Y0038073D01*
X0385941Y0038160D01*
X0385816Y0038249D01*
X0385694Y0038342D01*
X0385575Y0038438D01*
X0385457Y0038537D01*
X0385343Y0038638D01*
X0385231Y0038743D01*
X0385122Y0038851D01*
X0385016Y0038962D01*
X0384912Y0039075D01*
X0384812Y0039191D01*
X0384714Y0039309D01*
X0384620Y0039430D01*
X0384529Y0039553D01*
X0384441Y0039679D01*
X0384357Y0039807D01*
X0384275Y0039937D01*
X0384198Y0040069D01*
X0384123Y0040203D01*
X0384052Y0040339D01*
X0383985Y0040477D01*
X0383921Y0040617D01*
X0383861Y0040758D01*
X0383805Y0040900D01*
X0383752Y0041044D01*
X0383703Y0041190D01*
X0383658Y0041336D01*
X0383617Y0041484D01*
X0383580Y0041632D01*
X0383546Y0041782D01*
X0383516Y0041933D01*
X0383491Y0042084D01*
X0383469Y0042235D01*
X0383451Y0042388D01*
X0383437Y0042540D01*
X0383427Y0042693D01*
X0383421Y0042847D01*
X0383419Y0043000D01*
X0381451Y0018000D02*
X0381453Y0018193D01*
X0381460Y0018386D01*
X0381472Y0018579D01*
X0381489Y0018772D01*
X0381510Y0018964D01*
X0381536Y0019155D01*
X0381567Y0019346D01*
X0381602Y0019536D01*
X0381642Y0019725D01*
X0381687Y0019913D01*
X0381736Y0020100D01*
X0381790Y0020286D01*
X0381848Y0020470D01*
X0381911Y0020653D01*
X0381979Y0020834D01*
X0382050Y0021013D01*
X0382127Y0021191D01*
X0382207Y0021367D01*
X0382292Y0021540D01*
X0382381Y0021712D01*
X0382474Y0021881D01*
X0382571Y0022048D01*
X0382673Y0022213D01*
X0382778Y0022375D01*
X0382887Y0022534D01*
X0383001Y0022691D01*
X0383118Y0022844D01*
X0383238Y0022995D01*
X0383363Y0023143D01*
X0383491Y0023288D01*
X0383622Y0023429D01*
X0383757Y0023568D01*
X0383896Y0023703D01*
X0384037Y0023834D01*
X0384182Y0023962D01*
X0384330Y0024087D01*
X0384481Y0024207D01*
X0384634Y0024324D01*
X0384791Y0024438D01*
X0384950Y0024547D01*
X0385112Y0024652D01*
X0385277Y0024754D01*
X0385444Y0024851D01*
X0385613Y0024944D01*
X0385785Y0025033D01*
X0385958Y0025118D01*
X0386134Y0025198D01*
X0386312Y0025275D01*
X0386491Y0025346D01*
X0386672Y0025414D01*
X0386855Y0025477D01*
X0387039Y0025535D01*
X0387225Y0025589D01*
X0387412Y0025638D01*
X0387600Y0025683D01*
X0387789Y0025723D01*
X0387979Y0025758D01*
X0388170Y0025789D01*
X0388361Y0025815D01*
X0388553Y0025836D01*
X0388746Y0025853D01*
X0388939Y0025865D01*
X0389132Y0025872D01*
X0389325Y0025874D01*
X0389518Y0025872D01*
X0389711Y0025865D01*
X0389904Y0025853D01*
X0390097Y0025836D01*
X0390289Y0025815D01*
X0390480Y0025789D01*
X0390671Y0025758D01*
X0390861Y0025723D01*
X0391050Y0025683D01*
X0391238Y0025638D01*
X0391425Y0025589D01*
X0391611Y0025535D01*
X0391795Y0025477D01*
X0391978Y0025414D01*
X0392159Y0025346D01*
X0392338Y0025275D01*
X0392516Y0025198D01*
X0392692Y0025118D01*
X0392865Y0025033D01*
X0393037Y0024944D01*
X0393206Y0024851D01*
X0393373Y0024754D01*
X0393538Y0024652D01*
X0393700Y0024547D01*
X0393859Y0024438D01*
X0394016Y0024324D01*
X0394169Y0024207D01*
X0394320Y0024087D01*
X0394468Y0023962D01*
X0394613Y0023834D01*
X0394754Y0023703D01*
X0394893Y0023568D01*
X0395028Y0023429D01*
X0395159Y0023288D01*
X0395287Y0023143D01*
X0395412Y0022995D01*
X0395532Y0022844D01*
X0395649Y0022691D01*
X0395763Y0022534D01*
X0395872Y0022375D01*
X0395977Y0022213D01*
X0396079Y0022048D01*
X0396176Y0021881D01*
X0396269Y0021712D01*
X0396358Y0021540D01*
X0396443Y0021367D01*
X0396523Y0021191D01*
X0396600Y0021013D01*
X0396671Y0020834D01*
X0396739Y0020653D01*
X0396802Y0020470D01*
X0396860Y0020286D01*
X0396914Y0020100D01*
X0396963Y0019913D01*
X0397008Y0019725D01*
X0397048Y0019536D01*
X0397083Y0019346D01*
X0397114Y0019155D01*
X0397140Y0018964D01*
X0397161Y0018772D01*
X0397178Y0018579D01*
X0397190Y0018386D01*
X0397197Y0018193D01*
X0397199Y0018000D01*
X0397197Y0017807D01*
X0397190Y0017614D01*
X0397178Y0017421D01*
X0397161Y0017228D01*
X0397140Y0017036D01*
X0397114Y0016845D01*
X0397083Y0016654D01*
X0397048Y0016464D01*
X0397008Y0016275D01*
X0396963Y0016087D01*
X0396914Y0015900D01*
X0396860Y0015714D01*
X0396802Y0015530D01*
X0396739Y0015347D01*
X0396671Y0015166D01*
X0396600Y0014987D01*
X0396523Y0014809D01*
X0396443Y0014633D01*
X0396358Y0014460D01*
X0396269Y0014288D01*
X0396176Y0014119D01*
X0396079Y0013952D01*
X0395977Y0013787D01*
X0395872Y0013625D01*
X0395763Y0013466D01*
X0395649Y0013309D01*
X0395532Y0013156D01*
X0395412Y0013005D01*
X0395287Y0012857D01*
X0395159Y0012712D01*
X0395028Y0012571D01*
X0394893Y0012432D01*
X0394754Y0012297D01*
X0394613Y0012166D01*
X0394468Y0012038D01*
X0394320Y0011913D01*
X0394169Y0011793D01*
X0394016Y0011676D01*
X0393859Y0011562D01*
X0393700Y0011453D01*
X0393538Y0011348D01*
X0393373Y0011246D01*
X0393206Y0011149D01*
X0393037Y0011056D01*
X0392865Y0010967D01*
X0392692Y0010882D01*
X0392516Y0010802D01*
X0392338Y0010725D01*
X0392159Y0010654D01*
X0391978Y0010586D01*
X0391795Y0010523D01*
X0391611Y0010465D01*
X0391425Y0010411D01*
X0391238Y0010362D01*
X0391050Y0010317D01*
X0390861Y0010277D01*
X0390671Y0010242D01*
X0390480Y0010211D01*
X0390289Y0010185D01*
X0390097Y0010164D01*
X0389904Y0010147D01*
X0389711Y0010135D01*
X0389518Y0010128D01*
X0389325Y0010126D01*
X0389132Y0010128D01*
X0388939Y0010135D01*
X0388746Y0010147D01*
X0388553Y0010164D01*
X0388361Y0010185D01*
X0388170Y0010211D01*
X0387979Y0010242D01*
X0387789Y0010277D01*
X0387600Y0010317D01*
X0387412Y0010362D01*
X0387225Y0010411D01*
X0387039Y0010465D01*
X0386855Y0010523D01*
X0386672Y0010586D01*
X0386491Y0010654D01*
X0386312Y0010725D01*
X0386134Y0010802D01*
X0385958Y0010882D01*
X0385785Y0010967D01*
X0385613Y0011056D01*
X0385444Y0011149D01*
X0385277Y0011246D01*
X0385112Y0011348D01*
X0384950Y0011453D01*
X0384791Y0011562D01*
X0384634Y0011676D01*
X0384481Y0011793D01*
X0384330Y0011913D01*
X0384182Y0012038D01*
X0384037Y0012166D01*
X0383896Y0012297D01*
X0383757Y0012432D01*
X0383622Y0012571D01*
X0383491Y0012712D01*
X0383363Y0012857D01*
X0383238Y0013005D01*
X0383118Y0013156D01*
X0383001Y0013309D01*
X0382887Y0013466D01*
X0382778Y0013625D01*
X0382673Y0013787D01*
X0382571Y0013952D01*
X0382474Y0014119D01*
X0382381Y0014288D01*
X0382292Y0014460D01*
X0382207Y0014633D01*
X0382127Y0014809D01*
X0382050Y0014987D01*
X0381979Y0015166D01*
X0381911Y0015347D01*
X0381848Y0015530D01*
X0381790Y0015714D01*
X0381736Y0015900D01*
X0381687Y0016087D01*
X0381642Y0016275D01*
X0381602Y0016464D01*
X0381567Y0016654D01*
X0381536Y0016845D01*
X0381510Y0017036D01*
X0381489Y0017228D01*
X0381472Y0017421D01*
X0381460Y0017614D01*
X0381453Y0017807D01*
X0381451Y0018000D01*
X0383419Y0263000D02*
X0383421Y0263153D01*
X0383427Y0263307D01*
X0383437Y0263460D01*
X0383451Y0263612D01*
X0383469Y0263765D01*
X0383491Y0263916D01*
X0383516Y0264067D01*
X0383546Y0264218D01*
X0383580Y0264368D01*
X0383617Y0264516D01*
X0383658Y0264664D01*
X0383703Y0264810D01*
X0383752Y0264956D01*
X0383805Y0265100D01*
X0383861Y0265242D01*
X0383921Y0265383D01*
X0383985Y0265523D01*
X0384052Y0265661D01*
X0384123Y0265797D01*
X0384198Y0265931D01*
X0384275Y0266063D01*
X0384357Y0266193D01*
X0384441Y0266321D01*
X0384529Y0266447D01*
X0384620Y0266570D01*
X0384714Y0266691D01*
X0384812Y0266809D01*
X0384912Y0266925D01*
X0385016Y0267038D01*
X0385122Y0267149D01*
X0385231Y0267257D01*
X0385343Y0267362D01*
X0385457Y0267463D01*
X0385575Y0267562D01*
X0385694Y0267658D01*
X0385816Y0267751D01*
X0385941Y0267840D01*
X0386068Y0267927D01*
X0386197Y0268009D01*
X0386328Y0268089D01*
X0386461Y0268165D01*
X0386596Y0268238D01*
X0386733Y0268307D01*
X0386872Y0268372D01*
X0387012Y0268434D01*
X0387154Y0268492D01*
X0387297Y0268547D01*
X0387442Y0268598D01*
X0387588Y0268645D01*
X0387735Y0268688D01*
X0387883Y0268727D01*
X0388032Y0268763D01*
X0388182Y0268794D01*
X0388333Y0268822D01*
X0388484Y0268846D01*
X0388637Y0268866D01*
X0388789Y0268882D01*
X0388942Y0268894D01*
X0389095Y0268902D01*
X0389248Y0268906D01*
X0389402Y0268906D01*
X0389555Y0268902D01*
X0389708Y0268894D01*
X0389861Y0268882D01*
X0390013Y0268866D01*
X0390166Y0268846D01*
X0390317Y0268822D01*
X0390468Y0268794D01*
X0390618Y0268763D01*
X0390767Y0268727D01*
X0390915Y0268688D01*
X0391062Y0268645D01*
X0391208Y0268598D01*
X0391353Y0268547D01*
X0391496Y0268492D01*
X0391638Y0268434D01*
X0391778Y0268372D01*
X0391917Y0268307D01*
X0392054Y0268238D01*
X0392189Y0268165D01*
X0392322Y0268089D01*
X0392453Y0268009D01*
X0392582Y0267927D01*
X0392709Y0267840D01*
X0392834Y0267751D01*
X0392956Y0267658D01*
X0393075Y0267562D01*
X0393193Y0267463D01*
X0393307Y0267362D01*
X0393419Y0267257D01*
X0393528Y0267149D01*
X0393634Y0267038D01*
X0393738Y0266925D01*
X0393838Y0266809D01*
X0393936Y0266691D01*
X0394030Y0266570D01*
X0394121Y0266447D01*
X0394209Y0266321D01*
X0394293Y0266193D01*
X0394375Y0266063D01*
X0394452Y0265931D01*
X0394527Y0265797D01*
X0394598Y0265661D01*
X0394665Y0265523D01*
X0394729Y0265383D01*
X0394789Y0265242D01*
X0394845Y0265100D01*
X0394898Y0264956D01*
X0394947Y0264810D01*
X0394992Y0264664D01*
X0395033Y0264516D01*
X0395070Y0264368D01*
X0395104Y0264218D01*
X0395134Y0264067D01*
X0395159Y0263916D01*
X0395181Y0263765D01*
X0395199Y0263612D01*
X0395213Y0263460D01*
X0395223Y0263307D01*
X0395229Y0263153D01*
X0395231Y0263000D01*
X0395229Y0262847D01*
X0395223Y0262693D01*
X0395213Y0262540D01*
X0395199Y0262388D01*
X0395181Y0262235D01*
X0395159Y0262084D01*
X0395134Y0261933D01*
X0395104Y0261782D01*
X0395070Y0261632D01*
X0395033Y0261484D01*
X0394992Y0261336D01*
X0394947Y0261190D01*
X0394898Y0261044D01*
X0394845Y0260900D01*
X0394789Y0260758D01*
X0394729Y0260617D01*
X0394665Y0260477D01*
X0394598Y0260339D01*
X0394527Y0260203D01*
X0394452Y0260069D01*
X0394375Y0259937D01*
X0394293Y0259807D01*
X0394209Y0259679D01*
X0394121Y0259553D01*
X0394030Y0259430D01*
X0393936Y0259309D01*
X0393838Y0259191D01*
X0393738Y0259075D01*
X0393634Y0258962D01*
X0393528Y0258851D01*
X0393419Y0258743D01*
X0393307Y0258638D01*
X0393193Y0258537D01*
X0393075Y0258438D01*
X0392956Y0258342D01*
X0392834Y0258249D01*
X0392709Y0258160D01*
X0392582Y0258073D01*
X0392453Y0257991D01*
X0392322Y0257911D01*
X0392189Y0257835D01*
X0392054Y0257762D01*
X0391917Y0257693D01*
X0391778Y0257628D01*
X0391638Y0257566D01*
X0391496Y0257508D01*
X0391353Y0257453D01*
X0391208Y0257402D01*
X0391062Y0257355D01*
X0390915Y0257312D01*
X0390767Y0257273D01*
X0390618Y0257237D01*
X0390468Y0257206D01*
X0390317Y0257178D01*
X0390166Y0257154D01*
X0390013Y0257134D01*
X0389861Y0257118D01*
X0389708Y0257106D01*
X0389555Y0257098D01*
X0389402Y0257094D01*
X0389248Y0257094D01*
X0389095Y0257098D01*
X0388942Y0257106D01*
X0388789Y0257118D01*
X0388637Y0257134D01*
X0388484Y0257154D01*
X0388333Y0257178D01*
X0388182Y0257206D01*
X0388032Y0257237D01*
X0387883Y0257273D01*
X0387735Y0257312D01*
X0387588Y0257355D01*
X0387442Y0257402D01*
X0387297Y0257453D01*
X0387154Y0257508D01*
X0387012Y0257566D01*
X0386872Y0257628D01*
X0386733Y0257693D01*
X0386596Y0257762D01*
X0386461Y0257835D01*
X0386328Y0257911D01*
X0386197Y0257991D01*
X0386068Y0258073D01*
X0385941Y0258160D01*
X0385816Y0258249D01*
X0385694Y0258342D01*
X0385575Y0258438D01*
X0385457Y0258537D01*
X0385343Y0258638D01*
X0385231Y0258743D01*
X0385122Y0258851D01*
X0385016Y0258962D01*
X0384912Y0259075D01*
X0384812Y0259191D01*
X0384714Y0259309D01*
X0384620Y0259430D01*
X0384529Y0259553D01*
X0384441Y0259679D01*
X0384357Y0259807D01*
X0384275Y0259937D01*
X0384198Y0260069D01*
X0384123Y0260203D01*
X0384052Y0260339D01*
X0383985Y0260477D01*
X0383921Y0260617D01*
X0383861Y0260758D01*
X0383805Y0260900D01*
X0383752Y0261044D01*
X0383703Y0261190D01*
X0383658Y0261336D01*
X0383617Y0261484D01*
X0383580Y0261632D01*
X0383546Y0261782D01*
X0383516Y0261933D01*
X0383491Y0262084D01*
X0383469Y0262235D01*
X0383451Y0262388D01*
X0383437Y0262540D01*
X0383427Y0262693D01*
X0383421Y0262847D01*
X0383419Y0263000D01*
X0348419Y0263000D02*
X0348421Y0263153D01*
X0348427Y0263307D01*
X0348437Y0263460D01*
X0348451Y0263612D01*
X0348469Y0263765D01*
X0348491Y0263916D01*
X0348516Y0264067D01*
X0348546Y0264218D01*
X0348580Y0264368D01*
X0348617Y0264516D01*
X0348658Y0264664D01*
X0348703Y0264810D01*
X0348752Y0264956D01*
X0348805Y0265100D01*
X0348861Y0265242D01*
X0348921Y0265383D01*
X0348985Y0265523D01*
X0349052Y0265661D01*
X0349123Y0265797D01*
X0349198Y0265931D01*
X0349275Y0266063D01*
X0349357Y0266193D01*
X0349441Y0266321D01*
X0349529Y0266447D01*
X0349620Y0266570D01*
X0349714Y0266691D01*
X0349812Y0266809D01*
X0349912Y0266925D01*
X0350016Y0267038D01*
X0350122Y0267149D01*
X0350231Y0267257D01*
X0350343Y0267362D01*
X0350457Y0267463D01*
X0350575Y0267562D01*
X0350694Y0267658D01*
X0350816Y0267751D01*
X0350941Y0267840D01*
X0351068Y0267927D01*
X0351197Y0268009D01*
X0351328Y0268089D01*
X0351461Y0268165D01*
X0351596Y0268238D01*
X0351733Y0268307D01*
X0351872Y0268372D01*
X0352012Y0268434D01*
X0352154Y0268492D01*
X0352297Y0268547D01*
X0352442Y0268598D01*
X0352588Y0268645D01*
X0352735Y0268688D01*
X0352883Y0268727D01*
X0353032Y0268763D01*
X0353182Y0268794D01*
X0353333Y0268822D01*
X0353484Y0268846D01*
X0353637Y0268866D01*
X0353789Y0268882D01*
X0353942Y0268894D01*
X0354095Y0268902D01*
X0354248Y0268906D01*
X0354402Y0268906D01*
X0354555Y0268902D01*
X0354708Y0268894D01*
X0354861Y0268882D01*
X0355013Y0268866D01*
X0355166Y0268846D01*
X0355317Y0268822D01*
X0355468Y0268794D01*
X0355618Y0268763D01*
X0355767Y0268727D01*
X0355915Y0268688D01*
X0356062Y0268645D01*
X0356208Y0268598D01*
X0356353Y0268547D01*
X0356496Y0268492D01*
X0356638Y0268434D01*
X0356778Y0268372D01*
X0356917Y0268307D01*
X0357054Y0268238D01*
X0357189Y0268165D01*
X0357322Y0268089D01*
X0357453Y0268009D01*
X0357582Y0267927D01*
X0357709Y0267840D01*
X0357834Y0267751D01*
X0357956Y0267658D01*
X0358075Y0267562D01*
X0358193Y0267463D01*
X0358307Y0267362D01*
X0358419Y0267257D01*
X0358528Y0267149D01*
X0358634Y0267038D01*
X0358738Y0266925D01*
X0358838Y0266809D01*
X0358936Y0266691D01*
X0359030Y0266570D01*
X0359121Y0266447D01*
X0359209Y0266321D01*
X0359293Y0266193D01*
X0359375Y0266063D01*
X0359452Y0265931D01*
X0359527Y0265797D01*
X0359598Y0265661D01*
X0359665Y0265523D01*
X0359729Y0265383D01*
X0359789Y0265242D01*
X0359845Y0265100D01*
X0359898Y0264956D01*
X0359947Y0264810D01*
X0359992Y0264664D01*
X0360033Y0264516D01*
X0360070Y0264368D01*
X0360104Y0264218D01*
X0360134Y0264067D01*
X0360159Y0263916D01*
X0360181Y0263765D01*
X0360199Y0263612D01*
X0360213Y0263460D01*
X0360223Y0263307D01*
X0360229Y0263153D01*
X0360231Y0263000D01*
X0360229Y0262847D01*
X0360223Y0262693D01*
X0360213Y0262540D01*
X0360199Y0262388D01*
X0360181Y0262235D01*
X0360159Y0262084D01*
X0360134Y0261933D01*
X0360104Y0261782D01*
X0360070Y0261632D01*
X0360033Y0261484D01*
X0359992Y0261336D01*
X0359947Y0261190D01*
X0359898Y0261044D01*
X0359845Y0260900D01*
X0359789Y0260758D01*
X0359729Y0260617D01*
X0359665Y0260477D01*
X0359598Y0260339D01*
X0359527Y0260203D01*
X0359452Y0260069D01*
X0359375Y0259937D01*
X0359293Y0259807D01*
X0359209Y0259679D01*
X0359121Y0259553D01*
X0359030Y0259430D01*
X0358936Y0259309D01*
X0358838Y0259191D01*
X0358738Y0259075D01*
X0358634Y0258962D01*
X0358528Y0258851D01*
X0358419Y0258743D01*
X0358307Y0258638D01*
X0358193Y0258537D01*
X0358075Y0258438D01*
X0357956Y0258342D01*
X0357834Y0258249D01*
X0357709Y0258160D01*
X0357582Y0258073D01*
X0357453Y0257991D01*
X0357322Y0257911D01*
X0357189Y0257835D01*
X0357054Y0257762D01*
X0356917Y0257693D01*
X0356778Y0257628D01*
X0356638Y0257566D01*
X0356496Y0257508D01*
X0356353Y0257453D01*
X0356208Y0257402D01*
X0356062Y0257355D01*
X0355915Y0257312D01*
X0355767Y0257273D01*
X0355618Y0257237D01*
X0355468Y0257206D01*
X0355317Y0257178D01*
X0355166Y0257154D01*
X0355013Y0257134D01*
X0354861Y0257118D01*
X0354708Y0257106D01*
X0354555Y0257098D01*
X0354402Y0257094D01*
X0354248Y0257094D01*
X0354095Y0257098D01*
X0353942Y0257106D01*
X0353789Y0257118D01*
X0353637Y0257134D01*
X0353484Y0257154D01*
X0353333Y0257178D01*
X0353182Y0257206D01*
X0353032Y0257237D01*
X0352883Y0257273D01*
X0352735Y0257312D01*
X0352588Y0257355D01*
X0352442Y0257402D01*
X0352297Y0257453D01*
X0352154Y0257508D01*
X0352012Y0257566D01*
X0351872Y0257628D01*
X0351733Y0257693D01*
X0351596Y0257762D01*
X0351461Y0257835D01*
X0351328Y0257911D01*
X0351197Y0257991D01*
X0351068Y0258073D01*
X0350941Y0258160D01*
X0350816Y0258249D01*
X0350694Y0258342D01*
X0350575Y0258438D01*
X0350457Y0258537D01*
X0350343Y0258638D01*
X0350231Y0258743D01*
X0350122Y0258851D01*
X0350016Y0258962D01*
X0349912Y0259075D01*
X0349812Y0259191D01*
X0349714Y0259309D01*
X0349620Y0259430D01*
X0349529Y0259553D01*
X0349441Y0259679D01*
X0349357Y0259807D01*
X0349275Y0259937D01*
X0349198Y0260069D01*
X0349123Y0260203D01*
X0349052Y0260339D01*
X0348985Y0260477D01*
X0348921Y0260617D01*
X0348861Y0260758D01*
X0348805Y0260900D01*
X0348752Y0261044D01*
X0348703Y0261190D01*
X0348658Y0261336D01*
X0348617Y0261484D01*
X0348580Y0261632D01*
X0348546Y0261782D01*
X0348516Y0261933D01*
X0348491Y0262084D01*
X0348469Y0262235D01*
X0348451Y0262388D01*
X0348437Y0262540D01*
X0348427Y0262693D01*
X0348421Y0262847D01*
X0348419Y0263000D01*
X0381451Y0288000D02*
X0381453Y0288193D01*
X0381460Y0288386D01*
X0381472Y0288579D01*
X0381489Y0288772D01*
X0381510Y0288964D01*
X0381536Y0289155D01*
X0381567Y0289346D01*
X0381602Y0289536D01*
X0381642Y0289725D01*
X0381687Y0289913D01*
X0381736Y0290100D01*
X0381790Y0290286D01*
X0381848Y0290470D01*
X0381911Y0290653D01*
X0381979Y0290834D01*
X0382050Y0291013D01*
X0382127Y0291191D01*
X0382207Y0291367D01*
X0382292Y0291540D01*
X0382381Y0291712D01*
X0382474Y0291881D01*
X0382571Y0292048D01*
X0382673Y0292213D01*
X0382778Y0292375D01*
X0382887Y0292534D01*
X0383001Y0292691D01*
X0383118Y0292844D01*
X0383238Y0292995D01*
X0383363Y0293143D01*
X0383491Y0293288D01*
X0383622Y0293429D01*
X0383757Y0293568D01*
X0383896Y0293703D01*
X0384037Y0293834D01*
X0384182Y0293962D01*
X0384330Y0294087D01*
X0384481Y0294207D01*
X0384634Y0294324D01*
X0384791Y0294438D01*
X0384950Y0294547D01*
X0385112Y0294652D01*
X0385277Y0294754D01*
X0385444Y0294851D01*
X0385613Y0294944D01*
X0385785Y0295033D01*
X0385958Y0295118D01*
X0386134Y0295198D01*
X0386312Y0295275D01*
X0386491Y0295346D01*
X0386672Y0295414D01*
X0386855Y0295477D01*
X0387039Y0295535D01*
X0387225Y0295589D01*
X0387412Y0295638D01*
X0387600Y0295683D01*
X0387789Y0295723D01*
X0387979Y0295758D01*
X0388170Y0295789D01*
X0388361Y0295815D01*
X0388553Y0295836D01*
X0388746Y0295853D01*
X0388939Y0295865D01*
X0389132Y0295872D01*
X0389325Y0295874D01*
X0389518Y0295872D01*
X0389711Y0295865D01*
X0389904Y0295853D01*
X0390097Y0295836D01*
X0390289Y0295815D01*
X0390480Y0295789D01*
X0390671Y0295758D01*
X0390861Y0295723D01*
X0391050Y0295683D01*
X0391238Y0295638D01*
X0391425Y0295589D01*
X0391611Y0295535D01*
X0391795Y0295477D01*
X0391978Y0295414D01*
X0392159Y0295346D01*
X0392338Y0295275D01*
X0392516Y0295198D01*
X0392692Y0295118D01*
X0392865Y0295033D01*
X0393037Y0294944D01*
X0393206Y0294851D01*
X0393373Y0294754D01*
X0393538Y0294652D01*
X0393700Y0294547D01*
X0393859Y0294438D01*
X0394016Y0294324D01*
X0394169Y0294207D01*
X0394320Y0294087D01*
X0394468Y0293962D01*
X0394613Y0293834D01*
X0394754Y0293703D01*
X0394893Y0293568D01*
X0395028Y0293429D01*
X0395159Y0293288D01*
X0395287Y0293143D01*
X0395412Y0292995D01*
X0395532Y0292844D01*
X0395649Y0292691D01*
X0395763Y0292534D01*
X0395872Y0292375D01*
X0395977Y0292213D01*
X0396079Y0292048D01*
X0396176Y0291881D01*
X0396269Y0291712D01*
X0396358Y0291540D01*
X0396443Y0291367D01*
X0396523Y0291191D01*
X0396600Y0291013D01*
X0396671Y0290834D01*
X0396739Y0290653D01*
X0396802Y0290470D01*
X0396860Y0290286D01*
X0396914Y0290100D01*
X0396963Y0289913D01*
X0397008Y0289725D01*
X0397048Y0289536D01*
X0397083Y0289346D01*
X0397114Y0289155D01*
X0397140Y0288964D01*
X0397161Y0288772D01*
X0397178Y0288579D01*
X0397190Y0288386D01*
X0397197Y0288193D01*
X0397199Y0288000D01*
X0397197Y0287807D01*
X0397190Y0287614D01*
X0397178Y0287421D01*
X0397161Y0287228D01*
X0397140Y0287036D01*
X0397114Y0286845D01*
X0397083Y0286654D01*
X0397048Y0286464D01*
X0397008Y0286275D01*
X0396963Y0286087D01*
X0396914Y0285900D01*
X0396860Y0285714D01*
X0396802Y0285530D01*
X0396739Y0285347D01*
X0396671Y0285166D01*
X0396600Y0284987D01*
X0396523Y0284809D01*
X0396443Y0284633D01*
X0396358Y0284460D01*
X0396269Y0284288D01*
X0396176Y0284119D01*
X0396079Y0283952D01*
X0395977Y0283787D01*
X0395872Y0283625D01*
X0395763Y0283466D01*
X0395649Y0283309D01*
X0395532Y0283156D01*
X0395412Y0283005D01*
X0395287Y0282857D01*
X0395159Y0282712D01*
X0395028Y0282571D01*
X0394893Y0282432D01*
X0394754Y0282297D01*
X0394613Y0282166D01*
X0394468Y0282038D01*
X0394320Y0281913D01*
X0394169Y0281793D01*
X0394016Y0281676D01*
X0393859Y0281562D01*
X0393700Y0281453D01*
X0393538Y0281348D01*
X0393373Y0281246D01*
X0393206Y0281149D01*
X0393037Y0281056D01*
X0392865Y0280967D01*
X0392692Y0280882D01*
X0392516Y0280802D01*
X0392338Y0280725D01*
X0392159Y0280654D01*
X0391978Y0280586D01*
X0391795Y0280523D01*
X0391611Y0280465D01*
X0391425Y0280411D01*
X0391238Y0280362D01*
X0391050Y0280317D01*
X0390861Y0280277D01*
X0390671Y0280242D01*
X0390480Y0280211D01*
X0390289Y0280185D01*
X0390097Y0280164D01*
X0389904Y0280147D01*
X0389711Y0280135D01*
X0389518Y0280128D01*
X0389325Y0280126D01*
X0389132Y0280128D01*
X0388939Y0280135D01*
X0388746Y0280147D01*
X0388553Y0280164D01*
X0388361Y0280185D01*
X0388170Y0280211D01*
X0387979Y0280242D01*
X0387789Y0280277D01*
X0387600Y0280317D01*
X0387412Y0280362D01*
X0387225Y0280411D01*
X0387039Y0280465D01*
X0386855Y0280523D01*
X0386672Y0280586D01*
X0386491Y0280654D01*
X0386312Y0280725D01*
X0386134Y0280802D01*
X0385958Y0280882D01*
X0385785Y0280967D01*
X0385613Y0281056D01*
X0385444Y0281149D01*
X0385277Y0281246D01*
X0385112Y0281348D01*
X0384950Y0281453D01*
X0384791Y0281562D01*
X0384634Y0281676D01*
X0384481Y0281793D01*
X0384330Y0281913D01*
X0384182Y0282038D01*
X0384037Y0282166D01*
X0383896Y0282297D01*
X0383757Y0282432D01*
X0383622Y0282571D01*
X0383491Y0282712D01*
X0383363Y0282857D01*
X0383238Y0283005D01*
X0383118Y0283156D01*
X0383001Y0283309D01*
X0382887Y0283466D01*
X0382778Y0283625D01*
X0382673Y0283787D01*
X0382571Y0283952D01*
X0382474Y0284119D01*
X0382381Y0284288D01*
X0382292Y0284460D01*
X0382207Y0284633D01*
X0382127Y0284809D01*
X0382050Y0284987D01*
X0381979Y0285166D01*
X0381911Y0285347D01*
X0381848Y0285530D01*
X0381790Y0285714D01*
X0381736Y0285900D01*
X0381687Y0286087D01*
X0381642Y0286275D01*
X0381602Y0286464D01*
X0381567Y0286654D01*
X0381536Y0286845D01*
X0381510Y0287036D01*
X0381489Y0287228D01*
X0381472Y0287421D01*
X0381460Y0287614D01*
X0381453Y0287807D01*
X0381451Y0288000D01*
X0021451Y0288000D02*
X0021453Y0288193D01*
X0021460Y0288386D01*
X0021472Y0288579D01*
X0021489Y0288772D01*
X0021510Y0288964D01*
X0021536Y0289155D01*
X0021567Y0289346D01*
X0021602Y0289536D01*
X0021642Y0289725D01*
X0021687Y0289913D01*
X0021736Y0290100D01*
X0021790Y0290286D01*
X0021848Y0290470D01*
X0021911Y0290653D01*
X0021979Y0290834D01*
X0022050Y0291013D01*
X0022127Y0291191D01*
X0022207Y0291367D01*
X0022292Y0291540D01*
X0022381Y0291712D01*
X0022474Y0291881D01*
X0022571Y0292048D01*
X0022673Y0292213D01*
X0022778Y0292375D01*
X0022887Y0292534D01*
X0023001Y0292691D01*
X0023118Y0292844D01*
X0023238Y0292995D01*
X0023363Y0293143D01*
X0023491Y0293288D01*
X0023622Y0293429D01*
X0023757Y0293568D01*
X0023896Y0293703D01*
X0024037Y0293834D01*
X0024182Y0293962D01*
X0024330Y0294087D01*
X0024481Y0294207D01*
X0024634Y0294324D01*
X0024791Y0294438D01*
X0024950Y0294547D01*
X0025112Y0294652D01*
X0025277Y0294754D01*
X0025444Y0294851D01*
X0025613Y0294944D01*
X0025785Y0295033D01*
X0025958Y0295118D01*
X0026134Y0295198D01*
X0026312Y0295275D01*
X0026491Y0295346D01*
X0026672Y0295414D01*
X0026855Y0295477D01*
X0027039Y0295535D01*
X0027225Y0295589D01*
X0027412Y0295638D01*
X0027600Y0295683D01*
X0027789Y0295723D01*
X0027979Y0295758D01*
X0028170Y0295789D01*
X0028361Y0295815D01*
X0028553Y0295836D01*
X0028746Y0295853D01*
X0028939Y0295865D01*
X0029132Y0295872D01*
X0029325Y0295874D01*
X0029518Y0295872D01*
X0029711Y0295865D01*
X0029904Y0295853D01*
X0030097Y0295836D01*
X0030289Y0295815D01*
X0030480Y0295789D01*
X0030671Y0295758D01*
X0030861Y0295723D01*
X0031050Y0295683D01*
X0031238Y0295638D01*
X0031425Y0295589D01*
X0031611Y0295535D01*
X0031795Y0295477D01*
X0031978Y0295414D01*
X0032159Y0295346D01*
X0032338Y0295275D01*
X0032516Y0295198D01*
X0032692Y0295118D01*
X0032865Y0295033D01*
X0033037Y0294944D01*
X0033206Y0294851D01*
X0033373Y0294754D01*
X0033538Y0294652D01*
X0033700Y0294547D01*
X0033859Y0294438D01*
X0034016Y0294324D01*
X0034169Y0294207D01*
X0034320Y0294087D01*
X0034468Y0293962D01*
X0034613Y0293834D01*
X0034754Y0293703D01*
X0034893Y0293568D01*
X0035028Y0293429D01*
X0035159Y0293288D01*
X0035287Y0293143D01*
X0035412Y0292995D01*
X0035532Y0292844D01*
X0035649Y0292691D01*
X0035763Y0292534D01*
X0035872Y0292375D01*
X0035977Y0292213D01*
X0036079Y0292048D01*
X0036176Y0291881D01*
X0036269Y0291712D01*
X0036358Y0291540D01*
X0036443Y0291367D01*
X0036523Y0291191D01*
X0036600Y0291013D01*
X0036671Y0290834D01*
X0036739Y0290653D01*
X0036802Y0290470D01*
X0036860Y0290286D01*
X0036914Y0290100D01*
X0036963Y0289913D01*
X0037008Y0289725D01*
X0037048Y0289536D01*
X0037083Y0289346D01*
X0037114Y0289155D01*
X0037140Y0288964D01*
X0037161Y0288772D01*
X0037178Y0288579D01*
X0037190Y0288386D01*
X0037197Y0288193D01*
X0037199Y0288000D01*
X0037197Y0287807D01*
X0037190Y0287614D01*
X0037178Y0287421D01*
X0037161Y0287228D01*
X0037140Y0287036D01*
X0037114Y0286845D01*
X0037083Y0286654D01*
X0037048Y0286464D01*
X0037008Y0286275D01*
X0036963Y0286087D01*
X0036914Y0285900D01*
X0036860Y0285714D01*
X0036802Y0285530D01*
X0036739Y0285347D01*
X0036671Y0285166D01*
X0036600Y0284987D01*
X0036523Y0284809D01*
X0036443Y0284633D01*
X0036358Y0284460D01*
X0036269Y0284288D01*
X0036176Y0284119D01*
X0036079Y0283952D01*
X0035977Y0283787D01*
X0035872Y0283625D01*
X0035763Y0283466D01*
X0035649Y0283309D01*
X0035532Y0283156D01*
X0035412Y0283005D01*
X0035287Y0282857D01*
X0035159Y0282712D01*
X0035028Y0282571D01*
X0034893Y0282432D01*
X0034754Y0282297D01*
X0034613Y0282166D01*
X0034468Y0282038D01*
X0034320Y0281913D01*
X0034169Y0281793D01*
X0034016Y0281676D01*
X0033859Y0281562D01*
X0033700Y0281453D01*
X0033538Y0281348D01*
X0033373Y0281246D01*
X0033206Y0281149D01*
X0033037Y0281056D01*
X0032865Y0280967D01*
X0032692Y0280882D01*
X0032516Y0280802D01*
X0032338Y0280725D01*
X0032159Y0280654D01*
X0031978Y0280586D01*
X0031795Y0280523D01*
X0031611Y0280465D01*
X0031425Y0280411D01*
X0031238Y0280362D01*
X0031050Y0280317D01*
X0030861Y0280277D01*
X0030671Y0280242D01*
X0030480Y0280211D01*
X0030289Y0280185D01*
X0030097Y0280164D01*
X0029904Y0280147D01*
X0029711Y0280135D01*
X0029518Y0280128D01*
X0029325Y0280126D01*
X0029132Y0280128D01*
X0028939Y0280135D01*
X0028746Y0280147D01*
X0028553Y0280164D01*
X0028361Y0280185D01*
X0028170Y0280211D01*
X0027979Y0280242D01*
X0027789Y0280277D01*
X0027600Y0280317D01*
X0027412Y0280362D01*
X0027225Y0280411D01*
X0027039Y0280465D01*
X0026855Y0280523D01*
X0026672Y0280586D01*
X0026491Y0280654D01*
X0026312Y0280725D01*
X0026134Y0280802D01*
X0025958Y0280882D01*
X0025785Y0280967D01*
X0025613Y0281056D01*
X0025444Y0281149D01*
X0025277Y0281246D01*
X0025112Y0281348D01*
X0024950Y0281453D01*
X0024791Y0281562D01*
X0024634Y0281676D01*
X0024481Y0281793D01*
X0024330Y0281913D01*
X0024182Y0282038D01*
X0024037Y0282166D01*
X0023896Y0282297D01*
X0023757Y0282432D01*
X0023622Y0282571D01*
X0023491Y0282712D01*
X0023363Y0282857D01*
X0023238Y0283005D01*
X0023118Y0283156D01*
X0023001Y0283309D01*
X0022887Y0283466D01*
X0022778Y0283625D01*
X0022673Y0283787D01*
X0022571Y0283952D01*
X0022474Y0284119D01*
X0022381Y0284288D01*
X0022292Y0284460D01*
X0022207Y0284633D01*
X0022127Y0284809D01*
X0022050Y0284987D01*
X0021979Y0285166D01*
X0021911Y0285347D01*
X0021848Y0285530D01*
X0021790Y0285714D01*
X0021736Y0285900D01*
X0021687Y0286087D01*
X0021642Y0286275D01*
X0021602Y0286464D01*
X0021567Y0286654D01*
X0021536Y0286845D01*
X0021510Y0287036D01*
X0021489Y0287228D01*
X0021472Y0287421D01*
X0021460Y0287614D01*
X0021453Y0287807D01*
X0021451Y0288000D01*
D11*
X0059325Y0266098D03*
X0059325Y0254902D03*
X0088075Y0211098D03*
X0088075Y0199902D03*
X0100575Y0198652D03*
X0100575Y0209848D03*
X0039325Y0183598D03*
X0039325Y0172402D03*
X0144325Y0151098D03*
X0144325Y0139902D03*
X0146825Y0081098D03*
X0136825Y0081098D03*
X0136825Y0069902D03*
X0146825Y0069902D03*
X0156825Y0069902D03*
X0166825Y0069902D03*
X0166825Y0081098D03*
X0156825Y0081098D03*
X0156825Y0056098D03*
X0166825Y0056098D03*
X0166825Y0044902D03*
X0156825Y0044902D03*
X0146825Y0044902D03*
X0136825Y0044902D03*
X0136825Y0056098D03*
X0146825Y0056098D03*
X0398075Y0117402D03*
X0398075Y0128598D03*
X0398075Y0139902D03*
X0398075Y0151098D03*
X0211825Y0253652D03*
X0211825Y0264848D03*
D12*
X0163066Y0220500D03*
X0155585Y0220500D03*
X0155585Y0210500D03*
X0163066Y0210500D03*
X0150566Y0190500D03*
X0143085Y0190500D03*
X0128066Y0188000D03*
X0120585Y0188000D03*
X0120585Y0200500D03*
X0128066Y0200500D03*
X0083066Y0175500D03*
X0075585Y0175500D03*
X0080585Y0155500D03*
X0088066Y0155500D03*
X0084335Y0131750D03*
X0091816Y0131750D03*
D13*
X0087424Y0143000D03*
X0076227Y0143000D03*
X0076227Y0165500D03*
X0087424Y0165500D03*
X0064924Y0195500D03*
X0053727Y0195500D03*
X0087477Y0220500D03*
X0098674Y0220500D03*
X0153727Y0230500D03*
X0164924Y0230500D03*
X0129924Y0133000D03*
X0129924Y0123000D03*
X0118727Y0123000D03*
X0118727Y0133000D03*
D14*
X0144325Y0163020D03*
X0156825Y0163020D03*
X0156825Y0177980D03*
X0144325Y0177980D03*
D15*
X0066018Y0185500D03*
X0052632Y0185500D03*
X0047632Y0210500D03*
X0061018Y0210500D03*
D16*
X0060762Y0224260D03*
X0060762Y0231740D03*
X0052495Y0228000D03*
D17*
X0059325Y0059240D03*
X0059325Y0051760D03*
X0114325Y0049240D03*
X0114325Y0041760D03*
D18*
X0396012Y0095687D02*
X0396012Y0098313D01*
X0400138Y0098313D01*
X0400138Y0095687D01*
X0396012Y0095687D01*
X0396012Y0096518D02*
X0400138Y0096518D01*
X0400138Y0097349D02*
X0396012Y0097349D01*
X0396012Y0098180D02*
X0400138Y0098180D01*
X0396012Y0102687D02*
X0396012Y0105313D01*
X0400138Y0105313D01*
X0400138Y0102687D01*
X0396012Y0102687D01*
X0396012Y0103518D02*
X0400138Y0103518D01*
X0400138Y0104349D02*
X0396012Y0104349D01*
X0396012Y0105180D02*
X0400138Y0105180D01*
M02*
