G04 EAGLE Gerber RS-274X export*
G75*
%MOMM*%
%FSLAX34Y34*%
%LPD*%
%INBottom Copper*%
%IPPOS*%
%AMOC8*
5,1,8,0,0,1.08239X$1,22.5*%
G01*
%ADD10C,1.219200*%
%ADD11R,5.080000X2.286000*%
%ADD12C,1.500000*%

G36*
X840015Y5084D02*
X840015Y5084D01*
X840049Y5082D01*
X840238Y5104D01*
X840429Y5121D01*
X840462Y5130D01*
X840496Y5134D01*
X840679Y5189D01*
X840863Y5239D01*
X840894Y5254D01*
X840927Y5264D01*
X841098Y5351D01*
X841270Y5433D01*
X841298Y5453D01*
X841329Y5468D01*
X841481Y5584D01*
X841636Y5695D01*
X841660Y5720D01*
X841687Y5740D01*
X841816Y5880D01*
X841950Y6017D01*
X841969Y6046D01*
X841993Y6072D01*
X842095Y6233D01*
X842202Y6390D01*
X842216Y6422D01*
X842234Y6451D01*
X842307Y6628D01*
X842384Y6802D01*
X842392Y6836D01*
X842405Y6868D01*
X842445Y7055D01*
X842491Y7240D01*
X842493Y7274D01*
X842500Y7308D01*
X842519Y7620D01*
X842519Y32822D01*
X842509Y32940D01*
X842508Y33058D01*
X842489Y33164D01*
X842479Y33270D01*
X842448Y33385D01*
X842427Y33501D01*
X842389Y33601D01*
X842361Y33705D01*
X842310Y33812D01*
X842268Y33923D01*
X842213Y34015D01*
X842167Y34111D01*
X842099Y34208D01*
X842038Y34310D01*
X841968Y34391D01*
X841905Y34477D01*
X841820Y34560D01*
X841743Y34650D01*
X841659Y34717D01*
X841583Y34791D01*
X841484Y34858D01*
X841392Y34932D01*
X841298Y34984D01*
X841210Y35044D01*
X841101Y35092D01*
X840997Y35148D01*
X840896Y35182D01*
X840798Y35226D01*
X840682Y35254D01*
X840570Y35292D01*
X840464Y35307D01*
X840360Y35332D01*
X840242Y35340D01*
X840125Y35357D01*
X840018Y35354D01*
X839911Y35360D01*
X839793Y35346D01*
X839675Y35343D01*
X839570Y35320D01*
X839464Y35308D01*
X839350Y35274D01*
X839234Y35249D01*
X839135Y35209D01*
X839033Y35178D01*
X838927Y35124D01*
X838817Y35079D01*
X838727Y35022D01*
X838631Y34973D01*
X838537Y34902D01*
X838437Y34838D01*
X838358Y34766D01*
X838273Y34701D01*
X838192Y34614D01*
X838105Y34534D01*
X838040Y34449D01*
X837968Y34370D01*
X837904Y34270D01*
X837832Y34176D01*
X837783Y34081D01*
X837726Y33991D01*
X837681Y33881D01*
X837627Y33775D01*
X837579Y33632D01*
X837555Y33574D01*
X837547Y33537D01*
X837527Y33479D01*
X836172Y28419D01*
X832870Y22700D01*
X828200Y18030D01*
X822481Y14728D01*
X816102Y13019D01*
X809498Y13019D01*
X803119Y14728D01*
X797400Y18030D01*
X792730Y22700D01*
X789428Y28419D01*
X787719Y34798D01*
X787719Y41402D01*
X789428Y47781D01*
X792730Y53500D01*
X797400Y58170D01*
X803119Y61472D01*
X809498Y63181D01*
X816102Y63181D01*
X822481Y61472D01*
X828200Y58170D01*
X832870Y53500D01*
X836172Y47781D01*
X837527Y42721D01*
X837568Y42610D01*
X837599Y42495D01*
X837645Y42399D01*
X837682Y42298D01*
X837742Y42195D01*
X837793Y42089D01*
X837855Y42002D01*
X837909Y41909D01*
X837986Y41819D01*
X838055Y41723D01*
X838131Y41648D01*
X838201Y41566D01*
X838292Y41491D01*
X838377Y41409D01*
X838466Y41349D01*
X838549Y41281D01*
X838652Y41223D01*
X838750Y41156D01*
X838848Y41113D01*
X838942Y41061D01*
X839054Y41022D01*
X839162Y40974D01*
X839266Y40949D01*
X839367Y40914D01*
X839485Y40896D01*
X839600Y40868D01*
X839707Y40861D01*
X839812Y40844D01*
X839931Y40847D01*
X840049Y40840D01*
X840155Y40852D01*
X840262Y40855D01*
X840378Y40878D01*
X840496Y40892D01*
X840599Y40923D01*
X840704Y40944D01*
X840814Y40988D01*
X840927Y41022D01*
X841023Y41071D01*
X841122Y41110D01*
X841223Y41173D01*
X841329Y41227D01*
X841414Y41291D01*
X841505Y41348D01*
X841593Y41427D01*
X841687Y41499D01*
X841760Y41577D01*
X841839Y41649D01*
X841912Y41742D01*
X841993Y41830D01*
X842050Y41920D01*
X842116Y42005D01*
X842171Y42109D01*
X842234Y42209D01*
X842275Y42309D01*
X842325Y42403D01*
X842360Y42516D01*
X842405Y42626D01*
X842428Y42731D01*
X842460Y42833D01*
X842475Y42950D01*
X842500Y43066D01*
X842509Y43217D01*
X842517Y43279D01*
X842515Y43317D01*
X842519Y43378D01*
X842519Y218694D01*
X842516Y218729D01*
X842518Y218763D01*
X842496Y218952D01*
X842479Y219143D01*
X842470Y219176D01*
X842466Y219210D01*
X842411Y219393D01*
X842361Y219577D01*
X842346Y219608D01*
X842336Y219641D01*
X842249Y219812D01*
X842167Y219984D01*
X842147Y220012D01*
X842132Y220043D01*
X842016Y220195D01*
X841905Y220350D01*
X841880Y220374D01*
X841860Y220401D01*
X841720Y220530D01*
X841583Y220664D01*
X841554Y220683D01*
X841528Y220707D01*
X841367Y220809D01*
X841210Y220916D01*
X841178Y220930D01*
X841149Y220948D01*
X840972Y221021D01*
X840798Y221098D01*
X840764Y221106D01*
X840732Y221119D01*
X840545Y221159D01*
X840360Y221205D01*
X840326Y221207D01*
X840292Y221214D01*
X839980Y221233D01*
X830325Y221233D01*
X830325Y232664D01*
X830322Y232698D01*
X830324Y232733D01*
X830302Y232922D01*
X830285Y233112D01*
X830276Y233146D01*
X830272Y233180D01*
X830217Y233363D01*
X830167Y233547D01*
X830152Y233578D01*
X830142Y233611D01*
X830055Y233782D01*
X829973Y233953D01*
X829953Y233981D01*
X829937Y234012D01*
X829822Y234164D01*
X829711Y234319D01*
X829686Y234344D01*
X829665Y234371D01*
X829525Y234500D01*
X829389Y234634D01*
X829360Y234653D01*
X829334Y234676D01*
X829173Y234779D01*
X829015Y234886D01*
X828984Y234900D01*
X828955Y234918D01*
X828778Y234991D01*
X828604Y235068D01*
X828570Y235076D01*
X828538Y235089D01*
X828351Y235129D01*
X828166Y235174D01*
X828132Y235177D01*
X828098Y235184D01*
X827786Y235203D01*
X825245Y235203D01*
X825245Y235205D01*
X827786Y235205D01*
X827820Y235208D01*
X827855Y235206D01*
X828044Y235228D01*
X828234Y235245D01*
X828268Y235254D01*
X828302Y235258D01*
X828485Y235313D01*
X828669Y235363D01*
X828700Y235378D01*
X828733Y235388D01*
X828904Y235475D01*
X829075Y235557D01*
X829104Y235577D01*
X829134Y235593D01*
X829286Y235708D01*
X829442Y235819D01*
X829466Y235844D01*
X829493Y235865D01*
X829622Y236005D01*
X829756Y236141D01*
X829775Y236170D01*
X829798Y236196D01*
X829901Y236357D01*
X830008Y236515D01*
X830022Y236546D01*
X830040Y236575D01*
X830113Y236752D01*
X830190Y236926D01*
X830198Y236960D01*
X830211Y236992D01*
X830251Y237179D01*
X830297Y237364D01*
X830299Y237398D01*
X830306Y237432D01*
X830325Y237744D01*
X830325Y249175D01*
X839980Y249175D01*
X840015Y249178D01*
X840049Y249176D01*
X840238Y249198D01*
X840429Y249215D01*
X840462Y249224D01*
X840496Y249228D01*
X840679Y249283D01*
X840863Y249333D01*
X840894Y249348D01*
X840927Y249358D01*
X841098Y249445D01*
X841270Y249527D01*
X841298Y249547D01*
X841329Y249562D01*
X841481Y249678D01*
X841636Y249789D01*
X841660Y249814D01*
X841687Y249834D01*
X841816Y249974D01*
X841950Y250111D01*
X841969Y250140D01*
X841993Y250166D01*
X842095Y250327D01*
X842202Y250484D01*
X842216Y250516D01*
X842234Y250545D01*
X842307Y250722D01*
X842384Y250896D01*
X842392Y250930D01*
X842405Y250962D01*
X842445Y251149D01*
X842491Y251334D01*
X842493Y251368D01*
X842500Y251402D01*
X842519Y251714D01*
X842519Y307086D01*
X842516Y307121D01*
X842518Y307155D01*
X842496Y307344D01*
X842479Y307535D01*
X842470Y307568D01*
X842466Y307602D01*
X842411Y307785D01*
X842361Y307969D01*
X842346Y308000D01*
X842336Y308033D01*
X842249Y308204D01*
X842167Y308376D01*
X842147Y308404D01*
X842132Y308435D01*
X842016Y308587D01*
X841905Y308742D01*
X841880Y308766D01*
X841860Y308793D01*
X841720Y308922D01*
X841583Y309056D01*
X841554Y309075D01*
X841528Y309099D01*
X841367Y309201D01*
X841210Y309308D01*
X841178Y309322D01*
X841149Y309340D01*
X840972Y309413D01*
X840798Y309490D01*
X840764Y309498D01*
X840732Y309511D01*
X840545Y309551D01*
X840360Y309597D01*
X840326Y309599D01*
X840292Y309606D01*
X839980Y309625D01*
X830325Y309625D01*
X830325Y321056D01*
X830322Y321090D01*
X830324Y321125D01*
X830302Y321314D01*
X830285Y321504D01*
X830276Y321538D01*
X830272Y321572D01*
X830217Y321755D01*
X830167Y321939D01*
X830152Y321970D01*
X830142Y322003D01*
X830055Y322174D01*
X829973Y322345D01*
X829953Y322373D01*
X829937Y322404D01*
X829822Y322556D01*
X829711Y322711D01*
X829686Y322736D01*
X829665Y322763D01*
X829525Y322892D01*
X829389Y323026D01*
X829360Y323045D01*
X829334Y323068D01*
X829173Y323171D01*
X829015Y323278D01*
X828984Y323292D01*
X828955Y323310D01*
X828778Y323383D01*
X828604Y323460D01*
X828570Y323468D01*
X828538Y323481D01*
X828351Y323521D01*
X828166Y323566D01*
X828132Y323569D01*
X828098Y323576D01*
X827786Y323595D01*
X825245Y323595D01*
X825245Y323597D01*
X827786Y323597D01*
X827820Y323600D01*
X827855Y323598D01*
X828044Y323620D01*
X828234Y323637D01*
X828268Y323646D01*
X828302Y323650D01*
X828485Y323705D01*
X828669Y323755D01*
X828700Y323770D01*
X828733Y323780D01*
X828904Y323867D01*
X829075Y323949D01*
X829104Y323969D01*
X829134Y323985D01*
X829286Y324100D01*
X829442Y324211D01*
X829466Y324236D01*
X829493Y324257D01*
X829622Y324397D01*
X829756Y324533D01*
X829775Y324562D01*
X829798Y324588D01*
X829901Y324749D01*
X830008Y324907D01*
X830022Y324938D01*
X830040Y324967D01*
X830113Y325144D01*
X830190Y325318D01*
X830198Y325352D01*
X830211Y325384D01*
X830251Y325571D01*
X830297Y325756D01*
X830299Y325790D01*
X830306Y325824D01*
X830325Y326136D01*
X830325Y337567D01*
X839980Y337567D01*
X840015Y337570D01*
X840049Y337568D01*
X840238Y337590D01*
X840429Y337607D01*
X840462Y337616D01*
X840496Y337620D01*
X840679Y337675D01*
X840863Y337725D01*
X840894Y337740D01*
X840927Y337750D01*
X841098Y337837D01*
X841270Y337919D01*
X841298Y337939D01*
X841329Y337954D01*
X841481Y338070D01*
X841636Y338181D01*
X841660Y338206D01*
X841687Y338226D01*
X841816Y338366D01*
X841950Y338503D01*
X841969Y338532D01*
X841993Y338558D01*
X842095Y338719D01*
X842202Y338876D01*
X842216Y338908D01*
X842234Y338937D01*
X842307Y339114D01*
X842384Y339288D01*
X842392Y339322D01*
X842405Y339354D01*
X842445Y339541D01*
X842491Y339726D01*
X842493Y339760D01*
X842500Y339794D01*
X842519Y340106D01*
X842519Y413822D01*
X842509Y413940D01*
X842508Y414058D01*
X842489Y414164D01*
X842479Y414270D01*
X842448Y414385D01*
X842427Y414501D01*
X842389Y414601D01*
X842361Y414705D01*
X842310Y414812D01*
X842268Y414923D01*
X842213Y415015D01*
X842167Y415111D01*
X842099Y415208D01*
X842038Y415310D01*
X841968Y415391D01*
X841905Y415477D01*
X841820Y415560D01*
X841743Y415650D01*
X841659Y415717D01*
X841583Y415791D01*
X841484Y415858D01*
X841392Y415932D01*
X841298Y415984D01*
X841210Y416044D01*
X841101Y416092D01*
X840997Y416148D01*
X840896Y416182D01*
X840798Y416226D01*
X840682Y416254D01*
X840570Y416292D01*
X840464Y416307D01*
X840360Y416332D01*
X840242Y416340D01*
X840125Y416357D01*
X840018Y416354D01*
X839911Y416360D01*
X839793Y416346D01*
X839675Y416343D01*
X839570Y416320D01*
X839464Y416308D01*
X839350Y416274D01*
X839234Y416249D01*
X839135Y416209D01*
X839033Y416178D01*
X838927Y416124D01*
X838817Y416079D01*
X838727Y416022D01*
X838631Y415973D01*
X838537Y415902D01*
X838437Y415838D01*
X838358Y415766D01*
X838273Y415701D01*
X838192Y415614D01*
X838105Y415534D01*
X838040Y415449D01*
X837968Y415370D01*
X837904Y415270D01*
X837832Y415176D01*
X837783Y415081D01*
X837726Y414991D01*
X837681Y414881D01*
X837627Y414775D01*
X837579Y414632D01*
X837555Y414574D01*
X837547Y414537D01*
X837527Y414479D01*
X836172Y409419D01*
X832870Y403700D01*
X828200Y399030D01*
X822481Y395728D01*
X816102Y394019D01*
X809498Y394019D01*
X803119Y395728D01*
X797400Y399030D01*
X792730Y403700D01*
X789428Y409419D01*
X787719Y415798D01*
X787719Y422402D01*
X789428Y428781D01*
X792730Y434500D01*
X797400Y439170D01*
X803119Y442472D01*
X809498Y444181D01*
X816102Y444181D01*
X822481Y442472D01*
X828200Y439170D01*
X832870Y434500D01*
X836172Y428781D01*
X837527Y423721D01*
X837568Y423610D01*
X837599Y423495D01*
X837645Y423399D01*
X837682Y423298D01*
X837742Y423196D01*
X837793Y423089D01*
X837855Y423002D01*
X837909Y422909D01*
X837986Y422819D01*
X838055Y422723D01*
X838131Y422648D01*
X838201Y422566D01*
X838292Y422491D01*
X838377Y422409D01*
X838466Y422349D01*
X838549Y422281D01*
X838652Y422223D01*
X838750Y422156D01*
X838848Y422113D01*
X838942Y422061D01*
X839054Y422022D01*
X839162Y421974D01*
X839266Y421949D01*
X839367Y421914D01*
X839485Y421896D01*
X839600Y421868D01*
X839707Y421861D01*
X839812Y421844D01*
X839931Y421847D01*
X840049Y421840D01*
X840155Y421852D01*
X840262Y421855D01*
X840378Y421878D01*
X840496Y421892D01*
X840599Y421923D01*
X840704Y421944D01*
X840814Y421988D01*
X840927Y422022D01*
X841023Y422071D01*
X841122Y422110D01*
X841223Y422173D01*
X841329Y422227D01*
X841414Y422291D01*
X841505Y422348D01*
X841593Y422427D01*
X841687Y422499D01*
X841760Y422577D01*
X841839Y422649D01*
X841912Y422742D01*
X841993Y422830D01*
X842050Y422920D01*
X842116Y423005D01*
X842171Y423109D01*
X842234Y423209D01*
X842275Y423309D01*
X842325Y423403D01*
X842360Y423516D01*
X842405Y423626D01*
X842428Y423731D01*
X842460Y423833D01*
X842475Y423950D01*
X842500Y424066D01*
X842509Y424217D01*
X842517Y424279D01*
X842515Y424317D01*
X842519Y424378D01*
X842519Y449480D01*
X842517Y449502D01*
X842518Y449519D01*
X842517Y449529D01*
X842518Y449549D01*
X842496Y449738D01*
X842479Y449929D01*
X842470Y449962D01*
X842466Y449996D01*
X842411Y450179D01*
X842361Y450363D01*
X842346Y450394D01*
X842336Y450427D01*
X842249Y450598D01*
X842167Y450770D01*
X842147Y450798D01*
X842132Y450829D01*
X842016Y450981D01*
X841905Y451136D01*
X841880Y451160D01*
X841860Y451187D01*
X841720Y451316D01*
X841583Y451450D01*
X841554Y451469D01*
X841528Y451493D01*
X841367Y451595D01*
X841210Y451702D01*
X841178Y451716D01*
X841149Y451734D01*
X840972Y451807D01*
X840798Y451884D01*
X840764Y451892D01*
X840732Y451905D01*
X840545Y451945D01*
X840360Y451991D01*
X840326Y451993D01*
X840292Y452000D01*
X839980Y452019D01*
X452120Y452019D01*
X452085Y452016D01*
X452051Y452018D01*
X451862Y451996D01*
X451671Y451979D01*
X451638Y451970D01*
X451604Y451966D01*
X451421Y451911D01*
X451237Y451861D01*
X451206Y451846D01*
X451173Y451836D01*
X451002Y451749D01*
X450830Y451667D01*
X450802Y451647D01*
X450771Y451632D01*
X450619Y451516D01*
X450464Y451405D01*
X450440Y451380D01*
X450413Y451360D01*
X450284Y451220D01*
X450150Y451083D01*
X450131Y451054D01*
X450107Y451028D01*
X450005Y450867D01*
X449898Y450710D01*
X449884Y450678D01*
X449866Y450649D01*
X449793Y450472D01*
X449716Y450298D01*
X449708Y450264D01*
X449695Y450232D01*
X449655Y450045D01*
X449609Y449860D01*
X449607Y449826D01*
X449600Y449792D01*
X449581Y449480D01*
X449581Y7620D01*
X449584Y7585D01*
X449582Y7551D01*
X449604Y7362D01*
X449621Y7171D01*
X449630Y7138D01*
X449634Y7104D01*
X449689Y6921D01*
X449739Y6737D01*
X449754Y6706D01*
X449764Y6673D01*
X449851Y6502D01*
X449933Y6330D01*
X449953Y6302D01*
X449968Y6271D01*
X450084Y6119D01*
X450195Y5964D01*
X450220Y5940D01*
X450240Y5913D01*
X450380Y5784D01*
X450517Y5650D01*
X450546Y5631D01*
X450572Y5607D01*
X450733Y5505D01*
X450890Y5398D01*
X450922Y5384D01*
X450951Y5366D01*
X451128Y5293D01*
X451302Y5216D01*
X451336Y5208D01*
X451368Y5195D01*
X451555Y5155D01*
X451740Y5109D01*
X451774Y5107D01*
X451808Y5100D01*
X452120Y5081D01*
X839980Y5081D01*
X840015Y5084D01*
G37*
%LPC*%
G36*
X479298Y394019D02*
X479298Y394019D01*
X472919Y395728D01*
X467200Y399030D01*
X462530Y403700D01*
X459228Y409419D01*
X457519Y415798D01*
X457519Y422402D01*
X459228Y428781D01*
X462530Y434500D01*
X467200Y439170D01*
X472919Y442472D01*
X479298Y444181D01*
X485902Y444181D01*
X492281Y442472D01*
X498000Y439170D01*
X502670Y434500D01*
X505972Y428781D01*
X507681Y422402D01*
X507681Y415798D01*
X505972Y409419D01*
X502670Y403700D01*
X498000Y399030D01*
X492281Y395728D01*
X485902Y394019D01*
X479298Y394019D01*
G37*
%LPD*%
%LPC*%
G36*
X479298Y13019D02*
X479298Y13019D01*
X472919Y14728D01*
X467200Y18030D01*
X462530Y22700D01*
X459228Y28419D01*
X457519Y34798D01*
X457519Y41402D01*
X459228Y47781D01*
X462530Y53500D01*
X467200Y58170D01*
X472919Y61472D01*
X479298Y63181D01*
X485902Y63181D01*
X492281Y61472D01*
X498000Y58170D01*
X502670Y53500D01*
X505972Y47781D01*
X507681Y41402D01*
X507681Y34798D01*
X505972Y28419D01*
X502670Y22700D01*
X498000Y18030D01*
X492281Y14728D01*
X485902Y13019D01*
X479298Y13019D01*
G37*
%LPD*%
%LPC*%
G36*
X645985Y14223D02*
X645985Y14223D01*
X641877Y15925D01*
X638733Y19069D01*
X637031Y23177D01*
X637031Y27623D01*
X638733Y31731D01*
X641877Y34875D01*
X643999Y35754D01*
X644114Y35814D01*
X644233Y35866D01*
X644281Y35897D01*
X644295Y35904D01*
X644321Y35923D01*
X644398Y35963D01*
X644500Y36042D01*
X644609Y36114D01*
X644678Y36180D01*
X644754Y36238D01*
X644841Y36335D01*
X644935Y36425D01*
X644991Y36502D01*
X645055Y36573D01*
X645124Y36683D01*
X645201Y36788D01*
X645243Y36874D01*
X645293Y36955D01*
X645341Y37076D01*
X645398Y37192D01*
X645425Y37284D01*
X645460Y37373D01*
X645486Y37501D01*
X645521Y37626D01*
X645531Y37721D01*
X645550Y37814D01*
X645553Y37944D01*
X645566Y38074D01*
X645559Y38169D01*
X645561Y38264D01*
X645541Y38393D01*
X645531Y38523D01*
X645507Y38615D01*
X645492Y38709D01*
X645450Y38832D01*
X645417Y38958D01*
X645377Y39045D01*
X645346Y39135D01*
X645282Y39249D01*
X645228Y39367D01*
X645173Y39445D01*
X645126Y39528D01*
X645044Y39629D01*
X644969Y39736D01*
X644901Y39803D01*
X644841Y39877D01*
X644742Y39961D01*
X644650Y40053D01*
X644571Y40107D01*
X644499Y40169D01*
X644386Y40235D01*
X644279Y40309D01*
X644162Y40366D01*
X644110Y40397D01*
X644068Y40412D01*
X643999Y40446D01*
X641877Y41325D01*
X638733Y44469D01*
X637031Y48577D01*
X637031Y53023D01*
X638733Y57131D01*
X641877Y60275D01*
X645985Y61977D01*
X662623Y61977D01*
X666731Y60275D01*
X669875Y57131D01*
X671577Y53023D01*
X671577Y48577D01*
X669875Y44469D01*
X666731Y41325D01*
X664609Y40446D01*
X664494Y40386D01*
X664375Y40334D01*
X664295Y40282D01*
X664210Y40237D01*
X664107Y40158D01*
X663999Y40086D01*
X663930Y40020D01*
X663854Y39962D01*
X663767Y39865D01*
X663673Y39776D01*
X663617Y39698D01*
X663553Y39627D01*
X663484Y39517D01*
X663407Y39412D01*
X663365Y39326D01*
X663315Y39245D01*
X663267Y39125D01*
X663210Y39008D01*
X663183Y38916D01*
X663148Y38827D01*
X663122Y38700D01*
X663087Y38574D01*
X663077Y38479D01*
X663058Y38386D01*
X663055Y38256D01*
X663042Y38126D01*
X663049Y38031D01*
X663047Y37936D01*
X663067Y37807D01*
X663077Y37677D01*
X663101Y37585D01*
X663116Y37491D01*
X663158Y37368D01*
X663191Y37242D01*
X663231Y37155D01*
X663262Y37065D01*
X663326Y36951D01*
X663380Y36833D01*
X663435Y36755D01*
X663482Y36672D01*
X663564Y36571D01*
X663639Y36464D01*
X663706Y36397D01*
X663767Y36323D01*
X663866Y36239D01*
X663958Y36147D01*
X664037Y36093D01*
X664109Y36031D01*
X664222Y35965D01*
X664329Y35891D01*
X664415Y35849D01*
X664434Y35837D01*
X664457Y35827D01*
X664498Y35803D01*
X664540Y35788D01*
X664609Y35754D01*
X666731Y34875D01*
X669875Y31731D01*
X671577Y27623D01*
X671577Y23177D01*
X669875Y19069D01*
X666731Y15925D01*
X662623Y14223D01*
X645985Y14223D01*
G37*
%LPD*%
%LPC*%
G36*
X664781Y217423D02*
X664781Y217423D01*
X660673Y219125D01*
X657529Y222269D01*
X655827Y226377D01*
X655827Y230823D01*
X657529Y234931D01*
X660673Y238075D01*
X662795Y238954D01*
X662910Y239014D01*
X663029Y239066D01*
X663109Y239118D01*
X663194Y239163D01*
X663297Y239242D01*
X663405Y239314D01*
X663474Y239380D01*
X663550Y239438D01*
X663637Y239535D01*
X663731Y239625D01*
X663787Y239702D01*
X663851Y239773D01*
X663920Y239883D01*
X663997Y239988D01*
X664039Y240074D01*
X664089Y240155D01*
X664137Y240276D01*
X664194Y240392D01*
X664221Y240484D01*
X664256Y240573D01*
X664282Y240701D01*
X664317Y240826D01*
X664327Y240921D01*
X664346Y241014D01*
X664349Y241144D01*
X664362Y241274D01*
X664355Y241369D01*
X664357Y241464D01*
X664337Y241593D01*
X664327Y241723D01*
X664303Y241815D01*
X664288Y241909D01*
X664246Y242033D01*
X664213Y242158D01*
X664173Y242245D01*
X664142Y242335D01*
X664078Y242449D01*
X664024Y242567D01*
X663969Y242645D01*
X663922Y242728D01*
X663840Y242829D01*
X663765Y242936D01*
X663697Y243003D01*
X663637Y243077D01*
X663538Y243161D01*
X663446Y243253D01*
X663367Y243307D01*
X663295Y243369D01*
X663182Y243435D01*
X663075Y243509D01*
X662959Y243566D01*
X662906Y243597D01*
X662864Y243612D01*
X662795Y243646D01*
X660673Y244525D01*
X657529Y247669D01*
X655827Y251777D01*
X655827Y256223D01*
X657529Y260331D01*
X660673Y263475D01*
X664781Y265177D01*
X681419Y265177D01*
X685527Y263475D01*
X688671Y260331D01*
X690373Y256223D01*
X690373Y251777D01*
X688671Y247669D01*
X685527Y244525D01*
X683405Y243646D01*
X683290Y243586D01*
X683171Y243534D01*
X683091Y243482D01*
X683006Y243437D01*
X682904Y243358D01*
X682795Y243286D01*
X682726Y243220D01*
X682650Y243162D01*
X682563Y243065D01*
X682469Y242976D01*
X682413Y242898D01*
X682349Y242828D01*
X682280Y242717D01*
X682203Y242612D01*
X682161Y242526D01*
X682111Y242445D01*
X682063Y242324D01*
X682006Y242208D01*
X681979Y242116D01*
X681944Y242027D01*
X681918Y241900D01*
X681883Y241774D01*
X681873Y241679D01*
X681854Y241586D01*
X681851Y241456D01*
X681838Y241326D01*
X681845Y241231D01*
X681843Y241136D01*
X681863Y241007D01*
X681873Y240877D01*
X681897Y240785D01*
X681912Y240691D01*
X681954Y240567D01*
X681987Y240442D01*
X682027Y240355D01*
X682058Y240265D01*
X682122Y240151D01*
X682176Y240033D01*
X682231Y239955D01*
X682278Y239872D01*
X682360Y239771D01*
X682435Y239664D01*
X682502Y239597D01*
X682563Y239523D01*
X682662Y239439D01*
X682754Y239347D01*
X682833Y239293D01*
X682905Y239231D01*
X683018Y239165D01*
X683125Y239091D01*
X683241Y239034D01*
X683294Y239003D01*
X683336Y238988D01*
X683405Y238954D01*
X685527Y238075D01*
X688671Y234931D01*
X690373Y230823D01*
X690373Y226377D01*
X688671Y222269D01*
X685527Y219125D01*
X681419Y217423D01*
X664781Y217423D01*
G37*
%LPD*%
%LPC*%
G36*
X734377Y39623D02*
X734377Y39623D01*
X730269Y41325D01*
X727125Y44469D01*
X725423Y48577D01*
X725423Y53023D01*
X727125Y57131D01*
X730269Y60275D01*
X734377Y61977D01*
X751015Y61977D01*
X755123Y60275D01*
X758267Y57131D01*
X759969Y53023D01*
X759969Y48577D01*
X758267Y44469D01*
X755123Y41325D01*
X751015Y39623D01*
X734377Y39623D01*
G37*
%LPD*%
%LPC*%
G36*
X543598Y406519D02*
X543598Y406519D01*
X538974Y408435D01*
X535435Y411974D01*
X533519Y416598D01*
X533519Y421602D01*
X535435Y426226D01*
X538974Y429765D01*
X543598Y431681D01*
X548602Y431681D01*
X553226Y429765D01*
X556765Y426226D01*
X558681Y421602D01*
X558681Y416598D01*
X556765Y411974D01*
X553226Y408435D01*
X548602Y406519D01*
X543598Y406519D01*
G37*
%LPD*%
%LPC*%
G36*
X543598Y12819D02*
X543598Y12819D01*
X538974Y14735D01*
X535435Y18274D01*
X533519Y22898D01*
X533519Y27902D01*
X535435Y32526D01*
X538974Y36065D01*
X543598Y37981D01*
X548602Y37981D01*
X553226Y36065D01*
X556765Y32526D01*
X558681Y27902D01*
X558681Y22898D01*
X556765Y18274D01*
X553226Y14735D01*
X548602Y12819D01*
X543598Y12819D01*
G37*
%LPD*%
%LPC*%
G36*
X594398Y12819D02*
X594398Y12819D01*
X589774Y14735D01*
X586235Y18274D01*
X584319Y22898D01*
X584319Y27902D01*
X586235Y32526D01*
X589774Y36065D01*
X594398Y37981D01*
X599402Y37981D01*
X604026Y36065D01*
X607565Y32526D01*
X609481Y27902D01*
X609481Y22898D01*
X607565Y18274D01*
X604026Y14735D01*
X599402Y12819D01*
X594398Y12819D01*
G37*
%LPD*%
%LPC*%
G36*
X496608Y152519D02*
X496608Y152519D01*
X491984Y154435D01*
X488445Y157974D01*
X486529Y162598D01*
X486529Y167602D01*
X488445Y172226D01*
X491984Y175765D01*
X496608Y177681D01*
X501612Y177681D01*
X506236Y175765D01*
X509775Y172226D01*
X511691Y167602D01*
X511691Y162598D01*
X509775Y157974D01*
X506236Y154435D01*
X501612Y152519D01*
X496608Y152519D01*
G37*
%LPD*%
%LPC*%
G36*
X797305Y328675D02*
X797305Y328675D01*
X797305Y335361D01*
X797478Y336007D01*
X797813Y336586D01*
X798286Y337059D01*
X798865Y337394D01*
X799511Y337567D01*
X820167Y337567D01*
X820167Y328675D01*
X797305Y328675D01*
G37*
%LPD*%
%LPC*%
G36*
X797305Y240283D02*
X797305Y240283D01*
X797305Y246969D01*
X797478Y247615D01*
X797813Y248194D01*
X798286Y248667D01*
X798865Y249002D01*
X799511Y249175D01*
X820167Y249175D01*
X820167Y240283D01*
X797305Y240283D01*
G37*
%LPD*%
%LPC*%
G36*
X799511Y309625D02*
X799511Y309625D01*
X798865Y309798D01*
X798286Y310133D01*
X797813Y310606D01*
X797478Y311185D01*
X797305Y311831D01*
X797305Y318517D01*
X820167Y318517D01*
X820167Y309625D01*
X799511Y309625D01*
G37*
%LPD*%
%LPC*%
G36*
X799511Y221233D02*
X799511Y221233D01*
X798865Y221406D01*
X798286Y221741D01*
X797813Y222214D01*
X797478Y222793D01*
X797305Y223439D01*
X797305Y230125D01*
X820167Y230125D01*
X820167Y221233D01*
X799511Y221233D01*
G37*
%LPD*%
%LPC*%
G36*
X739139Y27939D02*
X739139Y27939D01*
X739139Y34037D01*
X749472Y34037D01*
X750815Y33824D01*
X752107Y33404D01*
X753319Y32787D01*
X754418Y31988D01*
X755380Y31026D01*
X756179Y29927D01*
X756796Y28715D01*
X757048Y27939D01*
X739139Y27939D01*
G37*
%LPD*%
%LPC*%
G36*
X739139Y16763D02*
X739139Y16763D01*
X739139Y22861D01*
X757048Y22861D01*
X756796Y22085D01*
X756179Y20873D01*
X755380Y19774D01*
X754418Y18812D01*
X753319Y18013D01*
X752107Y17396D01*
X750815Y16976D01*
X749472Y16763D01*
X739139Y16763D01*
G37*
%LPD*%
%LPC*%
G36*
X675639Y205739D02*
X675639Y205739D01*
X675639Y211837D01*
X679876Y211837D01*
X681219Y211624D01*
X682511Y211204D01*
X683723Y210587D01*
X684822Y209788D01*
X685784Y208826D01*
X686583Y207727D01*
X687200Y206515D01*
X687452Y205739D01*
X675639Y205739D01*
G37*
%LPD*%
%LPC*%
G36*
X658748Y205739D02*
X658748Y205739D01*
X659000Y206515D01*
X659617Y207727D01*
X660416Y208826D01*
X661378Y209788D01*
X662477Y210587D01*
X663689Y211204D01*
X664981Y211624D01*
X666324Y211837D01*
X670561Y211837D01*
X670561Y205739D01*
X658748Y205739D01*
G37*
%LPD*%
%LPC*%
G36*
X675639Y194563D02*
X675639Y194563D01*
X675639Y200661D01*
X687452Y200661D01*
X687200Y199885D01*
X686583Y198673D01*
X685784Y197574D01*
X684822Y196612D01*
X683723Y195813D01*
X682511Y195196D01*
X681219Y194776D01*
X679876Y194563D01*
X675639Y194563D01*
G37*
%LPD*%
%LPC*%
G36*
X666324Y194563D02*
X666324Y194563D01*
X664981Y194776D01*
X663689Y195196D01*
X662477Y195813D01*
X661378Y196612D01*
X660416Y197574D01*
X659617Y198673D01*
X659000Y199885D01*
X658748Y200661D01*
X670561Y200661D01*
X670561Y194563D01*
X666324Y194563D01*
G37*
%LPD*%
%LPC*%
G36*
X728344Y27939D02*
X728344Y27939D01*
X728596Y28715D01*
X729213Y29927D01*
X730012Y31026D01*
X730974Y31988D01*
X732073Y32787D01*
X733285Y33404D01*
X734061Y33656D01*
X734061Y27939D01*
X728344Y27939D01*
G37*
%LPD*%
%LPC*%
G36*
X733285Y17396D02*
X733285Y17396D01*
X732073Y18013D01*
X730974Y18812D01*
X730012Y19774D01*
X729213Y20873D01*
X728596Y22085D01*
X728344Y22861D01*
X734061Y22861D01*
X734061Y17144D01*
X733285Y17396D01*
G37*
%LPD*%
D10*
X679196Y254000D02*
X667004Y254000D01*
X667004Y203200D02*
X679196Y203200D01*
X679196Y228600D02*
X667004Y228600D01*
X660400Y50800D02*
X648208Y50800D01*
X648208Y25400D02*
X660400Y25400D01*
X736600Y25400D02*
X748792Y25400D01*
X748792Y50800D02*
X736600Y50800D01*
D11*
X825246Y323596D03*
X825246Y235204D03*
D12*
X825500Y139700D03*
X787400Y139700D03*
X749300Y139700D03*
X711200Y139700D03*
X596900Y279400D03*
X657860Y111760D03*
X749300Y381000D03*
X749300Y321310D03*
X769620Y25400D03*
X769620Y234950D03*
X722630Y204470D03*
X584200Y419100D03*
X501650Y110490D03*
X655320Y182880D03*
X546100Y419100D03*
X596900Y25400D03*
X546100Y25400D03*
X499110Y165100D03*
M02*
