G04 EAGLE Gerber RS-274X export*
G75*
%MOMM*%
%FSLAX34Y34*%
%LPD*%
%INTop Copper*%
%IPPOS*%
%AMOC8*
5,1,8,0,0,1.08239X$1,22.5*%
G01*
%ADD10C,0.130000*%
%ADD11C,0.152400*%
%ADD12C,1.219200*%
%ADD13R,1.000000X1.400000*%
%ADD14R,1.200000X1.800000*%
%ADD15R,1.800000X1.200000*%
%ADD16R,1.500000X1.300000*%
%ADD17R,1.800000X1.400000*%
%ADD18R,4.000000X2.500000*%
%ADD19R,1.300000X1.500000*%
%ADD20R,0.787400X0.889000*%
%ADD21C,2.540000*%
%ADD22R,5.080000X2.286000*%
%ADD23C,1.500000*%
%ADD24C,0.812800*%


D10*
X0Y0D02*
X-235400Y0D01*
X-235400Y622300D02*
X0Y622300D01*
X-215900Y621650D02*
X-215900Y650D01*
X-219092Y26000D01*
X-212708Y26000D01*
X-215900Y650D01*
X-217200Y26000D01*
X-214600Y26000D02*
X-215900Y650D01*
X-218500Y26000D01*
X-213300Y26000D02*
X-215900Y650D01*
X-219092Y596300D02*
X-215900Y621650D01*
X-219092Y596300D02*
X-212708Y596300D01*
X-215900Y621650D01*
X-217200Y596300D01*
X-214600Y596300D02*
X-215900Y621650D01*
X-218500Y596300D01*
X-213300Y596300D02*
X-215900Y621650D01*
D11*
X-231438Y285510D02*
X-231438Y280091D01*
X-231438Y285510D02*
X-231436Y285628D01*
X-231430Y285746D01*
X-231421Y285864D01*
X-231407Y285981D01*
X-231390Y286098D01*
X-231369Y286215D01*
X-231344Y286330D01*
X-231315Y286445D01*
X-231282Y286559D01*
X-231246Y286671D01*
X-231206Y286782D01*
X-231163Y286892D01*
X-231116Y287001D01*
X-231066Y287108D01*
X-231011Y287213D01*
X-230954Y287316D01*
X-230893Y287417D01*
X-230829Y287517D01*
X-230762Y287614D01*
X-230692Y287709D01*
X-230618Y287801D01*
X-230542Y287892D01*
X-230462Y287979D01*
X-230380Y288064D01*
X-230295Y288146D01*
X-230208Y288226D01*
X-230117Y288302D01*
X-230025Y288376D01*
X-229930Y288446D01*
X-229833Y288513D01*
X-229733Y288577D01*
X-229632Y288638D01*
X-229529Y288695D01*
X-229424Y288750D01*
X-229317Y288800D01*
X-229208Y288847D01*
X-229098Y288890D01*
X-228987Y288930D01*
X-228875Y288966D01*
X-228761Y288999D01*
X-228646Y289028D01*
X-228531Y289053D01*
X-228414Y289074D01*
X-228297Y289091D01*
X-228180Y289105D01*
X-228062Y289114D01*
X-227944Y289120D01*
X-227826Y289122D01*
X-226923Y289122D01*
X-226923Y289123D02*
X-226790Y289121D01*
X-226658Y289115D01*
X-226526Y289105D01*
X-226394Y289092D01*
X-226262Y289074D01*
X-226132Y289053D01*
X-226001Y289028D01*
X-225872Y288999D01*
X-225744Y288966D01*
X-225616Y288930D01*
X-225490Y288890D01*
X-225365Y288846D01*
X-225241Y288798D01*
X-225119Y288747D01*
X-224998Y288692D01*
X-224879Y288634D01*
X-224761Y288572D01*
X-224646Y288507D01*
X-224532Y288438D01*
X-224421Y288367D01*
X-224312Y288291D01*
X-224205Y288213D01*
X-224100Y288132D01*
X-223998Y288047D01*
X-223898Y287960D01*
X-223801Y287870D01*
X-223706Y287777D01*
X-223615Y287681D01*
X-223526Y287583D01*
X-223440Y287482D01*
X-223357Y287378D01*
X-223277Y287272D01*
X-223201Y287164D01*
X-223127Y287054D01*
X-223057Y286941D01*
X-222990Y286827D01*
X-222927Y286710D01*
X-222867Y286592D01*
X-222810Y286472D01*
X-222757Y286350D01*
X-222708Y286227D01*
X-222662Y286103D01*
X-222620Y285977D01*
X-222582Y285850D01*
X-222547Y285722D01*
X-222516Y285593D01*
X-222489Y285464D01*
X-222466Y285333D01*
X-222446Y285202D01*
X-222431Y285070D01*
X-222419Y284938D01*
X-222411Y284806D01*
X-222407Y284673D01*
X-222407Y284541D01*
X-222411Y284408D01*
X-222419Y284276D01*
X-222431Y284144D01*
X-222446Y284012D01*
X-222466Y283881D01*
X-222489Y283750D01*
X-222516Y283621D01*
X-222547Y283492D01*
X-222582Y283364D01*
X-222620Y283237D01*
X-222662Y283111D01*
X-222708Y282987D01*
X-222757Y282864D01*
X-222810Y282742D01*
X-222867Y282622D01*
X-222927Y282504D01*
X-222990Y282387D01*
X-223057Y282273D01*
X-223127Y282160D01*
X-223201Y282050D01*
X-223277Y281942D01*
X-223357Y281836D01*
X-223440Y281732D01*
X-223526Y281631D01*
X-223615Y281533D01*
X-223706Y281437D01*
X-223801Y281344D01*
X-223898Y281254D01*
X-223998Y281167D01*
X-224100Y281082D01*
X-224205Y281001D01*
X-224312Y280923D01*
X-224421Y280847D01*
X-224532Y280776D01*
X-224646Y280707D01*
X-224761Y280642D01*
X-224879Y280580D01*
X-224998Y280522D01*
X-225119Y280467D01*
X-225241Y280416D01*
X-225365Y280368D01*
X-225490Y280324D01*
X-225616Y280284D01*
X-225744Y280248D01*
X-225872Y280215D01*
X-226001Y280186D01*
X-226132Y280161D01*
X-226262Y280140D01*
X-226394Y280122D01*
X-226526Y280109D01*
X-226658Y280099D01*
X-226790Y280093D01*
X-226923Y280091D01*
X-231438Y280091D01*
X-231613Y280093D01*
X-231787Y280099D01*
X-231961Y280110D01*
X-232135Y280125D01*
X-232309Y280144D01*
X-232482Y280167D01*
X-232654Y280194D01*
X-232826Y280226D01*
X-232997Y280261D01*
X-233167Y280301D01*
X-233336Y280345D01*
X-233504Y280393D01*
X-233671Y280445D01*
X-233836Y280501D01*
X-234000Y280561D01*
X-234163Y280624D01*
X-234323Y280692D01*
X-234483Y280764D01*
X-234640Y280839D01*
X-234796Y280919D01*
X-234949Y281002D01*
X-235101Y281088D01*
X-235250Y281179D01*
X-235397Y281273D01*
X-235542Y281370D01*
X-235685Y281471D01*
X-235825Y281575D01*
X-235962Y281683D01*
X-236097Y281794D01*
X-236229Y281908D01*
X-236358Y282025D01*
X-236485Y282146D01*
X-236608Y282269D01*
X-236729Y282396D01*
X-236846Y282525D01*
X-236960Y282657D01*
X-237071Y282792D01*
X-237179Y282929D01*
X-237283Y283069D01*
X-237384Y283212D01*
X-237481Y283357D01*
X-237575Y283504D01*
X-237666Y283653D01*
X-237752Y283805D01*
X-237835Y283958D01*
X-237915Y284114D01*
X-237990Y284271D01*
X-238062Y284431D01*
X-238130Y284591D01*
X-238193Y284754D01*
X-238253Y284918D01*
X-238309Y285083D01*
X-238361Y285250D01*
X-238409Y285418D01*
X-238453Y285587D01*
X-238493Y285757D01*
X-238528Y285928D01*
X-238560Y286100D01*
X-238587Y286272D01*
X-238610Y286445D01*
X-238629Y286619D01*
X-238644Y286793D01*
X-238655Y286967D01*
X-238661Y287141D01*
X-238663Y287316D01*
X-238663Y300690D02*
X-238661Y300815D01*
X-238655Y300940D01*
X-238646Y301065D01*
X-238632Y301189D01*
X-238615Y301313D01*
X-238594Y301437D01*
X-238569Y301559D01*
X-238540Y301681D01*
X-238508Y301802D01*
X-238472Y301922D01*
X-238432Y302041D01*
X-238389Y302158D01*
X-238342Y302274D01*
X-238291Y302389D01*
X-238237Y302501D01*
X-238179Y302613D01*
X-238119Y302722D01*
X-238054Y302829D01*
X-237987Y302935D01*
X-237916Y303038D01*
X-237842Y303139D01*
X-237765Y303238D01*
X-237685Y303334D01*
X-237602Y303428D01*
X-237517Y303519D01*
X-237428Y303608D01*
X-237337Y303693D01*
X-237243Y303776D01*
X-237147Y303856D01*
X-237048Y303933D01*
X-236947Y304007D01*
X-236844Y304078D01*
X-236738Y304145D01*
X-236631Y304210D01*
X-236522Y304270D01*
X-236410Y304328D01*
X-236298Y304382D01*
X-236183Y304433D01*
X-236067Y304480D01*
X-235950Y304523D01*
X-235831Y304563D01*
X-235711Y304599D01*
X-235590Y304631D01*
X-235468Y304660D01*
X-235346Y304685D01*
X-235222Y304706D01*
X-235098Y304723D01*
X-234974Y304737D01*
X-234849Y304746D01*
X-234724Y304752D01*
X-234599Y304754D01*
X-238663Y300690D02*
X-238661Y300547D01*
X-238655Y300405D01*
X-238645Y300262D01*
X-238632Y300120D01*
X-238614Y299979D01*
X-238593Y299837D01*
X-238568Y299697D01*
X-238539Y299557D01*
X-238506Y299418D01*
X-238469Y299280D01*
X-238429Y299143D01*
X-238385Y299008D01*
X-238337Y298873D01*
X-238285Y298740D01*
X-238230Y298608D01*
X-238171Y298478D01*
X-238109Y298350D01*
X-238043Y298223D01*
X-237974Y298098D01*
X-237902Y297975D01*
X-237826Y297855D01*
X-237747Y297736D01*
X-237664Y297619D01*
X-237579Y297505D01*
X-237490Y297393D01*
X-237399Y297284D01*
X-237304Y297177D01*
X-237207Y297072D01*
X-237106Y296971D01*
X-237003Y296872D01*
X-236898Y296776D01*
X-236789Y296683D01*
X-236678Y296593D01*
X-236565Y296506D01*
X-236450Y296422D01*
X-236332Y296342D01*
X-236212Y296264D01*
X-236090Y296190D01*
X-235966Y296120D01*
X-235840Y296052D01*
X-235712Y295989D01*
X-235583Y295928D01*
X-235452Y295871D01*
X-235320Y295818D01*
X-235186Y295769D01*
X-235051Y295723D01*
X-231438Y303398D02*
X-231530Y303492D01*
X-231624Y303582D01*
X-231721Y303670D01*
X-231821Y303755D01*
X-231923Y303837D01*
X-232028Y303916D01*
X-232135Y303991D01*
X-232244Y304063D01*
X-232355Y304132D01*
X-232469Y304198D01*
X-232584Y304260D01*
X-232701Y304319D01*
X-232820Y304374D01*
X-232940Y304425D01*
X-233062Y304473D01*
X-233185Y304518D01*
X-233309Y304558D01*
X-233435Y304595D01*
X-233562Y304628D01*
X-233689Y304657D01*
X-233818Y304683D01*
X-233947Y304704D01*
X-234077Y304722D01*
X-234207Y304735D01*
X-234337Y304745D01*
X-234468Y304751D01*
X-234599Y304753D01*
X-231438Y303399D02*
X-222407Y295723D01*
X-222407Y304754D01*
X-222407Y310728D02*
X-223310Y310728D01*
X-223310Y311631D01*
X-222407Y311631D01*
X-222407Y310728D01*
X-234599Y326637D02*
X-234724Y326635D01*
X-234849Y326629D01*
X-234974Y326620D01*
X-235098Y326606D01*
X-235222Y326589D01*
X-235346Y326568D01*
X-235468Y326543D01*
X-235590Y326514D01*
X-235711Y326482D01*
X-235831Y326446D01*
X-235950Y326406D01*
X-236067Y326363D01*
X-236183Y326316D01*
X-236298Y326265D01*
X-236410Y326211D01*
X-236522Y326153D01*
X-236631Y326093D01*
X-236738Y326028D01*
X-236844Y325961D01*
X-236947Y325890D01*
X-237048Y325816D01*
X-237147Y325739D01*
X-237243Y325659D01*
X-237337Y325576D01*
X-237428Y325491D01*
X-237517Y325402D01*
X-237602Y325311D01*
X-237685Y325217D01*
X-237765Y325121D01*
X-237842Y325022D01*
X-237916Y324921D01*
X-237987Y324818D01*
X-238054Y324712D01*
X-238119Y324605D01*
X-238179Y324496D01*
X-238237Y324384D01*
X-238291Y324272D01*
X-238342Y324157D01*
X-238389Y324041D01*
X-238432Y323924D01*
X-238472Y323805D01*
X-238508Y323685D01*
X-238540Y323564D01*
X-238569Y323442D01*
X-238594Y323320D01*
X-238615Y323196D01*
X-238632Y323072D01*
X-238646Y322948D01*
X-238655Y322823D01*
X-238661Y322698D01*
X-238663Y322573D01*
X-238661Y322430D01*
X-238655Y322288D01*
X-238645Y322145D01*
X-238632Y322003D01*
X-238614Y321862D01*
X-238593Y321720D01*
X-238568Y321580D01*
X-238539Y321440D01*
X-238506Y321301D01*
X-238469Y321163D01*
X-238429Y321026D01*
X-238385Y320891D01*
X-238337Y320756D01*
X-238285Y320623D01*
X-238230Y320491D01*
X-238171Y320361D01*
X-238109Y320233D01*
X-238043Y320106D01*
X-237974Y319981D01*
X-237902Y319858D01*
X-237826Y319738D01*
X-237747Y319619D01*
X-237664Y319502D01*
X-237579Y319388D01*
X-237490Y319276D01*
X-237399Y319167D01*
X-237304Y319060D01*
X-237207Y318955D01*
X-237106Y318854D01*
X-237003Y318755D01*
X-236898Y318659D01*
X-236789Y318566D01*
X-236678Y318476D01*
X-236565Y318389D01*
X-236450Y318305D01*
X-236332Y318225D01*
X-236212Y318147D01*
X-236090Y318073D01*
X-235966Y318003D01*
X-235840Y317935D01*
X-235712Y317872D01*
X-235583Y317811D01*
X-235452Y317754D01*
X-235320Y317701D01*
X-235186Y317652D01*
X-235051Y317606D01*
X-231438Y325282D02*
X-231530Y325376D01*
X-231624Y325466D01*
X-231721Y325554D01*
X-231821Y325639D01*
X-231923Y325721D01*
X-232028Y325800D01*
X-232135Y325875D01*
X-232244Y325947D01*
X-232355Y326016D01*
X-232469Y326082D01*
X-232584Y326144D01*
X-232701Y326203D01*
X-232820Y326258D01*
X-232940Y326309D01*
X-233062Y326357D01*
X-233185Y326402D01*
X-233309Y326442D01*
X-233435Y326479D01*
X-233562Y326512D01*
X-233689Y326541D01*
X-233818Y326567D01*
X-233947Y326588D01*
X-234077Y326606D01*
X-234207Y326619D01*
X-234337Y326629D01*
X-234468Y326635D01*
X-234599Y326637D01*
X-231438Y325283D02*
X-222407Y317606D01*
X-222407Y326637D01*
X-222407Y333237D02*
X-222407Y337753D01*
X-222409Y337886D01*
X-222415Y338018D01*
X-222425Y338150D01*
X-222438Y338282D01*
X-222456Y338414D01*
X-222477Y338544D01*
X-222502Y338675D01*
X-222531Y338804D01*
X-222564Y338932D01*
X-222600Y339060D01*
X-222640Y339186D01*
X-222684Y339311D01*
X-222732Y339435D01*
X-222783Y339557D01*
X-222838Y339678D01*
X-222896Y339797D01*
X-222958Y339915D01*
X-223023Y340030D01*
X-223092Y340144D01*
X-223163Y340255D01*
X-223239Y340364D01*
X-223317Y340471D01*
X-223398Y340576D01*
X-223483Y340678D01*
X-223570Y340778D01*
X-223660Y340875D01*
X-223753Y340970D01*
X-223849Y341061D01*
X-223947Y341150D01*
X-224048Y341236D01*
X-224152Y341319D01*
X-224258Y341399D01*
X-224366Y341475D01*
X-224476Y341549D01*
X-224589Y341619D01*
X-224703Y341686D01*
X-224820Y341749D01*
X-224938Y341809D01*
X-225058Y341866D01*
X-225180Y341919D01*
X-225303Y341968D01*
X-225427Y342014D01*
X-225553Y342056D01*
X-225680Y342094D01*
X-225808Y342129D01*
X-225937Y342160D01*
X-226066Y342187D01*
X-226197Y342210D01*
X-226328Y342230D01*
X-226460Y342245D01*
X-226592Y342257D01*
X-226724Y342265D01*
X-226857Y342269D01*
X-226989Y342269D01*
X-227122Y342265D01*
X-227254Y342257D01*
X-227386Y342245D01*
X-227518Y342230D01*
X-227649Y342210D01*
X-227780Y342187D01*
X-227909Y342160D01*
X-228038Y342129D01*
X-228166Y342094D01*
X-228293Y342056D01*
X-228419Y342014D01*
X-228543Y341968D01*
X-228666Y341919D01*
X-228788Y341866D01*
X-228908Y341809D01*
X-229026Y341749D01*
X-229143Y341686D01*
X-229257Y341619D01*
X-229370Y341549D01*
X-229480Y341475D01*
X-229588Y341399D01*
X-229694Y341319D01*
X-229798Y341236D01*
X-229899Y341150D01*
X-229997Y341061D01*
X-230093Y340970D01*
X-230186Y340875D01*
X-230276Y340778D01*
X-230363Y340678D01*
X-230448Y340576D01*
X-230529Y340471D01*
X-230607Y340364D01*
X-230683Y340255D01*
X-230754Y340144D01*
X-230823Y340030D01*
X-230888Y339915D01*
X-230950Y339797D01*
X-231008Y339678D01*
X-231063Y339557D01*
X-231114Y339435D01*
X-231162Y339311D01*
X-231206Y339186D01*
X-231246Y339060D01*
X-231282Y338932D01*
X-231315Y338804D01*
X-231344Y338675D01*
X-231369Y338544D01*
X-231390Y338414D01*
X-231408Y338282D01*
X-231421Y338150D01*
X-231431Y338018D01*
X-231437Y337886D01*
X-231439Y337753D01*
X-238663Y338656D02*
X-238663Y333237D01*
X-238663Y338656D02*
X-238661Y338775D01*
X-238655Y338895D01*
X-238645Y339014D01*
X-238631Y339132D01*
X-238614Y339251D01*
X-238592Y339368D01*
X-238567Y339485D01*
X-238537Y339600D01*
X-238504Y339715D01*
X-238467Y339829D01*
X-238427Y339941D01*
X-238382Y340052D01*
X-238334Y340161D01*
X-238283Y340269D01*
X-238228Y340375D01*
X-238169Y340479D01*
X-238107Y340581D01*
X-238042Y340681D01*
X-237973Y340779D01*
X-237901Y340875D01*
X-237826Y340968D01*
X-237749Y341058D01*
X-237668Y341146D01*
X-237584Y341231D01*
X-237497Y341313D01*
X-237408Y341393D01*
X-237316Y341469D01*
X-237222Y341543D01*
X-237125Y341613D01*
X-237027Y341680D01*
X-236926Y341744D01*
X-236822Y341804D01*
X-236717Y341861D01*
X-236610Y341914D01*
X-236502Y341964D01*
X-236392Y342010D01*
X-236280Y342052D01*
X-236167Y342091D01*
X-236053Y342126D01*
X-235938Y342157D01*
X-235821Y342185D01*
X-235704Y342208D01*
X-235587Y342228D01*
X-235468Y342244D01*
X-235349Y342256D01*
X-235230Y342264D01*
X-235111Y342268D01*
X-234991Y342268D01*
X-234872Y342264D01*
X-234753Y342256D01*
X-234634Y342244D01*
X-234515Y342228D01*
X-234398Y342208D01*
X-234281Y342185D01*
X-234164Y342157D01*
X-234049Y342126D01*
X-233935Y342091D01*
X-233822Y342052D01*
X-233710Y342010D01*
X-233600Y341964D01*
X-233492Y341914D01*
X-233385Y341861D01*
X-233280Y341804D01*
X-233176Y341744D01*
X-233075Y341680D01*
X-232977Y341613D01*
X-232880Y341543D01*
X-232786Y341469D01*
X-232694Y341393D01*
X-232605Y341313D01*
X-232518Y341231D01*
X-232434Y341146D01*
X-232353Y341058D01*
X-232276Y340968D01*
X-232201Y340875D01*
X-232129Y340779D01*
X-232060Y340681D01*
X-231995Y340581D01*
X-231933Y340479D01*
X-231874Y340375D01*
X-231819Y340269D01*
X-231768Y340161D01*
X-231720Y340052D01*
X-231675Y339941D01*
X-231635Y339829D01*
X-231598Y339715D01*
X-231565Y339600D01*
X-231535Y339485D01*
X-231510Y339368D01*
X-231488Y339251D01*
X-231471Y339132D01*
X-231457Y339014D01*
X-231447Y338895D01*
X-231441Y338775D01*
X-231439Y338656D01*
X-231438Y338656D02*
X-231438Y335044D01*
D10*
X0Y0D02*
X0Y-95700D01*
X1143000Y-95700D02*
X1143000Y0D01*
X1142350Y-76200D02*
X650Y-76200D01*
X26000Y-73008D01*
X26000Y-79392D01*
X650Y-76200D01*
X26000Y-74900D01*
X26000Y-77500D02*
X650Y-76200D01*
X26000Y-73600D01*
X26000Y-78800D02*
X650Y-76200D01*
X1117000Y-73008D02*
X1142350Y-76200D01*
X1117000Y-73008D02*
X1117000Y-79392D01*
X1142350Y-76200D01*
X1117000Y-74900D01*
X1117000Y-77500D02*
X1142350Y-76200D01*
X1117000Y-73600D01*
X1117000Y-78800D02*
X1142350Y-76200D01*
D11*
X538798Y-53437D02*
X534282Y-57049D01*
X538798Y-53437D02*
X538798Y-69693D01*
X534282Y-69693D02*
X543314Y-69693D01*
X549914Y-57049D02*
X554429Y-53437D01*
X554429Y-69693D01*
X549914Y-69693D02*
X558945Y-69693D01*
X565545Y-66081D02*
X569157Y-53437D01*
X565545Y-66081D02*
X574576Y-66081D01*
X571867Y-62468D02*
X571867Y-69693D01*
X580551Y-69693D02*
X580551Y-68790D01*
X581454Y-68790D01*
X581454Y-69693D01*
X580551Y-69693D01*
X587429Y-69693D02*
X591944Y-69693D01*
X592077Y-69691D01*
X592209Y-69685D01*
X592341Y-69675D01*
X592473Y-69662D01*
X592605Y-69644D01*
X592735Y-69623D01*
X592866Y-69598D01*
X592995Y-69569D01*
X593123Y-69536D01*
X593251Y-69500D01*
X593377Y-69460D01*
X593502Y-69416D01*
X593626Y-69368D01*
X593748Y-69317D01*
X593869Y-69262D01*
X593988Y-69204D01*
X594106Y-69142D01*
X594221Y-69077D01*
X594335Y-69008D01*
X594446Y-68937D01*
X594555Y-68861D01*
X594662Y-68783D01*
X594767Y-68702D01*
X594869Y-68617D01*
X594969Y-68530D01*
X595066Y-68440D01*
X595161Y-68347D01*
X595252Y-68251D01*
X595341Y-68153D01*
X595427Y-68052D01*
X595510Y-67948D01*
X595590Y-67842D01*
X595666Y-67734D01*
X595740Y-67624D01*
X595810Y-67511D01*
X595877Y-67397D01*
X595940Y-67280D01*
X596000Y-67162D01*
X596057Y-67042D01*
X596110Y-66920D01*
X596159Y-66797D01*
X596205Y-66673D01*
X596247Y-66547D01*
X596285Y-66420D01*
X596320Y-66292D01*
X596351Y-66163D01*
X596378Y-66034D01*
X596401Y-65903D01*
X596421Y-65772D01*
X596436Y-65640D01*
X596448Y-65508D01*
X596456Y-65376D01*
X596460Y-65243D01*
X596460Y-65111D01*
X596456Y-64978D01*
X596448Y-64846D01*
X596436Y-64714D01*
X596421Y-64582D01*
X596401Y-64451D01*
X596378Y-64320D01*
X596351Y-64191D01*
X596320Y-64062D01*
X596285Y-63934D01*
X596247Y-63807D01*
X596205Y-63681D01*
X596159Y-63557D01*
X596110Y-63434D01*
X596057Y-63312D01*
X596000Y-63192D01*
X595940Y-63074D01*
X595877Y-62957D01*
X595810Y-62843D01*
X595740Y-62730D01*
X595666Y-62620D01*
X595590Y-62512D01*
X595510Y-62406D01*
X595427Y-62302D01*
X595341Y-62201D01*
X595252Y-62103D01*
X595161Y-62007D01*
X595066Y-61914D01*
X594969Y-61824D01*
X594869Y-61737D01*
X594767Y-61652D01*
X594662Y-61571D01*
X594555Y-61493D01*
X594446Y-61417D01*
X594335Y-61346D01*
X594221Y-61277D01*
X594106Y-61212D01*
X593988Y-61150D01*
X593869Y-61092D01*
X593748Y-61037D01*
X593626Y-60986D01*
X593502Y-60938D01*
X593377Y-60894D01*
X593251Y-60854D01*
X593123Y-60818D01*
X592995Y-60785D01*
X592866Y-60756D01*
X592735Y-60731D01*
X592605Y-60710D01*
X592473Y-60692D01*
X592341Y-60679D01*
X592209Y-60669D01*
X592077Y-60663D01*
X591944Y-60661D01*
X592847Y-53437D02*
X587429Y-53437D01*
X592847Y-53437D02*
X592966Y-53439D01*
X593086Y-53445D01*
X593205Y-53455D01*
X593323Y-53469D01*
X593442Y-53486D01*
X593559Y-53508D01*
X593676Y-53533D01*
X593791Y-53563D01*
X593906Y-53596D01*
X594020Y-53633D01*
X594132Y-53673D01*
X594243Y-53718D01*
X594352Y-53766D01*
X594460Y-53817D01*
X594566Y-53872D01*
X594670Y-53931D01*
X594772Y-53993D01*
X594872Y-54058D01*
X594970Y-54127D01*
X595066Y-54199D01*
X595159Y-54274D01*
X595249Y-54351D01*
X595337Y-54432D01*
X595422Y-54516D01*
X595504Y-54603D01*
X595584Y-54692D01*
X595660Y-54784D01*
X595734Y-54878D01*
X595804Y-54975D01*
X595871Y-55073D01*
X595935Y-55174D01*
X595995Y-55278D01*
X596052Y-55383D01*
X596105Y-55490D01*
X596155Y-55598D01*
X596201Y-55708D01*
X596243Y-55820D01*
X596282Y-55933D01*
X596317Y-56047D01*
X596348Y-56162D01*
X596376Y-56279D01*
X596399Y-56396D01*
X596419Y-56513D01*
X596435Y-56632D01*
X596447Y-56751D01*
X596455Y-56870D01*
X596459Y-56989D01*
X596459Y-57109D01*
X596455Y-57228D01*
X596447Y-57347D01*
X596435Y-57466D01*
X596419Y-57585D01*
X596399Y-57702D01*
X596376Y-57819D01*
X596348Y-57936D01*
X596317Y-58051D01*
X596282Y-58165D01*
X596243Y-58278D01*
X596201Y-58390D01*
X596155Y-58500D01*
X596105Y-58608D01*
X596052Y-58715D01*
X595995Y-58820D01*
X595935Y-58924D01*
X595871Y-59025D01*
X595804Y-59123D01*
X595734Y-59220D01*
X595660Y-59314D01*
X595584Y-59406D01*
X595504Y-59495D01*
X595422Y-59582D01*
X595337Y-59666D01*
X595249Y-59747D01*
X595159Y-59824D01*
X595066Y-59899D01*
X594970Y-59971D01*
X594872Y-60040D01*
X594772Y-60105D01*
X594670Y-60167D01*
X594566Y-60226D01*
X594460Y-60281D01*
X594352Y-60332D01*
X594243Y-60380D01*
X594132Y-60425D01*
X594020Y-60465D01*
X593906Y-60502D01*
X593791Y-60535D01*
X593676Y-60565D01*
X593559Y-60590D01*
X593442Y-60612D01*
X593323Y-60629D01*
X593205Y-60643D01*
X593086Y-60653D01*
X592966Y-60659D01*
X592847Y-60661D01*
X592847Y-60662D02*
X589235Y-60662D01*
X603060Y-61565D02*
X603064Y-61245D01*
X603075Y-60926D01*
X603094Y-60606D01*
X603121Y-60288D01*
X603155Y-59970D01*
X603197Y-59653D01*
X603247Y-59337D01*
X603304Y-59022D01*
X603368Y-58709D01*
X603440Y-58397D01*
X603519Y-58087D01*
X603606Y-57780D01*
X603700Y-57474D01*
X603801Y-57171D01*
X603910Y-56870D01*
X604025Y-56572D01*
X604148Y-56276D01*
X604278Y-55984D01*
X604415Y-55695D01*
X604415Y-55694D02*
X604454Y-55586D01*
X604497Y-55479D01*
X604543Y-55374D01*
X604593Y-55271D01*
X604647Y-55169D01*
X604704Y-55069D01*
X604765Y-54971D01*
X604829Y-54875D01*
X604896Y-54782D01*
X604966Y-54691D01*
X605040Y-54602D01*
X605116Y-54516D01*
X605196Y-54433D01*
X605278Y-54352D01*
X605363Y-54274D01*
X605450Y-54200D01*
X605541Y-54128D01*
X605633Y-54059D01*
X605728Y-53994D01*
X605825Y-53932D01*
X605924Y-53873D01*
X606025Y-53818D01*
X606128Y-53767D01*
X606233Y-53719D01*
X606339Y-53674D01*
X606446Y-53633D01*
X606555Y-53596D01*
X606666Y-53563D01*
X606777Y-53534D01*
X606889Y-53508D01*
X607002Y-53486D01*
X607116Y-53469D01*
X607230Y-53455D01*
X607345Y-53445D01*
X607460Y-53439D01*
X607575Y-53437D01*
X607690Y-53439D01*
X607805Y-53445D01*
X607920Y-53455D01*
X608034Y-53469D01*
X608148Y-53486D01*
X608261Y-53508D01*
X608373Y-53534D01*
X608485Y-53563D01*
X608595Y-53596D01*
X608704Y-53633D01*
X608812Y-53674D01*
X608918Y-53719D01*
X609023Y-53767D01*
X609125Y-53818D01*
X609227Y-53874D01*
X609326Y-53932D01*
X609423Y-53994D01*
X609518Y-54060D01*
X609610Y-54128D01*
X609700Y-54200D01*
X609788Y-54274D01*
X609873Y-54352D01*
X609955Y-54433D01*
X610034Y-54516D01*
X610111Y-54602D01*
X610184Y-54691D01*
X610255Y-54782D01*
X610322Y-54876D01*
X610386Y-54971D01*
X610447Y-55069D01*
X610504Y-55169D01*
X610557Y-55271D01*
X610608Y-55375D01*
X610654Y-55480D01*
X610697Y-55587D01*
X610736Y-55695D01*
X610873Y-55984D01*
X611003Y-56276D01*
X611126Y-56572D01*
X611241Y-56870D01*
X611350Y-57171D01*
X611451Y-57474D01*
X611545Y-57780D01*
X611632Y-58087D01*
X611711Y-58397D01*
X611783Y-58709D01*
X611847Y-59022D01*
X611904Y-59337D01*
X611954Y-59653D01*
X611996Y-59970D01*
X612030Y-60288D01*
X612057Y-60606D01*
X612076Y-60926D01*
X612087Y-61245D01*
X612091Y-61565D01*
X603060Y-61565D02*
X603064Y-61885D01*
X603075Y-62204D01*
X603094Y-62524D01*
X603121Y-62842D01*
X603155Y-63160D01*
X603197Y-63477D01*
X603247Y-63793D01*
X603304Y-64108D01*
X603368Y-64421D01*
X603440Y-64733D01*
X603519Y-65043D01*
X603606Y-65350D01*
X603700Y-65656D01*
X603801Y-65959D01*
X603910Y-66260D01*
X604025Y-66558D01*
X604148Y-66854D01*
X604278Y-67146D01*
X604415Y-67435D01*
X604414Y-67436D02*
X604453Y-67544D01*
X604496Y-67651D01*
X604542Y-67756D01*
X604593Y-67860D01*
X604646Y-67962D01*
X604703Y-68062D01*
X604764Y-68160D01*
X604828Y-68255D01*
X604895Y-68349D01*
X604966Y-68440D01*
X605039Y-68529D01*
X605116Y-68615D01*
X605195Y-68698D01*
X605277Y-68779D01*
X605362Y-68857D01*
X605450Y-68931D01*
X605540Y-69003D01*
X605633Y-69072D01*
X605727Y-69137D01*
X605824Y-69199D01*
X605924Y-69257D01*
X606025Y-69313D01*
X606127Y-69364D01*
X606232Y-69412D01*
X606338Y-69457D01*
X606446Y-69498D01*
X606555Y-69535D01*
X606665Y-69568D01*
X606777Y-69597D01*
X606889Y-69623D01*
X607002Y-69645D01*
X607116Y-69662D01*
X607230Y-69676D01*
X607345Y-69686D01*
X607460Y-69692D01*
X607575Y-69694D01*
X610735Y-67435D02*
X610872Y-67146D01*
X611002Y-66854D01*
X611125Y-66558D01*
X611240Y-66260D01*
X611349Y-65959D01*
X611450Y-65656D01*
X611544Y-65350D01*
X611631Y-65043D01*
X611710Y-64733D01*
X611782Y-64421D01*
X611846Y-64108D01*
X611903Y-63793D01*
X611953Y-63477D01*
X611995Y-63160D01*
X612029Y-62842D01*
X612056Y-62524D01*
X612075Y-62204D01*
X612086Y-61885D01*
X612090Y-61565D01*
X610736Y-67435D02*
X610697Y-67543D01*
X610654Y-67650D01*
X610608Y-67755D01*
X610557Y-67859D01*
X610504Y-67961D01*
X610447Y-68061D01*
X610386Y-68159D01*
X610322Y-68254D01*
X610255Y-68348D01*
X610184Y-68439D01*
X610111Y-68528D01*
X610034Y-68614D01*
X609955Y-68697D01*
X609873Y-68778D01*
X609788Y-68856D01*
X609700Y-68930D01*
X609610Y-69002D01*
X609517Y-69071D01*
X609423Y-69136D01*
X609326Y-69198D01*
X609226Y-69256D01*
X609125Y-69312D01*
X609022Y-69363D01*
X608918Y-69411D01*
X608812Y-69456D01*
X608704Y-69497D01*
X608595Y-69534D01*
X608485Y-69567D01*
X608373Y-69596D01*
X608261Y-69622D01*
X608148Y-69644D01*
X608034Y-69661D01*
X607920Y-69675D01*
X607805Y-69685D01*
X607690Y-69691D01*
X607575Y-69693D01*
X603963Y-66081D02*
X611188Y-57049D01*
D10*
X0Y622300D02*
X0Y883100D01*
X1143000Y883100D02*
X1143000Y622300D01*
X1142350Y863600D02*
X650Y863600D01*
X26000Y866792D01*
X26000Y860408D01*
X650Y863600D01*
X26000Y864900D01*
X26000Y862300D02*
X650Y863600D01*
X26000Y866200D01*
X26000Y861000D02*
X650Y863600D01*
X1117000Y866792D02*
X1142350Y863600D01*
X1117000Y866792D02*
X1117000Y860408D01*
X1142350Y863600D01*
X1117000Y864900D01*
X1117000Y862300D02*
X1142350Y863600D01*
X1117000Y866200D01*
X1117000Y861000D02*
X1142350Y863600D01*
D11*
X538798Y886363D02*
X534282Y882751D01*
X538798Y886363D02*
X538798Y870107D01*
X534282Y870107D02*
X543314Y870107D01*
X549914Y882751D02*
X554429Y886363D01*
X554429Y870107D01*
X549914Y870107D02*
X558945Y870107D01*
X565545Y873719D02*
X569157Y886363D01*
X565545Y873719D02*
X574576Y873719D01*
X571867Y877332D02*
X571867Y870107D01*
X580551Y870107D02*
X580551Y871010D01*
X581454Y871010D01*
X581454Y870107D01*
X580551Y870107D01*
X587429Y870107D02*
X591944Y870107D01*
X592077Y870109D01*
X592209Y870115D01*
X592341Y870125D01*
X592473Y870138D01*
X592605Y870156D01*
X592735Y870177D01*
X592866Y870202D01*
X592995Y870231D01*
X593123Y870264D01*
X593251Y870300D01*
X593377Y870340D01*
X593502Y870384D01*
X593626Y870432D01*
X593748Y870483D01*
X593869Y870538D01*
X593988Y870596D01*
X594106Y870658D01*
X594221Y870723D01*
X594335Y870792D01*
X594446Y870863D01*
X594555Y870939D01*
X594662Y871017D01*
X594767Y871098D01*
X594869Y871183D01*
X594969Y871270D01*
X595066Y871360D01*
X595161Y871453D01*
X595252Y871549D01*
X595341Y871647D01*
X595427Y871748D01*
X595510Y871852D01*
X595590Y871958D01*
X595666Y872066D01*
X595740Y872176D01*
X595810Y872289D01*
X595877Y872403D01*
X595940Y872520D01*
X596000Y872638D01*
X596057Y872758D01*
X596110Y872880D01*
X596159Y873003D01*
X596205Y873127D01*
X596247Y873253D01*
X596285Y873380D01*
X596320Y873508D01*
X596351Y873637D01*
X596378Y873766D01*
X596401Y873897D01*
X596421Y874028D01*
X596436Y874160D01*
X596448Y874292D01*
X596456Y874424D01*
X596460Y874557D01*
X596460Y874689D01*
X596456Y874822D01*
X596448Y874954D01*
X596436Y875086D01*
X596421Y875218D01*
X596401Y875349D01*
X596378Y875480D01*
X596351Y875609D01*
X596320Y875738D01*
X596285Y875866D01*
X596247Y875993D01*
X596205Y876119D01*
X596159Y876243D01*
X596110Y876366D01*
X596057Y876488D01*
X596000Y876608D01*
X595940Y876726D01*
X595877Y876843D01*
X595810Y876957D01*
X595740Y877070D01*
X595666Y877180D01*
X595590Y877288D01*
X595510Y877394D01*
X595427Y877498D01*
X595341Y877599D01*
X595252Y877697D01*
X595161Y877793D01*
X595066Y877886D01*
X594969Y877976D01*
X594869Y878063D01*
X594767Y878148D01*
X594662Y878229D01*
X594555Y878307D01*
X594446Y878383D01*
X594335Y878454D01*
X594221Y878523D01*
X594106Y878588D01*
X593988Y878650D01*
X593869Y878708D01*
X593748Y878763D01*
X593626Y878814D01*
X593502Y878862D01*
X593377Y878906D01*
X593251Y878946D01*
X593123Y878982D01*
X592995Y879015D01*
X592866Y879044D01*
X592735Y879069D01*
X592605Y879090D01*
X592473Y879108D01*
X592341Y879121D01*
X592209Y879131D01*
X592077Y879137D01*
X591944Y879139D01*
X592847Y886363D02*
X587429Y886363D01*
X592847Y886363D02*
X592966Y886361D01*
X593086Y886355D01*
X593205Y886345D01*
X593323Y886331D01*
X593442Y886314D01*
X593559Y886292D01*
X593676Y886267D01*
X593791Y886237D01*
X593906Y886204D01*
X594020Y886167D01*
X594132Y886127D01*
X594243Y886082D01*
X594352Y886034D01*
X594460Y885983D01*
X594566Y885928D01*
X594670Y885869D01*
X594772Y885807D01*
X594872Y885742D01*
X594970Y885673D01*
X595066Y885601D01*
X595159Y885526D01*
X595249Y885449D01*
X595337Y885368D01*
X595422Y885284D01*
X595504Y885197D01*
X595584Y885108D01*
X595660Y885016D01*
X595734Y884922D01*
X595804Y884825D01*
X595871Y884727D01*
X595935Y884626D01*
X595995Y884522D01*
X596052Y884417D01*
X596105Y884310D01*
X596155Y884202D01*
X596201Y884092D01*
X596243Y883980D01*
X596282Y883867D01*
X596317Y883753D01*
X596348Y883638D01*
X596376Y883521D01*
X596399Y883404D01*
X596419Y883287D01*
X596435Y883168D01*
X596447Y883049D01*
X596455Y882930D01*
X596459Y882811D01*
X596459Y882691D01*
X596455Y882572D01*
X596447Y882453D01*
X596435Y882334D01*
X596419Y882215D01*
X596399Y882098D01*
X596376Y881981D01*
X596348Y881864D01*
X596317Y881749D01*
X596282Y881635D01*
X596243Y881522D01*
X596201Y881410D01*
X596155Y881300D01*
X596105Y881192D01*
X596052Y881085D01*
X595995Y880980D01*
X595935Y880876D01*
X595871Y880775D01*
X595804Y880677D01*
X595734Y880580D01*
X595660Y880486D01*
X595584Y880394D01*
X595504Y880305D01*
X595422Y880218D01*
X595337Y880134D01*
X595249Y880053D01*
X595159Y879976D01*
X595066Y879901D01*
X594970Y879829D01*
X594872Y879760D01*
X594772Y879695D01*
X594670Y879633D01*
X594566Y879574D01*
X594460Y879519D01*
X594352Y879468D01*
X594243Y879420D01*
X594132Y879375D01*
X594020Y879335D01*
X593906Y879298D01*
X593791Y879265D01*
X593676Y879235D01*
X593559Y879210D01*
X593442Y879188D01*
X593323Y879171D01*
X593205Y879157D01*
X593086Y879147D01*
X592966Y879141D01*
X592847Y879139D01*
X592847Y879138D02*
X589235Y879138D01*
X603060Y878235D02*
X603064Y878555D01*
X603075Y878874D01*
X603094Y879194D01*
X603121Y879512D01*
X603155Y879830D01*
X603197Y880147D01*
X603247Y880463D01*
X603304Y880778D01*
X603368Y881091D01*
X603440Y881403D01*
X603519Y881713D01*
X603606Y882020D01*
X603700Y882326D01*
X603801Y882629D01*
X603910Y882930D01*
X604025Y883228D01*
X604148Y883524D01*
X604278Y883816D01*
X604415Y884105D01*
X604414Y884106D02*
X604453Y884214D01*
X604496Y884321D01*
X604542Y884426D01*
X604593Y884530D01*
X604646Y884632D01*
X604703Y884732D01*
X604764Y884830D01*
X604828Y884925D01*
X604895Y885019D01*
X604966Y885110D01*
X605039Y885199D01*
X605116Y885285D01*
X605195Y885368D01*
X605277Y885449D01*
X605362Y885527D01*
X605450Y885601D01*
X605540Y885673D01*
X605632Y885741D01*
X605727Y885807D01*
X605824Y885869D01*
X605923Y885927D01*
X606025Y885983D01*
X606127Y886034D01*
X606232Y886082D01*
X606338Y886127D01*
X606446Y886168D01*
X606555Y886205D01*
X606665Y886238D01*
X606777Y886267D01*
X606889Y886293D01*
X607002Y886315D01*
X607116Y886332D01*
X607230Y886346D01*
X607345Y886356D01*
X607460Y886362D01*
X607575Y886364D01*
X607575Y886363D02*
X607690Y886361D01*
X607805Y886355D01*
X607920Y886345D01*
X608034Y886331D01*
X608148Y886314D01*
X608261Y886292D01*
X608373Y886266D01*
X608485Y886237D01*
X608595Y886204D01*
X608704Y886167D01*
X608812Y886126D01*
X608918Y886081D01*
X609023Y886033D01*
X609125Y885982D01*
X609226Y885926D01*
X609326Y885868D01*
X609423Y885806D01*
X609517Y885741D01*
X609610Y885672D01*
X609700Y885600D01*
X609788Y885526D01*
X609873Y885448D01*
X609955Y885367D01*
X610034Y885284D01*
X610111Y885198D01*
X610184Y885109D01*
X610255Y885018D01*
X610322Y884924D01*
X610386Y884829D01*
X610447Y884731D01*
X610504Y884631D01*
X610557Y884529D01*
X610608Y884425D01*
X610654Y884320D01*
X610697Y884213D01*
X610736Y884105D01*
X610873Y883816D01*
X611003Y883524D01*
X611126Y883228D01*
X611241Y882930D01*
X611350Y882629D01*
X611451Y882326D01*
X611545Y882020D01*
X611632Y881713D01*
X611711Y881403D01*
X611783Y881091D01*
X611847Y880778D01*
X611904Y880463D01*
X611954Y880147D01*
X611996Y879830D01*
X612030Y879512D01*
X612057Y879194D01*
X612076Y878874D01*
X612087Y878555D01*
X612091Y878235D01*
X603060Y878235D02*
X603064Y877915D01*
X603075Y877596D01*
X603094Y877276D01*
X603121Y876958D01*
X603155Y876640D01*
X603197Y876323D01*
X603247Y876007D01*
X603304Y875692D01*
X603368Y875379D01*
X603440Y875067D01*
X603519Y874757D01*
X603606Y874450D01*
X603700Y874144D01*
X603801Y873841D01*
X603910Y873540D01*
X604025Y873242D01*
X604148Y872946D01*
X604278Y872654D01*
X604415Y872365D01*
X604414Y872365D02*
X604453Y872257D01*
X604496Y872150D01*
X604542Y872045D01*
X604593Y871941D01*
X604646Y871839D01*
X604703Y871739D01*
X604764Y871641D01*
X604828Y871546D01*
X604895Y871452D01*
X604966Y871361D01*
X605039Y871272D01*
X605116Y871186D01*
X605195Y871103D01*
X605277Y871022D01*
X605362Y870944D01*
X605450Y870870D01*
X605540Y870798D01*
X605633Y870729D01*
X605727Y870664D01*
X605824Y870602D01*
X605924Y870544D01*
X606025Y870488D01*
X606127Y870437D01*
X606232Y870389D01*
X606338Y870344D01*
X606446Y870303D01*
X606555Y870266D01*
X606665Y870233D01*
X606777Y870204D01*
X606889Y870178D01*
X607002Y870156D01*
X607116Y870139D01*
X607230Y870125D01*
X607345Y870115D01*
X607460Y870109D01*
X607575Y870107D01*
X610735Y872365D02*
X610872Y872654D01*
X611002Y872946D01*
X611125Y873242D01*
X611240Y873540D01*
X611349Y873841D01*
X611450Y874144D01*
X611544Y874450D01*
X611631Y874757D01*
X611710Y875067D01*
X611782Y875379D01*
X611846Y875692D01*
X611903Y876007D01*
X611953Y876323D01*
X611995Y876640D01*
X612029Y876958D01*
X612056Y877276D01*
X612075Y877596D01*
X612086Y877915D01*
X612090Y878235D01*
X610736Y872365D02*
X610697Y872257D01*
X610654Y872150D01*
X610608Y872045D01*
X610557Y871941D01*
X610504Y871839D01*
X610447Y871739D01*
X610386Y871641D01*
X610322Y871546D01*
X610255Y871452D01*
X610184Y871361D01*
X610111Y871272D01*
X610034Y871186D01*
X609955Y871103D01*
X609873Y871022D01*
X609788Y870944D01*
X609700Y870870D01*
X609610Y870798D01*
X609517Y870729D01*
X609423Y870664D01*
X609326Y870602D01*
X609226Y870544D01*
X609125Y870488D01*
X609022Y870437D01*
X608918Y870389D01*
X608812Y870344D01*
X608704Y870303D01*
X608595Y870266D01*
X608485Y870233D01*
X608373Y870204D01*
X608261Y870178D01*
X608148Y870156D01*
X608034Y870139D01*
X607920Y870125D01*
X607805Y870115D01*
X607690Y870109D01*
X607575Y870107D01*
X603963Y873719D02*
X611188Y882751D01*
D10*
X1143000Y622300D02*
X1226000Y622300D01*
X1226000Y0D02*
X1143000Y0D01*
X1206500Y650D02*
X1206500Y621650D01*
X1203308Y596300D01*
X1209692Y596300D01*
X1206500Y621650D01*
X1205200Y596300D01*
X1207800Y596300D02*
X1206500Y621650D01*
X1203900Y596300D01*
X1209100Y596300D02*
X1206500Y621650D01*
X1203308Y26000D02*
X1206500Y650D01*
X1203308Y26000D02*
X1209692Y26000D01*
X1206500Y650D01*
X1205200Y26000D01*
X1207800Y26000D02*
X1206500Y650D01*
X1203900Y26000D01*
X1209100Y26000D02*
X1206500Y650D01*
D11*
X1190962Y280091D02*
X1190962Y285510D01*
X1190964Y285628D01*
X1190970Y285746D01*
X1190979Y285864D01*
X1190993Y285981D01*
X1191010Y286098D01*
X1191031Y286215D01*
X1191056Y286330D01*
X1191085Y286445D01*
X1191118Y286559D01*
X1191154Y286671D01*
X1191194Y286782D01*
X1191237Y286892D01*
X1191284Y287001D01*
X1191334Y287108D01*
X1191389Y287213D01*
X1191446Y287316D01*
X1191507Y287417D01*
X1191571Y287517D01*
X1191638Y287614D01*
X1191708Y287709D01*
X1191782Y287801D01*
X1191858Y287892D01*
X1191938Y287979D01*
X1192020Y288064D01*
X1192105Y288146D01*
X1192192Y288226D01*
X1192283Y288302D01*
X1192375Y288376D01*
X1192470Y288446D01*
X1192567Y288513D01*
X1192667Y288577D01*
X1192768Y288638D01*
X1192871Y288695D01*
X1192976Y288750D01*
X1193083Y288800D01*
X1193192Y288847D01*
X1193302Y288890D01*
X1193413Y288930D01*
X1193525Y288966D01*
X1193639Y288999D01*
X1193754Y289028D01*
X1193869Y289053D01*
X1193986Y289074D01*
X1194103Y289091D01*
X1194220Y289105D01*
X1194338Y289114D01*
X1194456Y289120D01*
X1194574Y289122D01*
X1195477Y289122D01*
X1195477Y289123D02*
X1195610Y289121D01*
X1195742Y289115D01*
X1195874Y289105D01*
X1196006Y289092D01*
X1196138Y289074D01*
X1196268Y289053D01*
X1196399Y289028D01*
X1196528Y288999D01*
X1196656Y288966D01*
X1196784Y288930D01*
X1196910Y288890D01*
X1197035Y288846D01*
X1197159Y288798D01*
X1197281Y288747D01*
X1197402Y288692D01*
X1197521Y288634D01*
X1197639Y288572D01*
X1197754Y288507D01*
X1197868Y288438D01*
X1197979Y288367D01*
X1198088Y288291D01*
X1198195Y288213D01*
X1198300Y288132D01*
X1198402Y288047D01*
X1198502Y287960D01*
X1198599Y287870D01*
X1198694Y287777D01*
X1198785Y287681D01*
X1198874Y287583D01*
X1198960Y287482D01*
X1199043Y287378D01*
X1199123Y287272D01*
X1199199Y287164D01*
X1199273Y287054D01*
X1199343Y286941D01*
X1199410Y286827D01*
X1199473Y286710D01*
X1199533Y286592D01*
X1199590Y286472D01*
X1199643Y286350D01*
X1199692Y286227D01*
X1199738Y286103D01*
X1199780Y285977D01*
X1199818Y285850D01*
X1199853Y285722D01*
X1199884Y285593D01*
X1199911Y285464D01*
X1199934Y285333D01*
X1199954Y285202D01*
X1199969Y285070D01*
X1199981Y284938D01*
X1199989Y284806D01*
X1199993Y284673D01*
X1199993Y284541D01*
X1199989Y284408D01*
X1199981Y284276D01*
X1199969Y284144D01*
X1199954Y284012D01*
X1199934Y283881D01*
X1199911Y283750D01*
X1199884Y283621D01*
X1199853Y283492D01*
X1199818Y283364D01*
X1199780Y283237D01*
X1199738Y283111D01*
X1199692Y282987D01*
X1199643Y282864D01*
X1199590Y282742D01*
X1199533Y282622D01*
X1199473Y282504D01*
X1199410Y282387D01*
X1199343Y282273D01*
X1199273Y282160D01*
X1199199Y282050D01*
X1199123Y281942D01*
X1199043Y281836D01*
X1198960Y281732D01*
X1198874Y281631D01*
X1198785Y281533D01*
X1198694Y281437D01*
X1198599Y281344D01*
X1198502Y281254D01*
X1198402Y281167D01*
X1198300Y281082D01*
X1198195Y281001D01*
X1198088Y280923D01*
X1197979Y280847D01*
X1197868Y280776D01*
X1197754Y280707D01*
X1197639Y280642D01*
X1197521Y280580D01*
X1197402Y280522D01*
X1197281Y280467D01*
X1197159Y280416D01*
X1197035Y280368D01*
X1196910Y280324D01*
X1196784Y280284D01*
X1196656Y280248D01*
X1196528Y280215D01*
X1196399Y280186D01*
X1196268Y280161D01*
X1196138Y280140D01*
X1196006Y280122D01*
X1195874Y280109D01*
X1195742Y280099D01*
X1195610Y280093D01*
X1195477Y280091D01*
X1190962Y280091D01*
X1190785Y280093D01*
X1190607Y280100D01*
X1190430Y280111D01*
X1190254Y280126D01*
X1190078Y280145D01*
X1189902Y280169D01*
X1189727Y280197D01*
X1189552Y280230D01*
X1189379Y280267D01*
X1189206Y280308D01*
X1189035Y280353D01*
X1188865Y280402D01*
X1188696Y280456D01*
X1188528Y280513D01*
X1188362Y280575D01*
X1188197Y280641D01*
X1188034Y280711D01*
X1187873Y280785D01*
X1187714Y280862D01*
X1187556Y280944D01*
X1187401Y281030D01*
X1187248Y281119D01*
X1187097Y281212D01*
X1186948Y281309D01*
X1186802Y281409D01*
X1186658Y281513D01*
X1186517Y281620D01*
X1186379Y281731D01*
X1186243Y281845D01*
X1186110Y281963D01*
X1185980Y282083D01*
X1185853Y282207D01*
X1185729Y282334D01*
X1185609Y282464D01*
X1185491Y282597D01*
X1185377Y282732D01*
X1185266Y282871D01*
X1185159Y283012D01*
X1185055Y283156D01*
X1184955Y283302D01*
X1184858Y283451D01*
X1184765Y283602D01*
X1184676Y283755D01*
X1184590Y283910D01*
X1184508Y284068D01*
X1184431Y284227D01*
X1184357Y284388D01*
X1184287Y284551D01*
X1184221Y284716D01*
X1184159Y284882D01*
X1184102Y285050D01*
X1184048Y285219D01*
X1183999Y285389D01*
X1183954Y285560D01*
X1183913Y285733D01*
X1183876Y285906D01*
X1183843Y286081D01*
X1183815Y286256D01*
X1183791Y286432D01*
X1183772Y286608D01*
X1183757Y286784D01*
X1183746Y286961D01*
X1183739Y287139D01*
X1183737Y287316D01*
X1183737Y300690D02*
X1183739Y300815D01*
X1183745Y300940D01*
X1183754Y301065D01*
X1183768Y301189D01*
X1183785Y301313D01*
X1183806Y301437D01*
X1183831Y301559D01*
X1183860Y301681D01*
X1183892Y301802D01*
X1183928Y301922D01*
X1183968Y302041D01*
X1184011Y302158D01*
X1184058Y302274D01*
X1184109Y302389D01*
X1184163Y302501D01*
X1184221Y302613D01*
X1184281Y302722D01*
X1184346Y302829D01*
X1184413Y302935D01*
X1184484Y303038D01*
X1184558Y303139D01*
X1184635Y303238D01*
X1184715Y303334D01*
X1184798Y303428D01*
X1184883Y303519D01*
X1184972Y303608D01*
X1185063Y303693D01*
X1185157Y303776D01*
X1185253Y303856D01*
X1185352Y303933D01*
X1185453Y304007D01*
X1185556Y304078D01*
X1185662Y304145D01*
X1185769Y304210D01*
X1185878Y304270D01*
X1185990Y304328D01*
X1186102Y304382D01*
X1186217Y304433D01*
X1186333Y304480D01*
X1186450Y304523D01*
X1186569Y304563D01*
X1186689Y304599D01*
X1186810Y304631D01*
X1186932Y304660D01*
X1187054Y304685D01*
X1187178Y304706D01*
X1187302Y304723D01*
X1187426Y304737D01*
X1187551Y304746D01*
X1187676Y304752D01*
X1187801Y304754D01*
X1183737Y300690D02*
X1183739Y300547D01*
X1183745Y300405D01*
X1183755Y300262D01*
X1183768Y300120D01*
X1183786Y299979D01*
X1183807Y299837D01*
X1183832Y299697D01*
X1183861Y299557D01*
X1183894Y299418D01*
X1183931Y299280D01*
X1183971Y299143D01*
X1184015Y299008D01*
X1184063Y298873D01*
X1184115Y298740D01*
X1184170Y298608D01*
X1184229Y298478D01*
X1184291Y298350D01*
X1184357Y298223D01*
X1184426Y298098D01*
X1184498Y297975D01*
X1184574Y297854D01*
X1184653Y297736D01*
X1184736Y297619D01*
X1184821Y297505D01*
X1184910Y297393D01*
X1185001Y297284D01*
X1185096Y297177D01*
X1185193Y297072D01*
X1185294Y296971D01*
X1185397Y296872D01*
X1185502Y296776D01*
X1185611Y296683D01*
X1185722Y296593D01*
X1185835Y296506D01*
X1185950Y296422D01*
X1186068Y296342D01*
X1186188Y296264D01*
X1186310Y296190D01*
X1186434Y296120D01*
X1186560Y296052D01*
X1186688Y295989D01*
X1186817Y295928D01*
X1186948Y295871D01*
X1187080Y295818D01*
X1187214Y295769D01*
X1187349Y295723D01*
X1190962Y303399D02*
X1190870Y303493D01*
X1190776Y303583D01*
X1190679Y303671D01*
X1190579Y303756D01*
X1190477Y303838D01*
X1190372Y303916D01*
X1190265Y303992D01*
X1190156Y304064D01*
X1190045Y304133D01*
X1189931Y304199D01*
X1189816Y304261D01*
X1189699Y304320D01*
X1189580Y304375D01*
X1189460Y304426D01*
X1189338Y304474D01*
X1189215Y304519D01*
X1189091Y304559D01*
X1188965Y304596D01*
X1188838Y304629D01*
X1188711Y304658D01*
X1188582Y304684D01*
X1188453Y304705D01*
X1188323Y304723D01*
X1188193Y304736D01*
X1188063Y304746D01*
X1187932Y304752D01*
X1187801Y304754D01*
X1190962Y303399D02*
X1199993Y295723D01*
X1199993Y304754D01*
X1199993Y310728D02*
X1199090Y310728D01*
X1199090Y311631D01*
X1199993Y311631D01*
X1199993Y310728D01*
X1187801Y326637D02*
X1187676Y326635D01*
X1187551Y326629D01*
X1187426Y326620D01*
X1187302Y326606D01*
X1187178Y326589D01*
X1187054Y326568D01*
X1186932Y326543D01*
X1186810Y326514D01*
X1186689Y326482D01*
X1186569Y326446D01*
X1186450Y326406D01*
X1186333Y326363D01*
X1186217Y326316D01*
X1186102Y326265D01*
X1185990Y326211D01*
X1185878Y326153D01*
X1185769Y326093D01*
X1185662Y326028D01*
X1185556Y325961D01*
X1185453Y325890D01*
X1185352Y325816D01*
X1185253Y325739D01*
X1185157Y325659D01*
X1185063Y325576D01*
X1184972Y325491D01*
X1184883Y325402D01*
X1184798Y325311D01*
X1184715Y325217D01*
X1184635Y325121D01*
X1184558Y325022D01*
X1184484Y324921D01*
X1184413Y324818D01*
X1184346Y324712D01*
X1184281Y324605D01*
X1184221Y324496D01*
X1184163Y324384D01*
X1184109Y324272D01*
X1184058Y324157D01*
X1184011Y324041D01*
X1183968Y323924D01*
X1183928Y323805D01*
X1183892Y323685D01*
X1183860Y323564D01*
X1183831Y323442D01*
X1183806Y323320D01*
X1183785Y323196D01*
X1183768Y323072D01*
X1183754Y322948D01*
X1183745Y322823D01*
X1183739Y322698D01*
X1183737Y322573D01*
X1183739Y322430D01*
X1183745Y322288D01*
X1183755Y322145D01*
X1183768Y322003D01*
X1183786Y321862D01*
X1183807Y321720D01*
X1183832Y321580D01*
X1183861Y321440D01*
X1183894Y321301D01*
X1183931Y321163D01*
X1183971Y321026D01*
X1184015Y320891D01*
X1184063Y320756D01*
X1184115Y320623D01*
X1184170Y320491D01*
X1184229Y320361D01*
X1184291Y320233D01*
X1184357Y320106D01*
X1184426Y319981D01*
X1184498Y319858D01*
X1184574Y319737D01*
X1184653Y319619D01*
X1184736Y319502D01*
X1184821Y319388D01*
X1184910Y319276D01*
X1185001Y319167D01*
X1185096Y319060D01*
X1185193Y318955D01*
X1185294Y318854D01*
X1185397Y318755D01*
X1185502Y318659D01*
X1185611Y318566D01*
X1185722Y318476D01*
X1185835Y318389D01*
X1185950Y318305D01*
X1186068Y318225D01*
X1186188Y318147D01*
X1186310Y318073D01*
X1186434Y318003D01*
X1186560Y317935D01*
X1186688Y317872D01*
X1186817Y317811D01*
X1186948Y317754D01*
X1187080Y317701D01*
X1187214Y317652D01*
X1187349Y317606D01*
X1190962Y325282D02*
X1190870Y325376D01*
X1190776Y325466D01*
X1190679Y325554D01*
X1190579Y325639D01*
X1190477Y325721D01*
X1190372Y325799D01*
X1190265Y325875D01*
X1190156Y325947D01*
X1190045Y326016D01*
X1189931Y326082D01*
X1189816Y326144D01*
X1189699Y326203D01*
X1189580Y326258D01*
X1189460Y326309D01*
X1189338Y326357D01*
X1189215Y326402D01*
X1189091Y326442D01*
X1188965Y326479D01*
X1188838Y326512D01*
X1188711Y326541D01*
X1188582Y326567D01*
X1188453Y326588D01*
X1188323Y326606D01*
X1188193Y326619D01*
X1188063Y326629D01*
X1187932Y326635D01*
X1187801Y326637D01*
X1190962Y325283D02*
X1199993Y317606D01*
X1199993Y326637D01*
X1199993Y333237D02*
X1199993Y337753D01*
X1199991Y337886D01*
X1199985Y338018D01*
X1199975Y338150D01*
X1199962Y338282D01*
X1199944Y338414D01*
X1199923Y338544D01*
X1199898Y338675D01*
X1199869Y338804D01*
X1199836Y338932D01*
X1199800Y339060D01*
X1199760Y339186D01*
X1199716Y339311D01*
X1199668Y339435D01*
X1199617Y339557D01*
X1199562Y339678D01*
X1199504Y339797D01*
X1199442Y339915D01*
X1199377Y340030D01*
X1199308Y340144D01*
X1199237Y340255D01*
X1199161Y340364D01*
X1199083Y340471D01*
X1199002Y340576D01*
X1198917Y340678D01*
X1198830Y340778D01*
X1198740Y340875D01*
X1198647Y340970D01*
X1198551Y341061D01*
X1198453Y341150D01*
X1198352Y341236D01*
X1198248Y341319D01*
X1198142Y341399D01*
X1198034Y341475D01*
X1197924Y341549D01*
X1197811Y341619D01*
X1197697Y341686D01*
X1197580Y341749D01*
X1197462Y341809D01*
X1197342Y341866D01*
X1197220Y341919D01*
X1197097Y341968D01*
X1196973Y342014D01*
X1196847Y342056D01*
X1196720Y342094D01*
X1196592Y342129D01*
X1196463Y342160D01*
X1196334Y342187D01*
X1196203Y342210D01*
X1196072Y342230D01*
X1195940Y342245D01*
X1195808Y342257D01*
X1195676Y342265D01*
X1195543Y342269D01*
X1195411Y342269D01*
X1195278Y342265D01*
X1195146Y342257D01*
X1195014Y342245D01*
X1194882Y342230D01*
X1194751Y342210D01*
X1194620Y342187D01*
X1194491Y342160D01*
X1194362Y342129D01*
X1194234Y342094D01*
X1194107Y342056D01*
X1193981Y342014D01*
X1193857Y341968D01*
X1193734Y341919D01*
X1193612Y341866D01*
X1193492Y341809D01*
X1193374Y341749D01*
X1193257Y341686D01*
X1193143Y341619D01*
X1193030Y341549D01*
X1192920Y341475D01*
X1192812Y341399D01*
X1192706Y341319D01*
X1192602Y341236D01*
X1192501Y341150D01*
X1192403Y341061D01*
X1192307Y340970D01*
X1192214Y340875D01*
X1192124Y340778D01*
X1192037Y340678D01*
X1191952Y340576D01*
X1191871Y340471D01*
X1191793Y340364D01*
X1191717Y340255D01*
X1191646Y340144D01*
X1191577Y340030D01*
X1191512Y339915D01*
X1191450Y339797D01*
X1191392Y339678D01*
X1191337Y339557D01*
X1191286Y339435D01*
X1191238Y339311D01*
X1191194Y339186D01*
X1191154Y339060D01*
X1191118Y338932D01*
X1191085Y338804D01*
X1191056Y338675D01*
X1191031Y338544D01*
X1191010Y338414D01*
X1190992Y338282D01*
X1190979Y338150D01*
X1190969Y338018D01*
X1190963Y337886D01*
X1190961Y337753D01*
X1183737Y338656D02*
X1183737Y333237D01*
X1183737Y338656D02*
X1183739Y338775D01*
X1183745Y338895D01*
X1183755Y339014D01*
X1183769Y339132D01*
X1183786Y339251D01*
X1183808Y339368D01*
X1183833Y339485D01*
X1183863Y339600D01*
X1183896Y339715D01*
X1183933Y339829D01*
X1183973Y339941D01*
X1184018Y340052D01*
X1184066Y340161D01*
X1184117Y340269D01*
X1184172Y340375D01*
X1184231Y340479D01*
X1184293Y340581D01*
X1184358Y340681D01*
X1184427Y340779D01*
X1184499Y340875D01*
X1184574Y340968D01*
X1184651Y341058D01*
X1184732Y341146D01*
X1184816Y341231D01*
X1184903Y341313D01*
X1184992Y341393D01*
X1185084Y341469D01*
X1185178Y341543D01*
X1185275Y341613D01*
X1185373Y341680D01*
X1185474Y341744D01*
X1185578Y341804D01*
X1185683Y341861D01*
X1185790Y341914D01*
X1185898Y341964D01*
X1186008Y342010D01*
X1186120Y342052D01*
X1186233Y342091D01*
X1186347Y342126D01*
X1186462Y342157D01*
X1186579Y342185D01*
X1186696Y342208D01*
X1186813Y342228D01*
X1186932Y342244D01*
X1187051Y342256D01*
X1187170Y342264D01*
X1187289Y342268D01*
X1187409Y342268D01*
X1187528Y342264D01*
X1187647Y342256D01*
X1187766Y342244D01*
X1187885Y342228D01*
X1188002Y342208D01*
X1188119Y342185D01*
X1188236Y342157D01*
X1188351Y342126D01*
X1188465Y342091D01*
X1188578Y342052D01*
X1188690Y342010D01*
X1188800Y341964D01*
X1188908Y341914D01*
X1189015Y341861D01*
X1189120Y341804D01*
X1189224Y341744D01*
X1189325Y341680D01*
X1189423Y341613D01*
X1189520Y341543D01*
X1189614Y341469D01*
X1189706Y341393D01*
X1189795Y341313D01*
X1189882Y341231D01*
X1189966Y341146D01*
X1190047Y341058D01*
X1190124Y340968D01*
X1190199Y340875D01*
X1190271Y340779D01*
X1190340Y340681D01*
X1190405Y340581D01*
X1190467Y340479D01*
X1190526Y340375D01*
X1190581Y340269D01*
X1190632Y340161D01*
X1190680Y340052D01*
X1190725Y339941D01*
X1190765Y339829D01*
X1190802Y339715D01*
X1190835Y339600D01*
X1190865Y339485D01*
X1190890Y339368D01*
X1190912Y339251D01*
X1190929Y339132D01*
X1190943Y339014D01*
X1190953Y338895D01*
X1190959Y338775D01*
X1190961Y338656D01*
X1190962Y338656D02*
X1190962Y335044D01*
D10*
X0Y622200D02*
X-159200Y622200D01*
X-159200Y495300D02*
X0Y495300D01*
X-139700Y495950D02*
X-139700Y621550D01*
X-142892Y596200D01*
X-136508Y596200D01*
X-139700Y621550D01*
X-141000Y596200D01*
X-138400Y596200D02*
X-139700Y621550D01*
X-142300Y596200D01*
X-137100Y596200D02*
X-139700Y621550D01*
X-142892Y521300D02*
X-139700Y495950D01*
X-142892Y521300D02*
X-136508Y521300D01*
X-139700Y495950D01*
X-141000Y521300D01*
X-138400Y521300D02*
X-139700Y495950D01*
X-142300Y521300D01*
X-137100Y521300D02*
X-139700Y495950D01*
D11*
X-158851Y527691D02*
X-162463Y532207D01*
X-146207Y532207D01*
X-146207Y536722D02*
X-146207Y527691D01*
X-162463Y548290D02*
X-162461Y548415D01*
X-162455Y548540D01*
X-162446Y548665D01*
X-162432Y548789D01*
X-162415Y548913D01*
X-162394Y549037D01*
X-162369Y549159D01*
X-162340Y549281D01*
X-162308Y549402D01*
X-162272Y549522D01*
X-162232Y549641D01*
X-162189Y549758D01*
X-162142Y549874D01*
X-162091Y549989D01*
X-162037Y550101D01*
X-161979Y550213D01*
X-161919Y550322D01*
X-161854Y550429D01*
X-161787Y550535D01*
X-161716Y550638D01*
X-161642Y550739D01*
X-161565Y550838D01*
X-161485Y550934D01*
X-161402Y551028D01*
X-161317Y551119D01*
X-161228Y551208D01*
X-161137Y551293D01*
X-161043Y551376D01*
X-160947Y551456D01*
X-160848Y551533D01*
X-160747Y551607D01*
X-160644Y551678D01*
X-160538Y551745D01*
X-160431Y551810D01*
X-160322Y551870D01*
X-160210Y551928D01*
X-160098Y551982D01*
X-159983Y552033D01*
X-159867Y552080D01*
X-159750Y552123D01*
X-159631Y552163D01*
X-159511Y552199D01*
X-159390Y552231D01*
X-159268Y552260D01*
X-159146Y552285D01*
X-159022Y552306D01*
X-158898Y552323D01*
X-158774Y552337D01*
X-158649Y552346D01*
X-158524Y552352D01*
X-158399Y552354D01*
X-162463Y548290D02*
X-162461Y548147D01*
X-162455Y548005D01*
X-162445Y547862D01*
X-162432Y547720D01*
X-162414Y547579D01*
X-162393Y547437D01*
X-162368Y547297D01*
X-162339Y547157D01*
X-162306Y547018D01*
X-162269Y546880D01*
X-162229Y546743D01*
X-162185Y546608D01*
X-162137Y546473D01*
X-162085Y546340D01*
X-162030Y546208D01*
X-161971Y546078D01*
X-161909Y545950D01*
X-161843Y545823D01*
X-161774Y545698D01*
X-161702Y545575D01*
X-161626Y545455D01*
X-161547Y545336D01*
X-161464Y545219D01*
X-161379Y545105D01*
X-161290Y544993D01*
X-161199Y544884D01*
X-161104Y544777D01*
X-161007Y544672D01*
X-160906Y544571D01*
X-160803Y544472D01*
X-160698Y544376D01*
X-160589Y544283D01*
X-160478Y544193D01*
X-160365Y544106D01*
X-160250Y544022D01*
X-160132Y543942D01*
X-160012Y543864D01*
X-159890Y543790D01*
X-159766Y543720D01*
X-159640Y543652D01*
X-159512Y543589D01*
X-159383Y543528D01*
X-159252Y543471D01*
X-159120Y543418D01*
X-158986Y543369D01*
X-158851Y543323D01*
X-155238Y550998D02*
X-155330Y551092D01*
X-155424Y551182D01*
X-155521Y551270D01*
X-155621Y551355D01*
X-155723Y551437D01*
X-155828Y551516D01*
X-155935Y551591D01*
X-156044Y551663D01*
X-156155Y551732D01*
X-156269Y551798D01*
X-156384Y551860D01*
X-156501Y551919D01*
X-156620Y551974D01*
X-156740Y552025D01*
X-156862Y552073D01*
X-156985Y552118D01*
X-157109Y552158D01*
X-157235Y552195D01*
X-157362Y552228D01*
X-157489Y552257D01*
X-157618Y552283D01*
X-157747Y552304D01*
X-157877Y552322D01*
X-158007Y552335D01*
X-158137Y552345D01*
X-158268Y552351D01*
X-158399Y552353D01*
X-155238Y550999D02*
X-146207Y543323D01*
X-146207Y552354D01*
X-146207Y558328D02*
X-147110Y558328D01*
X-147110Y559231D01*
X-146207Y559231D01*
X-146207Y558328D01*
X-155238Y565206D02*
X-155238Y570625D01*
X-155236Y570743D01*
X-155230Y570861D01*
X-155221Y570979D01*
X-155207Y571096D01*
X-155190Y571213D01*
X-155169Y571330D01*
X-155144Y571445D01*
X-155115Y571560D01*
X-155082Y571674D01*
X-155046Y571786D01*
X-155006Y571897D01*
X-154963Y572007D01*
X-154916Y572116D01*
X-154866Y572223D01*
X-154811Y572328D01*
X-154754Y572431D01*
X-154693Y572532D01*
X-154629Y572632D01*
X-154562Y572729D01*
X-154492Y572824D01*
X-154418Y572916D01*
X-154342Y573007D01*
X-154262Y573094D01*
X-154180Y573179D01*
X-154095Y573261D01*
X-154008Y573341D01*
X-153917Y573417D01*
X-153825Y573491D01*
X-153730Y573561D01*
X-153633Y573628D01*
X-153533Y573692D01*
X-153432Y573753D01*
X-153329Y573810D01*
X-153224Y573865D01*
X-153117Y573915D01*
X-153008Y573962D01*
X-152898Y574005D01*
X-152787Y574045D01*
X-152675Y574081D01*
X-152561Y574114D01*
X-152446Y574143D01*
X-152331Y574168D01*
X-152214Y574189D01*
X-152097Y574206D01*
X-151980Y574220D01*
X-151862Y574229D01*
X-151744Y574235D01*
X-151626Y574237D01*
X-150723Y574237D01*
X-150723Y574238D02*
X-150590Y574236D01*
X-150458Y574230D01*
X-150326Y574220D01*
X-150194Y574207D01*
X-150062Y574189D01*
X-149932Y574168D01*
X-149801Y574143D01*
X-149672Y574114D01*
X-149544Y574081D01*
X-149416Y574045D01*
X-149290Y574005D01*
X-149165Y573961D01*
X-149041Y573913D01*
X-148919Y573862D01*
X-148798Y573807D01*
X-148679Y573749D01*
X-148561Y573687D01*
X-148446Y573622D01*
X-148332Y573553D01*
X-148221Y573482D01*
X-148112Y573406D01*
X-148005Y573328D01*
X-147900Y573247D01*
X-147798Y573162D01*
X-147698Y573075D01*
X-147601Y572985D01*
X-147506Y572892D01*
X-147415Y572796D01*
X-147326Y572698D01*
X-147240Y572597D01*
X-147157Y572493D01*
X-147077Y572387D01*
X-147001Y572279D01*
X-146927Y572169D01*
X-146857Y572056D01*
X-146790Y571942D01*
X-146727Y571825D01*
X-146667Y571707D01*
X-146610Y571587D01*
X-146557Y571465D01*
X-146508Y571342D01*
X-146462Y571218D01*
X-146420Y571092D01*
X-146382Y570965D01*
X-146347Y570837D01*
X-146316Y570708D01*
X-146289Y570579D01*
X-146266Y570448D01*
X-146246Y570317D01*
X-146231Y570185D01*
X-146219Y570053D01*
X-146211Y569921D01*
X-146207Y569788D01*
X-146207Y569656D01*
X-146211Y569523D01*
X-146219Y569391D01*
X-146231Y569259D01*
X-146246Y569127D01*
X-146266Y568996D01*
X-146289Y568865D01*
X-146316Y568736D01*
X-146347Y568607D01*
X-146382Y568479D01*
X-146420Y568352D01*
X-146462Y568226D01*
X-146508Y568102D01*
X-146557Y567979D01*
X-146610Y567857D01*
X-146667Y567737D01*
X-146727Y567619D01*
X-146790Y567502D01*
X-146857Y567388D01*
X-146927Y567275D01*
X-147001Y567165D01*
X-147077Y567057D01*
X-147157Y566951D01*
X-147240Y566847D01*
X-147326Y566746D01*
X-147415Y566648D01*
X-147506Y566552D01*
X-147601Y566459D01*
X-147698Y566369D01*
X-147798Y566282D01*
X-147900Y566197D01*
X-148005Y566116D01*
X-148112Y566038D01*
X-148221Y565962D01*
X-148332Y565891D01*
X-148446Y565822D01*
X-148561Y565757D01*
X-148679Y565695D01*
X-148798Y565637D01*
X-148919Y565582D01*
X-149041Y565531D01*
X-149165Y565483D01*
X-149290Y565439D01*
X-149416Y565399D01*
X-149544Y565363D01*
X-149672Y565330D01*
X-149801Y565301D01*
X-149932Y565276D01*
X-150062Y565255D01*
X-150194Y565237D01*
X-150326Y565224D01*
X-150458Y565214D01*
X-150590Y565208D01*
X-150723Y565206D01*
X-155238Y565206D01*
X-155413Y565208D01*
X-155587Y565214D01*
X-155761Y565225D01*
X-155935Y565240D01*
X-156109Y565259D01*
X-156282Y565282D01*
X-156454Y565309D01*
X-156626Y565341D01*
X-156797Y565376D01*
X-156967Y565416D01*
X-157136Y565460D01*
X-157304Y565508D01*
X-157471Y565560D01*
X-157636Y565616D01*
X-157800Y565676D01*
X-157963Y565739D01*
X-158123Y565807D01*
X-158283Y565879D01*
X-158440Y565954D01*
X-158596Y566034D01*
X-158749Y566117D01*
X-158901Y566203D01*
X-159050Y566294D01*
X-159197Y566388D01*
X-159342Y566485D01*
X-159485Y566586D01*
X-159625Y566690D01*
X-159762Y566798D01*
X-159897Y566909D01*
X-160029Y567023D01*
X-160158Y567140D01*
X-160285Y567261D01*
X-160408Y567384D01*
X-160529Y567511D01*
X-160646Y567640D01*
X-160760Y567772D01*
X-160871Y567907D01*
X-160979Y568044D01*
X-161083Y568184D01*
X-161184Y568327D01*
X-161281Y568472D01*
X-161375Y568619D01*
X-161466Y568768D01*
X-161552Y568920D01*
X-161635Y569073D01*
X-161715Y569229D01*
X-161790Y569386D01*
X-161862Y569546D01*
X-161930Y569706D01*
X-161993Y569869D01*
X-162053Y570033D01*
X-162109Y570198D01*
X-162161Y570365D01*
X-162209Y570533D01*
X-162253Y570702D01*
X-162293Y570872D01*
X-162328Y571043D01*
X-162360Y571215D01*
X-162387Y571387D01*
X-162410Y571560D01*
X-162429Y571734D01*
X-162444Y571908D01*
X-162455Y572082D01*
X-162461Y572256D01*
X-162463Y572431D01*
X-153432Y584450D02*
X-153432Y589869D01*
X-153432Y584450D02*
X-153434Y584332D01*
X-153440Y584214D01*
X-153449Y584096D01*
X-153463Y583979D01*
X-153480Y583862D01*
X-153501Y583745D01*
X-153526Y583630D01*
X-153555Y583515D01*
X-153588Y583401D01*
X-153624Y583289D01*
X-153664Y583178D01*
X-153707Y583068D01*
X-153754Y582959D01*
X-153804Y582852D01*
X-153859Y582747D01*
X-153916Y582644D01*
X-153977Y582543D01*
X-154041Y582443D01*
X-154108Y582346D01*
X-154178Y582251D01*
X-154252Y582159D01*
X-154328Y582068D01*
X-154408Y581981D01*
X-154490Y581896D01*
X-154575Y581814D01*
X-154662Y581734D01*
X-154753Y581658D01*
X-154845Y581584D01*
X-154940Y581514D01*
X-155037Y581447D01*
X-155137Y581383D01*
X-155238Y581322D01*
X-155341Y581265D01*
X-155446Y581210D01*
X-155553Y581160D01*
X-155662Y581113D01*
X-155772Y581070D01*
X-155883Y581030D01*
X-155995Y580994D01*
X-156109Y580961D01*
X-156224Y580932D01*
X-156339Y580907D01*
X-156456Y580886D01*
X-156573Y580869D01*
X-156690Y580855D01*
X-156808Y580846D01*
X-156926Y580840D01*
X-157044Y580838D01*
X-157044Y580837D02*
X-157947Y580837D01*
X-158080Y580839D01*
X-158212Y580845D01*
X-158344Y580855D01*
X-158476Y580868D01*
X-158608Y580886D01*
X-158738Y580907D01*
X-158869Y580932D01*
X-158998Y580961D01*
X-159126Y580994D01*
X-159254Y581030D01*
X-159380Y581070D01*
X-159505Y581114D01*
X-159629Y581162D01*
X-159751Y581213D01*
X-159872Y581268D01*
X-159991Y581326D01*
X-160109Y581388D01*
X-160224Y581453D01*
X-160338Y581522D01*
X-160449Y581593D01*
X-160558Y581669D01*
X-160665Y581747D01*
X-160770Y581828D01*
X-160872Y581913D01*
X-160972Y582000D01*
X-161069Y582090D01*
X-161164Y582183D01*
X-161255Y582279D01*
X-161344Y582377D01*
X-161430Y582478D01*
X-161513Y582582D01*
X-161593Y582688D01*
X-161669Y582796D01*
X-161743Y582906D01*
X-161813Y583019D01*
X-161880Y583133D01*
X-161943Y583250D01*
X-162003Y583368D01*
X-162060Y583488D01*
X-162113Y583610D01*
X-162162Y583733D01*
X-162208Y583857D01*
X-162250Y583983D01*
X-162288Y584110D01*
X-162323Y584238D01*
X-162354Y584367D01*
X-162381Y584496D01*
X-162404Y584627D01*
X-162424Y584758D01*
X-162439Y584890D01*
X-162451Y585022D01*
X-162459Y585154D01*
X-162463Y585287D01*
X-162463Y585419D01*
X-162459Y585552D01*
X-162451Y585684D01*
X-162439Y585816D01*
X-162424Y585948D01*
X-162404Y586079D01*
X-162381Y586210D01*
X-162354Y586339D01*
X-162323Y586468D01*
X-162288Y586596D01*
X-162250Y586723D01*
X-162208Y586849D01*
X-162162Y586973D01*
X-162113Y587096D01*
X-162060Y587218D01*
X-162003Y587338D01*
X-161943Y587456D01*
X-161880Y587573D01*
X-161813Y587687D01*
X-161743Y587800D01*
X-161669Y587910D01*
X-161593Y588018D01*
X-161513Y588124D01*
X-161430Y588228D01*
X-161344Y588329D01*
X-161255Y588427D01*
X-161164Y588523D01*
X-161069Y588616D01*
X-160972Y588706D01*
X-160872Y588793D01*
X-160770Y588878D01*
X-160665Y588959D01*
X-160558Y589037D01*
X-160449Y589113D01*
X-160338Y589184D01*
X-160224Y589253D01*
X-160109Y589318D01*
X-159991Y589380D01*
X-159872Y589438D01*
X-159751Y589493D01*
X-159629Y589544D01*
X-159505Y589592D01*
X-159380Y589636D01*
X-159254Y589676D01*
X-159126Y589712D01*
X-158998Y589745D01*
X-158869Y589774D01*
X-158738Y589799D01*
X-158608Y589820D01*
X-158476Y589838D01*
X-158344Y589851D01*
X-158212Y589861D01*
X-158080Y589867D01*
X-157947Y589869D01*
X-153432Y589869D01*
X-153257Y589867D01*
X-153083Y589861D01*
X-152909Y589850D01*
X-152735Y589835D01*
X-152561Y589816D01*
X-152388Y589793D01*
X-152216Y589766D01*
X-152044Y589734D01*
X-151873Y589699D01*
X-151703Y589659D01*
X-151534Y589615D01*
X-151366Y589567D01*
X-151199Y589515D01*
X-151034Y589459D01*
X-150870Y589399D01*
X-150707Y589336D01*
X-150547Y589268D01*
X-150387Y589196D01*
X-150230Y589121D01*
X-150074Y589041D01*
X-149921Y588958D01*
X-149769Y588872D01*
X-149620Y588781D01*
X-149473Y588687D01*
X-149328Y588590D01*
X-149185Y588489D01*
X-149045Y588385D01*
X-148908Y588277D01*
X-148773Y588166D01*
X-148641Y588052D01*
X-148512Y587935D01*
X-148385Y587814D01*
X-148262Y587691D01*
X-148141Y587564D01*
X-148024Y587435D01*
X-147910Y587303D01*
X-147799Y587168D01*
X-147691Y587031D01*
X-147587Y586891D01*
X-147486Y586748D01*
X-147389Y586603D01*
X-147295Y586456D01*
X-147204Y586307D01*
X-147118Y586155D01*
X-147035Y586002D01*
X-146955Y585846D01*
X-146880Y585689D01*
X-146808Y585529D01*
X-146740Y585369D01*
X-146677Y585206D01*
X-146617Y585042D01*
X-146561Y584877D01*
X-146509Y584710D01*
X-146461Y584542D01*
X-146417Y584373D01*
X-146377Y584203D01*
X-146342Y584032D01*
X-146310Y583860D01*
X-146283Y583688D01*
X-146260Y583515D01*
X-146241Y583341D01*
X-146226Y583167D01*
X-146215Y582993D01*
X-146209Y582819D01*
X-146207Y582644D01*
D10*
X0Y-12700D02*
X0Y-44900D01*
X990600Y-38100D02*
X990600Y-5900D01*
X989950Y-25400D02*
X650Y-25400D01*
X26000Y-22208D01*
X26000Y-28592D01*
X650Y-25400D01*
X26000Y-24100D01*
X26000Y-26700D02*
X650Y-25400D01*
X26000Y-22800D01*
X26000Y-28000D02*
X650Y-25400D01*
X964600Y-22208D02*
X989950Y-25400D01*
X964600Y-22208D02*
X964600Y-28592D01*
X989950Y-25400D01*
X964600Y-24100D01*
X964600Y-26700D02*
X989950Y-25400D01*
X964600Y-22800D01*
X964600Y-28000D02*
X989950Y-25400D01*
D11*
X473272Y-11668D02*
X467854Y-11668D01*
X467736Y-11666D01*
X467618Y-11660D01*
X467500Y-11651D01*
X467383Y-11637D01*
X467266Y-11620D01*
X467149Y-11599D01*
X467034Y-11574D01*
X466919Y-11545D01*
X466805Y-11512D01*
X466693Y-11476D01*
X466582Y-11436D01*
X466472Y-11393D01*
X466363Y-11346D01*
X466256Y-11296D01*
X466151Y-11241D01*
X466048Y-11184D01*
X465947Y-11123D01*
X465847Y-11059D01*
X465750Y-10992D01*
X465655Y-10922D01*
X465563Y-10848D01*
X465472Y-10772D01*
X465385Y-10692D01*
X465300Y-10610D01*
X465218Y-10525D01*
X465138Y-10438D01*
X465062Y-10347D01*
X464988Y-10255D01*
X464918Y-10160D01*
X464851Y-10063D01*
X464787Y-9963D01*
X464726Y-9862D01*
X464669Y-9759D01*
X464614Y-9654D01*
X464564Y-9547D01*
X464517Y-9438D01*
X464474Y-9328D01*
X464434Y-9217D01*
X464398Y-9105D01*
X464365Y-8991D01*
X464336Y-8876D01*
X464311Y-8761D01*
X464290Y-8644D01*
X464273Y-8527D01*
X464259Y-8410D01*
X464250Y-8292D01*
X464244Y-8174D01*
X464242Y-8056D01*
X464241Y-8056D02*
X464241Y-7153D01*
X464243Y-7020D01*
X464249Y-6888D01*
X464259Y-6756D01*
X464272Y-6624D01*
X464290Y-6492D01*
X464311Y-6362D01*
X464336Y-6231D01*
X464365Y-6102D01*
X464398Y-5974D01*
X464434Y-5846D01*
X464474Y-5720D01*
X464518Y-5595D01*
X464566Y-5471D01*
X464617Y-5349D01*
X464672Y-5228D01*
X464730Y-5109D01*
X464792Y-4991D01*
X464857Y-4876D01*
X464926Y-4762D01*
X464997Y-4651D01*
X465073Y-4542D01*
X465151Y-4435D01*
X465232Y-4330D01*
X465317Y-4228D01*
X465404Y-4128D01*
X465494Y-4031D01*
X465587Y-3936D01*
X465683Y-3845D01*
X465781Y-3756D01*
X465882Y-3670D01*
X465986Y-3587D01*
X466092Y-3507D01*
X466200Y-3431D01*
X466310Y-3357D01*
X466423Y-3287D01*
X466537Y-3220D01*
X466654Y-3157D01*
X466772Y-3097D01*
X466892Y-3040D01*
X467014Y-2987D01*
X467137Y-2938D01*
X467261Y-2892D01*
X467387Y-2850D01*
X467514Y-2812D01*
X467642Y-2777D01*
X467771Y-2746D01*
X467900Y-2719D01*
X468031Y-2696D01*
X468162Y-2676D01*
X468294Y-2661D01*
X468426Y-2649D01*
X468558Y-2641D01*
X468691Y-2637D01*
X468823Y-2637D01*
X468956Y-2641D01*
X469088Y-2649D01*
X469220Y-2661D01*
X469352Y-2676D01*
X469483Y-2696D01*
X469614Y-2719D01*
X469743Y-2746D01*
X469872Y-2777D01*
X470000Y-2812D01*
X470127Y-2850D01*
X470253Y-2892D01*
X470377Y-2938D01*
X470500Y-2987D01*
X470622Y-3040D01*
X470742Y-3097D01*
X470860Y-3157D01*
X470977Y-3220D01*
X471091Y-3287D01*
X471204Y-3357D01*
X471314Y-3431D01*
X471422Y-3507D01*
X471528Y-3587D01*
X471632Y-3670D01*
X471733Y-3756D01*
X471831Y-3845D01*
X471927Y-3936D01*
X472020Y-4031D01*
X472110Y-4128D01*
X472197Y-4228D01*
X472282Y-4330D01*
X472363Y-4435D01*
X472441Y-4542D01*
X472517Y-4651D01*
X472588Y-4762D01*
X472657Y-4876D01*
X472722Y-4991D01*
X472784Y-5109D01*
X472842Y-5228D01*
X472897Y-5349D01*
X472948Y-5471D01*
X472996Y-5595D01*
X473040Y-5720D01*
X473080Y-5846D01*
X473116Y-5974D01*
X473149Y-6102D01*
X473178Y-6231D01*
X473203Y-6362D01*
X473224Y-6492D01*
X473242Y-6624D01*
X473255Y-6756D01*
X473265Y-6888D01*
X473271Y-7020D01*
X473273Y-7153D01*
X473272Y-7153D02*
X473272Y-11668D01*
X473273Y-11668D02*
X473271Y-11843D01*
X473265Y-12017D01*
X473254Y-12191D01*
X473239Y-12365D01*
X473220Y-12539D01*
X473197Y-12712D01*
X473170Y-12884D01*
X473138Y-13056D01*
X473103Y-13227D01*
X473063Y-13397D01*
X473019Y-13566D01*
X472971Y-13734D01*
X472919Y-13901D01*
X472863Y-14066D01*
X472803Y-14230D01*
X472740Y-14393D01*
X472672Y-14553D01*
X472600Y-14713D01*
X472525Y-14870D01*
X472445Y-15026D01*
X472362Y-15179D01*
X472276Y-15331D01*
X472185Y-15480D01*
X472091Y-15627D01*
X471994Y-15772D01*
X471893Y-15915D01*
X471789Y-16055D01*
X471681Y-16192D01*
X471570Y-16327D01*
X471456Y-16459D01*
X471339Y-16588D01*
X471218Y-16715D01*
X471095Y-16838D01*
X470968Y-16959D01*
X470839Y-17076D01*
X470707Y-17190D01*
X470572Y-17301D01*
X470435Y-17409D01*
X470295Y-17513D01*
X470152Y-17614D01*
X470007Y-17711D01*
X469860Y-17805D01*
X469711Y-17896D01*
X469559Y-17982D01*
X469406Y-18065D01*
X469250Y-18145D01*
X469093Y-18220D01*
X468933Y-18292D01*
X468773Y-18360D01*
X468610Y-18423D01*
X468446Y-18483D01*
X468281Y-18539D01*
X468114Y-18591D01*
X467946Y-18639D01*
X467777Y-18683D01*
X467607Y-18723D01*
X467436Y-18758D01*
X467264Y-18790D01*
X467092Y-18817D01*
X466919Y-18840D01*
X466745Y-18859D01*
X466571Y-18874D01*
X466397Y-18885D01*
X466223Y-18891D01*
X466048Y-18893D01*
X483485Y-11668D02*
X488904Y-11668D01*
X483485Y-11668D02*
X483367Y-11666D01*
X483249Y-11660D01*
X483131Y-11651D01*
X483014Y-11637D01*
X482897Y-11620D01*
X482780Y-11599D01*
X482665Y-11574D01*
X482550Y-11545D01*
X482436Y-11512D01*
X482324Y-11476D01*
X482213Y-11436D01*
X482103Y-11393D01*
X481994Y-11346D01*
X481887Y-11296D01*
X481782Y-11241D01*
X481679Y-11184D01*
X481578Y-11123D01*
X481478Y-11059D01*
X481381Y-10992D01*
X481286Y-10922D01*
X481194Y-10848D01*
X481103Y-10772D01*
X481016Y-10692D01*
X480931Y-10610D01*
X480849Y-10525D01*
X480769Y-10438D01*
X480693Y-10347D01*
X480619Y-10255D01*
X480549Y-10160D01*
X480482Y-10063D01*
X480418Y-9963D01*
X480357Y-9862D01*
X480300Y-9759D01*
X480245Y-9654D01*
X480195Y-9547D01*
X480148Y-9438D01*
X480105Y-9328D01*
X480065Y-9217D01*
X480029Y-9105D01*
X479996Y-8991D01*
X479967Y-8876D01*
X479942Y-8761D01*
X479921Y-8644D01*
X479904Y-8527D01*
X479890Y-8410D01*
X479881Y-8292D01*
X479875Y-8174D01*
X479873Y-8056D01*
X479873Y-7153D01*
X479872Y-7153D02*
X479874Y-7020D01*
X479880Y-6888D01*
X479890Y-6756D01*
X479903Y-6624D01*
X479921Y-6492D01*
X479942Y-6362D01*
X479967Y-6231D01*
X479996Y-6102D01*
X480029Y-5974D01*
X480065Y-5846D01*
X480105Y-5720D01*
X480149Y-5595D01*
X480197Y-5471D01*
X480248Y-5349D01*
X480303Y-5228D01*
X480361Y-5109D01*
X480423Y-4991D01*
X480488Y-4876D01*
X480557Y-4762D01*
X480628Y-4651D01*
X480704Y-4542D01*
X480782Y-4435D01*
X480863Y-4330D01*
X480948Y-4228D01*
X481035Y-4128D01*
X481125Y-4031D01*
X481218Y-3936D01*
X481314Y-3845D01*
X481412Y-3756D01*
X481513Y-3670D01*
X481617Y-3587D01*
X481723Y-3507D01*
X481831Y-3431D01*
X481941Y-3357D01*
X482054Y-3287D01*
X482168Y-3220D01*
X482285Y-3157D01*
X482403Y-3097D01*
X482523Y-3040D01*
X482645Y-2987D01*
X482768Y-2938D01*
X482892Y-2892D01*
X483018Y-2850D01*
X483145Y-2812D01*
X483273Y-2777D01*
X483402Y-2746D01*
X483531Y-2719D01*
X483662Y-2696D01*
X483793Y-2676D01*
X483925Y-2661D01*
X484057Y-2649D01*
X484189Y-2641D01*
X484322Y-2637D01*
X484454Y-2637D01*
X484587Y-2641D01*
X484719Y-2649D01*
X484851Y-2661D01*
X484983Y-2676D01*
X485114Y-2696D01*
X485245Y-2719D01*
X485374Y-2746D01*
X485503Y-2777D01*
X485631Y-2812D01*
X485758Y-2850D01*
X485884Y-2892D01*
X486008Y-2938D01*
X486131Y-2987D01*
X486253Y-3040D01*
X486373Y-3097D01*
X486491Y-3157D01*
X486608Y-3220D01*
X486722Y-3287D01*
X486835Y-3357D01*
X486945Y-3431D01*
X487053Y-3507D01*
X487159Y-3587D01*
X487263Y-3670D01*
X487364Y-3756D01*
X487462Y-3845D01*
X487558Y-3936D01*
X487651Y-4031D01*
X487741Y-4128D01*
X487828Y-4228D01*
X487913Y-4330D01*
X487994Y-4435D01*
X488072Y-4542D01*
X488148Y-4651D01*
X488219Y-4762D01*
X488288Y-4876D01*
X488353Y-4991D01*
X488415Y-5109D01*
X488473Y-5228D01*
X488528Y-5349D01*
X488579Y-5471D01*
X488627Y-5595D01*
X488671Y-5720D01*
X488711Y-5846D01*
X488747Y-5974D01*
X488780Y-6102D01*
X488809Y-6231D01*
X488834Y-6362D01*
X488855Y-6492D01*
X488873Y-6624D01*
X488886Y-6756D01*
X488896Y-6888D01*
X488902Y-7020D01*
X488904Y-7153D01*
X488904Y-11668D01*
X488902Y-11843D01*
X488896Y-12017D01*
X488885Y-12191D01*
X488870Y-12365D01*
X488851Y-12539D01*
X488828Y-12712D01*
X488801Y-12884D01*
X488769Y-13056D01*
X488734Y-13227D01*
X488694Y-13397D01*
X488650Y-13566D01*
X488602Y-13734D01*
X488550Y-13901D01*
X488494Y-14066D01*
X488434Y-14230D01*
X488371Y-14393D01*
X488303Y-14553D01*
X488231Y-14713D01*
X488156Y-14870D01*
X488076Y-15026D01*
X487993Y-15179D01*
X487907Y-15331D01*
X487816Y-15480D01*
X487722Y-15627D01*
X487625Y-15772D01*
X487524Y-15915D01*
X487420Y-16055D01*
X487312Y-16192D01*
X487201Y-16327D01*
X487087Y-16459D01*
X486970Y-16588D01*
X486849Y-16715D01*
X486726Y-16838D01*
X486599Y-16959D01*
X486470Y-17076D01*
X486338Y-17190D01*
X486203Y-17301D01*
X486066Y-17409D01*
X485926Y-17513D01*
X485783Y-17614D01*
X485638Y-17711D01*
X485491Y-17805D01*
X485342Y-17896D01*
X485190Y-17982D01*
X485037Y-18065D01*
X484881Y-18145D01*
X484724Y-18220D01*
X484564Y-18292D01*
X484404Y-18360D01*
X484241Y-18423D01*
X484077Y-18483D01*
X483912Y-18539D01*
X483745Y-18591D01*
X483577Y-18639D01*
X483408Y-18683D01*
X483238Y-18723D01*
X483067Y-18758D01*
X482895Y-18790D01*
X482723Y-18817D01*
X482550Y-18840D01*
X482376Y-18859D01*
X482202Y-18874D01*
X482028Y-18885D01*
X481854Y-18891D01*
X481679Y-18893D01*
X494878Y-18893D02*
X494878Y-17990D01*
X495781Y-17990D01*
X495781Y-18893D01*
X494878Y-18893D01*
X501756Y-10765D02*
X501760Y-10445D01*
X501771Y-10126D01*
X501790Y-9806D01*
X501817Y-9488D01*
X501851Y-9170D01*
X501893Y-8853D01*
X501943Y-8537D01*
X502000Y-8222D01*
X502064Y-7909D01*
X502136Y-7597D01*
X502215Y-7287D01*
X502302Y-6980D01*
X502396Y-6674D01*
X502497Y-6371D01*
X502606Y-6070D01*
X502721Y-5772D01*
X502844Y-5476D01*
X502974Y-5184D01*
X503111Y-4895D01*
X503112Y-4894D02*
X503151Y-4786D01*
X503194Y-4679D01*
X503240Y-4574D01*
X503290Y-4471D01*
X503344Y-4369D01*
X503401Y-4269D01*
X503462Y-4171D01*
X503526Y-4075D01*
X503593Y-3982D01*
X503663Y-3891D01*
X503737Y-3802D01*
X503813Y-3716D01*
X503893Y-3633D01*
X503975Y-3552D01*
X504060Y-3474D01*
X504147Y-3400D01*
X504238Y-3328D01*
X504330Y-3259D01*
X504425Y-3194D01*
X504522Y-3132D01*
X504621Y-3073D01*
X504722Y-3018D01*
X504825Y-2967D01*
X504930Y-2919D01*
X505036Y-2874D01*
X505143Y-2833D01*
X505252Y-2796D01*
X505363Y-2763D01*
X505474Y-2734D01*
X505586Y-2708D01*
X505699Y-2686D01*
X505813Y-2669D01*
X505927Y-2655D01*
X506042Y-2645D01*
X506157Y-2639D01*
X506272Y-2637D01*
X506387Y-2639D01*
X506502Y-2645D01*
X506617Y-2655D01*
X506731Y-2669D01*
X506845Y-2686D01*
X506958Y-2708D01*
X507070Y-2734D01*
X507182Y-2763D01*
X507292Y-2796D01*
X507401Y-2833D01*
X507509Y-2874D01*
X507615Y-2919D01*
X507720Y-2967D01*
X507822Y-3018D01*
X507924Y-3074D01*
X508023Y-3132D01*
X508120Y-3194D01*
X508215Y-3260D01*
X508307Y-3328D01*
X508397Y-3400D01*
X508485Y-3474D01*
X508570Y-3552D01*
X508652Y-3633D01*
X508731Y-3716D01*
X508808Y-3802D01*
X508881Y-3891D01*
X508952Y-3982D01*
X509019Y-4076D01*
X509083Y-4171D01*
X509144Y-4269D01*
X509201Y-4369D01*
X509254Y-4471D01*
X509305Y-4575D01*
X509351Y-4680D01*
X509394Y-4787D01*
X509433Y-4895D01*
X509432Y-4895D02*
X509569Y-5184D01*
X509699Y-5476D01*
X509822Y-5772D01*
X509937Y-6070D01*
X510046Y-6371D01*
X510147Y-6674D01*
X510241Y-6980D01*
X510328Y-7287D01*
X510407Y-7597D01*
X510479Y-7909D01*
X510543Y-8222D01*
X510600Y-8537D01*
X510650Y-8853D01*
X510692Y-9170D01*
X510726Y-9488D01*
X510753Y-9806D01*
X510772Y-10126D01*
X510783Y-10445D01*
X510787Y-10765D01*
X501757Y-10765D02*
X501761Y-11085D01*
X501772Y-11404D01*
X501791Y-11724D01*
X501818Y-12042D01*
X501852Y-12360D01*
X501894Y-12677D01*
X501944Y-12993D01*
X502001Y-13308D01*
X502065Y-13621D01*
X502137Y-13933D01*
X502216Y-14243D01*
X502303Y-14550D01*
X502397Y-14856D01*
X502498Y-15159D01*
X502607Y-15460D01*
X502722Y-15758D01*
X502845Y-16054D01*
X502975Y-16346D01*
X503112Y-16635D01*
X503111Y-16636D02*
X503150Y-16744D01*
X503193Y-16851D01*
X503239Y-16956D01*
X503290Y-17060D01*
X503343Y-17162D01*
X503400Y-17262D01*
X503461Y-17360D01*
X503525Y-17455D01*
X503592Y-17549D01*
X503663Y-17640D01*
X503736Y-17729D01*
X503813Y-17815D01*
X503892Y-17898D01*
X503974Y-17979D01*
X504059Y-18057D01*
X504147Y-18131D01*
X504237Y-18203D01*
X504330Y-18272D01*
X504424Y-18337D01*
X504521Y-18399D01*
X504621Y-18457D01*
X504722Y-18513D01*
X504824Y-18564D01*
X504929Y-18612D01*
X505035Y-18657D01*
X505143Y-18698D01*
X505252Y-18735D01*
X505362Y-18768D01*
X505474Y-18797D01*
X505586Y-18823D01*
X505699Y-18845D01*
X505813Y-18862D01*
X505927Y-18876D01*
X506042Y-18886D01*
X506157Y-18892D01*
X506272Y-18894D01*
X509432Y-16635D02*
X509569Y-16346D01*
X509699Y-16054D01*
X509822Y-15758D01*
X509937Y-15460D01*
X510046Y-15159D01*
X510147Y-14856D01*
X510241Y-14550D01*
X510328Y-14243D01*
X510407Y-13933D01*
X510479Y-13621D01*
X510543Y-13308D01*
X510600Y-12993D01*
X510650Y-12677D01*
X510692Y-12360D01*
X510726Y-12042D01*
X510753Y-11724D01*
X510772Y-11404D01*
X510783Y-11085D01*
X510787Y-10765D01*
X509433Y-16635D02*
X509394Y-16743D01*
X509351Y-16850D01*
X509305Y-16955D01*
X509254Y-17059D01*
X509201Y-17161D01*
X509144Y-17261D01*
X509083Y-17359D01*
X509019Y-17454D01*
X508952Y-17548D01*
X508881Y-17639D01*
X508808Y-17728D01*
X508731Y-17814D01*
X508652Y-17897D01*
X508570Y-17978D01*
X508485Y-18056D01*
X508397Y-18130D01*
X508307Y-18202D01*
X508214Y-18271D01*
X508120Y-18336D01*
X508023Y-18398D01*
X507923Y-18456D01*
X507822Y-18512D01*
X507719Y-18563D01*
X507615Y-18611D01*
X507509Y-18656D01*
X507401Y-18697D01*
X507292Y-18734D01*
X507182Y-18767D01*
X507070Y-18796D01*
X506958Y-18822D01*
X506845Y-18844D01*
X506731Y-18861D01*
X506617Y-18875D01*
X506502Y-18885D01*
X506387Y-18891D01*
X506272Y-18893D01*
X502659Y-15281D02*
X509884Y-6249D01*
X517387Y-9862D02*
X522806Y-9862D01*
X522924Y-9864D01*
X523042Y-9870D01*
X523160Y-9879D01*
X523277Y-9893D01*
X523394Y-9910D01*
X523511Y-9931D01*
X523626Y-9956D01*
X523741Y-9985D01*
X523855Y-10018D01*
X523967Y-10054D01*
X524078Y-10094D01*
X524188Y-10137D01*
X524297Y-10184D01*
X524404Y-10234D01*
X524509Y-10289D01*
X524612Y-10346D01*
X524713Y-10407D01*
X524813Y-10471D01*
X524910Y-10538D01*
X525005Y-10608D01*
X525097Y-10682D01*
X525188Y-10758D01*
X525275Y-10838D01*
X525360Y-10920D01*
X525442Y-11005D01*
X525522Y-11092D01*
X525598Y-11183D01*
X525672Y-11275D01*
X525742Y-11370D01*
X525809Y-11467D01*
X525873Y-11567D01*
X525934Y-11668D01*
X525991Y-11771D01*
X526046Y-11876D01*
X526096Y-11983D01*
X526143Y-12092D01*
X526186Y-12202D01*
X526226Y-12313D01*
X526262Y-12425D01*
X526295Y-12539D01*
X526324Y-12654D01*
X526349Y-12769D01*
X526370Y-12886D01*
X526387Y-13003D01*
X526401Y-13120D01*
X526410Y-13238D01*
X526416Y-13356D01*
X526418Y-13474D01*
X526419Y-13474D02*
X526419Y-14377D01*
X526417Y-14510D01*
X526411Y-14642D01*
X526401Y-14774D01*
X526388Y-14906D01*
X526370Y-15038D01*
X526349Y-15168D01*
X526324Y-15299D01*
X526295Y-15428D01*
X526262Y-15556D01*
X526226Y-15684D01*
X526186Y-15810D01*
X526142Y-15935D01*
X526094Y-16059D01*
X526043Y-16181D01*
X525988Y-16302D01*
X525930Y-16421D01*
X525868Y-16539D01*
X525803Y-16654D01*
X525734Y-16768D01*
X525663Y-16879D01*
X525587Y-16988D01*
X525509Y-17095D01*
X525428Y-17200D01*
X525343Y-17302D01*
X525256Y-17402D01*
X525166Y-17499D01*
X525073Y-17594D01*
X524977Y-17685D01*
X524879Y-17774D01*
X524778Y-17860D01*
X524674Y-17943D01*
X524568Y-18023D01*
X524460Y-18099D01*
X524350Y-18173D01*
X524237Y-18243D01*
X524123Y-18310D01*
X524006Y-18373D01*
X523888Y-18433D01*
X523768Y-18490D01*
X523646Y-18543D01*
X523523Y-18592D01*
X523399Y-18638D01*
X523273Y-18680D01*
X523146Y-18718D01*
X523018Y-18753D01*
X522889Y-18784D01*
X522760Y-18811D01*
X522629Y-18834D01*
X522498Y-18854D01*
X522366Y-18869D01*
X522234Y-18881D01*
X522102Y-18889D01*
X521969Y-18893D01*
X521837Y-18893D01*
X521704Y-18889D01*
X521572Y-18881D01*
X521440Y-18869D01*
X521308Y-18854D01*
X521177Y-18834D01*
X521046Y-18811D01*
X520917Y-18784D01*
X520788Y-18753D01*
X520660Y-18718D01*
X520533Y-18680D01*
X520407Y-18638D01*
X520283Y-18592D01*
X520160Y-18543D01*
X520038Y-18490D01*
X519918Y-18433D01*
X519800Y-18373D01*
X519683Y-18310D01*
X519569Y-18243D01*
X519456Y-18173D01*
X519346Y-18099D01*
X519238Y-18023D01*
X519132Y-17943D01*
X519028Y-17860D01*
X518927Y-17774D01*
X518829Y-17685D01*
X518733Y-17594D01*
X518640Y-17499D01*
X518550Y-17402D01*
X518463Y-17302D01*
X518378Y-17200D01*
X518297Y-17095D01*
X518219Y-16988D01*
X518143Y-16879D01*
X518072Y-16768D01*
X518003Y-16654D01*
X517938Y-16539D01*
X517876Y-16421D01*
X517818Y-16302D01*
X517763Y-16181D01*
X517712Y-16059D01*
X517664Y-15935D01*
X517620Y-15810D01*
X517580Y-15684D01*
X517544Y-15556D01*
X517511Y-15428D01*
X517482Y-15299D01*
X517457Y-15168D01*
X517436Y-15038D01*
X517418Y-14906D01*
X517405Y-14774D01*
X517395Y-14642D01*
X517389Y-14510D01*
X517387Y-14377D01*
X517387Y-9862D01*
X517389Y-9685D01*
X517396Y-9507D01*
X517407Y-9330D01*
X517422Y-9154D01*
X517441Y-8978D01*
X517465Y-8802D01*
X517493Y-8627D01*
X517526Y-8452D01*
X517563Y-8279D01*
X517604Y-8106D01*
X517649Y-7935D01*
X517698Y-7765D01*
X517752Y-7596D01*
X517809Y-7428D01*
X517871Y-7262D01*
X517937Y-7097D01*
X518007Y-6934D01*
X518081Y-6773D01*
X518158Y-6614D01*
X518240Y-6456D01*
X518326Y-6301D01*
X518415Y-6148D01*
X518508Y-5997D01*
X518605Y-5848D01*
X518705Y-5702D01*
X518809Y-5558D01*
X518916Y-5417D01*
X519027Y-5279D01*
X519141Y-5143D01*
X519259Y-5010D01*
X519379Y-4880D01*
X519503Y-4753D01*
X519630Y-4629D01*
X519760Y-4509D01*
X519893Y-4391D01*
X520028Y-4277D01*
X520167Y-4166D01*
X520308Y-4059D01*
X520452Y-3955D01*
X520598Y-3855D01*
X520747Y-3758D01*
X520898Y-3665D01*
X521051Y-3576D01*
X521206Y-3490D01*
X521364Y-3408D01*
X521523Y-3331D01*
X521684Y-3257D01*
X521847Y-3187D01*
X522012Y-3121D01*
X522178Y-3059D01*
X522346Y-3002D01*
X522515Y-2948D01*
X522685Y-2899D01*
X522856Y-2854D01*
X523029Y-2813D01*
X523202Y-2776D01*
X523377Y-2743D01*
X523552Y-2715D01*
X523728Y-2691D01*
X523904Y-2672D01*
X524080Y-2657D01*
X524257Y-2646D01*
X524435Y-2639D01*
X524612Y-2637D01*
D10*
X0Y647700D02*
X0Y705300D01*
X990600Y705300D02*
X990600Y673100D01*
X989950Y685800D02*
X650Y685800D01*
X26000Y688992D01*
X26000Y682608D01*
X650Y685800D01*
X26000Y687100D01*
X26000Y684500D02*
X650Y685800D01*
X26000Y688400D01*
X26000Y683200D02*
X650Y685800D01*
X964600Y688992D02*
X989950Y685800D01*
X964600Y688992D02*
X964600Y682608D01*
X989950Y685800D01*
X964600Y687100D01*
X964600Y684500D02*
X989950Y685800D01*
X964600Y688400D01*
X964600Y683200D02*
X989950Y685800D01*
D11*
X473272Y699532D02*
X467854Y699532D01*
X467736Y699534D01*
X467618Y699540D01*
X467500Y699549D01*
X467383Y699563D01*
X467266Y699580D01*
X467149Y699601D01*
X467034Y699626D01*
X466919Y699655D01*
X466805Y699688D01*
X466693Y699724D01*
X466582Y699764D01*
X466472Y699807D01*
X466363Y699854D01*
X466256Y699904D01*
X466151Y699959D01*
X466048Y700016D01*
X465947Y700077D01*
X465847Y700141D01*
X465750Y700208D01*
X465655Y700278D01*
X465563Y700352D01*
X465472Y700428D01*
X465385Y700508D01*
X465300Y700590D01*
X465218Y700675D01*
X465138Y700762D01*
X465062Y700853D01*
X464988Y700945D01*
X464918Y701040D01*
X464851Y701137D01*
X464787Y701237D01*
X464726Y701338D01*
X464669Y701441D01*
X464614Y701546D01*
X464564Y701653D01*
X464517Y701762D01*
X464474Y701872D01*
X464434Y701983D01*
X464398Y702095D01*
X464365Y702209D01*
X464336Y702324D01*
X464311Y702439D01*
X464290Y702556D01*
X464273Y702673D01*
X464259Y702790D01*
X464250Y702908D01*
X464244Y703026D01*
X464242Y703144D01*
X464241Y703144D02*
X464241Y704047D01*
X464243Y704180D01*
X464249Y704312D01*
X464259Y704444D01*
X464272Y704576D01*
X464290Y704708D01*
X464311Y704838D01*
X464336Y704969D01*
X464365Y705098D01*
X464398Y705226D01*
X464434Y705354D01*
X464474Y705480D01*
X464518Y705605D01*
X464566Y705729D01*
X464617Y705851D01*
X464672Y705972D01*
X464730Y706091D01*
X464792Y706209D01*
X464857Y706324D01*
X464926Y706438D01*
X464997Y706549D01*
X465073Y706658D01*
X465151Y706765D01*
X465232Y706870D01*
X465317Y706972D01*
X465404Y707072D01*
X465494Y707169D01*
X465587Y707264D01*
X465683Y707355D01*
X465781Y707444D01*
X465882Y707530D01*
X465986Y707613D01*
X466092Y707693D01*
X466200Y707769D01*
X466310Y707843D01*
X466423Y707913D01*
X466537Y707980D01*
X466654Y708043D01*
X466772Y708103D01*
X466892Y708160D01*
X467014Y708213D01*
X467137Y708262D01*
X467261Y708308D01*
X467387Y708350D01*
X467514Y708388D01*
X467642Y708423D01*
X467771Y708454D01*
X467900Y708481D01*
X468031Y708504D01*
X468162Y708524D01*
X468294Y708539D01*
X468426Y708551D01*
X468558Y708559D01*
X468691Y708563D01*
X468823Y708563D01*
X468956Y708559D01*
X469088Y708551D01*
X469220Y708539D01*
X469352Y708524D01*
X469483Y708504D01*
X469614Y708481D01*
X469743Y708454D01*
X469872Y708423D01*
X470000Y708388D01*
X470127Y708350D01*
X470253Y708308D01*
X470377Y708262D01*
X470500Y708213D01*
X470622Y708160D01*
X470742Y708103D01*
X470860Y708043D01*
X470977Y707980D01*
X471091Y707913D01*
X471204Y707843D01*
X471314Y707769D01*
X471422Y707693D01*
X471528Y707613D01*
X471632Y707530D01*
X471733Y707444D01*
X471831Y707355D01*
X471927Y707264D01*
X472020Y707169D01*
X472110Y707072D01*
X472197Y706972D01*
X472282Y706870D01*
X472363Y706765D01*
X472441Y706658D01*
X472517Y706549D01*
X472588Y706438D01*
X472657Y706324D01*
X472722Y706209D01*
X472784Y706091D01*
X472842Y705972D01*
X472897Y705851D01*
X472948Y705729D01*
X472996Y705605D01*
X473040Y705480D01*
X473080Y705354D01*
X473116Y705226D01*
X473149Y705098D01*
X473178Y704969D01*
X473203Y704838D01*
X473224Y704708D01*
X473242Y704576D01*
X473255Y704444D01*
X473265Y704312D01*
X473271Y704180D01*
X473273Y704047D01*
X473272Y704047D02*
X473272Y699532D01*
X473273Y699532D02*
X473271Y699357D01*
X473265Y699183D01*
X473254Y699009D01*
X473239Y698835D01*
X473220Y698661D01*
X473197Y698488D01*
X473170Y698316D01*
X473138Y698144D01*
X473103Y697973D01*
X473063Y697803D01*
X473019Y697634D01*
X472971Y697466D01*
X472919Y697299D01*
X472863Y697134D01*
X472803Y696970D01*
X472740Y696807D01*
X472672Y696647D01*
X472600Y696487D01*
X472525Y696330D01*
X472445Y696174D01*
X472362Y696021D01*
X472276Y695869D01*
X472185Y695720D01*
X472091Y695573D01*
X471994Y695428D01*
X471893Y695285D01*
X471789Y695145D01*
X471681Y695008D01*
X471570Y694873D01*
X471456Y694741D01*
X471339Y694612D01*
X471218Y694485D01*
X471095Y694362D01*
X470968Y694241D01*
X470839Y694124D01*
X470707Y694010D01*
X470572Y693899D01*
X470435Y693791D01*
X470295Y693687D01*
X470152Y693586D01*
X470007Y693489D01*
X469860Y693395D01*
X469711Y693304D01*
X469559Y693218D01*
X469406Y693135D01*
X469250Y693055D01*
X469093Y692980D01*
X468933Y692908D01*
X468773Y692840D01*
X468610Y692777D01*
X468446Y692717D01*
X468281Y692661D01*
X468114Y692609D01*
X467946Y692561D01*
X467777Y692517D01*
X467607Y692477D01*
X467436Y692442D01*
X467264Y692410D01*
X467092Y692383D01*
X466919Y692360D01*
X466745Y692341D01*
X466571Y692326D01*
X466397Y692315D01*
X466223Y692309D01*
X466048Y692307D01*
X483485Y699532D02*
X488904Y699532D01*
X483485Y699532D02*
X483367Y699534D01*
X483249Y699540D01*
X483131Y699549D01*
X483014Y699563D01*
X482897Y699580D01*
X482780Y699601D01*
X482665Y699626D01*
X482550Y699655D01*
X482436Y699688D01*
X482324Y699724D01*
X482213Y699764D01*
X482103Y699807D01*
X481994Y699854D01*
X481887Y699904D01*
X481782Y699959D01*
X481679Y700016D01*
X481578Y700077D01*
X481478Y700141D01*
X481381Y700208D01*
X481286Y700278D01*
X481194Y700352D01*
X481103Y700428D01*
X481016Y700508D01*
X480931Y700590D01*
X480849Y700675D01*
X480769Y700762D01*
X480693Y700853D01*
X480619Y700945D01*
X480549Y701040D01*
X480482Y701137D01*
X480418Y701237D01*
X480357Y701338D01*
X480300Y701441D01*
X480245Y701546D01*
X480195Y701653D01*
X480148Y701762D01*
X480105Y701872D01*
X480065Y701983D01*
X480029Y702095D01*
X479996Y702209D01*
X479967Y702324D01*
X479942Y702439D01*
X479921Y702556D01*
X479904Y702673D01*
X479890Y702790D01*
X479881Y702908D01*
X479875Y703026D01*
X479873Y703144D01*
X479873Y704047D01*
X479872Y704047D02*
X479874Y704180D01*
X479880Y704312D01*
X479890Y704444D01*
X479903Y704576D01*
X479921Y704708D01*
X479942Y704838D01*
X479967Y704969D01*
X479996Y705098D01*
X480029Y705226D01*
X480065Y705354D01*
X480105Y705480D01*
X480149Y705605D01*
X480197Y705729D01*
X480248Y705851D01*
X480303Y705972D01*
X480361Y706091D01*
X480423Y706209D01*
X480488Y706324D01*
X480557Y706438D01*
X480628Y706549D01*
X480704Y706658D01*
X480782Y706765D01*
X480863Y706870D01*
X480948Y706972D01*
X481035Y707072D01*
X481125Y707169D01*
X481218Y707264D01*
X481314Y707355D01*
X481412Y707444D01*
X481513Y707530D01*
X481617Y707613D01*
X481723Y707693D01*
X481831Y707769D01*
X481941Y707843D01*
X482054Y707913D01*
X482168Y707980D01*
X482285Y708043D01*
X482403Y708103D01*
X482523Y708160D01*
X482645Y708213D01*
X482768Y708262D01*
X482892Y708308D01*
X483018Y708350D01*
X483145Y708388D01*
X483273Y708423D01*
X483402Y708454D01*
X483531Y708481D01*
X483662Y708504D01*
X483793Y708524D01*
X483925Y708539D01*
X484057Y708551D01*
X484189Y708559D01*
X484322Y708563D01*
X484454Y708563D01*
X484587Y708559D01*
X484719Y708551D01*
X484851Y708539D01*
X484983Y708524D01*
X485114Y708504D01*
X485245Y708481D01*
X485374Y708454D01*
X485503Y708423D01*
X485631Y708388D01*
X485758Y708350D01*
X485884Y708308D01*
X486008Y708262D01*
X486131Y708213D01*
X486253Y708160D01*
X486373Y708103D01*
X486491Y708043D01*
X486608Y707980D01*
X486722Y707913D01*
X486835Y707843D01*
X486945Y707769D01*
X487053Y707693D01*
X487159Y707613D01*
X487263Y707530D01*
X487364Y707444D01*
X487462Y707355D01*
X487558Y707264D01*
X487651Y707169D01*
X487741Y707072D01*
X487828Y706972D01*
X487913Y706870D01*
X487994Y706765D01*
X488072Y706658D01*
X488148Y706549D01*
X488219Y706438D01*
X488288Y706324D01*
X488353Y706209D01*
X488415Y706091D01*
X488473Y705972D01*
X488528Y705851D01*
X488579Y705729D01*
X488627Y705605D01*
X488671Y705480D01*
X488711Y705354D01*
X488747Y705226D01*
X488780Y705098D01*
X488809Y704969D01*
X488834Y704838D01*
X488855Y704708D01*
X488873Y704576D01*
X488886Y704444D01*
X488896Y704312D01*
X488902Y704180D01*
X488904Y704047D01*
X488904Y699532D01*
X488902Y699357D01*
X488896Y699183D01*
X488885Y699009D01*
X488870Y698835D01*
X488851Y698661D01*
X488828Y698488D01*
X488801Y698316D01*
X488769Y698144D01*
X488734Y697973D01*
X488694Y697803D01*
X488650Y697634D01*
X488602Y697466D01*
X488550Y697299D01*
X488494Y697134D01*
X488434Y696970D01*
X488371Y696807D01*
X488303Y696647D01*
X488231Y696487D01*
X488156Y696330D01*
X488076Y696174D01*
X487993Y696021D01*
X487907Y695869D01*
X487816Y695720D01*
X487722Y695573D01*
X487625Y695428D01*
X487524Y695285D01*
X487420Y695145D01*
X487312Y695008D01*
X487201Y694873D01*
X487087Y694741D01*
X486970Y694612D01*
X486849Y694485D01*
X486726Y694362D01*
X486599Y694241D01*
X486470Y694124D01*
X486338Y694010D01*
X486203Y693899D01*
X486066Y693791D01*
X485926Y693687D01*
X485783Y693586D01*
X485638Y693489D01*
X485491Y693395D01*
X485342Y693304D01*
X485190Y693218D01*
X485037Y693135D01*
X484881Y693055D01*
X484724Y692980D01*
X484564Y692908D01*
X484404Y692840D01*
X484241Y692777D01*
X484077Y692717D01*
X483912Y692661D01*
X483745Y692609D01*
X483577Y692561D01*
X483408Y692517D01*
X483238Y692477D01*
X483067Y692442D01*
X482895Y692410D01*
X482723Y692383D01*
X482550Y692360D01*
X482376Y692341D01*
X482202Y692326D01*
X482028Y692315D01*
X481854Y692309D01*
X481679Y692307D01*
X494878Y692307D02*
X494878Y693210D01*
X495781Y693210D01*
X495781Y692307D01*
X494878Y692307D01*
X501756Y700435D02*
X501760Y700755D01*
X501771Y701074D01*
X501790Y701394D01*
X501817Y701712D01*
X501851Y702030D01*
X501893Y702347D01*
X501943Y702663D01*
X502000Y702978D01*
X502064Y703291D01*
X502136Y703603D01*
X502215Y703913D01*
X502302Y704220D01*
X502396Y704526D01*
X502497Y704829D01*
X502606Y705130D01*
X502721Y705428D01*
X502844Y705724D01*
X502974Y706016D01*
X503111Y706305D01*
X503111Y706306D02*
X503150Y706414D01*
X503193Y706521D01*
X503239Y706626D01*
X503290Y706730D01*
X503343Y706832D01*
X503400Y706932D01*
X503461Y707030D01*
X503525Y707125D01*
X503592Y707219D01*
X503663Y707310D01*
X503736Y707399D01*
X503813Y707485D01*
X503892Y707568D01*
X503974Y707649D01*
X504059Y707727D01*
X504147Y707801D01*
X504237Y707873D01*
X504329Y707941D01*
X504424Y708007D01*
X504521Y708069D01*
X504620Y708127D01*
X504722Y708183D01*
X504824Y708234D01*
X504929Y708282D01*
X505035Y708327D01*
X505143Y708368D01*
X505252Y708405D01*
X505362Y708438D01*
X505474Y708467D01*
X505586Y708493D01*
X505699Y708515D01*
X505813Y708532D01*
X505927Y708546D01*
X506042Y708556D01*
X506157Y708562D01*
X506272Y708564D01*
X506272Y708563D02*
X506387Y708561D01*
X506502Y708555D01*
X506617Y708545D01*
X506731Y708531D01*
X506845Y708514D01*
X506958Y708492D01*
X507070Y708466D01*
X507182Y708437D01*
X507292Y708404D01*
X507401Y708367D01*
X507509Y708326D01*
X507615Y708281D01*
X507720Y708233D01*
X507822Y708182D01*
X507923Y708126D01*
X508023Y708068D01*
X508120Y708006D01*
X508214Y707941D01*
X508307Y707872D01*
X508397Y707800D01*
X508485Y707726D01*
X508570Y707648D01*
X508652Y707567D01*
X508731Y707484D01*
X508808Y707398D01*
X508881Y707309D01*
X508952Y707218D01*
X509019Y707124D01*
X509083Y707029D01*
X509144Y706931D01*
X509201Y706831D01*
X509254Y706729D01*
X509305Y706625D01*
X509351Y706520D01*
X509394Y706413D01*
X509433Y706305D01*
X509432Y706305D02*
X509569Y706016D01*
X509699Y705724D01*
X509822Y705428D01*
X509937Y705130D01*
X510046Y704829D01*
X510147Y704526D01*
X510241Y704220D01*
X510328Y703913D01*
X510407Y703603D01*
X510479Y703291D01*
X510543Y702978D01*
X510600Y702663D01*
X510650Y702347D01*
X510692Y702030D01*
X510726Y701712D01*
X510753Y701394D01*
X510772Y701074D01*
X510783Y700755D01*
X510787Y700435D01*
X501757Y700435D02*
X501761Y700115D01*
X501772Y699796D01*
X501791Y699476D01*
X501818Y699158D01*
X501852Y698840D01*
X501894Y698523D01*
X501944Y698207D01*
X502001Y697892D01*
X502065Y697579D01*
X502137Y697267D01*
X502216Y696957D01*
X502303Y696650D01*
X502397Y696344D01*
X502498Y696041D01*
X502607Y695740D01*
X502722Y695442D01*
X502845Y695146D01*
X502975Y694854D01*
X503112Y694565D01*
X503111Y694565D02*
X503150Y694457D01*
X503193Y694350D01*
X503239Y694245D01*
X503290Y694141D01*
X503343Y694039D01*
X503400Y693939D01*
X503461Y693841D01*
X503525Y693746D01*
X503592Y693652D01*
X503663Y693561D01*
X503736Y693472D01*
X503813Y693386D01*
X503892Y693303D01*
X503974Y693222D01*
X504059Y693144D01*
X504147Y693070D01*
X504237Y692998D01*
X504330Y692929D01*
X504424Y692864D01*
X504521Y692802D01*
X504621Y692744D01*
X504722Y692688D01*
X504824Y692637D01*
X504929Y692589D01*
X505035Y692544D01*
X505143Y692503D01*
X505252Y692466D01*
X505362Y692433D01*
X505474Y692404D01*
X505586Y692378D01*
X505699Y692356D01*
X505813Y692339D01*
X505927Y692325D01*
X506042Y692315D01*
X506157Y692309D01*
X506272Y692307D01*
X509432Y694565D02*
X509569Y694854D01*
X509699Y695146D01*
X509822Y695442D01*
X509937Y695740D01*
X510046Y696041D01*
X510147Y696344D01*
X510241Y696650D01*
X510328Y696957D01*
X510407Y697267D01*
X510479Y697579D01*
X510543Y697892D01*
X510600Y698207D01*
X510650Y698523D01*
X510692Y698840D01*
X510726Y699158D01*
X510753Y699476D01*
X510772Y699796D01*
X510783Y700115D01*
X510787Y700435D01*
X509433Y694565D02*
X509394Y694457D01*
X509351Y694350D01*
X509305Y694245D01*
X509254Y694141D01*
X509201Y694039D01*
X509144Y693939D01*
X509083Y693841D01*
X509019Y693746D01*
X508952Y693652D01*
X508881Y693561D01*
X508808Y693472D01*
X508731Y693386D01*
X508652Y693303D01*
X508570Y693222D01*
X508485Y693144D01*
X508397Y693070D01*
X508307Y692998D01*
X508214Y692929D01*
X508120Y692864D01*
X508023Y692802D01*
X507923Y692744D01*
X507822Y692688D01*
X507719Y692637D01*
X507615Y692589D01*
X507509Y692544D01*
X507401Y692503D01*
X507292Y692466D01*
X507182Y692433D01*
X507070Y692404D01*
X506958Y692378D01*
X506845Y692356D01*
X506731Y692339D01*
X506617Y692325D01*
X506502Y692315D01*
X506387Y692309D01*
X506272Y692307D01*
X502659Y695919D02*
X509884Y704951D01*
X517387Y701338D02*
X522806Y701338D01*
X522924Y701336D01*
X523042Y701330D01*
X523160Y701321D01*
X523277Y701307D01*
X523394Y701290D01*
X523511Y701269D01*
X523626Y701244D01*
X523741Y701215D01*
X523855Y701182D01*
X523967Y701146D01*
X524078Y701106D01*
X524188Y701063D01*
X524297Y701016D01*
X524404Y700966D01*
X524509Y700911D01*
X524612Y700854D01*
X524713Y700793D01*
X524813Y700729D01*
X524910Y700662D01*
X525005Y700592D01*
X525097Y700518D01*
X525188Y700442D01*
X525275Y700362D01*
X525360Y700280D01*
X525442Y700195D01*
X525522Y700108D01*
X525598Y700017D01*
X525672Y699925D01*
X525742Y699830D01*
X525809Y699733D01*
X525873Y699633D01*
X525934Y699532D01*
X525991Y699429D01*
X526046Y699324D01*
X526096Y699217D01*
X526143Y699108D01*
X526186Y698998D01*
X526226Y698887D01*
X526262Y698775D01*
X526295Y698661D01*
X526324Y698546D01*
X526349Y698431D01*
X526370Y698314D01*
X526387Y698197D01*
X526401Y698080D01*
X526410Y697962D01*
X526416Y697844D01*
X526418Y697726D01*
X526419Y697726D02*
X526419Y696823D01*
X526417Y696690D01*
X526411Y696558D01*
X526401Y696426D01*
X526388Y696294D01*
X526370Y696162D01*
X526349Y696032D01*
X526324Y695901D01*
X526295Y695772D01*
X526262Y695644D01*
X526226Y695516D01*
X526186Y695390D01*
X526142Y695265D01*
X526094Y695141D01*
X526043Y695019D01*
X525988Y694898D01*
X525930Y694779D01*
X525868Y694661D01*
X525803Y694546D01*
X525734Y694432D01*
X525663Y694321D01*
X525587Y694212D01*
X525509Y694105D01*
X525428Y694000D01*
X525343Y693898D01*
X525256Y693798D01*
X525166Y693701D01*
X525073Y693606D01*
X524977Y693515D01*
X524879Y693426D01*
X524778Y693340D01*
X524674Y693257D01*
X524568Y693177D01*
X524460Y693101D01*
X524350Y693027D01*
X524237Y692957D01*
X524123Y692890D01*
X524006Y692827D01*
X523888Y692767D01*
X523768Y692710D01*
X523646Y692657D01*
X523523Y692608D01*
X523399Y692562D01*
X523273Y692520D01*
X523146Y692482D01*
X523018Y692447D01*
X522889Y692416D01*
X522760Y692389D01*
X522629Y692366D01*
X522498Y692346D01*
X522366Y692331D01*
X522234Y692319D01*
X522102Y692311D01*
X521969Y692307D01*
X521837Y692307D01*
X521704Y692311D01*
X521572Y692319D01*
X521440Y692331D01*
X521308Y692346D01*
X521177Y692366D01*
X521046Y692389D01*
X520917Y692416D01*
X520788Y692447D01*
X520660Y692482D01*
X520533Y692520D01*
X520407Y692562D01*
X520283Y692608D01*
X520160Y692657D01*
X520038Y692710D01*
X519918Y692767D01*
X519800Y692827D01*
X519683Y692890D01*
X519569Y692957D01*
X519456Y693027D01*
X519346Y693101D01*
X519238Y693177D01*
X519132Y693257D01*
X519028Y693340D01*
X518927Y693426D01*
X518829Y693515D01*
X518733Y693606D01*
X518640Y693701D01*
X518550Y693798D01*
X518463Y693898D01*
X518378Y694000D01*
X518297Y694105D01*
X518219Y694212D01*
X518143Y694321D01*
X518072Y694432D01*
X518003Y694546D01*
X517938Y694661D01*
X517876Y694779D01*
X517818Y694898D01*
X517763Y695019D01*
X517712Y695141D01*
X517664Y695265D01*
X517620Y695390D01*
X517580Y695516D01*
X517544Y695644D01*
X517511Y695772D01*
X517482Y695901D01*
X517457Y696032D01*
X517436Y696162D01*
X517418Y696294D01*
X517405Y696426D01*
X517395Y696558D01*
X517389Y696690D01*
X517387Y696823D01*
X517387Y701338D01*
X517389Y701515D01*
X517396Y701693D01*
X517407Y701870D01*
X517422Y702046D01*
X517441Y702222D01*
X517465Y702398D01*
X517493Y702573D01*
X517526Y702748D01*
X517563Y702921D01*
X517604Y703094D01*
X517649Y703265D01*
X517698Y703435D01*
X517752Y703604D01*
X517809Y703772D01*
X517871Y703938D01*
X517937Y704103D01*
X518007Y704266D01*
X518081Y704427D01*
X518158Y704586D01*
X518240Y704744D01*
X518326Y704899D01*
X518415Y705052D01*
X518508Y705203D01*
X518605Y705352D01*
X518705Y705498D01*
X518809Y705642D01*
X518916Y705783D01*
X519027Y705921D01*
X519141Y706057D01*
X519259Y706190D01*
X519379Y706320D01*
X519503Y706447D01*
X519630Y706571D01*
X519760Y706691D01*
X519893Y706809D01*
X520028Y706923D01*
X520167Y707034D01*
X520308Y707141D01*
X520452Y707245D01*
X520598Y707345D01*
X520747Y707442D01*
X520898Y707535D01*
X521051Y707624D01*
X521206Y707710D01*
X521364Y707792D01*
X521523Y707869D01*
X521684Y707943D01*
X521847Y708013D01*
X522012Y708079D01*
X522178Y708141D01*
X522346Y708198D01*
X522515Y708252D01*
X522685Y708301D01*
X522856Y708346D01*
X523029Y708387D01*
X523202Y708424D01*
X523377Y708457D01*
X523552Y708485D01*
X523728Y708509D01*
X523904Y708528D01*
X524080Y708543D01*
X524257Y708554D01*
X524435Y708561D01*
X524612Y708563D01*
D10*
X1143000Y-18600D02*
X1143000Y-63500D01*
X850900Y-63500D02*
X850900Y-18600D01*
X851550Y-38100D02*
X1142350Y-38100D01*
X1117000Y-34908D01*
X1117000Y-41292D01*
X1142350Y-38100D01*
X1117000Y-36800D01*
X1117000Y-39400D02*
X1142350Y-38100D01*
X1117000Y-35500D01*
X1117000Y-40700D02*
X1142350Y-38100D01*
X876900Y-34908D02*
X851550Y-38100D01*
X876900Y-34908D02*
X876900Y-41292D01*
X851550Y-38100D01*
X876900Y-36800D01*
X876900Y-39400D02*
X851550Y-38100D01*
X876900Y-35500D01*
X876900Y-40700D02*
X851550Y-38100D01*
D11*
X970858Y-15337D02*
X970983Y-15339D01*
X971108Y-15345D01*
X971233Y-15354D01*
X971357Y-15368D01*
X971481Y-15385D01*
X971605Y-15406D01*
X971727Y-15431D01*
X971849Y-15460D01*
X971970Y-15492D01*
X972090Y-15528D01*
X972209Y-15568D01*
X972326Y-15611D01*
X972442Y-15658D01*
X972557Y-15709D01*
X972669Y-15763D01*
X972781Y-15821D01*
X972890Y-15881D01*
X972997Y-15946D01*
X973103Y-16013D01*
X973206Y-16084D01*
X973307Y-16158D01*
X973406Y-16235D01*
X973502Y-16315D01*
X973596Y-16398D01*
X973687Y-16483D01*
X973776Y-16572D01*
X973861Y-16663D01*
X973944Y-16757D01*
X974024Y-16853D01*
X974101Y-16952D01*
X974175Y-17053D01*
X974246Y-17156D01*
X974313Y-17262D01*
X974378Y-17369D01*
X974438Y-17478D01*
X974496Y-17590D01*
X974550Y-17702D01*
X974601Y-17817D01*
X974648Y-17933D01*
X974691Y-18050D01*
X974731Y-18169D01*
X974767Y-18289D01*
X974799Y-18410D01*
X974828Y-18532D01*
X974853Y-18654D01*
X974874Y-18778D01*
X974891Y-18902D01*
X974905Y-19026D01*
X974914Y-19151D01*
X974920Y-19276D01*
X974922Y-19401D01*
X970858Y-15337D02*
X970715Y-15339D01*
X970573Y-15345D01*
X970430Y-15355D01*
X970288Y-15368D01*
X970147Y-15386D01*
X970005Y-15407D01*
X969865Y-15432D01*
X969725Y-15461D01*
X969586Y-15494D01*
X969448Y-15531D01*
X969311Y-15571D01*
X969176Y-15615D01*
X969041Y-15663D01*
X968908Y-15715D01*
X968776Y-15770D01*
X968646Y-15829D01*
X968518Y-15891D01*
X968391Y-15957D01*
X968266Y-16026D01*
X968143Y-16098D01*
X968022Y-16174D01*
X967904Y-16253D01*
X967787Y-16336D01*
X967673Y-16421D01*
X967561Y-16510D01*
X967452Y-16601D01*
X967345Y-16696D01*
X967240Y-16793D01*
X967139Y-16894D01*
X967040Y-16997D01*
X966944Y-17102D01*
X966851Y-17211D01*
X966761Y-17322D01*
X966674Y-17435D01*
X966590Y-17550D01*
X966510Y-17668D01*
X966432Y-17788D01*
X966358Y-17910D01*
X966288Y-18034D01*
X966220Y-18160D01*
X966157Y-18288D01*
X966096Y-18417D01*
X966039Y-18548D01*
X965986Y-18680D01*
X965937Y-18814D01*
X965891Y-18949D01*
X973567Y-22562D02*
X973661Y-22470D01*
X973751Y-22376D01*
X973839Y-22279D01*
X973924Y-22179D01*
X974006Y-22077D01*
X974084Y-21972D01*
X974160Y-21865D01*
X974232Y-21756D01*
X974301Y-21645D01*
X974367Y-21531D01*
X974429Y-21416D01*
X974488Y-21299D01*
X974543Y-21180D01*
X974594Y-21060D01*
X974642Y-20938D01*
X974687Y-20815D01*
X974727Y-20691D01*
X974764Y-20565D01*
X974797Y-20438D01*
X974826Y-20311D01*
X974852Y-20182D01*
X974873Y-20053D01*
X974891Y-19923D01*
X974904Y-19793D01*
X974914Y-19663D01*
X974920Y-19532D01*
X974922Y-19401D01*
X973568Y-22562D02*
X965891Y-31593D01*
X974922Y-31593D01*
X985135Y-24368D02*
X990554Y-24368D01*
X985135Y-24368D02*
X985017Y-24366D01*
X984899Y-24360D01*
X984781Y-24351D01*
X984664Y-24337D01*
X984547Y-24320D01*
X984430Y-24299D01*
X984315Y-24274D01*
X984200Y-24245D01*
X984086Y-24212D01*
X983974Y-24176D01*
X983863Y-24136D01*
X983753Y-24093D01*
X983644Y-24046D01*
X983537Y-23996D01*
X983432Y-23941D01*
X983329Y-23884D01*
X983228Y-23823D01*
X983128Y-23759D01*
X983031Y-23692D01*
X982936Y-23622D01*
X982844Y-23548D01*
X982753Y-23472D01*
X982666Y-23392D01*
X982581Y-23310D01*
X982499Y-23225D01*
X982419Y-23138D01*
X982343Y-23047D01*
X982269Y-22955D01*
X982199Y-22860D01*
X982132Y-22763D01*
X982068Y-22663D01*
X982007Y-22562D01*
X981950Y-22459D01*
X981895Y-22354D01*
X981845Y-22247D01*
X981798Y-22138D01*
X981755Y-22028D01*
X981715Y-21917D01*
X981679Y-21805D01*
X981646Y-21691D01*
X981617Y-21576D01*
X981592Y-21461D01*
X981571Y-21344D01*
X981554Y-21227D01*
X981540Y-21110D01*
X981531Y-20992D01*
X981525Y-20874D01*
X981523Y-20756D01*
X981523Y-19853D01*
X981522Y-19853D02*
X981524Y-19720D01*
X981530Y-19588D01*
X981540Y-19456D01*
X981553Y-19324D01*
X981571Y-19192D01*
X981592Y-19062D01*
X981617Y-18931D01*
X981646Y-18802D01*
X981679Y-18674D01*
X981715Y-18546D01*
X981755Y-18420D01*
X981799Y-18295D01*
X981847Y-18171D01*
X981898Y-18049D01*
X981953Y-17928D01*
X982011Y-17809D01*
X982073Y-17691D01*
X982138Y-17576D01*
X982207Y-17462D01*
X982278Y-17351D01*
X982354Y-17242D01*
X982432Y-17135D01*
X982513Y-17030D01*
X982598Y-16928D01*
X982685Y-16828D01*
X982775Y-16731D01*
X982868Y-16636D01*
X982964Y-16545D01*
X983062Y-16456D01*
X983163Y-16370D01*
X983267Y-16287D01*
X983373Y-16207D01*
X983481Y-16131D01*
X983591Y-16057D01*
X983704Y-15987D01*
X983818Y-15920D01*
X983935Y-15857D01*
X984053Y-15797D01*
X984173Y-15740D01*
X984295Y-15687D01*
X984418Y-15638D01*
X984542Y-15592D01*
X984668Y-15550D01*
X984795Y-15512D01*
X984923Y-15477D01*
X985052Y-15446D01*
X985181Y-15419D01*
X985312Y-15396D01*
X985443Y-15376D01*
X985575Y-15361D01*
X985707Y-15349D01*
X985839Y-15341D01*
X985972Y-15337D01*
X986104Y-15337D01*
X986237Y-15341D01*
X986369Y-15349D01*
X986501Y-15361D01*
X986633Y-15376D01*
X986764Y-15396D01*
X986895Y-15419D01*
X987024Y-15446D01*
X987153Y-15477D01*
X987281Y-15512D01*
X987408Y-15550D01*
X987534Y-15592D01*
X987658Y-15638D01*
X987781Y-15687D01*
X987903Y-15740D01*
X988023Y-15797D01*
X988141Y-15857D01*
X988258Y-15920D01*
X988372Y-15987D01*
X988485Y-16057D01*
X988595Y-16131D01*
X988703Y-16207D01*
X988809Y-16287D01*
X988913Y-16370D01*
X989014Y-16456D01*
X989112Y-16545D01*
X989208Y-16636D01*
X989301Y-16731D01*
X989391Y-16828D01*
X989478Y-16928D01*
X989563Y-17030D01*
X989644Y-17135D01*
X989722Y-17242D01*
X989798Y-17351D01*
X989869Y-17462D01*
X989938Y-17576D01*
X990003Y-17691D01*
X990065Y-17809D01*
X990123Y-17928D01*
X990178Y-18049D01*
X990229Y-18171D01*
X990277Y-18295D01*
X990321Y-18420D01*
X990361Y-18546D01*
X990397Y-18674D01*
X990430Y-18802D01*
X990459Y-18931D01*
X990484Y-19062D01*
X990505Y-19192D01*
X990523Y-19324D01*
X990536Y-19456D01*
X990546Y-19588D01*
X990552Y-19720D01*
X990554Y-19853D01*
X990554Y-24368D01*
X990552Y-24543D01*
X990546Y-24717D01*
X990535Y-24891D01*
X990520Y-25065D01*
X990501Y-25239D01*
X990478Y-25412D01*
X990451Y-25584D01*
X990419Y-25756D01*
X990384Y-25927D01*
X990344Y-26097D01*
X990300Y-26266D01*
X990252Y-26434D01*
X990200Y-26601D01*
X990144Y-26766D01*
X990084Y-26930D01*
X990021Y-27093D01*
X989953Y-27253D01*
X989881Y-27413D01*
X989806Y-27570D01*
X989726Y-27726D01*
X989643Y-27879D01*
X989557Y-28031D01*
X989466Y-28180D01*
X989372Y-28327D01*
X989275Y-28472D01*
X989174Y-28615D01*
X989070Y-28755D01*
X988962Y-28892D01*
X988851Y-29027D01*
X988737Y-29159D01*
X988620Y-29288D01*
X988499Y-29415D01*
X988376Y-29538D01*
X988249Y-29659D01*
X988120Y-29776D01*
X987988Y-29890D01*
X987853Y-30001D01*
X987716Y-30109D01*
X987576Y-30213D01*
X987433Y-30314D01*
X987288Y-30411D01*
X987141Y-30505D01*
X986992Y-30596D01*
X986840Y-30682D01*
X986687Y-30765D01*
X986531Y-30845D01*
X986374Y-30920D01*
X986214Y-30992D01*
X986054Y-31060D01*
X985891Y-31123D01*
X985727Y-31183D01*
X985562Y-31239D01*
X985395Y-31291D01*
X985227Y-31339D01*
X985058Y-31383D01*
X984888Y-31423D01*
X984717Y-31458D01*
X984545Y-31490D01*
X984373Y-31517D01*
X984200Y-31540D01*
X984026Y-31559D01*
X983852Y-31574D01*
X983678Y-31585D01*
X983504Y-31591D01*
X983329Y-31593D01*
X996528Y-31593D02*
X996528Y-30690D01*
X997431Y-30690D01*
X997431Y-31593D01*
X996528Y-31593D01*
X1012437Y-19401D02*
X1012435Y-19276D01*
X1012429Y-19151D01*
X1012420Y-19026D01*
X1012406Y-18902D01*
X1012389Y-18778D01*
X1012368Y-18654D01*
X1012343Y-18532D01*
X1012314Y-18410D01*
X1012282Y-18289D01*
X1012246Y-18169D01*
X1012206Y-18050D01*
X1012163Y-17933D01*
X1012116Y-17817D01*
X1012065Y-17702D01*
X1012011Y-17590D01*
X1011953Y-17478D01*
X1011893Y-17369D01*
X1011828Y-17262D01*
X1011761Y-17156D01*
X1011690Y-17053D01*
X1011616Y-16952D01*
X1011539Y-16853D01*
X1011459Y-16757D01*
X1011376Y-16663D01*
X1011291Y-16572D01*
X1011202Y-16483D01*
X1011111Y-16398D01*
X1011017Y-16315D01*
X1010921Y-16235D01*
X1010822Y-16158D01*
X1010721Y-16084D01*
X1010618Y-16013D01*
X1010512Y-15946D01*
X1010405Y-15881D01*
X1010296Y-15821D01*
X1010184Y-15763D01*
X1010072Y-15709D01*
X1009957Y-15658D01*
X1009841Y-15611D01*
X1009724Y-15568D01*
X1009605Y-15528D01*
X1009485Y-15492D01*
X1009364Y-15460D01*
X1009242Y-15431D01*
X1009120Y-15406D01*
X1008996Y-15385D01*
X1008872Y-15368D01*
X1008748Y-15354D01*
X1008623Y-15345D01*
X1008498Y-15339D01*
X1008373Y-15337D01*
X1008230Y-15339D01*
X1008088Y-15345D01*
X1007945Y-15355D01*
X1007803Y-15368D01*
X1007662Y-15386D01*
X1007520Y-15407D01*
X1007380Y-15432D01*
X1007240Y-15461D01*
X1007101Y-15494D01*
X1006963Y-15531D01*
X1006826Y-15571D01*
X1006691Y-15615D01*
X1006556Y-15663D01*
X1006423Y-15715D01*
X1006291Y-15770D01*
X1006161Y-15829D01*
X1006033Y-15891D01*
X1005906Y-15957D01*
X1005781Y-16026D01*
X1005658Y-16098D01*
X1005537Y-16174D01*
X1005419Y-16253D01*
X1005302Y-16336D01*
X1005188Y-16421D01*
X1005076Y-16510D01*
X1004967Y-16601D01*
X1004860Y-16696D01*
X1004755Y-16793D01*
X1004654Y-16894D01*
X1004555Y-16997D01*
X1004459Y-17102D01*
X1004366Y-17211D01*
X1004276Y-17322D01*
X1004189Y-17435D01*
X1004105Y-17550D01*
X1004025Y-17668D01*
X1003947Y-17788D01*
X1003873Y-17910D01*
X1003803Y-18034D01*
X1003735Y-18160D01*
X1003672Y-18288D01*
X1003611Y-18417D01*
X1003554Y-18548D01*
X1003501Y-18680D01*
X1003452Y-18814D01*
X1003406Y-18949D01*
X1011082Y-22562D02*
X1011176Y-22470D01*
X1011266Y-22376D01*
X1011354Y-22279D01*
X1011439Y-22179D01*
X1011521Y-22077D01*
X1011599Y-21972D01*
X1011675Y-21865D01*
X1011747Y-21756D01*
X1011816Y-21645D01*
X1011882Y-21531D01*
X1011944Y-21416D01*
X1012003Y-21299D01*
X1012058Y-21180D01*
X1012109Y-21060D01*
X1012157Y-20938D01*
X1012202Y-20815D01*
X1012242Y-20691D01*
X1012279Y-20565D01*
X1012312Y-20438D01*
X1012341Y-20311D01*
X1012367Y-20182D01*
X1012388Y-20053D01*
X1012406Y-19923D01*
X1012419Y-19793D01*
X1012429Y-19663D01*
X1012435Y-19532D01*
X1012437Y-19401D01*
X1011083Y-22562D02*
X1003406Y-31593D01*
X1012437Y-31593D01*
X1019037Y-18949D02*
X1023553Y-15337D01*
X1023553Y-31593D01*
X1019037Y-31593D02*
X1028069Y-31593D01*
D12*
X679196Y254000D02*
X667004Y254000D01*
X667004Y203200D02*
X679196Y203200D01*
X679196Y228600D02*
X667004Y228600D01*
D13*
X673100Y303100D03*
X682600Y281100D03*
X663600Y281100D03*
D14*
X627380Y228850D03*
X627380Y258830D03*
X627380Y282190D03*
X627380Y312170D03*
D15*
X738890Y241300D03*
X708910Y241300D03*
X738890Y279400D03*
X708910Y279400D03*
D16*
X594360Y186080D03*
X594360Y205080D03*
D14*
X635000Y112010D03*
X635000Y141990D03*
D17*
X609600Y144000D03*
X609600Y110000D03*
X584200Y110000D03*
X584200Y144000D03*
X558800Y144000D03*
X558800Y110000D03*
X533400Y110000D03*
X533400Y144000D03*
D14*
X558800Y239010D03*
X558800Y268990D03*
X558800Y289810D03*
X558800Y319790D03*
X508000Y319790D03*
X508000Y289810D03*
X508000Y268990D03*
X508000Y239010D03*
X508000Y218190D03*
X508000Y188210D03*
D18*
X633100Y381000D03*
X713100Y381000D03*
D16*
X596900Y295300D03*
X596900Y314300D03*
D19*
X733400Y304800D03*
X714400Y304800D03*
D15*
X573790Y368300D03*
X543810Y368300D03*
D20*
X726694Y154940D03*
X745998Y154940D03*
X736346Y175260D03*
X688594Y154940D03*
X707898Y154940D03*
X698246Y175260D03*
D12*
X660400Y50800D02*
X648208Y50800D01*
X648208Y25400D02*
X660400Y25400D01*
X736600Y25400D02*
X748792Y25400D01*
X748792Y50800D02*
X736600Y50800D01*
D15*
X708910Y88900D03*
X738890Y88900D03*
X611890Y63500D03*
X581910Y63500D03*
D20*
X764794Y154940D03*
X784098Y154940D03*
X774446Y175260D03*
X802894Y154940D03*
X822198Y154940D03*
X812546Y175260D03*
D21*
X546100Y419100D03*
X546100Y25400D03*
X596900Y25400D03*
X499110Y165100D03*
X584200Y419100D03*
X501650Y110490D03*
D14*
X627380Y176780D03*
X627380Y206760D03*
D22*
X825246Y279400D03*
X825246Y235204D03*
X825246Y323596D03*
D19*
X765200Y279400D03*
X784200Y279400D03*
D14*
X558800Y188210D03*
X558800Y218190D03*
D23*
X825500Y139700D03*
X787400Y139700D03*
X749300Y139700D03*
X711200Y139700D03*
D24*
X822198Y154940D02*
X825500Y151638D01*
X825500Y139700D01*
X787400Y151638D02*
X784098Y154940D01*
X787400Y151638D02*
X787400Y139700D01*
X749300Y151638D02*
X745998Y154940D01*
X749300Y151638D02*
X749300Y139700D01*
X711200Y151638D02*
X707898Y154940D01*
X711200Y151638D02*
X711200Y139700D01*
D23*
X596900Y279400D03*
D24*
X596900Y295300D01*
D23*
X657860Y111760D03*
D24*
X558800Y110000D02*
X533400Y110000D01*
X558800Y110000D02*
X584200Y110000D01*
X609600Y110000D01*
X611610Y112010D01*
X635000Y112010D01*
X657610Y112010D02*
X657860Y111760D01*
X657610Y112010D02*
X635000Y112010D01*
X502140Y110000D02*
X501650Y110490D01*
X502140Y110000D02*
X533400Y110000D01*
D23*
X749300Y381000D03*
X749300Y321310D03*
D24*
X749910Y321310D02*
X733400Y304800D01*
X749300Y321310D02*
X749910Y321310D01*
X822960Y321310D02*
X825246Y323596D01*
X822960Y321310D02*
X749300Y321310D01*
X738890Y241300D02*
X744986Y235204D01*
X825246Y235204D01*
X723900Y203200D02*
X673100Y203200D01*
X738890Y218190D02*
X738890Y241300D01*
X738890Y218190D02*
X723900Y203200D01*
X713100Y381000D02*
X749300Y381000D01*
X749910Y380390D02*
X749910Y321310D01*
X749910Y380390D02*
X749300Y381000D01*
D23*
X769620Y25400D03*
D24*
X736600Y25400D01*
D23*
X769620Y234950D03*
X722630Y204470D03*
X584200Y419100D03*
X501650Y110490D03*
X655320Y182880D03*
D24*
X628400Y177800D02*
X627380Y176780D01*
X650240Y177800D02*
X655320Y182880D01*
X650240Y177800D02*
X628400Y177800D01*
X673100Y200660D02*
X673100Y203200D01*
X673100Y200660D02*
X655320Y182880D01*
X625700Y205080D02*
X594360Y205080D01*
X625700Y205080D02*
X627380Y206760D01*
X627380Y228850D01*
X627630Y228600D01*
X673100Y228600D01*
X627380Y258830D02*
X627380Y282190D01*
X662510Y282190D01*
X663600Y281100D01*
X663600Y263500D01*
X673100Y254000D01*
X684300Y279400D02*
X708910Y279400D01*
X684300Y279400D02*
X682600Y281100D01*
X708910Y279400D02*
X708910Y241300D01*
X558800Y268990D02*
X558800Y289810D01*
X558800Y319790D02*
X508000Y319790D01*
X508000Y289810D02*
X508000Y268990D01*
X508000Y239010D02*
X508000Y218190D01*
X673100Y303100D02*
X712700Y303100D01*
X714400Y304800D01*
X596900Y368300D02*
X573790Y368300D01*
X596900Y368300D02*
X609600Y381000D01*
X633100Y381000D01*
X596900Y368300D02*
X596900Y314300D01*
X625250Y314300D01*
X627380Y312170D01*
X661900Y314300D02*
X673100Y303100D01*
X661900Y314300D02*
X625250Y314300D01*
X708910Y88900D02*
X533400Y88900D01*
X519430Y74930D01*
X483870Y74930D01*
X467360Y91440D01*
X467360Y344170D02*
X491490Y368300D01*
X543810Y368300D01*
X467360Y344170D02*
X467360Y91440D01*
X546100Y370590D02*
X546100Y419100D01*
X546100Y370590D02*
X543810Y368300D01*
D23*
X546100Y419100D03*
D24*
X774446Y175260D02*
X812546Y175260D01*
X774446Y175260D02*
X736346Y175260D01*
X698246Y175260D01*
X649740Y141990D02*
X635000Y141990D01*
X594360Y186080D02*
X560930Y186080D01*
X558800Y188210D01*
X607060Y146540D02*
X609600Y144000D01*
X558800Y144000D02*
X533400Y144000D01*
X558800Y144000D02*
X584200Y144000D01*
X596900Y144000D01*
X604520Y144000D01*
X607060Y146540D01*
X609600Y144000D02*
X632990Y144000D01*
X635000Y141990D01*
X596900Y183540D02*
X594360Y186080D01*
X596900Y183540D02*
X596900Y144000D01*
X649740Y141990D02*
X683010Y175260D01*
X698246Y175260D01*
X738890Y88900D02*
X762000Y88900D01*
X688594Y118110D02*
X688594Y154940D01*
X688594Y118110D02*
X727844Y118110D01*
X727844Y118244D02*
X762000Y118244D01*
X765944Y118244D01*
X804044Y118244D01*
X804044Y146594D01*
X802894Y147744D01*
X802894Y154940D01*
X764794Y154940D02*
X764794Y147744D01*
X765944Y146594D01*
X765944Y118244D01*
X726694Y147744D02*
X726694Y154940D01*
X726694Y147744D02*
X727844Y146594D01*
X727844Y118110D01*
X736600Y50800D02*
X762000Y50800D01*
X762000Y88900D01*
X762000Y118244D01*
X660400Y50800D02*
X647700Y50800D01*
X635000Y63500D01*
X611890Y63500D01*
X596900Y25400D02*
X660400Y25400D01*
D23*
X596900Y25400D03*
D24*
X546100Y25400D02*
X546100Y50800D01*
X558800Y63500D01*
X581910Y63500D01*
D23*
X546100Y25400D03*
D24*
X738890Y279400D02*
X765200Y279400D01*
X508000Y173990D02*
X499110Y165100D01*
X508000Y173990D02*
X508000Y188210D01*
D23*
X499110Y165100D03*
D24*
X784200Y279400D02*
X825246Y279400D01*
X558800Y239010D02*
X558800Y218190D01*
M02*
