G04 EAGLE Gerber RS-274X export*
G75*
%MOMM*%
%FSLAX34Y34*%
%LPD*%
%INSoldermask Top*%
%IPPOS*%
%AMOC8*
5,1,8,0,0,1.08239X$1,22.5*%
G01*
%ADD10C,4.000000*%
%ADD11C,1.219200*%
%ADD12R,1.000000X1.400000*%
%ADD13R,1.200000X1.800000*%
%ADD14R,1.800000X1.200000*%
%ADD15R,1.500000X1.300000*%
%ADD16R,1.800000X1.400000*%
%ADD17R,4.000000X2.500000*%
%ADD18R,1.300000X1.500000*%
%ADD19R,0.787400X0.889000*%
%ADD20C,2.540000*%
%ADD21R,5.080000X2.286000*%


D10*
X482600Y38100D03*
X482600Y419100D03*
X812800Y419100D03*
X812800Y38100D03*
D11*
X679196Y254000D02*
X667004Y254000D01*
X667004Y203200D02*
X679196Y203200D01*
X679196Y228600D02*
X667004Y228600D01*
D12*
X673100Y303100D03*
X682600Y281100D03*
X663600Y281100D03*
D13*
X627380Y228850D03*
X627380Y258830D03*
X627380Y282190D03*
X627380Y312170D03*
D14*
X738890Y241300D03*
X708910Y241300D03*
X738890Y279400D03*
X708910Y279400D03*
D15*
X594360Y186080D03*
X594360Y205080D03*
D13*
X635000Y112010D03*
X635000Y141990D03*
D16*
X609600Y144000D03*
X609600Y110000D03*
X584200Y110000D03*
X584200Y144000D03*
X558800Y144000D03*
X558800Y110000D03*
X533400Y110000D03*
X533400Y144000D03*
D13*
X558800Y239010D03*
X558800Y268990D03*
X558800Y289810D03*
X558800Y319790D03*
X508000Y319790D03*
X508000Y289810D03*
X508000Y268990D03*
X508000Y239010D03*
X508000Y218190D03*
X508000Y188210D03*
D17*
X633100Y381000D03*
X713100Y381000D03*
D15*
X596900Y295300D03*
X596900Y314300D03*
D18*
X733400Y304800D03*
X714400Y304800D03*
D14*
X573790Y368300D03*
X543810Y368300D03*
D19*
X726694Y154940D03*
X745998Y154940D03*
X736346Y175260D03*
X688594Y154940D03*
X707898Y154940D03*
X698246Y175260D03*
D11*
X660400Y50800D02*
X648208Y50800D01*
X648208Y25400D02*
X660400Y25400D01*
X736600Y25400D02*
X748792Y25400D01*
X748792Y50800D02*
X736600Y50800D01*
D14*
X708910Y88900D03*
X738890Y88900D03*
X611890Y63500D03*
X581910Y63500D03*
D19*
X764794Y154940D03*
X784098Y154940D03*
X774446Y175260D03*
X802894Y154940D03*
X822198Y154940D03*
X812546Y175260D03*
D20*
X546100Y419100D03*
X546100Y25400D03*
X596900Y25400D03*
X499110Y165100D03*
X584200Y419100D03*
X501650Y110490D03*
D13*
X627380Y176780D03*
X627380Y206760D03*
D21*
X825246Y279400D03*
X825246Y235204D03*
X825246Y323596D03*
D18*
X765200Y279400D03*
X784200Y279400D03*
D13*
X558800Y188210D03*
X558800Y218190D03*
M02*
