%
M48
M72
T01C0.01200
T02C0.01969
T03C0.03200
T04C0.03937
T05C0.04000
T06C0.05200
T07C0.05900
T08C0.06300
T09C0.11500
T10C0.15748
%
T01
X83800Y1197300
X83800Y1202300
X83800Y1207300
X88800Y1207300
X88800Y1212300
X88800Y1202300
X88800Y1197300
X93800Y1217300
X98800Y1217300
X103800Y1217300
X108800Y1217300
X113800Y1217300
X113800Y1222300
X113800Y1227300
X113800Y1232300
X118800Y1217300
X123800Y1217300
X128800Y1217300
X133800Y1217300
X138800Y1217300
X138800Y1212300
X138800Y1207300
X138800Y1202300
X138800Y1197300
X143800Y1197300
X143800Y1202300
X143800Y1207300
X143800Y1212300
X143800Y1217300
X113800Y1262300
X158800Y1477300
X158800Y1492300
X173800Y1492300
X173800Y1477300
X188800Y1477300
X188800Y1492300
X203800Y1492300
X218800Y1492300
X218800Y1477300
X233800Y1477300
X233800Y1492300
X248800Y1492300
X248800Y1477300
X263800Y1492300
X278800Y1492300
X293800Y1492300
X293800Y1477300
X308800Y1477300
X308800Y1492300
X298800Y1417300
X308800Y1407300
X308800Y1387300
X298800Y1397300
X293800Y1362300
X298800Y1342300
X303800Y1352300
X308800Y1362300
X313800Y1342300
X318800Y1352300
X323800Y1362300
X328800Y1387300
X328800Y1407300
X338800Y1397300
X338800Y1362300
X348800Y1387300
X348800Y1407300
X358800Y1397300
X368800Y1387300
X368800Y1362300
X363800Y1337300
X373800Y1327300
X383800Y1317300
X393800Y1307300
X398800Y1317300
X408800Y1322300
X413800Y1317300
X408800Y1307300
X398800Y1362300
X388800Y1387300
X378800Y1397300
X378800Y1417300
X378800Y1442300
X373800Y1437300
X368800Y1427300
X353800Y1362300
X353800Y1347300
X348800Y1297300
X353800Y1237300
X348800Y1227300
X343800Y1217300
X333800Y1227300
X328800Y1217300
X323800Y1237300
X318800Y1227300
X313800Y1217300
X313800Y1202300
X303800Y1197300
X303800Y1212300
X303800Y1227300
X308800Y1237300
X303800Y1302300
X318800Y1307300
X323800Y1327300
X328800Y1297300
X338800Y1237300
X358800Y1217300
X363800Y1227300
X368800Y1237300
X368800Y1207300
X363800Y1197300
X383800Y1362300
X403800Y1412300
X393800Y1422300
X398800Y1442300
X408800Y1387300
X413800Y1402300
X413800Y1427300
X318800Y1417300
X318800Y1397300
X288800Y1387300
X288800Y1407300
X278800Y1397300
X268800Y1387300
X268800Y1407300
X258800Y1397300
X248800Y1387300
X248800Y1407300
X238800Y1397300
X238800Y1417300
X228800Y1407300
X228800Y1387300
X218800Y1397300
X218800Y1417300
X218800Y1362300
X213800Y1352300
X223800Y1342300
X228800Y1352300
X233800Y1362300
X238800Y1342300
X243800Y1352300
X248800Y1362300
X258800Y1352300
X263800Y1362300
X278800Y1362300
X288800Y1352300
X273800Y1312300
X283800Y1302300
X253800Y1302300
X243800Y1312300
X248800Y1332300
X233800Y1302300
X213800Y1302300
X203800Y1312300
X203800Y1342300
X203800Y1362300
X193800Y1352300
X143800Y1492300
X258800Y1417300
T02
X206300Y1252300
X196300Y1267300
X193800Y1249800
X191300Y1267300
X193800Y1227300
X143800Y1319800
X143800Y1334800
X108800Y1372300
X98800Y1372300
X98800Y1407300
X108800Y1407300
X108800Y1442300
X98800Y1442300
X88800Y1442300
X78800Y1442300
X68800Y1442300
X68800Y1407300
X78800Y1407300
X88800Y1407300
X88800Y1372300
X78800Y1372300
X68800Y1372300
X58800Y1372300
X48800Y1372300
X48800Y1407300
X58800Y1407300
X58800Y1442300
X63800Y1337300
X63800Y1297300
X73800Y1297300
X83800Y1337300
X98800Y1317300
T03
X226300Y1229800
X236300Y1229800
X236300Y1199800
X226300Y1199800
T04
X258800Y1197300
X258800Y1207300
X258800Y1218550
X258800Y1228550
X191300Y1207300
X191300Y1197300
X38800Y1307300
X38800Y1317300
X38800Y1328550
X38800Y1338550
X38800Y1349800
X38800Y1359800
T05
X9300Y22300
X98300Y22300
X38800Y1268550
X38800Y1296050
X142334Y1478766
X158800Y1377300
X188800Y1337300
X188800Y1307300
X205266Y1415834
X207334Y1478766
X263800Y1337300
X263800Y1307300
X270266Y1415834
X272334Y1478266
X335266Y1415334
X338800Y1337300
X338800Y1307300
X363800Y1412300
T06
X187800Y512300
X187800Y437300
X187800Y362300
X187800Y287300
X187800Y212300
X39800Y212300
X39800Y287300
X39800Y362300
X39800Y437300
X39800Y512300
T07
X91800Y1248800
X91800Y1275050
X113800Y1275050
X113800Y1248800
X135800Y1248800
X135800Y1275050
T08
X103800Y1157300
X103800Y1107300
X103800Y1057300
X103800Y1007300
X103800Y957300
X103800Y907300
X43800Y907300
X43800Y957300
X43800Y1007300
X43800Y1057300
X43800Y1107300
X43800Y1157300
T09
X113800Y1202300
X328800Y1487300
X393800Y1432300
X393800Y1402300
X393800Y1347300
X338800Y1202300
T10
X408800Y1202300
X408800Y1487300
X43800Y1487300
M30
