G75*
%MOIN*%
%OFA0B0*%
%FSLAX25Y25*%
%IPPOS*%
%LPD*%
%AMOC8*
5,1,8,0,0,1.08239X$1,22.5*
%
%ADD10C,0.00000*%
%ADD11C,0.00400*%
%ADD12C,0.00787*%
%ADD13R,0.05000X0.45000*%
%ADD14C,0.00600*%
%ADD15C,0.00300*%
%ADD16C,0.01000*%
%ADD17C,0.00200*%
%ADD18C,0.00500*%
%ADD19R,0.02000X0.36000*%
%ADD20R,0.05000X0.05000*%
%ADD21C,0.00700*%
%ADD22R,0.15000X0.02500*%
%ADD23C,0.01600*%
%ADD24C,0.00800*%
D10*
X0028800Y1187300D02*
X0028800Y1502261D01*
X0422501Y1502261D01*
X0422501Y1187300D01*
X0028800Y1187300D01*
X0035926Y1487300D02*
X0035928Y1487493D01*
X0035935Y1487686D01*
X0035947Y1487879D01*
X0035964Y1488072D01*
X0035985Y1488264D01*
X0036011Y1488455D01*
X0036042Y1488646D01*
X0036077Y1488836D01*
X0036117Y1489025D01*
X0036162Y1489213D01*
X0036211Y1489400D01*
X0036265Y1489586D01*
X0036323Y1489770D01*
X0036386Y1489953D01*
X0036454Y1490134D01*
X0036525Y1490313D01*
X0036602Y1490491D01*
X0036682Y1490667D01*
X0036767Y1490840D01*
X0036856Y1491012D01*
X0036949Y1491181D01*
X0037046Y1491348D01*
X0037148Y1491513D01*
X0037253Y1491675D01*
X0037362Y1491834D01*
X0037476Y1491991D01*
X0037593Y1492144D01*
X0037713Y1492295D01*
X0037838Y1492443D01*
X0037966Y1492588D01*
X0038097Y1492729D01*
X0038232Y1492868D01*
X0038371Y1493003D01*
X0038512Y1493134D01*
X0038657Y1493262D01*
X0038805Y1493387D01*
X0038956Y1493507D01*
X0039109Y1493624D01*
X0039266Y1493738D01*
X0039425Y1493847D01*
X0039587Y1493952D01*
X0039752Y1494054D01*
X0039919Y1494151D01*
X0040088Y1494244D01*
X0040260Y1494333D01*
X0040433Y1494418D01*
X0040609Y1494498D01*
X0040787Y1494575D01*
X0040966Y1494646D01*
X0041147Y1494714D01*
X0041330Y1494777D01*
X0041514Y1494835D01*
X0041700Y1494889D01*
X0041887Y1494938D01*
X0042075Y1494983D01*
X0042264Y1495023D01*
X0042454Y1495058D01*
X0042645Y1495089D01*
X0042836Y1495115D01*
X0043028Y1495136D01*
X0043221Y1495153D01*
X0043414Y1495165D01*
X0043607Y1495172D01*
X0043800Y1495174D01*
X0043993Y1495172D01*
X0044186Y1495165D01*
X0044379Y1495153D01*
X0044572Y1495136D01*
X0044764Y1495115D01*
X0044955Y1495089D01*
X0045146Y1495058D01*
X0045336Y1495023D01*
X0045525Y1494983D01*
X0045713Y1494938D01*
X0045900Y1494889D01*
X0046086Y1494835D01*
X0046270Y1494777D01*
X0046453Y1494714D01*
X0046634Y1494646D01*
X0046813Y1494575D01*
X0046991Y1494498D01*
X0047167Y1494418D01*
X0047340Y1494333D01*
X0047512Y1494244D01*
X0047681Y1494151D01*
X0047848Y1494054D01*
X0048013Y1493952D01*
X0048175Y1493847D01*
X0048334Y1493738D01*
X0048491Y1493624D01*
X0048644Y1493507D01*
X0048795Y1493387D01*
X0048943Y1493262D01*
X0049088Y1493134D01*
X0049229Y1493003D01*
X0049368Y1492868D01*
X0049503Y1492729D01*
X0049634Y1492588D01*
X0049762Y1492443D01*
X0049887Y1492295D01*
X0050007Y1492144D01*
X0050124Y1491991D01*
X0050238Y1491834D01*
X0050347Y1491675D01*
X0050452Y1491513D01*
X0050554Y1491348D01*
X0050651Y1491181D01*
X0050744Y1491012D01*
X0050833Y1490840D01*
X0050918Y1490667D01*
X0050998Y1490491D01*
X0051075Y1490313D01*
X0051146Y1490134D01*
X0051214Y1489953D01*
X0051277Y1489770D01*
X0051335Y1489586D01*
X0051389Y1489400D01*
X0051438Y1489213D01*
X0051483Y1489025D01*
X0051523Y1488836D01*
X0051558Y1488646D01*
X0051589Y1488455D01*
X0051615Y1488264D01*
X0051636Y1488072D01*
X0051653Y1487879D01*
X0051665Y1487686D01*
X0051672Y1487493D01*
X0051674Y1487300D01*
X0051672Y1487107D01*
X0051665Y1486914D01*
X0051653Y1486721D01*
X0051636Y1486528D01*
X0051615Y1486336D01*
X0051589Y1486145D01*
X0051558Y1485954D01*
X0051523Y1485764D01*
X0051483Y1485575D01*
X0051438Y1485387D01*
X0051389Y1485200D01*
X0051335Y1485014D01*
X0051277Y1484830D01*
X0051214Y1484647D01*
X0051146Y1484466D01*
X0051075Y1484287D01*
X0050998Y1484109D01*
X0050918Y1483933D01*
X0050833Y1483760D01*
X0050744Y1483588D01*
X0050651Y1483419D01*
X0050554Y1483252D01*
X0050452Y1483087D01*
X0050347Y1482925D01*
X0050238Y1482766D01*
X0050124Y1482609D01*
X0050007Y1482456D01*
X0049887Y1482305D01*
X0049762Y1482157D01*
X0049634Y1482012D01*
X0049503Y1481871D01*
X0049368Y1481732D01*
X0049229Y1481597D01*
X0049088Y1481466D01*
X0048943Y1481338D01*
X0048795Y1481213D01*
X0048644Y1481093D01*
X0048491Y1480976D01*
X0048334Y1480862D01*
X0048175Y1480753D01*
X0048013Y1480648D01*
X0047848Y1480546D01*
X0047681Y1480449D01*
X0047512Y1480356D01*
X0047340Y1480267D01*
X0047167Y1480182D01*
X0046991Y1480102D01*
X0046813Y1480025D01*
X0046634Y1479954D01*
X0046453Y1479886D01*
X0046270Y1479823D01*
X0046086Y1479765D01*
X0045900Y1479711D01*
X0045713Y1479662D01*
X0045525Y1479617D01*
X0045336Y1479577D01*
X0045146Y1479542D01*
X0044955Y1479511D01*
X0044764Y1479485D01*
X0044572Y1479464D01*
X0044379Y1479447D01*
X0044186Y1479435D01*
X0043993Y1479428D01*
X0043800Y1479426D01*
X0043607Y1479428D01*
X0043414Y1479435D01*
X0043221Y1479447D01*
X0043028Y1479464D01*
X0042836Y1479485D01*
X0042645Y1479511D01*
X0042454Y1479542D01*
X0042264Y1479577D01*
X0042075Y1479617D01*
X0041887Y1479662D01*
X0041700Y1479711D01*
X0041514Y1479765D01*
X0041330Y1479823D01*
X0041147Y1479886D01*
X0040966Y1479954D01*
X0040787Y1480025D01*
X0040609Y1480102D01*
X0040433Y1480182D01*
X0040260Y1480267D01*
X0040088Y1480356D01*
X0039919Y1480449D01*
X0039752Y1480546D01*
X0039587Y1480648D01*
X0039425Y1480753D01*
X0039266Y1480862D01*
X0039109Y1480976D01*
X0038956Y1481093D01*
X0038805Y1481213D01*
X0038657Y1481338D01*
X0038512Y1481466D01*
X0038371Y1481597D01*
X0038232Y1481732D01*
X0038097Y1481871D01*
X0037966Y1482012D01*
X0037838Y1482157D01*
X0037713Y1482305D01*
X0037593Y1482456D01*
X0037476Y1482609D01*
X0037362Y1482766D01*
X0037253Y1482925D01*
X0037148Y1483087D01*
X0037046Y1483252D01*
X0036949Y1483419D01*
X0036856Y1483588D01*
X0036767Y1483760D01*
X0036682Y1483933D01*
X0036602Y1484109D01*
X0036525Y1484287D01*
X0036454Y1484466D01*
X0036386Y1484647D01*
X0036323Y1484830D01*
X0036265Y1485014D01*
X0036211Y1485200D01*
X0036162Y1485387D01*
X0036117Y1485575D01*
X0036077Y1485764D01*
X0036042Y1485954D01*
X0036011Y1486145D01*
X0035985Y1486336D01*
X0035964Y1486528D01*
X0035947Y1486721D01*
X0035935Y1486914D01*
X0035928Y1487107D01*
X0035926Y1487300D01*
X0187600Y1237500D02*
X0187602Y1237569D01*
X0187608Y1237637D01*
X0187618Y1237705D01*
X0187631Y1237772D01*
X0187649Y1237838D01*
X0187670Y1237903D01*
X0187695Y1237967D01*
X0187723Y1238029D01*
X0187755Y1238090D01*
X0187790Y1238149D01*
X0187829Y1238205D01*
X0187871Y1238260D01*
X0187916Y1238311D01*
X0187964Y1238361D01*
X0188014Y1238407D01*
X0188067Y1238450D01*
X0188123Y1238491D01*
X0188180Y1238528D01*
X0188240Y1238561D01*
X0188302Y1238592D01*
X0188365Y1238618D01*
X0188429Y1238641D01*
X0188495Y1238661D01*
X0188562Y1238676D01*
X0188629Y1238688D01*
X0188697Y1238696D01*
X0188766Y1238700D01*
X0188834Y1238700D01*
X0188903Y1238696D01*
X0188971Y1238688D01*
X0189038Y1238676D01*
X0189105Y1238661D01*
X0189171Y1238641D01*
X0189235Y1238618D01*
X0189298Y1238592D01*
X0189360Y1238561D01*
X0189420Y1238528D01*
X0189477Y1238491D01*
X0189533Y1238450D01*
X0189586Y1238407D01*
X0189636Y1238361D01*
X0189684Y1238311D01*
X0189729Y1238260D01*
X0189771Y1238205D01*
X0189810Y1238149D01*
X0189845Y1238090D01*
X0189877Y1238029D01*
X0189905Y1237967D01*
X0189930Y1237903D01*
X0189951Y1237838D01*
X0189969Y1237772D01*
X0189982Y1237705D01*
X0189992Y1237637D01*
X0189998Y1237569D01*
X0190000Y1237500D01*
X0400926Y1202300D02*
X0400928Y1202493D01*
X0400935Y1202686D01*
X0400947Y1202879D01*
X0400964Y1203072D01*
X0400985Y1203264D01*
X0401011Y1203455D01*
X0401042Y1203646D01*
X0401077Y1203836D01*
X0401117Y1204025D01*
X0401162Y1204213D01*
X0401211Y1204400D01*
X0401265Y1204586D01*
X0401323Y1204770D01*
X0401386Y1204953D01*
X0401454Y1205134D01*
X0401525Y1205313D01*
X0401602Y1205491D01*
X0401682Y1205667D01*
X0401767Y1205840D01*
X0401856Y1206012D01*
X0401949Y1206181D01*
X0402046Y1206348D01*
X0402148Y1206513D01*
X0402253Y1206675D01*
X0402362Y1206834D01*
X0402476Y1206991D01*
X0402593Y1207144D01*
X0402713Y1207295D01*
X0402838Y1207443D01*
X0402966Y1207588D01*
X0403097Y1207729D01*
X0403232Y1207868D01*
X0403371Y1208003D01*
X0403512Y1208134D01*
X0403657Y1208262D01*
X0403805Y1208387D01*
X0403956Y1208507D01*
X0404109Y1208624D01*
X0404266Y1208738D01*
X0404425Y1208847D01*
X0404587Y1208952D01*
X0404752Y1209054D01*
X0404919Y1209151D01*
X0405088Y1209244D01*
X0405260Y1209333D01*
X0405433Y1209418D01*
X0405609Y1209498D01*
X0405787Y1209575D01*
X0405966Y1209646D01*
X0406147Y1209714D01*
X0406330Y1209777D01*
X0406514Y1209835D01*
X0406700Y1209889D01*
X0406887Y1209938D01*
X0407075Y1209983D01*
X0407264Y1210023D01*
X0407454Y1210058D01*
X0407645Y1210089D01*
X0407836Y1210115D01*
X0408028Y1210136D01*
X0408221Y1210153D01*
X0408414Y1210165D01*
X0408607Y1210172D01*
X0408800Y1210174D01*
X0408993Y1210172D01*
X0409186Y1210165D01*
X0409379Y1210153D01*
X0409572Y1210136D01*
X0409764Y1210115D01*
X0409955Y1210089D01*
X0410146Y1210058D01*
X0410336Y1210023D01*
X0410525Y1209983D01*
X0410713Y1209938D01*
X0410900Y1209889D01*
X0411086Y1209835D01*
X0411270Y1209777D01*
X0411453Y1209714D01*
X0411634Y1209646D01*
X0411813Y1209575D01*
X0411991Y1209498D01*
X0412167Y1209418D01*
X0412340Y1209333D01*
X0412512Y1209244D01*
X0412681Y1209151D01*
X0412848Y1209054D01*
X0413013Y1208952D01*
X0413175Y1208847D01*
X0413334Y1208738D01*
X0413491Y1208624D01*
X0413644Y1208507D01*
X0413795Y1208387D01*
X0413943Y1208262D01*
X0414088Y1208134D01*
X0414229Y1208003D01*
X0414368Y1207868D01*
X0414503Y1207729D01*
X0414634Y1207588D01*
X0414762Y1207443D01*
X0414887Y1207295D01*
X0415007Y1207144D01*
X0415124Y1206991D01*
X0415238Y1206834D01*
X0415347Y1206675D01*
X0415452Y1206513D01*
X0415554Y1206348D01*
X0415651Y1206181D01*
X0415744Y1206012D01*
X0415833Y1205840D01*
X0415918Y1205667D01*
X0415998Y1205491D01*
X0416075Y1205313D01*
X0416146Y1205134D01*
X0416214Y1204953D01*
X0416277Y1204770D01*
X0416335Y1204586D01*
X0416389Y1204400D01*
X0416438Y1204213D01*
X0416483Y1204025D01*
X0416523Y1203836D01*
X0416558Y1203646D01*
X0416589Y1203455D01*
X0416615Y1203264D01*
X0416636Y1203072D01*
X0416653Y1202879D01*
X0416665Y1202686D01*
X0416672Y1202493D01*
X0416674Y1202300D01*
X0416672Y1202107D01*
X0416665Y1201914D01*
X0416653Y1201721D01*
X0416636Y1201528D01*
X0416615Y1201336D01*
X0416589Y1201145D01*
X0416558Y1200954D01*
X0416523Y1200764D01*
X0416483Y1200575D01*
X0416438Y1200387D01*
X0416389Y1200200D01*
X0416335Y1200014D01*
X0416277Y1199830D01*
X0416214Y1199647D01*
X0416146Y1199466D01*
X0416075Y1199287D01*
X0415998Y1199109D01*
X0415918Y1198933D01*
X0415833Y1198760D01*
X0415744Y1198588D01*
X0415651Y1198419D01*
X0415554Y1198252D01*
X0415452Y1198087D01*
X0415347Y1197925D01*
X0415238Y1197766D01*
X0415124Y1197609D01*
X0415007Y1197456D01*
X0414887Y1197305D01*
X0414762Y1197157D01*
X0414634Y1197012D01*
X0414503Y1196871D01*
X0414368Y1196732D01*
X0414229Y1196597D01*
X0414088Y1196466D01*
X0413943Y1196338D01*
X0413795Y1196213D01*
X0413644Y1196093D01*
X0413491Y1195976D01*
X0413334Y1195862D01*
X0413175Y1195753D01*
X0413013Y1195648D01*
X0412848Y1195546D01*
X0412681Y1195449D01*
X0412512Y1195356D01*
X0412340Y1195267D01*
X0412167Y1195182D01*
X0411991Y1195102D01*
X0411813Y1195025D01*
X0411634Y1194954D01*
X0411453Y1194886D01*
X0411270Y1194823D01*
X0411086Y1194765D01*
X0410900Y1194711D01*
X0410713Y1194662D01*
X0410525Y1194617D01*
X0410336Y1194577D01*
X0410146Y1194542D01*
X0409955Y1194511D01*
X0409764Y1194485D01*
X0409572Y1194464D01*
X0409379Y1194447D01*
X0409186Y1194435D01*
X0408993Y1194428D01*
X0408800Y1194426D01*
X0408607Y1194428D01*
X0408414Y1194435D01*
X0408221Y1194447D01*
X0408028Y1194464D01*
X0407836Y1194485D01*
X0407645Y1194511D01*
X0407454Y1194542D01*
X0407264Y1194577D01*
X0407075Y1194617D01*
X0406887Y1194662D01*
X0406700Y1194711D01*
X0406514Y1194765D01*
X0406330Y1194823D01*
X0406147Y1194886D01*
X0405966Y1194954D01*
X0405787Y1195025D01*
X0405609Y1195102D01*
X0405433Y1195182D01*
X0405260Y1195267D01*
X0405088Y1195356D01*
X0404919Y1195449D01*
X0404752Y1195546D01*
X0404587Y1195648D01*
X0404425Y1195753D01*
X0404266Y1195862D01*
X0404109Y1195976D01*
X0403956Y1196093D01*
X0403805Y1196213D01*
X0403657Y1196338D01*
X0403512Y1196466D01*
X0403371Y1196597D01*
X0403232Y1196732D01*
X0403097Y1196871D01*
X0402966Y1197012D01*
X0402838Y1197157D01*
X0402713Y1197305D01*
X0402593Y1197456D01*
X0402476Y1197609D01*
X0402362Y1197766D01*
X0402253Y1197925D01*
X0402148Y1198087D01*
X0402046Y1198252D01*
X0401949Y1198419D01*
X0401856Y1198588D01*
X0401767Y1198760D01*
X0401682Y1198933D01*
X0401602Y1199109D01*
X0401525Y1199287D01*
X0401454Y1199466D01*
X0401386Y1199647D01*
X0401323Y1199830D01*
X0401265Y1200014D01*
X0401211Y1200200D01*
X0401162Y1200387D01*
X0401117Y1200575D01*
X0401077Y1200764D01*
X0401042Y1200954D01*
X0401011Y1201145D01*
X0400985Y1201336D01*
X0400964Y1201528D01*
X0400947Y1201721D01*
X0400935Y1201914D01*
X0400928Y1202107D01*
X0400926Y1202300D01*
X0400926Y1487300D02*
X0400928Y1487493D01*
X0400935Y1487686D01*
X0400947Y1487879D01*
X0400964Y1488072D01*
X0400985Y1488264D01*
X0401011Y1488455D01*
X0401042Y1488646D01*
X0401077Y1488836D01*
X0401117Y1489025D01*
X0401162Y1489213D01*
X0401211Y1489400D01*
X0401265Y1489586D01*
X0401323Y1489770D01*
X0401386Y1489953D01*
X0401454Y1490134D01*
X0401525Y1490313D01*
X0401602Y1490491D01*
X0401682Y1490667D01*
X0401767Y1490840D01*
X0401856Y1491012D01*
X0401949Y1491181D01*
X0402046Y1491348D01*
X0402148Y1491513D01*
X0402253Y1491675D01*
X0402362Y1491834D01*
X0402476Y1491991D01*
X0402593Y1492144D01*
X0402713Y1492295D01*
X0402838Y1492443D01*
X0402966Y1492588D01*
X0403097Y1492729D01*
X0403232Y1492868D01*
X0403371Y1493003D01*
X0403512Y1493134D01*
X0403657Y1493262D01*
X0403805Y1493387D01*
X0403956Y1493507D01*
X0404109Y1493624D01*
X0404266Y1493738D01*
X0404425Y1493847D01*
X0404587Y1493952D01*
X0404752Y1494054D01*
X0404919Y1494151D01*
X0405088Y1494244D01*
X0405260Y1494333D01*
X0405433Y1494418D01*
X0405609Y1494498D01*
X0405787Y1494575D01*
X0405966Y1494646D01*
X0406147Y1494714D01*
X0406330Y1494777D01*
X0406514Y1494835D01*
X0406700Y1494889D01*
X0406887Y1494938D01*
X0407075Y1494983D01*
X0407264Y1495023D01*
X0407454Y1495058D01*
X0407645Y1495089D01*
X0407836Y1495115D01*
X0408028Y1495136D01*
X0408221Y1495153D01*
X0408414Y1495165D01*
X0408607Y1495172D01*
X0408800Y1495174D01*
X0408993Y1495172D01*
X0409186Y1495165D01*
X0409379Y1495153D01*
X0409572Y1495136D01*
X0409764Y1495115D01*
X0409955Y1495089D01*
X0410146Y1495058D01*
X0410336Y1495023D01*
X0410525Y1494983D01*
X0410713Y1494938D01*
X0410900Y1494889D01*
X0411086Y1494835D01*
X0411270Y1494777D01*
X0411453Y1494714D01*
X0411634Y1494646D01*
X0411813Y1494575D01*
X0411991Y1494498D01*
X0412167Y1494418D01*
X0412340Y1494333D01*
X0412512Y1494244D01*
X0412681Y1494151D01*
X0412848Y1494054D01*
X0413013Y1493952D01*
X0413175Y1493847D01*
X0413334Y1493738D01*
X0413491Y1493624D01*
X0413644Y1493507D01*
X0413795Y1493387D01*
X0413943Y1493262D01*
X0414088Y1493134D01*
X0414229Y1493003D01*
X0414368Y1492868D01*
X0414503Y1492729D01*
X0414634Y1492588D01*
X0414762Y1492443D01*
X0414887Y1492295D01*
X0415007Y1492144D01*
X0415124Y1491991D01*
X0415238Y1491834D01*
X0415347Y1491675D01*
X0415452Y1491513D01*
X0415554Y1491348D01*
X0415651Y1491181D01*
X0415744Y1491012D01*
X0415833Y1490840D01*
X0415918Y1490667D01*
X0415998Y1490491D01*
X0416075Y1490313D01*
X0416146Y1490134D01*
X0416214Y1489953D01*
X0416277Y1489770D01*
X0416335Y1489586D01*
X0416389Y1489400D01*
X0416438Y1489213D01*
X0416483Y1489025D01*
X0416523Y1488836D01*
X0416558Y1488646D01*
X0416589Y1488455D01*
X0416615Y1488264D01*
X0416636Y1488072D01*
X0416653Y1487879D01*
X0416665Y1487686D01*
X0416672Y1487493D01*
X0416674Y1487300D01*
X0416672Y1487107D01*
X0416665Y1486914D01*
X0416653Y1486721D01*
X0416636Y1486528D01*
X0416615Y1486336D01*
X0416589Y1486145D01*
X0416558Y1485954D01*
X0416523Y1485764D01*
X0416483Y1485575D01*
X0416438Y1485387D01*
X0416389Y1485200D01*
X0416335Y1485014D01*
X0416277Y1484830D01*
X0416214Y1484647D01*
X0416146Y1484466D01*
X0416075Y1484287D01*
X0415998Y1484109D01*
X0415918Y1483933D01*
X0415833Y1483760D01*
X0415744Y1483588D01*
X0415651Y1483419D01*
X0415554Y1483252D01*
X0415452Y1483087D01*
X0415347Y1482925D01*
X0415238Y1482766D01*
X0415124Y1482609D01*
X0415007Y1482456D01*
X0414887Y1482305D01*
X0414762Y1482157D01*
X0414634Y1482012D01*
X0414503Y1481871D01*
X0414368Y1481732D01*
X0414229Y1481597D01*
X0414088Y1481466D01*
X0413943Y1481338D01*
X0413795Y1481213D01*
X0413644Y1481093D01*
X0413491Y1480976D01*
X0413334Y1480862D01*
X0413175Y1480753D01*
X0413013Y1480648D01*
X0412848Y1480546D01*
X0412681Y1480449D01*
X0412512Y1480356D01*
X0412340Y1480267D01*
X0412167Y1480182D01*
X0411991Y1480102D01*
X0411813Y1480025D01*
X0411634Y1479954D01*
X0411453Y1479886D01*
X0411270Y1479823D01*
X0411086Y1479765D01*
X0410900Y1479711D01*
X0410713Y1479662D01*
X0410525Y1479617D01*
X0410336Y1479577D01*
X0410146Y1479542D01*
X0409955Y1479511D01*
X0409764Y1479485D01*
X0409572Y1479464D01*
X0409379Y1479447D01*
X0409186Y1479435D01*
X0408993Y1479428D01*
X0408800Y1479426D01*
X0408607Y1479428D01*
X0408414Y1479435D01*
X0408221Y1479447D01*
X0408028Y1479464D01*
X0407836Y1479485D01*
X0407645Y1479511D01*
X0407454Y1479542D01*
X0407264Y1479577D01*
X0407075Y1479617D01*
X0406887Y1479662D01*
X0406700Y1479711D01*
X0406514Y1479765D01*
X0406330Y1479823D01*
X0406147Y1479886D01*
X0405966Y1479954D01*
X0405787Y1480025D01*
X0405609Y1480102D01*
X0405433Y1480182D01*
X0405260Y1480267D01*
X0405088Y1480356D01*
X0404919Y1480449D01*
X0404752Y1480546D01*
X0404587Y1480648D01*
X0404425Y1480753D01*
X0404266Y1480862D01*
X0404109Y1480976D01*
X0403956Y1481093D01*
X0403805Y1481213D01*
X0403657Y1481338D01*
X0403512Y1481466D01*
X0403371Y1481597D01*
X0403232Y1481732D01*
X0403097Y1481871D01*
X0402966Y1482012D01*
X0402838Y1482157D01*
X0402713Y1482305D01*
X0402593Y1482456D01*
X0402476Y1482609D01*
X0402362Y1482766D01*
X0402253Y1482925D01*
X0402148Y1483087D01*
X0402046Y1483252D01*
X0401949Y1483419D01*
X0401856Y1483588D01*
X0401767Y1483760D01*
X0401682Y1483933D01*
X0401602Y1484109D01*
X0401525Y1484287D01*
X0401454Y1484466D01*
X0401386Y1484647D01*
X0401323Y1484830D01*
X0401265Y1485014D01*
X0401211Y1485200D01*
X0401162Y1485387D01*
X0401117Y1485575D01*
X0401077Y1485764D01*
X0401042Y1485954D01*
X0401011Y1486145D01*
X0400985Y1486336D01*
X0400964Y1486528D01*
X0400947Y1486721D01*
X0400935Y1486914D01*
X0400928Y1487107D01*
X0400926Y1487300D01*
D11*
X0401473Y1461504D02*
X0399939Y1460737D01*
X0398404Y1459202D01*
X0400706Y1459202D01*
X0401473Y1458435D01*
X0401473Y1457667D01*
X0400706Y1456900D01*
X0399171Y1456900D01*
X0398404Y1457667D01*
X0398404Y1459202D01*
X0396869Y1461504D02*
X0395335Y1461504D01*
X0396102Y1461504D02*
X0396102Y1457667D01*
X0395335Y1456900D01*
X0394567Y1456900D01*
X0393800Y1457667D01*
X0394173Y1378354D02*
X0391104Y1378354D01*
X0391104Y1373750D01*
X0394173Y1373750D01*
X0395708Y1373750D02*
X0395708Y1378354D01*
X0398777Y1373750D01*
X0398777Y1378354D01*
X0400312Y1377587D02*
X0400312Y1376819D01*
X0401079Y1376052D01*
X0402614Y1376052D01*
X0403381Y1375285D01*
X0403381Y1374517D01*
X0402614Y1373750D01*
X0401079Y1373750D01*
X0400312Y1374517D01*
X0400312Y1377587D02*
X0401079Y1378354D01*
X0402614Y1378354D01*
X0403381Y1377587D01*
X0404916Y1377587D02*
X0404916Y1374517D01*
X0405683Y1373750D01*
X0407218Y1373750D01*
X0407985Y1374517D01*
X0407985Y1377587D01*
X0407218Y1378354D01*
X0405683Y1378354D01*
X0404916Y1377587D01*
X0409520Y1378354D02*
X0411822Y1378354D01*
X0412589Y1377587D01*
X0412589Y1376052D01*
X0411822Y1375285D01*
X0409520Y1375285D01*
X0411054Y1375285D02*
X0412589Y1373750D01*
X0409520Y1373750D02*
X0409520Y1378354D01*
X0392639Y1376052D02*
X0391104Y1376052D01*
X0389569Y1375285D02*
X0389569Y1374517D01*
X0388802Y1373750D01*
X0387267Y1373750D01*
X0386500Y1374517D01*
X0387267Y1376052D02*
X0386500Y1376819D01*
X0386500Y1377587D01*
X0387267Y1378354D01*
X0388802Y1378354D01*
X0389569Y1377587D01*
X0388802Y1376052D02*
X0389569Y1375285D01*
X0388802Y1376052D02*
X0387267Y1376052D01*
X0373915Y1375600D02*
X0370846Y1375600D01*
X0369311Y1375600D02*
X0366242Y1375600D01*
X0367777Y1375600D02*
X0367777Y1380204D01*
X0366242Y1378669D01*
X0364707Y1380204D02*
X0363173Y1380204D01*
X0363940Y1380204D02*
X0363940Y1376367D01*
X0363173Y1375600D01*
X0362406Y1375600D01*
X0361638Y1376367D01*
X0363173Y1373954D02*
X0364707Y1373954D01*
X0363940Y1373954D02*
X0363940Y1370117D01*
X0363173Y1369350D01*
X0362406Y1369350D01*
X0361638Y1370117D01*
X0366242Y1369350D02*
X0369311Y1369350D01*
X0367777Y1369350D02*
X0367777Y1373954D01*
X0366242Y1372419D01*
X0370846Y1373187D02*
X0371613Y1373954D01*
X0373148Y1373954D01*
X0373915Y1373187D01*
X0370846Y1370117D01*
X0371613Y1369350D01*
X0373148Y1369350D01*
X0373915Y1370117D01*
X0373915Y1373187D01*
X0372381Y1375600D02*
X0372381Y1380204D01*
X0370846Y1378669D01*
X0370846Y1373187D02*
X0370846Y1370117D01*
X0385250Y1297104D02*
X0387552Y1297104D01*
X0388319Y1296337D01*
X0388319Y1294802D01*
X0387552Y1294035D01*
X0385250Y1294035D01*
X0386785Y1294035D02*
X0388319Y1292500D01*
X0389854Y1293267D02*
X0390621Y1292500D01*
X0392156Y1292500D01*
X0392923Y1293267D01*
X0392923Y1294802D01*
X0392156Y1295569D01*
X0391389Y1295569D01*
X0389854Y1294802D01*
X0389854Y1297104D01*
X0392923Y1297104D01*
X0394458Y1296337D02*
X0395225Y1297104D01*
X0396760Y1297104D01*
X0397527Y1296337D01*
X0394458Y1293267D01*
X0395225Y1292500D01*
X0396760Y1292500D01*
X0397527Y1293267D01*
X0397527Y1296337D01*
X0394458Y1296337D02*
X0394458Y1293267D01*
X0385250Y1292500D02*
X0385250Y1297104D01*
X0383740Y1263354D02*
X0381438Y1263354D01*
X0381438Y1258750D01*
X0381438Y1260285D02*
X0383740Y1260285D01*
X0384507Y1261052D01*
X0384507Y1262587D01*
X0383740Y1263354D01*
X0382973Y1260285D02*
X0384507Y1258750D01*
X0386042Y1261052D02*
X0389111Y1261052D01*
X0390646Y1261819D02*
X0391413Y1261052D01*
X0393715Y1261052D01*
X0393715Y1262587D02*
X0392948Y1263354D01*
X0391413Y1263354D01*
X0390646Y1262587D01*
X0390646Y1261819D01*
X0390646Y1259517D02*
X0391413Y1258750D01*
X0392948Y1258750D01*
X0393715Y1259517D01*
X0393715Y1262587D01*
X0388344Y1263354D02*
X0386042Y1261052D01*
X0388344Y1258750D02*
X0388344Y1263354D01*
X0373715Y1262587D02*
X0373715Y1261819D01*
X0372948Y1261052D01*
X0371413Y1261052D01*
X0370646Y1261819D01*
X0370646Y1262587D01*
X0371413Y1263354D01*
X0372948Y1263354D01*
X0373715Y1262587D01*
X0372948Y1261052D02*
X0373715Y1260285D01*
X0373715Y1259517D01*
X0372948Y1258750D01*
X0371413Y1258750D01*
X0370646Y1259517D01*
X0370646Y1260285D01*
X0371413Y1261052D01*
X0369111Y1261052D02*
X0366042Y1261052D01*
X0368344Y1263354D01*
X0368344Y1258750D01*
X0364507Y1258750D02*
X0362973Y1260285D01*
X0363740Y1260285D02*
X0361438Y1260285D01*
X0361438Y1258750D02*
X0361438Y1263354D01*
X0363740Y1263354D01*
X0364507Y1262587D01*
X0364507Y1261052D01*
X0363740Y1260285D01*
X0353715Y1262587D02*
X0350646Y1259517D01*
X0350646Y1258750D01*
X0348344Y1258750D02*
X0348344Y1263354D01*
X0346042Y1261052D01*
X0349111Y1261052D01*
X0350646Y1263354D02*
X0353715Y1263354D01*
X0353715Y1262587D01*
X0344507Y1262587D02*
X0344507Y1261052D01*
X0343740Y1260285D01*
X0341438Y1260285D01*
X0342973Y1260285D02*
X0344507Y1258750D01*
X0341438Y1258750D02*
X0341438Y1263354D01*
X0343740Y1263354D01*
X0344507Y1262587D01*
X0333715Y1263354D02*
X0332181Y1262587D01*
X0330646Y1261052D01*
X0332948Y1261052D01*
X0333715Y1260285D01*
X0333715Y1259517D01*
X0332948Y1258750D01*
X0331413Y1258750D01*
X0330646Y1259517D01*
X0330646Y1261052D01*
X0329111Y1261052D02*
X0326042Y1261052D01*
X0328344Y1263354D01*
X0328344Y1258750D01*
X0324507Y1258750D02*
X0322973Y1260285D01*
X0323740Y1260285D02*
X0321438Y1260285D01*
X0321438Y1258750D02*
X0321438Y1263354D01*
X0323740Y1263354D01*
X0324507Y1262587D01*
X0324507Y1261052D01*
X0323740Y1260285D01*
X0313715Y1261052D02*
X0313715Y1259517D01*
X0312948Y1258750D01*
X0311413Y1258750D01*
X0310646Y1259517D01*
X0310646Y1261052D02*
X0312181Y1261819D01*
X0312948Y1261819D01*
X0313715Y1261052D01*
X0313715Y1263354D02*
X0310646Y1263354D01*
X0310646Y1261052D01*
X0309111Y1261052D02*
X0306042Y1261052D01*
X0308344Y1263354D01*
X0308344Y1258750D01*
X0304507Y1258750D02*
X0302973Y1260285D01*
X0303740Y1260285D02*
X0301438Y1260285D01*
X0301438Y1258750D02*
X0301438Y1263354D01*
X0303740Y1263354D01*
X0304507Y1262587D01*
X0304507Y1261052D01*
X0303740Y1260285D01*
X0293715Y1261052D02*
X0290646Y1261052D01*
X0292948Y1263354D01*
X0292948Y1258750D01*
X0289111Y1261052D02*
X0286042Y1261052D01*
X0288344Y1263354D01*
X0288344Y1258750D01*
X0284507Y1258750D02*
X0282973Y1260285D01*
X0283740Y1260285D02*
X0281438Y1260285D01*
X0281438Y1258750D02*
X0281438Y1263354D01*
X0283740Y1263354D01*
X0284507Y1262587D01*
X0284507Y1261052D01*
X0283740Y1260285D01*
X0272465Y1257104D02*
X0270931Y1256337D01*
X0269396Y1254802D01*
X0271698Y1254802D01*
X0272465Y1254035D01*
X0272465Y1253267D01*
X0271698Y1252500D01*
X0270163Y1252500D01*
X0269396Y1253267D01*
X0269396Y1254802D01*
X0267861Y1254802D02*
X0267094Y1254035D01*
X0264792Y1254035D01*
X0266327Y1254035D02*
X0267861Y1252500D01*
X0267861Y1254802D02*
X0267861Y1256337D01*
X0267094Y1257104D01*
X0264792Y1257104D01*
X0264792Y1252500D01*
X0265250Y1245854D02*
X0267552Y1245854D01*
X0268319Y1245087D01*
X0268319Y1243552D01*
X0267552Y1242785D01*
X0265250Y1242785D01*
X0266785Y1242785D02*
X0268319Y1241250D01*
X0269854Y1242017D02*
X0270621Y1241250D01*
X0272156Y1241250D01*
X0272923Y1242017D01*
X0272923Y1242785D01*
X0272156Y1243552D01*
X0271389Y1243552D01*
X0272156Y1243552D02*
X0272923Y1244319D01*
X0272923Y1245087D01*
X0272156Y1245854D01*
X0270621Y1245854D01*
X0269854Y1245087D01*
X0265250Y1245854D02*
X0265250Y1241250D01*
X0274285Y1226337D02*
X0274285Y1223267D01*
X0272750Y1224802D02*
X0275819Y1224802D01*
X0277354Y1226337D02*
X0278121Y1227104D01*
X0279656Y1227104D01*
X0280423Y1226337D01*
X0280423Y1225569D01*
X0279656Y1224802D01*
X0280423Y1224035D01*
X0280423Y1223267D01*
X0279656Y1222500D01*
X0278121Y1222500D01*
X0277354Y1223267D01*
X0278889Y1224802D02*
X0279656Y1224802D01*
X0281958Y1226337D02*
X0282725Y1227104D01*
X0284260Y1227104D01*
X0285027Y1226337D01*
X0281958Y1223267D01*
X0282725Y1222500D01*
X0284260Y1222500D01*
X0285027Y1223267D01*
X0285027Y1226337D01*
X0286562Y1227104D02*
X0286562Y1224035D01*
X0288096Y1222500D01*
X0289631Y1224035D01*
X0289631Y1227104D01*
X0290881Y1208354D02*
X0290881Y1205285D01*
X0289346Y1203750D01*
X0287812Y1205285D01*
X0287812Y1208354D01*
X0286277Y1207587D02*
X0285510Y1208354D01*
X0283975Y1208354D01*
X0283208Y1207587D01*
X0286277Y1207587D02*
X0286277Y1206819D01*
X0283208Y1203750D01*
X0286277Y1203750D01*
X0281673Y1203750D02*
X0278604Y1203750D01*
X0280139Y1203750D02*
X0280139Y1208354D01*
X0278604Y1206819D01*
X0277069Y1206052D02*
X0274000Y1206052D01*
X0275535Y1207587D02*
X0275535Y1204517D01*
X0276402Y1201103D02*
X0274000Y1197500D01*
X0276402Y1197500D02*
X0274000Y1201103D01*
X0277683Y1200503D02*
X0278284Y1201103D01*
X0279485Y1201103D01*
X0280085Y1200503D01*
X0280085Y1199902D01*
X0279485Y1199302D01*
X0280085Y1198701D01*
X0280085Y1198101D01*
X0279485Y1197500D01*
X0278284Y1197500D01*
X0277683Y1198101D01*
X0278884Y1199302D02*
X0279485Y1199302D01*
X0278969Y1216000D02*
X0276567Y1216000D01*
X0277768Y1216000D02*
X0277768Y1219603D01*
X0276567Y1218402D01*
X0275286Y1219603D02*
X0272884Y1216000D01*
X0275286Y1216000D02*
X0272884Y1219603D01*
X0281958Y1223267D02*
X0281958Y1226337D01*
X0254085Y1321250D02*
X0251683Y1321250D01*
X0252884Y1321250D02*
X0252884Y1324853D01*
X0251683Y1323652D01*
X0250402Y1324253D02*
X0249802Y1324853D01*
X0248601Y1324853D01*
X0248000Y1324253D01*
X0248000Y1321851D01*
X0248601Y1321250D01*
X0249802Y1321250D01*
X0250402Y1321851D01*
X0232548Y1255965D02*
X0232548Y1252896D01*
X0230246Y1255198D01*
X0234850Y1255198D01*
X0234083Y1251361D02*
X0234850Y1250594D01*
X0234850Y1249059D01*
X0234083Y1248292D01*
X0234850Y1246757D02*
X0233315Y1245223D01*
X0233315Y1245990D02*
X0233315Y1243688D01*
X0234850Y1243688D02*
X0230246Y1243688D01*
X0230246Y1245990D01*
X0231013Y1246757D01*
X0232548Y1246757D01*
X0233315Y1245990D01*
X0231013Y1248292D02*
X0230246Y1249059D01*
X0230246Y1250594D01*
X0231013Y1251361D01*
X0231781Y1251361D01*
X0232548Y1250594D01*
X0233315Y1251361D01*
X0234083Y1251361D01*
X0232548Y1250594D02*
X0232548Y1249827D01*
X0224850Y1262042D02*
X0220246Y1262042D01*
X0220246Y1264344D01*
X0221013Y1265111D01*
X0222548Y1265111D01*
X0223315Y1264344D01*
X0223315Y1262042D01*
X0223315Y1263577D02*
X0224850Y1265111D01*
X0224850Y1266646D02*
X0224850Y1269715D01*
X0224850Y1268181D02*
X0220246Y1268181D01*
X0221781Y1266646D01*
X0209173Y1273267D02*
X0208406Y1272500D01*
X0206871Y1272500D01*
X0206104Y1273267D01*
X0206104Y1274035D01*
X0206871Y1274802D01*
X0208406Y1274802D01*
X0209173Y1274035D01*
X0209173Y1273267D01*
X0208406Y1274802D02*
X0209173Y1275569D01*
X0209173Y1276337D01*
X0208406Y1277104D01*
X0206871Y1277104D01*
X0206104Y1276337D01*
X0206104Y1275569D01*
X0206871Y1274802D01*
X0204569Y1274802D02*
X0203802Y1274035D01*
X0201500Y1274035D01*
X0203035Y1274035D02*
X0204569Y1272500D01*
X0204569Y1274802D02*
X0204569Y1276337D01*
X0203802Y1277104D01*
X0201500Y1277104D01*
X0201500Y1272500D01*
X0186673Y1273267D02*
X0186673Y1274035D01*
X0185906Y1274802D01*
X0183604Y1274802D01*
X0183604Y1273267D01*
X0184371Y1272500D01*
X0185906Y1272500D01*
X0186673Y1273267D01*
X0185139Y1276337D02*
X0183604Y1274802D01*
X0185139Y1276337D02*
X0186673Y1277104D01*
X0182069Y1276337D02*
X0181302Y1277104D01*
X0179767Y1277104D01*
X0179000Y1276337D01*
X0179000Y1273267D01*
X0179767Y1272500D01*
X0181302Y1272500D01*
X0182069Y1273267D01*
X0177469Y1319750D02*
X0175067Y1319750D01*
X0177469Y1322152D01*
X0177469Y1322753D01*
X0176868Y1323353D01*
X0175667Y1323353D01*
X0175067Y1322753D01*
X0173786Y1322753D02*
X0173185Y1323353D01*
X0171984Y1323353D01*
X0171384Y1322753D01*
X0171384Y1320351D01*
X0171984Y1319750D01*
X0173185Y1319750D01*
X0173786Y1320351D01*
X0162527Y1314604D02*
X0160992Y1313837D01*
X0159458Y1312302D01*
X0161760Y1312302D01*
X0162527Y1311535D01*
X0162527Y1310767D01*
X0161760Y1310000D01*
X0160225Y1310000D01*
X0159458Y1310767D01*
X0159458Y1312302D01*
X0157923Y1313069D02*
X0157156Y1312302D01*
X0157923Y1311535D01*
X0157923Y1310767D01*
X0157156Y1310000D01*
X0155621Y1310000D01*
X0154854Y1310767D01*
X0153319Y1310000D02*
X0151785Y1311535D01*
X0152552Y1311535D02*
X0150250Y1311535D01*
X0150250Y1310000D02*
X0150250Y1314604D01*
X0152552Y1314604D01*
X0153319Y1313837D01*
X0153319Y1312302D01*
X0152552Y1311535D01*
X0154854Y1313837D02*
X0155621Y1314604D01*
X0157156Y1314604D01*
X0157923Y1313837D01*
X0157923Y1313069D01*
X0157156Y1312302D02*
X0156389Y1312302D01*
X0156791Y1326250D02*
X0154723Y1326250D01*
X0156791Y1328318D01*
X0156791Y1328836D01*
X0156274Y1329353D01*
X0155240Y1329353D01*
X0154723Y1328836D01*
X0153568Y1328836D02*
X0153051Y1329353D01*
X0151500Y1329353D01*
X0151500Y1326250D01*
X0153051Y1326250D01*
X0153568Y1326767D01*
X0153568Y1328836D01*
X0153277Y1341500D02*
X0155346Y1341500D01*
X0154311Y1341500D02*
X0154311Y1344603D01*
X0153277Y1343568D01*
X0152123Y1344086D02*
X0151606Y1344603D01*
X0150055Y1344603D01*
X0150055Y1341500D01*
X0151606Y1341500D01*
X0152123Y1342017D01*
X0152123Y1344086D01*
X0150114Y1387500D02*
X0148579Y1387500D01*
X0147812Y1388267D01*
X0147812Y1389035D01*
X0148579Y1389802D01*
X0150114Y1389802D01*
X0150881Y1389035D01*
X0150881Y1388267D01*
X0150114Y1387500D01*
X0150114Y1389802D02*
X0150881Y1390569D01*
X0150881Y1391337D01*
X0150114Y1392104D01*
X0148579Y1392104D01*
X0147812Y1391337D01*
X0147812Y1390569D01*
X0148579Y1389802D01*
X0146277Y1387500D02*
X0143208Y1387500D01*
X0144742Y1387500D02*
X0144742Y1392104D01*
X0143208Y1390569D01*
X0141673Y1391337D02*
X0138604Y1388267D01*
X0139371Y1387500D01*
X0140906Y1387500D01*
X0141673Y1388267D01*
X0141673Y1391337D01*
X0140906Y1392104D01*
X0139371Y1392104D01*
X0138604Y1391337D01*
X0138604Y1388267D01*
X0137069Y1387500D02*
X0134000Y1387500D01*
X0137069Y1390569D01*
X0137069Y1391337D01*
X0136302Y1392104D01*
X0134767Y1392104D01*
X0134000Y1391337D01*
X0134000Y1395000D02*
X0134000Y1399604D01*
X0137069Y1395000D01*
X0137069Y1399604D01*
X0138604Y1397302D02*
X0138604Y1395767D01*
X0139371Y1395000D01*
X0140906Y1395000D01*
X0141673Y1395767D01*
X0141673Y1397302D01*
X0140906Y1398069D01*
X0139371Y1398069D01*
X0138604Y1397302D01*
X0143208Y1398069D02*
X0144742Y1395000D01*
X0146277Y1398069D01*
X0147812Y1397302D02*
X0148579Y1398069D01*
X0150114Y1398069D01*
X0150881Y1397302D01*
X0150881Y1396535D01*
X0147812Y1396535D01*
X0147812Y1397302D02*
X0147812Y1395767D01*
X0148579Y1395000D01*
X0150114Y1395000D01*
X0152416Y1395000D02*
X0152416Y1398069D01*
X0153183Y1398069D01*
X0153950Y1397302D01*
X0154718Y1398069D01*
X0155485Y1397302D01*
X0155485Y1395000D01*
X0157020Y1395000D02*
X0159322Y1395000D01*
X0160089Y1395767D01*
X0160089Y1397302D01*
X0159322Y1398069D01*
X0157020Y1398069D01*
X0157020Y1399604D02*
X0157020Y1395000D01*
X0153950Y1395000D02*
X0153950Y1397302D01*
X0147812Y1402500D02*
X0149346Y1405569D01*
X0146277Y1405569D02*
X0147812Y1402500D01*
X0144742Y1402500D02*
X0143208Y1402500D01*
X0143975Y1402500D02*
X0143975Y1405569D01*
X0143208Y1405569D01*
X0141673Y1405569D02*
X0140139Y1402500D01*
X0138604Y1405569D01*
X0137069Y1402500D02*
X0134000Y1402500D01*
X0134000Y1407104D01*
X0134767Y1410000D02*
X0134000Y1410767D01*
X0134767Y1410000D02*
X0136302Y1410000D01*
X0137069Y1410767D01*
X0137069Y1411535D01*
X0136302Y1412302D01*
X0134767Y1412302D01*
X0134000Y1413069D01*
X0134000Y1413837D01*
X0134767Y1414604D01*
X0136302Y1414604D01*
X0137069Y1413837D01*
X0138604Y1413069D02*
X0138604Y1410767D01*
X0139371Y1410000D01*
X0140139Y1410767D01*
X0140906Y1410000D01*
X0141673Y1410767D01*
X0141673Y1413069D01*
X0143208Y1413069D02*
X0143975Y1413069D01*
X0143975Y1410000D01*
X0143208Y1410000D02*
X0144742Y1410000D01*
X0143975Y1407871D02*
X0143975Y1407104D01*
X0147044Y1410767D02*
X0147044Y1413837D01*
X0146277Y1413069D02*
X0147812Y1413069D01*
X0149346Y1412302D02*
X0149346Y1410767D01*
X0150114Y1410000D01*
X0152416Y1410000D01*
X0153950Y1410000D02*
X0153950Y1414604D01*
X0154718Y1413069D02*
X0156252Y1413069D01*
X0157020Y1412302D01*
X0157020Y1410000D01*
X0154718Y1413069D02*
X0153950Y1412302D01*
X0152416Y1413069D02*
X0150114Y1413069D01*
X0149346Y1412302D01*
X0147044Y1410767D02*
X0147812Y1410000D01*
X0143975Y1414604D02*
X0143975Y1415371D01*
X0143975Y1417500D02*
X0141673Y1417500D01*
X0141673Y1422104D01*
X0143975Y1422104D01*
X0144742Y1421337D01*
X0144742Y1420569D01*
X0143975Y1419802D01*
X0141673Y1419802D01*
X0140139Y1419802D02*
X0138604Y1419802D01*
X0140139Y1419802D02*
X0140139Y1418267D01*
X0139371Y1417500D01*
X0137837Y1417500D01*
X0137069Y1418267D01*
X0137069Y1421337D01*
X0137837Y1422104D01*
X0139371Y1422104D01*
X0140139Y1421337D01*
X0141673Y1425000D02*
X0141673Y1429604D01*
X0140139Y1428069D01*
X0138604Y1429604D01*
X0138604Y1425000D01*
X0137069Y1425000D02*
X0134000Y1425000D01*
X0134000Y1429604D01*
X0137069Y1429604D01*
X0135535Y1427302D02*
X0134000Y1427302D01*
X0134000Y1422104D02*
X0135535Y1422104D01*
X0134767Y1422104D02*
X0134767Y1417500D01*
X0134000Y1417500D02*
X0135535Y1417500D01*
X0143975Y1417500D02*
X0144742Y1418267D01*
X0144742Y1419035D01*
X0143975Y1419802D01*
X0146277Y1422104D02*
X0149346Y1422104D01*
X0147812Y1422104D02*
X0147812Y1417500D01*
X0149346Y1425000D02*
X0149346Y1429604D01*
X0147812Y1429604D02*
X0150881Y1429604D01*
X0146277Y1428069D02*
X0146277Y1425000D01*
X0146277Y1427302D02*
X0143208Y1427302D01*
X0143208Y1428069D02*
X0144742Y1429604D01*
X0146277Y1428069D01*
X0143208Y1428069D02*
X0143208Y1425000D01*
X0162391Y1398069D02*
X0163926Y1398069D01*
X0164693Y1397302D01*
X0164693Y1396535D01*
X0161624Y1396535D01*
X0161624Y1397302D02*
X0162391Y1398069D01*
X0161624Y1397302D02*
X0161624Y1395767D01*
X0162391Y1395000D01*
X0163926Y1395000D01*
X0166227Y1395000D02*
X0166227Y1398069D01*
X0166227Y1396535D02*
X0167762Y1398069D01*
X0168529Y1398069D01*
X0157143Y1282822D02*
X0158771Y1281194D01*
X0158771Y1280109D01*
X0157686Y1279024D01*
X0156600Y1279024D01*
X0154973Y1280652D01*
X0156058Y1279566D02*
X0156058Y1277396D01*
X0157143Y1276311D02*
X0159313Y1274141D01*
X0158228Y1275226D02*
X0161484Y1278481D01*
X0159313Y1278481D01*
X0162026Y1274683D02*
X0164196Y1272513D01*
X0162026Y1271428D02*
X0165282Y1274683D01*
X0162026Y1274683D01*
X0160448Y1258354D02*
X0158913Y1258354D01*
X0158146Y1257587D01*
X0156611Y1257587D02*
X0156611Y1256052D01*
X0155844Y1255285D01*
X0153542Y1255285D01*
X0155077Y1255285D02*
X0156611Y1253750D01*
X0158146Y1253750D02*
X0161215Y1256819D01*
X0161215Y1257587D01*
X0160448Y1258354D01*
X0156611Y1257587D02*
X0155844Y1258354D01*
X0153542Y1258354D01*
X0153542Y1253750D01*
X0158146Y1253750D02*
X0161215Y1253750D01*
X0153887Y1279566D02*
X0157143Y1282822D01*
X0171496Y1213985D02*
X0171496Y1210916D01*
X0176100Y1210916D01*
X0176100Y1213985D01*
X0173798Y1212450D02*
X0173798Y1210916D01*
X0174565Y1209381D02*
X0173798Y1208614D01*
X0173798Y1207079D01*
X0173031Y1206312D01*
X0172263Y1206312D01*
X0171496Y1207079D01*
X0171496Y1208614D01*
X0172263Y1209381D01*
X0174565Y1209381D02*
X0175333Y1209381D01*
X0176100Y1208614D01*
X0176100Y1207079D01*
X0175333Y1206312D01*
X0176100Y1204777D02*
X0176100Y1201708D01*
X0171496Y1201708D01*
X0171496Y1200173D02*
X0175333Y1200173D01*
X0176100Y1199406D01*
X0176100Y1197871D01*
X0175333Y1197104D01*
X0171496Y1197104D01*
X0172263Y1195569D02*
X0173798Y1195569D01*
X0174565Y1194802D01*
X0174565Y1192500D01*
X0176100Y1192500D02*
X0171496Y1192500D01*
X0171496Y1194802D01*
X0172263Y1195569D01*
X0122833Y1318688D02*
X0123600Y1319456D01*
X0123600Y1320990D01*
X0122833Y1321757D01*
X0123600Y1323292D02*
X0123600Y1326361D01*
X0123600Y1324827D02*
X0118996Y1324827D01*
X0120531Y1323292D01*
X0119763Y1321757D02*
X0118996Y1320990D01*
X0118996Y1319456D01*
X0119763Y1318688D01*
X0122833Y1318688D01*
X0122833Y1327896D02*
X0123600Y1328663D01*
X0123600Y1330198D01*
X0122833Y1330965D01*
X0122065Y1330965D01*
X0121298Y1330198D01*
X0121298Y1327896D01*
X0122833Y1327896D01*
X0121298Y1327896D02*
X0119763Y1329431D01*
X0118996Y1330965D01*
X0116698Y1307104D02*
X0114396Y1304802D01*
X0117465Y1304802D01*
X0116698Y1302500D02*
X0116698Y1307104D01*
X0112861Y1306337D02*
X0112861Y1304802D01*
X0112094Y1304035D01*
X0109792Y1304035D01*
X0111327Y1304035D02*
X0112861Y1302500D01*
X0109792Y1302500D02*
X0109792Y1307104D01*
X0112094Y1307104D01*
X0112861Y1306337D01*
X0105510Y1355000D02*
X0103975Y1355000D01*
X0103208Y1355767D01*
X0101673Y1355000D02*
X0098604Y1355000D01*
X0100139Y1355000D02*
X0100139Y1359604D01*
X0098604Y1358069D01*
X0097069Y1357302D02*
X0096302Y1356535D01*
X0094000Y1356535D01*
X0095535Y1356535D02*
X0097069Y1355000D01*
X0097069Y1357302D02*
X0097069Y1358837D01*
X0096302Y1359604D01*
X0094000Y1359604D01*
X0094000Y1355000D01*
X0090027Y1357017D02*
X0089260Y1356250D01*
X0087725Y1356250D01*
X0086958Y1357017D01*
X0090027Y1360087D01*
X0090027Y1357017D01*
X0086958Y1357017D02*
X0086958Y1360087D01*
X0087725Y1360854D01*
X0089260Y1360854D01*
X0090027Y1360087D01*
X0085423Y1360087D02*
X0084656Y1360854D01*
X0083121Y1360854D01*
X0082354Y1360087D01*
X0080819Y1360087D02*
X0080052Y1360854D01*
X0078517Y1360854D01*
X0077750Y1360087D01*
X0077750Y1357017D01*
X0078517Y1356250D01*
X0080052Y1356250D01*
X0080819Y1357017D01*
X0082354Y1356250D02*
X0085423Y1359319D01*
X0085423Y1360087D01*
X0085423Y1356250D02*
X0082354Y1356250D01*
X0071277Y1357017D02*
X0071277Y1360087D01*
X0070510Y1360854D01*
X0068975Y1360854D01*
X0068208Y1360087D01*
X0068208Y1359319D01*
X0068975Y1358552D01*
X0071277Y1358552D01*
X0071277Y1357017D02*
X0070510Y1356250D01*
X0068975Y1356250D01*
X0068208Y1357017D01*
X0066673Y1356250D02*
X0063604Y1356250D01*
X0065139Y1356250D02*
X0065139Y1360854D01*
X0063604Y1359319D01*
X0062069Y1360087D02*
X0061302Y1360854D01*
X0059767Y1360854D01*
X0059000Y1360087D01*
X0059000Y1357017D01*
X0059767Y1356250D01*
X0061302Y1356250D01*
X0062069Y1357017D01*
X0057350Y1357277D02*
X0055815Y1355742D01*
X0055815Y1356510D02*
X0055815Y1354208D01*
X0057350Y1354208D02*
X0052746Y1354208D01*
X0052746Y1356510D01*
X0053513Y1357277D01*
X0055048Y1357277D01*
X0055815Y1356510D01*
X0055815Y1358812D02*
X0055815Y1361114D01*
X0055048Y1361881D01*
X0053513Y1361881D01*
X0052746Y1361114D01*
X0052746Y1358812D01*
X0057350Y1358812D01*
X0055815Y1360346D02*
X0057350Y1361881D01*
X0056583Y1352673D02*
X0052746Y1352673D01*
X0052746Y1349604D02*
X0056583Y1349604D01*
X0057350Y1350371D01*
X0057350Y1351906D01*
X0056583Y1352673D01*
X0056583Y1348069D02*
X0057350Y1347302D01*
X0057350Y1345767D01*
X0056583Y1345000D01*
X0053513Y1345000D01*
X0052746Y1345767D01*
X0052746Y1347302D01*
X0053513Y1348069D01*
X0048850Y1350134D02*
X0045247Y1352536D01*
X0047048Y1353817D02*
X0045847Y1355018D01*
X0045247Y1356219D01*
X0047048Y1355618D02*
X0047048Y1353817D01*
X0048249Y1353817D01*
X0048850Y1354417D01*
X0048850Y1355618D01*
X0048249Y1356219D01*
X0047649Y1356219D01*
X0047048Y1355618D01*
X0048850Y1352536D02*
X0045247Y1350134D01*
X0046497Y1333719D02*
X0046497Y1331317D01*
X0048298Y1331317D01*
X0047698Y1332518D01*
X0047698Y1333118D01*
X0048298Y1333719D01*
X0049499Y1333719D01*
X0050100Y1333118D01*
X0050100Y1331917D01*
X0049499Y1331317D01*
X0050100Y1330036D02*
X0046497Y1327634D01*
X0046497Y1330036D02*
X0050100Y1327634D01*
X0052746Y1329889D02*
X0057350Y1329889D01*
X0057350Y1331423D02*
X0057350Y1328354D01*
X0055048Y1326819D02*
X0055048Y1323750D01*
X0053513Y1325285D02*
X0056583Y1325285D01*
X0054281Y1328354D02*
X0052746Y1329889D01*
X0053513Y1332958D02*
X0052746Y1333725D01*
X0052746Y1335260D01*
X0053513Y1336027D01*
X0054281Y1336027D01*
X0057350Y1332958D01*
X0057350Y1336027D01*
X0055815Y1337562D02*
X0057350Y1339096D01*
X0055815Y1340631D01*
X0052746Y1340631D01*
X0052746Y1337562D02*
X0055815Y1337562D01*
X0057350Y1318304D02*
X0057350Y1315235D01*
X0052746Y1315235D01*
X0054281Y1313700D02*
X0057350Y1313700D01*
X0055048Y1313700D02*
X0055048Y1310631D01*
X0054281Y1310631D02*
X0052746Y1312166D01*
X0054281Y1313700D01*
X0054281Y1310631D02*
X0057350Y1310631D01*
X0057350Y1309096D02*
X0052746Y1309096D01*
X0050100Y1310036D02*
X0046497Y1307634D01*
X0046497Y1310036D02*
X0050100Y1307634D01*
X0052746Y1306027D02*
X0057350Y1309096D01*
X0057350Y1306027D02*
X0052746Y1306027D01*
X0053513Y1304492D02*
X0052746Y1303725D01*
X0052746Y1302191D01*
X0053513Y1301423D01*
X0056583Y1301423D01*
X0057350Y1302191D01*
X0057350Y1303725D01*
X0056583Y1304492D01*
X0055048Y1304492D01*
X0055048Y1302958D01*
X0052746Y1299889D02*
X0052746Y1298354D01*
X0052746Y1299121D02*
X0057350Y1299121D01*
X0057350Y1298354D02*
X0057350Y1299889D01*
X0056583Y1296819D02*
X0057350Y1296052D01*
X0057350Y1294517D01*
X0056583Y1293750D01*
X0055048Y1294517D02*
X0055048Y1296052D01*
X0055815Y1296819D01*
X0056583Y1296819D01*
X0055048Y1294517D02*
X0054281Y1293750D01*
X0053513Y1293750D01*
X0052746Y1294517D01*
X0052746Y1296052D01*
X0053513Y1296819D01*
X0048298Y1311317D02*
X0048298Y1313719D01*
X0046497Y1313118D02*
X0048298Y1311317D01*
X0046497Y1313118D02*
X0050100Y1313118D01*
X0050646Y1280854D02*
X0050646Y1277785D01*
X0052181Y1276250D01*
X0053715Y1277785D01*
X0053715Y1280854D01*
X0049111Y1280854D02*
X0049111Y1276250D01*
X0049111Y1278552D02*
X0046042Y1278552D01*
X0046042Y1276250D02*
X0046042Y1280854D01*
X0042531Y1258502D02*
X0041020Y1258235D01*
X0040398Y1257346D01*
X0040531Y1256591D01*
X0041420Y1255968D01*
X0042931Y1256235D01*
X0043820Y1255612D01*
X0043953Y1254857D01*
X0043331Y1253968D01*
X0041819Y1253701D01*
X0040931Y1254324D01*
X0040797Y1255079D01*
X0041420Y1255968D01*
X0042931Y1256235D02*
X0043553Y1257124D01*
X0043420Y1257879D01*
X0042531Y1258502D01*
X0038886Y1257080D02*
X0039020Y1256324D01*
X0038397Y1255435D01*
X0039286Y1254813D01*
X0039419Y1254057D01*
X0038797Y1253168D01*
X0037286Y1252902D01*
X0036397Y1253524D01*
X0035019Y1252502D02*
X0033241Y1253747D01*
X0033996Y1253880D02*
X0031729Y1253481D01*
X0031996Y1251969D02*
X0031196Y1256503D01*
X0033463Y1256903D01*
X0034352Y1256281D01*
X0034619Y1254769D01*
X0033996Y1253880D01*
X0035864Y1256547D02*
X0036486Y1257436D01*
X0037997Y1257702D01*
X0038886Y1257080D01*
X0038397Y1255435D02*
X0037641Y1255302D01*
X0033167Y1232428D02*
X0035434Y1232029D01*
X0036056Y1231140D01*
X0035790Y1229628D01*
X0034901Y1229006D01*
X0032634Y1229406D01*
X0034145Y1229139D02*
X0035390Y1227361D01*
X0037034Y1227850D02*
X0037657Y1226962D01*
X0039168Y1226695D01*
X0040057Y1227317D01*
X0040190Y1228073D01*
X0039568Y1228962D01*
X0038812Y1229095D01*
X0039568Y1228962D02*
X0040457Y1229584D01*
X0040590Y1230340D01*
X0039968Y1231229D01*
X0038456Y1231496D01*
X0037567Y1230873D01*
X0042101Y1230074D02*
X0041968Y1229318D01*
X0042591Y1228429D01*
X0044858Y1228029D01*
X0044591Y1226518D02*
X0045124Y1229541D01*
X0044502Y1230430D01*
X0042990Y1230696D01*
X0042101Y1230074D01*
X0041568Y1227051D02*
X0042191Y1226162D01*
X0043702Y1225896D01*
X0044591Y1226518D01*
X0041700Y1225487D02*
X0042499Y1220953D01*
X0040988Y1220686D02*
X0044011Y1221219D01*
X0040455Y1223709D02*
X0041700Y1225487D01*
X0037921Y1224821D02*
X0038721Y1220287D01*
X0039077Y1222687D02*
X0036054Y1222154D01*
X0037921Y1224821D01*
X0034276Y1223399D02*
X0034543Y1221887D01*
X0033920Y1220999D01*
X0031653Y1220599D01*
X0031920Y1219087D02*
X0031120Y1223621D01*
X0033387Y1224021D01*
X0034276Y1223399D01*
X0033165Y1220865D02*
X0034943Y1219620D01*
X0032367Y1227894D02*
X0033167Y1232428D01*
X0034417Y1198678D02*
X0033617Y1194144D01*
X0033884Y1195656D02*
X0036151Y1195256D01*
X0037040Y1195878D01*
X0037306Y1197390D01*
X0036684Y1198279D01*
X0034417Y1198678D01*
X0035395Y1195389D02*
X0036640Y1193611D01*
X0038551Y1195612D02*
X0041574Y1195079D01*
X0043351Y1196324D02*
X0044240Y1196946D01*
X0045752Y1196680D01*
X0046374Y1195791D01*
X0046241Y1195035D01*
X0042685Y1192545D01*
X0045708Y1192012D01*
X0040418Y1192945D02*
X0041218Y1197479D01*
X0038551Y1195612D01*
X0056384Y1191906D02*
X0058651Y1191506D01*
X0059540Y1192128D01*
X0059806Y1193640D01*
X0059184Y1194529D01*
X0056917Y1194928D01*
X0056117Y1190394D01*
X0057895Y1191639D02*
X0059140Y1189861D01*
X0061051Y1191862D02*
X0064074Y1191329D01*
X0065851Y1192574D02*
X0066740Y1193196D01*
X0068252Y1192930D01*
X0068874Y1192041D01*
X0068741Y1191285D01*
X0067852Y1190663D01*
X0068474Y1189774D01*
X0068341Y1189018D01*
X0067452Y1188396D01*
X0065941Y1188662D01*
X0065318Y1189551D01*
X0067096Y1190796D02*
X0067852Y1190663D01*
X0063718Y1193729D02*
X0061051Y1191862D01*
X0062918Y1189195D02*
X0063718Y1193729D01*
X0072865Y1219130D02*
X0072065Y1223664D01*
X0074332Y1224064D01*
X0075221Y1223441D01*
X0075488Y1221930D01*
X0074865Y1221041D01*
X0072598Y1220641D01*
X0074110Y1220908D02*
X0075887Y1219663D01*
X0077265Y1220685D02*
X0078154Y1220063D01*
X0079666Y1220329D01*
X0080288Y1221218D01*
X0080022Y1222729D01*
X0079133Y1223352D01*
X0078377Y1223219D01*
X0076999Y1222197D01*
X0076599Y1224464D01*
X0079622Y1224996D01*
X0068465Y1237757D02*
X0068998Y1240780D01*
X0068375Y1241669D01*
X0066864Y1241935D01*
X0065975Y1241313D01*
X0065842Y1240557D01*
X0066464Y1239668D01*
X0068731Y1239269D01*
X0068465Y1237757D02*
X0067576Y1237135D01*
X0066065Y1237401D01*
X0065442Y1238290D01*
X0063798Y1237801D02*
X0062553Y1239579D01*
X0063308Y1239446D02*
X0061041Y1239845D01*
X0060775Y1238334D02*
X0061574Y1242868D01*
X0063841Y1242468D01*
X0064464Y1241579D01*
X0064197Y1240068D01*
X0063308Y1239446D01*
X0072853Y1254669D02*
X0072054Y1259203D01*
X0074321Y1259603D01*
X0075210Y1258980D01*
X0075476Y1257469D01*
X0074854Y1256580D01*
X0072587Y1256180D01*
X0074098Y1256447D02*
X0075876Y1255202D01*
X0077254Y1256224D02*
X0078143Y1255602D01*
X0079654Y1255868D01*
X0080277Y1256757D01*
X0080143Y1257513D01*
X0079255Y1258135D01*
X0078499Y1258002D01*
X0079255Y1258135D02*
X0079877Y1259024D01*
X0079744Y1259780D01*
X0078855Y1260402D01*
X0077344Y1260136D01*
X0076721Y1259247D01*
X0081255Y1260046D02*
X0081877Y1260935D01*
X0083389Y1261202D01*
X0084278Y1260579D01*
X0084411Y1259823D01*
X0083789Y1258935D01*
X0084677Y1258312D01*
X0084811Y1257556D01*
X0084188Y1256668D01*
X0082677Y1256401D01*
X0081788Y1257023D01*
X0083033Y1258801D02*
X0083789Y1258935D01*
X0095335Y1231504D02*
X0096869Y1231504D01*
X0096102Y1231504D02*
X0096102Y1227667D01*
X0095335Y1226900D01*
X0094567Y1226900D01*
X0093800Y1227667D01*
X0098404Y1227667D02*
X0098404Y1228435D01*
X0099171Y1229202D01*
X0100706Y1229202D01*
X0101473Y1228435D01*
X0101473Y1227667D01*
X0100706Y1226900D01*
X0099171Y1226900D01*
X0098404Y1227667D01*
X0099171Y1229202D02*
X0098404Y1229969D01*
X0098404Y1230737D01*
X0099171Y1231504D01*
X0100706Y1231504D01*
X0101473Y1230737D01*
X0101473Y1229969D01*
X0100706Y1229202D01*
X0085024Y1300000D02*
X0085024Y1303103D01*
X0083473Y1301551D01*
X0085541Y1301551D01*
X0082318Y1300517D02*
X0082318Y1302586D01*
X0081801Y1303103D01*
X0080250Y1303103D01*
X0080250Y1300000D01*
X0081801Y1300000D01*
X0082318Y1300517D01*
X0068041Y1291336D02*
X0068041Y1290818D01*
X0067524Y1290301D01*
X0068041Y1289784D01*
X0068041Y1289267D01*
X0067524Y1288750D01*
X0066490Y1288750D01*
X0065973Y1289267D01*
X0064818Y1289267D02*
X0064818Y1291336D01*
X0064301Y1291853D01*
X0062750Y1291853D01*
X0062750Y1288750D01*
X0064301Y1288750D01*
X0064818Y1289267D01*
X0065973Y1291336D02*
X0066490Y1291853D01*
X0067524Y1291853D01*
X0068041Y1291336D01*
X0067524Y1290301D02*
X0067007Y1290301D01*
X0105510Y1355000D02*
X0106277Y1355767D01*
X0106277Y1356535D01*
X0105510Y1357302D01*
X0104742Y1357302D01*
X0105510Y1357302D02*
X0106277Y1358069D01*
X0106277Y1358837D01*
X0105510Y1359604D01*
X0103975Y1359604D01*
X0103208Y1358837D01*
X0108938Y1358750D02*
X0108938Y1363354D01*
X0111240Y1363354D01*
X0112007Y1362587D01*
X0112007Y1361052D01*
X0111240Y1360285D01*
X0108938Y1360285D01*
X0110473Y1360285D02*
X0112007Y1358750D01*
X0113542Y1359517D02*
X0114309Y1358750D01*
X0115844Y1358750D01*
X0116611Y1359517D01*
X0116611Y1360285D01*
X0115844Y1361052D01*
X0115077Y1361052D01*
X0115844Y1361052D02*
X0116611Y1361819D01*
X0116611Y1362587D01*
X0115844Y1363354D01*
X0114309Y1363354D01*
X0113542Y1362587D01*
X0118146Y1363354D02*
X0118146Y1361052D01*
X0119681Y1361819D01*
X0120448Y1361819D01*
X0121215Y1361052D01*
X0121215Y1359517D01*
X0120448Y1358750D01*
X0118913Y1358750D01*
X0118146Y1359517D01*
X0118146Y1363354D02*
X0121215Y1363354D01*
X0380335Y1206504D02*
X0381869Y1206504D01*
X0381102Y1206504D02*
X0381102Y1202667D01*
X0380335Y1201900D01*
X0379567Y1201900D01*
X0378800Y1202667D01*
X0383404Y1202667D02*
X0384171Y1201900D01*
X0385706Y1201900D01*
X0386473Y1202667D01*
X0386473Y1204202D01*
X0385706Y1204969D01*
X0384939Y1204969D01*
X0383404Y1204202D01*
X0383404Y1206504D01*
X0386473Y1206504D01*
D12*
X0378800Y1457300D02*
X0378882Y1457385D01*
X0378962Y1457472D01*
X0379038Y1457562D01*
X0379111Y1457655D01*
X0379181Y1457750D01*
X0379248Y1457848D01*
X0379312Y1457947D01*
X0379372Y1458049D01*
X0379429Y1458153D01*
X0379482Y1458258D01*
X0379532Y1458365D01*
X0379578Y1458474D01*
X0379621Y1458584D01*
X0379659Y1458696D01*
X0379694Y1458809D01*
X0379725Y1458923D01*
X0379753Y1459038D01*
X0379776Y1459154D01*
X0379796Y1459270D01*
X0379812Y1459387D01*
X0379824Y1459505D01*
X0379832Y1459623D01*
X0379836Y1459741D01*
X0379836Y1459859D01*
X0379832Y1459977D01*
X0379824Y1460095D01*
X0379812Y1460213D01*
X0379796Y1460330D01*
X0379776Y1460446D01*
X0379753Y1460562D01*
X0379725Y1460677D01*
X0379694Y1460791D01*
X0379659Y1460904D01*
X0379621Y1461016D01*
X0379578Y1461126D01*
X0379532Y1461235D01*
X0379482Y1461342D01*
X0379429Y1461447D01*
X0379372Y1461551D01*
X0379312Y1461653D01*
X0379248Y1461752D01*
X0379181Y1461850D01*
X0379111Y1461945D01*
X0379038Y1462038D01*
X0378962Y1462128D01*
X0378882Y1462215D01*
X0378800Y1462300D01*
X0378715Y1462382D01*
X0378628Y1462462D01*
X0378538Y1462538D01*
X0378445Y1462611D01*
X0378350Y1462681D01*
X0378252Y1462748D01*
X0378153Y1462812D01*
X0378051Y1462872D01*
X0377947Y1462929D01*
X0377842Y1462982D01*
X0377735Y1463032D01*
X0377626Y1463078D01*
X0377516Y1463121D01*
X0377404Y1463159D01*
X0377291Y1463194D01*
X0377177Y1463225D01*
X0377062Y1463253D01*
X0376946Y1463276D01*
X0376830Y1463296D01*
X0376713Y1463312D01*
X0376595Y1463324D01*
X0376477Y1463332D01*
X0376359Y1463336D01*
X0376241Y1463336D01*
X0376123Y1463332D01*
X0376005Y1463324D01*
X0375887Y1463312D01*
X0375770Y1463296D01*
X0375654Y1463276D01*
X0375538Y1463253D01*
X0375423Y1463225D01*
X0375309Y1463194D01*
X0375196Y1463159D01*
X0375084Y1463121D01*
X0374974Y1463078D01*
X0374865Y1463032D01*
X0374758Y1462982D01*
X0374653Y1462929D01*
X0374549Y1462872D01*
X0374447Y1462812D01*
X0374348Y1462748D01*
X0374250Y1462681D01*
X0374155Y1462611D01*
X0374062Y1462538D01*
X0373972Y1462462D01*
X0373885Y1462382D01*
X0373800Y1462300D01*
X0373882Y1462385D01*
X0373962Y1462472D01*
X0374038Y1462562D01*
X0374111Y1462655D01*
X0374181Y1462750D01*
X0374248Y1462848D01*
X0374312Y1462947D01*
X0374372Y1463049D01*
X0374429Y1463153D01*
X0374482Y1463258D01*
X0374532Y1463365D01*
X0374578Y1463474D01*
X0374621Y1463584D01*
X0374659Y1463696D01*
X0374694Y1463809D01*
X0374725Y1463923D01*
X0374753Y1464038D01*
X0374776Y1464154D01*
X0374796Y1464270D01*
X0374812Y1464387D01*
X0374824Y1464505D01*
X0374832Y1464623D01*
X0374836Y1464741D01*
X0374836Y1464859D01*
X0374832Y1464977D01*
X0374824Y1465095D01*
X0374812Y1465213D01*
X0374796Y1465330D01*
X0374776Y1465446D01*
X0374753Y1465562D01*
X0374725Y1465677D01*
X0374694Y1465791D01*
X0374659Y1465904D01*
X0374621Y1466016D01*
X0374578Y1466126D01*
X0374532Y1466235D01*
X0374482Y1466342D01*
X0374429Y1466447D01*
X0374372Y1466551D01*
X0374312Y1466653D01*
X0374248Y1466752D01*
X0374181Y1466850D01*
X0374111Y1466945D01*
X0374038Y1467038D01*
X0373962Y1467128D01*
X0373882Y1467215D01*
X0373800Y1467300D01*
X0373715Y1467382D01*
X0373628Y1467462D01*
X0373538Y1467538D01*
X0373445Y1467611D01*
X0373350Y1467681D01*
X0373252Y1467748D01*
X0373153Y1467812D01*
X0373051Y1467872D01*
X0372947Y1467929D01*
X0372842Y1467982D01*
X0372735Y1468032D01*
X0372626Y1468078D01*
X0372516Y1468121D01*
X0372404Y1468159D01*
X0372291Y1468194D01*
X0372177Y1468225D01*
X0372062Y1468253D01*
X0371946Y1468276D01*
X0371830Y1468296D01*
X0371713Y1468312D01*
X0371595Y1468324D01*
X0371477Y1468332D01*
X0371359Y1468336D01*
X0371241Y1468336D01*
X0371123Y1468332D01*
X0371005Y1468324D01*
X0370887Y1468312D01*
X0370770Y1468296D01*
X0370654Y1468276D01*
X0370538Y1468253D01*
X0370423Y1468225D01*
X0370309Y1468194D01*
X0370196Y1468159D01*
X0370084Y1468121D01*
X0369974Y1468078D01*
X0369865Y1468032D01*
X0369758Y1467982D01*
X0369653Y1467929D01*
X0369549Y1467872D01*
X0369447Y1467812D01*
X0369348Y1467748D01*
X0369250Y1467681D01*
X0369155Y1467611D01*
X0369062Y1467538D01*
X0368972Y1467462D01*
X0368885Y1467382D01*
X0368800Y1467300D01*
X0368882Y1467385D01*
X0368962Y1467472D01*
X0369038Y1467562D01*
X0369111Y1467655D01*
X0369181Y1467750D01*
X0369248Y1467848D01*
X0369312Y1467947D01*
X0369372Y1468049D01*
X0369429Y1468153D01*
X0369482Y1468258D01*
X0369532Y1468365D01*
X0369578Y1468474D01*
X0369621Y1468584D01*
X0369659Y1468696D01*
X0369694Y1468809D01*
X0369725Y1468923D01*
X0369753Y1469038D01*
X0369776Y1469154D01*
X0369796Y1469270D01*
X0369812Y1469387D01*
X0369824Y1469505D01*
X0369832Y1469623D01*
X0369836Y1469741D01*
X0369836Y1469859D01*
X0369832Y1469977D01*
X0369824Y1470095D01*
X0369812Y1470213D01*
X0369796Y1470330D01*
X0369776Y1470446D01*
X0369753Y1470562D01*
X0369725Y1470677D01*
X0369694Y1470791D01*
X0369659Y1470904D01*
X0369621Y1471016D01*
X0369578Y1471126D01*
X0369532Y1471235D01*
X0369482Y1471342D01*
X0369429Y1471447D01*
X0369372Y1471551D01*
X0369312Y1471653D01*
X0369248Y1471752D01*
X0369181Y1471850D01*
X0369111Y1471945D01*
X0369038Y1472038D01*
X0368962Y1472128D01*
X0368882Y1472215D01*
X0368800Y1472300D01*
X0368715Y1472382D01*
X0368628Y1472462D01*
X0368538Y1472538D01*
X0368445Y1472611D01*
X0368350Y1472681D01*
X0368252Y1472748D01*
X0368153Y1472812D01*
X0368051Y1472872D01*
X0367947Y1472929D01*
X0367842Y1472982D01*
X0367735Y1473032D01*
X0367626Y1473078D01*
X0367516Y1473121D01*
X0367404Y1473159D01*
X0367291Y1473194D01*
X0367177Y1473225D01*
X0367062Y1473253D01*
X0366946Y1473276D01*
X0366830Y1473296D01*
X0366713Y1473312D01*
X0366595Y1473324D01*
X0366477Y1473332D01*
X0366359Y1473336D01*
X0366241Y1473336D01*
X0366123Y1473332D01*
X0366005Y1473324D01*
X0365887Y1473312D01*
X0365770Y1473296D01*
X0365654Y1473276D01*
X0365538Y1473253D01*
X0365423Y1473225D01*
X0365309Y1473194D01*
X0365196Y1473159D01*
X0365084Y1473121D01*
X0364974Y1473078D01*
X0364865Y1473032D01*
X0364758Y1472982D01*
X0364653Y1472929D01*
X0364549Y1472872D01*
X0364447Y1472812D01*
X0364348Y1472748D01*
X0364250Y1472681D01*
X0364155Y1472611D01*
X0364062Y1472538D01*
X0363972Y1472462D01*
X0363885Y1472382D01*
X0363800Y1472300D01*
X0363882Y1472385D01*
X0363962Y1472472D01*
X0364038Y1472562D01*
X0364111Y1472655D01*
X0364181Y1472750D01*
X0364248Y1472848D01*
X0364312Y1472947D01*
X0364372Y1473049D01*
X0364429Y1473153D01*
X0364482Y1473258D01*
X0364532Y1473365D01*
X0364578Y1473474D01*
X0364621Y1473584D01*
X0364659Y1473696D01*
X0364694Y1473809D01*
X0364725Y1473923D01*
X0364753Y1474038D01*
X0364776Y1474154D01*
X0364796Y1474270D01*
X0364812Y1474387D01*
X0364824Y1474505D01*
X0364832Y1474623D01*
X0364836Y1474741D01*
X0364836Y1474859D01*
X0364832Y1474977D01*
X0364824Y1475095D01*
X0364812Y1475213D01*
X0364796Y1475330D01*
X0364776Y1475446D01*
X0364753Y1475562D01*
X0364725Y1475677D01*
X0364694Y1475791D01*
X0364659Y1475904D01*
X0364621Y1476016D01*
X0364578Y1476126D01*
X0364532Y1476235D01*
X0364482Y1476342D01*
X0364429Y1476447D01*
X0364372Y1476551D01*
X0364312Y1476653D01*
X0364248Y1476752D01*
X0364181Y1476850D01*
X0364111Y1476945D01*
X0364038Y1477038D01*
X0363962Y1477128D01*
X0363882Y1477215D01*
X0363800Y1477300D01*
X0363715Y1477382D01*
X0363628Y1477462D01*
X0363538Y1477538D01*
X0363445Y1477611D01*
X0363350Y1477681D01*
X0363252Y1477748D01*
X0363153Y1477812D01*
X0363051Y1477872D01*
X0362947Y1477929D01*
X0362842Y1477982D01*
X0362735Y1478032D01*
X0362626Y1478078D01*
X0362516Y1478121D01*
X0362404Y1478159D01*
X0362291Y1478194D01*
X0362177Y1478225D01*
X0362062Y1478253D01*
X0361946Y1478276D01*
X0361830Y1478296D01*
X0361713Y1478312D01*
X0361595Y1478324D01*
X0361477Y1478332D01*
X0361359Y1478336D01*
X0361241Y1478336D01*
X0361123Y1478332D01*
X0361005Y1478324D01*
X0360887Y1478312D01*
X0360770Y1478296D01*
X0360654Y1478276D01*
X0360538Y1478253D01*
X0360423Y1478225D01*
X0360309Y1478194D01*
X0360196Y1478159D01*
X0360084Y1478121D01*
X0359974Y1478078D01*
X0359865Y1478032D01*
X0359758Y1477982D01*
X0359653Y1477929D01*
X0359549Y1477872D01*
X0359447Y1477812D01*
X0359348Y1477748D01*
X0359250Y1477681D01*
X0359155Y1477611D01*
X0359062Y1477538D01*
X0358972Y1477462D01*
X0358885Y1477382D01*
X0358800Y1477300D01*
D13*
X0126300Y1409800D03*
D14*
X0001300Y0041300D02*
X0001300Y0003300D01*
X0001302Y0003213D01*
X0001308Y0003126D01*
X0001317Y0003039D01*
X0001330Y0002953D01*
X0001347Y0002867D01*
X0001368Y0002782D01*
X0001393Y0002699D01*
X0001421Y0002616D01*
X0001452Y0002535D01*
X0001487Y0002455D01*
X0001526Y0002377D01*
X0001568Y0002300D01*
X0001613Y0002225D01*
X0001662Y0002153D01*
X0001713Y0002082D01*
X0001768Y0002014D01*
X0001825Y0001949D01*
X0001886Y0001886D01*
X0001949Y0001825D01*
X0002014Y0001768D01*
X0002082Y0001713D01*
X0002153Y0001662D01*
X0002225Y0001613D01*
X0002300Y0001568D01*
X0002377Y0001526D01*
X0002455Y0001487D01*
X0002535Y0001452D01*
X0002616Y0001421D01*
X0002699Y0001393D01*
X0002782Y0001368D01*
X0002867Y0001347D01*
X0002953Y0001330D01*
X0003039Y0001317D01*
X0003126Y0001308D01*
X0003213Y0001302D01*
X0003300Y0001300D01*
X0104300Y0001300D01*
X0104387Y0001302D01*
X0104474Y0001308D01*
X0104561Y0001317D01*
X0104647Y0001330D01*
X0104733Y0001347D01*
X0104818Y0001368D01*
X0104901Y0001393D01*
X0104984Y0001421D01*
X0105065Y0001452D01*
X0105145Y0001487D01*
X0105223Y0001526D01*
X0105300Y0001568D01*
X0105375Y0001613D01*
X0105447Y0001662D01*
X0105518Y0001713D01*
X0105586Y0001768D01*
X0105651Y0001825D01*
X0105714Y0001886D01*
X0105775Y0001949D01*
X0105832Y0002014D01*
X0105887Y0002082D01*
X0105938Y0002153D01*
X0105987Y0002225D01*
X0106032Y0002300D01*
X0106074Y0002377D01*
X0106113Y0002455D01*
X0106148Y0002535D01*
X0106179Y0002616D01*
X0106207Y0002699D01*
X0106232Y0002782D01*
X0106253Y0002867D01*
X0106270Y0002953D01*
X0106283Y0003039D01*
X0106292Y0003126D01*
X0106298Y0003213D01*
X0106300Y0003300D01*
X0106300Y0041300D01*
X0106298Y0041387D01*
X0106292Y0041474D01*
X0106283Y0041561D01*
X0106270Y0041647D01*
X0106253Y0041733D01*
X0106232Y0041818D01*
X0106207Y0041901D01*
X0106179Y0041984D01*
X0106148Y0042065D01*
X0106113Y0042145D01*
X0106074Y0042223D01*
X0106032Y0042300D01*
X0105987Y0042375D01*
X0105938Y0042447D01*
X0105887Y0042518D01*
X0105832Y0042586D01*
X0105775Y0042651D01*
X0105714Y0042714D01*
X0105651Y0042775D01*
X0105586Y0042832D01*
X0105518Y0042887D01*
X0105447Y0042938D01*
X0105375Y0042987D01*
X0105300Y0043032D01*
X0105223Y0043074D01*
X0105145Y0043113D01*
X0105065Y0043148D01*
X0104984Y0043179D01*
X0104901Y0043207D01*
X0104818Y0043232D01*
X0104733Y0043253D01*
X0104647Y0043270D01*
X0104561Y0043283D01*
X0104474Y0043292D01*
X0104387Y0043298D01*
X0104300Y0043300D01*
X0003300Y0043300D01*
X0003213Y0043298D01*
X0003126Y0043292D01*
X0003039Y0043283D01*
X0002953Y0043270D01*
X0002867Y0043253D01*
X0002782Y0043232D01*
X0002699Y0043207D01*
X0002616Y0043179D01*
X0002535Y0043148D01*
X0002455Y0043113D01*
X0002377Y0043074D01*
X0002300Y0043032D01*
X0002225Y0042987D01*
X0002153Y0042938D01*
X0002082Y0042887D01*
X0002014Y0042832D01*
X0001949Y0042775D01*
X0001886Y0042714D01*
X0001825Y0042651D01*
X0001768Y0042586D01*
X0001713Y0042518D01*
X0001662Y0042447D01*
X0001613Y0042375D01*
X0001568Y0042300D01*
X0001526Y0042223D01*
X0001487Y0042145D01*
X0001452Y0042065D01*
X0001421Y0041984D01*
X0001393Y0041901D01*
X0001368Y0041818D01*
X0001347Y0041733D01*
X0001330Y0041647D01*
X0001317Y0041561D01*
X0001308Y0041474D01*
X0001302Y0041387D01*
X0001300Y0041300D01*
X0015800Y0022300D02*
X0023800Y0022300D01*
X0027300Y0022300D02*
X0091800Y0022300D01*
X0087300Y0212300D02*
X0176800Y0212300D01*
X0195800Y0184300D02*
X0195798Y0184213D01*
X0195792Y0184126D01*
X0195783Y0184039D01*
X0195770Y0183953D01*
X0195753Y0183867D01*
X0195732Y0183782D01*
X0195707Y0183699D01*
X0195679Y0183616D01*
X0195648Y0183535D01*
X0195613Y0183455D01*
X0195574Y0183377D01*
X0195532Y0183300D01*
X0195487Y0183225D01*
X0195438Y0183153D01*
X0195387Y0183082D01*
X0195332Y0183014D01*
X0195275Y0182949D01*
X0195214Y0182886D01*
X0195151Y0182825D01*
X0195086Y0182768D01*
X0195018Y0182713D01*
X0194947Y0182662D01*
X0194875Y0182613D01*
X0194800Y0182568D01*
X0194723Y0182526D01*
X0194645Y0182487D01*
X0194565Y0182452D01*
X0194484Y0182421D01*
X0194401Y0182393D01*
X0194318Y0182368D01*
X0194233Y0182347D01*
X0194147Y0182330D01*
X0194061Y0182317D01*
X0193974Y0182308D01*
X0193887Y0182302D01*
X0193800Y0182300D01*
X0033800Y0182300D01*
X0033713Y0182302D01*
X0033626Y0182308D01*
X0033539Y0182317D01*
X0033453Y0182330D01*
X0033367Y0182347D01*
X0033282Y0182368D01*
X0033199Y0182393D01*
X0033116Y0182421D01*
X0033035Y0182452D01*
X0032955Y0182487D01*
X0032877Y0182526D01*
X0032800Y0182568D01*
X0032725Y0182613D01*
X0032653Y0182662D01*
X0032582Y0182713D01*
X0032514Y0182768D01*
X0032449Y0182825D01*
X0032386Y0182886D01*
X0032325Y0182949D01*
X0032268Y0183014D01*
X0032213Y0183082D01*
X0032162Y0183153D01*
X0032113Y0183225D01*
X0032068Y0183300D01*
X0032026Y0183377D01*
X0031987Y0183455D01*
X0031952Y0183535D01*
X0031921Y0183616D01*
X0031893Y0183699D01*
X0031868Y0183782D01*
X0031847Y0183867D01*
X0031830Y0183953D01*
X0031817Y0184039D01*
X0031808Y0184126D01*
X0031802Y0184213D01*
X0031800Y0184300D01*
X0031800Y0240300D01*
X0031802Y0240387D01*
X0031808Y0240474D01*
X0031817Y0240561D01*
X0031830Y0240647D01*
X0031847Y0240733D01*
X0031868Y0240818D01*
X0031893Y0240901D01*
X0031921Y0240984D01*
X0031952Y0241065D01*
X0031987Y0241145D01*
X0032026Y0241223D01*
X0032068Y0241300D01*
X0032113Y0241375D01*
X0032162Y0241447D01*
X0032213Y0241518D01*
X0032268Y0241586D01*
X0032325Y0241651D01*
X0032386Y0241714D01*
X0032449Y0241775D01*
X0032514Y0241832D01*
X0032582Y0241887D01*
X0032653Y0241938D01*
X0032725Y0241987D01*
X0032800Y0242032D01*
X0032877Y0242074D01*
X0032955Y0242113D01*
X0033035Y0242148D01*
X0033116Y0242179D01*
X0033199Y0242207D01*
X0033282Y0242232D01*
X0033367Y0242253D01*
X0033453Y0242270D01*
X0033539Y0242283D01*
X0033626Y0242292D01*
X0033713Y0242298D01*
X0033800Y0242300D01*
X0193800Y0242300D01*
X0193887Y0242298D01*
X0193974Y0242292D01*
X0194061Y0242283D01*
X0194147Y0242270D01*
X0194233Y0242253D01*
X0194318Y0242232D01*
X0194401Y0242207D01*
X0194484Y0242179D01*
X0194565Y0242148D01*
X0194645Y0242113D01*
X0194723Y0242074D01*
X0194800Y0242032D01*
X0194875Y0241987D01*
X0194947Y0241938D01*
X0195018Y0241887D01*
X0195086Y0241832D01*
X0195151Y0241775D01*
X0195214Y0241714D01*
X0195275Y0241651D01*
X0195332Y0241586D01*
X0195387Y0241518D01*
X0195438Y0241447D01*
X0195487Y0241375D01*
X0195532Y0241300D01*
X0195574Y0241223D01*
X0195613Y0241145D01*
X0195648Y0241065D01*
X0195679Y0240984D01*
X0195707Y0240901D01*
X0195732Y0240818D01*
X0195753Y0240733D01*
X0195770Y0240647D01*
X0195783Y0240561D01*
X0195792Y0240474D01*
X0195798Y0240387D01*
X0195800Y0240300D01*
X0195800Y0184300D01*
X0193800Y0257300D02*
X0033800Y0257300D01*
X0033713Y0257302D01*
X0033626Y0257308D01*
X0033539Y0257317D01*
X0033453Y0257330D01*
X0033367Y0257347D01*
X0033282Y0257368D01*
X0033199Y0257393D01*
X0033116Y0257421D01*
X0033035Y0257452D01*
X0032955Y0257487D01*
X0032877Y0257526D01*
X0032800Y0257568D01*
X0032725Y0257613D01*
X0032653Y0257662D01*
X0032582Y0257713D01*
X0032514Y0257768D01*
X0032449Y0257825D01*
X0032386Y0257886D01*
X0032325Y0257949D01*
X0032268Y0258014D01*
X0032213Y0258082D01*
X0032162Y0258153D01*
X0032113Y0258225D01*
X0032068Y0258300D01*
X0032026Y0258377D01*
X0031987Y0258455D01*
X0031952Y0258535D01*
X0031921Y0258616D01*
X0031893Y0258699D01*
X0031868Y0258782D01*
X0031847Y0258867D01*
X0031830Y0258953D01*
X0031817Y0259039D01*
X0031808Y0259126D01*
X0031802Y0259213D01*
X0031800Y0259300D01*
X0031800Y0315300D01*
X0031802Y0315387D01*
X0031808Y0315474D01*
X0031817Y0315561D01*
X0031830Y0315647D01*
X0031847Y0315733D01*
X0031868Y0315818D01*
X0031893Y0315901D01*
X0031921Y0315984D01*
X0031952Y0316065D01*
X0031987Y0316145D01*
X0032026Y0316223D01*
X0032068Y0316300D01*
X0032113Y0316375D01*
X0032162Y0316447D01*
X0032213Y0316518D01*
X0032268Y0316586D01*
X0032325Y0316651D01*
X0032386Y0316714D01*
X0032449Y0316775D01*
X0032514Y0316832D01*
X0032582Y0316887D01*
X0032653Y0316938D01*
X0032725Y0316987D01*
X0032800Y0317032D01*
X0032877Y0317074D01*
X0032955Y0317113D01*
X0033035Y0317148D01*
X0033116Y0317179D01*
X0033199Y0317207D01*
X0033282Y0317232D01*
X0033367Y0317253D01*
X0033453Y0317270D01*
X0033539Y0317283D01*
X0033626Y0317292D01*
X0033713Y0317298D01*
X0033800Y0317300D01*
X0193800Y0317300D01*
X0193887Y0317298D01*
X0193974Y0317292D01*
X0194061Y0317283D01*
X0194147Y0317270D01*
X0194233Y0317253D01*
X0194318Y0317232D01*
X0194401Y0317207D01*
X0194484Y0317179D01*
X0194565Y0317148D01*
X0194645Y0317113D01*
X0194723Y0317074D01*
X0194800Y0317032D01*
X0194875Y0316987D01*
X0194947Y0316938D01*
X0195018Y0316887D01*
X0195086Y0316832D01*
X0195151Y0316775D01*
X0195214Y0316714D01*
X0195275Y0316651D01*
X0195332Y0316586D01*
X0195387Y0316518D01*
X0195438Y0316447D01*
X0195487Y0316375D01*
X0195532Y0316300D01*
X0195574Y0316223D01*
X0195613Y0316145D01*
X0195648Y0316065D01*
X0195679Y0315984D01*
X0195707Y0315901D01*
X0195732Y0315818D01*
X0195753Y0315733D01*
X0195770Y0315647D01*
X0195783Y0315561D01*
X0195792Y0315474D01*
X0195798Y0315387D01*
X0195800Y0315300D01*
X0195800Y0259300D01*
X0195798Y0259213D01*
X0195792Y0259126D01*
X0195783Y0259039D01*
X0195770Y0258953D01*
X0195753Y0258867D01*
X0195732Y0258782D01*
X0195707Y0258699D01*
X0195679Y0258616D01*
X0195648Y0258535D01*
X0195613Y0258455D01*
X0195574Y0258377D01*
X0195532Y0258300D01*
X0195487Y0258225D01*
X0195438Y0258153D01*
X0195387Y0258082D01*
X0195332Y0258014D01*
X0195275Y0257949D01*
X0195214Y0257886D01*
X0195151Y0257825D01*
X0195086Y0257768D01*
X0195018Y0257713D01*
X0194947Y0257662D01*
X0194875Y0257613D01*
X0194800Y0257568D01*
X0194723Y0257526D01*
X0194645Y0257487D01*
X0194565Y0257452D01*
X0194484Y0257421D01*
X0194401Y0257393D01*
X0194318Y0257368D01*
X0194233Y0257347D01*
X0194147Y0257330D01*
X0194061Y0257317D01*
X0193974Y0257308D01*
X0193887Y0257302D01*
X0193800Y0257300D01*
X0176800Y0287300D02*
X0087300Y0287300D01*
X0083800Y0287300D02*
X0050800Y0287300D01*
X0033800Y0332300D02*
X0193800Y0332300D01*
X0193887Y0332302D01*
X0193974Y0332308D01*
X0194061Y0332317D01*
X0194147Y0332330D01*
X0194233Y0332347D01*
X0194318Y0332368D01*
X0194401Y0332393D01*
X0194484Y0332421D01*
X0194565Y0332452D01*
X0194645Y0332487D01*
X0194723Y0332526D01*
X0194800Y0332568D01*
X0194875Y0332613D01*
X0194947Y0332662D01*
X0195018Y0332713D01*
X0195086Y0332768D01*
X0195151Y0332825D01*
X0195214Y0332886D01*
X0195275Y0332949D01*
X0195332Y0333014D01*
X0195387Y0333082D01*
X0195438Y0333153D01*
X0195487Y0333225D01*
X0195532Y0333300D01*
X0195574Y0333377D01*
X0195613Y0333455D01*
X0195648Y0333535D01*
X0195679Y0333616D01*
X0195707Y0333699D01*
X0195732Y0333782D01*
X0195753Y0333867D01*
X0195770Y0333953D01*
X0195783Y0334039D01*
X0195792Y0334126D01*
X0195798Y0334213D01*
X0195800Y0334300D01*
X0195800Y0390300D01*
X0195798Y0390387D01*
X0195792Y0390474D01*
X0195783Y0390561D01*
X0195770Y0390647D01*
X0195753Y0390733D01*
X0195732Y0390818D01*
X0195707Y0390901D01*
X0195679Y0390984D01*
X0195648Y0391065D01*
X0195613Y0391145D01*
X0195574Y0391223D01*
X0195532Y0391300D01*
X0195487Y0391375D01*
X0195438Y0391447D01*
X0195387Y0391518D01*
X0195332Y0391586D01*
X0195275Y0391651D01*
X0195214Y0391714D01*
X0195151Y0391775D01*
X0195086Y0391832D01*
X0195018Y0391887D01*
X0194947Y0391938D01*
X0194875Y0391987D01*
X0194800Y0392032D01*
X0194723Y0392074D01*
X0194645Y0392113D01*
X0194565Y0392148D01*
X0194484Y0392179D01*
X0194401Y0392207D01*
X0194318Y0392232D01*
X0194233Y0392253D01*
X0194147Y0392270D01*
X0194061Y0392283D01*
X0193974Y0392292D01*
X0193887Y0392298D01*
X0193800Y0392300D01*
X0033800Y0392300D01*
X0033713Y0392298D01*
X0033626Y0392292D01*
X0033539Y0392283D01*
X0033453Y0392270D01*
X0033367Y0392253D01*
X0033282Y0392232D01*
X0033199Y0392207D01*
X0033116Y0392179D01*
X0033035Y0392148D01*
X0032955Y0392113D01*
X0032877Y0392074D01*
X0032800Y0392032D01*
X0032725Y0391987D01*
X0032653Y0391938D01*
X0032582Y0391887D01*
X0032514Y0391832D01*
X0032449Y0391775D01*
X0032386Y0391714D01*
X0032325Y0391651D01*
X0032268Y0391586D01*
X0032213Y0391518D01*
X0032162Y0391447D01*
X0032113Y0391375D01*
X0032068Y0391300D01*
X0032026Y0391223D01*
X0031987Y0391145D01*
X0031952Y0391065D01*
X0031921Y0390984D01*
X0031893Y0390901D01*
X0031868Y0390818D01*
X0031847Y0390733D01*
X0031830Y0390647D01*
X0031817Y0390561D01*
X0031808Y0390474D01*
X0031802Y0390387D01*
X0031800Y0390300D01*
X0031800Y0334300D01*
X0031802Y0334213D01*
X0031808Y0334126D01*
X0031817Y0334039D01*
X0031830Y0333953D01*
X0031847Y0333867D01*
X0031868Y0333782D01*
X0031893Y0333699D01*
X0031921Y0333616D01*
X0031952Y0333535D01*
X0031987Y0333455D01*
X0032026Y0333377D01*
X0032068Y0333300D01*
X0032113Y0333225D01*
X0032162Y0333153D01*
X0032213Y0333082D01*
X0032268Y0333014D01*
X0032325Y0332949D01*
X0032386Y0332886D01*
X0032449Y0332825D01*
X0032514Y0332768D01*
X0032582Y0332713D01*
X0032653Y0332662D01*
X0032725Y0332613D01*
X0032800Y0332568D01*
X0032877Y0332526D01*
X0032955Y0332487D01*
X0033035Y0332452D01*
X0033116Y0332421D01*
X0033199Y0332393D01*
X0033282Y0332368D01*
X0033367Y0332347D01*
X0033453Y0332330D01*
X0033539Y0332317D01*
X0033626Y0332308D01*
X0033713Y0332302D01*
X0033800Y0332300D01*
X0050800Y0362300D02*
X0083800Y0362300D01*
X0087300Y0362300D02*
X0176800Y0362300D01*
X0193800Y0407300D02*
X0033800Y0407300D01*
X0033713Y0407302D01*
X0033626Y0407308D01*
X0033539Y0407317D01*
X0033453Y0407330D01*
X0033367Y0407347D01*
X0033282Y0407368D01*
X0033199Y0407393D01*
X0033116Y0407421D01*
X0033035Y0407452D01*
X0032955Y0407487D01*
X0032877Y0407526D01*
X0032800Y0407568D01*
X0032725Y0407613D01*
X0032653Y0407662D01*
X0032582Y0407713D01*
X0032514Y0407768D01*
X0032449Y0407825D01*
X0032386Y0407886D01*
X0032325Y0407949D01*
X0032268Y0408014D01*
X0032213Y0408082D01*
X0032162Y0408153D01*
X0032113Y0408225D01*
X0032068Y0408300D01*
X0032026Y0408377D01*
X0031987Y0408455D01*
X0031952Y0408535D01*
X0031921Y0408616D01*
X0031893Y0408699D01*
X0031868Y0408782D01*
X0031847Y0408867D01*
X0031830Y0408953D01*
X0031817Y0409039D01*
X0031808Y0409126D01*
X0031802Y0409213D01*
X0031800Y0409300D01*
X0031800Y0465300D01*
X0031802Y0465387D01*
X0031808Y0465474D01*
X0031817Y0465561D01*
X0031830Y0465647D01*
X0031847Y0465733D01*
X0031868Y0465818D01*
X0031893Y0465901D01*
X0031921Y0465984D01*
X0031952Y0466065D01*
X0031987Y0466145D01*
X0032026Y0466223D01*
X0032068Y0466300D01*
X0032113Y0466375D01*
X0032162Y0466447D01*
X0032213Y0466518D01*
X0032268Y0466586D01*
X0032325Y0466651D01*
X0032386Y0466714D01*
X0032449Y0466775D01*
X0032514Y0466832D01*
X0032582Y0466887D01*
X0032653Y0466938D01*
X0032725Y0466987D01*
X0032800Y0467032D01*
X0032877Y0467074D01*
X0032955Y0467113D01*
X0033035Y0467148D01*
X0033116Y0467179D01*
X0033199Y0467207D01*
X0033282Y0467232D01*
X0033367Y0467253D01*
X0033453Y0467270D01*
X0033539Y0467283D01*
X0033626Y0467292D01*
X0033713Y0467298D01*
X0033800Y0467300D01*
X0193800Y0467300D01*
X0193887Y0467298D01*
X0193974Y0467292D01*
X0194061Y0467283D01*
X0194147Y0467270D01*
X0194233Y0467253D01*
X0194318Y0467232D01*
X0194401Y0467207D01*
X0194484Y0467179D01*
X0194565Y0467148D01*
X0194645Y0467113D01*
X0194723Y0467074D01*
X0194800Y0467032D01*
X0194875Y0466987D01*
X0194947Y0466938D01*
X0195018Y0466887D01*
X0195086Y0466832D01*
X0195151Y0466775D01*
X0195214Y0466714D01*
X0195275Y0466651D01*
X0195332Y0466586D01*
X0195387Y0466518D01*
X0195438Y0466447D01*
X0195487Y0466375D01*
X0195532Y0466300D01*
X0195574Y0466223D01*
X0195613Y0466145D01*
X0195648Y0466065D01*
X0195679Y0465984D01*
X0195707Y0465901D01*
X0195732Y0465818D01*
X0195753Y0465733D01*
X0195770Y0465647D01*
X0195783Y0465561D01*
X0195792Y0465474D01*
X0195798Y0465387D01*
X0195800Y0465300D01*
X0195800Y0409300D01*
X0195798Y0409213D01*
X0195792Y0409126D01*
X0195783Y0409039D01*
X0195770Y0408953D01*
X0195753Y0408867D01*
X0195732Y0408782D01*
X0195707Y0408699D01*
X0195679Y0408616D01*
X0195648Y0408535D01*
X0195613Y0408455D01*
X0195574Y0408377D01*
X0195532Y0408300D01*
X0195487Y0408225D01*
X0195438Y0408153D01*
X0195387Y0408082D01*
X0195332Y0408014D01*
X0195275Y0407949D01*
X0195214Y0407886D01*
X0195151Y0407825D01*
X0195086Y0407768D01*
X0195018Y0407713D01*
X0194947Y0407662D01*
X0194875Y0407613D01*
X0194800Y0407568D01*
X0194723Y0407526D01*
X0194645Y0407487D01*
X0194565Y0407452D01*
X0194484Y0407421D01*
X0194401Y0407393D01*
X0194318Y0407368D01*
X0194233Y0407347D01*
X0194147Y0407330D01*
X0194061Y0407317D01*
X0193974Y0407308D01*
X0193887Y0407302D01*
X0193800Y0407300D01*
X0176800Y0437300D02*
X0087300Y0437300D01*
X0083800Y0437300D02*
X0050800Y0437300D01*
X0033800Y0482300D02*
X0193800Y0482300D01*
X0193887Y0482302D01*
X0193974Y0482308D01*
X0194061Y0482317D01*
X0194147Y0482330D01*
X0194233Y0482347D01*
X0194318Y0482368D01*
X0194401Y0482393D01*
X0194484Y0482421D01*
X0194565Y0482452D01*
X0194645Y0482487D01*
X0194723Y0482526D01*
X0194800Y0482568D01*
X0194875Y0482613D01*
X0194947Y0482662D01*
X0195018Y0482713D01*
X0195086Y0482768D01*
X0195151Y0482825D01*
X0195214Y0482886D01*
X0195275Y0482949D01*
X0195332Y0483014D01*
X0195387Y0483082D01*
X0195438Y0483153D01*
X0195487Y0483225D01*
X0195532Y0483300D01*
X0195574Y0483377D01*
X0195613Y0483455D01*
X0195648Y0483535D01*
X0195679Y0483616D01*
X0195707Y0483699D01*
X0195732Y0483782D01*
X0195753Y0483867D01*
X0195770Y0483953D01*
X0195783Y0484039D01*
X0195792Y0484126D01*
X0195798Y0484213D01*
X0195800Y0484300D01*
X0195800Y0540300D01*
X0195798Y0540387D01*
X0195792Y0540474D01*
X0195783Y0540561D01*
X0195770Y0540647D01*
X0195753Y0540733D01*
X0195732Y0540818D01*
X0195707Y0540901D01*
X0195679Y0540984D01*
X0195648Y0541065D01*
X0195613Y0541145D01*
X0195574Y0541223D01*
X0195532Y0541300D01*
X0195487Y0541375D01*
X0195438Y0541447D01*
X0195387Y0541518D01*
X0195332Y0541586D01*
X0195275Y0541651D01*
X0195214Y0541714D01*
X0195151Y0541775D01*
X0195086Y0541832D01*
X0195018Y0541887D01*
X0194947Y0541938D01*
X0194875Y0541987D01*
X0194800Y0542032D01*
X0194723Y0542074D01*
X0194645Y0542113D01*
X0194565Y0542148D01*
X0194484Y0542179D01*
X0194401Y0542207D01*
X0194318Y0542232D01*
X0194233Y0542253D01*
X0194147Y0542270D01*
X0194061Y0542283D01*
X0193974Y0542292D01*
X0193887Y0542298D01*
X0193800Y0542300D01*
X0033800Y0542300D01*
X0033713Y0542298D01*
X0033626Y0542292D01*
X0033539Y0542283D01*
X0033453Y0542270D01*
X0033367Y0542253D01*
X0033282Y0542232D01*
X0033199Y0542207D01*
X0033116Y0542179D01*
X0033035Y0542148D01*
X0032955Y0542113D01*
X0032877Y0542074D01*
X0032800Y0542032D01*
X0032725Y0541987D01*
X0032653Y0541938D01*
X0032582Y0541887D01*
X0032514Y0541832D01*
X0032449Y0541775D01*
X0032386Y0541714D01*
X0032325Y0541651D01*
X0032268Y0541586D01*
X0032213Y0541518D01*
X0032162Y0541447D01*
X0032113Y0541375D01*
X0032068Y0541300D01*
X0032026Y0541223D01*
X0031987Y0541145D01*
X0031952Y0541065D01*
X0031921Y0540984D01*
X0031893Y0540901D01*
X0031868Y0540818D01*
X0031847Y0540733D01*
X0031830Y0540647D01*
X0031817Y0540561D01*
X0031808Y0540474D01*
X0031802Y0540387D01*
X0031800Y0540300D01*
X0031800Y0484300D01*
X0031802Y0484213D01*
X0031808Y0484126D01*
X0031817Y0484039D01*
X0031830Y0483953D01*
X0031847Y0483867D01*
X0031868Y0483782D01*
X0031893Y0483699D01*
X0031921Y0483616D01*
X0031952Y0483535D01*
X0031987Y0483455D01*
X0032026Y0483377D01*
X0032068Y0483300D01*
X0032113Y0483225D01*
X0032162Y0483153D01*
X0032213Y0483082D01*
X0032268Y0483014D01*
X0032325Y0482949D01*
X0032386Y0482886D01*
X0032449Y0482825D01*
X0032514Y0482768D01*
X0032582Y0482713D01*
X0032653Y0482662D01*
X0032725Y0482613D01*
X0032800Y0482568D01*
X0032877Y0482526D01*
X0032955Y0482487D01*
X0033035Y0482452D01*
X0033116Y0482421D01*
X0033199Y0482393D01*
X0033282Y0482368D01*
X0033367Y0482347D01*
X0033453Y0482330D01*
X0033539Y0482317D01*
X0033626Y0482308D01*
X0033713Y0482302D01*
X0033800Y0482300D01*
X0050800Y0512300D02*
X0083800Y0512300D01*
X0087300Y0512300D02*
X0176800Y0512300D01*
X0083800Y0212300D02*
X0050800Y0212300D01*
X0055300Y0889300D02*
X0092300Y0889300D01*
X0092300Y0925300D01*
X0055300Y0925300D01*
X0055300Y0889300D01*
X0069300Y0907300D02*
X0073800Y0907300D01*
X0078800Y0904800D01*
X0078800Y0909800D01*
X0073800Y0907300D01*
X0073800Y0904800D01*
X0073800Y0907300D02*
X0083800Y0907300D01*
X0073800Y0907300D02*
X0073800Y0909800D01*
X0073800Y0954800D02*
X0073800Y0957300D01*
X0078800Y0954800D01*
X0078800Y0959800D01*
X0073800Y0957300D01*
X0083800Y0957300D01*
X0073800Y0957300D02*
X0073800Y0959800D01*
X0073800Y0957300D02*
X0069300Y0957300D01*
X0055300Y0939300D02*
X0092300Y0939300D01*
X0092300Y0975300D01*
X0055300Y0975300D01*
X0055300Y0939300D01*
X0055300Y0989300D02*
X0092300Y0989300D01*
X0092300Y1025300D01*
X0055300Y1025300D01*
X0055300Y0989300D01*
X0069300Y1007300D02*
X0073800Y1007300D01*
X0078800Y1004800D01*
X0078800Y1009800D01*
X0073800Y1007300D01*
X0073800Y1004800D01*
X0073800Y1007300D02*
X0083800Y1007300D01*
X0073800Y1007300D02*
X0073800Y1009800D01*
X0073800Y1054800D02*
X0073800Y1057300D01*
X0078800Y1054800D01*
X0078800Y1059800D01*
X0073800Y1057300D01*
X0083800Y1057300D01*
X0073800Y1057300D02*
X0073800Y1059800D01*
X0073800Y1057300D02*
X0069300Y1057300D01*
X0055300Y1039300D02*
X0092300Y1039300D01*
X0092300Y1075300D01*
X0055300Y1075300D01*
X0055300Y1039300D01*
X0055300Y1089300D02*
X0092300Y1089300D01*
X0092300Y1125300D01*
X0055300Y1125300D01*
X0055300Y1089300D01*
X0069300Y1107300D02*
X0073800Y1107300D01*
X0078800Y1104800D01*
X0078800Y1109800D01*
X0073800Y1107300D01*
X0073800Y1104800D01*
X0073800Y1107300D02*
X0083800Y1107300D01*
X0073800Y1107300D02*
X0073800Y1109800D01*
X0073800Y1154800D02*
X0073800Y1157300D01*
X0078800Y1154800D01*
X0078800Y1159800D01*
X0073800Y1157300D01*
X0083800Y1157300D01*
X0073800Y1157300D02*
X0073800Y1159800D01*
X0073800Y1157300D02*
X0069300Y1157300D01*
X0055300Y1139300D02*
X0092300Y1139300D01*
X0092300Y1175300D01*
X0055300Y1175300D01*
X0055300Y1139300D01*
X0083800Y1237300D02*
X0143800Y1237300D01*
X0144800Y1243300D01*
X0142800Y1255800D01*
X0141300Y1257300D01*
X0086300Y1257300D01*
X0084800Y1255800D01*
X0082800Y1243300D01*
X0083800Y1237300D01*
X0083800Y1263550D02*
X0143800Y1263550D01*
X0144800Y1269550D01*
X0142800Y1282050D01*
X0141300Y1283550D01*
X0086300Y1283550D01*
X0084800Y1282050D01*
X0082800Y1269550D01*
X0083800Y1263550D01*
X0194660Y1396742D02*
X0123242Y1468160D01*
X0123181Y1468223D01*
X0123124Y1468288D01*
X0123069Y1468356D01*
X0123018Y1468427D01*
X0122969Y1468499D01*
X0122924Y1468574D01*
X0122882Y1468651D01*
X0122843Y1468729D01*
X0122808Y1468809D01*
X0122777Y1468890D01*
X0122749Y1468973D01*
X0122724Y1469056D01*
X0122703Y1469141D01*
X0122686Y1469227D01*
X0122673Y1469313D01*
X0122664Y1469400D01*
X0122658Y1469487D01*
X0122656Y1469574D01*
X0122658Y1469661D01*
X0122664Y1469748D01*
X0122673Y1469835D01*
X0122686Y1469921D01*
X0122703Y1470007D01*
X0122724Y1470092D01*
X0122749Y1470175D01*
X0122777Y1470258D01*
X0122808Y1470339D01*
X0122843Y1470419D01*
X0122882Y1470497D01*
X0122924Y1470574D01*
X0122969Y1470649D01*
X0123018Y1470721D01*
X0123069Y1470792D01*
X0123124Y1470860D01*
X0123181Y1470925D01*
X0123242Y1470988D01*
X0150112Y1497858D01*
X0150175Y1497919D01*
X0150240Y1497976D01*
X0150308Y1498031D01*
X0150379Y1498082D01*
X0150451Y1498131D01*
X0150526Y1498176D01*
X0150603Y1498218D01*
X0150681Y1498257D01*
X0150761Y1498292D01*
X0150842Y1498323D01*
X0150925Y1498351D01*
X0151008Y1498376D01*
X0151093Y1498397D01*
X0151179Y1498414D01*
X0151265Y1498427D01*
X0151352Y1498436D01*
X0151439Y1498442D01*
X0151526Y1498444D01*
X0151613Y1498442D01*
X0151700Y1498436D01*
X0151787Y1498427D01*
X0151873Y1498414D01*
X0151959Y1498397D01*
X0152044Y1498376D01*
X0152127Y1498351D01*
X0152210Y1498323D01*
X0152291Y1498292D01*
X0152371Y1498257D01*
X0152449Y1498218D01*
X0152526Y1498176D01*
X0152601Y1498131D01*
X0152673Y1498082D01*
X0152744Y1498031D01*
X0152812Y1497976D01*
X0152877Y1497919D01*
X0152940Y1497858D01*
X0224358Y1426440D01*
X0224419Y1426377D01*
X0224476Y1426312D01*
X0224531Y1426244D01*
X0224582Y1426173D01*
X0224631Y1426101D01*
X0224676Y1426026D01*
X0224718Y1425949D01*
X0224757Y1425871D01*
X0224792Y1425791D01*
X0224823Y1425710D01*
X0224851Y1425627D01*
X0224876Y1425544D01*
X0224897Y1425459D01*
X0224914Y1425373D01*
X0224927Y1425287D01*
X0224936Y1425200D01*
X0224942Y1425113D01*
X0224944Y1425026D01*
X0224942Y1424939D01*
X0224936Y1424852D01*
X0224927Y1424765D01*
X0224914Y1424679D01*
X0224897Y1424593D01*
X0224876Y1424508D01*
X0224851Y1424425D01*
X0224823Y1424342D01*
X0224792Y1424261D01*
X0224757Y1424181D01*
X0224718Y1424103D01*
X0224676Y1424026D01*
X0224631Y1423951D01*
X0224582Y1423879D01*
X0224531Y1423808D01*
X0224476Y1423740D01*
X0224419Y1423675D01*
X0224358Y1423612D01*
X0197488Y1396742D01*
X0197425Y1396681D01*
X0197360Y1396624D01*
X0197292Y1396569D01*
X0197221Y1396518D01*
X0197149Y1396469D01*
X0197074Y1396424D01*
X0196997Y1396382D01*
X0196919Y1396343D01*
X0196839Y1396308D01*
X0196758Y1396277D01*
X0196675Y1396249D01*
X0196592Y1396224D01*
X0196507Y1396203D01*
X0196421Y1396186D01*
X0196335Y1396173D01*
X0196248Y1396164D01*
X0196161Y1396158D01*
X0196074Y1396156D01*
X0195987Y1396158D01*
X0195900Y1396164D01*
X0195813Y1396173D01*
X0195727Y1396186D01*
X0195641Y1396203D01*
X0195556Y1396224D01*
X0195473Y1396249D01*
X0195390Y1396277D01*
X0195309Y1396308D01*
X0195229Y1396343D01*
X0195151Y1396382D01*
X0195074Y1396424D01*
X0194999Y1396469D01*
X0194927Y1396518D01*
X0194856Y1396569D01*
X0194788Y1396624D01*
X0194723Y1396681D01*
X0194660Y1396742D01*
X0200670Y1420430D02*
X0195013Y1426087D01*
X0192538Y1428562D02*
X0146930Y1474170D01*
X0188242Y1470988D02*
X0215112Y1497858D01*
X0215175Y1497919D01*
X0215240Y1497976D01*
X0215308Y1498031D01*
X0215379Y1498082D01*
X0215451Y1498131D01*
X0215526Y1498176D01*
X0215603Y1498218D01*
X0215681Y1498257D01*
X0215761Y1498292D01*
X0215842Y1498323D01*
X0215925Y1498351D01*
X0216008Y1498376D01*
X0216093Y1498397D01*
X0216179Y1498414D01*
X0216265Y1498427D01*
X0216352Y1498436D01*
X0216439Y1498442D01*
X0216526Y1498444D01*
X0216613Y1498442D01*
X0216700Y1498436D01*
X0216787Y1498427D01*
X0216873Y1498414D01*
X0216959Y1498397D01*
X0217044Y1498376D01*
X0217127Y1498351D01*
X0217210Y1498323D01*
X0217291Y1498292D01*
X0217371Y1498257D01*
X0217449Y1498218D01*
X0217526Y1498176D01*
X0217601Y1498131D01*
X0217673Y1498082D01*
X0217744Y1498031D01*
X0217812Y1497976D01*
X0217877Y1497919D01*
X0217940Y1497858D01*
X0289358Y1426440D01*
X0289419Y1426377D01*
X0289476Y1426312D01*
X0289531Y1426244D01*
X0289582Y1426173D01*
X0289631Y1426101D01*
X0289676Y1426026D01*
X0289718Y1425949D01*
X0289757Y1425871D01*
X0289792Y1425791D01*
X0289823Y1425710D01*
X0289851Y1425627D01*
X0289876Y1425544D01*
X0289897Y1425459D01*
X0289914Y1425373D01*
X0289927Y1425287D01*
X0289936Y1425200D01*
X0289942Y1425113D01*
X0289944Y1425026D01*
X0289942Y1424939D01*
X0289936Y1424852D01*
X0289927Y1424765D01*
X0289914Y1424679D01*
X0289897Y1424593D01*
X0289876Y1424508D01*
X0289851Y1424425D01*
X0289823Y1424342D01*
X0289792Y1424261D01*
X0289757Y1424181D01*
X0289718Y1424103D01*
X0289676Y1424026D01*
X0289631Y1423951D01*
X0289582Y1423879D01*
X0289531Y1423808D01*
X0289476Y1423740D01*
X0289419Y1423675D01*
X0289358Y1423612D01*
X0262488Y1396742D01*
X0262425Y1396681D01*
X0262360Y1396624D01*
X0262292Y1396569D01*
X0262221Y1396518D01*
X0262149Y1396469D01*
X0262074Y1396424D01*
X0261997Y1396382D01*
X0261919Y1396343D01*
X0261839Y1396308D01*
X0261758Y1396277D01*
X0261675Y1396249D01*
X0261592Y1396224D01*
X0261507Y1396203D01*
X0261421Y1396186D01*
X0261335Y1396173D01*
X0261248Y1396164D01*
X0261161Y1396158D01*
X0261074Y1396156D01*
X0260987Y1396158D01*
X0260900Y1396164D01*
X0260813Y1396173D01*
X0260727Y1396186D01*
X0260641Y1396203D01*
X0260556Y1396224D01*
X0260473Y1396249D01*
X0260390Y1396277D01*
X0260309Y1396308D01*
X0260229Y1396343D01*
X0260151Y1396382D01*
X0260074Y1396424D01*
X0259999Y1396469D01*
X0259927Y1396518D01*
X0259856Y1396569D01*
X0259788Y1396624D01*
X0259723Y1396681D01*
X0259660Y1396742D01*
X0188242Y1468160D01*
X0188181Y1468223D01*
X0188124Y1468288D01*
X0188069Y1468356D01*
X0188018Y1468427D01*
X0187969Y1468499D01*
X0187924Y1468574D01*
X0187882Y1468651D01*
X0187843Y1468729D01*
X0187808Y1468809D01*
X0187777Y1468890D01*
X0187749Y1468973D01*
X0187724Y1469056D01*
X0187703Y1469141D01*
X0187686Y1469227D01*
X0187673Y1469313D01*
X0187664Y1469400D01*
X0187658Y1469487D01*
X0187656Y1469574D01*
X0187658Y1469661D01*
X0187664Y1469748D01*
X0187673Y1469835D01*
X0187686Y1469921D01*
X0187703Y1470007D01*
X0187724Y1470092D01*
X0187749Y1470175D01*
X0187777Y1470258D01*
X0187808Y1470339D01*
X0187843Y1470419D01*
X0187882Y1470497D01*
X0187924Y1470574D01*
X0187969Y1470649D01*
X0188018Y1470721D01*
X0188069Y1470792D01*
X0188124Y1470860D01*
X0188181Y1470925D01*
X0188242Y1470988D01*
X0211930Y1474170D02*
X0257538Y1428562D01*
X0260013Y1426087D02*
X0265670Y1420430D01*
X0253242Y1467660D02*
X0324660Y1396242D01*
X0324723Y1396181D01*
X0324788Y1396124D01*
X0324856Y1396069D01*
X0324927Y1396018D01*
X0324999Y1395969D01*
X0325074Y1395924D01*
X0325151Y1395882D01*
X0325229Y1395843D01*
X0325309Y1395808D01*
X0325390Y1395777D01*
X0325473Y1395749D01*
X0325556Y1395724D01*
X0325641Y1395703D01*
X0325727Y1395686D01*
X0325813Y1395673D01*
X0325900Y1395664D01*
X0325987Y1395658D01*
X0326074Y1395656D01*
X0326161Y1395658D01*
X0326248Y1395664D01*
X0326335Y1395673D01*
X0326421Y1395686D01*
X0326507Y1395703D01*
X0326592Y1395724D01*
X0326675Y1395749D01*
X0326758Y1395777D01*
X0326839Y1395808D01*
X0326919Y1395843D01*
X0326997Y1395882D01*
X0327074Y1395924D01*
X0327149Y1395969D01*
X0327221Y1396018D01*
X0327292Y1396069D01*
X0327360Y1396124D01*
X0327425Y1396181D01*
X0327488Y1396242D01*
X0354358Y1423112D01*
X0354419Y1423175D01*
X0354476Y1423240D01*
X0354531Y1423308D01*
X0354582Y1423379D01*
X0354631Y1423451D01*
X0354676Y1423526D01*
X0354718Y1423603D01*
X0354757Y1423681D01*
X0354792Y1423761D01*
X0354823Y1423842D01*
X0354851Y1423925D01*
X0354876Y1424008D01*
X0354897Y1424093D01*
X0354914Y1424179D01*
X0354927Y1424265D01*
X0354936Y1424352D01*
X0354942Y1424439D01*
X0354944Y1424526D01*
X0354942Y1424613D01*
X0354936Y1424700D01*
X0354927Y1424787D01*
X0354914Y1424873D01*
X0354897Y1424959D01*
X0354876Y1425044D01*
X0354851Y1425127D01*
X0354823Y1425210D01*
X0354792Y1425291D01*
X0354757Y1425371D01*
X0354718Y1425449D01*
X0354676Y1425526D01*
X0354631Y1425601D01*
X0354582Y1425673D01*
X0354531Y1425744D01*
X0354476Y1425812D01*
X0354419Y1425877D01*
X0354358Y1425940D01*
X0282940Y1497358D01*
X0282877Y1497419D01*
X0282812Y1497476D01*
X0282744Y1497531D01*
X0282673Y1497582D01*
X0282601Y1497631D01*
X0282526Y1497676D01*
X0282449Y1497718D01*
X0282371Y1497757D01*
X0282291Y1497792D01*
X0282210Y1497823D01*
X0282127Y1497851D01*
X0282044Y1497876D01*
X0281959Y1497897D01*
X0281873Y1497914D01*
X0281787Y1497927D01*
X0281700Y1497936D01*
X0281613Y1497942D01*
X0281526Y1497944D01*
X0281439Y1497942D01*
X0281352Y1497936D01*
X0281265Y1497927D01*
X0281179Y1497914D01*
X0281093Y1497897D01*
X0281008Y1497876D01*
X0280925Y1497851D01*
X0280842Y1497823D01*
X0280761Y1497792D01*
X0280681Y1497757D01*
X0280603Y1497718D01*
X0280526Y1497676D01*
X0280451Y1497631D01*
X0280379Y1497582D01*
X0280308Y1497531D01*
X0280240Y1497476D01*
X0280175Y1497419D01*
X0280112Y1497358D01*
X0253242Y1470488D01*
X0253181Y1470425D01*
X0253124Y1470360D01*
X0253069Y1470292D01*
X0253018Y1470221D01*
X0252969Y1470149D01*
X0252924Y1470074D01*
X0252882Y1469997D01*
X0252843Y1469919D01*
X0252808Y1469839D01*
X0252777Y1469758D01*
X0252749Y1469675D01*
X0252724Y1469592D01*
X0252703Y1469507D01*
X0252686Y1469421D01*
X0252673Y1469335D01*
X0252664Y1469248D01*
X0252658Y1469161D01*
X0252656Y1469074D01*
X0252658Y1468987D01*
X0252664Y1468900D01*
X0252673Y1468813D01*
X0252686Y1468727D01*
X0252703Y1468641D01*
X0252724Y1468556D01*
X0252749Y1468473D01*
X0252777Y1468390D01*
X0252808Y1468309D01*
X0252843Y1468229D01*
X0252882Y1468151D01*
X0252924Y1468074D01*
X0252969Y1467999D01*
X0253018Y1467927D01*
X0253069Y1467856D01*
X0253124Y1467788D01*
X0253181Y1467723D01*
X0253242Y1467660D01*
X0276930Y1473670D02*
X0322538Y1428062D01*
X0325013Y1425587D02*
X0330670Y1419930D01*
X0354968Y1487000D02*
X0356035Y1487000D01*
X0357103Y1488068D01*
X0357103Y1493405D01*
X0358170Y1493405D02*
X0356035Y1493405D01*
X0360345Y1493405D02*
X0364616Y1493405D01*
X0364616Y1492338D01*
X0360345Y1488068D01*
X0360345Y1487000D01*
X0354968Y1487000D02*
X0353900Y1488068D01*
X0338800Y1330300D02*
X0338800Y1324800D01*
X0303800Y1322300D02*
X0303811Y1323159D01*
X0303842Y1324017D01*
X0303895Y1324875D01*
X0303969Y1325731D01*
X0304063Y1326584D01*
X0304179Y1327436D01*
X0304315Y1328284D01*
X0304473Y1329128D01*
X0304650Y1329969D01*
X0304849Y1330804D01*
X0305068Y1331635D01*
X0305307Y1332460D01*
X0305567Y1333279D01*
X0305846Y1334091D01*
X0306145Y1334896D01*
X0306464Y1335694D01*
X0306803Y1336483D01*
X0307160Y1337264D01*
X0307537Y1338036D01*
X0307933Y1338799D01*
X0308347Y1339551D01*
X0308779Y1340294D01*
X0309230Y1341025D01*
X0309699Y1341745D01*
X0310185Y1342453D01*
X0310688Y1343149D01*
X0311208Y1343833D01*
X0311745Y1344504D01*
X0312298Y1345161D01*
X0312867Y1345805D01*
X0313451Y1346434D01*
X0314051Y1347049D01*
X0314666Y1347649D01*
X0315295Y1348233D01*
X0315939Y1348802D01*
X0316596Y1349355D01*
X0317267Y1349892D01*
X0317951Y1350412D01*
X0318647Y1350915D01*
X0319355Y1351401D01*
X0320075Y1351870D01*
X0320806Y1352321D01*
X0321549Y1352753D01*
X0322301Y1353167D01*
X0323064Y1353563D01*
X0323836Y1353940D01*
X0324617Y1354297D01*
X0325406Y1354636D01*
X0326204Y1354955D01*
X0327009Y1355254D01*
X0327821Y1355533D01*
X0328640Y1355793D01*
X0329465Y1356032D01*
X0330296Y1356251D01*
X0331131Y1356450D01*
X0331972Y1356627D01*
X0332816Y1356785D01*
X0333664Y1356921D01*
X0334516Y1357037D01*
X0335369Y1357131D01*
X0336225Y1357205D01*
X0337083Y1357258D01*
X0337941Y1357289D01*
X0338800Y1357300D01*
X0339659Y1357289D01*
X0340517Y1357258D01*
X0341375Y1357205D01*
X0342231Y1357131D01*
X0343084Y1357037D01*
X0343936Y1356921D01*
X0344784Y1356785D01*
X0345628Y1356627D01*
X0346469Y1356450D01*
X0347304Y1356251D01*
X0348135Y1356032D01*
X0348960Y1355793D01*
X0349779Y1355533D01*
X0350591Y1355254D01*
X0351396Y1354955D01*
X0352194Y1354636D01*
X0352983Y1354297D01*
X0353764Y1353940D01*
X0354536Y1353563D01*
X0355299Y1353167D01*
X0356051Y1352753D01*
X0356794Y1352321D01*
X0357525Y1351870D01*
X0358245Y1351401D01*
X0358953Y1350915D01*
X0359649Y1350412D01*
X0360333Y1349892D01*
X0361004Y1349355D01*
X0361661Y1348802D01*
X0362305Y1348233D01*
X0362934Y1347649D01*
X0363549Y1347049D01*
X0364149Y1346434D01*
X0364733Y1345805D01*
X0365302Y1345161D01*
X0365855Y1344504D01*
X0366392Y1343833D01*
X0366912Y1343149D01*
X0367415Y1342453D01*
X0367901Y1341745D01*
X0368370Y1341025D01*
X0368821Y1340294D01*
X0369253Y1339551D01*
X0369667Y1338799D01*
X0370063Y1338036D01*
X0370440Y1337264D01*
X0370797Y1336483D01*
X0371136Y1335694D01*
X0371455Y1334896D01*
X0371754Y1334091D01*
X0372033Y1333279D01*
X0372293Y1332460D01*
X0372532Y1331635D01*
X0372751Y1330804D01*
X0372950Y1329969D01*
X0373127Y1329128D01*
X0373285Y1328284D01*
X0373421Y1327436D01*
X0373537Y1326584D01*
X0373631Y1325731D01*
X0373705Y1324875D01*
X0373758Y1324017D01*
X0373789Y1323159D01*
X0373800Y1322300D01*
X0373789Y1321441D01*
X0373758Y1320583D01*
X0373705Y1319725D01*
X0373631Y1318869D01*
X0373537Y1318016D01*
X0373421Y1317164D01*
X0373285Y1316316D01*
X0373127Y1315472D01*
X0372950Y1314631D01*
X0372751Y1313796D01*
X0372532Y1312965D01*
X0372293Y1312140D01*
X0372033Y1311321D01*
X0371754Y1310509D01*
X0371455Y1309704D01*
X0371136Y1308906D01*
X0370797Y1308117D01*
X0370440Y1307336D01*
X0370063Y1306564D01*
X0369667Y1305801D01*
X0369253Y1305049D01*
X0368821Y1304306D01*
X0368370Y1303575D01*
X0367901Y1302855D01*
X0367415Y1302147D01*
X0366912Y1301451D01*
X0366392Y1300767D01*
X0365855Y1300096D01*
X0365302Y1299439D01*
X0364733Y1298795D01*
X0364149Y1298166D01*
X0363549Y1297551D01*
X0362934Y1296951D01*
X0362305Y1296367D01*
X0361661Y1295798D01*
X0361004Y1295245D01*
X0360333Y1294708D01*
X0359649Y1294188D01*
X0358953Y1293685D01*
X0358245Y1293199D01*
X0357525Y1292730D01*
X0356794Y1292279D01*
X0356051Y1291847D01*
X0355299Y1291433D01*
X0354536Y1291037D01*
X0353764Y1290660D01*
X0352983Y1290303D01*
X0352194Y1289964D01*
X0351396Y1289645D01*
X0350591Y1289346D01*
X0349779Y1289067D01*
X0348960Y1288807D01*
X0348135Y1288568D01*
X0347304Y1288349D01*
X0346469Y1288150D01*
X0345628Y1287973D01*
X0344784Y1287815D01*
X0343936Y1287679D01*
X0343084Y1287563D01*
X0342231Y1287469D01*
X0341375Y1287395D01*
X0340517Y1287342D01*
X0339659Y1287311D01*
X0338800Y1287300D01*
X0337941Y1287311D01*
X0337083Y1287342D01*
X0336225Y1287395D01*
X0335369Y1287469D01*
X0334516Y1287563D01*
X0333664Y1287679D01*
X0332816Y1287815D01*
X0331972Y1287973D01*
X0331131Y1288150D01*
X0330296Y1288349D01*
X0329465Y1288568D01*
X0328640Y1288807D01*
X0327821Y1289067D01*
X0327009Y1289346D01*
X0326204Y1289645D01*
X0325406Y1289964D01*
X0324617Y1290303D01*
X0323836Y1290660D01*
X0323064Y1291037D01*
X0322301Y1291433D01*
X0321549Y1291847D01*
X0320806Y1292279D01*
X0320075Y1292730D01*
X0319355Y1293199D01*
X0318647Y1293685D01*
X0317951Y1294188D01*
X0317267Y1294708D01*
X0316596Y1295245D01*
X0315939Y1295798D01*
X0315295Y1296367D01*
X0314666Y1296951D01*
X0314051Y1297551D01*
X0313451Y1298166D01*
X0312867Y1298795D01*
X0312298Y1299439D01*
X0311745Y1300096D01*
X0311208Y1300767D01*
X0310688Y1301451D01*
X0310185Y1302147D01*
X0309699Y1302855D01*
X0309230Y1303575D01*
X0308779Y1304306D01*
X0308347Y1305049D01*
X0307933Y1305801D01*
X0307537Y1306564D01*
X0307160Y1307336D01*
X0306803Y1308117D01*
X0306464Y1308906D01*
X0306145Y1309704D01*
X0305846Y1310509D01*
X0305567Y1311321D01*
X0305307Y1312140D01*
X0305068Y1312965D01*
X0304849Y1313796D01*
X0304650Y1314631D01*
X0304473Y1315472D01*
X0304315Y1316316D01*
X0304179Y1317164D01*
X0304063Y1318016D01*
X0303969Y1318869D01*
X0303895Y1319725D01*
X0303842Y1320583D01*
X0303811Y1321441D01*
X0303800Y1322300D01*
X0331300Y1321300D02*
X0331300Y1318800D01*
X0338800Y1318800D01*
X0346300Y1318800D01*
X0346300Y1321300D01*
X0331300Y1321300D01*
X0335800Y1295800D02*
X0341800Y1295800D01*
X0338800Y1292800D02*
X0338800Y1298800D01*
X0338735Y1287938D02*
X0338735Y1283668D01*
X0336600Y1285803D02*
X0340870Y1285803D01*
X0338800Y1314300D02*
X0338800Y1318800D01*
X0271300Y1318800D02*
X0263800Y1318800D01*
X0256300Y1318800D01*
X0256300Y1321300D01*
X0271300Y1321300D01*
X0271300Y1318800D01*
X0263800Y1318800D02*
X0263800Y1314300D01*
X0228800Y1322300D02*
X0228811Y1323159D01*
X0228842Y1324017D01*
X0228895Y1324875D01*
X0228969Y1325731D01*
X0229063Y1326584D01*
X0229179Y1327436D01*
X0229315Y1328284D01*
X0229473Y1329128D01*
X0229650Y1329969D01*
X0229849Y1330804D01*
X0230068Y1331635D01*
X0230307Y1332460D01*
X0230567Y1333279D01*
X0230846Y1334091D01*
X0231145Y1334896D01*
X0231464Y1335694D01*
X0231803Y1336483D01*
X0232160Y1337264D01*
X0232537Y1338036D01*
X0232933Y1338799D01*
X0233347Y1339551D01*
X0233779Y1340294D01*
X0234230Y1341025D01*
X0234699Y1341745D01*
X0235185Y1342453D01*
X0235688Y1343149D01*
X0236208Y1343833D01*
X0236745Y1344504D01*
X0237298Y1345161D01*
X0237867Y1345805D01*
X0238451Y1346434D01*
X0239051Y1347049D01*
X0239666Y1347649D01*
X0240295Y1348233D01*
X0240939Y1348802D01*
X0241596Y1349355D01*
X0242267Y1349892D01*
X0242951Y1350412D01*
X0243647Y1350915D01*
X0244355Y1351401D01*
X0245075Y1351870D01*
X0245806Y1352321D01*
X0246549Y1352753D01*
X0247301Y1353167D01*
X0248064Y1353563D01*
X0248836Y1353940D01*
X0249617Y1354297D01*
X0250406Y1354636D01*
X0251204Y1354955D01*
X0252009Y1355254D01*
X0252821Y1355533D01*
X0253640Y1355793D01*
X0254465Y1356032D01*
X0255296Y1356251D01*
X0256131Y1356450D01*
X0256972Y1356627D01*
X0257816Y1356785D01*
X0258664Y1356921D01*
X0259516Y1357037D01*
X0260369Y1357131D01*
X0261225Y1357205D01*
X0262083Y1357258D01*
X0262941Y1357289D01*
X0263800Y1357300D01*
X0264659Y1357289D01*
X0265517Y1357258D01*
X0266375Y1357205D01*
X0267231Y1357131D01*
X0268084Y1357037D01*
X0268936Y1356921D01*
X0269784Y1356785D01*
X0270628Y1356627D01*
X0271469Y1356450D01*
X0272304Y1356251D01*
X0273135Y1356032D01*
X0273960Y1355793D01*
X0274779Y1355533D01*
X0275591Y1355254D01*
X0276396Y1354955D01*
X0277194Y1354636D01*
X0277983Y1354297D01*
X0278764Y1353940D01*
X0279536Y1353563D01*
X0280299Y1353167D01*
X0281051Y1352753D01*
X0281794Y1352321D01*
X0282525Y1351870D01*
X0283245Y1351401D01*
X0283953Y1350915D01*
X0284649Y1350412D01*
X0285333Y1349892D01*
X0286004Y1349355D01*
X0286661Y1348802D01*
X0287305Y1348233D01*
X0287934Y1347649D01*
X0288549Y1347049D01*
X0289149Y1346434D01*
X0289733Y1345805D01*
X0290302Y1345161D01*
X0290855Y1344504D01*
X0291392Y1343833D01*
X0291912Y1343149D01*
X0292415Y1342453D01*
X0292901Y1341745D01*
X0293370Y1341025D01*
X0293821Y1340294D01*
X0294253Y1339551D01*
X0294667Y1338799D01*
X0295063Y1338036D01*
X0295440Y1337264D01*
X0295797Y1336483D01*
X0296136Y1335694D01*
X0296455Y1334896D01*
X0296754Y1334091D01*
X0297033Y1333279D01*
X0297293Y1332460D01*
X0297532Y1331635D01*
X0297751Y1330804D01*
X0297950Y1329969D01*
X0298127Y1329128D01*
X0298285Y1328284D01*
X0298421Y1327436D01*
X0298537Y1326584D01*
X0298631Y1325731D01*
X0298705Y1324875D01*
X0298758Y1324017D01*
X0298789Y1323159D01*
X0298800Y1322300D01*
X0298789Y1321441D01*
X0298758Y1320583D01*
X0298705Y1319725D01*
X0298631Y1318869D01*
X0298537Y1318016D01*
X0298421Y1317164D01*
X0298285Y1316316D01*
X0298127Y1315472D01*
X0297950Y1314631D01*
X0297751Y1313796D01*
X0297532Y1312965D01*
X0297293Y1312140D01*
X0297033Y1311321D01*
X0296754Y1310509D01*
X0296455Y1309704D01*
X0296136Y1308906D01*
X0295797Y1308117D01*
X0295440Y1307336D01*
X0295063Y1306564D01*
X0294667Y1305801D01*
X0294253Y1305049D01*
X0293821Y1304306D01*
X0293370Y1303575D01*
X0292901Y1302855D01*
X0292415Y1302147D01*
X0291912Y1301451D01*
X0291392Y1300767D01*
X0290855Y1300096D01*
X0290302Y1299439D01*
X0289733Y1298795D01*
X0289149Y1298166D01*
X0288549Y1297551D01*
X0287934Y1296951D01*
X0287305Y1296367D01*
X0286661Y1295798D01*
X0286004Y1295245D01*
X0285333Y1294708D01*
X0284649Y1294188D01*
X0283953Y1293685D01*
X0283245Y1293199D01*
X0282525Y1292730D01*
X0281794Y1292279D01*
X0281051Y1291847D01*
X0280299Y1291433D01*
X0279536Y1291037D01*
X0278764Y1290660D01*
X0277983Y1290303D01*
X0277194Y1289964D01*
X0276396Y1289645D01*
X0275591Y1289346D01*
X0274779Y1289067D01*
X0273960Y1288807D01*
X0273135Y1288568D01*
X0272304Y1288349D01*
X0271469Y1288150D01*
X0270628Y1287973D01*
X0269784Y1287815D01*
X0268936Y1287679D01*
X0268084Y1287563D01*
X0267231Y1287469D01*
X0266375Y1287395D01*
X0265517Y1287342D01*
X0264659Y1287311D01*
X0263800Y1287300D01*
X0262941Y1287311D01*
X0262083Y1287342D01*
X0261225Y1287395D01*
X0260369Y1287469D01*
X0259516Y1287563D01*
X0258664Y1287679D01*
X0257816Y1287815D01*
X0256972Y1287973D01*
X0256131Y1288150D01*
X0255296Y1288349D01*
X0254465Y1288568D01*
X0253640Y1288807D01*
X0252821Y1289067D01*
X0252009Y1289346D01*
X0251204Y1289645D01*
X0250406Y1289964D01*
X0249617Y1290303D01*
X0248836Y1290660D01*
X0248064Y1291037D01*
X0247301Y1291433D01*
X0246549Y1291847D01*
X0245806Y1292279D01*
X0245075Y1292730D01*
X0244355Y1293199D01*
X0243647Y1293685D01*
X0242951Y1294188D01*
X0242267Y1294708D01*
X0241596Y1295245D01*
X0240939Y1295798D01*
X0240295Y1296367D01*
X0239666Y1296951D01*
X0239051Y1297551D01*
X0238451Y1298166D01*
X0237867Y1298795D01*
X0237298Y1299439D01*
X0236745Y1300096D01*
X0236208Y1300767D01*
X0235688Y1301451D01*
X0235185Y1302147D01*
X0234699Y1302855D01*
X0234230Y1303575D01*
X0233779Y1304306D01*
X0233347Y1305049D01*
X0232933Y1305801D01*
X0232537Y1306564D01*
X0232160Y1307336D01*
X0231803Y1308117D01*
X0231464Y1308906D01*
X0231145Y1309704D01*
X0230846Y1310509D01*
X0230567Y1311321D01*
X0230307Y1312140D01*
X0230068Y1312965D01*
X0229849Y1313796D01*
X0229650Y1314631D01*
X0229473Y1315472D01*
X0229315Y1316316D01*
X0229179Y1317164D01*
X0229063Y1318016D01*
X0228969Y1318869D01*
X0228895Y1319725D01*
X0228842Y1320583D01*
X0228811Y1321441D01*
X0228800Y1322300D01*
X0221300Y1226300D02*
X0221300Y1218800D01*
X0221426Y1218798D01*
X0221551Y1218792D01*
X0221676Y1218782D01*
X0221801Y1218768D01*
X0221926Y1218751D01*
X0222050Y1218729D01*
X0222173Y1218704D01*
X0222295Y1218674D01*
X0222416Y1218641D01*
X0222536Y1218604D01*
X0222655Y1218564D01*
X0222772Y1218519D01*
X0222889Y1218471D01*
X0223003Y1218419D01*
X0223116Y1218364D01*
X0223227Y1218305D01*
X0223336Y1218243D01*
X0223443Y1218177D01*
X0223548Y1218108D01*
X0223651Y1218036D01*
X0223752Y1217961D01*
X0223850Y1217882D01*
X0223945Y1217800D01*
X0224038Y1217716D01*
X0224128Y1217628D01*
X0224216Y1217538D01*
X0224300Y1217445D01*
X0224382Y1217350D01*
X0224461Y1217252D01*
X0224536Y1217151D01*
X0224608Y1217048D01*
X0224677Y1216943D01*
X0224743Y1216836D01*
X0224805Y1216727D01*
X0224864Y1216616D01*
X0224919Y1216503D01*
X0224971Y1216389D01*
X0225019Y1216272D01*
X0225064Y1216155D01*
X0225104Y1216036D01*
X0225141Y1215916D01*
X0225174Y1215795D01*
X0225204Y1215673D01*
X0225229Y1215550D01*
X0225251Y1215426D01*
X0225268Y1215301D01*
X0225282Y1215176D01*
X0225292Y1215051D01*
X0225298Y1214926D01*
X0225300Y1214800D01*
X0225298Y1214674D01*
X0225292Y1214549D01*
X0225282Y1214424D01*
X0225268Y1214299D01*
X0225251Y1214174D01*
X0225229Y1214050D01*
X0225204Y1213927D01*
X0225174Y1213805D01*
X0225141Y1213684D01*
X0225104Y1213564D01*
X0225064Y1213445D01*
X0225019Y1213328D01*
X0224971Y1213211D01*
X0224919Y1213097D01*
X0224864Y1212984D01*
X0224805Y1212873D01*
X0224743Y1212764D01*
X0224677Y1212657D01*
X0224608Y1212552D01*
X0224536Y1212449D01*
X0224461Y1212348D01*
X0224382Y1212250D01*
X0224300Y1212155D01*
X0224216Y1212062D01*
X0224128Y1211972D01*
X0224038Y1211884D01*
X0223945Y1211800D01*
X0223850Y1211718D01*
X0223752Y1211639D01*
X0223651Y1211564D01*
X0223548Y1211492D01*
X0223443Y1211423D01*
X0223336Y1211357D01*
X0223227Y1211295D01*
X0223116Y1211236D01*
X0223003Y1211181D01*
X0222889Y1211129D01*
X0222772Y1211081D01*
X0222655Y1211036D01*
X0222536Y1210996D01*
X0222416Y1210959D01*
X0222295Y1210926D01*
X0222173Y1210896D01*
X0222050Y1210871D01*
X0221926Y1210849D01*
X0221801Y1210832D01*
X0221676Y1210818D01*
X0221551Y1210808D01*
X0221426Y1210802D01*
X0221300Y1210800D01*
X0221300Y1203300D01*
X0241300Y1203300D01*
X0241300Y1226300D01*
X0221300Y1226300D01*
X0196300Y1318800D02*
X0188800Y1318800D01*
X0181300Y1318800D01*
X0181300Y1321300D01*
X0196300Y1321300D01*
X0196300Y1318800D01*
X0191800Y1295800D02*
X0185800Y1295800D01*
X0188800Y1292800D02*
X0188800Y1298800D01*
X0188800Y1314300D02*
X0188800Y1318800D01*
X0153800Y1322300D02*
X0153811Y1323159D01*
X0153842Y1324017D01*
X0153895Y1324875D01*
X0153969Y1325731D01*
X0154063Y1326584D01*
X0154179Y1327436D01*
X0154315Y1328284D01*
X0154473Y1329128D01*
X0154650Y1329969D01*
X0154849Y1330804D01*
X0155068Y1331635D01*
X0155307Y1332460D01*
X0155567Y1333279D01*
X0155846Y1334091D01*
X0156145Y1334896D01*
X0156464Y1335694D01*
X0156803Y1336483D01*
X0157160Y1337264D01*
X0157537Y1338036D01*
X0157933Y1338799D01*
X0158347Y1339551D01*
X0158779Y1340294D01*
X0159230Y1341025D01*
X0159699Y1341745D01*
X0160185Y1342453D01*
X0160688Y1343149D01*
X0161208Y1343833D01*
X0161745Y1344504D01*
X0162298Y1345161D01*
X0162867Y1345805D01*
X0163451Y1346434D01*
X0164051Y1347049D01*
X0164666Y1347649D01*
X0165295Y1348233D01*
X0165939Y1348802D01*
X0166596Y1349355D01*
X0167267Y1349892D01*
X0167951Y1350412D01*
X0168647Y1350915D01*
X0169355Y1351401D01*
X0170075Y1351870D01*
X0170806Y1352321D01*
X0171549Y1352753D01*
X0172301Y1353167D01*
X0173064Y1353563D01*
X0173836Y1353940D01*
X0174617Y1354297D01*
X0175406Y1354636D01*
X0176204Y1354955D01*
X0177009Y1355254D01*
X0177821Y1355533D01*
X0178640Y1355793D01*
X0179465Y1356032D01*
X0180296Y1356251D01*
X0181131Y1356450D01*
X0181972Y1356627D01*
X0182816Y1356785D01*
X0183664Y1356921D01*
X0184516Y1357037D01*
X0185369Y1357131D01*
X0186225Y1357205D01*
X0187083Y1357258D01*
X0187941Y1357289D01*
X0188800Y1357300D01*
X0189659Y1357289D01*
X0190517Y1357258D01*
X0191375Y1357205D01*
X0192231Y1357131D01*
X0193084Y1357037D01*
X0193936Y1356921D01*
X0194784Y1356785D01*
X0195628Y1356627D01*
X0196469Y1356450D01*
X0197304Y1356251D01*
X0198135Y1356032D01*
X0198960Y1355793D01*
X0199779Y1355533D01*
X0200591Y1355254D01*
X0201396Y1354955D01*
X0202194Y1354636D01*
X0202983Y1354297D01*
X0203764Y1353940D01*
X0204536Y1353563D01*
X0205299Y1353167D01*
X0206051Y1352753D01*
X0206794Y1352321D01*
X0207525Y1351870D01*
X0208245Y1351401D01*
X0208953Y1350915D01*
X0209649Y1350412D01*
X0210333Y1349892D01*
X0211004Y1349355D01*
X0211661Y1348802D01*
X0212305Y1348233D01*
X0212934Y1347649D01*
X0213549Y1347049D01*
X0214149Y1346434D01*
X0214733Y1345805D01*
X0215302Y1345161D01*
X0215855Y1344504D01*
X0216392Y1343833D01*
X0216912Y1343149D01*
X0217415Y1342453D01*
X0217901Y1341745D01*
X0218370Y1341025D01*
X0218821Y1340294D01*
X0219253Y1339551D01*
X0219667Y1338799D01*
X0220063Y1338036D01*
X0220440Y1337264D01*
X0220797Y1336483D01*
X0221136Y1335694D01*
X0221455Y1334896D01*
X0221754Y1334091D01*
X0222033Y1333279D01*
X0222293Y1332460D01*
X0222532Y1331635D01*
X0222751Y1330804D01*
X0222950Y1329969D01*
X0223127Y1329128D01*
X0223285Y1328284D01*
X0223421Y1327436D01*
X0223537Y1326584D01*
X0223631Y1325731D01*
X0223705Y1324875D01*
X0223758Y1324017D01*
X0223789Y1323159D01*
X0223800Y1322300D01*
X0223789Y1321441D01*
X0223758Y1320583D01*
X0223705Y1319725D01*
X0223631Y1318869D01*
X0223537Y1318016D01*
X0223421Y1317164D01*
X0223285Y1316316D01*
X0223127Y1315472D01*
X0222950Y1314631D01*
X0222751Y1313796D01*
X0222532Y1312965D01*
X0222293Y1312140D01*
X0222033Y1311321D01*
X0221754Y1310509D01*
X0221455Y1309704D01*
X0221136Y1308906D01*
X0220797Y1308117D01*
X0220440Y1307336D01*
X0220063Y1306564D01*
X0219667Y1305801D01*
X0219253Y1305049D01*
X0218821Y1304306D01*
X0218370Y1303575D01*
X0217901Y1302855D01*
X0217415Y1302147D01*
X0216912Y1301451D01*
X0216392Y1300767D01*
X0215855Y1300096D01*
X0215302Y1299439D01*
X0214733Y1298795D01*
X0214149Y1298166D01*
X0213549Y1297551D01*
X0212934Y1296951D01*
X0212305Y1296367D01*
X0211661Y1295798D01*
X0211004Y1295245D01*
X0210333Y1294708D01*
X0209649Y1294188D01*
X0208953Y1293685D01*
X0208245Y1293199D01*
X0207525Y1292730D01*
X0206794Y1292279D01*
X0206051Y1291847D01*
X0205299Y1291433D01*
X0204536Y1291037D01*
X0203764Y1290660D01*
X0202983Y1290303D01*
X0202194Y1289964D01*
X0201396Y1289645D01*
X0200591Y1289346D01*
X0199779Y1289067D01*
X0198960Y1288807D01*
X0198135Y1288568D01*
X0197304Y1288349D01*
X0196469Y1288150D01*
X0195628Y1287973D01*
X0194784Y1287815D01*
X0193936Y1287679D01*
X0193084Y1287563D01*
X0192231Y1287469D01*
X0191375Y1287395D01*
X0190517Y1287342D01*
X0189659Y1287311D01*
X0188800Y1287300D01*
X0187941Y1287311D01*
X0187083Y1287342D01*
X0186225Y1287395D01*
X0185369Y1287469D01*
X0184516Y1287563D01*
X0183664Y1287679D01*
X0182816Y1287815D01*
X0181972Y1287973D01*
X0181131Y1288150D01*
X0180296Y1288349D01*
X0179465Y1288568D01*
X0178640Y1288807D01*
X0177821Y1289067D01*
X0177009Y1289346D01*
X0176204Y1289645D01*
X0175406Y1289964D01*
X0174617Y1290303D01*
X0173836Y1290660D01*
X0173064Y1291037D01*
X0172301Y1291433D01*
X0171549Y1291847D01*
X0170806Y1292279D01*
X0170075Y1292730D01*
X0169355Y1293199D01*
X0168647Y1293685D01*
X0167951Y1294188D01*
X0167267Y1294708D01*
X0166596Y1295245D01*
X0165939Y1295798D01*
X0165295Y1296367D01*
X0164666Y1296951D01*
X0164051Y1297551D01*
X0163451Y1298166D01*
X0162867Y1298795D01*
X0162298Y1299439D01*
X0161745Y1300096D01*
X0161208Y1300767D01*
X0160688Y1301451D01*
X0160185Y1302147D01*
X0159699Y1302855D01*
X0159230Y1303575D01*
X0158779Y1304306D01*
X0158347Y1305049D01*
X0157933Y1305801D01*
X0157537Y1306564D01*
X0157160Y1307336D01*
X0156803Y1308117D01*
X0156464Y1308906D01*
X0156145Y1309704D01*
X0155846Y1310509D01*
X0155567Y1311321D01*
X0155307Y1312140D01*
X0155068Y1312965D01*
X0154849Y1313796D01*
X0154650Y1314631D01*
X0154473Y1315472D01*
X0154315Y1316316D01*
X0154179Y1317164D01*
X0154063Y1318016D01*
X0153969Y1318869D01*
X0153895Y1319725D01*
X0153842Y1320583D01*
X0153811Y1321441D01*
X0153800Y1322300D01*
X0176600Y1295803D02*
X0180870Y1295803D01*
X0178735Y1297938D02*
X0178735Y1293668D01*
X0188800Y1324800D02*
X0188800Y1330300D01*
X0194200Y1257100D02*
X0183400Y1257100D01*
X0183400Y1237500D02*
X0187600Y1237500D01*
X0190000Y1237500D01*
X0194200Y1237500D01*
X0261600Y1285803D02*
X0265870Y1285803D01*
X0263735Y1287938D02*
X0263735Y1283668D01*
X0263800Y1292800D02*
X0263800Y1298800D01*
X0266800Y1295800D02*
X0260800Y1295800D01*
X0263800Y1324800D02*
X0263800Y1330300D01*
D15*
X0237044Y1240602D02*
X0236077Y1240602D01*
X0235593Y1240119D01*
X0234581Y1240602D02*
X0232647Y1238667D01*
X0233130Y1239151D02*
X0234581Y1237700D01*
X0235593Y1237700D02*
X0237528Y1239635D01*
X0237528Y1240119D01*
X0237044Y1240602D01*
X0237528Y1237700D02*
X0235593Y1237700D01*
X0232647Y1237700D02*
X0232647Y1240602D01*
X0231635Y1240119D02*
X0231151Y1240602D01*
X0230184Y1240602D01*
X0229700Y1240119D01*
X0229700Y1238184D01*
X0230184Y1237700D01*
X0231151Y1237700D01*
X0231635Y1238184D01*
X0231635Y1240119D01*
X0208166Y1206528D02*
X0208650Y1206044D01*
X0208650Y1205077D01*
X0208166Y1204593D01*
X0206231Y1206528D01*
X0208166Y1206528D01*
X0206231Y1206528D02*
X0205748Y1206044D01*
X0205748Y1205077D01*
X0206231Y1204593D01*
X0208166Y1204593D01*
X0207199Y1203581D02*
X0207199Y1201647D01*
X0205748Y1203098D01*
X0208650Y1203098D01*
X0208650Y1200635D02*
X0207683Y1199667D01*
X0207683Y1200151D02*
X0207683Y1198700D01*
X0208650Y1198700D02*
X0205748Y1198700D01*
X0205748Y1200151D01*
X0206231Y1200635D01*
X0207199Y1200635D01*
X0207683Y1200151D01*
X0207400Y1214950D02*
X0204498Y1214950D01*
X0204498Y1216401D01*
X0204981Y1216885D01*
X0205949Y1216885D01*
X0206433Y1216401D01*
X0206433Y1214950D01*
X0206433Y1215917D02*
X0207400Y1216885D01*
X0206916Y1217897D02*
X0207400Y1218380D01*
X0207400Y1219348D01*
X0206916Y1219831D01*
X0206433Y1219831D01*
X0205949Y1219348D01*
X0205949Y1218864D01*
X0205949Y1219348D02*
X0205465Y1219831D01*
X0204981Y1219831D01*
X0204498Y1219348D01*
X0204498Y1218380D01*
X0204981Y1217897D01*
X0204981Y1220843D02*
X0204498Y1221327D01*
X0204498Y1222294D01*
X0204981Y1222778D01*
X0205465Y1222778D01*
X0207400Y1220843D01*
X0207400Y1222778D01*
X0201188Y1222169D02*
X0201188Y1221685D01*
X0200705Y1221201D01*
X0201188Y1220717D01*
X0201188Y1220234D01*
X0200705Y1219750D01*
X0199737Y1219750D01*
X0199253Y1220234D01*
X0198242Y1220234D02*
X0197758Y1219750D01*
X0196791Y1219750D01*
X0196307Y1220234D01*
X0196307Y1222169D01*
X0196791Y1222652D01*
X0197758Y1222652D01*
X0198242Y1222169D01*
X0198242Y1220234D01*
X0198242Y1219750D02*
X0197274Y1220717D01*
X0199253Y1222169D02*
X0199737Y1222652D01*
X0200705Y1222652D01*
X0201188Y1222169D01*
X0200705Y1221201D02*
X0200221Y1221201D01*
X0200082Y1234030D02*
X0200082Y1237166D01*
X0201650Y1237166D02*
X0198514Y1234030D01*
X0198514Y1235598D02*
X0201650Y1235598D01*
X0201650Y1234030D02*
X0198514Y1237166D01*
X0190350Y1240784D02*
X0190350Y1241751D01*
X0189866Y1242235D01*
X0187448Y1242235D01*
X0188415Y1243247D02*
X0187448Y1244214D01*
X0190350Y1244214D01*
X0190350Y1243247D02*
X0190350Y1245181D01*
X0190350Y1240784D02*
X0189866Y1240300D01*
X0187448Y1240300D01*
X0186331Y1235352D02*
X0186331Y1234869D01*
X0184397Y1232934D01*
X0184397Y1232450D01*
X0183385Y1232934D02*
X0182901Y1232450D01*
X0181934Y1232450D01*
X0181450Y1232934D01*
X0181450Y1234869D01*
X0181934Y1235352D01*
X0182901Y1235352D01*
X0183385Y1234869D01*
X0184397Y1235352D02*
X0186331Y1235352D01*
X0090081Y1314184D02*
X0089598Y1313700D01*
X0088630Y1313700D01*
X0088147Y1314184D01*
X0089114Y1315151D02*
X0089598Y1315151D01*
X0090081Y1314667D01*
X0090081Y1314184D01*
X0089598Y1315151D02*
X0090081Y1315635D01*
X0090081Y1316119D01*
X0089598Y1316602D01*
X0088630Y1316602D01*
X0088147Y1316119D01*
X0087135Y1316602D02*
X0085200Y1316602D01*
X0086167Y1316602D02*
X0086167Y1313700D01*
X0078028Y1321119D02*
X0076093Y1319184D01*
X0076093Y1318700D01*
X0075081Y1319184D02*
X0074598Y1318700D01*
X0073630Y1318700D01*
X0073147Y1319184D01*
X0072135Y1318700D02*
X0071167Y1319667D01*
X0071651Y1319667D02*
X0070200Y1319667D01*
X0070200Y1318700D02*
X0070200Y1321602D01*
X0071651Y1321602D01*
X0072135Y1321119D01*
X0072135Y1320151D01*
X0071651Y1319667D01*
X0073147Y1321119D02*
X0073630Y1321602D01*
X0074598Y1321602D01*
X0075081Y1321119D01*
X0075081Y1320635D01*
X0074598Y1320151D01*
X0075081Y1319667D01*
X0075081Y1319184D01*
X0074598Y1320151D02*
X0074114Y1320151D01*
X0076093Y1321602D02*
X0078028Y1321602D01*
X0078028Y1321119D01*
X0077455Y1331750D02*
X0076487Y1331750D01*
X0076003Y1332234D01*
X0076003Y1332717D01*
X0076487Y1333201D01*
X0077455Y1333201D01*
X0077938Y1332717D01*
X0077938Y1332234D01*
X0077455Y1331750D01*
X0077455Y1333201D02*
X0077938Y1333685D01*
X0077938Y1334169D01*
X0077455Y1334652D01*
X0076487Y1334652D01*
X0076003Y1334169D01*
X0076003Y1333685D01*
X0076487Y1333201D01*
X0074992Y1331750D02*
X0073057Y1331750D01*
X0074024Y1331750D02*
X0074024Y1334652D01*
X0073057Y1333685D01*
X0072045Y1334169D02*
X0071562Y1334652D01*
X0070594Y1334652D01*
X0070110Y1334169D01*
X0070110Y1332234D01*
X0070594Y1331750D01*
X0071562Y1331750D01*
X0072045Y1332234D01*
X0061877Y1275143D02*
X0063307Y1274891D01*
X0063699Y1274331D01*
X0063531Y1273378D01*
X0062971Y1272986D01*
X0061541Y1273238D01*
X0061373Y1272285D02*
X0061877Y1275143D01*
X0062494Y1273070D02*
X0063279Y1271949D01*
X0064359Y1272250D02*
X0064751Y1271689D01*
X0065704Y1271521D01*
X0066265Y1271914D01*
X0066349Y1272390D01*
X0065956Y1272951D01*
X0065480Y1273035D01*
X0065956Y1272951D02*
X0066517Y1273343D01*
X0066601Y1273819D01*
X0066208Y1274380D01*
X0065255Y1274548D01*
X0064695Y1274155D01*
X0067513Y1273167D02*
X0068634Y1273952D01*
X0068130Y1271094D01*
X0069082Y1270926D02*
X0067177Y1271262D01*
X0324057Y1320984D02*
X0324541Y1320500D01*
X0325508Y1320500D01*
X0325992Y1320984D01*
X0327003Y1320984D02*
X0327487Y1320500D01*
X0328455Y1320500D01*
X0328938Y1320984D01*
X0328938Y1321467D01*
X0328455Y1321951D01*
X0327971Y1321951D01*
X0328455Y1321951D02*
X0328938Y1322435D01*
X0328938Y1322919D01*
X0328455Y1323402D01*
X0327487Y1323402D01*
X0327003Y1322919D01*
X0325992Y1322919D02*
X0325508Y1323402D01*
X0324541Y1323402D01*
X0324057Y1322919D01*
X0324057Y1320984D01*
D16*
X0354967Y1452300D02*
X0355634Y1452300D01*
X0356302Y1452967D01*
X0356302Y1456303D01*
X0356969Y1456303D02*
X0355634Y1456303D01*
X0354300Y1452967D02*
X0354967Y1452300D01*
X0358904Y1454302D02*
X0361573Y1454302D01*
X0360906Y1456303D02*
X0358904Y1454302D01*
X0360906Y1456303D02*
X0360906Y1452300D01*
X0271300Y1233550D02*
X0271300Y1213550D01*
X0263800Y1213550D01*
X0263800Y1233550D01*
X0271300Y1233550D01*
X0263800Y1233550D02*
X0246300Y1233550D01*
X0246300Y1213550D01*
X0263800Y1213550D01*
X0263800Y1212300D02*
X0263800Y1192300D01*
X0246300Y1192300D01*
X0246300Y1212300D01*
X0263800Y1212300D01*
X0271300Y1212300D01*
X0271300Y1192300D01*
X0263800Y1192300D01*
X0203800Y1192300D02*
X0186300Y1192300D01*
X0186300Y1212300D01*
X0203800Y1212300D01*
X0203800Y1192300D01*
X0186300Y1192300D02*
X0178800Y1192300D01*
X0178800Y1212300D01*
X0186300Y1212300D01*
X0175906Y1377300D02*
X0174571Y1377300D01*
X0173904Y1377967D01*
X0175238Y1379302D02*
X0175906Y1379302D01*
X0176573Y1378634D01*
X0176573Y1377967D01*
X0175906Y1377300D01*
X0175906Y1379302D02*
X0176573Y1379969D01*
X0176573Y1380636D01*
X0175906Y1381303D01*
X0174571Y1381303D01*
X0173904Y1380636D01*
X0171969Y1381303D02*
X0170634Y1381303D01*
X0171302Y1381303D02*
X0171302Y1377967D01*
X0170634Y1377300D01*
X0169967Y1377300D01*
X0169300Y1377967D01*
X0051300Y1364800D02*
X0051300Y1344800D01*
X0043800Y1344800D01*
X0043800Y1364800D01*
X0051300Y1364800D01*
X0051300Y1343550D02*
X0043800Y1343550D01*
X0043800Y1323550D01*
X0026300Y1323550D01*
X0026300Y1343550D01*
X0043800Y1343550D01*
X0043800Y1344800D02*
X0026300Y1344800D01*
X0026300Y1364800D01*
X0043800Y1364800D01*
X0051300Y1343550D02*
X0051300Y1323550D01*
X0043800Y1323550D01*
X0043800Y1322300D02*
X0043800Y1302300D01*
X0026300Y1302300D01*
X0026300Y1322300D01*
X0043800Y1322300D01*
X0051300Y1322300D01*
X0051300Y1302300D01*
X0043800Y1302300D01*
X0042156Y1286303D02*
X0040821Y1286303D01*
X0040154Y1285636D01*
X0038219Y1286303D02*
X0036884Y1286303D01*
X0037552Y1286303D02*
X0037552Y1282967D01*
X0036884Y1282300D01*
X0036217Y1282300D01*
X0035550Y1282967D01*
X0036884Y1278803D02*
X0038219Y1278803D01*
X0037552Y1278803D02*
X0037552Y1275467D01*
X0036884Y1274800D01*
X0036217Y1274800D01*
X0035550Y1275467D01*
X0040154Y1274800D02*
X0042823Y1274800D01*
X0041488Y1274800D02*
X0041488Y1278803D01*
X0040154Y1277469D01*
X0040154Y1282300D02*
X0042823Y1284969D01*
X0042823Y1285636D01*
X0042156Y1286303D01*
X0042823Y1282300D02*
X0040154Y1282300D01*
D17*
X0082800Y1269550D02*
X0087300Y1269550D01*
X0096300Y1269550D02*
X0109300Y1269550D01*
X0118800Y1269550D02*
X0131300Y1269550D01*
X0140300Y1269550D02*
X0144800Y1269550D01*
X0144800Y1243300D02*
X0140300Y1243300D01*
X0131300Y1243300D02*
X0118800Y1243300D01*
X0109300Y1243300D02*
X0096300Y1243300D01*
X0087300Y1243300D02*
X0082800Y1243300D01*
D18*
X0076398Y1304544D02*
X0076398Y1310056D01*
X0075800Y1308300D02*
X0073800Y1305800D01*
X0071800Y1308300D01*
X0075800Y1308300D01*
X0075512Y1307940D02*
X0072088Y1307940D01*
X0072487Y1307441D02*
X0075113Y1307441D01*
X0074714Y1306943D02*
X0072886Y1306943D01*
X0073285Y1306444D02*
X0074315Y1306444D01*
X0073917Y1305946D02*
X0073683Y1305946D01*
X0071202Y1304544D02*
X0071202Y1310056D01*
X0066398Y1310056D02*
X0066398Y1304544D01*
X0065800Y1306300D02*
X0061800Y1306300D01*
X0063800Y1308800D01*
X0065800Y1306300D01*
X0065685Y1306444D02*
X0061915Y1306444D01*
X0062314Y1306943D02*
X0065286Y1306943D01*
X0064887Y1307441D02*
X0062713Y1307441D01*
X0063112Y1307940D02*
X0064488Y1307940D01*
X0064089Y1308438D02*
X0063511Y1308438D01*
X0061202Y1310056D02*
X0061202Y1304544D01*
X0119842Y1289553D02*
X0120593Y1290304D01*
X0122094Y1290304D01*
X0122845Y1289553D01*
X0122845Y1286551D01*
X0122094Y1285800D01*
X0120593Y1285800D01*
X0119842Y1286551D01*
X0119842Y1289553D01*
X0121343Y1287301D02*
X0122845Y1285800D01*
X0124446Y1285800D02*
X0127449Y1288803D01*
X0127449Y1289553D01*
X0126698Y1290304D01*
X0125197Y1290304D01*
X0124446Y1289553D01*
X0124446Y1285800D02*
X0127449Y1285800D01*
X0136044Y1324702D02*
X0141556Y1324702D01*
X0139779Y1326883D02*
X0137800Y1326883D01*
X0137800Y1326385D02*
X0139156Y1326385D01*
X0138533Y1325886D02*
X0137800Y1325886D01*
X0137800Y1325388D02*
X0137910Y1325388D01*
X0137800Y1325300D02*
X0137800Y1329300D01*
X0140300Y1327300D01*
X0137800Y1325300D01*
X0137800Y1327382D02*
X0140198Y1327382D01*
X0139575Y1327880D02*
X0137800Y1327880D01*
X0137800Y1328379D02*
X0138952Y1328379D01*
X0138328Y1328877D02*
X0137800Y1328877D01*
X0136044Y1329898D02*
X0141556Y1329898D01*
X0141556Y1339702D02*
X0136044Y1339702D01*
X0137877Y1341839D02*
X0139800Y1341839D01*
X0139800Y1342337D02*
X0137346Y1342337D01*
X0137300Y1342300D02*
X0139800Y1340300D01*
X0139800Y1344300D01*
X0137300Y1342300D01*
X0137969Y1342836D02*
X0139800Y1342836D01*
X0139800Y1343334D02*
X0138593Y1343334D01*
X0139216Y1343833D02*
X0139800Y1343833D01*
X0141556Y1344898D02*
X0136044Y1344898D01*
X0138500Y1341340D02*
X0139800Y1341340D01*
X0139800Y1340841D02*
X0139123Y1340841D01*
X0139746Y1340343D02*
X0139800Y1340343D01*
X0130947Y1234054D02*
X0130947Y1229550D01*
X0129446Y1229550D02*
X0132449Y1229550D01*
X0129446Y1232553D02*
X0130947Y1234054D01*
X0127845Y1233303D02*
X0127845Y1230301D01*
X0127094Y1229550D01*
X0125593Y1229550D01*
X0124842Y1230301D01*
X0124842Y1233303D01*
X0125593Y1234054D01*
X0127094Y1234054D01*
X0127845Y1233303D01*
X0126343Y1231051D02*
X0127845Y1229550D01*
X0280649Y1454849D02*
X0279588Y1455910D01*
X0279588Y1456972D01*
X0281711Y1459095D01*
X0282772Y1459095D01*
X0283834Y1458033D01*
X0283834Y1456972D01*
X0284966Y1455839D02*
X0284435Y1455309D01*
X0284435Y1454247D01*
X0285497Y1453185D01*
X0285497Y1452124D01*
X0284966Y1451593D01*
X0283905Y1451593D01*
X0282843Y1452655D01*
X0282843Y1453716D01*
X0283374Y1454247D01*
X0284435Y1454247D01*
X0285497Y1453185D02*
X0286559Y1453185D01*
X0287089Y1453716D01*
X0287089Y1454778D01*
X0286028Y1455839D01*
X0284966Y1455839D01*
X0281711Y1454849D02*
X0280649Y1454849D01*
D19*
X0061300Y1157300D03*
X0061300Y1107300D03*
X0061300Y1057300D03*
X0061300Y1007300D03*
X0061300Y0957300D03*
X0061300Y0907300D03*
D20*
X0052800Y0907300D03*
X0052800Y0957300D03*
X0052800Y1007300D03*
X0052800Y1057300D03*
X0052800Y1107300D03*
X0052800Y1157300D03*
X0094800Y1157300D03*
X0094800Y1107300D03*
X0094800Y1057300D03*
X0094800Y1007300D03*
X0094800Y0957300D03*
X0094800Y0907300D03*
D21*
X0072845Y0927801D02*
X0071794Y0926750D01*
X0069692Y0926750D01*
X0068641Y0927801D01*
X0072845Y0932004D01*
X0072845Y0927801D01*
X0072845Y0932004D02*
X0071794Y0933055D01*
X0069692Y0933055D01*
X0068641Y0932004D01*
X0068641Y0927801D01*
X0066399Y0926750D02*
X0062195Y0926750D01*
X0064297Y0926750D02*
X0064297Y0933055D01*
X0062195Y0930954D01*
X0059954Y0932004D02*
X0058903Y0933055D01*
X0055750Y0933055D01*
X0055750Y0926750D01*
X0058903Y0926750D01*
X0059954Y0927801D01*
X0059954Y0932004D01*
X0058903Y0976750D02*
X0059954Y0977801D01*
X0059954Y0982004D01*
X0058903Y0983055D01*
X0055750Y0983055D01*
X0055750Y0976750D01*
X0058903Y0976750D01*
X0062195Y0977801D02*
X0063246Y0976750D01*
X0065348Y0976750D01*
X0066399Y0977801D01*
X0066399Y0982004D01*
X0065348Y0983055D01*
X0063246Y0983055D01*
X0062195Y0982004D01*
X0062195Y0980954D01*
X0063246Y0979903D01*
X0066399Y0979903D01*
X0065348Y1026750D02*
X0063246Y1026750D01*
X0062195Y1027801D01*
X0062195Y1028852D01*
X0063246Y1029903D01*
X0065348Y1029903D01*
X0066399Y1028852D01*
X0066399Y1027801D01*
X0065348Y1026750D01*
X0065348Y1029903D02*
X0066399Y1030954D01*
X0066399Y1032004D01*
X0065348Y1033055D01*
X0063246Y1033055D01*
X0062195Y1032004D01*
X0062195Y1030954D01*
X0063246Y1029903D01*
X0059954Y1032004D02*
X0058903Y1033055D01*
X0055750Y1033055D01*
X0055750Y1026750D01*
X0058903Y1026750D01*
X0059954Y1027801D01*
X0059954Y1032004D01*
X0058903Y1076750D02*
X0059954Y1077801D01*
X0059954Y1082004D01*
X0058903Y1083055D01*
X0055750Y1083055D01*
X0055750Y1076750D01*
X0058903Y1076750D01*
X0062195Y1076750D02*
X0062195Y1077801D01*
X0066399Y1082004D01*
X0066399Y1083055D01*
X0062195Y1083055D01*
X0063246Y1126750D02*
X0065348Y1126750D01*
X0066399Y1127801D01*
X0066399Y1128852D01*
X0065348Y1129903D01*
X0062195Y1129903D01*
X0062195Y1127801D01*
X0063246Y1126750D01*
X0062195Y1129903D02*
X0064297Y1132004D01*
X0066399Y1133055D01*
X0059954Y1132004D02*
X0058903Y1133055D01*
X0055750Y1133055D01*
X0055750Y1126750D01*
X0058903Y1126750D01*
X0059954Y1127801D01*
X0059954Y1132004D01*
X0058903Y1176750D02*
X0059954Y1177801D01*
X0059954Y1182004D01*
X0058903Y1183055D01*
X0055750Y1183055D01*
X0055750Y1176750D01*
X0058903Y1176750D01*
X0062195Y1177801D02*
X0063246Y1176750D01*
X0065348Y1176750D01*
X0066399Y1177801D01*
X0066399Y1179903D01*
X0065348Y1180954D01*
X0064297Y1180954D01*
X0062195Y1179903D01*
X0062195Y1183055D01*
X0066399Y1183055D01*
X0164112Y1436471D02*
X0161140Y1439443D01*
X0162626Y1437957D02*
X0167085Y1442415D01*
X0164112Y1442415D01*
X0163270Y1444744D02*
X0163270Y1446230D01*
X0161784Y1447716D01*
X0160298Y1447716D01*
X0157325Y1444744D01*
X0157325Y1443258D01*
X0158811Y1441771D01*
X0160298Y1441771D01*
X0165697Y1434885D02*
X0168670Y1431913D01*
X0167184Y1433399D02*
X0171642Y1437858D01*
X0168670Y1437858D01*
X0212325Y1458258D02*
X0213811Y1456771D01*
X0215298Y1456771D01*
X0216140Y1454443D02*
X0219112Y1451471D01*
X0217626Y1452957D02*
X0222085Y1457415D01*
X0219112Y1457415D01*
X0218270Y1459744D02*
X0218270Y1461230D01*
X0216784Y1462716D01*
X0215298Y1462716D01*
X0212325Y1459744D01*
X0212325Y1458258D01*
X0221441Y1450628D02*
X0227385Y1450628D01*
X0224413Y1447656D01*
X0222927Y1447656D01*
X0221441Y1449142D01*
X0221441Y1450628D01*
X0224413Y1453601D01*
X0225899Y1453601D01*
X0227385Y1452115D01*
X0227385Y1450628D01*
X0049748Y0549955D02*
X0046595Y0546803D01*
X0050799Y0546803D01*
X0049748Y0549955D02*
X0049748Y0543650D01*
X0044354Y0544701D02*
X0043303Y0543650D01*
X0041201Y0543650D01*
X0040150Y0544701D01*
X0040150Y0548904D01*
X0041201Y0549955D01*
X0043303Y0549955D01*
X0044354Y0548904D01*
X0043303Y0474955D02*
X0041201Y0474955D01*
X0040150Y0473904D01*
X0040150Y0469701D01*
X0041201Y0468650D01*
X0043303Y0468650D01*
X0044354Y0469701D01*
X0046595Y0469701D02*
X0047646Y0468650D01*
X0049748Y0468650D01*
X0050799Y0469701D01*
X0050799Y0471803D01*
X0049748Y0472854D01*
X0048697Y0472854D01*
X0046595Y0471803D01*
X0046595Y0474955D01*
X0050799Y0474955D01*
X0044354Y0473904D02*
X0043303Y0474955D01*
X0043303Y0399955D02*
X0041201Y0399955D01*
X0040150Y0398904D01*
X0040150Y0394701D01*
X0041201Y0393650D01*
X0043303Y0393650D01*
X0044354Y0394701D01*
X0046595Y0393650D02*
X0050799Y0393650D01*
X0048697Y0393650D02*
X0048697Y0399955D01*
X0046595Y0397854D01*
X0044354Y0398904D02*
X0043303Y0399955D01*
X0053041Y0398904D02*
X0054092Y0399955D01*
X0056194Y0399955D01*
X0057245Y0398904D01*
X0057245Y0397854D01*
X0053041Y0393650D01*
X0057245Y0393650D01*
X0056194Y0324955D02*
X0054092Y0324955D01*
X0053041Y0323904D01*
X0055143Y0321803D02*
X0056194Y0321803D01*
X0057245Y0320752D01*
X0057245Y0319701D01*
X0056194Y0318650D01*
X0054092Y0318650D01*
X0053041Y0319701D01*
X0050799Y0318650D02*
X0046595Y0318650D01*
X0048697Y0318650D02*
X0048697Y0324955D01*
X0046595Y0322854D01*
X0044354Y0323904D02*
X0043303Y0324955D01*
X0041201Y0324955D01*
X0040150Y0323904D01*
X0040150Y0319701D01*
X0041201Y0318650D01*
X0043303Y0318650D01*
X0044354Y0319701D01*
X0056194Y0321803D02*
X0057245Y0322854D01*
X0057245Y0323904D01*
X0056194Y0324955D01*
X0056194Y0249955D02*
X0053041Y0246803D01*
X0057245Y0246803D01*
X0056194Y0249955D02*
X0056194Y0243650D01*
X0050799Y0243650D02*
X0046595Y0243650D01*
X0048697Y0243650D02*
X0048697Y0249955D01*
X0046595Y0247854D01*
X0044354Y0248904D02*
X0043303Y0249955D01*
X0041201Y0249955D01*
X0040150Y0248904D01*
X0040150Y0244701D01*
X0041201Y0243650D01*
X0043303Y0243650D01*
X0044354Y0244701D01*
X0026745Y0050955D02*
X0022541Y0050955D01*
X0026745Y0050955D02*
X0026745Y0049904D01*
X0022541Y0045701D01*
X0022541Y0044650D01*
X0020299Y0044650D02*
X0016095Y0044650D01*
X0018197Y0044650D02*
X0018197Y0050955D01*
X0016095Y0048854D01*
X0013854Y0049904D02*
X0012803Y0050955D01*
X0010701Y0050955D01*
X0009650Y0049904D01*
X0009650Y0045701D01*
X0010701Y0044650D01*
X0012803Y0044650D01*
X0013854Y0045701D01*
D22*
X0188800Y1324550D03*
X0263800Y1324550D03*
X0338800Y1324550D03*
D23*
X0319710Y1420283D02*
X0325013Y1425587D01*
X0330316Y1430890D01*
X0327842Y1433365D02*
X0322538Y1428062D01*
X0317235Y1422758D01*
X0265316Y1431390D02*
X0260013Y1426087D01*
X0254710Y1420783D01*
X0252235Y1423258D02*
X0257538Y1428562D01*
X0262842Y1433865D01*
X0200316Y1431390D02*
X0195013Y1426087D01*
X0189710Y1420783D01*
X0187235Y1423258D02*
X0192538Y1428562D01*
X0197842Y1433865D01*
X0087300Y0519800D02*
X0087300Y0512300D01*
X0087300Y0504800D01*
X0083800Y0504800D02*
X0083800Y0512300D01*
X0083800Y0519800D01*
X0083800Y0444800D02*
X0083800Y0437300D01*
X0083800Y0429800D01*
X0087300Y0429800D02*
X0087300Y0437300D01*
X0087300Y0444800D01*
X0087300Y0369800D02*
X0087300Y0362300D01*
X0087300Y0354800D01*
X0083800Y0354800D02*
X0083800Y0362300D01*
X0083800Y0369800D01*
X0083800Y0294800D02*
X0083800Y0287300D01*
X0083800Y0279800D01*
X0087300Y0279800D02*
X0087300Y0287300D01*
X0087300Y0294800D01*
X0087300Y0219800D02*
X0087300Y0212300D01*
X0087300Y0204800D01*
X0083800Y0204800D02*
X0083800Y0212300D01*
X0083800Y0219800D01*
X0027300Y0029800D02*
X0027300Y0022300D01*
X0027300Y0014800D01*
X0023800Y0014800D02*
X0023800Y0022300D01*
X0023800Y0029800D01*
D24*
X0195788Y1227044D02*
X0195788Y1230194D01*
X0195788Y1227044D02*
X0198150Y1227044D01*
X0204450Y1227044D02*
X0206812Y1227044D01*
X0206812Y1230194D01*
M02*
