G75*
%MOIN*%
%OFA0B0*%
%FSLAX25Y25*%
%IPPOS*%
%LPD*%
%AMOC8*
5,1,8,0,0,1.08239X$1,22.5*
%
%ADD10C,0.00000*%
%ADD11R,0.21654X0.07283*%
%ADD12R,0.11024X0.14961*%
D10*
X0028800Y1187300D02*
X0028800Y1502261D01*
X0422501Y1502261D01*
X0422501Y1187300D01*
X0028800Y1187300D01*
X0035926Y1487300D02*
X0035928Y1487493D01*
X0035935Y1487686D01*
X0035947Y1487879D01*
X0035964Y1488072D01*
X0035985Y1488264D01*
X0036011Y1488455D01*
X0036042Y1488646D01*
X0036077Y1488836D01*
X0036117Y1489025D01*
X0036162Y1489213D01*
X0036211Y1489400D01*
X0036265Y1489586D01*
X0036323Y1489770D01*
X0036386Y1489953D01*
X0036454Y1490134D01*
X0036525Y1490313D01*
X0036602Y1490491D01*
X0036682Y1490667D01*
X0036767Y1490840D01*
X0036856Y1491012D01*
X0036949Y1491181D01*
X0037046Y1491348D01*
X0037148Y1491513D01*
X0037253Y1491675D01*
X0037362Y1491834D01*
X0037476Y1491991D01*
X0037593Y1492144D01*
X0037713Y1492295D01*
X0037838Y1492443D01*
X0037966Y1492588D01*
X0038097Y1492729D01*
X0038232Y1492868D01*
X0038371Y1493003D01*
X0038512Y1493134D01*
X0038657Y1493262D01*
X0038805Y1493387D01*
X0038956Y1493507D01*
X0039109Y1493624D01*
X0039266Y1493738D01*
X0039425Y1493847D01*
X0039587Y1493952D01*
X0039752Y1494054D01*
X0039919Y1494151D01*
X0040088Y1494244D01*
X0040260Y1494333D01*
X0040433Y1494418D01*
X0040609Y1494498D01*
X0040787Y1494575D01*
X0040966Y1494646D01*
X0041147Y1494714D01*
X0041330Y1494777D01*
X0041514Y1494835D01*
X0041700Y1494889D01*
X0041887Y1494938D01*
X0042075Y1494983D01*
X0042264Y1495023D01*
X0042454Y1495058D01*
X0042645Y1495089D01*
X0042836Y1495115D01*
X0043028Y1495136D01*
X0043221Y1495153D01*
X0043414Y1495165D01*
X0043607Y1495172D01*
X0043800Y1495174D01*
X0043993Y1495172D01*
X0044186Y1495165D01*
X0044379Y1495153D01*
X0044572Y1495136D01*
X0044764Y1495115D01*
X0044955Y1495089D01*
X0045146Y1495058D01*
X0045336Y1495023D01*
X0045525Y1494983D01*
X0045713Y1494938D01*
X0045900Y1494889D01*
X0046086Y1494835D01*
X0046270Y1494777D01*
X0046453Y1494714D01*
X0046634Y1494646D01*
X0046813Y1494575D01*
X0046991Y1494498D01*
X0047167Y1494418D01*
X0047340Y1494333D01*
X0047512Y1494244D01*
X0047681Y1494151D01*
X0047848Y1494054D01*
X0048013Y1493952D01*
X0048175Y1493847D01*
X0048334Y1493738D01*
X0048491Y1493624D01*
X0048644Y1493507D01*
X0048795Y1493387D01*
X0048943Y1493262D01*
X0049088Y1493134D01*
X0049229Y1493003D01*
X0049368Y1492868D01*
X0049503Y1492729D01*
X0049634Y1492588D01*
X0049762Y1492443D01*
X0049887Y1492295D01*
X0050007Y1492144D01*
X0050124Y1491991D01*
X0050238Y1491834D01*
X0050347Y1491675D01*
X0050452Y1491513D01*
X0050554Y1491348D01*
X0050651Y1491181D01*
X0050744Y1491012D01*
X0050833Y1490840D01*
X0050918Y1490667D01*
X0050998Y1490491D01*
X0051075Y1490313D01*
X0051146Y1490134D01*
X0051214Y1489953D01*
X0051277Y1489770D01*
X0051335Y1489586D01*
X0051389Y1489400D01*
X0051438Y1489213D01*
X0051483Y1489025D01*
X0051523Y1488836D01*
X0051558Y1488646D01*
X0051589Y1488455D01*
X0051615Y1488264D01*
X0051636Y1488072D01*
X0051653Y1487879D01*
X0051665Y1487686D01*
X0051672Y1487493D01*
X0051674Y1487300D01*
X0051672Y1487107D01*
X0051665Y1486914D01*
X0051653Y1486721D01*
X0051636Y1486528D01*
X0051615Y1486336D01*
X0051589Y1486145D01*
X0051558Y1485954D01*
X0051523Y1485764D01*
X0051483Y1485575D01*
X0051438Y1485387D01*
X0051389Y1485200D01*
X0051335Y1485014D01*
X0051277Y1484830D01*
X0051214Y1484647D01*
X0051146Y1484466D01*
X0051075Y1484287D01*
X0050998Y1484109D01*
X0050918Y1483933D01*
X0050833Y1483760D01*
X0050744Y1483588D01*
X0050651Y1483419D01*
X0050554Y1483252D01*
X0050452Y1483087D01*
X0050347Y1482925D01*
X0050238Y1482766D01*
X0050124Y1482609D01*
X0050007Y1482456D01*
X0049887Y1482305D01*
X0049762Y1482157D01*
X0049634Y1482012D01*
X0049503Y1481871D01*
X0049368Y1481732D01*
X0049229Y1481597D01*
X0049088Y1481466D01*
X0048943Y1481338D01*
X0048795Y1481213D01*
X0048644Y1481093D01*
X0048491Y1480976D01*
X0048334Y1480862D01*
X0048175Y1480753D01*
X0048013Y1480648D01*
X0047848Y1480546D01*
X0047681Y1480449D01*
X0047512Y1480356D01*
X0047340Y1480267D01*
X0047167Y1480182D01*
X0046991Y1480102D01*
X0046813Y1480025D01*
X0046634Y1479954D01*
X0046453Y1479886D01*
X0046270Y1479823D01*
X0046086Y1479765D01*
X0045900Y1479711D01*
X0045713Y1479662D01*
X0045525Y1479617D01*
X0045336Y1479577D01*
X0045146Y1479542D01*
X0044955Y1479511D01*
X0044764Y1479485D01*
X0044572Y1479464D01*
X0044379Y1479447D01*
X0044186Y1479435D01*
X0043993Y1479428D01*
X0043800Y1479426D01*
X0043607Y1479428D01*
X0043414Y1479435D01*
X0043221Y1479447D01*
X0043028Y1479464D01*
X0042836Y1479485D01*
X0042645Y1479511D01*
X0042454Y1479542D01*
X0042264Y1479577D01*
X0042075Y1479617D01*
X0041887Y1479662D01*
X0041700Y1479711D01*
X0041514Y1479765D01*
X0041330Y1479823D01*
X0041147Y1479886D01*
X0040966Y1479954D01*
X0040787Y1480025D01*
X0040609Y1480102D01*
X0040433Y1480182D01*
X0040260Y1480267D01*
X0040088Y1480356D01*
X0039919Y1480449D01*
X0039752Y1480546D01*
X0039587Y1480648D01*
X0039425Y1480753D01*
X0039266Y1480862D01*
X0039109Y1480976D01*
X0038956Y1481093D01*
X0038805Y1481213D01*
X0038657Y1481338D01*
X0038512Y1481466D01*
X0038371Y1481597D01*
X0038232Y1481732D01*
X0038097Y1481871D01*
X0037966Y1482012D01*
X0037838Y1482157D01*
X0037713Y1482305D01*
X0037593Y1482456D01*
X0037476Y1482609D01*
X0037362Y1482766D01*
X0037253Y1482925D01*
X0037148Y1483087D01*
X0037046Y1483252D01*
X0036949Y1483419D01*
X0036856Y1483588D01*
X0036767Y1483760D01*
X0036682Y1483933D01*
X0036602Y1484109D01*
X0036525Y1484287D01*
X0036454Y1484466D01*
X0036386Y1484647D01*
X0036323Y1484830D01*
X0036265Y1485014D01*
X0036211Y1485200D01*
X0036162Y1485387D01*
X0036117Y1485575D01*
X0036077Y1485764D01*
X0036042Y1485954D01*
X0036011Y1486145D01*
X0035985Y1486336D01*
X0035964Y1486528D01*
X0035947Y1486721D01*
X0035935Y1486914D01*
X0035928Y1487107D01*
X0035926Y1487300D01*
X0400926Y1487300D02*
X0400928Y1487493D01*
X0400935Y1487686D01*
X0400947Y1487879D01*
X0400964Y1488072D01*
X0400985Y1488264D01*
X0401011Y1488455D01*
X0401042Y1488646D01*
X0401077Y1488836D01*
X0401117Y1489025D01*
X0401162Y1489213D01*
X0401211Y1489400D01*
X0401265Y1489586D01*
X0401323Y1489770D01*
X0401386Y1489953D01*
X0401454Y1490134D01*
X0401525Y1490313D01*
X0401602Y1490491D01*
X0401682Y1490667D01*
X0401767Y1490840D01*
X0401856Y1491012D01*
X0401949Y1491181D01*
X0402046Y1491348D01*
X0402148Y1491513D01*
X0402253Y1491675D01*
X0402362Y1491834D01*
X0402476Y1491991D01*
X0402593Y1492144D01*
X0402713Y1492295D01*
X0402838Y1492443D01*
X0402966Y1492588D01*
X0403097Y1492729D01*
X0403232Y1492868D01*
X0403371Y1493003D01*
X0403512Y1493134D01*
X0403657Y1493262D01*
X0403805Y1493387D01*
X0403956Y1493507D01*
X0404109Y1493624D01*
X0404266Y1493738D01*
X0404425Y1493847D01*
X0404587Y1493952D01*
X0404752Y1494054D01*
X0404919Y1494151D01*
X0405088Y1494244D01*
X0405260Y1494333D01*
X0405433Y1494418D01*
X0405609Y1494498D01*
X0405787Y1494575D01*
X0405966Y1494646D01*
X0406147Y1494714D01*
X0406330Y1494777D01*
X0406514Y1494835D01*
X0406700Y1494889D01*
X0406887Y1494938D01*
X0407075Y1494983D01*
X0407264Y1495023D01*
X0407454Y1495058D01*
X0407645Y1495089D01*
X0407836Y1495115D01*
X0408028Y1495136D01*
X0408221Y1495153D01*
X0408414Y1495165D01*
X0408607Y1495172D01*
X0408800Y1495174D01*
X0408993Y1495172D01*
X0409186Y1495165D01*
X0409379Y1495153D01*
X0409572Y1495136D01*
X0409764Y1495115D01*
X0409955Y1495089D01*
X0410146Y1495058D01*
X0410336Y1495023D01*
X0410525Y1494983D01*
X0410713Y1494938D01*
X0410900Y1494889D01*
X0411086Y1494835D01*
X0411270Y1494777D01*
X0411453Y1494714D01*
X0411634Y1494646D01*
X0411813Y1494575D01*
X0411991Y1494498D01*
X0412167Y1494418D01*
X0412340Y1494333D01*
X0412512Y1494244D01*
X0412681Y1494151D01*
X0412848Y1494054D01*
X0413013Y1493952D01*
X0413175Y1493847D01*
X0413334Y1493738D01*
X0413491Y1493624D01*
X0413644Y1493507D01*
X0413795Y1493387D01*
X0413943Y1493262D01*
X0414088Y1493134D01*
X0414229Y1493003D01*
X0414368Y1492868D01*
X0414503Y1492729D01*
X0414634Y1492588D01*
X0414762Y1492443D01*
X0414887Y1492295D01*
X0415007Y1492144D01*
X0415124Y1491991D01*
X0415238Y1491834D01*
X0415347Y1491675D01*
X0415452Y1491513D01*
X0415554Y1491348D01*
X0415651Y1491181D01*
X0415744Y1491012D01*
X0415833Y1490840D01*
X0415918Y1490667D01*
X0415998Y1490491D01*
X0416075Y1490313D01*
X0416146Y1490134D01*
X0416214Y1489953D01*
X0416277Y1489770D01*
X0416335Y1489586D01*
X0416389Y1489400D01*
X0416438Y1489213D01*
X0416483Y1489025D01*
X0416523Y1488836D01*
X0416558Y1488646D01*
X0416589Y1488455D01*
X0416615Y1488264D01*
X0416636Y1488072D01*
X0416653Y1487879D01*
X0416665Y1487686D01*
X0416672Y1487493D01*
X0416674Y1487300D01*
X0416672Y1487107D01*
X0416665Y1486914D01*
X0416653Y1486721D01*
X0416636Y1486528D01*
X0416615Y1486336D01*
X0416589Y1486145D01*
X0416558Y1485954D01*
X0416523Y1485764D01*
X0416483Y1485575D01*
X0416438Y1485387D01*
X0416389Y1485200D01*
X0416335Y1485014D01*
X0416277Y1484830D01*
X0416214Y1484647D01*
X0416146Y1484466D01*
X0416075Y1484287D01*
X0415998Y1484109D01*
X0415918Y1483933D01*
X0415833Y1483760D01*
X0415744Y1483588D01*
X0415651Y1483419D01*
X0415554Y1483252D01*
X0415452Y1483087D01*
X0415347Y1482925D01*
X0415238Y1482766D01*
X0415124Y1482609D01*
X0415007Y1482456D01*
X0414887Y1482305D01*
X0414762Y1482157D01*
X0414634Y1482012D01*
X0414503Y1481871D01*
X0414368Y1481732D01*
X0414229Y1481597D01*
X0414088Y1481466D01*
X0413943Y1481338D01*
X0413795Y1481213D01*
X0413644Y1481093D01*
X0413491Y1480976D01*
X0413334Y1480862D01*
X0413175Y1480753D01*
X0413013Y1480648D01*
X0412848Y1480546D01*
X0412681Y1480449D01*
X0412512Y1480356D01*
X0412340Y1480267D01*
X0412167Y1480182D01*
X0411991Y1480102D01*
X0411813Y1480025D01*
X0411634Y1479954D01*
X0411453Y1479886D01*
X0411270Y1479823D01*
X0411086Y1479765D01*
X0410900Y1479711D01*
X0410713Y1479662D01*
X0410525Y1479617D01*
X0410336Y1479577D01*
X0410146Y1479542D01*
X0409955Y1479511D01*
X0409764Y1479485D01*
X0409572Y1479464D01*
X0409379Y1479447D01*
X0409186Y1479435D01*
X0408993Y1479428D01*
X0408800Y1479426D01*
X0408607Y1479428D01*
X0408414Y1479435D01*
X0408221Y1479447D01*
X0408028Y1479464D01*
X0407836Y1479485D01*
X0407645Y1479511D01*
X0407454Y1479542D01*
X0407264Y1479577D01*
X0407075Y1479617D01*
X0406887Y1479662D01*
X0406700Y1479711D01*
X0406514Y1479765D01*
X0406330Y1479823D01*
X0406147Y1479886D01*
X0405966Y1479954D01*
X0405787Y1480025D01*
X0405609Y1480102D01*
X0405433Y1480182D01*
X0405260Y1480267D01*
X0405088Y1480356D01*
X0404919Y1480449D01*
X0404752Y1480546D01*
X0404587Y1480648D01*
X0404425Y1480753D01*
X0404266Y1480862D01*
X0404109Y1480976D01*
X0403956Y1481093D01*
X0403805Y1481213D01*
X0403657Y1481338D01*
X0403512Y1481466D01*
X0403371Y1481597D01*
X0403232Y1481732D01*
X0403097Y1481871D01*
X0402966Y1482012D01*
X0402838Y1482157D01*
X0402713Y1482305D01*
X0402593Y1482456D01*
X0402476Y1482609D01*
X0402362Y1482766D01*
X0402253Y1482925D01*
X0402148Y1483087D01*
X0402046Y1483252D01*
X0401949Y1483419D01*
X0401856Y1483588D01*
X0401767Y1483760D01*
X0401682Y1483933D01*
X0401602Y1484109D01*
X0401525Y1484287D01*
X0401454Y1484466D01*
X0401386Y1484647D01*
X0401323Y1484830D01*
X0401265Y1485014D01*
X0401211Y1485200D01*
X0401162Y1485387D01*
X0401117Y1485575D01*
X0401077Y1485764D01*
X0401042Y1485954D01*
X0401011Y1486145D01*
X0400985Y1486336D01*
X0400964Y1486528D01*
X0400947Y1486721D01*
X0400935Y1486914D01*
X0400928Y1487107D01*
X0400926Y1487300D01*
X0400926Y1202300D02*
X0400928Y1202493D01*
X0400935Y1202686D01*
X0400947Y1202879D01*
X0400964Y1203072D01*
X0400985Y1203264D01*
X0401011Y1203455D01*
X0401042Y1203646D01*
X0401077Y1203836D01*
X0401117Y1204025D01*
X0401162Y1204213D01*
X0401211Y1204400D01*
X0401265Y1204586D01*
X0401323Y1204770D01*
X0401386Y1204953D01*
X0401454Y1205134D01*
X0401525Y1205313D01*
X0401602Y1205491D01*
X0401682Y1205667D01*
X0401767Y1205840D01*
X0401856Y1206012D01*
X0401949Y1206181D01*
X0402046Y1206348D01*
X0402148Y1206513D01*
X0402253Y1206675D01*
X0402362Y1206834D01*
X0402476Y1206991D01*
X0402593Y1207144D01*
X0402713Y1207295D01*
X0402838Y1207443D01*
X0402966Y1207588D01*
X0403097Y1207729D01*
X0403232Y1207868D01*
X0403371Y1208003D01*
X0403512Y1208134D01*
X0403657Y1208262D01*
X0403805Y1208387D01*
X0403956Y1208507D01*
X0404109Y1208624D01*
X0404266Y1208738D01*
X0404425Y1208847D01*
X0404587Y1208952D01*
X0404752Y1209054D01*
X0404919Y1209151D01*
X0405088Y1209244D01*
X0405260Y1209333D01*
X0405433Y1209418D01*
X0405609Y1209498D01*
X0405787Y1209575D01*
X0405966Y1209646D01*
X0406147Y1209714D01*
X0406330Y1209777D01*
X0406514Y1209835D01*
X0406700Y1209889D01*
X0406887Y1209938D01*
X0407075Y1209983D01*
X0407264Y1210023D01*
X0407454Y1210058D01*
X0407645Y1210089D01*
X0407836Y1210115D01*
X0408028Y1210136D01*
X0408221Y1210153D01*
X0408414Y1210165D01*
X0408607Y1210172D01*
X0408800Y1210174D01*
X0408993Y1210172D01*
X0409186Y1210165D01*
X0409379Y1210153D01*
X0409572Y1210136D01*
X0409764Y1210115D01*
X0409955Y1210089D01*
X0410146Y1210058D01*
X0410336Y1210023D01*
X0410525Y1209983D01*
X0410713Y1209938D01*
X0410900Y1209889D01*
X0411086Y1209835D01*
X0411270Y1209777D01*
X0411453Y1209714D01*
X0411634Y1209646D01*
X0411813Y1209575D01*
X0411991Y1209498D01*
X0412167Y1209418D01*
X0412340Y1209333D01*
X0412512Y1209244D01*
X0412681Y1209151D01*
X0412848Y1209054D01*
X0413013Y1208952D01*
X0413175Y1208847D01*
X0413334Y1208738D01*
X0413491Y1208624D01*
X0413644Y1208507D01*
X0413795Y1208387D01*
X0413943Y1208262D01*
X0414088Y1208134D01*
X0414229Y1208003D01*
X0414368Y1207868D01*
X0414503Y1207729D01*
X0414634Y1207588D01*
X0414762Y1207443D01*
X0414887Y1207295D01*
X0415007Y1207144D01*
X0415124Y1206991D01*
X0415238Y1206834D01*
X0415347Y1206675D01*
X0415452Y1206513D01*
X0415554Y1206348D01*
X0415651Y1206181D01*
X0415744Y1206012D01*
X0415833Y1205840D01*
X0415918Y1205667D01*
X0415998Y1205491D01*
X0416075Y1205313D01*
X0416146Y1205134D01*
X0416214Y1204953D01*
X0416277Y1204770D01*
X0416335Y1204586D01*
X0416389Y1204400D01*
X0416438Y1204213D01*
X0416483Y1204025D01*
X0416523Y1203836D01*
X0416558Y1203646D01*
X0416589Y1203455D01*
X0416615Y1203264D01*
X0416636Y1203072D01*
X0416653Y1202879D01*
X0416665Y1202686D01*
X0416672Y1202493D01*
X0416674Y1202300D01*
X0416672Y1202107D01*
X0416665Y1201914D01*
X0416653Y1201721D01*
X0416636Y1201528D01*
X0416615Y1201336D01*
X0416589Y1201145D01*
X0416558Y1200954D01*
X0416523Y1200764D01*
X0416483Y1200575D01*
X0416438Y1200387D01*
X0416389Y1200200D01*
X0416335Y1200014D01*
X0416277Y1199830D01*
X0416214Y1199647D01*
X0416146Y1199466D01*
X0416075Y1199287D01*
X0415998Y1199109D01*
X0415918Y1198933D01*
X0415833Y1198760D01*
X0415744Y1198588D01*
X0415651Y1198419D01*
X0415554Y1198252D01*
X0415452Y1198087D01*
X0415347Y1197925D01*
X0415238Y1197766D01*
X0415124Y1197609D01*
X0415007Y1197456D01*
X0414887Y1197305D01*
X0414762Y1197157D01*
X0414634Y1197012D01*
X0414503Y1196871D01*
X0414368Y1196732D01*
X0414229Y1196597D01*
X0414088Y1196466D01*
X0413943Y1196338D01*
X0413795Y1196213D01*
X0413644Y1196093D01*
X0413491Y1195976D01*
X0413334Y1195862D01*
X0413175Y1195753D01*
X0413013Y1195648D01*
X0412848Y1195546D01*
X0412681Y1195449D01*
X0412512Y1195356D01*
X0412340Y1195267D01*
X0412167Y1195182D01*
X0411991Y1195102D01*
X0411813Y1195025D01*
X0411634Y1194954D01*
X0411453Y1194886D01*
X0411270Y1194823D01*
X0411086Y1194765D01*
X0410900Y1194711D01*
X0410713Y1194662D01*
X0410525Y1194617D01*
X0410336Y1194577D01*
X0410146Y1194542D01*
X0409955Y1194511D01*
X0409764Y1194485D01*
X0409572Y1194464D01*
X0409379Y1194447D01*
X0409186Y1194435D01*
X0408993Y1194428D01*
X0408800Y1194426D01*
X0408607Y1194428D01*
X0408414Y1194435D01*
X0408221Y1194447D01*
X0408028Y1194464D01*
X0407836Y1194485D01*
X0407645Y1194511D01*
X0407454Y1194542D01*
X0407264Y1194577D01*
X0407075Y1194617D01*
X0406887Y1194662D01*
X0406700Y1194711D01*
X0406514Y1194765D01*
X0406330Y1194823D01*
X0406147Y1194886D01*
X0405966Y1194954D01*
X0405787Y1195025D01*
X0405609Y1195102D01*
X0405433Y1195182D01*
X0405260Y1195267D01*
X0405088Y1195356D01*
X0404919Y1195449D01*
X0404752Y1195546D01*
X0404587Y1195648D01*
X0404425Y1195753D01*
X0404266Y1195862D01*
X0404109Y1195976D01*
X0403956Y1196093D01*
X0403805Y1196213D01*
X0403657Y1196338D01*
X0403512Y1196466D01*
X0403371Y1196597D01*
X0403232Y1196732D01*
X0403097Y1196871D01*
X0402966Y1197012D01*
X0402838Y1197157D01*
X0402713Y1197305D01*
X0402593Y1197456D01*
X0402476Y1197609D01*
X0402362Y1197766D01*
X0402253Y1197925D01*
X0402148Y1198087D01*
X0402046Y1198252D01*
X0401949Y1198419D01*
X0401856Y1198588D01*
X0401767Y1198760D01*
X0401682Y1198933D01*
X0401602Y1199109D01*
X0401525Y1199287D01*
X0401454Y1199466D01*
X0401386Y1199647D01*
X0401323Y1199830D01*
X0401265Y1200014D01*
X0401211Y1200200D01*
X0401162Y1200387D01*
X0401117Y1200575D01*
X0401077Y1200764D01*
X0401042Y1200954D01*
X0401011Y1201145D01*
X0400985Y1201336D01*
X0400964Y1201528D01*
X0400947Y1201721D01*
X0400935Y1201914D01*
X0400928Y1202107D01*
X0400926Y1202300D01*
D11*
X0301300Y1312261D03*
X0301300Y1332339D03*
D12*
X0215867Y1254800D03*
X0186733Y1254800D03*
M02*
