M48
;GenerationSoftware,Autodesk,EAGLE,9.3.0*%
;CreationDate,2019-05-05T19:07:20Z*%
FMAT,2
ICI,OFF
METRIC,TZ,000.000
T10C0.300
T9C0.500
T8C0.610
T7C0.813
T6C0.914
T5C1.000
T4C1.321
T3C2.007
T2C4.000
%
G90
M71
T2
X5080Y74930
X5080Y5080
X77470Y5080
X77470Y74930
T3
X5080Y31750
X78740Y41910
T4
X20320Y46990
X59690Y46990
T5
X21590Y35560
X55880Y2540
X16510Y35560
X11430Y20320
X11430Y25400
X11430Y30480
X11430Y35560
X11430Y12700
X11430Y7620
X41275Y2540
X31750Y2540
X36830Y2540
X45720Y2540
X50800Y2540
X60960Y35560
X26670Y35560
X31750Y35560
X36195Y35560
X71120Y35560
X66040Y35560
X71120Y20320
X71120Y25400
X71120Y30480
X71120Y12700
X71120Y7620
X40640Y35560
X45720Y35560
X50800Y35560
X55880Y35560
X66040Y2540
X71120Y2540
X26670Y2540
X21590Y2540
X16510Y2540
X11430Y2540
X60960Y2540
T6
X41910Y72390
X31750Y72390
X34290Y72390
X36830Y72390
X39370Y72390
X46990Y72390
X44450Y72390
X49530Y72390
T7
X42100Y50300
X42100Y57920
X39560Y57920
X39560Y50300
T8
X5945Y40196
X3405Y42736
X8485Y42736
T9
X78740Y24384
X77470Y23114
X81280Y24384
X77470Y14859
X77470Y12319
X78740Y11049
X81280Y11049
X77470Y20574
X43180Y33020
X9017Y65405
X16891Y54356
X50800Y31750
X58420Y31750
X54610Y21082
X61722Y21082
X30353Y68580
X33401Y68580
X5715Y54102
X43180Y38100
X54610Y19050
X60960Y19050
X63500Y33020
X63500Y38100
X49530Y58420
X59690Y58420
X58420Y49784
X5969Y50419
X3429Y50800
X13970Y46736
X34798Y52070
X34798Y49530
X34798Y63500
X34798Y60960
X73660Y60960
X73660Y63500
X53848Y55880
X47625Y50800
X47371Y57150
X49530Y61341
X73660Y52070
X73660Y49530
X45720Y9779
X68580Y16129
X66040Y14859
X63500Y12319
X60960Y11049
X58420Y9144
X55880Y9779
X53340Y9779
X50800Y11049
X48260Y11049
X73660Y16129
X43180Y5969
X40640Y5969
X38100Y5969
X35560Y5969
X33020Y5969
X33020Y8509
X33020Y11049
X33020Y13589
X33020Y16129
X58420Y16764
X36830Y41910
X39370Y44450
X38100Y38100
X38100Y33020
X48006Y22860
X50800Y22733
X53340Y22733
X55880Y22733
X58420Y22733
X5080Y11176
X55880Y16764
X53340Y16764
X60960Y16764
X63500Y18034
X66040Y19304
X68580Y19304
X73660Y19304
X76200Y19304
X76200Y16129
X24130Y8636
X8890Y19304
X6350Y19304
X6350Y16256
X8890Y16256
X13970Y16256
X16510Y14986
X16510Y12446
X19050Y11176
X21590Y11176
X30480Y16129
X26670Y8636
X29210Y8636
X30480Y11176
X23749Y16002
X6350Y21844
X5080Y24384
X2540Y24384
X6350Y13716
X2540Y11176
X16510Y21209
X56769Y29845
X27940Y16129
X54229Y29845
X51689Y29845
X44450Y27559
X41910Y27432
X36830Y27559
X39370Y27559
X34290Y30099
X29210Y28829
X29210Y26289
X26670Y23749
X24130Y21209
X33020Y18669
X13970Y19939
X21590Y21209
X31750Y30099
X19050Y21209
T10
X37592Y19685
X42545Y22225
X41275Y22225
X43815Y22225
X42672Y16764
X42545Y19304
X42545Y18034
X43307Y14732
X43815Y15875
X40640Y24765
X38862Y15875
X42545Y15621
X37592Y20955
X37592Y22225
X37592Y23495
X37592Y24765
X47498Y18415
X47498Y19685
X41148Y20955
X41148Y16764
X47498Y20955
X47498Y17145
X37592Y26035
X38862Y26035
X40386Y13970
X40640Y23495
M30