M48
;GenerationSoftware,Autodesk,EAGLE,9.3.0*%
;CreationDate,2019-04-15T11:10:20Z*%
FMAT,2
ICI,OFF
METRIC,TZ,000.000
T4C0.813
T3C1.000
T2C4.000
%
G90
M71
T2
X81280Y3810
X81280Y41910
X48260Y41910
X48260Y3810
T3
X78740Y13970
X49911Y16510
X54610Y2540
X59690Y2540
X54610Y41910
X65532Y18288
X50165Y11049
X72263Y20447
X82550Y13970
X74930Y13970
X71120Y13970
X59690Y27940
X65786Y11176
X74930Y38100
X74930Y32131
X76962Y2540
X76962Y23495
X58420Y41910
T4
X67310Y25400
X67310Y20320
X67310Y22860
X66040Y5080
X66040Y2540
X73660Y2540
X73660Y5080
M30